<svg width="410" height="277" viewBox="0 0 410 277" fill="none" xmlns="http://www.w3.org/2000/svg">
<path d="M44.9582 24.2435C43.7797 24.2921 42.6013 24.4338 41.4228 24.527C41.1879 22.5952 40.7627 20.2828 40.2443 17.691C39.6774 15.0992 38.831 12.5033 37.7456 9.91152C36.6158 7.36424 35.1498 5.14904 33.3112 3.35502C31.5212 1.51644 29.2088 0.431119 26.3781 0.103092C23.4056 -0.228985 20.6234 0.244834 18.0802 1.4719C15.5329 2.74351 13.2246 4.53753 11.1471 6.84587C9.07362 9.20281 7.18645 11.8918 5.53417 14.8643C3.88188 17.8814 2.41993 20.947 1.14832 24.1544C-0.123294 27.3618 -1.20862 30.3788 -2.05906 33.2541C-3.94623 39.5717 -5.40818 46.1768 -6.44491 53.0613C-7.48164 59.9944 -8 66.6886 -8 73.1965H1.00658C1.00658 69.0455 1.29006 64.5665 1.85702 59.8041C2.46853 55.0416 3.27037 50.2791 4.31115 45.4681C5.34788 40.6125 6.57494 36.0363 8.03689 31.6059C9.45025 27.22 11.0539 23.308 12.7994 19.9103C14.5893 16.468 16.432 13.779 18.3637 11.8473C20.344 9.86697 22.3729 8.92337 24.4464 9.01652C25.9569 9.06511 27.1799 9.76977 28.2207 11.1386C29.2129 12.5074 30.0107 14.2042 30.6262 16.1845C31.2863 18.1649 31.7561 20.1452 32.0882 22.0809C32.3717 24.0612 32.6066 25.6163 32.7483 26.7948C31.8979 27.1269 31.0515 27.5035 30.2496 27.9247C29.4478 28.3499 28.6459 28.7751 27.8441 29.2449C23.8835 31.4601 20.4412 34.5743 17.5173 38.6281C14.5934 42.6373 12.4713 46.8814 11.2443 51.3118C10.491 54.2357 10.1589 57.2082 10.2521 60.1766C10.3938 63.1005 10.9608 65.8341 11.9975 68.3328C12.9897 70.7869 14.4962 72.7672 16.432 74.2737C18.3677 75.7802 20.7692 76.5375 23.5514 76.6306C26.4267 76.6792 28.8808 76.0637 30.9097 74.7921C32.89 73.5205 34.5869 71.8196 35.9071 69.7461C37.2759 67.6241 38.3126 65.3117 39.1144 62.813C39.8677 60.3589 40.4833 57.9088 40.8599 55.4547C41.2365 53.0005 41.52 50.8339 41.7103 48.8536C41.8521 46.9219 41.9452 45.46 42.0424 44.4678C42.3745 40.8352 42.4676 37.158 42.3259 33.5254C43.2209 33.3837 44.2131 33.2906 45.2012 33.1934C46.2379 33.1002 47.2746 33.0516 48.4086 33.1447L48.5017 24.1382C47.3232 24.1382 46.1448 24.1868 44.9663 24.2313L44.9582 24.2435ZM33.1695 43.2488C33.0277 46.4076 32.6997 49.6636 32.1813 53.0572C31.7116 55.6977 31.096 58.1518 30.3913 60.5087C29.6827 62.8211 28.7877 64.7042 27.6578 66.0244C26.5725 67.3446 25.2037 67.9116 23.5554 67.6281C22.3284 67.4378 21.3848 66.7777 20.7247 65.6478C20.0646 64.4693 19.6393 63.1491 19.4531 61.6872C19.2627 60.1766 19.2182 58.8119 19.3599 57.5848C19.8297 53.2476 21.2471 49.2384 23.604 45.464C26.0096 41.6897 29.2615 38.6726 33.4124 36.4574C33.4124 37.8262 33.3638 40.09 33.1776 43.2488H33.1695Z" fill="#545454"/>
<path d="M94.4741 33.1084C96.503 29.8565 97.5397 26.0821 97.5397 21.7894C97.5397 15.2815 95.8429 10.2842 92.5423 6.79329C89.2418 3.30243 84.2445 1.55701 77.5948 1.55701H53.9688V73.1884H68.2116V42.6293H72.1277C74.7195 42.6293 76.7484 43.2894 78.1172 44.6096C79.5306 45.9298 80.2393 48.1936 80.2393 51.401V73.1884H94.4822V50.506C94.4822 47.5335 93.7289 45.0834 92.2184 43.2448C90.6633 41.4062 88.444 40.4141 85.5242 40.2723V39.754C89.4848 38.5269 92.5018 36.3117 94.4822 33.1043L94.4741 33.1084ZM81.5068 28.4876C79.9963 29.9496 78.1132 30.7028 75.8494 30.7028H68.2116V13.3984H75.8494C78.1132 13.3984 80.0003 14.0585 81.5068 15.3301C83.0174 16.6503 83.7706 18.821 83.7706 21.7894C83.7706 24.7579 83.0174 27.0257 81.5068 28.4836V28.4876Z" fill="#545454"/>
<path d="M100.557 1.56116V13.3013H116.873V73.1885H131.116V13.3013H147.339V1.56116H100.561H100.557Z" fill="#545454"/>
<path d="M189.967 61.4484V1.56116H175.68V73.1926H213.123V61.4525H189.971L189.967 61.4484Z" fill="#545454"/>
<path d="M257.731 6.08879C253.628 2.03502 248.299 0.00610352 241.649 0.00610352C235 0.00610352 229.387 2.03502 225.24 6.08879C221.044 10.098 218.967 15.8972 218.967 23.4418V51.312C218.967 58.8081 221.04 64.5627 225.24 68.6165C229.391 72.6257 234.858 74.6546 241.649 74.6546C245.565 74.6546 249.194 73.8042 252.543 72.1073C255.892 70.4105 258.626 67.8632 260.699 64.4696C262.773 61.0273 263.813 56.6415 263.813 51.312V23.4418C263.813 15.8972 261.785 10.098 257.731 6.08879ZM249.575 49.6638C249.575 51.9276 249.34 54.0496 248.866 55.9368C248.396 57.8685 247.639 59.4277 246.46 60.6507C245.326 61.8291 243.727 62.4407 241.649 62.4407C238.397 62.4407 236.178 61.2622 235 58.9053C233.821 56.4997 233.254 53.4341 233.254 49.6638V25.0496C233.254 22.7372 233.445 20.6151 233.914 18.6834C234.384 16.7517 235.186 15.148 236.368 13.9695C237.547 12.8397 239.199 12.2241 241.366 12.2241C243.532 12.2241 245.14 12.8356 246.319 13.9695C247.497 15.148 248.348 16.7517 248.817 18.6834C249.287 20.6151 249.571 22.7372 249.571 25.0496V49.6638H249.575Z" fill="#545454"/>
<path d="M311.491 42.2568C312.103 40.9851 312.621 39.8998 313.046 38.9077C313.516 37.9155 313.799 37.304 313.941 37.0205C315.354 33.8617 316.488 30.5126 317.29 27.0703C318.043 23.628 318.42 20.2789 318.376 17.0715C318.376 13.8196 317.857 10.9403 316.865 8.34846C315.921 5.80118 314.411 3.77228 312.386 2.26578C310.357 0.755236 307.717 0.0505778 304.465 0.0951247C300.832 0.188268 297.722 1.65022 295.175 4.52957C292.627 7.36033 290.931 11.1306 290.129 15.8485C289.375 19.9023 289.278 24.0087 289.797 28.1557C290.315 32.3066 291.307 36.2672 292.814 40.0375C294.276 43.7633 296.021 47.0638 298.001 49.846C297.483 50.7409 296.73 52.1097 295.738 53.8552C294.701 55.6006 293.567 57.3906 292.247 59.1846C290.927 60.9746 289.558 62.4365 288.051 63.619C286.541 64.7975 285.034 65.2713 283.572 64.9878C281.734 64.6558 280.32 63.1493 279.377 60.4117C278.385 57.6781 277.822 54.0941 277.631 49.7083C277.49 45.3224 277.68 40.4668 278.243 35.1374C278.761 29.8079 279.612 24.434 280.741 18.9142C281.827 13.3985 283.147 8.21076 284.751 3.25796L276.311 0.382664C274.238 6.79742 272.537 13.2567 271.217 19.8132C269.848 26.3697 269.001 32.6387 268.621 38.6282C268.43 41.3618 268.337 44.2411 268.386 47.3513C268.386 50.4655 268.621 53.5271 269.094 56.5482C269.564 59.5653 270.322 62.3474 271.358 64.8947C272.395 67.442 273.764 69.564 275.554 71.3095C277.299 73.0063 279.563 74.0916 282.297 74.4682C284.702 74.8449 286.966 74.5168 289.132 73.4801C291.255 72.4434 293.283 70.9814 295.167 69.1429C297.054 67.3043 298.799 65.2754 300.306 63.1047C301.816 60.8895 303.136 58.8606 304.266 56.8803C306.814 59.2373 309.596 61.0313 312.661 62.2543L316.294 54.2358C314.783 53.5757 313.37 52.8225 312.098 51.8789C310.778 50.9839 309.6 49.9472 308.466 48.7647C308.798 48.056 309.219 47.1124 309.786 45.9339C310.353 44.7554 310.916 43.5284 311.483 42.2568H311.491ZM308.097 25.8918C307.437 28.7672 306.635 31.5048 305.692 34.052C304.748 36.6439 303.76 38.7214 302.719 40.3696C301.776 38.8145 300.974 36.737 300.221 34.0966C299.467 31.5048 298.949 28.7226 298.666 25.7015C298.382 22.729 298.431 19.9468 298.9 17.4036C299.042 16.6018 299.326 15.5651 299.751 14.1963C300.176 12.8274 300.788 11.6044 301.638 10.5191C302.488 9.43379 303.57 8.91542 304.939 9.00856C306.591 9.05716 307.721 9.90355 308.381 11.5558C309.041 13.1595 309.324 15.233 309.231 17.7802C309.138 20.3275 308.761 23.0611 308.097 25.8918Z" fill="#545454"/>
<path d="M360.157 13.3013V1.56116H322.762V73.1926H360.157V61.4525H337.005V41.8356H356.856V30.0955H337.005V13.3094H360.157V13.3013Z" fill="#545454"/>
<path d="M406.984 33.1084C408.964 29.8565 410.001 26.0821 410.001 21.7894C410.001 15.2815 408.348 10.2842 405.003 6.79329C401.703 3.30243 396.705 1.55701 390.056 1.55701H366.43V73.1884H380.673V42.6293H384.589C387.18 42.6293 389.209 43.2894 390.623 44.6096C390.999 44.9416 391.283 45.3628 391.566 45.8812C392.32 47.2014 392.696 49.04 392.696 51.3969V73.1844H406.984V50.5019C406.984 47.5294 406.182 45.0794 404.671 43.2408C403.302 41.5885 401.371 40.6489 398.917 40.41C398.633 40.3169 398.305 40.2683 397.973 40.2683V39.7499C401.934 38.5228 404.951 36.3076 406.98 33.1003L406.984 33.1084ZM388.31 30.7028H380.673V13.3984H388.31C390.574 13.3984 392.461 14.0585 393.968 15.3301C395.478 16.6503 396.232 18.821 396.232 21.7894C396.232 24.7579 395.478 27.0257 393.968 28.4836C392.457 29.9415 390.574 30.6988 388.31 30.6988V30.7028Z" fill="#545454"/>
<path d="M44.9582 124.243C43.7797 124.292 42.6013 124.434 41.4228 124.527C41.1879 122.595 40.7627 120.283 40.2443 117.691C39.6774 115.099 38.831 112.503 37.7456 109.912C36.6158 107.364 35.1498 105.149 33.3112 103.355C31.5212 101.516 29.2088 100.431 26.3781 100.103C23.4056 99.771 20.6234 100.245 18.0802 101.472C15.5329 102.744 13.2246 104.538 11.1471 106.846C9.07362 109.203 7.18645 111.892 5.53417 114.864C3.88188 117.881 2.41993 120.947 1.14832 124.154C-0.123294 127.362 -1.20862 130.379 -2.05906 133.254C-3.94623 139.572 -5.40818 146.177 -6.44491 153.061C-7.48164 159.994 -8 166.689 -8 173.196H1.00658C1.00658 169.046 1.29006 164.567 1.85702 159.804C2.46853 155.042 3.27037 150.279 4.31115 145.468C5.34788 140.612 6.57494 136.036 8.03689 131.606C9.45025 127.22 11.0539 123.308 12.7994 119.91C14.5893 116.468 16.432 113.779 18.3637 111.847C20.344 109.867 22.3729 108.923 24.4464 109.017C25.9569 109.065 27.1799 109.77 28.2207 111.139C29.2129 112.507 30.0107 114.204 30.6262 116.185C31.2863 118.165 31.7561 120.145 32.0882 122.081C32.3717 124.061 32.6066 125.616 32.7483 126.795C31.8979 127.127 31.0515 127.504 30.2496 127.925C29.4478 128.35 28.6459 128.775 27.8441 129.245C23.8835 131.46 20.4412 134.574 17.5173 138.628C14.5934 142.637 12.4713 146.881 11.2443 151.312C10.491 154.236 10.1589 157.208 10.2521 160.177C10.3938 163.101 10.9608 165.834 11.9975 168.333C12.9897 170.787 14.4962 172.767 16.432 174.274C18.3677 175.78 20.7692 176.538 23.5514 176.631C26.4267 176.679 28.8808 176.064 30.9097 174.792C32.89 173.52 34.5869 171.82 35.9071 169.746C37.2759 167.624 38.3126 165.312 39.1144 162.813C39.8677 160.359 40.4833 157.909 40.8599 155.455C41.2365 153.001 41.52 150.834 41.7103 148.854C41.8521 146.922 41.9452 145.46 42.0424 144.468C42.3745 140.835 42.4676 137.158 42.3259 133.525C43.2209 133.384 44.2131 133.291 45.2012 133.193C46.2379 133.1 47.2746 133.052 48.4086 133.145L48.5017 124.138C47.3232 124.138 46.1448 124.187 44.9663 124.231L44.9582 124.243ZM33.1695 143.249C33.0277 146.408 32.6997 149.664 32.1813 153.057C31.7116 155.698 31.096 158.152 30.3913 160.509C29.6827 162.821 28.7877 164.704 27.6578 166.024C26.5725 167.345 25.2037 167.912 23.5554 167.628C22.3284 167.438 21.3848 166.778 20.7247 165.648C20.0646 164.469 19.6393 163.149 19.4531 161.687C19.2627 160.177 19.2182 158.812 19.3599 157.585C19.8297 153.248 21.2471 149.238 23.604 145.464C26.0096 141.69 29.2615 138.673 33.4124 136.457C33.4124 137.826 33.3638 140.09 33.1776 143.249H33.1695Z" fill="#545454"/>
<path d="M94.4741 133.108C96.503 129.856 97.5397 126.082 97.5397 121.789C97.5397 115.282 95.8429 110.284 92.5423 106.793C89.2418 103.302 84.2445 101.557 77.5948 101.557H53.9688V173.188H68.2116V142.629H72.1277C74.7195 142.629 76.7484 143.289 78.1172 144.61C79.5306 145.93 80.2393 148.194 80.2393 151.401V173.188H94.4822V150.506C94.4822 147.533 93.7289 145.083 92.2184 143.245C90.6633 141.406 88.444 140.414 85.5242 140.272V139.754C89.4848 138.527 92.5018 136.312 94.4822 133.104L94.4741 133.108ZM81.5068 128.488C79.9963 129.95 78.1132 130.703 75.8494 130.703H68.2116V113.398H75.8494C78.1132 113.398 80.0003 114.058 81.5068 115.33C83.0174 116.65 83.7706 118.821 83.7706 121.789C83.7706 124.758 83.0174 127.026 81.5068 128.484V128.488Z" fill="#545454"/>
<path d="M103 102V113.74H119.316V173.627H133.559V113.74H149.782V102H103.004H103Z" fill="#545454"/>
<path d="M189.967 161.448V101.561H175.68V173.193H213.123V161.452H189.971L189.967 161.448Z" fill="#545454"/>
<path d="M257.731 106.089C253.628 102.035 248.299 100.006 241.649 100.006C235 100.006 229.387 102.035 225.24 106.089C221.044 110.098 218.967 115.897 218.967 123.442V151.312C218.967 158.808 221.04 164.563 225.24 168.616C229.391 172.626 234.858 174.655 241.649 174.655C245.565 174.655 249.194 173.804 252.543 172.107C255.892 170.41 258.626 167.863 260.699 164.47C262.773 161.027 263.813 156.641 263.813 151.312V123.442C263.813 115.897 261.785 110.098 257.731 106.089ZM249.575 149.664C249.575 151.928 249.34 154.05 248.866 155.937C248.396 157.869 247.639 159.428 246.46 160.651C245.326 161.829 243.727 162.441 241.649 162.441C238.397 162.441 236.178 161.262 235 158.905C233.821 156.5 233.254 153.434 233.254 149.664V125.05C233.254 122.737 233.445 120.615 233.914 118.683C234.384 116.752 235.186 115.148 236.368 113.97C237.547 112.84 239.199 112.224 241.366 112.224C243.532 112.224 245.14 112.836 246.319 113.97C247.497 115.148 248.348 116.752 248.817 118.683C249.287 120.615 249.571 122.737 249.571 125.05V149.664H249.575Z" fill="#545454"/>
<path d="M311.491 142.257C312.103 140.985 312.621 139.9 313.046 138.908C313.516 137.915 313.799 137.304 313.941 137.02C315.354 133.862 316.488 130.513 317.29 127.07C318.043 123.628 318.42 120.279 318.376 117.072C318.376 113.82 317.857 110.94 316.865 108.348C315.921 105.801 314.411 103.772 312.386 102.266C310.357 100.755 307.717 100.051 304.465 100.095C300.832 100.188 297.722 101.65 295.175 104.53C292.627 107.36 290.931 111.131 290.129 115.849C289.375 119.902 289.278 124.009 289.797 128.156C290.315 132.307 291.307 136.267 292.814 140.038C294.276 143.763 296.021 147.064 298.001 149.846C297.483 150.741 296.73 152.11 295.738 153.855C294.701 155.601 293.567 157.391 292.247 159.185C290.927 160.975 289.558 162.437 288.051 163.619C286.541 164.798 285.034 165.271 283.572 164.988C281.734 164.656 280.32 163.149 279.377 160.412C278.385 157.678 277.822 154.094 277.631 149.708C277.49 145.322 277.68 140.467 278.243 135.137C278.761 129.808 279.612 124.434 280.741 118.914C281.827 113.398 283.147 108.211 284.751 103.258L276.311 100.383C274.238 106.797 272.537 113.257 271.217 119.813C269.848 126.37 269.001 132.639 268.621 138.628C268.43 141.362 268.337 144.241 268.386 147.351C268.386 150.466 268.621 153.527 269.094 156.548C269.564 159.565 270.322 162.347 271.358 164.895C272.395 167.442 273.764 169.564 275.554 171.309C277.299 173.006 279.563 174.092 282.297 174.468C284.702 174.845 286.966 174.517 289.132 173.48C291.255 172.443 293.283 170.981 295.167 169.143C297.054 167.304 298.799 165.275 300.306 163.105C301.816 160.89 303.136 158.861 304.266 156.88C306.814 159.237 309.596 161.031 312.661 162.254L316.294 154.236C314.783 153.576 313.37 152.822 312.098 151.879C310.778 150.984 309.6 149.947 308.466 148.765C308.798 148.056 309.219 147.112 309.786 145.934C310.353 144.755 310.916 143.528 311.483 142.257H311.491ZM308.097 125.892C307.437 128.767 306.635 131.505 305.692 134.052C304.748 136.644 303.76 138.721 302.719 140.37C301.776 138.815 300.974 136.737 300.221 134.097C299.467 131.505 298.949 128.723 298.666 125.702C298.382 122.729 298.431 119.947 298.9 117.404C299.042 116.602 299.326 115.565 299.751 114.196C300.176 112.827 300.788 111.604 301.638 110.519C302.488 109.434 303.57 108.915 304.939 109.009C306.591 109.057 307.721 109.904 308.381 111.556C309.041 113.16 309.324 115.233 309.231 117.78C309.138 120.328 308.761 123.061 308.097 125.892Z" fill="#545454"/>
<path d="M360.157 113.301V101.561H322.762V173.193H360.157V161.452H337.005V141.836H356.856V130.095H337.005V113.309H360.157V113.301Z" fill="#545454"/>
<path d="M406.984 133.108C408.964 129.856 410.001 126.082 410.001 121.789C410.001 115.282 408.348 110.284 405.003 106.793C401.703 103.302 396.705 101.557 390.056 101.557H366.43V173.188H380.673V142.629H384.589C387.18 142.629 389.209 143.289 390.623 144.61C390.999 144.942 391.283 145.363 391.566 145.881C392.32 147.201 392.696 149.04 392.696 151.397V173.184H406.984V150.502C406.984 147.529 406.182 145.079 404.671 143.241C403.302 141.589 401.371 140.649 398.917 140.41C398.633 140.317 398.305 140.268 397.973 140.268V139.75C401.934 138.523 404.951 136.308 406.98 133.1L406.984 133.108ZM388.31 130.703H380.673V113.398H388.31C390.574 113.398 392.461 114.058 393.968 115.33C395.478 116.65 396.232 118.821 396.232 121.789C396.232 124.758 395.478 127.026 393.968 128.484C392.457 129.942 390.574 130.699 388.31 130.699V130.703Z" fill="#545454"/>
<path d="M44.9582 224.243C43.7797 224.292 42.6013 224.434 41.4228 224.527C41.1879 222.595 40.7627 220.283 40.2443 217.691C39.6774 215.099 38.831 212.503 37.7456 209.912C36.6158 207.364 35.1498 205.149 33.3112 203.355C31.5212 201.516 29.2088 200.431 26.3781 200.103C23.4056 199.771 20.6234 200.245 18.0802 201.472C15.5329 202.744 13.2246 204.538 11.1471 206.846C9.07362 209.203 7.18645 211.892 5.53417 214.864C3.88188 217.881 2.41993 220.947 1.14832 224.154C-0.123294 227.362 -1.20862 230.379 -2.05906 233.254C-3.94623 239.572 -5.40818 246.177 -6.44491 253.061C-7.48164 259.994 -8 266.689 -8 273.196H1.00658C1.00658 269.046 1.29006 264.567 1.85702 259.804C2.46853 255.042 3.27037 250.279 4.31115 245.468C5.34788 240.612 6.57494 236.036 8.03689 231.606C9.45025 227.22 11.0539 223.308 12.7994 219.91C14.5893 216.468 16.432 213.779 18.3637 211.847C20.344 209.867 22.3729 208.923 24.4464 209.017C25.9569 209.065 27.1799 209.77 28.2207 211.139C29.2129 212.507 30.0107 214.204 30.6262 216.185C31.2863 218.165 31.7561 220.145 32.0882 222.081C32.3717 224.061 32.6066 225.616 32.7483 226.795C31.8979 227.127 31.0515 227.504 30.2496 227.925C29.4478 228.35 28.6459 228.775 27.8441 229.245C23.8835 231.46 20.4412 234.574 17.5173 238.628C14.5934 242.637 12.4713 246.881 11.2443 251.312C10.491 254.236 10.1589 257.208 10.2521 260.177C10.3938 263.101 10.9608 265.834 11.9975 268.333C12.9897 270.787 14.4962 272.767 16.432 274.274C18.3677 275.78 20.7692 276.538 23.5514 276.631C26.4267 276.679 28.8808 276.064 30.9097 274.792C32.89 273.52 34.5869 271.82 35.9071 269.746C37.2759 267.624 38.3126 265.312 39.1144 262.813C39.8677 260.359 40.4833 257.909 40.8599 255.455C41.2365 253.001 41.52 250.834 41.7103 248.854C41.8521 246.922 41.9452 245.46 42.0424 244.468C42.3745 240.835 42.4676 237.158 42.3259 233.525C43.2209 233.384 44.2131 233.291 45.2012 233.193C46.2379 233.1 47.2746 233.052 48.4086 233.145L48.5017 224.138C47.3232 224.138 46.1448 224.187 44.9663 224.231L44.9582 224.243ZM33.1695 243.249C33.0277 246.408 32.6997 249.664 32.1813 253.057C31.7116 255.698 31.096 258.152 30.3913 260.509C29.6827 262.821 28.7877 264.704 27.6578 266.024C26.5725 267.345 25.2037 267.912 23.5554 267.628C22.3284 267.438 21.3848 266.778 20.7247 265.648C20.0646 264.469 19.6393 263.149 19.4531 261.687C19.2627 260.177 19.2182 258.812 19.3599 257.585C19.8297 253.248 21.2471 249.238 23.604 245.464C26.0096 241.69 29.2615 238.673 33.4124 236.457C33.4124 237.826 33.3638 240.09 33.1776 243.249H33.1695Z" fill="#545454"/>
<path d="M94.4741 233.108C96.503 229.856 97.5397 226.082 97.5397 221.789C97.5397 215.282 95.8429 210.284 92.5423 206.793C89.2418 203.302 84.2445 201.557 77.5948 201.557H53.9688V273.188H68.2116V242.629H72.1277C74.7195 242.629 76.7484 243.289 78.1172 244.61C79.5306 245.93 80.2393 248.194 80.2393 251.401V273.188H94.4822V250.506C94.4822 247.533 93.7289 245.083 92.2184 243.245C90.6633 241.406 88.444 240.414 85.5242 240.272V239.754C89.4848 238.527 92.5018 236.312 94.4822 233.104L94.4741 233.108ZM81.5068 228.488C79.9963 229.95 78.1132 230.703 75.8494 230.703H68.2116V213.398H75.8494C78.1132 213.398 80.0003 214.058 81.5068 215.33C83.0174 216.65 83.7706 218.821 83.7706 221.789C83.7706 224.758 83.0174 227.026 81.5068 228.484V228.488Z" fill="#545454"/>
<path d="M100.557 201.561V213.301H116.873V273.189H131.116V213.301H147.339V201.561H100.561H100.557Z" fill="#545454"/>
<path d="M189.967 261.448V201.561H175.68V273.193H213.123V261.452H189.971L189.967 261.448Z" fill="#545454"/>
<path d="M257.731 206.089C253.628 202.035 248.299 200.006 241.649 200.006C235 200.006 229.387 202.035 225.24 206.089C221.044 210.098 218.967 215.897 218.967 223.442V251.312C218.967 258.808 221.04 264.563 225.24 268.616C229.391 272.626 234.858 274.655 241.649 274.655C245.565 274.655 249.194 273.804 252.543 272.107C255.892 270.41 258.626 267.863 260.699 264.47C262.773 261.027 263.813 256.641 263.813 251.312V223.442C263.813 215.897 261.785 210.098 257.731 206.089ZM249.575 249.664C249.575 251.928 249.34 254.05 248.866 255.937C248.396 257.869 247.639 259.428 246.46 260.651C245.326 261.829 243.727 262.441 241.649 262.441C238.397 262.441 236.178 261.262 235 258.905C233.821 256.5 233.254 253.434 233.254 249.664V225.05C233.254 222.737 233.445 220.615 233.914 218.683C234.384 216.752 235.186 215.148 236.368 213.97C237.547 212.84 239.199 212.224 241.366 212.224C243.532 212.224 245.14 212.836 246.319 213.97C247.497 215.148 248.348 216.752 248.817 218.683C249.287 220.615 249.571 222.737 249.571 225.05V249.664H249.575Z" fill="#545454"/>
<path d="M311.491 242.257C312.103 240.985 312.621 239.9 313.046 238.908C313.516 237.915 313.799 237.304 313.941 237.02C315.354 233.862 316.488 230.513 317.29 227.07C318.043 223.628 318.42 220.279 318.376 217.072C318.376 213.82 317.857 210.94 316.865 208.348C315.921 205.801 314.411 203.772 312.386 202.266C310.357 200.755 307.717 200.051 304.465 200.095C300.832 200.188 297.722 201.65 295.175 204.53C292.627 207.36 290.931 211.131 290.129 215.849C289.375 219.902 289.278 224.009 289.797 228.156C290.315 232.307 291.307 236.267 292.814 240.038C294.276 243.763 296.021 247.064 298.001 249.846C297.483 250.741 296.73 252.11 295.738 253.855C294.701 255.601 293.567 257.391 292.247 259.185C290.927 260.975 289.558 262.437 288.051 263.619C286.541 264.798 285.034 265.271 283.572 264.988C281.734 264.656 280.32 263.149 279.377 260.412C278.385 257.678 277.822 254.094 277.631 249.708C277.49 245.322 277.68 240.467 278.243 235.137C278.761 229.808 279.612 224.434 280.741 218.914C281.827 213.398 283.147 208.211 284.751 203.258L276.311 200.383C274.238 206.797 272.537 213.257 271.217 219.813C269.848 226.37 269.001 232.639 268.621 238.628C268.43 241.362 268.337 244.241 268.386 247.351C268.386 250.466 268.621 253.527 269.094 256.548C269.564 259.565 270.322 262.347 271.358 264.895C272.395 267.442 273.764 269.564 275.554 271.309C277.299 273.006 279.563 274.092 282.297 274.468C284.702 274.845 286.966 274.517 289.132 273.48C291.255 272.443 293.283 270.981 295.167 269.143C297.054 267.304 298.799 265.275 300.306 263.105C301.816 260.89 303.136 258.861 304.266 256.88C306.814 259.237 309.596 261.031 312.661 262.254L316.294 254.236C314.783 253.576 313.37 252.822 312.098 251.879C310.778 250.984 309.6 249.947 308.466 248.765C308.798 248.056 309.219 247.112 309.786 245.934C310.353 244.755 310.916 243.528 311.483 242.257H311.491ZM308.097 225.892C307.437 228.767 306.635 231.505 305.692 234.052C304.748 236.644 303.76 238.721 302.719 240.37C301.776 238.815 300.974 236.737 300.221 234.097C299.467 231.505 298.949 228.723 298.666 225.702C298.382 222.729 298.431 219.947 298.9 217.404C299.042 216.602 299.326 215.565 299.751 214.196C300.176 212.827 300.788 211.604 301.638 210.519C302.488 209.434 303.57 208.915 304.939 209.009C306.591 209.057 307.721 209.904 308.381 211.556C309.041 213.16 309.324 215.233 309.231 217.78C309.138 220.328 308.761 223.061 308.097 225.892Z" fill="#545454"/>
<path d="M360.157 213.301V201.561H322.762V273.193H360.157V261.452H337.005V241.836H356.856V230.095H337.005V213.309H360.157V213.301Z" fill="#545454"/>
<path d="M406.984 233.108C408.964 229.856 410.001 226.082 410.001 221.789C410.001 215.282 408.348 210.284 405.003 206.793C401.703 203.302 396.705 201.557 390.056 201.557H366.43V273.188H380.673V242.629H384.589C387.18 242.629 389.209 243.289 390.623 244.61C390.999 244.942 391.283 245.363 391.566 245.881C392.32 247.201 392.696 249.04 392.696 251.397V273.184H406.984V250.502C406.984 247.529 406.182 245.079 404.671 243.241C403.302 241.589 401.371 240.649 398.917 240.41C398.633 240.317 398.305 240.268 397.973 240.268V239.75C401.934 238.523 404.951 236.308 406.98 233.1L406.984 233.108ZM388.31 230.703H380.673V213.398H388.31C390.574 213.398 392.461 214.058 393.968 215.33C395.478 216.65 396.232 218.821 396.232 221.789C396.232 224.758 395.478 227.026 393.968 228.484C392.457 229.942 390.574 230.699 388.31 230.699V230.703Z" fill="#545454"/>
</svg>
