<svg width="144" height="154" viewBox="0 0 144 154" fill="none" xmlns="http://www.w3.org/2000/svg">
<path d="M27.8513 8.42038C27.4764 8.43584 27.1014 8.48094 26.7264 8.51058C26.6517 7.89594 26.5164 7.16018 26.3515 6.33551C26.1711 5.51084 25.9018 4.68488 25.5564 3.86021C25.1969 3.04971 24.7305 2.34488 24.1455 1.77405C23.5759 1.18905 22.8402 0.843717 21.9395 0.739345C20.9937 0.633684 20.1084 0.784445 19.2992 1.17487C18.4887 1.57948 17.7543 2.1503 17.0932 2.88478C16.4335 3.63471 15.833 4.49031 15.3073 5.4361C14.7816 6.39607 14.3164 7.37151 13.9118 8.39204C13.5072 9.41257 13.1619 10.3725 12.8913 11.2874C12.2908 13.2975 11.8256 15.3992 11.4958 17.5897C11.1659 19.7957 11.001 21.9257 11.001 23.9964H13.8667C13.8667 22.6756 13.9569 21.2505 14.1373 19.7351C14.3319 18.2198 14.587 16.7045 14.9182 15.1737C15.248 13.6287 15.6385 12.1726 16.1036 10.763C16.5533 9.36746 17.0636 8.12272 17.619 7.04163C18.1885 5.94637 18.7748 5.09077 19.3894 4.47614C20.0195 3.84604 20.6651 3.5458 21.3248 3.57544C21.8055 3.5909 22.1946 3.81511 22.5258 4.25064C22.8414 4.68617 23.0953 5.22607 23.2912 5.85617C23.5012 6.48627 23.6507 7.11637 23.7563 7.7323C23.8465 8.3624 23.9213 8.8572 23.9664 9.23216C23.6958 9.33782 23.4264 9.45766 23.1713 9.59167C22.9162 9.72697 22.6611 9.86227 22.4059 10.0117C21.1457 10.7166 20.0505 11.7075 19.1201 12.9973C18.1898 14.273 17.5146 15.6234 17.1242 17.033C16.8845 17.9634 16.7788 18.9092 16.8085 19.8537C16.8536 20.784 17.034 21.6538 17.3638 22.4488C17.6795 23.2297 18.1589 23.8598 18.7748 24.3391C19.3907 24.8184 20.1548 25.0594 21.0401 25.089C21.9549 25.1045 22.7358 24.9086 23.3813 24.504C24.0114 24.0994 24.5514 23.5582 24.9714 22.8985C25.4069 22.2233 25.7368 21.4875 25.9919 20.6925C26.2316 19.9117 26.4275 19.1321 26.5473 18.3512C26.6671 17.5704 26.7573 16.881 26.8179 16.2509C26.863 15.6363 26.8926 15.1711 26.9236 14.8554C27.0292 13.6996 27.0589 12.5296 27.0138 11.3737C27.2985 11.3286 27.6142 11.299 27.9286 11.2681C28.2585 11.2384 28.5884 11.223 28.9492 11.2526L28.9788 8.38688C28.6038 8.38688 28.2289 8.40234 27.8539 8.41652L27.8513 8.42038ZM24.1004 14.4675C24.0553 15.4726 23.9509 16.5086 23.786 17.5884C23.6365 18.4285 23.4406 19.2094 23.2164 19.9593C22.9909 20.6951 22.7062 21.2943 22.3466 21.7143C22.0013 22.1344 21.5658 22.3148 21.0413 22.2246C20.6509 22.164 20.3507 21.954 20.1406 21.5945C19.9306 21.2195 19.7953 20.7995 19.736 20.3343C19.6755 19.8537 19.6613 19.4194 19.7064 19.029C19.8559 17.649 20.3069 16.3733 21.0568 15.1724C21.8222 13.9714 22.8569 13.0115 24.1777 12.3066C24.1777 12.7422 24.1622 13.4625 24.1029 14.4675H24.1004Z" fill="#545454"/>
<path d="M43.6068 11.2412C44.2524 10.2065 44.5822 9.0056 44.5822 7.63973C44.5822 5.56904 44.0423 3.97897 42.9922 2.86824C41.942 1.75751 40.3519 1.20215 38.2361 1.20215H30.7188V23.994H35.2506V14.2706H36.4966C37.3213 14.2706 37.9668 14.4806 38.4024 14.9007C38.8521 15.3208 39.0776 16.0411 39.0776 17.0616V23.994H43.6094V16.7768C43.6094 15.831 43.3697 15.0515 42.8891 14.4665C42.3943 13.8815 41.6882 13.5658 40.7591 13.5207V13.3557C42.0193 12.9653 42.9793 12.2605 43.6094 11.2399L43.6068 11.2412ZM39.4809 9.77099C39.0002 10.2362 38.4011 10.4758 37.6808 10.4758H35.2506V4.96986H37.6808C38.4011 4.96986 39.0015 5.1799 39.4809 5.5845C39.9615 6.00457 40.2012 6.69523 40.2012 7.63973C40.2012 8.58424 39.9615 9.30583 39.4809 9.76971V9.77099Z" fill="#545454"/>
<path d="M45.542 1.20361V4.93911H50.7336V23.9942H55.2654V4.93911H60.4273V1.20361H45.5433H45.542Z" fill="#545454"/>
<path d="M73.9903 20.2587V1.20361H69.4443V23.9955H81.3583V20.26H73.9916L73.9903 20.2587Z" fill="#545454"/>
<path d="M95.5508 2.64341C94.2455 1.35357 92.5498 0.708008 90.434 0.708008C88.3182 0.708008 86.5322 1.35357 85.2128 2.64341C83.8778 3.91907 83.2168 5.76428 83.2168 8.16484V17.0326C83.2168 19.4177 83.8765 21.2488 85.2128 22.5386C86.5335 23.8143 88.2731 24.4598 90.434 24.4598C91.68 24.4598 92.8345 24.1892 93.9002 23.6493C94.9658 23.1094 95.8356 22.2989 96.4953 21.2191C97.155 20.1239 97.4862 18.7284 97.4862 17.0326V8.16484C97.4862 5.76428 96.8406 3.91907 95.5508 2.64341ZM92.9556 16.5082C92.9556 17.2285 92.8809 17.9037 92.7302 18.5042C92.5807 19.1188 92.3397 19.6149 91.9648 20.004C91.604 20.379 91.095 20.5736 90.434 20.5736C89.3993 20.5736 88.6931 20.1986 88.3182 19.4487C87.9432 18.6833 87.7628 17.7078 87.7628 16.5082V8.67639C87.7628 7.94063 87.8234 7.26543 87.9728 6.6508C88.1223 6.03616 88.3774 5.52589 88.7537 5.15092C89.1287 4.79142 89.6544 4.59556 90.3438 4.59556C91.0331 4.59556 91.5447 4.79013 91.9197 5.15092C92.2946 5.52589 92.5652 6.03616 92.7147 6.6508C92.8642 7.26543 92.9544 7.94063 92.9544 8.67639V16.5082H92.9556Z" fill="#545454"/>
<path d="M112.444 13.7922C112.639 13.3876 112.803 13.0422 112.939 12.7265C113.088 12.4109 113.178 12.2163 113.224 12.1261C113.673 11.121 114.034 10.0554 114.289 8.96012C114.529 7.86485 114.649 6.79922 114.635 5.77869C114.635 4.74398 114.47 3.82783 114.154 3.00316C113.854 2.19266 113.373 1.5471 112.729 1.06776C112.083 0.587132 111.243 0.362922 110.208 0.377096C109.053 0.406733 108.063 0.871901 107.252 1.78806C106.442 2.68875 105.902 3.88839 105.647 5.38955C105.407 6.67939 105.376 7.98598 105.541 9.30545C105.706 10.6262 106.022 11.8864 106.501 13.0861C106.966 14.2715 107.522 15.3217 108.152 16.2069C107.987 16.4917 107.747 16.9272 107.432 17.4826C107.102 18.0379 106.741 18.6075 106.321 19.1783C105.901 19.7478 105.465 20.213 104.986 20.5893C104.505 20.9642 104.026 21.115 103.561 21.0248C102.976 20.9191 102.526 20.4398 102.226 19.5687C101.91 18.699 101.731 17.5586 101.67 16.1631C101.625 14.7676 101.686 13.2226 101.865 11.5269C102.03 9.83118 102.301 8.12128 102.66 6.36498C103.005 4.60998 103.425 2.95935 103.936 1.38345L101.25 0.468586C100.591 2.50965 100.049 4.56488 99.6294 6.65104C99.1938 8.7372 98.9245 10.7319 98.8034 12.6376C98.7428 13.5074 98.7132 14.4236 98.7287 15.4132C98.7287 16.4041 98.8034 17.3782 98.9542 18.3395C99.1036 19.2994 99.3446 20.1847 99.6744 20.9952C100.004 21.8057 100.44 22.4809 101.009 23.0362C101.565 23.5761 102.285 23.9215 103.155 24.0413C103.92 24.1611 104.641 24.0568 105.33 23.7269C106.005 23.397 106.651 22.9318 107.25 22.3468C107.85 21.7618 108.406 21.1163 108.885 20.4256C109.366 19.7208 109.786 19.0752 110.145 18.4451C110.956 19.1951 111.841 19.7659 112.816 20.155L113.972 17.6037C113.492 17.3937 113.042 17.154 112.637 16.8538C112.217 16.569 111.842 16.2391 111.481 15.8629C111.587 15.6374 111.721 15.3371 111.901 14.9622C112.082 14.5872 112.261 14.1968 112.441 13.7922H112.444ZM111.364 8.58515C111.154 9.50002 110.899 10.3711 110.599 11.1816C110.299 12.0063 109.984 12.6673 109.653 13.1917C109.353 12.6969 109.098 12.0359 108.858 11.1958C108.618 10.3711 108.453 9.48585 108.363 8.52459C108.273 7.5788 108.288 6.69356 108.438 5.88435C108.483 5.62922 108.573 5.29935 108.708 4.86382C108.844 4.42829 109.038 4.03915 109.309 3.69382C109.58 3.34849 109.924 3.18356 110.359 3.21319C110.885 3.22866 111.244 3.49796 111.454 4.02369C111.664 4.53396 111.755 5.19369 111.725 6.00419C111.695 6.81468 111.575 7.68446 111.364 8.58515Z" fill="#545454"/>
<path d="M128.142 4.93911V1.20361H116.243V23.9955H128.142V20.26H120.775V14.0182H127.091V10.2827H120.775V4.94169H128.142V4.93911Z" fill="#545454"/>
<path d="M143.041 11.2412C143.671 10.2065 144.001 9.0056 144.001 7.63973C144.001 5.56904 143.475 3.97897 142.411 2.86824C141.361 1.75751 139.771 1.20215 137.655 1.20215H130.138V23.994H134.67V14.2706H135.916C136.74 14.2706 137.386 14.4806 137.835 14.9007C137.955 15.0064 138.046 15.1404 138.136 15.3053C138.375 15.7254 138.495 16.3104 138.495 17.0603V23.9927H143.041V16.7755C143.041 15.8298 142.786 15.0502 142.305 14.4652C141.87 13.9395 141.255 13.6405 140.474 13.5645C140.384 13.5348 140.28 13.5194 140.174 13.5194V13.3544C141.434 12.964 142.394 12.2592 143.04 11.2386L143.041 11.2412ZM137.1 10.4758H134.67V4.96986H137.1C137.82 4.96986 138.42 5.1799 138.9 5.5845C139.38 6.00457 139.62 6.69523 139.62 7.63973C139.62 8.58424 139.38 9.30583 138.9 9.76971C138.419 10.2336 137.82 10.4745 137.1 10.4745V10.4758Z" fill="#545454"/>
<path d="M27.8513 40.0439C27.4764 40.0594 27.1014 40.1045 26.7264 40.1341C26.6517 39.5195 26.5164 38.7837 26.3515 37.959C26.1711 37.1344 25.9018 36.3084 25.5564 35.4837C25.1969 34.6732 24.7305 33.9684 24.1455 33.3976C23.5759 32.8126 22.8402 32.4673 21.9395 32.3629C20.9937 32.2572 20.1084 32.408 19.2992 32.7984C18.4887 33.203 17.7543 33.7738 17.0932 34.5083C16.4335 35.2582 15.833 36.1138 15.3073 37.0596C14.7816 38.0196 14.3164 38.995 13.9118 40.0156C13.5072 41.0361 13.1619 41.9961 12.8913 42.9109C12.2908 44.9211 11.8256 47.0227 11.4958 49.2132C11.1659 51.4192 11.001 53.5492 11.001 55.6199H13.8667C13.8667 54.2991 13.9569 52.874 14.1373 51.3587C14.3319 49.8433 14.587 48.328 14.9182 46.7972C15.248 45.2522 15.6385 43.7962 16.1036 42.3865C16.5533 40.991 17.0636 39.7463 17.619 38.6652C18.1885 37.5699 18.7748 36.7143 19.3894 36.0997C20.0195 35.4696 20.6651 35.1693 21.3248 35.199C21.8055 35.2144 22.1946 35.4386 22.5258 35.8742C22.8414 36.3097 23.0953 36.8496 23.2912 37.4797C23.5012 38.1098 23.6507 38.7399 23.7563 39.3558C23.8465 39.9859 23.9213 40.4807 23.9664 40.8557C23.6958 40.9614 23.4264 41.0812 23.1713 41.2152C22.9162 41.3505 22.6611 41.4858 22.4059 41.6353C21.1457 42.3401 20.0505 43.331 19.1201 44.6208C18.1898 45.8965 17.5146 47.2469 17.1242 48.6566C16.8845 49.5869 16.7788 50.5327 16.8085 51.4772C16.8536 52.4075 17.034 53.2773 17.3638 54.0723C17.6795 54.8532 18.1589 55.4833 18.7748 55.9626C19.3907 56.442 20.1548 56.6829 21.0401 56.7126C21.9549 56.728 22.7358 56.5322 23.3813 56.1276C24.0114 55.723 24.5514 55.1818 24.9714 54.522C25.4069 53.8468 25.7368 53.1111 25.9919 52.316C26.2316 51.5352 26.4275 50.7556 26.5473 49.9748C26.6671 49.1939 26.7573 48.5045 26.8179 47.8744C26.863 47.2598 26.8926 46.7946 26.9236 46.4789C27.0292 45.3231 27.0589 44.1531 27.0138 42.9973C27.2985 42.9522 27.6142 42.9225 27.9286 42.8916C28.2585 42.862 28.5884 42.8465 28.9492 42.8761L28.9788 40.0104C28.6038 40.0104 28.2289 40.0259 27.8539 40.0401L27.8513 40.0439ZM24.1004 46.0911C24.0553 47.0961 23.9509 48.1321 23.786 49.2119C23.6365 50.0521 23.4406 50.8329 23.2164 51.5829C22.9909 52.3186 22.7062 52.9178 22.3466 53.3379C22.0013 53.7579 21.5658 53.9383 21.0413 53.8481C20.6509 53.7876 20.3507 53.5775 20.1406 53.218C19.9306 52.8431 19.7953 52.423 19.736 51.9578C19.6755 51.4772 19.6613 51.043 19.7064 50.6525C19.8559 49.2725 20.3069 47.9968 21.0568 46.7959C21.8222 45.595 22.8569 44.635 24.1777 43.9302C24.1777 44.3657 24.1622 45.086 24.1029 46.0911H24.1004Z" fill="#545454"/>
<path d="M43.6068 42.8648C44.2524 41.8301 44.5822 40.6291 44.5822 39.2633C44.5822 37.1926 44.0423 35.6025 42.9922 34.4918C41.942 33.381 40.3519 32.8257 38.2361 32.8257H30.7188V55.6175H35.2506V45.8941H36.4966C37.3213 45.8941 37.9668 46.1042 38.4024 46.5242C38.8521 46.9443 39.0776 47.6646 39.0776 48.6851V55.6175H43.6094V48.4004C43.6094 47.4546 43.3697 46.675 42.8891 46.09C42.3943 45.505 41.6882 45.1893 40.7591 45.1442V44.9793C42.0193 44.5888 42.9793 43.884 43.6094 42.8635L43.6068 42.8648ZM39.4809 41.3945C39.0002 41.8597 38.4011 42.0994 37.6808 42.0994H35.2506V36.5934H37.6808C38.4011 36.5934 39.0015 36.8034 39.4809 37.208C39.9615 37.6281 40.2012 38.3188 40.2012 39.2633C40.2012 40.2078 39.9615 40.9294 39.4809 41.3932V41.3945Z" fill="#545454"/>
<path d="M45.542 32.8271V36.5626H50.7336V55.6177H55.2654V36.5626H60.4273V32.8271H45.5433H45.542Z" fill="#545454"/>
<path d="M73.9903 51.8822V32.8271H69.4443V55.619H81.3583V51.8835H73.9916L73.9903 51.8822Z" fill="#545454"/>
<path d="M95.5508 34.2669C94.2455 32.9771 92.5498 32.3315 90.434 32.3315C88.3182 32.3315 86.5322 32.9771 85.2128 34.2669C83.8778 35.5426 83.2168 37.3878 83.2168 39.7884V48.6562C83.2168 51.0413 83.8765 52.8723 85.2128 54.1621C86.5335 55.4378 88.2731 56.0834 90.434 56.0834C91.68 56.0834 92.8345 55.8128 93.9002 55.2729C94.9658 54.733 95.8356 53.9225 96.4953 52.8427C97.155 51.7474 97.4862 50.3519 97.4862 48.6562V39.7884C97.4862 37.3878 96.8406 35.5426 95.5508 34.2669ZM92.9556 48.1317C92.9556 48.852 92.8809 49.5272 92.7302 50.1277C92.5807 50.7423 92.3397 51.2384 91.9648 51.6276C91.604 52.0025 91.095 52.1971 90.434 52.1971C89.3993 52.1971 88.6931 51.8221 88.3182 51.0722C87.9432 50.3068 87.7628 49.3314 87.7628 48.1317V40.2999C87.7628 39.5642 87.8234 38.889 87.9728 38.2743C88.1223 37.6597 88.3774 37.1494 88.7537 36.7745C89.1287 36.415 89.6544 36.2191 90.3438 36.2191C91.0331 36.2191 91.5447 36.4137 91.9197 36.7745C92.2946 37.1494 92.5652 37.6597 92.7147 38.2743C92.8642 38.889 92.9544 39.5642 92.9544 40.2999V48.1317H92.9556Z" fill="#545454"/>
<path d="M112.444 45.4157C112.639 45.0111 112.803 44.6658 112.939 44.3501C113.088 44.0344 113.178 43.8398 113.224 43.7496C113.673 42.7445 114.034 41.6789 114.289 40.5837C114.529 39.4884 114.649 38.4228 114.635 37.4022C114.635 36.3675 114.47 35.4514 114.154 34.6267C113.854 33.8162 113.373 33.1706 112.729 32.6913C112.083 32.2107 111.243 31.9865 110.208 32.0006C109.053 32.0303 108.063 32.4954 107.252 33.4116C106.442 34.3123 105.902 35.5119 105.647 37.0131C105.407 38.3029 105.376 39.6095 105.541 40.929C105.706 42.2498 106.022 43.5099 106.501 44.7096C106.966 45.895 107.522 46.9452 108.152 47.8305C107.987 48.1152 107.747 48.5507 107.432 49.1061C107.102 49.6615 106.741 50.231 106.321 50.8018C105.901 51.3714 105.465 51.8365 104.986 52.2128C104.505 52.5878 104.026 52.7385 103.561 52.6483C102.976 52.5427 102.526 52.0633 102.226 51.1923C101.91 50.3225 101.731 49.1821 101.67 47.7866C101.625 46.3911 101.686 44.8462 101.865 43.1504C102.03 41.4547 102.301 39.7448 102.66 37.9885C103.005 36.2335 103.425 34.5829 103.936 33.007L101.25 32.0921C100.591 34.1332 100.049 36.1884 99.6294 38.2746C99.1938 40.3607 98.9245 42.3554 98.8034 44.2612C98.7428 45.1309 98.7132 46.0471 98.7287 47.0367C98.7287 48.0276 98.8034 49.0017 98.9542 49.963C99.1036 50.923 99.3446 51.8082 99.6744 52.6187C100.004 53.4292 100.44 54.1044 101.009 54.6598C101.565 55.1997 102.285 55.545 103.155 55.6648C103.92 55.7847 104.641 55.6803 105.33 55.3504C106.005 55.0206 106.651 54.5554 107.25 53.9704C107.85 53.3854 108.406 52.7398 108.885 52.0492C109.366 51.3443 109.786 50.6988 110.145 50.0687C110.956 50.8186 111.841 51.3894 112.816 51.7786L113.972 49.2272C113.492 49.0172 113.042 48.7775 112.637 48.4773C112.217 48.1925 111.842 47.8627 111.481 47.4864C111.587 47.2609 111.721 46.9607 111.901 46.5857C112.082 46.2107 112.261 45.8203 112.441 45.4157H112.444ZM111.364 40.2087C111.154 41.1236 110.899 41.9946 110.599 42.8051C110.299 43.6298 109.984 44.2908 109.653 44.8152C109.353 44.3204 109.098 43.6594 108.858 42.8193C108.618 41.9946 108.453 41.1094 108.363 40.1481C108.273 39.2023 108.288 38.3171 108.438 37.5079C108.483 37.2528 108.573 36.9229 108.708 36.4874C108.844 36.0518 109.038 35.6627 109.309 35.3174C109.58 34.972 109.924 34.8071 110.359 34.8367C110.885 34.8522 111.244 35.1215 111.454 35.6472C111.664 36.1575 111.755 36.8172 111.725 37.6277C111.695 38.4382 111.575 39.308 111.364 40.2087Z" fill="#545454"/>
<path d="M128.142 36.5626V32.8271H116.243V55.619H128.142V51.8835H120.775V45.6418H127.091V41.9063H120.775V36.5652H128.142V36.5626Z" fill="#545454"/>
<path d="M143.041 42.8648C143.671 41.8301 144.001 40.6291 144.001 39.2633C144.001 37.1926 143.475 35.6025 142.411 34.4918C141.361 33.381 139.771 32.8257 137.655 32.8257H130.138V55.6175H134.67V45.8941H135.916C136.74 45.8941 137.386 46.1042 137.835 46.5242C137.955 46.6299 138.046 46.7639 138.136 46.9288C138.375 47.3489 138.495 47.9339 138.495 48.6838V55.6162H143.041V48.3991C143.041 47.4533 142.786 46.6737 142.305 46.0887C141.87 45.563 141.255 45.264 140.474 45.188C140.384 45.1584 140.28 45.1429 140.174 45.1429V44.978C141.434 44.5875 142.394 43.8827 143.04 42.8622L143.041 42.8648ZM137.1 42.0994H134.67V36.5934H137.1C137.82 36.5934 138.42 36.8034 138.9 37.208C139.38 37.6281 139.62 38.3188 139.62 39.2633C139.62 40.2078 139.38 40.9294 138.9 41.3932C138.419 41.8571 137.82 42.0981 137.1 42.0981V42.0994Z" fill="#545454"/>
<path d="M27.8513 73.0439C27.4764 73.0594 27.1014 73.1045 26.7264 73.1341C26.6517 72.5195 26.5164 71.7837 26.3515 70.959C26.1711 70.1344 25.9018 69.3084 25.5564 68.4837C25.1969 67.6732 24.7305 66.9684 24.1455 66.3976C23.5759 65.8126 22.8402 65.4673 21.9395 65.3629C20.9937 65.2572 20.1084 65.408 19.2992 65.7984C18.4887 66.203 17.7543 66.7738 17.0932 67.5083C16.4335 68.2582 15.833 69.1138 15.3073 70.0596C14.7816 71.0196 14.3164 71.995 13.9118 73.0156C13.5072 74.0361 13.1619 74.9961 12.8913 75.9109C12.2908 77.9211 11.8256 80.0227 11.4958 82.2132C11.1659 84.4192 11.001 86.5492 11.001 88.6199H13.8667C13.8667 87.2991 13.9569 85.874 14.1373 84.3587C14.3319 82.8433 14.587 81.328 14.9182 79.7972C15.248 78.2522 15.6385 76.7962 16.1036 75.3865C16.5533 73.991 17.0636 72.7463 17.619 71.6652C18.1885 70.5699 18.7748 69.7143 19.3894 69.0997C20.0195 68.4696 20.6651 68.1693 21.3248 68.199C21.8055 68.2144 22.1946 68.4386 22.5258 68.8742C22.8414 69.3097 23.0953 69.8496 23.2912 70.4797C23.5012 71.1098 23.6507 71.7399 23.7563 72.3558C23.8465 72.9859 23.9213 73.4807 23.9664 73.8557C23.6958 73.9614 23.4264 74.0812 23.1713 74.2152C22.9162 74.3505 22.6611 74.4858 22.4059 74.6353C21.1457 75.3401 20.0505 76.331 19.1201 77.6208C18.1898 78.8965 17.5146 80.2469 17.1242 81.6566C16.8845 82.5869 16.7788 83.5327 16.8085 84.4772C16.8536 85.4075 17.034 86.2773 17.3638 87.0723C17.6795 87.8532 18.1589 88.4833 18.7748 88.9626C19.3907 89.442 20.1548 89.6829 21.0401 89.7126C21.9549 89.728 22.7358 89.5322 23.3813 89.1276C24.0114 88.723 24.5514 88.1818 24.9714 87.522C25.4069 86.8468 25.7368 86.1111 25.9919 85.316C26.2316 84.5352 26.4275 83.7556 26.5473 82.9748C26.6671 82.1939 26.7573 81.5045 26.8179 80.8744C26.863 80.2598 26.8926 79.7946 26.9236 79.4789C27.0292 78.3231 27.0589 77.1531 27.0138 75.9973C27.2985 75.9522 27.6142 75.9225 27.9286 75.8916C28.2585 75.862 28.5884 75.8465 28.9492 75.8761L28.9788 73.0104C28.6038 73.0104 28.2289 73.0259 27.8539 73.0401L27.8513 73.0439ZM24.1004 79.0911C24.0553 80.0961 23.9509 81.1321 23.786 82.2119C23.6365 83.0521 23.4406 83.8329 23.2164 84.5829C22.9909 85.3186 22.7062 85.9178 22.3466 86.3379C22.0013 86.7579 21.5658 86.9383 21.0413 86.8481C20.6509 86.7876 20.3507 86.5775 20.1406 86.218C19.9306 85.8431 19.7953 85.423 19.736 84.9578C19.6755 84.4772 19.6613 84.043 19.7064 83.6525C19.8559 82.2725 20.3069 80.9968 21.0568 79.7959C21.8222 78.595 22.8569 77.635 24.1777 76.9302C24.1777 77.3657 24.1622 78.086 24.1029 79.0911H24.1004Z" fill="#545454"/>
<path d="M43.6068 75.8648C44.2524 74.8301 44.5822 73.6291 44.5822 72.2633C44.5822 70.1926 44.0423 68.6025 42.9922 67.4918C41.942 66.381 40.3519 65.8257 38.2361 65.8257H30.7188V88.6175H35.2506V78.8941H36.4966C37.3213 78.8941 37.9668 79.1042 38.4024 79.5242C38.8521 79.9443 39.0776 80.6646 39.0776 81.6851V88.6175H43.6094V81.4004C43.6094 80.4546 43.3697 79.675 42.8891 79.09C42.3943 78.505 41.6882 78.1893 40.7591 78.1442V77.9793C42.0193 77.5888 42.9793 76.884 43.6094 75.8635L43.6068 75.8648ZM39.4809 74.3945C39.0002 74.8597 38.4011 75.0994 37.6808 75.0994H35.2506V69.5934H37.6808C38.4011 69.5934 39.0015 69.8034 39.4809 70.208C39.9615 70.6281 40.2012 71.3188 40.2012 72.2633C40.2012 73.2078 39.9615 73.9294 39.4809 74.3932V74.3945Z" fill="#545454"/>
<path d="M45.542 65.8271V69.5626H50.7336V88.6177H55.2654V69.5626H60.4273V65.8271H45.5433H45.542Z" fill="#545454"/>
<path d="M73.9903 84.8822V65.8271H69.4443V88.619H81.3583V84.8835H73.9916L73.9903 84.8822Z" fill="#545454"/>
<path d="M95.5508 67.2669C94.2455 65.9771 92.5498 65.3315 90.434 65.3315C88.3182 65.3315 86.5322 65.9771 85.2128 67.2669C83.8778 68.5426 83.2168 70.3878 83.2168 72.7884V81.6562C83.2168 84.0413 83.8765 85.8723 85.2128 87.1621C86.5335 88.4378 88.2731 89.0834 90.434 89.0834C91.68 89.0834 92.8345 88.8128 93.9002 88.2729C94.9658 87.733 95.8356 86.9225 96.4953 85.8427C97.155 84.7474 97.4862 83.3519 97.4862 81.6562V72.7884C97.4862 70.3878 96.8406 68.5426 95.5508 67.2669ZM92.9556 81.1317C92.9556 81.852 92.8809 82.5272 92.7302 83.1277C92.5807 83.7423 92.3397 84.2384 91.9648 84.6276C91.604 85.0025 91.095 85.1971 90.434 85.1971C89.3993 85.1971 88.6931 84.8221 88.3182 84.0722C87.9432 83.3068 87.7628 82.3314 87.7628 81.1317V73.2999C87.7628 72.5642 87.8234 71.889 87.9728 71.2743C88.1223 70.6597 88.3774 70.1494 88.7537 69.7745C89.1287 69.415 89.6544 69.2191 90.3438 69.2191C91.0331 69.2191 91.5447 69.4137 91.9197 69.7745C92.2946 70.1494 92.5652 70.6597 92.7147 71.2743C92.8642 71.889 92.9544 72.5642 92.9544 73.2999V81.1317H92.9556Z" fill="#545454"/>
<path d="M112.444 78.4157C112.639 78.0111 112.803 77.6658 112.939 77.3501C113.088 77.0344 113.178 76.8398 113.224 76.7496C113.673 75.7445 114.034 74.6789 114.289 73.5837C114.529 72.4884 114.649 71.4228 114.635 70.4022C114.635 69.3675 114.47 68.4514 114.154 67.6267C113.854 66.8162 113.373 66.1706 112.729 65.6913C112.083 65.2107 111.243 64.9865 110.208 65.0006C109.053 65.0303 108.063 65.4954 107.252 66.4116C106.442 67.3123 105.902 68.5119 105.647 70.0131C105.407 71.3029 105.376 72.6095 105.541 73.929C105.706 75.2498 106.022 76.5099 106.501 77.7096C106.966 78.895 107.522 79.9452 108.152 80.8305C107.987 81.1152 107.747 81.5507 107.432 82.1061C107.102 82.6615 106.741 83.231 106.321 83.8018C105.901 84.3714 105.465 84.8365 104.986 85.2128C104.505 85.5878 104.026 85.7385 103.561 85.6483C102.976 85.5427 102.526 85.0633 102.226 84.1923C101.91 83.3225 101.731 82.1821 101.67 80.7866C101.625 79.3911 101.686 77.8462 101.865 76.1504C102.03 74.4547 102.301 72.7448 102.66 70.9885C103.005 69.2335 103.425 67.5829 103.936 66.007L101.25 65.0921C100.591 67.1332 100.049 69.1884 99.6294 71.2746C99.1938 73.3607 98.9245 75.3554 98.8034 77.2612C98.7428 78.1309 98.7132 79.0471 98.7287 80.0367C98.7287 81.0276 98.8034 82.0017 98.9542 82.963C99.1036 83.923 99.3446 84.8082 99.6744 85.6187C100.004 86.4292 100.44 87.1044 101.009 87.6598C101.565 88.1997 102.285 88.545 103.155 88.6648C103.92 88.7847 104.641 88.6803 105.33 88.3504C106.005 88.0206 106.651 87.5554 107.25 86.9704C107.85 86.3854 108.406 85.7398 108.885 85.0492C109.366 84.3443 109.786 83.6988 110.145 83.0687C110.956 83.8186 111.841 84.3894 112.816 84.7786L113.972 82.2272C113.492 82.0172 113.042 81.7775 112.637 81.4773C112.217 81.1925 111.842 80.8627 111.481 80.4864C111.587 80.2609 111.721 79.9607 111.901 79.5857C112.082 79.2107 112.261 78.8203 112.441 78.4157H112.444ZM111.364 73.2087C111.154 74.1236 110.899 74.9946 110.599 75.8051C110.299 76.6298 109.984 77.2908 109.653 77.8152C109.353 77.3204 109.098 76.6594 108.858 75.8193C108.618 74.9946 108.453 74.1094 108.363 73.1481C108.273 72.2023 108.288 71.3171 108.438 70.5079C108.483 70.2528 108.573 69.9229 108.708 69.4874C108.844 69.0518 109.038 68.6627 109.309 68.3174C109.58 67.972 109.924 67.8071 110.359 67.8367C110.885 67.8522 111.244 68.1215 111.454 68.6472C111.664 69.1575 111.755 69.8172 111.725 70.6277C111.695 71.4382 111.575 72.308 111.364 73.2087Z" fill="#545454"/>
<path d="M128.142 69.5626V65.8271H116.243V88.619H128.142V84.8835H120.775V78.6418H127.091V74.9063H120.775V69.5652H128.142V69.5626Z" fill="#545454"/>
<path d="M143.041 75.8648C143.671 74.8301 144.001 73.6291 144.001 72.2633C144.001 70.1926 143.475 68.6025 142.411 67.4918C141.361 66.381 139.771 65.8257 137.655 65.8257H130.138V88.6175H134.67V78.8941H135.916C136.74 78.8941 137.386 79.1042 137.835 79.5242C137.955 79.6299 138.046 79.7639 138.136 79.9288C138.375 80.3489 138.495 80.9339 138.495 81.6838V88.6162H143.041V81.3991C143.041 80.4533 142.786 79.6737 142.305 79.0887C141.87 78.563 141.255 78.264 140.474 78.188C140.384 78.1584 140.28 78.1429 140.174 78.1429V77.978C141.434 77.5875 142.394 76.8827 143.04 75.8622L143.041 75.8648ZM137.1 75.0994H134.67V69.5934H137.1C137.82 69.5934 138.42 69.8034 138.9 70.208C139.38 70.6281 139.62 71.3188 139.62 72.2633C139.62 73.2078 139.38 73.9294 138.9 74.3932C138.419 74.8571 137.82 75.0981 137.1 75.0981V75.0994Z" fill="#545454"/>
<path d="M27.8513 137.044C27.4764 137.059 27.1014 137.104 26.7264 137.134C26.6517 136.519 26.5164 135.784 26.3515 134.959C26.1711 134.134 25.9018 133.308 25.5564 132.484C25.1969 131.673 24.7305 130.968 24.1455 130.398C23.5759 129.813 22.8402 129.467 21.9395 129.363C20.9937 129.257 20.1084 129.408 19.2992 129.798C18.4887 130.203 17.7543 130.774 17.0932 131.508C16.4335 132.258 15.833 133.114 15.3073 134.06C14.7816 135.02 14.3164 135.995 13.9118 137.016C13.5072 138.036 13.1619 138.996 12.8913 139.911C12.2908 141.921 11.8256 144.023 11.4958 146.213C11.1659 148.419 11.001 150.549 11.001 152.62H13.8667C13.8667 151.299 13.9569 149.874 14.1373 148.359C14.3319 146.843 14.587 145.328 14.9182 143.797C15.248 142.252 15.6385 140.796 16.1036 139.386C16.5533 137.991 17.0636 136.746 17.619 135.665C18.1885 134.57 18.7748 133.714 19.3894 133.1C20.0195 132.47 20.6651 132.169 21.3248 132.199C21.8055 132.214 22.1946 132.439 22.5258 132.874C22.8414 133.31 23.0953 133.85 23.2912 134.48C23.5012 135.11 23.6507 135.74 23.7563 136.356C23.8465 136.986 23.9213 137.481 23.9664 137.856C23.6958 137.961 23.4264 138.081 23.1713 138.215C22.9162 138.351 22.6611 138.486 22.4059 138.635C21.1457 139.34 20.0505 140.331 19.1201 141.621C18.1898 142.897 17.5146 144.247 17.1242 145.657C16.8845 146.587 16.7788 147.533 16.8085 148.477C16.8536 149.408 17.034 150.277 17.3638 151.072C17.6795 151.853 18.1589 152.483 18.7748 152.963C19.3907 153.442 20.1548 153.683 21.0401 153.713C21.9549 153.728 22.7358 153.532 23.3813 153.128C24.0114 152.723 24.5514 152.182 24.9714 151.522C25.4069 150.847 25.7368 150.111 25.9919 149.316C26.2316 148.535 26.4275 147.756 26.5473 146.975C26.6671 146.194 26.7573 145.505 26.8179 144.874C26.863 144.26 26.8926 143.795 26.9236 143.479C27.0292 142.323 27.0589 141.153 27.0138 139.997C27.2985 139.952 27.6142 139.923 27.9286 139.892C28.2585 139.862 28.5884 139.847 28.9492 139.876L28.9788 137.01C28.6038 137.01 28.2289 137.026 27.8539 137.04L27.8513 137.044ZM24.1004 143.091C24.0553 144.096 23.9509 145.132 23.786 146.212C23.6365 147.052 23.4406 147.833 23.2164 148.583C22.9909 149.319 22.7062 149.918 22.3466 150.338C22.0013 150.758 21.5658 150.938 21.0413 150.848C20.6509 150.788 20.3507 150.578 20.1406 150.218C19.9306 149.843 19.7953 149.423 19.736 148.958C19.6755 148.477 19.6613 148.043 19.7064 147.653C19.8559 146.273 20.3069 144.997 21.0568 143.796C21.8222 142.595 22.8569 141.635 24.1777 140.93C24.1777 141.366 24.1622 142.086 24.1029 143.091H24.1004Z" fill="#545454"/>
<path d="M43.6068 139.865C44.2524 138.83 44.5822 137.629 44.5822 136.263C44.5822 134.193 44.0423 132.603 42.9922 131.492C41.942 130.381 40.3519 129.826 38.2361 129.826H30.7188V152.618H35.2506V142.894H36.4966C37.3213 142.894 37.9668 143.104 38.4024 143.524C38.8521 143.944 39.0776 144.665 39.0776 145.685V152.618H43.6094V145.4C43.6094 144.455 43.3697 143.675 42.8891 143.09C42.3943 142.505 41.6882 142.189 40.7591 142.144V141.979C42.0193 141.589 42.9793 140.884 43.6094 139.863L43.6068 139.865ZM39.4809 138.395C39.0002 138.86 38.4011 139.099 37.6808 139.099H35.2506V133.593H37.6808C38.4011 133.593 39.0015 133.803 39.4809 134.208C39.9615 134.628 40.2012 135.319 40.2012 136.263C40.2012 137.208 39.9615 137.929 39.4809 138.393V138.395Z" fill="#545454"/>
<path d="M45.542 129.827V133.563H50.7336V152.618H55.2654V133.563H60.4273V129.827H45.5433H45.542Z" fill="#545454"/>
<path d="M73.9903 148.882V129.827H69.4443V152.619H81.3583V148.883H73.9916L73.9903 148.882Z" fill="#545454"/>
<path d="M95.5508 131.267C94.2455 129.977 92.5498 129.332 90.434 129.332C88.3182 129.332 86.5322 129.977 85.2128 131.267C83.8778 132.543 83.2168 134.388 83.2168 136.788V145.656C83.2168 148.041 83.8765 149.872 85.2128 151.162C86.5335 152.438 88.2731 153.083 90.434 153.083C91.68 153.083 92.8345 152.813 93.9002 152.273C94.9658 151.733 95.8356 150.922 96.4953 149.843C97.155 148.747 97.4862 147.352 97.4862 145.656V136.788C97.4862 134.388 96.8406 132.543 95.5508 131.267ZM92.9556 145.132C92.9556 145.852 92.8809 146.527 92.7302 147.128C92.5807 147.742 92.3397 148.238 91.9648 148.628C91.604 149.003 91.095 149.197 90.434 149.197C89.3993 149.197 88.6931 148.822 88.3182 148.072C87.9432 147.307 87.7628 146.331 87.7628 145.132V137.3C87.7628 136.564 87.8234 135.889 87.9728 135.274C88.1223 134.66 88.3774 134.149 88.7537 133.774C89.1287 133.415 89.6544 133.219 90.3438 133.219C91.0331 133.219 91.5447 133.414 91.9197 133.774C92.2946 134.149 92.5652 134.66 92.7147 135.274C92.8642 135.889 92.9544 136.564 92.9544 137.3V145.132H92.9556Z" fill="#545454"/>
<path d="M112.444 142.416C112.639 142.011 112.803 141.666 112.939 141.35C113.088 141.034 113.178 140.84 113.224 140.75C113.673 139.745 114.034 138.679 114.289 137.584C114.529 136.488 114.649 135.423 114.635 134.402C114.635 133.368 114.47 132.451 114.154 131.627C113.854 130.816 113.373 130.171 112.729 129.691C112.083 129.211 111.243 128.986 110.208 129.001C109.053 129.03 108.063 129.495 107.252 130.412C106.442 131.312 105.902 132.512 105.647 134.013C105.407 135.303 105.376 136.61 105.541 137.929C105.706 139.25 106.022 140.51 106.501 141.71C106.966 142.895 107.522 143.945 108.152 144.83C107.987 145.115 107.747 145.551 107.432 146.106C107.102 146.661 106.741 147.231 106.321 147.802C105.901 148.371 105.465 148.837 104.986 149.213C104.505 149.588 104.026 149.739 103.561 149.648C102.976 149.543 102.526 149.063 102.226 148.192C101.91 147.323 101.731 146.182 101.67 144.787C101.625 143.391 101.686 141.846 101.865 140.15C102.03 138.455 102.301 136.745 102.66 134.989C103.005 133.234 103.425 131.583 103.936 130.007L101.25 129.092C100.591 131.133 100.049 133.188 99.6294 135.275C99.1938 137.361 98.9245 139.355 98.8034 141.261C98.7428 142.131 98.7132 143.047 98.7287 144.037C98.7287 145.028 98.8034 146.002 98.9542 146.963C99.1036 147.923 99.3446 148.808 99.6744 149.619C100.004 150.429 100.44 151.104 101.009 151.66C101.565 152.2 102.285 152.545 103.155 152.665C103.92 152.785 104.641 152.68 105.33 152.35C106.005 152.021 106.651 151.555 107.25 150.97C107.85 150.385 108.406 149.74 108.885 149.049C109.366 148.344 109.786 147.699 110.145 147.069C110.956 147.819 111.841 148.389 112.816 148.779L113.972 146.227C113.492 146.017 113.042 145.778 112.637 145.477C112.217 145.193 111.842 144.863 111.481 144.486C111.587 144.261 111.721 143.961 111.901 143.586C112.082 143.211 112.261 142.82 112.441 142.416H112.444ZM111.364 137.209C111.154 138.124 110.899 138.995 110.599 139.805C110.299 140.63 109.984 141.291 109.653 141.815C109.353 141.32 109.098 140.659 108.858 139.819C108.618 138.995 108.453 138.109 108.363 137.148C108.273 136.202 108.288 135.317 108.438 134.508C108.483 134.253 108.573 133.923 108.708 133.487C108.844 133.052 109.038 132.663 109.309 132.317C109.58 131.972 109.924 131.807 110.359 131.837C110.885 131.852 111.244 132.121 111.454 132.647C111.664 133.157 111.755 133.817 111.725 134.628C111.695 135.438 111.575 136.308 111.364 137.209Z" fill="#545454"/>
<path d="M128.142 133.563V129.827H116.243V152.619H128.142V148.883H120.775V142.642H127.091V138.906H120.775V133.565H128.142V133.563Z" fill="#545454"/>
<path d="M143.041 139.865C143.671 138.83 144.001 137.629 144.001 136.263C144.001 134.193 143.475 132.603 142.411 131.492C141.361 130.381 139.771 129.826 137.655 129.826H130.138V152.618H134.67V142.894H135.916C136.74 142.894 137.386 143.104 137.835 143.524C137.955 143.63 138.046 143.764 138.136 143.929C138.375 144.349 138.495 144.934 138.495 145.684V152.616H143.041V145.399C143.041 144.453 142.786 143.674 142.305 143.089C141.87 142.563 141.255 142.264 140.474 142.188C140.384 142.158 140.28 142.143 140.174 142.143V141.978C141.434 141.588 142.394 140.883 143.04 139.862L143.041 139.865ZM137.1 139.099H134.67V133.593H137.1C137.82 133.593 138.42 133.803 138.9 134.208C139.38 134.628 139.62 135.319 139.62 136.263C139.62 137.208 139.38 137.929 138.9 138.393C138.419 138.857 137.82 139.098 137.1 139.098V139.099Z" fill="#545454"/>
<path d="M27.8513 106.044C27.4764 106.059 27.1014 106.104 26.7264 106.134C26.6517 105.519 26.5164 104.784 26.3515 103.959C26.1711 103.134 25.9018 102.308 25.5564 101.484C25.1969 100.673 24.7305 99.9684 24.1455 99.3976C23.5759 98.8126 22.8402 98.4673 21.9395 98.3629C20.9937 98.2572 20.1084 98.408 19.2992 98.7984C18.4887 99.203 17.7543 99.7738 17.0932 100.508C16.4335 101.258 15.833 102.114 15.3073 103.06C14.7816 104.02 14.3164 104.995 13.9118 106.016C13.5072 107.036 13.1619 107.996 12.8913 108.911C12.2908 110.921 11.8256 113.023 11.4958 115.213C11.1659 117.419 11.001 119.549 11.001 121.62H13.8667C13.8667 120.299 13.9569 118.874 14.1373 117.359C14.3319 115.843 14.587 114.328 14.9182 112.797C15.248 111.252 15.6385 109.796 16.1036 108.386C16.5533 106.991 17.0636 105.746 17.619 104.665C18.1885 103.57 18.7748 102.714 19.3894 102.1C20.0195 101.47 20.6651 101.169 21.3248 101.199C21.8055 101.214 22.1946 101.439 22.5258 101.874C22.8414 102.31 23.0953 102.85 23.2912 103.48C23.5012 104.11 23.6507 104.74 23.7563 105.356C23.8465 105.986 23.9213 106.481 23.9664 106.856C23.6958 106.961 23.4264 107.081 23.1713 107.215C22.9162 107.351 22.6611 107.486 22.4059 107.635C21.1457 108.34 20.0505 109.331 19.1201 110.621C18.1898 111.897 17.5146 113.247 17.1242 114.657C16.8845 115.587 16.7788 116.533 16.8085 117.477C16.8536 118.408 17.034 119.277 17.3638 120.072C17.6795 120.853 18.1589 121.483 18.7748 121.963C19.3907 122.442 20.1548 122.683 21.0401 122.713C21.9549 122.728 22.7358 122.532 23.3813 122.128C24.0114 121.723 24.5514 121.182 24.9714 120.522C25.4069 119.847 25.7368 119.111 25.9919 118.316C26.2316 117.535 26.4275 116.756 26.5473 115.975C26.6671 115.194 26.7573 114.505 26.8179 113.874C26.863 113.26 26.8926 112.795 26.9236 112.479C27.0292 111.323 27.0589 110.153 27.0138 108.997C27.2985 108.952 27.6142 108.923 27.9286 108.892C28.2585 108.862 28.5884 108.847 28.9492 108.876L28.9788 106.01C28.6038 106.01 28.2289 106.026 27.8539 106.04L27.8513 106.044ZM24.1004 112.091C24.0553 113.096 23.9509 114.132 23.786 115.212C23.6365 116.052 23.4406 116.833 23.2164 117.583C22.9909 118.319 22.7062 118.918 22.3466 119.338C22.0013 119.758 21.5658 119.938 21.0413 119.848C20.6509 119.788 20.3507 119.578 20.1406 119.218C19.9306 118.843 19.7953 118.423 19.736 117.958C19.6755 117.477 19.6613 117.043 19.7064 116.653C19.8559 115.273 20.3069 113.997 21.0568 112.796C21.8222 111.595 22.8569 110.635 24.1777 109.93C24.1777 110.366 24.1622 111.086 24.1029 112.091H24.1004Z" fill="#545454"/>
<path d="M43.6068 108.865C44.2524 107.83 44.5822 106.629 44.5822 105.263C44.5822 103.193 44.0423 101.603 42.9922 100.492C41.942 99.381 40.3519 98.8257 38.2361 98.8257H30.7188V121.618H35.2506V111.894H36.4966C37.3213 111.894 37.9668 112.104 38.4024 112.524C38.8521 112.944 39.0776 113.665 39.0776 114.685V121.618H43.6094V114.4C43.6094 113.455 43.3697 112.675 42.8891 112.09C42.3943 111.505 41.6882 111.189 40.7591 111.144V110.979C42.0193 110.589 42.9793 109.884 43.6094 108.863L43.6068 108.865ZM39.4809 107.395C39.0002 107.86 38.4011 108.099 37.6808 108.099H35.2506V102.593H37.6808C38.4011 102.593 39.0015 102.803 39.4809 103.208C39.9615 103.628 40.2012 104.319 40.2012 105.263C40.2012 106.208 39.9615 106.929 39.4809 107.393V107.395Z" fill="#545454"/>
<path d="M45.542 98.8271V102.563H50.7336V121.618H55.2654V102.563H60.4273V98.8271H45.5433H45.542Z" fill="#545454"/>
<path d="M73.9903 117.882V98.8271H69.4443V121.619H81.3583V117.883H73.9916L73.9903 117.882Z" fill="#545454"/>
<path d="M95.5508 100.267C94.2455 98.9771 92.5498 98.3315 90.434 98.3315C88.3182 98.3315 86.5322 98.9771 85.2128 100.267C83.8778 101.543 83.2168 103.388 83.2168 105.788V114.656C83.2168 117.041 83.8765 118.872 85.2128 120.162C86.5335 121.438 88.2731 122.083 90.434 122.083C91.68 122.083 92.8345 121.813 93.9002 121.273C94.9658 120.733 95.8356 119.922 96.4953 118.843C97.155 117.747 97.4862 116.352 97.4862 114.656V105.788C97.4862 103.388 96.8406 101.543 95.5508 100.267ZM92.9556 114.132C92.9556 114.852 92.8809 115.527 92.7302 116.128C92.5807 116.742 92.3397 117.238 91.9648 117.628C91.604 118.003 91.095 118.197 90.434 118.197C89.3993 118.197 88.6931 117.822 88.3182 117.072C87.9432 116.307 87.7628 115.331 87.7628 114.132V106.3C87.7628 105.564 87.8234 104.889 87.9728 104.274C88.1223 103.66 88.3774 103.149 88.7537 102.774C89.1287 102.415 89.6544 102.219 90.3438 102.219C91.0331 102.219 91.5447 102.414 91.9197 102.774C92.2946 103.149 92.5652 103.66 92.7147 104.274C92.8642 104.889 92.9544 105.564 92.9544 106.3V114.132H92.9556Z" fill="#545454"/>
<path d="M112.444 111.416C112.639 111.011 112.803 110.666 112.939 110.35C113.088 110.034 113.178 109.84 113.224 109.75C113.673 108.745 114.034 107.679 114.289 106.584C114.529 105.488 114.649 104.423 114.635 103.402C114.635 102.368 114.47 101.451 114.154 100.627C113.854 99.8162 113.373 99.1706 112.729 98.6913C112.083 98.2107 111.243 97.9865 110.208 98.0006C109.053 98.0303 108.063 98.4954 107.252 99.4116C106.442 100.312 105.902 101.512 105.647 103.013C105.407 104.303 105.376 105.61 105.541 106.929C105.706 108.25 106.022 109.51 106.501 110.71C106.966 111.895 107.522 112.945 108.152 113.83C107.987 114.115 107.747 114.551 107.432 115.106C107.102 115.661 106.741 116.231 106.321 116.802C105.901 117.371 105.465 117.837 104.986 118.213C104.505 118.588 104.026 118.739 103.561 118.648C102.976 118.543 102.526 118.063 102.226 117.192C101.91 116.323 101.731 115.182 101.67 113.787C101.625 112.391 101.686 110.846 101.865 109.15C102.03 107.455 102.301 105.745 102.66 103.989C103.005 102.234 103.425 100.583 103.936 99.007L101.25 98.0921C100.591 100.133 100.049 102.188 99.6294 104.275C99.1938 106.361 98.9245 108.355 98.8034 110.261C98.7428 111.131 98.7132 112.047 98.7287 113.037C98.7287 114.028 98.8034 115.002 98.9542 115.963C99.1036 116.923 99.3446 117.808 99.6744 118.619C100.004 119.429 100.44 120.104 101.009 120.66C101.565 121.2 102.285 121.545 103.155 121.665C103.92 121.785 104.641 121.68 105.33 121.35C106.005 121.021 106.651 120.555 107.25 119.97C107.85 119.385 108.406 118.74 108.885 118.049C109.366 117.344 109.786 116.699 110.145 116.069C110.956 116.819 111.841 117.389 112.816 117.779L113.972 115.227C113.492 115.017 113.042 114.778 112.637 114.477C112.217 114.193 111.842 113.863 111.481 113.486C111.587 113.261 111.721 112.961 111.901 112.586C112.082 112.211 112.261 111.82 112.441 111.416H112.444ZM111.364 106.209C111.154 107.124 110.899 107.995 110.599 108.805C110.299 109.63 109.984 110.291 109.653 110.815C109.353 110.32 109.098 109.659 108.858 108.819C108.618 107.995 108.453 107.109 108.363 106.148C108.273 105.202 108.288 104.317 108.438 103.508C108.483 103.253 108.573 102.923 108.708 102.487C108.844 102.052 109.038 101.663 109.309 101.317C109.58 100.972 109.924 100.807 110.359 100.837C110.885 100.852 111.244 101.121 111.454 101.647C111.664 102.157 111.755 102.817 111.725 103.628C111.695 104.438 111.575 105.308 111.364 106.209Z" fill="#545454"/>
<path d="M128.142 102.563V98.8271H116.243V121.619H128.142V117.883H120.775V111.642H127.091V107.906H120.775V102.565H128.142V102.563Z" fill="#545454"/>
<path d="M143.041 108.865C143.671 107.83 144.001 106.629 144.001 105.263C144.001 103.193 143.475 101.603 142.411 100.492C141.361 99.381 139.771 98.8257 137.655 98.8257H130.138V121.618H134.67V111.894H135.916C136.74 111.894 137.386 112.104 137.835 112.524C137.955 112.63 138.046 112.764 138.136 112.929C138.375 113.349 138.495 113.934 138.495 114.684V121.616H143.041V114.399C143.041 113.453 142.786 112.674 142.305 112.089C141.87 111.563 141.255 111.264 140.474 111.188C140.384 111.158 140.28 111.143 140.174 111.143V110.978C141.434 110.588 142.394 109.883 143.04 108.862L143.041 108.865ZM137.1 108.099H134.67V102.593H137.1C137.82 102.593 138.42 102.803 138.9 103.208C139.38 103.628 139.62 104.319 139.62 105.263C139.62 106.208 139.38 106.929 138.9 107.393C138.419 107.857 137.82 108.098 137.1 108.098V108.099Z" fill="#545454"/>
</svg>
