<svg width="82" height="69" viewBox="0 0 82 69" fill="none" xmlns="http://www.w3.org/2000/svg">
<path d="M48.1094 66.7499V2.24707H60.9572V56.1892H81.8141V66.7499H48.1094Z" fill="#545454"/>
<path d="M28.6099 68.9935C26.0866 68.9342 23.9455 68.2304 22.1865 66.8809C20.4264 65.5326 19.0918 63.7439 18.1815 61.5138C17.2723 59.2849 16.759 56.8369 16.6415 54.1665C16.524 51.4972 16.8172 48.8416 17.5221 46.2032C18.6355 42.2141 20.5142 38.4018 23.1538 34.7629C25.7946 31.1263 28.903 28.3099 32.4815 26.3148C33.1864 25.9053 33.9028 25.5094 34.6386 25.1262C35.3698 24.7452 36.1192 24.4087 36.8812 24.1143C36.7637 23.058 36.5584 21.6504 36.2664 19.8903C35.9721 18.1313 35.5466 16.3575 34.9899 14.5666C34.4321 12.7779 33.6998 11.2665 32.7895 10.0345C31.8803 8.80367 30.7499 8.15689 29.4027 8.09871C27.5239 8.04054 25.7056 8.89037 23.9455 10.6505C22.1865 12.4106 20.5142 14.8312 18.9309 17.9111C17.3465 20.9899 15.908 24.5113 14.6179 28.4707C13.3277 32.4313 12.2121 36.5824 11.2733 40.9228C10.3356 45.2655 9.60215 49.5763 9.07286 53.8585C8.54471 58.1419 8.2812 62.1595 8.2812 65.9147H0.185547C0.185547 60.0492 0.65438 54.0068 1.59319 47.7865C2.53086 41.5684 3.85066 35.6139 5.55261 29.9229C6.31461 27.3426 7.26939 24.614 8.41352 21.7394C9.55766 18.8659 10.8775 16.0792 12.3729 13.3791C13.8696 10.6824 15.5555 8.27552 17.4332 6.16292C19.3108 4.05146 21.3937 2.43848 23.6809 1.32401C25.9691 0.210668 28.4627 -0.20113 31.1605 0.090893C33.6826 0.385197 35.7656 1.35367 37.4082 2.99516C39.0508 4.63778 40.3706 6.61806 41.3688 8.93486C42.3658 11.2539 43.1129 13.5856 43.6126 15.9309C44.1099 18.2785 44.4772 20.3306 44.7122 22.0896C45.7685 21.9732 46.8237 21.8843 47.88 21.8261C48.9374 21.7679 49.9926 21.7394 51.0489 21.7394L50.961 29.835C49.9629 29.7769 49.0104 29.7905 48.1013 29.8795C47.1898 29.9674 46.3263 30.0712 45.505 30.1875C45.6214 33.4739 45.5347 36.758 45.2415 40.0433C45.1822 40.9239 45.0795 42.2437 44.9335 44.0039C44.7864 45.7628 44.5377 47.7431 44.1863 49.9436C43.8339 52.144 43.3057 54.3581 42.603 56.5882C41.8981 58.8195 40.9444 60.8864 39.7421 62.7914C38.5387 64.6987 37.0272 66.2238 35.2101 67.368C33.3918 68.5121 31.1925 69.054 28.6099 68.9958V68.9935ZM24.8261 51.8337C24.7086 52.9493 24.7394 54.1813 24.914 55.5308C25.0896 56.8814 25.4706 58.0689 26.0581 59.0944C26.6433 60.121 27.4943 60.7222 28.6087 60.8978C30.0746 61.134 31.3077 60.6503 32.3058 59.4469C33.3028 58.2445 34.1241 56.5859 34.7697 54.4745C35.4142 52.3619 35.9424 50.1329 36.3531 47.7865C36.8219 44.7373 37.1299 41.7886 37.277 38.9425C37.423 36.0976 37.4972 34.0591 37.4972 32.826C33.742 34.8211 30.7943 37.52 28.6532 40.9228C26.511 44.3255 25.2356 47.9621 24.825 51.8349L24.8261 51.8337Z" fill="#545454"/>
</svg>
