<svg width="320" height="270" viewBox="0 0 320 270" fill="none" xmlns="http://www.w3.org/2000/svg">
<path d="M187.527 261.194V8.79199H237.802V219.87H319.415V261.194H187.527Z" fill="#545454"/>
<path d="M111.226 269.975C101.352 269.742 92.9737 266.988 86.0907 261.708C79.2033 256.432 73.9808 249.433 70.4188 240.706C66.8613 231.984 64.8526 222.405 64.3929 211.956C63.9331 201.511 65.0803 191.119 67.8388 180.795C72.1953 165.186 79.547 150.268 89.8759 136.029C100.209 121.799 112.373 110.778 126.375 102.971C129.134 101.368 131.937 99.8196 134.816 98.3198C137.677 96.8289 140.61 95.5121 143.592 94.3605C143.132 90.2271 142.328 84.719 141.186 77.8315C140.034 70.9486 138.369 64.0076 136.191 56.9996C134.008 50.0006 131.143 44.0862 127.581 39.2655C124.023 34.4492 119.599 31.9183 114.328 31.6906C106.976 31.463 99.8612 34.7884 92.9737 41.6758C86.0908 48.5633 79.547 58.0352 73.3514 70.0871C67.1514 82.1345 61.5227 95.9139 56.4743 111.407C51.4259 126.905 47.0604 143.148 43.3868 160.133C39.7177 177.126 36.8476 193.994 34.7764 210.751C32.7098 227.512 31.6786 243.233 31.6786 257.927H0C0 234.975 1.83457 211.331 5.50816 186.991C9.1773 162.659 14.3418 139.359 21.0015 117.09C23.9833 106.993 27.7194 96.3156 32.1964 85.0671C36.6735 73.8232 41.8379 62.9184 47.6898 52.3529C53.5461 41.8008 60.1434 32.3825 67.4906 24.1158C74.8378 15.8535 82.9885 9.54189 91.9381 5.18089C100.892 0.824353 110.65 -0.78703 121.206 0.355668C131.076 1.50729 139.226 5.29696 145.654 11.7202C152.082 18.1479 157.246 25.8968 161.152 34.9625C165.053 44.0371 167.977 53.1609 169.932 62.3382C171.878 71.5244 173.315 79.5545 174.235 86.4375C178.368 85.9822 182.497 85.634 186.63 85.4064C190.768 85.1787 194.897 85.0671 199.03 85.0671L198.687 116.746C194.781 116.518 191.054 116.572 187.496 116.92C183.93 117.264 180.551 117.67 177.337 118.125C177.792 130.985 177.453 143.836 176.306 156.691C176.074 160.137 175.672 165.302 175.101 172.189C174.525 179.072 173.552 186.821 172.177 195.431C170.798 204.042 168.731 212.706 165.981 221.432C163.223 230.163 159.491 238.251 154.787 245.706C150.077 253.169 144.163 259.137 137.052 263.614C129.937 268.091 121.331 270.211 111.226 269.983V269.975ZM96.4197 202.828C95.9599 207.193 96.0804 212.014 96.7634 217.294C97.4508 222.579 98.9416 227.226 101.24 231.239C103.53 235.256 106.86 237.608 111.221 238.296C116.957 239.22 121.782 237.327 125.688 232.618C129.589 227.913 132.803 221.423 135.329 213.161C137.851 204.894 139.918 196.172 141.525 186.991C143.36 175.059 144.565 163.521 145.141 152.384C145.712 141.251 146.002 133.275 146.002 128.45C131.308 136.256 119.774 146.818 111.395 160.133C103.013 173.448 98.0221 187.678 96.4152 202.832L96.4197 202.828Z" fill="#545454"/>
</svg>
