<svg width="165" height="56" viewBox="0 0 165 56" fill="none" xmlns="http://www.w3.org/2000/svg">
<path d="M49.042 -29.0953C52.0567 -26.7222 54.3132 -23.9363 55.811 -20.7361C57.3108 -17.5362 58.0943 -14.2043 58.1625 -10.738C58.2299 -7.27411 57.719 -3.91263 56.6282 -0.649543C55.5379 2.6122 53.9589 5.48296 51.8913 7.95765C48.708 11.6557 44.6836 14.4463 39.8219 16.3375C34.9598 18.225 29.9125 18.7163 24.6775 17.8081C23.6386 17.6487 22.5923 17.4626 21.5284 17.2441C20.471 17.027 19.4122 16.7406 18.3577 16.393C18.0118 17.7485 17.6097 19.5995 17.1495 21.9461C16.6925 24.2934 16.3868 26.778 16.2314 29.4026C16.0784 32.0255 16.2637 34.4801 16.7926 36.7668C17.3206 39.0511 18.385 40.8473 19.9823 42.1456C22.2205 43.929 24.8048 44.5843 27.7392 44.1106C30.6721 43.636 33.8054 42.3016 37.1356 40.1069C40.4668 37.9145 43.8261 35.0659 47.2089 31.5642C50.5921 28.0612 53.8529 24.1737 56.9879 19.9011C60.1226 15.6248 62.9963 11.1999 65.6108 6.62226C68.2244 2.04227 70.3962 -2.46516 72.1293 -6.90303L81.8894 0.485796C79.1824 7.41761 75.8285 14.1305 71.8259 20.6247C67.8257 27.1173 63.4865 32.9497 58.8081 38.1219C56.6986 40.4758 54.2882 42.8289 51.5822 45.1819C48.8767 47.5334 45.9994 49.6222 42.9503 51.4482C39.9014 53.2691 36.758 54.5748 33.5193 55.3577C30.2812 56.1393 27.0256 56.1444 23.7539 55.3741C20.4813 54.6013 17.285 52.8121 14.1673 50.0047C11.2625 47.355 9.19825 44.3094 7.97547 40.8703C6.75322 37.4298 6.076 33.885 5.9419 30.2361C5.81023 26.5855 5.98552 23.1481 6.46556 19.9204C6.94941 16.6922 7.45368 13.9317 7.98217 11.6385C6.655 10.812 5.34183 9.95407 4.04151 9.05875C2.73981 8.16238 1.45455 7.23304 0.181071 6.26897L4.02324 -3.21817C5.19973 -2.23844 6.35438 -1.38528 7.49151 -0.66066C8.63087 0.067394 9.71983 0.73284 10.7637 1.34494C12.1402 -2.64507 13.7603 -6.44705 15.63 -10.0619C16.1079 -11.0485 16.8408 -12.5145 17.8292 -14.4614C18.8184 -16.4058 20.0321 -18.5191 21.4712 -20.7989C22.9117 -23.0776 24.5703 -25.2122 26.4467 -27.2064C28.3263 -29.1998 30.43 -30.7721 32.7587 -31.9261C35.0898 -33.0817 37.6159 -33.5046 40.3347 -33.1982C43.0548 -32.8908 45.9564 -31.5238 49.0431 -29.098L49.042 -29.0953ZM45.6842 -5.36276C46.3407 -6.57395 46.8722 -8.05798 47.2846 -9.81204C47.6961 -11.5685 47.7848 -13.3196 47.5498 -15.0677C47.3182 -16.815 46.5697 -18.3022 45.3071 -19.5269C43.6489 -21.1438 41.9391 -21.6977 40.1803 -21.1865C38.4235 -20.6755 36.6678 -19.465 34.9149 -17.559C33.1629 -15.6506 31.4975 -13.4985 29.9195 -11.1003C27.947 -7.92478 26.2148 -4.7211 24.7239 -1.49195C23.2349 1.73689 22.2047 4.07823 21.6356 5.5355C27.0837 6.60508 31.8829 6.10578 36.0347 4.03865C40.1878 1.97256 43.4037 -1.16114 45.6861 -5.36306L45.6842 -5.36276Z" fill="#545454"/>
<path d="M76.269 8.56311C77.8349 5.06058 79.9861 2.19257 82.7242 -0.0407469C85.4615 -2.27583 88.5015 -3.84859 91.8464 -4.76042C95.1892 -5.67085 98.5738 -5.99547 102.004 -5.73374C105.434 -5.47219 108.603 -4.64126 111.507 -3.23989C115.87 -1.05505 119.558 2.16698 122.578 6.42039C125.595 10.675 127.303 15.45 127.699 20.7483C127.798 21.7947 127.873 22.8548 127.921 23.9399C127.968 25.0183 127.949 26.115 127.869 27.2224C129.268 27.2271 131.161 27.1655 133.549 27.0393C135.937 26.9098 138.421 26.6001 141.004 26.1105C143.585 25.619 145.92 24.8404 148.009 23.7696C150.095 22.7002 151.577 21.2298 152.447 19.364C153.63 16.7584 153.635 14.0922 152.46 11.3621C151.284 8.63362 149.226 5.92059 146.285 3.22639C143.346 0.530796 139.764 -2.03206 135.543 -4.45827C131.32 -6.88467 126.755 -9.09849 121.846 -11.0964C116.934 -13.093 111.942 -14.8004 106.865 -16.219C101.786 -17.6363 96.8846 -18.6428 92.158 -19.2408L96.9424 -30.5087C104.325 -29.5746 111.653 -27.9598 118.928 -25.6625C126.2 -23.3672 132.915 -20.582 139.072 -17.3069C141.87 -15.8354 144.74 -14.072 147.682 -12.0218C150.623 -9.9717 153.35 -7.69096 155.865 -5.17951C158.375 -2.66702 160.408 0.0628864 161.957 3.01266C163.505 5.96224 164.304 9.11823 164.355 12.479C164.404 15.8412 163.449 19.3775 161.487 23.0859C159.626 26.5494 157.176 29.2943 154.139 31.3192C151.101 33.3439 147.829 34.8655 144.323 35.8857C140.815 36.9041 137.438 37.5727 134.191 37.8946C130.942 38.213 128.142 38.3974 125.789 38.4444C125.312 39.9331 124.8 41.4159 124.249 42.8953C123.697 44.3764 123.11 45.8496 122.485 47.3198L112.347 45.9083C113.011 44.5283 113.556 43.2004 113.982 41.9209C114.41 40.6383 114.789 39.4199 115.128 38.2582C110.923 37.8968 106.841 37.2532 102.879 36.3219C101.805 36.0991 100.205 35.7461 98.0758 35.2625C95.9487 34.7776 93.6032 34.1161 91.0412 33.2767C88.4799 32.4357 86.0052 31.348 83.6135 30.0148C81.2217 28.6783 79.1836 27.0219 77.4964 25.0451C75.807 23.0663 74.7806 20.7197 74.4144 18.0083C74.0489 15.2954 74.6667 12.148 76.2661 8.56275L76.269 8.56311ZM100.104 6.02943C98.7689 5.68823 97.2 5.53491 95.3983 5.56293C93.5945 5.59235 91.8747 5.93352 90.2368 6.58788C88.5987 7.23887 87.3392 8.32755 86.4594 9.85075C85.296 11.8533 85.176 13.6466 86.1009 15.2275C87.025 16.8066 88.6272 18.2139 90.9033 19.4488C93.1815 20.6823 95.6749 21.7723 98.3856 22.7176C101.946 23.8557 105.476 24.7539 108.971 25.412C112.466 26.0683 114.988 26.4961 116.54 26.6925C116.248 21.1481 114.593 16.6157 111.575 13.0937C108.558 9.57012 104.735 7.21596 100.103 6.02766L100.104 6.02943Z" fill="#545454"/>
</svg>
