<svg width="351" height="398" viewBox="0 0 351 398" fill="none" xmlns="http://www.w3.org/2000/svg">
<path d="M153.522 370.961C139.492 358.272 129.005 344.226 122.065 328.819C115.116 313.412 111.512 297.886 111.247 282.23C110.987 266.585 113.423 251.785 118.564 237.813C123.702 223.847 131.115 211.966 140.802 202.193C155.714 187.652 174.537 177.756 197.253 172.466C219.971 167.193 243.532 168.331 267.946 175.897C272.792 177.305 277.672 178.837 282.633 180.528C287.564 182.208 292.5 184.2 297.416 186.466C299.05 180.59 300.956 172.521 303.14 162.259C305.309 151.99 306.774 141.003 307.54 129.286C308.294 117.575 307.468 106.397 305.035 95.7473C302.607 85.1087 297.668 76.3129 290.234 69.4052C279.818 59.8871 267.768 55.2204 254.068 55.4054C240.374 55.5961 225.732 59.5254 210.157 67.1989C194.579 74.8611 178.858 85.4604 163.019 98.9851C147.176 112.516 131.9 127.859 117.204 145.02C102.51 162.198 89.0311 180.219 76.7599 199.099C64.4926 217.991 54.2877 236.849 46.1314 255.686L0.701122 215.929C13.4411 186.507 29.196 158.501 47.9747 131.91C66.7421 105.325 87.0816 81.9388 108.993 61.7506C118.874 52.5499 130.158 43.5521 142.822 34.7518C155.484 25.9572 168.943 18.4602 183.2 12.2607C197.455 6.08397 212.144 2.29051 227.27 0.914409C242.392 -0.455962 257.584 1.68246 272.84 7.32406C288.099 12.977 302.987 23.1572 317.492 37.8705C331.006 51.7325 340.591 66.8195 346.244 83.1199C351.894 99.4261 354.999 115.841 355.568 132.363C356.126 148.892 355.254 164.257 352.964 178.474C350.656 192.692 348.26 204.79 345.758 214.767C351.939 219.37 358.053 224.106 364.107 229.002C370.168 233.903 376.151 238.941 382.079 244.129L364.002 284.305C358.527 279.112 353.152 274.503 347.857 270.484C342.552 266.449 337.48 262.729 332.619 259.279C326.134 276.335 318.514 292.383 309.733 307.422C307.488 311.548 304.045 317.664 299.403 325.776C294.756 333.876 289.06 342.588 282.309 351.9C275.552 361.206 267.779 369.719 258.992 377.454C250.189 385.184 240.349 390.869 229.464 394.52C218.568 398.177 206.774 398.404 194.091 395.22C181.402 392.029 167.884 383.947 153.517 370.972L153.522 370.961ZM169.56 266.306C166.478 271.324 163.975 277.655 162.023 285.281C160.075 292.919 159.634 300.746 160.703 308.775C161.757 316.798 165.227 323.993 171.1 330.347C178.813 338.73 186.783 342.36 194.998 341.225C203.204 340.09 211.416 335.804 219.625 328.383C227.83 320.952 235.635 312.365 243.036 302.612C252.29 289.62 260.423 276.341 267.43 262.788C274.429 249.235 279.272 239.374 281.951 233.189C256.544 224.755 234.141 223.817 214.735 230.371C195.323 236.918 180.267 248.897 169.551 266.306L169.56 266.306Z" fill="#F6F5EA"/>
</svg>
