<svg width="307" height="375" viewBox="0 0 307 375" fill="none" xmlns="http://www.w3.org/2000/svg">
<path d="M-72.6619 197.548C-65.4273 179.974 -55.7609 165.339 -43.6565 153.644C-31.5551 141.941 -18.2428 133.393 -3.71044 127.992C10.8127 122.598 25.4334 120.058 40.1702 120.374C54.9008 120.689 68.4322 123.863 80.7428 129.902C99.2249 139.363 114.655 154.087 127.064 174.045C139.458 194.01 146.143 216.888 147.107 242.695C147.386 247.786 147.56 252.95 147.612 258.245C147.665 263.507 147.428 268.877 146.929 274.317C152.953 273.947 161.114 273.113 171.415 271.825C181.716 270.52 192.457 268.306 203.65 265.185C214.834 262.054 224.999 257.589 234.144 251.764C243.279 245.946 249.868 238.336 253.874 228.964C259.336 215.885 259.731 202.842 255.053 189.817C250.372 176.8 241.888 164.107 229.602 151.755C217.324 139.395 202.258 127.865 184.42 117.183C166.576 106.501 147.226 96.955 126.369 88.5618C105.497 80.1757 84.2377 73.2273 62.5726 67.7152C40.8984 62.2106 19.9335 58.6648 -0.337065 57.0684L21.847 0.602837C53.5091 3.09632 84.8409 8.93498 115.845 18.1273C146.841 27.3106 175.366 39.0473 201.423 53.3373C213.263 59.749 225.375 67.5684 237.757 76.7705C250.133 85.9722 261.559 96.3622 272.036 107.941C282.491 119.526 290.864 132.308 297.122 146.302C303.375 160.296 306.374 175.51 306.122 191.936C305.862 208.369 301.252 225.937 292.283 244.629C283.783 262.095 272.847 276.212 259.485 286.971C246.117 297.73 231.811 306.093 216.57 312.07C201.32 318.038 186.686 322.258 172.657 324.746C158.622 327.217 146.538 328.906 136.4 329.798C134.133 337.215 131.722 344.612 129.141 352.004C126.558 359.404 123.82 366.776 120.926 374.144L77.4665 370.089C80.5156 363.152 83.0518 356.503 85.0628 350.124C87.0862 343.73 88.8921 337.663 90.5147 331.885C72.456 331.299 54.966 329.299 38.0356 325.857C33.4446 325.069 26.6016 323.792 17.5006 322.025C8.40891 320.251 -1.59915 317.675 -12.5143 314.289C-23.4263 310.895 -33.9308 306.27 -44.0433 300.421C-54.1557 294.556 -62.6999 287.025 -69.6884 277.83C-76.686 268.625 -80.7769 257.435 -81.9735 244.274C-83.1669 231.105 -80.0651 215.535 -72.6741 197.547L-72.6619 197.548ZM30.3344 178.452C24.6343 177.158 17.8998 176.849 10.1372 177.493C2.36527 178.144 -5.08875 180.297 -12.2342 183.958C-19.3795 187.603 -24.9564 193.283 -28.9586 200.982C-34.25 211.105 -35.0182 219.911 -31.2571 227.385C-27.4991 234.85 -20.7966 241.283 -11.1682 246.684C-1.53053 252.077 9.05404 256.709 20.5948 260.57C35.7692 265.137 50.8424 268.538 65.8022 270.775C80.759 273.002 91.5594 274.386 98.2157 274.91C97.7364 247.87 91.2449 226.164 78.7441 209.783C66.2465 193.395 50.111 182.954 30.3314 178.443L30.3344 178.452Z" fill="#F6F5EA"/>
</svg>
