<svg width="371" height="379" viewBox="0 0 371 379" fill="none" xmlns="http://www.w3.org/2000/svg">
<path d="M272.429 46.2934C281.881 62.7552 287.548 79.3957 289.426 96.2194C291.312 113.046 289.982 128.937 285.436 143.906C280.89 158.863 274.039 172.17 264.87 183.843C255.705 195.511 245.017 204.484 232.813 210.739C214.179 219.892 193.25 223.401 170.032 221.311C146.817 219.204 124.764 210.737 103.87 195.892C99.6944 193.035 95.5244 190.048 91.3253 186.886C87.152 183.744 83.0689 180.302 79.0898 176.607C75.7351 181.681 71.4514 188.756 66.2301 197.829C61.0217 206.912 56.2624 216.899 51.9439 227.799C47.6381 238.697 44.9992 249.584 44.0488 260.472C43.098 271.348 45.0988 281.258 50.0499 290.156C57.0374 302.47 67.0638 310.684 80.1463 314.802C93.2245 318.912 108.35 319.765 125.509 317.351C142.668 314.949 160.862 309.798 180.066 301.904C199.274 294.005 218.5 284.205 237.73 272.494C256.965 260.767 275.302 247.858 292.754 233.753C310.206 219.636 325.687 204.904 339.213 189.552L370.225 241.59C349.098 265.57 325.537 287.26 299.535 306.656C273.546 326.05 247.042 341.911 220.023 354.238C207.81 359.889 194.324 364.907 179.587 369.305C164.854 373.698 149.76 376.608 134.306 378.034C118.86 379.438 103.731 378.441 88.9292 375.009C74.1311 371.572 60.342 364.778 47.5662 354.633C34.7903 344.476 23.7547 330.13 14.472 311.595C5.87055 294.18 1.37978 276.832 0.999941 259.562C0.624197 242.288 2.70133 225.708 7.22284 209.82C11.7569 193.931 17.2932 179.595 23.827 166.795C30.3778 154.001 36.3625 143.25 41.7982 134.548C37.3327 128.234 32.9702 121.815 28.7142 115.263C24.4539 108.704 20.3091 102.038 16.2627 95.2479L45.7596 62.7148C49.3736 69.3685 53.0717 75.4351 56.8749 80.9153C60.6827 86.4148 64.3646 91.5411 67.9299 96.3447C79.3217 82.1609 91.4832 69.2916 104.44 57.7448C107.839 54.5257 112.986 49.7898 119.885 43.5324C126.785 37.287 134.871 30.7894 144.142 24.0516C153.419 17.3212 163.417 11.664 174.142 7.06338C184.879 2.47278 195.977 0.152166 207.445 0.0922924C218.925 0.0304171 230.208 3.51066 241.291 10.5136C252.377 17.5239 262.754 29.4456 272.437 46.2841L272.429 46.2934ZM225.114 140.77C229.583 136.964 233.902 131.73 238.095 125.091C242.287 118.44 245.104 111.136 246.548 103.167C248.004 95.2082 246.91 87.2805 243.273 79.3985C238.508 69.011 232.043 63.062 223.884 61.5662C215.734 60.0731 206.614 61.5747 196.535 66.0569C186.457 70.5511 176.405 76.269 166.38 83.2224C153.601 92.6746 141.8 102.75 130.984 113.44C120.178 124.133 112.551 131.99 108.109 137.031C129.681 153.013 150.694 160.926 171.153 160.777C191.616 160.636 209.6 153.966 225.123 140.773L225.114 140.77Z" fill="#F6F5EA"/>
</svg>
