<svg width="32" height="32" viewBox="0 0 32 32" fill="none" xmlns="http://www.w3.org/2000/svg">
<rect x="0.5" y="0.5" width="31" height="31" rx="3.5" stroke="#D88164"/>
<path d="M13.3809 16.4217C11.3084 14.8717 9.83007 13.1667 9.02257 12.2083C8.77257 11.9117 8.69091 11.6942 8.64174 11.3117C8.47341 10.0017 8.38924 9.34667 8.77341 8.92333C9.15757 8.5 9.83674 8.5 11.1951 8.5H20.8051C22.1634 8.5 22.8426 8.5 23.2267 8.9225C23.6109 9.34583 23.5267 10.0008 23.3584 11.3108C23.3084 11.6933 23.2267 11.9108 22.9776 12.2075C22.1692 13.1675 20.6884 14.8758 18.6109 16.4283C18.5148 16.5031 18.4354 16.5971 18.3777 16.7042C18.3201 16.8114 18.2854 16.9295 18.2759 17.0508C18.0701 19.3267 17.8801 20.5733 17.7617 21.2033C17.5709 22.2217 16.1284 22.8342 15.3551 23.38C14.8951 23.705 14.3367 23.3183 14.2776 22.815C14.0563 20.8971 13.869 18.9754 13.7159 17.0508C13.7073 16.9283 13.6731 16.809 13.6154 16.7006C13.5577 16.5922 13.4778 16.4972 13.3809 16.4217Z" stroke="#C65528" stroke-width="1.5" stroke-linecap="round" stroke-linejoin="round"/>
</svg>
