<svg width="360" height="131" viewBox="0 0 360 131" fill="none" xmlns="http://www.w3.org/2000/svg">
<path d="M40.0602 136.108C36.4642 134.304 33.6014 131.891 31.472 128.865C29.3407 125.84 27.9457 122.511 27.2857 118.874C26.6271 115.24 26.5984 111.581 27.2007 107.891C27.8027 104.202 28.9887 100.813 30.7595 97.7277C33.5047 93.0958 37.295 89.2258 42.1247 86.1099C46.9554 82.9978 52.2192 81.3138 57.9189 81.061C59.0465 80.989 60.1865 80.9432 61.3507 80.9277C62.5076 80.9121 63.6779 80.9691 64.8539 81.0917C64.9905 79.5836 65.1026 77.5406 65.1924 74.9618C65.2785 72.3831 65.181 69.6947 64.9007 66.8936C64.6181 64.0948 64.0055 61.5515 63.0576 59.2644C62.1109 56.9796 60.6788 55.3332 58.7665 54.3344C56.0931 52.9725 53.2442 52.8793 50.2159 54.0563C47.1893 55.2342 44.0963 57.364 40.9404 60.4459C37.7832 63.5254 34.7073 67.303 31.7175 71.774C28.7272 76.2465 25.932 81.0958 23.3353 86.3217C20.7395 91.5516 18.4454 96.8777 16.4518 102.305C14.4596 107.734 12.923 112.985 11.8394 118.061L0.24706 112.532C1.93955 104.603 4.3544 96.7551 7.49356 88.988C10.6304 81.2231 14.2385 74.0755 18.3177 67.5451C20.1533 64.5776 22.3078 61.5414 24.7756 58.4371C27.2431 55.3343 29.937 52.4687 32.8575 49.8403C35.7787 47.2174 38.8874 45.1154 42.1856 43.5421C45.4835 41.9704 48.9315 41.2127 52.5281 41.2684C56.126 41.3264 59.8155 42.473 63.5942 44.7104C67.1208 46.8309 69.824 49.5627 71.7025 52.9036C73.5806 56.246 74.8991 59.8243 75.6598 63.6378C76.4182 67.4536 76.8154 71.1158 76.8541 74.6273C76.8888 78.1404 76.8227 81.1653 76.6516 83.7035C78.1977 84.2677 79.7343 84.8682 81.2636 85.511C82.7946 86.1547 84.3137 86.8368 85.8263 87.5583L83.3645 98.4417C81.9521 97.6813 80.5842 97.0492 79.2567 96.5485C77.9263 96.0447 76.6598 95.5952 75.4502 95.1915C74.6685 99.7134 73.5967 104.094 72.229 108.334C71.89 109.484 71.3621 111.198 70.6452 113.478C69.9269 115.755 68.9994 118.262 67.8614 120.996C66.7217 123.73 65.3266 126.362 63.6769 128.897C62.0236 131.431 60.0617 133.574 57.7904 135.328C55.5168 137.084 52.9124 138.113 49.9802 138.419C47.0464 138.723 43.7408 137.954 40.0596 136.111L40.0602 136.108ZM39.5936 110.328C39.1034 111.756 38.7921 113.442 38.6526 115.385C38.5144 117.331 38.7173 119.196 39.2626 120.984C39.8043 122.771 40.8494 124.165 42.3946 125.164C44.4254 126.484 46.3307 126.673 48.1072 125.728C49.8817 124.783 51.5363 123.102 53.0701 120.689C54.6026 118.274 56.002 115.621 57.2671 112.73C58.8183 108.929 60.1101 105.153 61.1421 101.406C62.1721 97.6603 62.8664 94.9554 63.2222 93.2885C57.2693 93.4205 52.2698 95.0555 48.222 98.1928C44.1726 101.329 41.2971 105.374 39.5916 110.328L39.5936 110.328Z" fill="#F6F5EA"/>
<path d="M178.333 88.1253C179.555 91.9584 179.705 95.3053 178.781 98.1661C177.859 101.028 176.119 103.309 173.561 105.011C171.004 106.71 167.945 107.842 164.379 108.405C160.815 108.968 157.058 108.907 153.111 108.219C147.119 107.107 140.972 104.809 134.668 101.333C128.366 97.8546 122.937 93.5493 118.38 88.4132C117.46 87.4038 116.552 86.375 115.652 85.3151C114.757 84.2618 113.913 83.1744 113.12 82.0618C111.746 82.3923 109.941 82.9065 107.701 83.6031C105.465 84.3029 103.276 85.2036 101.131 86.3057C98.9906 87.4092 97.3163 88.7373 96.1134 90.2947C94.9115 91.8503 94.617 93.657 95.2336 95.7074C96.1248 98.5634 98.2177 101.197 101.517 103.611C104.815 106.023 108.966 108.209 113.965 110.164C118.964 112.122 124.489 113.794 130.532 115.179C136.576 116.563 142.789 117.655 149.167 118.452C155.549 119.247 161.781 119.737 167.869 119.921C173.959 120.104 179.55 119.924 184.649 119.382L188.83 131.653C180.865 132.499 172.418 132.66 163.486 132.134C154.559 131.61 145.791 130.468 137.185 128.709C133.287 127.927 129.089 126.873 124.595 125.554C120.102 124.234 115.636 122.635 111.198 120.758C106.763 118.879 102.624 116.67 98.7857 114.129C94.949 111.588 91.6831 108.663 88.9888 105.357C86.2953 102.049 84.4485 98.3293 83.452 94.198C82.5493 90.3328 82.7888 87.0359 84.1696 84.3093C85.5519 81.5826 87.5595 79.2965 90.1901 77.4495C92.8244 75.6038 95.6047 74.135 98.5314 73.0394C101.462 71.9469 104.059 71.0942 106.327 70.4843C105.623 68.9 104.957 67.3135 104.333 65.7208C103.708 64.1264 103.124 62.5312 102.579 60.9301L113.618 59.8955C114.054 61.4168 114.564 62.8585 115.155 64.2237C115.745 65.5925 116.331 66.8864 116.914 68.1145C121.316 67.4641 125.82 67.1218 130.433 67.0923C131.659 67.0552 133.505 67.0204 135.97 66.9878C138.435 66.9571 141.252 67.0484 144.422 67.2636C147.592 67.4804 150.871 67.9616 154.262 68.705C157.656 69.4517 160.955 70.5989 164.163 72.1465C167.374 73.6955 170.226 75.7665 172.718 78.3558C175.21 80.9468 177.082 84.2021 178.336 88.125L178.333 88.1253ZM156.985 96.3356C158.561 96.3528 160.218 96.1284 161.96 95.6692C163.704 95.2081 165.119 94.4594 166.208 93.421C167.3 92.3859 167.677 91.0094 167.34 89.2948C166.904 87.039 165.611 85.2397 163.461 83.9004C161.314 82.5627 158.637 81.557 155.437 80.883C152.235 80.2108 148.936 79.7318 145.537 79.4478C141.155 79.177 136.992 79.1355 133.051 79.323C129.112 79.512 126.306 79.6937 124.631 79.8716C129.28 85.2757 134.467 89.3541 140.193 92.1086C145.92 94.8649 151.517 96.2734 156.987 96.3372L156.985 96.3356Z" fill="#F6F5EA"/>
<path d="M269.685 136.79C265.883 134.641 263.289 132.249 261.903 129.615C260.514 126.98 260.202 124.316 260.965 121.621C261.729 118.928 263.31 116.374 265.712 113.956C268.113 111.538 271.128 109.474 274.757 107.767C280.316 105.226 286.874 103.474 294.429 102.506C301.983 101.54 309.46 101.676 316.862 102.917C318.336 103.147 319.814 103.398 321.31 103.677C322.797 103.953 324.268 104.284 325.718 104.661C326.559 103.646 327.606 102.252 328.861 100.479C330.111 98.7059 331.175 96.8107 332.055 94.7915C332.931 92.7734 333.271 90.8511 333.07 89.0238C332.869 87.1984 331.766 85.6967 329.761 84.5263C326.944 82.9142 323.342 82.1414 318.948 82.208C314.556 82.2756 309.659 82.9893 304.26 84.35C298.86 85.7087 293.256 87.5734 287.456 89.9421C281.654 92.3117 275.935 94.992 270.304 97.9839C264.672 100.979 259.383 104.115 254.434 107.397C249.485 110.681 245.199 113.953 241.569 117.217L229.187 110.488C234.857 105.39 241.415 100.528 248.863 95.9028C256.308 91.2783 264.083 87.2003 272.187 83.669C275.847 82.0599 279.945 80.4822 284.473 78.9349C289.001 77.3887 293.713 76.0638 298.611 74.9603C303.506 73.8607 308.412 73.1703 313.326 72.8949C318.238 72.6206 322.983 72.9501 327.559 73.8826C332.135 74.817 336.347 76.5318 340.191 79.028C343.764 81.3802 346.013 83.9532 346.939 86.7452C347.863 89.5381 347.968 92.3561 347.255 95.1992C346.538 98.0434 345.427 100.691 343.924 103.144C342.415 105.598 340.993 107.687 339.653 109.411C341.381 110.188 343.08 110.987 344.752 111.815C346.426 112.643 348.067 113.495 349.683 114.373L341.723 121.336C340.252 120.456 338.782 119.676 337.306 118.998C335.827 118.317 334.406 117.689 333.037 117.107C330.038 120.06 326.731 122.842 323.107 125.454C322.165 126.17 320.732 127.232 318.808 128.64C316.882 130.046 314.588 131.561 311.923 133.181C309.257 134.8 306.309 136.286 303.079 137.64C299.843 138.993 296.387 139.996 292.707 140.653C289.022 141.31 285.236 141.379 281.351 140.863C277.464 140.346 273.576 138.989 269.683 136.792L269.685 136.79ZM280.485 118.731C279.227 119.603 278.083 120.7 277.046 122.017C276.009 123.337 275.444 124.686 275.351 126.066C275.254 127.444 275.974 128.674 277.509 129.753C279.522 131.177 281.876 131.781 284.566 131.565C287.253 131.349 290.112 130.59 293.141 129.292C296.169 127.991 299.131 126.493 302.028 124.795C305.692 122.535 309.014 120.228 311.99 117.877C314.963 115.526 317.047 113.816 318.239 112.744C310.567 111.357 303.45 111.253 296.886 112.43C290.32 113.607 284.854 115.707 280.482 118.731L280.485 118.731Z" fill="#F6F5EA"/>
<path d="M189.556 140.023C186.262 137.456 183.874 134.527 182.391 131.235C180.907 127.943 180.258 124.567 180.444 121.104C180.631 117.643 181.477 114.322 182.983 111.139C184.489 107.956 186.529 105.196 189.101 102.863C193.053 99.3836 197.906 96.8652 203.655 95.2994C209.404 93.7374 215.26 93.5808 221.225 94.833C222.411 95.0608 223.603 95.3155 224.813 95.604C226.015 95.8905 227.214 96.2462 228.403 96.6628C228.905 95.333 229.51 93.5127 230.22 91.2017C230.926 88.8896 231.468 86.4307 231.848 83.8222C232.224 81.2151 232.198 78.7536 231.763 76.4369C231.329 74.1227 230.239 72.2601 228.497 70.8591C226.053 68.9316 223.123 68.107 219.705 68.3856C216.287 68.6654 212.573 69.7897 208.567 71.7596C204.559 73.727 200.469 76.3474 196.302 79.6178C192.134 82.8895 188.078 86.5529 184.138 90.609C180.198 94.6688 176.547 98.8941 173.183 103.289C169.821 107.686 166.973 112.04 164.636 116.354L153.949 108.336C157.599 101.598 161.978 95.1218 167.088 88.9063C172.195 82.6923 177.643 77.1595 183.431 72.3078C186.042 70.0985 189.001 67.9098 192.3 65.7409C195.599 63.5733 199.075 61.6792 202.729 60.0587C206.383 58.4433 210.107 57.3483 213.9 56.7811C217.693 56.2152 221.446 56.4253 225.159 57.4102C228.872 58.3976 232.421 60.3942 235.8 63.4015C238.947 66.2374 241.094 69.4128 242.241 72.9252C243.387 76.4389 243.897 80.0207 243.773 83.6705C243.646 87.3218 243.181 90.7401 242.382 93.929C241.577 97.1182 240.785 99.8393 240.001 102.093C241.468 103.005 242.916 103.948 244.347 104.927C245.779 105.908 247.189 106.92 248.584 107.966L243.43 117.178C242.149 116.123 240.883 115.195 239.627 114.397C238.369 113.596 237.165 112.86 236.008 112.18C234.117 116.07 231.959 119.757 229.527 123.24C228.901 124.193 227.944 125.607 226.656 127.485C225.367 129.359 223.807 131.388 221.974 133.567C220.139 135.746 218.064 137.766 215.749 139.632C213.43 141.497 210.884 142.927 208.112 143.924C205.336 144.923 202.392 145.178 199.281 144.693C196.169 144.206 192.928 142.651 189.555 140.026L189.556 140.023ZM195.24 116.565C194.39 117.73 193.664 119.176 193.055 120.899C192.446 122.624 192.21 124.365 192.348 126.125C192.481 127.884 193.231 129.417 194.593 130.723C196.381 132.446 198.31 133.112 200.376 132.718C202.44 132.324 204.557 131.232 206.723 129.446C208.889 127.658 210.973 125.62 212.975 123.332C215.491 120.294 217.733 117.211 219.698 114.088C221.661 110.964 223.028 108.696 223.795 107.28C217.596 105.853 212.025 106.034 207.081 107.822C202.136 109.609 198.189 112.523 195.237 116.565L195.24 116.565Z" fill="#F6F5EA"/>
<path d="M330.528 84.4034C327.234 81.8362 324.845 78.9072 323.363 75.6151C321.878 72.3231 321.229 68.9467 321.415 65.4834C321.602 62.0226 322.448 58.7023 323.954 55.5184C325.46 52.3359 327.5 49.5757 330.072 47.2431C334.024 43.7635 338.877 41.2451 344.626 39.6793C350.375 38.1173 356.231 37.9606 362.197 39.2129C363.382 39.4406 364.574 39.6954 365.784 39.9838C366.986 40.2703 368.185 40.626 369.374 41.0426C369.876 39.7129 370.481 37.8926 371.191 35.5815C371.897 33.2695 372.439 30.8106 372.819 28.202C373.195 25.595 373.169 23.1335 372.734 20.8168C372.3 18.5026 371.21 16.64 369.468 15.239C367.024 13.3115 364.095 12.4869 360.676 12.7655C357.258 13.0453 353.544 14.1696 349.538 16.1395C345.53 18.1068 341.44 20.7272 337.273 23.9977C333.105 27.2694 329.049 30.9328 325.109 34.9889C321.169 39.0487 317.518 43.274 314.155 47.6688C310.792 52.066 307.944 56.4201 305.607 60.7337L294.92 52.7159C298.57 45.9782 302.949 39.5017 308.059 33.2862C313.166 27.0722 318.614 21.5394 324.402 16.6877C327.014 14.4784 329.972 12.2897 333.271 10.1207C336.57 7.95314 340.046 6.0591 343.701 4.43863C347.354 2.82322 351.078 1.72817 354.871 1.16098C358.664 0.595103 362.417 0.805196 366.13 1.79013C369.844 2.7775 373.392 4.77408 376.771 7.78136C379.918 10.6173 382.065 13.7927 383.212 17.3051C384.358 20.8188 384.868 24.4006 384.744 28.0504C384.617 31.7017 384.153 35.12 383.353 38.3089C382.548 41.4981 381.756 44.2192 380.972 46.4725C382.439 47.3849 383.887 48.3277 385.318 49.3071C386.75 50.2875 388.161 51.2998 389.555 52.3459L384.401 61.5583C383.12 60.503 381.854 59.5754 380.598 58.7772C379.341 57.9754 378.136 57.2394 376.979 56.5597C375.088 60.45 372.93 64.1366 370.499 67.62C369.872 68.5728 368.915 69.9872 367.627 71.8644C366.339 73.7392 364.778 75.7677 362.945 77.9474C361.11 80.1259 359.035 82.1462 356.72 84.012C354.401 85.8768 351.856 87.3067 349.083 88.3042C346.307 89.3032 343.363 89.5582 340.252 89.0728C337.14 88.5863 333.899 87.0305 330.526 84.406L330.528 84.4034ZM336.211 60.9447C335.361 62.1098 334.635 63.5555 334.026 65.2784C333.418 67.0039 333.182 68.7452 333.319 70.5051C333.453 72.2639 334.202 73.7972 335.564 75.1028C337.352 76.8257 339.281 77.4914 341.347 77.0975C343.412 76.7038 345.528 75.612 347.694 73.826C349.86 72.0376 351.944 70.0003 353.946 67.7116C356.463 64.6734 358.704 61.5912 360.669 58.4677C362.633 55.3443 363.999 53.0762 364.766 51.6597C358.567 50.2324 352.997 50.4134 348.053 52.2016C343.107 53.9887 339.161 56.903 336.209 60.9448L336.211 60.9447Z" fill="#F6F5EA"/>
</svg>
