<svg width="313" height="70" viewBox="0 0 313 70" fill="none" xmlns="http://www.w3.org/2000/svg">
<path d="M73.7441 64.2079C72.9214 60.3647 73.0115 57.0855 74.0156 54.3701C75.018 51.6531 76.7022 49.5717 79.0693 48.124C81.4353 46.6782 84.2058 45.8289 87.3848 45.5761C90.5625 45.3233 93.8692 45.6961 97.3012 46.6963C102.507 48.2808 107.77 51.0356 113.095 54.9535C118.416 58.8732 122.915 63.5277 126.589 68.9204C127.333 69.9823 128.064 71.062 128.787 72.1716C129.506 73.2742 130.177 74.4059 130.802 75.5579C132.035 75.3497 133.66 74.9981 135.679 74.5048C137.696 74.008 139.685 73.3111 141.647 72.4141C143.607 71.5153 145.17 70.3585 146.333 68.9385C147.496 67.5203 147.875 65.7813 147.468 63.7287C146.872 60.8668 145.203 58.122 142.456 55.4911C139.71 52.8618 136.198 50.3829 131.922 48.0577C127.648 45.7307 122.891 43.6382 117.658 41.7837C112.424 39.9292 107.023 38.3456 101.455 37.0365C95.8852 35.7292 90.4262 34.7319 85.074 34.0447C79.7208 33.3592 74.782 33.0693 70.2529 33.1732L67.3839 20.848C74.4581 20.6856 81.9117 21.2321 89.7464 22.4891C97.5781 23.7445 105.227 25.5889 112.694 28.0225C116.076 29.1111 119.705 30.4892 123.578 32.1515C127.449 33.8138 131.278 35.746 135.064 37.948C138.847 40.1519 142.347 42.652 145.56 45.4521C148.772 48.2522 151.456 51.3787 153.611 54.8299C155.764 58.2829 157.145 62.0678 157.749 66.1832C158.288 70.0311 157.858 73.2291 156.46 75.7754C155.061 78.3217 153.141 80.3859 150.7 81.9696C148.256 83.5517 145.709 84.7538 143.058 85.5794C140.403 86.4016 138.058 87.0176 136.02 87.4241C136.534 89.029 137.016 90.633 137.46 92.2396C137.905 93.8479 138.313 95.4535 138.688 97.0617L128.893 97.1521C128.609 95.6309 128.255 94.1812 127.826 92.7995C127.397 91.4143 126.965 90.1025 126.534 88.8553C122.612 89.1235 118.62 89.0824 114.554 88.7271C113.471 88.6611 111.843 88.5414 109.668 88.3678C107.495 88.1925 105.018 87.8687 102.24 87.3948C99.4609 86.9191 96.6034 86.1763 93.6647 85.1683C90.7239 84.1568 87.893 82.7621 85.1694 80.9844C82.4426 79.205 80.0676 76.9462 78.0437 74.2113C76.0194 71.4747 74.5865 68.1414 73.7414 64.208L73.7441 64.2079ZM93.0989 57.9722C91.7117 57.8242 90.2368 57.9052 88.6711 58.2083C87.1045 58.5131 85.8073 59.126 84.7787 60.0488C83.7479 60.9682 83.3245 62.2804 83.5076 63.982C83.7423 66.2202 84.7626 68.0841 86.5678 69.5704C88.3711 71.055 90.6626 72.2594 93.438 73.1839C96.2143 74.1067 99.0897 74.849 102.065 75.4093C105.909 76.0386 109.574 76.4258 113.059 76.5711C116.542 76.7146 119.027 76.771 120.514 76.7369C116.777 71.075 112.477 66.6621 107.614 63.4966C102.751 60.3293 97.9134 58.4884 93.0971 57.9705L93.0989 57.9722Z" fill="#545454"/>
<path d="M243.427 82.7895C240.136 80.6407 237.891 78.2493 236.691 75.6144C235.489 72.9796 235.219 70.3158 235.88 67.621C236.541 64.9282 237.91 62.3741 239.989 59.9556C242.066 57.5381 244.676 55.4739 247.817 53.7668C252.629 51.2254 258.306 49.4739 264.845 48.5055C271.383 47.54 277.855 47.676 284.261 48.9165C285.537 49.1466 286.817 49.398 288.111 49.6765C289.398 49.9531 290.672 50.2836 291.927 50.6612C292.655 49.6455 293.561 48.2515 294.647 46.4791C295.729 44.7058 296.65 42.8105 297.412 40.7914C298.17 38.7733 298.465 36.851 298.291 35.0237C298.117 33.1983 297.161 31.6966 295.427 30.5262C292.988 28.914 289.87 28.1412 286.067 28.2079C282.266 28.2755 278.027 28.9892 273.354 30.3498C268.68 31.7086 263.83 33.5733 258.809 35.942C253.787 38.3116 248.837 40.9919 243.963 43.9837C239.088 46.9785 234.51 50.1152 230.227 53.3969C225.943 56.6805 222.233 59.953 219.091 63.2166L208.374 56.4875C213.281 51.3899 218.958 46.5283 225.405 41.9027C231.849 37.2781 238.578 33.2002 245.593 29.6689C248.761 28.0598 252.308 26.4821 256.227 24.9348C260.146 23.3886 264.225 22.0637 268.464 20.9601C272.702 19.8605 276.947 19.1701 281.201 18.8948C285.453 18.6204 289.56 18.95 293.52 19.8825C297.481 20.8169 301.127 22.5317 304.454 25.0279C307.546 27.3801 309.494 29.9531 310.295 32.745C311.095 35.538 311.185 38.356 310.568 41.1991C309.948 44.0433 308.986 46.6907 307.685 49.1442C306.379 51.5979 305.149 53.6866 303.988 55.4107C305.484 56.1875 306.955 56.9873 308.402 57.8147C309.851 58.6431 311.271 59.4953 312.67 60.3733L305.78 67.3361C304.507 66.4559 303.235 65.6761 301.957 64.9977C300.677 64.3165 299.447 63.6889 298.262 63.1074C295.666 66.0602 292.804 68.8423 289.667 71.4538C288.852 72.1698 287.612 73.2315 285.946 74.6398C284.279 76.0462 282.293 77.5605 279.987 79.1808C277.679 80.8002 275.127 82.2854 272.331 83.6395C269.531 84.9927 266.539 85.9964 263.354 86.6526C260.165 87.3098 256.888 87.379 253.525 86.8629C250.16 86.3459 246.796 84.9887 243.425 82.7915L243.427 82.7895ZM252.775 64.7313C251.686 65.6032 250.696 66.6995 249.798 68.0173C248.901 69.3371 248.412 70.6859 248.331 72.0654C248.247 73.444 248.871 74.6738 250.199 75.7528C251.942 77.1764 253.979 77.7811 256.308 77.5648C258.633 77.3486 261.108 76.5898 263.73 75.2915C266.351 73.9912 268.915 72.493 271.422 70.7951C274.593 68.5349 277.468 66.2282 280.044 63.877C282.618 61.5259 284.422 59.816 285.453 58.7443C278.813 57.3569 272.653 57.2524 266.971 58.4299C261.288 59.6065 256.557 61.707 252.773 64.7313L252.775 64.7313Z" fill="#545454"/>
<path d="M25.1878 79.356C22.4567 76.5744 20.5477 73.5157 19.4616 70.1785C18.3736 66.8414 18.0276 63.4921 18.4232 60.1281C18.8193 56.7665 19.7865 53.5973 21.3271 50.6168C22.867 47.6375 24.8489 45.1152 27.2718 43.0548C30.9872 39.9909 35.4317 37.9406 40.6025 36.8952C45.7732 35.8534 50.9442 36.1921 56.1174 37.9147C57.1468 38.2365 58.1802 38.5852 59.227 38.9682C60.2674 39.3487 61.3 39.7964 62.3199 40.3028C62.8514 39.0473 63.5062 37.3217 64.2862 35.126C65.063 32.9291 65.7052 30.575 66.2141 28.0613C66.7204 25.5488 66.8619 23.1446 66.6335 20.8473C66.4055 18.5525 65.5697 16.6434 64.1281 15.13C62.1033 13.0439 59.5772 11.9933 56.5458 11.9783C53.5156 11.9645 50.1677 12.75 46.5051 14.3359C42.842 15.9195 39.0624 18.1333 35.1717 20.975C31.2802 23.8179 27.4611 27.0525 23.7175 30.6799C19.9738 34.3109 16.4741 38.1278 13.2163 42.1342C9.95893 46.143 7.15809 50.1529 4.81038 54.1662L-4.07122 45.445C-0.404164 39.1763 3.88779 33.2237 8.80659 27.5872C13.7227 21.952 18.8933 17.01 24.3185 12.7612C26.7676 10.8245 29.5209 8.9369 32.5733 7.09726C35.625 5.25885 38.8152 3.70233 42.1439 2.42771C45.4717 1.15798 48.8261 0.401885 52.2068 0.166776C55.5867 -0.067115 58.8803 0.452942 62.0862 1.72572C65.2927 3.00094 68.2859 5.24712 71.063 8.46545C73.646 11.497 75.3257 14.7759 76.1015 18.2998C76.8767 21.8248 77.0866 25.363 76.7332 28.9143C76.3771 32.4668 75.7391 35.7635 74.821 38.8083C73.8989 41.853 73.0189 44.4419 72.177 46.5749C73.4086 47.5885 74.6219 48.6301 75.8171 49.7058C77.0136 50.7828 78.189 51.889 79.3478 53.0269L74.1902 61.5844C73.1315 60.4469 72.078 59.4355 71.025 58.5512C69.9701 57.6632 68.9579 56.8439 67.9841 56.0835C66.0571 59.7211 63.9088 63.1375 61.5333 66.3328C60.9177 67.21 59.9799 68.5099 58.7193 70.2338C57.4582 71.9551 55.9474 73.8036 54.1862 75.7768C52.4238 77.7488 50.4602 79.5461 48.2951 81.1725C46.1267 82.7977 43.7883 83.9794 41.2782 84.7201C38.7656 85.462 36.1539 85.4637 33.445 84.7289C30.7349 83.9929 27.9833 82.2028 25.1864 79.3585L25.1878 79.356ZM31.7648 56.9408C30.9384 58.0065 30.202 59.3563 29.5498 60.9865C28.8981 62.6192 28.5737 64.2987 28.5771 66.0276C28.5772 67.7552 29.135 69.3144 30.2478 70.7027C31.7083 72.5342 33.3635 73.3457 35.211 73.1347C37.0564 72.9238 38.9944 72.036 41.0228 70.4749C43.0506 68.9114 45.0235 67.0982 46.941 65.0329C49.3617 62.2793 51.5431 59.4596 53.4838 56.5765C55.4226 53.6933 56.7784 51.5946 57.5493 50.2767C52.1822 48.3636 47.2611 48.0726 42.7848 49.4027C38.3072 50.7315 34.6345 53.2442 31.7628 56.9407L31.7648 56.9408Z" fill="#545454"/>
<path d="M174.072 86.0235C171.22 83.4564 169.153 80.5273 167.87 77.2352C166.585 73.9432 166.023 70.5668 166.184 67.1035C166.346 63.6427 167.078 60.3224 168.382 57.1385C169.686 53.956 171.451 51.1959 173.678 48.8632C177.098 45.3836 181.298 42.8652 186.274 41.2994C191.251 39.7374 196.319 39.5808 201.483 40.833C202.509 41.0607 203.541 41.3155 204.588 41.6039C205.629 41.8905 206.666 42.2462 207.695 42.6628C208.13 41.333 208.654 39.5127 209.268 37.2017C209.879 34.8896 210.348 32.4307 210.677 29.8222C211.003 27.2151 210.98 24.7536 210.604 22.4369C210.228 20.1227 209.284 18.2601 207.776 16.8591C205.661 14.9316 203.126 14.107 200.166 14.3856C197.208 14.6654 193.994 15.7897 190.526 17.7596C187.057 19.727 183.517 22.3474 179.91 25.6178C176.303 28.8895 172.792 32.5529 169.381 36.609C165.971 40.6688 162.811 44.8941 159.9 49.2889C156.989 53.6861 154.524 58.0402 152.502 62.3538L143.251 54.336C146.41 47.5983 150.201 41.1218 154.624 34.9063C159.044 28.6923 163.76 23.1595 168.77 18.3078C171.03 16.0985 173.591 13.9098 176.446 11.7409C179.301 9.57325 182.31 7.67921 185.473 6.05874C188.636 4.44333 191.859 3.34828 195.142 2.7811C198.425 2.21522 201.674 2.42531 204.887 3.41024C208.102 4.39762 211.173 6.3942 214.098 9.40148C216.821 12.2374 218.68 15.4128 219.673 18.9252C220.665 22.4389 221.106 26.0207 220.999 29.6705C220.889 33.3218 220.487 36.7401 219.795 39.929C219.098 43.1182 218.413 45.8393 217.734 48.0926C219.004 49.0051 220.257 49.9479 221.495 50.9272C222.735 51.9076 223.956 52.9199 225.163 53.966L220.702 63.1785C219.593 62.1231 218.497 61.1955 217.411 60.3973C216.322 59.5955 215.279 58.8596 214.278 58.1798C212.641 62.0701 210.773 65.7567 208.669 69.2401C208.126 70.1929 207.298 71.6073 206.183 73.4846C205.068 75.3594 203.717 77.3878 202.13 79.5675C200.543 81.746 198.746 83.7663 196.742 85.6321C194.735 87.4969 192.532 88.9268 190.132 89.9243C187.73 90.9233 185.181 91.1783 182.489 90.6929C179.795 90.2064 176.99 88.6506 174.07 86.0261L174.072 86.0235ZM178.991 62.5648C178.256 63.7299 177.627 65.1756 177.1 66.8986C176.573 68.624 176.369 70.3654 176.488 72.1252C176.603 73.884 177.252 75.4173 178.431 76.7229C179.978 78.4459 181.648 79.1115 183.437 78.7176C185.223 78.3239 187.055 77.2321 188.93 75.4461C190.805 73.6577 192.609 71.6204 194.342 69.3317C196.52 66.2935 198.46 63.2113 200.161 60.0878C201.86 56.9644 203.043 54.6963 203.707 53.2798C198.342 51.8525 193.52 52.0335 189.24 53.8217C184.96 55.6088 181.544 58.5231 178.989 62.565L178.991 62.5648Z" fill="#545454"/>
</svg>
