<svg width="53" height="55" viewBox="0 0 53 55" fill="none" xmlns="http://www.w3.org/2000/svg">
<path d="M14.6072 -29.1354C18.2013 -26.9457 20.6341 -24.3255 21.9044 -21.2735C23.1774 -18.2219 23.4192 -15.0143 22.6302 -11.6485C21.8407 -8.28491 20.2718 -4.99858 17.9202 -1.78547C15.5697 1.42631 12.6381 4.27702 9.12695 6.76171C3.74971 10.4784 -2.56782 13.3456 -9.82229 15.3711C-17.0762 17.3931 -24.2323 18.0655 -31.2927 17.3851C-32.6992 17.2703 -34.1093 17.1299 -35.5355 16.9586C-36.953 16.7884 -38.3549 16.5511 -39.7351 16.2539C-40.5626 17.5846 -41.5947 19.3988 -42.8343 21.697C-44.0695 23.9957 -45.1289 26.422 -46.0147 28.9785C-46.8967 31.5332 -47.2645 33.9114 -47.1109 36.1132C-46.958 38.3126 -45.9334 40.0169 -44.0395 41.2169C-41.3766 42.8636 -37.9438 43.4006 -33.7356 42.827C-29.5291 42.2524 -24.8243 40.8348 -19.6257 38.5734C-14.4265 36.3143 -9.02056 33.4163 -3.41556 29.8828C2.19052 26.348 7.724 22.4444 13.1805 18.1713C18.6375 13.8946 23.769 9.48356 28.5782 4.9342C33.3868 0.382547 37.5616 -4.08154 41.1075 -8.46108L52.8186 -1.65772C47.2801 5.18299 40.8963 11.8359 33.6647 18.3014C26.4369 24.7652 18.9052 30.6006 11.0694 35.8074C7.53064 38.1764 3.57299 40.5562 -0.796451 42.9472C-5.16482 45.3369 -9.70544 47.4778 -14.4183 49.37C-19.1296 51.2573 -23.8413 52.6475 -28.5523 53.5334C-33.2622 54.418 -37.7984 54.5487 -42.1593 53.9264C-46.5208 53.3018 -50.5169 51.6865 -54.1437 49.0788C-57.5143 46.6161 -59.613 43.7361 -60.4393 40.4413C-61.2645 37.1452 -61.3038 33.7266 -60.5601 30.1858C-59.8125 26.6433 -58.6917 23.2962 -57.2 20.1411C-55.7027 16.9852 -54.2963 14.2833 -52.9753 12.0344C-54.6132 11.2824 -56.2237 10.4994 -57.8066 9.67958C-59.3913 8.85878 -60.9446 8.00531 -62.4726 7.11762L-54.7013 -2.25012C-53.3123 -1.34347 -51.9215 -0.558985 -50.5223 0.101271C-49.1209 0.764775 -47.7737 1.36939 -46.4757 1.9239C-43.5409 -2.00664 -40.3144 -5.76388 -36.7882 -9.34895C-35.8709 -10.3261 -34.4762 -11.7791 -32.6029 -13.7091C-30.7292 -15.6369 -28.4995 -17.7374 -25.9135 -20.0084C-23.3259 -22.2785 -20.4712 -24.4168 -17.3489 -26.4272C-14.2223 -28.4369 -10.891 -30.0461 -7.35296 -31.2574C-3.81111 -32.4705 -0.184537 -32.979 3.52451 -32.7862C7.2352 -32.5925 10.9283 -31.3762 14.6093 -29.138L14.6072 -29.1354ZM3.87766 -5.94303C5.10105 -7.14538 6.21979 -8.60805 7.24154 -10.3285C8.26273 -12.0513 8.83286 -13.7564 8.95136 -15.4461C9.07423 -17.1352 8.41086 -18.5514 6.96454 -19.6929C5.06705 -21.2001 2.82654 -21.6723 0.246295 -21.1076C-2.33122 -20.5432 -5.08547 -19.2991 -8.0132 -17.3791C-10.9404 -15.4569 -13.8091 -13.3013 -16.6188 -10.9098C-20.1761 -7.74777 -23.406 -4.56762 -26.3063 -1.37204C-29.2038 1.82317 -31.2359 4.13822 -32.4003 5.57633C-25.0841 6.40533 -18.2716 5.73479 -11.9612 3.56567C-5.64921 1.39751 -0.370485 -1.77193 3.88039 -5.94339L3.87766 -5.94303Z" fill="#F6F5EA"/>
</svg>
