<svg width="227" height="109" viewBox="0 0 227 109" fill="none" xmlns="http://www.w3.org/2000/svg">
<path d="M179.619 80.7623C167.241 84.1019 155.626 84.3219 144.773 81.4179C133.916 78.5201 124.38 73.258 116.159 65.6286C107.945 58.0022 101.285 48.9387 96.1729 38.4243C91.0625 27.9146 87.9734 16.8774 86.9172 5.325C85.5514 -12.2084 88.2106 -30.1196 94.8666 -48.4158C101.532 -66.7046 111.868 -82.3758 125.887 -95.4283C128.621 -98.0655 131.433 -100.664 134.362 -103.24C137.272 -105.801 140.346 -108.209 143.553 -110.466C141.185 -114.525 137.793 -119.864 133.379 -126.49C128.956 -133.108 123.87 -139.6 118.116 -145.974C112.36 -152.337 106.227 -157.344 99.703 -160.981C93.1864 -164.615 86.5862 -165.6 79.9324 -163.923C70.692 -161.492 63.2897 -155.516 57.7184 -145.981C52.1526 -136.447 48.1317 -124.395 45.6648 -109.832C43.1905 -95.2715 42.1791 -79.1479 42.6342 -61.4825C43.0912 -43.8126 44.7213 -25.6281 47.5336 -6.9369C50.3555 11.7618 54.1165 30.0434 58.8226 47.9214C63.5361 65.8024 69.0854 82.2451 75.4707 97.265L36.0798 108.741C26.1061 85.2804 18.113 60.4481 12.1041 34.2379C6.0935 8.03833 2.39033 -17.6489 0.994588 -42.824C0.314757 -54.2246 0.320791 -66.4916 0.999901 -79.6111C1.68096 -92.7259 3.36417 -105.743 6.04956 -118.662C8.74632 -131.57 12.8571 -143.587 18.4008 -154.698C23.9464 -165.805 31.3387 -175.209 40.5722 -182.909C49.8131 -190.606 61.246 -195.787 74.8692 -198.444C87.6414 -200.842 99.4232 -199.921 110.207 -195.684C120.992 -191.442 130.781 -185.393 139.577 -177.541C148.372 -169.679 155.972 -161.412 162.391 -152.74C168.803 -144.055 174.079 -136.368 178.214 -129.666C183.155 -131.628 188.138 -133.48 193.179 -135.21C198.225 -136.942 203.311 -138.551 208.45 -140.049L221.789 -107.544C216.833 -106.362 212.222 -104.957 207.949 -103.312C203.664 -101.669 199.639 -100.03 195.841 -98.4C201.995 -85.4203 207.157 -72.1619 211.317 -58.6063C212.526 -54.9999 214.27 -49.5755 216.553 -42.3286C218.828 -35.0845 220.985 -26.8115 223.017 -17.5123C225.044 -8.21155 226.239 1.393 226.612 11.3088C226.975 21.2325 225.85 30.8516 223.239 40.1753C220.626 49.5098 215.866 57.7525 208.969 64.9046C202.067 72.0584 192.288 77.3432 179.623 80.7714L179.619 80.7623ZM132.03 17.4919C133.356 22.1206 135.6 27.0044 138.744 32.1545C141.895 37.3075 145.768 41.517 150.37 44.786C154.963 48.0627 160.126 49.2609 165.848 48.3837C173.381 47.2502 178.559 43.5677 181.369 37.3394C184.176 31.1172 185.352 23.319 184.903 13.9585C184.447 4.59512 183.227 -5.06876 181.235 -15.036C178.331 -27.8962 174.816 -40.1269 170.693 -51.719C166.566 -63.305 163.46 -71.5633 161.363 -76.4954C146.484 -63.1923 136.731 -48.219 132.099 -31.5738C127.461 -14.927 127.44 1.42611 132.027 17.498L132.03 17.4919Z" fill="#F6F5EA"/>
</svg>
