<svg width="114" height="43" viewBox="0 0 114 43" fill="none" xmlns="http://www.w3.org/2000/svg">
<path d="M41.7288 40.5015C37.8945 38.7663 35.1606 36.4622 33.5277 33.5877C31.8922 30.714 31.2612 27.5598 31.634 24.1229C32.0077 20.6882 33.1643 17.2352 35.1067 13.7594C37.0482 10.285 39.6104 7.09822 42.7926 4.20407C47.6767 -0.140304 53.5976 -3.75618 60.5511 -6.65093C67.5045 -9.54203 74.5252 -11.0817 81.6159 -11.267C83.0259 -11.3244 84.4426 -11.357 85.8791 -11.3608C87.3068 -11.3647 88.7271 -11.3 90.1333 -11.1733C90.7924 -12.5949 91.5956 -14.5214 92.5458 -16.9535C93.4916 -19.3857 94.2474 -21.923 94.8149 -24.5684C95.379 -27.2116 95.4541 -29.6169 95.0333 -31.7835C94.6134 -33.9479 93.3887 -35.5146 91.3627 -36.4748C88.519 -37.7847 85.0463 -37.8992 80.9394 -36.8169C76.8343 -35.7339 72.3374 -33.7533 67.4532 -30.8751C62.5681 -27.9991 57.5558 -24.4638 52.4233 -20.2734C47.2898 -16.0817 42.2734 -11.5326 37.3785 -6.62632C32.4835 -1.71636 27.9279 3.28728 23.7091 8.38892C19.4912 13.4928 15.8917 18.4325 12.9061 23.2116L0.452975 17.8864C5.11639 10.4216 10.6416 3.04017 17.0311 -4.2586C23.4171 -11.5552 30.1815 -18.2651 37.3241 -24.3883C40.5477 -27.1709 44.1858 -30.0154 48.2312 -32.9212C52.2757 -35.8255 56.5215 -38.504 60.9686 -40.9565C65.4148 -43.404 69.9218 -45.3581 74.4897 -46.8117C79.0566 -48.2638 83.5431 -48.9464 87.9474 -48.8604C92.3524 -48.7721 96.5156 -47.6559 100.433 -45.5097C104.079 -43.4762 106.513 -40.8736 107.735 -37.704C108.956 -34.5331 109.411 -31.1447 109.105 -27.5397C108.795 -23.9325 108.09 -20.4737 106.994 -17.1603C105.893 -13.8455 104.826 -10.9922 103.789 -8.5991C105.506 -8.05236 107.2 -7.47154 108.871 -6.85077C110.544 -6.22924 112.19 -5.57148 113.815 -4.87667L107.243 5.3685C105.754 4.63792 104.278 4.02881 102.809 3.54403C101.337 3.05629 99.9262 2.6204 98.5703 2.22823C96.1365 6.48721 93.3921 10.6097 90.3292 14.5979C89.5378 15.6796 88.3305 17.2917 86.7065 19.4357C85.0817 21.5775 83.1248 23.9341 80.8349 26.5034C78.5432 29.0719 75.9704 31.5423 73.1165 33.9183C70.2581 36.2941 67.1479 38.2974 63.7839 39.9309C60.4163 41.5666 56.8787 42.5134 53.1738 42.7742C49.4672 43.0343 45.6534 42.2772 41.727 40.5044L41.7288 40.5015ZM49.5513 16.1742C48.4836 17.5167 47.5515 19.1049 46.7471 20.9371C45.9435 22.7715 45.5855 24.5333 45.6738 26.2249C45.7578 27.9163 46.5888 29.2412 48.1635 30.1978C50.2305 31.4625 52.5119 31.6581 55.0041 30.783C57.4936 29.9087 60.0756 28.3381 62.7475 26.0757C65.4185 23.811 68.0031 21.3217 70.5003 18.6056C73.6457 15.0335 76.4639 11.4834 78.953 7.95811C81.4395 4.43353 83.1742 1.88806 84.1546 0.318739C76.7919 0.387714 70.112 1.88365 64.1131 4.80578C58.1124 7.72717 53.2594 11.5164 49.5487 16.1749L49.5513 16.1742Z" fill="#F6F5EA"/>
</svg>
