<svg width="28" height="28" viewBox="0 0 28 28" fill="none" xmlns="http://www.w3.org/2000/svg">
<path d="M21.0833 15.4167H6.91667L3.66825 18.6651C2.77575 19.5576 3.40758 21.0833 4.66983 21.0833H6.91667H21.0833C21.8348 21.0833 22.5554 21.3818 23.0868 21.9132C23.6182 22.4445 23.9167 23.1652 23.9167 23.9167C23.9167 24.6681 23.6182 25.3888 23.0868 25.9201C22.5554 26.4515 21.8348 26.75 21.0833 26.75C20.3319 26.75 19.6112 26.4515 19.0799 25.9201C18.5485 25.3888 18.25 24.6681 18.25 23.9167C18.25 23.1652 18.5485 22.4445 19.0799 21.9132C19.6112 21.3818 20.3319 21.0833 21.0833 21.0833H6.91667C7.66811 21.0833 8.38878 21.3818 8.92014 21.9132C9.45149 22.4445 9.75 23.1652 9.75 23.9167C9.75 24.6681 9.45149 25.3888 8.92014 25.9201C8.38878 26.4515 7.66811 26.75 6.91667 26.75C6.16522 26.75 5.44455 26.4515 4.9132 25.9201C4.38184 25.3888 4.08333 24.6681 4.08333 23.9167C4.08333 23.1652 4.38184 22.4445 4.9132 21.9132C5.44455 21.3818 6.16522 21.0833 6.91667 21.0833H4.66983C3.40758 21.0833 2.77575 19.5576 3.66825 18.6651L6.91667 15.4167L4.65 4.08333H26.75L21.0833 15.4167Z" fill="#3A3A3A"/>
<path d="M1.25 1.25H4.08333L4.65 4.08333M4.65 4.08333H26.75L21.0833 15.4167H6.91667M4.65 4.08333L6.91667 15.4167M6.91667 15.4167L3.66825 18.6651C2.77575 19.5576 3.40758 21.0833 4.66983 21.0833H21.0833M21.0833 21.0833C20.3319 21.0833 19.6112 21.3818 19.0799 21.9132C18.5485 22.4446 18.25 23.1652 18.25 23.9167C18.25 24.6681 18.5485 25.3888 19.0799 25.9201C19.6112 26.4515 20.3319 26.75 21.0833 26.75C21.8348 26.75 22.5554 26.4515 23.0868 25.9201C23.6182 25.3888 23.9167 24.6681 23.9167 23.9167C23.9167 23.1652 23.6182 22.4446 23.0868 21.9132C22.5554 21.3818 21.8348 21.0833 21.0833 21.0833ZM9.75 23.9167C9.75 24.6681 9.45149 25.3888 8.92014 25.9201C8.38878 26.4515 7.66811 26.75 6.91667 26.75C6.16522 26.75 5.44455 26.4515 4.9132 25.9201C4.38184 25.3888 4.08333 24.6681 4.08333 23.9167C4.08333 23.1652 4.38184 22.4446 4.9132 21.9132C5.44455 21.3818 6.16522 21.0833 6.91667 21.0833C7.66811 21.0833 8.38878 21.3818 8.92014 21.9132C9.45149 22.4446 9.75 23.1652 9.75 23.9167Z" stroke="#3A3A3A" stroke-width="1.5" stroke-linecap="round" stroke-linejoin="round"/>
</svg>
