<svg width="28" height="24" viewBox="0 0 28 24" fill="none" xmlns="http://www.w3.org/2000/svg">
<path d="M1.73521 5.0188C2.05559 4.24535 2.52518 3.54257 3.11716 2.9506C3.70913 2.35861 4.41191 1.88903 5.18537 1.56865C5.95882 1.24827 6.78781 1.08337 7.62499 1.08337C8.46218 1.08337 9.29116 1.24827 10.0646 1.56865C10.8381 1.88903 11.5409 2.35861 12.1328 2.9506L14 4.81776L15.8672 2.9506C17.0627 1.75504 18.6842 1.08339 20.375 1.08339C22.0658 1.08339 23.6873 1.75504 24.8828 2.9506C26.0784 4.14615 26.75 5.76766 26.75 7.45843C26.75 9.14919 26.0784 10.7707 24.8828 11.9663L14 22.8491L3.11716 11.9663C2.52518 11.3743 2.05559 10.6715 1.73521 9.89805C1.41484 9.1246 1.24994 8.29561 1.24994 7.45843C1.24994 6.62125 1.41484 5.79226 1.73521 5.0188Z" fill="#3A3A3A" stroke="#3A3A3A" stroke-width="1.5" stroke-linecap="round" stroke-linejoin="round"/>
</svg>
