<svg width="119" height="186" viewBox="0 0 119 186" fill="none" xmlns="http://www.w3.org/2000/svg">
<path d="M115.837 73.282C113.562 77.4081 110.575 80.415 106.874 82.3018C103.174 84.1914 99.1308 85.0445 94.7402 84.8623C90.3525 84.679 85.9527 83.6758 81.5353 81.85C77.1198 80.025 73.0812 77.5316 69.4259 74.3704C63.9406 69.5125 59.4023 63.5231 55.8015 56.4072C52.2053 49.2911 50.3387 42.0224 50.2055 34.598C50.1527 33.1229 50.1318 31.6393 50.1479 30.1332C50.1638 28.6363 50.2674 27.1429 50.45 25.6607C48.6413 25.0559 46.1889 24.3305 43.092 23.4817C39.9949 22.6376 36.7606 21.9992 33.3853 21.5646C30.0127 21.1337 26.9373 21.2009 24.1598 21.7737C21.3852 22.3455 19.3634 23.7248 18.1056 25.9077C16.3886 28.9693 16.1913 32.6178 17.5155 36.8588C18.8406 41.0978 21.3081 45.6932 24.9181 50.6402C28.5252 55.5883 32.9738 60.6298 38.2584 65.7575C43.5449 70.8861 49.29 75.8703 55.4939 80.7055C61.7024 85.5405 68.0357 90.0138 74.4994 94.128C80.9658 98.2412 87.2313 101.716 93.3004 104.557L86.307 117.939C76.8272 113.502 67.4667 108.156 58.2246 101.899C48.9852 95.6452 40.5017 88.9592 32.7743 81.8409C29.2623 78.6295 25.6772 74.9872 22.0197 70.9214C18.3641 66.8566 15.0003 62.5669 11.9284 58.0524C8.86298 53.5386 6.42943 48.9309 4.63708 44.2291C2.84657 39.5282 2.03909 34.8649 2.21364 30.2412C2.39102 25.6165 3.87959 21.1831 6.68204 16.9445C9.33643 12.998 12.701 10.2875 16.7729 8.81394C20.8467 7.34123 25.1873 6.65756 29.7939 6.76018C34.4031 6.86642 38.8169 7.39509 43.0389 8.3433C47.2627 9.297 50.8966 10.2422 53.9424 11.1843C54.6669 9.35024 55.4346 7.53874 56.253 5.74866C57.0725 3.95669 57.9379 2.19092 58.8504 0.444841L71.8585 6.71399C70.9022 8.31988 70.1015 9.90473 69.46 11.4749C68.8146 13.0479 68.2364 14.5538 67.715 15.9995C73.1269 18.2932 78.3597 20.9207 83.416 23.8905C84.788 24.6547 86.8323 25.8227 89.5509 27.3955C92.2666 28.9694 95.2522 30.8784 98.505 33.1237C101.757 35.3709 104.879 37.9188 107.876 40.7673C110.873 43.6204 113.39 46.7603 115.43 50.1888C117.473 53.6209 118.632 57.273 118.912 61.1422C119.19 65.0134 118.166 69.0587 115.841 73.2837L115.837 73.282ZM84.8355 66.5561C86.537 67.5942 88.5547 68.4752 90.8864 69.2075C93.221 69.9388 95.4693 70.2073 97.6342 70.0119C99.7989 69.8212 101.506 68.8693 102.752 67.1599C104.4 64.9156 104.684 62.5113 103.601 59.9511C102.519 57.3936 100.548 54.7813 97.6932 52.1168C94.8356 49.4534 91.6895 46.8942 88.252 44.4405C83.729 41.359 79.2294 38.6193 74.7568 36.2231C70.285 33.8297 67.0545 32.1651 65.0616 31.2324C65.0421 38.949 66.8577 45.863 70.5076 51.9763C74.1564 58.0915 78.9321 62.9505 84.8363 66.5588L84.8355 66.5561Z" fill="#F6F5EA"/>
<path d="M113.898 141.261C111.622 145.387 108.635 148.394 104.935 150.281C101.235 152.171 97.1913 153.024 92.8008 152.842C88.413 152.658 84.0132 151.655 79.5959 149.829C75.1804 148.004 71.1417 145.511 67.4865 142.35C62.0012 137.492 57.4629 131.502 53.862 124.386C50.2659 117.27 48.3993 110.002 48.2661 102.577C48.2132 101.102 48.1923 99.6186 48.2085 98.1124C48.2243 96.6155 48.3279 95.1221 48.5105 93.6399C46.7018 93.0351 44.2495 92.3097 41.1525 91.461C38.0555 90.6169 34.8211 89.9784 31.4458 89.5439C28.0732 89.1129 24.9978 89.1801 22.2204 89.7529C19.4458 90.3247 17.4239 91.7041 16.1661 93.887C14.4491 96.9486 14.2518 100.597 15.576 104.838C16.9012 109.077 19.3687 113.672 22.9786 118.619C26.5858 123.568 31.0343 128.609 36.319 133.737C41.6054 138.865 47.3505 143.85 53.5544 148.685C59.763 153.52 66.0963 157.993 72.5599 162.107C79.0264 166.22 85.2919 169.695 91.361 172.536L84.3675 185.918C74.8878 181.481 65.5273 176.135 56.2851 169.878C47.0457 163.624 38.5623 156.938 30.8348 149.82C27.3229 146.609 23.7378 142.966 20.0803 138.901C16.4246 134.836 13.0608 130.546 9.98893 126.032C6.92353 121.518 4.48998 116.91 2.69763 112.208C0.907117 107.507 0.0996333 102.844 0.274186 98.2205C0.45157 93.5958 1.94014 89.1623 4.74259 84.9238C7.39698 80.9773 10.7615 78.2668 14.8335 76.7932C18.9072 75.3205 23.2478 74.6368 27.8544 74.7394C32.4637 74.8457 36.8774 75.3743 41.0995 76.3225C45.3232 77.2762 48.9571 78.2214 52.003 79.1636C52.7274 77.3295 53.4951 75.518 54.3136 73.7279C55.133 71.9359 55.9984 70.1702 56.9109 68.4241L69.919 74.6932C68.9628 76.2991 68.1621 77.884 67.5205 79.4541C66.8751 81.0272 66.2969 82.5331 65.7755 83.9787C71.1874 86.2724 76.4202 88.9 81.4765 91.8697C82.8485 92.6339 84.8929 93.802 87.6114 95.3748C90.3271 96.9486 93.3128 98.8577 96.5656 101.103C99.8174 103.35 102.94 105.898 105.937 108.747C108.934 111.6 111.451 114.74 113.491 118.168C115.534 121.6 116.693 125.252 116.972 129.121C117.251 132.993 116.226 137.038 113.902 141.263L113.898 141.261ZM82.896 134.535C84.5976 135.573 86.6153 136.454 88.947 137.187C91.2816 137.918 93.5299 138.187 95.6947 137.991C97.8595 137.8 99.5662 136.849 100.813 135.139C102.461 132.895 102.744 130.491 101.662 127.93C100.58 125.373 98.6085 122.761 95.7538 120.096C92.8962 117.433 89.75 114.873 86.3125 112.42C81.7896 109.338 77.29 106.599 72.8173 104.202C68.3455 101.809 65.1151 100.144 63.1222 99.2116C63.1026 106.928 64.9183 113.842 68.5681 119.956C72.2169 126.071 76.9926 130.93 82.8969 134.538L82.896 134.535Z" fill="#F6F5EA"/>
</svg>
