<svg width="102" height="101" viewBox="0 0 102 101" fill="none" xmlns="http://www.w3.org/2000/svg">
<path d="M0.274511 47.4687C0.616176 43.274 1.8642 39.9234 4.02025 37.4175C6.17474 34.9092 8.93184 33.2523 12.2933 32.4451C15.6531 31.6394 19.2939 31.5648 23.221 32.2223C27.1463 32.8794 31.0102 34.2179 34.8074 36.2386C40.5435 39.3731 45.9432 43.7292 51.0118 49.3005C56.077 54.8729 59.8925 60.9642 62.4564 67.5777C62.9856 68.8859 63.4937 70.2087 63.9813 71.5599C64.4661 72.9028 64.8838 74.2619 65.2384 75.6284C66.799 75.7699 68.8835 75.877 71.4935 75.9521C74.1021 76.0229 76.7457 75.8794 79.4276 75.5224C82.1063 75.1627 84.3962 74.4229 86.2944 73.2966C88.1907 72.1719 89.2531 70.4909 89.4744 68.2598C89.7493 65.1409 88.6869 61.8328 86.284 58.3309C83.8809 54.8308 80.5008 51.2643 76.145 47.6357C71.7911 44.0055 66.7734 40.4777 61.0986 37.0575C55.4221 33.6369 49.4487 30.4468 43.1799 27.4915C36.9075 24.5374 30.6614 21.9344 24.4365 19.6816C18.2098 17.4303 12.3461 15.7059 6.84039 14.5054L7.65756 0.986164C16.2572 2.86129 25.0688 5.57587 34.0939 9.13216C43.1157 12.6858 51.7126 16.7934 59.8846 21.4549C63.5908 23.5522 67.4949 26.0189 71.5939 28.8485C75.6913 31.6778 79.6439 34.7726 83.4516 38.1332C87.2542 41.4945 90.6128 45.0794 93.5207 48.8903C96.4268 52.7008 98.5814 56.6948 99.9845 60.8704C101.386 65.0476 101.738 69.3434 101.037 73.7552C100.351 77.8729 98.7212 81.0417 96.1488 83.26C93.5747 85.478 90.5381 87.0489 87.0406 87.975C83.5399 88.8986 80.046 89.4009 76.557 89.4855C73.065 89.5656 70.0192 89.5229 67.4165 89.353C67.4805 91.1541 67.5045 92.9446 67.4831 94.7272C67.4617 96.5116 67.397 98.2828 67.2904 100.047L55.4299 97.312C55.616 95.6638 55.692 94.0688 55.6534 92.5222C55.6166 90.9721 55.5516 89.4969 55.4639 88.0881C50.6338 87.2318 45.8276 86.0371 41.0406 84.4973C39.7555 84.1168 37.8308 83.5234 35.265 82.7169C32.7009 81.9088 29.8227 80.8605 26.632 79.5703C23.4414 78.2783 20.2485 76.6885 17.0498 74.8021C13.8497 72.9116 10.9155 70.6583 8.24389 68.0415C5.56905 65.4221 3.48556 62.4105 1.99152 59.0102C0.497608 55.608 -0.0748035 51.7621 0.271179 47.468L0.274511 47.4687ZM25.815 46.6358C24.1912 46.0829 22.3818 45.7405 20.3857 45.6006C18.3878 45.4622 16.6083 45.7188 15.0455 46.372C13.4813 47.021 12.514 48.2499 12.1439 50.0548C11.6498 52.4272 12.2344 54.641 13.8981 56.6925C15.5602 58.7418 17.909 60.6436 20.9396 62.3968C23.9719 64.1484 27.1865 65.7429 30.5853 67.1788C35.0084 68.9365 39.3005 70.3935 43.4584 71.5491C47.6147 72.7024 50.5959 73.4779 52.4038 73.8721C49.8578 66.9633 46.1983 61.1782 41.4255 56.5149C36.6529 51.8496 31.4499 48.5573 25.8134 46.6335L25.815 46.6358Z" fill="#F6F5EA"/>
</svg>
