<svg width="124" height="237" viewBox="0 0 124 237" fill="none" xmlns="http://www.w3.org/2000/svg">
<path d="M-9.79273 -56.9797C2.07357 -58.3067 12.0629 -56.6643 20.1752 -52.0476C28.293 -47.4366 34.3548 -40.694 38.3659 -31.8158C42.3717 -22.9417 44.4882 -12.8922 44.7149 -1.6528C44.9417 9.58178 43.2378 21.0152 39.5982 32.6338C33.8719 50.2295 24.5655 67.5548 11.7 84.6216C-1.17068 101.679 -16.1419 115.555 -33.2244 126.246C-36.5917 128.421 -40.011 130.546 -43.52 132.63C-47.0073 134.702 -50.5751 136.596 -54.1967 138.319C-53.7728 142.721 -52.9786 148.556 -51.8194 155.83C-50.6494 163.097 -48.8639 170.346 -46.4632 177.585C-44.0568 184.813 -40.7954 190.758 -36.6624 195.408C-32.5346 200.053 -27.2941 202.086 -20.9619 201.49C-12.1283 200.561 -3.46821 195.824 5.02928 187.266C13.5214 178.71 21.6863 167.409 29.513 153.371C37.3449 139.337 44.5438 123.519 51.0985 105.939C57.6532 88.3531 63.41 70.0698 68.3579 51.0949C73.3007 32.111 77.2787 13.3901 80.2925 -5.08216C83.301 -23.5586 85.0317 -40.7435 85.4904 -56.6521L123.586 -61.7159C122.869 -36.8671 119.925 -10.9761 114.747 15.9629C109.575 42.8914 102.638 68.9426 93.9336 94.1165C90.0327 105.524 85.2066 117.681 79.4716 130.574C73.7367 143.463 67.1857 156.095 59.8187 168.469C52.4468 180.829 44.2192 192.08 35.1258 202.204C26.0325 212.324 16.0339 220.46 5.13535 226.611C-5.76842 232.759 -17.5527 236.064 -30.2118 236.514C-42.0441 236.845 -51.7273 234.045 -59.2564 228.118C-66.7853 222.187 -72.754 214.623 -77.1678 205.433C-81.5759 196.232 -84.807 186.821 -86.8716 177.198C-88.9252 167.564 -90.4029 159.1 -91.2938 151.795C-96.2786 152.949 -101.255 153.986 -106.232 154.893C-111.215 155.801 -116.184 156.582 -121.155 157.242L-119.752 122.891C-115.063 122.513 -110.579 121.86 -106.29 120.914C-101.99 119.972 -97.9143 118.992 -94.0352 117.985C-94.1813 104.136 -93.3722 90.1685 -91.5914 76.0675C-91.2047 72.2997 -90.5603 66.6443 -89.6583 59.0964C-88.751 51.5526 -87.3389 43.0078 -85.4168 33.4662C-83.4894 23.9238 -80.7336 14.2135 -77.1547 4.32643C-73.5648 -5.56691 -68.8249 -14.9199 -62.9345 -23.7422C-57.0385 -32.5749 -49.7399 -39.9814 -41.0493 -45.965C-32.3533 -51.9494 -21.938 -55.6204 -9.79245 -56.9893L-9.79273 -56.9797ZM5.91606 13.3491C6.60522 8.54937 6.61079 3.34954 5.95436 -2.25816C5.2927 -7.86998 3.64492 -12.6623 1.00578 -16.6393C-1.62248 -20.6225 -5.5534 -22.637 -10.7763 -22.6841C-17.645 -22.7676 -23.5067 -19.9473 -28.3505 -14.2247C-33.1888 -8.50759 -37.2562 -0.967378 -40.5523 8.38145C-43.8432 17.7344 -46.6007 27.5075 -48.8198 37.7048C-51.3984 50.9154 -53.2079 63.6 -54.248 75.7492C-55.2826 87.8928 -55.8805 96.5749 -56.0311 101.799C-38.1167 90.9979 -23.9166 77.7205 -13.4257 61.9659C-2.9293 46.2105 3.5161 30.0068 5.92157 13.3435L5.91606 13.3491Z" fill="#D88164"/>
</svg>
