<svg width="1100" height="169" viewBox="0 0 1100 169" fill="none" xmlns="http://www.w3.org/2000/svg">
<g clip-path="url(#clip0_440_10527)">
<rect y="-739" width="1184" height="907.272" rx="453.636" fill="#D88164"/>
<path d="M211.958 115.243C210.78 115.292 209.601 115.434 208.423 115.527C208.188 113.595 207.763 111.283 207.244 108.691C206.677 106.099 205.831 103.503 204.746 100.912C203.616 98.3642 202.15 96.149 200.311 94.355C198.521 92.5164 196.209 91.4311 193.378 91.1031C190.406 90.771 187.623 91.2448 185.08 92.4719C182.533 93.7435 180.225 95.5375 178.147 97.8459C176.074 100.203 174.186 102.892 172.534 105.864C170.882 108.881 169.42 111.947 168.148 115.154C166.877 118.362 165.791 121.379 164.941 124.254C163.054 130.572 161.592 137.177 160.555 144.061C159.518 150.994 159 157.689 159 164.196H168.007C168.007 160.046 168.29 155.567 168.857 150.804C169.469 146.042 170.27 141.279 171.311 136.468C172.348 131.612 173.575 127.036 175.037 122.606C176.45 118.22 178.054 114.308 179.799 110.91C181.589 107.468 183.432 104.779 185.364 102.847C187.344 100.867 189.373 99.9234 191.446 100.017C192.957 100.065 194.18 100.77 195.221 102.139C196.213 103.507 197.011 105.204 197.626 107.185C198.286 109.165 198.756 111.145 199.088 113.081C199.372 115.061 199.607 116.616 199.748 117.795C198.898 118.127 198.051 118.504 197.25 118.925C196.448 119.35 195.646 119.775 194.844 120.245C190.883 122.46 187.441 125.574 184.517 129.628C181.593 133.637 179.471 137.881 178.244 142.312C177.491 145.236 177.159 148.208 177.252 151.177C177.394 154.101 177.961 156.834 178.998 159.333C179.99 161.787 181.496 163.767 183.432 165.274C185.368 166.78 187.769 167.538 190.551 167.631C193.427 167.679 195.881 167.064 197.91 165.792C199.89 164.52 201.587 162.82 202.907 160.746C204.276 158.624 205.313 156.312 206.114 153.813C206.868 151.359 207.483 148.909 207.86 146.455C208.237 144.001 208.52 141.834 208.71 139.854C208.852 137.922 208.945 136.46 209.042 135.468C209.374 131.835 209.468 128.158 209.326 124.525C210.221 124.384 211.213 124.291 212.201 124.193C213.238 124.1 214.275 124.052 215.409 124.145L215.502 115.138C214.323 115.138 213.145 115.187 211.966 115.231L211.958 115.243ZM200.169 134.249C200.028 137.408 199.7 140.664 199.181 144.057C198.712 146.698 198.096 149.152 197.391 151.509C196.683 153.821 195.788 155.704 194.658 157.024C193.572 158.345 192.204 158.912 190.555 158.628C189.328 158.438 188.385 157.778 187.725 156.648C187.065 155.469 186.639 154.149 186.453 152.687C186.263 151.177 186.218 149.812 186.36 148.585C186.83 144.248 188.247 140.238 190.604 136.464C193.01 132.69 196.261 129.673 200.412 127.457C200.412 128.826 200.364 131.09 200.178 134.249H200.169Z" fill="#E99C82"/>
<path d="M261.474 124.108C263.503 120.857 264.54 117.082 264.54 112.79C264.54 106.282 262.843 101.284 259.542 97.7934C256.242 94.3026 251.245 92.5571 244.595 92.5571H220.969V164.189H235.212V133.629H239.128C241.72 133.629 243.749 134.289 245.117 135.61C246.531 136.93 247.239 139.194 247.239 142.401V164.189H261.482V141.506C261.482 138.534 260.729 136.084 259.218 134.245C257.663 132.406 255.444 131.414 252.524 131.272V130.754C256.485 129.527 259.502 127.312 261.482 124.104L261.474 124.108ZM248.507 119.488C246.996 120.95 245.113 121.703 242.849 121.703H235.212V104.399H242.849C245.113 104.399 247 105.059 248.507 106.33C250.017 107.65 250.771 109.821 250.771 112.79C250.771 115.758 250.017 118.026 248.507 119.484V119.488Z" fill="#E99C82"/>
<path d="M267.557 92.561V104.301H283.873V164.188H298.116V104.301H314.339V92.561H267.561H267.557Z" fill="#E99C82"/>
<path d="M356.967 152.448V92.561H342.679V164.192H380.123V152.452H356.971L356.967 152.448Z" fill="#E99C82"/>
<path d="M424.731 97.0888C420.628 93.035 415.299 91.0061 408.649 91.0061C402 91.0061 396.387 93.035 392.24 97.0888C388.044 101.098 385.967 106.897 385.967 114.442V142.312C385.967 149.808 388.04 155.563 392.24 159.616C396.391 163.626 401.858 165.655 408.649 165.655C412.565 165.655 416.194 164.804 419.543 163.107C422.892 161.41 425.626 158.863 427.699 155.47C429.773 152.027 430.813 147.641 430.813 142.312V114.442C430.813 106.897 428.784 101.098 424.731 97.0888ZM416.574 140.664C416.574 142.928 416.34 145.05 415.866 146.937C415.396 148.869 414.639 150.428 413.46 151.651C412.326 152.829 410.727 153.441 408.649 153.441C405.397 153.441 403.178 152.262 402 149.905C400.821 147.5 400.254 144.434 400.254 140.664V116.05C400.254 113.737 400.444 111.615 400.914 109.683C401.384 107.752 402.186 106.148 403.368 104.97C404.547 103.84 406.199 103.224 408.366 103.224C410.532 103.224 412.14 103.836 413.319 104.97C414.497 106.148 415.347 107.752 415.817 109.683C416.287 111.615 416.57 113.737 416.57 116.05V140.664H416.574Z" fill="#E99C82"/>
<path d="M478.491 133.257C479.102 131.985 479.62 130.9 480.046 129.908C480.515 128.915 480.799 128.304 480.941 128.02C482.354 124.862 483.488 121.512 484.29 118.07C485.043 114.628 485.42 111.279 485.375 108.071C485.375 104.819 484.857 101.94 483.865 99.3483C482.921 96.8011 481.41 94.7722 479.386 93.2657C477.357 91.7551 474.716 91.0505 471.464 91.095C467.832 91.1881 464.722 92.6501 462.174 95.5295C459.627 98.3602 457.93 102.131 457.128 106.848C456.375 110.902 456.278 115.009 456.796 119.156C457.315 123.306 458.307 127.267 459.813 131.037C461.275 134.763 463.021 138.064 465.001 140.846C464.483 141.741 463.729 143.11 462.737 144.855C461.7 146.6 460.567 148.39 459.246 150.184C457.926 151.974 456.557 153.436 455.051 154.619C453.54 155.797 452.034 156.271 450.572 155.988C448.733 155.656 447.32 154.149 446.376 151.412C445.384 148.678 444.821 145.094 444.631 140.708C444.489 136.322 444.679 131.467 445.242 126.137C445.761 120.808 446.611 115.434 447.741 109.914C448.826 104.398 450.147 99.2106 451.75 94.2578L443.311 91.3825C441.237 97.7973 439.536 104.257 438.216 110.813C436.847 117.37 436.001 123.639 435.62 129.628C435.43 132.362 435.337 135.241 435.385 138.351C435.385 141.465 435.62 144.527 436.094 147.548C436.564 150.565 437.321 153.347 438.358 155.895C439.395 158.442 440.763 160.564 442.553 162.309C444.299 164.006 446.563 165.092 449.296 165.468C451.702 165.845 453.965 165.517 456.132 164.48C458.254 163.443 460.283 161.981 462.166 160.143C464.053 158.304 465.799 156.275 467.305 154.105C468.816 151.889 470.136 149.861 471.266 147.88C473.813 150.237 476.595 152.031 479.661 153.254L483.294 145.236C481.783 144.576 480.37 143.822 479.098 142.879C477.778 141.984 476.599 140.947 475.465 139.765C475.797 139.056 476.219 138.112 476.786 136.934C477.353 135.755 477.916 134.528 478.482 133.257H478.491ZM475.097 116.892C474.437 119.767 473.635 122.505 472.691 125.052C471.748 127.644 470.76 129.721 469.719 131.369C468.775 129.814 467.973 127.737 467.22 125.096C466.467 122.505 465.949 119.722 465.665 116.701C465.382 113.729 465.43 110.947 465.9 108.404C466.042 107.602 466.325 106.565 466.75 105.196C467.176 103.827 467.787 102.604 468.638 101.519C469.488 100.434 470.569 99.9153 471.938 100.008C473.59 100.057 474.72 100.903 475.38 102.556C476.04 104.159 476.324 106.233 476.231 108.78C476.138 111.327 475.761 114.061 475.097 116.892Z" fill="#E99C82"/>
<path d="M527.156 104.301V92.561H489.761V164.192H527.156V152.452H504.004V132.835H523.855V121.095H504.004V104.309H527.156V104.301Z" fill="#E99C82"/>
<path d="M573.983 124.108C575.963 120.857 577 117.082 577 112.79C577 106.282 575.348 101.284 572.003 97.7934C568.702 94.3026 563.705 92.5571 557.055 92.5571H533.429V164.189H547.672V133.629H551.588C554.18 133.629 556.209 134.289 557.622 135.61C557.999 135.942 558.282 136.363 558.566 136.881C559.319 138.202 559.695 140.04 559.695 142.397V164.185H573.983V141.502C573.983 138.53 573.181 136.079 571.67 134.241C570.302 132.589 568.37 131.649 565.916 131.41C565.632 131.317 565.304 131.268 564.972 131.268V130.75C568.933 129.523 571.95 127.308 573.979 124.1L573.983 124.108ZM555.31 121.703H547.672V104.399H555.31C557.573 104.399 559.461 105.059 560.967 106.33C562.478 107.65 563.231 109.821 563.231 112.79C563.231 115.758 562.478 118.026 560.967 119.484C559.457 120.942 557.573 121.699 555.31 121.699V121.703Z" fill="#E99C82"/>
<path d="M660.958 115.243C659.78 115.292 658.601 115.434 657.423 115.527C657.188 113.595 656.763 111.283 656.244 108.691C655.677 106.099 654.831 103.503 653.746 100.912C652.616 98.3642 651.15 96.149 649.311 94.355C647.521 92.5164 645.209 91.4311 642.378 91.1031C639.406 90.771 636.623 91.2448 634.08 92.4719C631.533 93.7435 629.225 95.5375 627.147 97.8459C625.074 100.203 623.186 102.892 621.534 105.864C619.882 108.881 618.42 111.947 617.148 115.154C615.877 118.362 614.791 121.379 613.941 124.254C612.054 130.572 610.592 137.177 609.555 144.061C608.518 150.994 608 157.689 608 164.196H617.007C617.007 160.046 617.29 155.567 617.857 150.804C618.469 146.042 619.27 141.279 620.311 136.468C621.348 131.612 622.575 127.036 624.037 122.606C625.45 118.22 627.054 114.308 628.799 110.91C630.589 107.468 632.432 104.779 634.364 102.847C636.344 100.867 638.373 99.9234 640.446 100.017C641.957 100.065 643.18 100.77 644.221 102.139C645.213 103.507 646.011 105.204 646.626 107.185C647.286 109.165 647.756 111.145 648.088 113.081C648.372 115.061 648.607 116.616 648.748 117.795C647.898 118.127 647.051 118.504 646.25 118.925C645.448 119.35 644.646 119.775 643.844 120.245C639.883 122.46 636.441 125.574 633.517 129.628C630.593 133.637 628.471 137.881 627.244 142.312C626.491 145.236 626.159 148.208 626.252 151.177C626.394 154.101 626.961 156.834 627.998 159.333C628.99 161.787 630.496 163.767 632.432 165.274C634.368 166.78 636.769 167.538 639.551 167.631C642.427 167.679 644.881 167.064 646.91 165.792C648.89 164.52 650.587 162.82 651.907 160.746C653.276 158.624 654.313 156.312 655.114 153.813C655.868 151.359 656.483 148.909 656.86 146.455C657.237 144.001 657.52 141.834 657.71 139.854C657.852 137.922 657.945 136.46 658.042 135.468C658.374 131.835 658.468 128.158 658.326 124.525C659.221 124.384 660.213 124.291 661.201 124.193C662.238 124.1 663.275 124.052 664.409 124.145L664.502 115.138C663.323 115.138 662.145 115.187 660.966 115.231L660.958 115.243ZM649.169 134.249C649.028 137.408 648.7 140.664 648.181 144.057C647.712 146.698 647.096 149.152 646.391 151.509C645.683 153.821 644.788 155.704 643.658 157.024C642.572 158.345 641.204 158.912 639.555 158.628C638.328 158.438 637.385 157.778 636.725 156.648C636.065 155.469 635.639 154.149 635.453 152.687C635.263 151.177 635.218 149.812 635.36 148.585C635.83 144.248 637.247 140.238 639.604 136.464C642.01 132.69 645.261 129.673 649.412 127.457C649.412 128.826 649.364 131.09 649.178 134.249H649.169Z" fill="#E99C82"/>
<path d="M710.474 124.108C712.503 120.857 713.54 117.082 713.54 112.79C713.54 106.282 711.843 101.284 708.542 97.7934C705.242 94.3026 700.245 92.5571 693.595 92.5571H669.969V164.189H684.212V133.629H688.128C690.72 133.629 692.748 134.289 694.117 135.61C695.531 136.93 696.239 139.194 696.239 142.401V164.189H710.482V141.506C710.482 138.534 709.729 136.084 708.218 134.245C706.663 132.406 704.444 131.414 701.524 131.272V130.754C705.485 129.527 708.502 127.312 710.482 124.104L710.474 124.108ZM697.507 119.488C695.996 120.95 694.113 121.703 691.849 121.703H684.212V104.399H691.849C694.113 104.399 696 105.059 697.507 106.33C699.017 107.65 699.771 109.821 699.771 112.79C699.771 115.758 699.017 118.026 697.507 119.484V119.488Z" fill="#E99C82"/>
<path d="M716.557 92.561V104.301H732.873V164.188H747.116V104.301H763.339V92.561H716.561H716.557Z" fill="#E99C82"/>
<path d="M805.967 152.448V92.561H791.679V164.192H829.123V152.452H805.971L805.967 152.448Z" fill="#E99C82"/>
<path d="M873.731 97.0888C869.628 93.035 864.299 91.0061 857.649 91.0061C851 91.0061 845.387 93.035 841.24 97.0888C837.044 101.098 834.967 106.897 834.967 114.442V142.312C834.967 149.808 837.04 155.563 841.24 159.616C845.391 163.626 850.858 165.655 857.649 165.655C861.565 165.655 865.194 164.804 868.543 163.107C871.892 161.41 874.626 158.863 876.699 155.47C878.773 152.027 879.813 147.641 879.813 142.312V114.442C879.813 106.897 877.784 101.098 873.731 97.0888ZM865.574 140.664C865.574 142.928 865.34 145.05 864.866 146.937C864.396 148.869 863.639 150.428 862.46 151.651C861.326 152.829 859.727 153.441 857.649 153.441C854.397 153.441 852.178 152.262 851 149.905C849.821 147.5 849.254 144.434 849.254 140.664V116.05C849.254 113.737 849.444 111.615 849.914 109.683C850.384 107.752 851.186 106.148 852.368 104.97C853.547 103.84 855.199 103.224 857.366 103.224C859.532 103.224 861.14 103.836 862.319 104.97C863.497 106.148 864.347 107.752 864.817 109.683C865.287 111.615 865.57 113.737 865.57 116.05V140.664H865.574Z" fill="#E99C82"/>
<path d="M927.491 133.257C928.102 131.985 928.62 130.9 929.046 129.908C929.515 128.915 929.799 128.304 929.941 128.02C931.354 124.862 932.488 121.512 933.29 118.07C934.043 114.628 934.42 111.279 934.375 108.071C934.375 104.819 933.857 101.94 932.865 99.3483C931.921 96.8011 930.41 94.7722 928.386 93.2657C926.357 91.7551 923.716 91.0505 920.464 91.095C916.832 91.1881 913.722 92.6501 911.174 95.5295C908.627 98.3602 906.93 102.131 906.128 106.848C905.375 110.902 905.278 115.009 905.796 119.156C906.315 123.306 907.307 127.267 908.813 131.037C910.275 134.763 912.021 138.064 914.001 140.846C913.483 141.741 912.729 143.11 911.737 144.855C910.7 146.6 909.567 148.39 908.246 150.184C906.926 151.974 905.557 153.436 904.051 154.619C902.54 155.797 901.034 156.271 899.572 155.988C897.733 155.656 896.32 154.149 895.376 151.412C894.384 148.678 893.821 145.094 893.631 140.708C893.489 136.322 893.679 131.467 894.242 126.137C894.761 120.808 895.611 115.434 896.741 109.914C897.826 104.398 899.147 99.2106 900.75 94.2578L892.311 91.3825C890.237 97.7973 888.536 104.257 887.216 110.813C885.847 117.37 885.001 123.639 884.62 129.628C884.43 132.362 884.337 135.241 884.385 138.351C884.385 141.465 884.62 144.527 885.094 147.548C885.564 150.565 886.321 153.347 887.358 155.895C888.395 158.442 889.763 160.564 891.553 162.309C893.299 164.006 895.563 165.092 898.296 165.468C900.702 165.845 902.965 165.517 905.132 164.48C907.254 163.443 909.283 161.981 911.166 160.143C913.053 158.304 914.799 156.275 916.305 154.105C917.816 151.889 919.136 149.861 920.266 147.88C922.813 150.237 925.595 152.031 928.661 153.254L932.294 145.236C930.783 144.576 929.37 143.822 928.098 142.879C926.778 141.984 925.599 140.947 924.465 139.765C924.797 139.056 925.219 138.112 925.786 136.934C926.353 135.755 926.916 134.528 927.482 133.257H927.491ZM924.097 116.892C923.437 119.767 922.635 122.505 921.691 125.052C920.748 127.644 919.76 129.721 918.719 131.369C917.775 129.814 916.973 127.737 916.22 125.096C915.467 122.505 914.949 119.722 914.665 116.701C914.382 113.729 914.43 110.947 914.9 108.404C915.042 107.602 915.325 106.565 915.75 105.196C916.176 103.827 916.787 102.604 917.638 101.519C918.488 100.434 919.569 99.9153 920.938 100.008C922.59 100.057 923.72 100.903 924.38 102.556C925.04 104.159 925.324 106.233 925.231 108.78C925.138 111.327 924.761 114.061 924.097 116.892Z" fill="#E99C82"/>
<path d="M976.156 104.301V92.561H938.761V164.192H976.156V152.452H953.004V132.835H972.855V121.095H953.004V104.309H976.156V104.301Z" fill="#E99C82"/>
<path d="M1022.98 124.108C1024.96 120.857 1026 117.082 1026 112.79C1026 106.282 1024.35 101.284 1021 97.7934C1017.7 94.3026 1012.7 92.5571 1006.06 92.5571H982.429V164.189H996.672V133.629H1000.59C1003.18 133.629 1005.21 134.289 1006.62 135.61C1007 135.942 1007.28 136.363 1007.57 136.881C1008.32 138.202 1008.7 140.04 1008.7 142.397V164.185H1022.98V141.502C1022.98 138.53 1022.18 136.079 1020.67 134.241C1019.3 132.589 1017.37 131.649 1014.92 131.41C1014.63 131.317 1014.3 131.268 1013.97 131.268V130.75C1017.93 129.523 1020.95 127.308 1022.98 124.1L1022.98 124.108ZM1004.31 121.703H996.672V104.399H1004.31C1006.57 104.399 1008.46 105.059 1009.97 106.33C1011.48 107.65 1012.23 109.821 1012.23 112.79C1012.23 115.758 1011.48 118.026 1009.97 119.484C1008.46 120.942 1006.57 121.699 1004.31 121.699V121.703Z" fill="#E99C82"/>
<path d="M157.958 15.2435C156.78 15.2921 155.601 15.4338 154.423 15.527C154.188 13.5952 153.763 11.2828 153.244 8.69102C152.677 6.0992 151.831 3.50334 150.746 0.911515C149.616 -1.63576 148.15 -3.85096 146.311 -5.64498C144.521 -7.48356 142.209 -8.56888 139.378 -8.89691C136.406 -9.22899 133.623 -8.75517 131.08 -7.5281C128.533 -6.25649 126.225 -4.46247 124.147 -2.15413C122.074 0.202811 120.186 2.89182 118.534 5.86432C116.882 8.88136 115.42 11.947 114.148 15.1544C112.877 18.3618 111.791 21.3788 110.941 24.2541C109.054 30.5717 107.592 37.1768 106.555 44.0613C105.518 50.9944 105 57.6886 105 64.1965H114.007C114.007 60.0455 114.29 55.5665 114.857 50.8041C115.469 46.0416 116.27 41.2791 117.311 36.4681C118.348 31.6125 119.575 27.0363 121.037 22.6059C122.45 18.22 124.054 14.308 125.799 10.9103C127.589 7.468 129.432 4.779 131.364 2.84728C133.344 0.866967 135.373 -0.0766258 137.446 0.0165176C138.957 0.065114 140.18 0.769774 141.221 2.13858C142.213 3.50739 143.011 5.20423 143.626 7.18454C144.286 9.16485 144.756 11.1452 145.088 13.0809C145.372 15.0612 145.607 16.6163 145.748 17.7948C144.898 18.1269 144.051 18.5035 143.25 18.9247C142.448 19.3499 141.646 19.7751 140.844 20.2449C136.883 22.4601 133.441 25.5743 130.517 29.6281C127.593 33.6373 125.471 37.8814 124.244 42.3118C123.491 45.2357 123.159 48.2082 123.252 51.1766C123.394 54.1005 123.961 56.8341 124.998 59.3328C125.99 61.7869 127.496 63.7672 129.432 65.2737C131.368 66.7802 133.769 67.5375 136.551 67.6306C139.427 67.6792 141.881 67.0637 143.91 65.7921C145.89 64.5205 147.587 62.8196 148.907 60.7461C150.276 58.6241 151.313 56.3117 152.114 53.813C152.868 51.3589 153.483 48.9088 153.86 46.4547C154.237 44.0005 154.52 41.8339 154.71 39.8536C154.852 37.9219 154.945 36.46 155.042 35.4678C155.374 31.8352 155.468 28.158 155.326 24.5254C156.221 24.3837 157.213 24.2906 158.201 24.1934C159.238 24.1002 160.275 24.0516 161.409 24.1447L161.502 15.1382C160.323 15.1382 159.145 15.1868 157.966 15.2313L157.958 15.2435ZM146.169 34.2488C146.028 37.4076 145.7 40.6636 145.181 44.0572C144.712 46.6977 144.096 49.1518 143.391 51.5087C142.683 53.8211 141.788 55.7042 140.658 57.0244C139.572 58.3446 138.204 58.9116 136.555 58.6281C135.328 58.4378 134.385 57.7777 133.725 56.6478C133.065 55.4693 132.639 54.1491 132.453 52.6872C132.263 51.1766 132.218 49.8119 132.36 48.5848C132.83 44.2476 134.247 40.2384 136.604 36.464C139.01 32.6897 142.261 29.6726 146.412 27.4574C146.412 28.8262 146.364 31.09 146.178 34.2488H146.169Z" fill="#E99C82"/>
<path d="M207.474 24.1085C209.503 20.8566 210.54 17.0822 210.54 12.7895C210.54 6.28163 208.843 1.28427 205.542 -2.20659C202.242 -5.69744 197.245 -7.44287 190.595 -7.44287H166.969V64.1886H181.212V33.6294H185.128C187.72 33.6294 189.749 34.2895 191.117 35.6097C192.531 36.9299 193.239 39.1937 193.239 42.4011V64.1886H207.482V41.5061C207.482 38.5336 206.729 36.0835 205.218 34.2449C203.663 32.4064 201.444 31.4142 198.524 31.2725V30.7541C202.485 29.527 205.502 27.3118 207.482 24.1044L207.474 24.1085ZM194.507 19.4878C192.996 20.9497 191.113 21.703 188.849 21.703H181.212V4.39851H188.849C191.113 4.39851 193 5.05862 194.507 6.33023C196.017 7.65044 196.771 9.82108 196.771 12.7895C196.771 15.758 196.017 18.0258 194.507 19.4837V19.4878Z" fill="#E99C82"/>
<path d="M213.557 -7.43896V4.30117H229.873V64.1884H244.116V4.30117H260.339V-7.43896H213.561H213.557Z" fill="#E99C82"/>
<path d="M302.967 52.4483V-7.43896H288.679V64.1925H326.123V52.4523H302.971L302.967 52.4483Z" fill="#E99C82"/>
<path d="M370.731 -2.91121C366.628 -6.96498 361.299 -8.9939 354.649 -8.9939C348 -8.9939 342.387 -6.96498 338.24 -2.91121C334.044 1.09801 331.967 6.89722 331.967 14.4418V42.312C331.967 49.8081 334.04 55.5627 338.24 59.6165C342.391 63.6257 347.858 65.6546 354.649 65.6546C358.565 65.6546 362.194 64.8042 365.543 63.1073C368.892 61.4105 371.626 58.8632 373.699 55.4696C375.773 52.0273 376.813 47.6415 376.813 42.312V14.4418C376.813 6.89722 374.784 1.09801 370.731 -2.91121ZM362.574 40.6638C362.574 42.9276 362.34 45.0496 361.866 46.9368C361.396 48.8685 360.639 50.4277 359.46 51.6507C358.326 52.8291 356.727 53.4407 354.649 53.4407C351.397 53.4407 349.178 52.2622 348 49.9053C346.821 47.4997 346.254 44.4341 346.254 40.6638V16.0496C346.254 13.7372 346.444 11.6151 346.914 9.68342C347.384 7.75171 348.186 6.14801 349.368 4.96954C350.547 3.83967 352.199 3.22412 354.366 3.22412C356.532 3.22412 358.14 3.83562 359.319 4.96954C360.497 6.14801 361.347 7.75171 361.817 9.68342C362.287 11.6151 362.57 13.7372 362.57 16.0496V40.6638H362.574Z" fill="#E99C82"/>
<path d="M424.491 33.2566C425.102 31.985 425.62 30.8997 426.046 29.9075C426.515 28.9154 426.799 28.3038 426.941 28.0203C428.354 24.8616 429.488 21.5124 430.29 18.0702C431.043 14.6279 431.42 11.2788 431.375 8.07142C431.375 4.8195 430.857 1.94016 429.865 -0.651665C428.921 -3.19894 427.41 -5.22784 425.386 -6.73434C423.357 -8.24489 420.716 -8.94954 417.464 -8.905C413.832 -8.81185 410.722 -7.3499 408.174 -4.47055C405.627 -1.63979 403.93 2.1305 403.128 6.84842C402.375 10.9022 402.278 15.0086 402.796 19.1555C403.315 23.3065 404.307 27.2671 405.813 31.0374C407.275 34.7631 409.021 38.0637 411.001 40.8458C410.483 41.7408 409.729 43.1096 408.737 44.855C407.7 46.6005 406.567 48.3905 405.246 50.1845C403.926 51.9745 402.557 53.4364 401.051 54.6189C399.54 55.7974 398.034 56.2712 396.572 55.9877C394.733 55.6556 393.32 54.1492 392.376 51.4115C391.384 48.678 390.821 45.094 390.631 40.7081C390.489 36.3223 390.679 31.4667 391.242 26.1372C391.761 20.8078 392.611 15.4338 393.741 9.91407C394.826 4.39835 396.147 -0.789359 397.75 -5.74217L389.311 -8.61746C387.237 -2.2027 385.536 4.25659 384.216 10.8131C382.847 17.3696 382.001 23.6386 381.62 29.6281C381.43 32.3617 381.337 35.241 381.385 38.3512C381.385 41.4654 381.62 44.527 382.094 47.5481C382.564 50.5652 383.321 53.3473 384.358 55.8946C385.395 58.4419 386.763 60.5639 388.553 62.3093C390.299 64.0062 392.563 65.0915 395.296 65.4681C397.702 65.8447 399.965 65.5167 402.132 64.48C404.254 63.4433 406.283 61.9813 408.166 60.1427C410.053 58.3042 411.799 56.2753 413.305 54.1046C414.816 51.8894 416.136 49.8605 417.266 47.8802C419.813 50.2371 422.595 52.0311 425.661 53.2542L429.294 45.2357C427.783 44.5756 426.37 43.8224 425.098 42.8788C423.778 41.9838 422.599 40.9471 421.465 39.7645C421.797 39.0558 422.219 38.1123 422.786 36.9338C423.353 35.7553 423.916 34.5282 424.482 33.2566H424.491ZM421.097 16.8917C420.437 19.767 419.635 22.5046 418.691 25.0519C417.748 27.6437 416.76 29.7212 415.719 31.3695C414.775 29.8144 413.973 27.7369 413.22 25.0965C412.467 22.5046 411.949 19.7225 411.665 16.7014C411.382 13.7289 411.43 10.9467 411.9 8.4035C412.042 7.60166 412.325 6.56494 412.75 5.19613C413.176 3.82733 413.787 2.60432 414.638 1.51899C415.488 0.433666 416.569 -0.0847025 417.938 0.00844097C419.59 0.0570383 420.72 0.903433 421.38 2.55572C422.04 4.15941 422.324 6.23285 422.231 8.78012C422.138 11.3274 421.761 14.061 421.097 16.8917Z" fill="#E99C82"/>
<path d="M473.156 4.30117V-7.43896H435.761V64.1925H473.156V52.4523H450.004V32.8355H469.855V21.0954H450.004V4.30927H473.156V4.30117Z" fill="#E99C82"/>
<path d="M519.983 24.1085C521.963 20.8566 523 17.0822 523 12.7895C523 6.28163 521.348 1.28427 518.003 -2.20659C514.702 -5.69744 509.705 -7.44287 503.055 -7.44287H479.429V64.1886H493.672V33.6294H497.588C500.18 33.6294 502.209 34.2895 503.622 35.6097C503.999 35.9418 504.282 36.3629 504.566 36.8813C505.319 38.2015 505.695 40.0401 505.695 42.397V64.1845H519.983V41.5021C519.983 38.5296 519.181 36.0795 517.67 34.2409C516.302 32.5886 514.37 31.6491 511.916 31.4101C511.632 31.317 511.304 31.2684 510.972 31.2684V30.75C514.933 29.523 517.95 27.3078 519.979 24.1004L519.983 24.1085ZM501.31 21.703H493.672V4.39851H501.31C503.573 4.39851 505.461 5.05862 506.967 6.33023C508.478 7.65044 509.231 9.82108 509.231 12.7895C509.231 15.758 508.478 18.0258 506.967 19.4837C505.457 20.9416 503.573 21.6989 501.31 21.6989V21.703Z" fill="#E99C82"/>
<path d="M597.958 15.2435C596.78 15.2921 595.601 15.4338 594.423 15.527C594.188 13.5952 593.763 11.2828 593.244 8.69102C592.677 6.0992 591.831 3.50334 590.746 0.911515C589.616 -1.63576 588.15 -3.85096 586.311 -5.64498C584.521 -7.48356 582.209 -8.56888 579.378 -8.89691C576.406 -9.22899 573.623 -8.75517 571.08 -7.5281C568.533 -6.25649 566.225 -4.46247 564.147 -2.15413C562.074 0.202811 560.186 2.89182 558.534 5.86432C556.882 8.88136 555.42 11.947 554.148 15.1544C552.877 18.3618 551.791 21.3788 550.941 24.2541C549.054 30.5717 547.592 37.1768 546.555 44.0613C545.518 50.9944 545 57.6886 545 64.1965H554.007C554.007 60.0455 554.29 55.5665 554.857 50.8041C555.469 46.0416 556.27 41.2791 557.311 36.4681C558.348 31.6125 559.575 27.0363 561.037 22.6059C562.45 18.22 564.054 14.308 565.799 10.9103C567.589 7.468 569.432 4.779 571.364 2.84728C573.344 0.866967 575.373 -0.0766258 577.446 0.0165176C578.957 0.065114 580.18 0.769774 581.221 2.13858C582.213 3.50739 583.011 5.20423 583.626 7.18454C584.286 9.16485 584.756 11.1452 585.088 13.0809C585.372 15.0612 585.607 16.6163 585.748 17.7948C584.898 18.1269 584.051 18.5035 583.25 18.9247C582.448 19.3499 581.646 19.7751 580.844 20.2449C576.883 22.4601 573.441 25.5743 570.517 29.6281C567.593 33.6373 565.471 37.8814 564.244 42.3118C563.491 45.2357 563.159 48.2082 563.252 51.1766C563.394 54.1005 563.961 56.8341 564.998 59.3328C565.99 61.7869 567.496 63.7672 569.432 65.2737C571.368 66.7802 573.769 67.5375 576.551 67.6306C579.427 67.6792 581.881 67.0637 583.91 65.7921C585.89 64.5205 587.587 62.8196 588.907 60.7461C590.276 58.6241 591.313 56.3117 592.114 53.813C592.868 51.3589 593.483 48.9088 593.86 46.4547C594.237 44.0005 594.52 41.8339 594.71 39.8536C594.852 37.9219 594.945 36.46 595.042 35.4678C595.374 31.8352 595.468 28.158 595.326 24.5254C596.221 24.3837 597.213 24.2906 598.201 24.1934C599.238 24.1002 600.275 24.0516 601.409 24.1447L601.502 15.1382C600.323 15.1382 599.145 15.1868 597.966 15.2313L597.958 15.2435ZM586.169 34.2488C586.028 37.4076 585.7 40.6636 585.181 44.0572C584.712 46.6977 584.096 49.1518 583.391 51.5087C582.683 53.8211 581.788 55.7042 580.658 57.0244C579.572 58.3446 578.204 58.9116 576.555 58.6281C575.328 58.4378 574.385 57.7777 573.725 56.6478C573.065 55.4693 572.639 54.1491 572.453 52.6872C572.263 51.1766 572.218 49.8119 572.36 48.5848C572.83 44.2476 574.247 40.2384 576.604 36.464C579.01 32.6897 582.261 29.6726 586.412 27.4574C586.412 28.8262 586.364 31.09 586.178 34.2488H586.169Z" fill="#E99C82"/>
<path d="M647.474 24.1085C649.503 20.8566 650.54 17.0822 650.54 12.7895C650.54 6.28163 648.843 1.28427 645.542 -2.20659C642.242 -5.69744 637.245 -7.44287 630.595 -7.44287H606.969V64.1886H621.212V33.6294H625.128C627.72 33.6294 629.749 34.2895 631.117 35.6097C632.531 36.9299 633.239 39.1937 633.239 42.4011V64.1886H647.482V41.5061C647.482 38.5336 646.729 36.0835 645.218 34.2449C643.663 32.4064 641.444 31.4142 638.524 31.2725V30.7541C642.485 29.527 645.502 27.3118 647.482 24.1044L647.474 24.1085ZM634.507 19.4878C632.996 20.9497 631.113 21.703 628.849 21.703H621.212V4.39851H628.849C631.113 4.39851 633 5.05862 634.507 6.33023C636.017 7.65044 636.771 9.82108 636.771 12.7895C636.771 15.758 636.017 18.0258 634.507 19.4837V19.4878Z" fill="#E99C82"/>
<path d="M653.557 -7.43896V4.30117H669.873V64.1884H684.116V4.30117H700.339V-7.43896H653.561H653.557Z" fill="#E99C82"/>
<path d="M742.967 52.4483V-7.43896H728.679V64.1925H766.123V52.4523H742.971L742.967 52.4483Z" fill="#E99C82"/>
<path d="M810.731 -2.91121C806.628 -6.96498 801.299 -8.9939 794.649 -8.9939C788 -8.9939 782.387 -6.96498 778.24 -2.91121C774.044 1.09801 771.967 6.89722 771.967 14.4418V42.312C771.967 49.8081 774.04 55.5627 778.24 59.6165C782.391 63.6257 787.858 65.6546 794.649 65.6546C798.565 65.6546 802.194 64.8042 805.543 63.1073C808.892 61.4105 811.626 58.8632 813.699 55.4696C815.773 52.0273 816.813 47.6415 816.813 42.312V14.4418C816.813 6.89722 814.784 1.09801 810.731 -2.91121ZM802.574 40.6638C802.574 42.9276 802.34 45.0496 801.866 46.9368C801.396 48.8685 800.639 50.4277 799.46 51.6507C798.326 52.8291 796.727 53.4407 794.649 53.4407C791.397 53.4407 789.178 52.2622 788 49.9053C786.821 47.4997 786.254 44.4341 786.254 40.6638V16.0496C786.254 13.7372 786.444 11.6151 786.914 9.68342C787.384 7.75171 788.186 6.14801 789.368 4.96954C790.547 3.83967 792.199 3.22412 794.366 3.22412C796.532 3.22412 798.14 3.83562 799.319 4.96954C800.497 6.14801 801.347 7.75171 801.817 9.68342C802.287 11.6151 802.57 13.7372 802.57 16.0496V40.6638H802.574Z" fill="#E99C82"/>
<path d="M864.491 33.2566C865.102 31.985 865.62 30.8997 866.046 29.9075C866.515 28.9154 866.799 28.3038 866.941 28.0203C868.354 24.8616 869.488 21.5124 870.29 18.0702C871.043 14.6279 871.42 11.2788 871.375 8.07142C871.375 4.8195 870.857 1.94016 869.865 -0.651665C868.921 -3.19894 867.41 -5.22784 865.386 -6.73434C863.357 -8.24489 860.716 -8.94954 857.464 -8.905C853.832 -8.81185 850.722 -7.3499 848.174 -4.47055C845.627 -1.63979 843.93 2.1305 843.128 6.84842C842.375 10.9022 842.278 15.0086 842.796 19.1555C843.315 23.3065 844.307 27.2671 845.813 31.0374C847.275 34.7631 849.021 38.0637 851.001 40.8458C850.483 41.7408 849.729 43.1096 848.737 44.855C847.7 46.6005 846.567 48.3905 845.246 50.1845C843.926 51.9745 842.557 53.4364 841.051 54.6189C839.54 55.7974 838.034 56.2712 836.572 55.9877C834.733 55.6556 833.32 54.1492 832.376 51.4115C831.384 48.678 830.821 45.094 830.631 40.7081C830.489 36.3223 830.679 31.4667 831.242 26.1372C831.761 20.8078 832.611 15.4338 833.741 9.91407C834.826 4.39835 836.147 -0.789359 837.75 -5.74217L829.311 -8.61746C827.237 -2.2027 825.536 4.25659 824.216 10.8131C822.847 17.3696 822.001 23.6386 821.62 29.6281C821.43 32.3617 821.337 35.241 821.385 38.3512C821.385 41.4654 821.62 44.527 822.094 47.5481C822.564 50.5652 823.321 53.3473 824.358 55.8946C825.395 58.4419 826.763 60.5639 828.553 62.3093C830.299 64.0062 832.563 65.0915 835.296 65.4681C837.702 65.8447 839.965 65.5167 842.132 64.48C844.254 63.4433 846.283 61.9813 848.166 60.1427C850.053 58.3042 851.799 56.2753 853.305 54.1046C854.816 51.8894 856.136 49.8605 857.266 47.8802C859.813 50.2371 862.595 52.0311 865.661 53.2542L869.294 45.2357C867.783 44.5756 866.37 43.8224 865.098 42.8788C863.778 41.9838 862.599 40.9471 861.465 39.7645C861.797 39.0558 862.219 38.1123 862.786 36.9338C863.353 35.7553 863.916 34.5282 864.482 33.2566H864.491ZM861.097 16.8917C860.437 19.767 859.635 22.5046 858.691 25.0519C857.748 27.6437 856.76 29.7212 855.719 31.3695C854.775 29.8144 853.973 27.7369 853.22 25.0965C852.467 22.5046 851.949 19.7225 851.665 16.7014C851.382 13.7289 851.43 10.9467 851.9 8.4035C852.042 7.60166 852.325 6.56494 852.75 5.19613C853.176 3.82733 853.787 2.60432 854.638 1.51899C855.488 0.433666 856.569 -0.0847025 857.938 0.00844097C859.59 0.0570383 860.72 0.903433 861.38 2.55572C862.04 4.15941 862.324 6.23285 862.231 8.78012C862.138 11.3274 861.761 14.061 861.097 16.8917Z" fill="#E99C82"/>
<path d="M913.156 4.30117V-7.43896H875.761V64.1925H913.156V52.4523H890.004V32.8355H909.855V21.0954H890.004V4.30927H913.156V4.30117Z" fill="#E99C82"/>
<path d="M959.983 24.1085C961.963 20.8566 963 17.0822 963 12.7895C963 6.28163 961.348 1.28427 958.003 -2.20659C954.702 -5.69744 949.705 -7.44287 943.055 -7.44287H919.429V64.1886H933.672V33.6294H937.588C940.18 33.6294 942.209 34.2895 943.622 35.6097C943.999 35.9418 944.282 36.3629 944.566 36.8813C945.319 38.2015 945.695 40.0401 945.695 42.397V64.1845H959.983V41.5021C959.983 38.5296 959.181 36.0795 957.67 34.2409C956.302 32.5886 954.37 31.6491 951.916 31.4101C951.632 31.317 951.304 31.2684 950.972 31.2684V30.75C954.933 29.523 957.95 27.3078 959.979 24.1004L959.983 24.1085ZM941.31 21.703H933.672V4.39851H941.31C943.573 4.39851 945.461 5.05862 946.967 6.33023C948.478 7.65044 949.231 9.82108 949.231 12.7895C949.231 15.758 948.478 18.0258 946.967 19.4837C945.457 20.9416 943.573 21.6989 941.31 21.6989V21.703Z" fill="#E99C82"/>
<path d="M1037.96 15.2435C1036.78 15.2921 1035.6 15.4338 1034.42 15.527C1034.19 13.5952 1033.76 11.2828 1033.24 8.69102C1032.68 6.0992 1031.83 3.50334 1030.75 0.911515C1029.62 -1.63576 1028.15 -3.85096 1026.31 -5.64498C1024.52 -7.48356 1022.21 -8.56888 1019.38 -8.89691C1016.41 -9.22899 1013.62 -8.75517 1011.08 -7.5281C1008.53 -6.25649 1006.22 -4.46247 1004.15 -2.15413C1002.07 0.202811 1000.19 2.89182 998.534 5.86432C996.882 8.88136 995.42 11.947 994.148 15.1544C992.877 18.3618 991.791 21.3788 990.941 24.2541C989.054 30.5717 987.592 37.1768 986.555 44.0613C985.518 50.9944 985 57.6886 985 64.1965H994.007C994.007 60.0455 994.29 55.5665 994.857 50.8041C995.469 46.0416 996.27 41.2791 997.311 36.4681C998.348 31.6125 999.575 27.0363 1001.04 22.6059C1002.45 18.22 1004.05 14.308 1005.8 10.9103C1007.59 7.468 1009.43 4.779 1011.36 2.84728C1013.34 0.866967 1015.37 -0.0766258 1017.45 0.0165176C1018.96 0.065114 1020.18 0.769774 1021.22 2.13858C1022.21 3.50739 1023.01 5.20423 1023.63 7.18454C1024.29 9.16485 1024.76 11.1452 1025.09 13.0809C1025.37 15.0612 1025.61 16.6163 1025.75 17.7948C1024.9 18.1269 1024.05 18.5035 1023.25 18.9247C1022.45 19.3499 1021.65 19.7751 1020.84 20.2449C1016.88 22.4601 1013.44 25.5743 1010.52 29.6281C1007.59 33.6373 1005.47 37.8814 1004.24 42.3118C1003.49 45.2357 1003.16 48.2082 1003.25 51.1766C1003.39 54.1005 1003.96 56.8341 1005 59.3328C1005.99 61.7869 1007.5 63.7672 1009.43 65.2737C1011.37 66.7802 1013.77 67.5375 1016.55 67.6306C1019.43 67.6792 1021.88 67.0637 1023.91 65.7921C1025.89 64.5205 1027.59 62.8196 1028.91 60.7461C1030.28 58.6241 1031.31 56.3117 1032.11 53.813C1032.87 51.3589 1033.48 48.9088 1033.86 46.4547C1034.24 44.0005 1034.52 41.8339 1034.71 39.8536C1034.85 37.9219 1034.95 36.46 1035.04 35.4678C1035.37 31.8352 1035.47 28.158 1035.33 24.5254C1036.22 24.3837 1037.21 24.2906 1038.2 24.1934C1039.24 24.1002 1040.27 24.0516 1041.41 24.1447L1041.5 15.1382C1040.32 15.1382 1039.14 15.1868 1037.97 15.2313L1037.96 15.2435ZM1026.17 34.2488C1026.03 37.4076 1025.7 40.6636 1025.18 44.0572C1024.71 46.6977 1024.1 49.1518 1023.39 51.5087C1022.68 53.8211 1021.79 55.7042 1020.66 57.0244C1019.57 58.3446 1018.2 58.9116 1016.56 58.6281C1015.33 58.4378 1014.38 57.7777 1013.72 56.6478C1013.06 55.4693 1012.64 54.1491 1012.45 52.6872C1012.26 51.1766 1012.22 49.8119 1012.36 48.5848C1012.83 44.2476 1014.25 40.2384 1016.6 36.464C1019.01 32.6897 1022.26 29.6726 1026.41 27.4574C1026.41 28.8262 1026.36 31.09 1026.18 34.2488H1026.17Z" fill="#E99C82"/>
<path d="M1087.47 24.1085C1089.5 20.8566 1090.54 17.0822 1090.54 12.7895C1090.54 6.28163 1088.84 1.28427 1085.54 -2.20659C1082.24 -5.69744 1077.24 -7.44287 1070.59 -7.44287H1046.97V64.1886H1061.21V33.6294H1065.13C1067.72 33.6294 1069.75 34.2895 1071.12 35.6097C1072.53 36.9299 1073.24 39.1937 1073.24 42.4011V64.1886H1087.48V41.5061C1087.48 38.5336 1086.73 36.0835 1085.22 34.2449C1083.66 32.4064 1081.44 31.4142 1078.52 31.2725V30.7541C1082.48 29.527 1085.5 27.3118 1087.48 24.1044L1087.47 24.1085ZM1074.51 19.4878C1073 20.9497 1071.11 21.703 1068.85 21.703H1061.21V4.39851H1068.85C1071.11 4.39851 1073 5.05862 1074.51 6.33023C1076.02 7.65044 1076.77 9.82108 1076.77 12.7895C1076.77 15.758 1076.02 18.0258 1074.51 19.4837V19.4878Z" fill="#E99C82"/>
<path d="M1093.56 -7.43896V4.30117H1109.87V64.1884H1124.12V4.30117H1140.34V-7.43896H1093.56H1093.56Z" fill="#E99C82"/>
</g>
<defs>
<clipPath id="clip0_440_10527">
<rect y="-739" width="1184" height="907.272" rx="453.636" fill="white"/>
</clipPath>
</defs>
</svg>
