<svg width="290" height="51" viewBox="0 0 290 51" fill="none" xmlns="http://www.w3.org/2000/svg">
<g clip-path="url(#clip0_623_6118)">
<rect y="-80" width="290" height="131" rx="55" fill="#D88164"/>
<path d="M11.9093 11.4519C11.6442 11.4628 11.3792 11.4947 11.1142 11.5156C11.0614 11.0812 10.9658 10.5612 10.8492 9.97836C10.7217 9.39552 10.5314 8.81176 10.2873 8.22891C10.0332 7.65607 9.70354 7.15792 9.29008 6.75448C8.88755 6.34102 8.36754 6.09695 7.73096 6.02318C7.0625 5.94851 6.43685 6.05506 5.86493 6.331C5.29209 6.61696 4.77299 7.0204 4.3058 7.5395C3.83952 8.06953 3.41514 8.67424 3.04357 9.34269C2.672 10.0212 2.34324 10.7106 2.05728 11.4318C1.77132 12.1531 1.52725 12.8316 1.336 13.4782C0.911614 14.8989 0.58285 16.3843 0.34971 17.9324C0.11657 19.4916 0 20.997 0 22.4605H2.0254C2.0254 21.527 2.08915 20.5197 2.21665 19.4488C2.35417 18.3778 2.53449 17.3068 2.76854 16.2249C3.00168 15.1329 3.27762 14.1038 3.60638 13.1075C3.92422 12.1212 4.28486 11.2415 4.67737 10.4774C5.0799 9.70333 5.49427 9.09863 5.92868 8.66422C6.37401 8.21889 6.83027 8.00669 7.29655 8.02764C7.63624 8.03857 7.91128 8.19703 8.14533 8.50485C8.36845 8.81267 8.54786 9.19425 8.68628 9.63959C8.83473 10.0849 8.94037 10.5303 9.01505 10.9656C9.0788 11.4109 9.13162 11.7606 9.16349 12.0256C8.97225 12.1003 8.78191 12.185 8.60159 12.2797C8.42127 12.3753 8.24095 12.471 8.06063 12.5766C7.16996 13.0748 6.39587 13.7751 5.73834 14.6867C5.08081 15.5883 4.6036 16.5427 4.32766 17.539C4.15827 18.1965 4.08359 18.865 4.10454 19.5325C4.13641 20.1901 4.26391 20.8048 4.49705 21.3667C4.72017 21.9186 5.05895 22.3639 5.49427 22.7027C5.92959 23.0415 6.46963 23.2118 7.09529 23.2327C7.74188 23.2437 8.29377 23.1052 8.75003 22.8193C9.19537 22.5333 9.57695 22.1508 9.87384 21.6845C10.1817 21.2073 10.4148 20.6873 10.5951 20.1254C10.7645 19.5735 10.9029 19.0226 10.9876 18.4707C11.0723 17.9188 11.1361 17.4316 11.1789 16.9862C11.2108 16.5518 11.2317 16.2231 11.2536 15.9999C11.3282 15.183 11.3492 14.3561 11.3173 13.5392C11.5186 13.5073 11.7417 13.4864 11.9639 13.4645C12.197 13.4436 12.4302 13.4327 12.6852 13.4536L12.7061 11.4282C12.4411 11.4282 12.1761 11.4391 11.9111 11.4492L11.9093 11.4519ZM9.25821 15.7258C9.22633 16.4362 9.15256 17.1684 9.03599 17.9315C8.93035 18.5253 8.79193 19.0772 8.63346 19.6072C8.47409 20.1272 8.27282 20.5507 8.01874 20.8476C7.77467 21.1445 7.46685 21.272 7.0962 21.2082C6.82025 21.1654 6.60806 21.017 6.45961 20.7629C6.31117 20.4979 6.21555 20.201 6.17365 19.8722C6.13085 19.5325 6.12083 19.2256 6.15271 18.9497C6.25835 17.9743 6.5771 17.0727 7.10713 16.224C7.64808 15.3752 8.37938 14.6967 9.31285 14.1986C9.31285 14.5064 9.30192 15.0155 9.26003 15.7258H9.25821Z" fill="#E99C82"/>
<path d="M23.0445 13.4454C23.5007 12.7141 23.7339 11.8653 23.7339 10.9C23.7339 9.43647 23.3523 8.31266 22.6101 7.52764C21.8678 6.74261 20.744 6.3501 19.2486 6.3501H13.9356V22.4586H17.1385V15.5864H18.0192C18.602 15.5864 19.0583 15.7349 19.3661 16.0318C19.684 16.3287 19.8433 16.8377 19.8433 17.559V22.4586H23.0463V17.3578C23.0463 16.6893 22.8769 16.1383 22.5372 15.7249C22.1875 15.3114 21.6884 15.0883 21.0318 15.0564V14.9398C21.9225 14.6639 22.6009 14.1657 23.0463 13.4445L23.0445 13.4454ZM20.1284 12.4063C19.7887 12.735 19.3652 12.9044 18.8561 12.9044H17.1385V9.01299H18.8561C19.3652 9.01299 19.7896 9.16144 20.1284 9.4474C20.4681 9.74429 20.6375 10.2324 20.6375 10.9C20.6375 11.5675 20.4681 12.0775 20.1284 12.4054V12.4063Z" fill="#E99C82"/>
<path d="M24.4123 6.35107V8.9912H28.0815V22.4587H31.2845V8.9912H34.9328V6.35107H24.4132H24.4123Z" fill="#E99C82"/>
<path d="M44.5187 19.8185V6.35107H41.3058V22.4596H49.7261V19.8195H44.5196L44.5187 19.8185Z" fill="#E99C82"/>
<path d="M59.7575 7.36885C58.835 6.45724 57.6365 6.00098 56.1411 6.00098C54.6457 6.00098 53.3835 6.45724 52.451 7.36885C51.5075 8.27045 51.0403 9.57458 51.0403 11.2712V17.5387C51.0403 19.2244 51.5066 20.5185 52.451 21.4301C53.3844 22.3317 54.6139 22.788 56.1411 22.788C57.0218 22.788 57.8378 22.5967 58.5909 22.2151C59.3441 21.8335 59.9588 21.2607 60.4251 20.4975C60.8913 19.7234 61.1254 18.7372 61.1254 17.5387V11.2712C61.1254 9.57458 60.6691 8.27045 59.7575 7.36885ZM57.9234 17.168C57.9234 17.6771 57.8705 18.1543 57.764 18.5787C57.6583 19.0131 57.488 19.3637 57.223 19.6388C56.968 19.9038 56.6083 20.0413 56.1411 20.0413C55.4098 20.0413 54.9108 19.7763 54.6457 19.2462C54.3807 18.7053 54.2532 18.0159 54.2532 17.168V11.6328C54.2532 11.1128 54.296 10.6355 54.4017 10.2011C54.5073 9.76673 54.6876 9.4061 54.9536 9.14108C55.2186 8.88699 55.5901 8.74857 56.0774 8.74857C56.5646 8.74857 56.9261 8.88608 57.1912 9.14108C57.4562 9.4061 57.6474 9.76673 57.7531 10.2011C57.8587 10.6355 57.9224 11.1128 57.9224 11.6328V17.168H57.9234Z" fill="#E99C82"/>
<path d="M71.8471 15.5028C71.9846 15.2168 72.1012 14.9727 72.1968 14.7496C72.3024 14.5265 72.3662 14.389 72.3981 14.3252C72.7159 13.6149 72.9709 12.8617 73.1512 12.0876C73.3206 11.3135 73.4053 10.5604 73.3953 9.83911C73.3953 9.10781 73.2787 8.4603 73.0556 7.87746C72.8434 7.30462 72.5037 6.84836 72.0484 6.50958C71.5921 6.16989 70.9983 6.01142 70.267 6.02144C69.4501 6.04239 68.7507 6.37115 68.1779 7.01866C67.605 7.65524 67.2235 8.50311 67.0431 9.56408C66.8737 10.4757 66.8519 11.3991 66.9685 12.3317C67.085 13.2652 67.3082 14.1558 67.6469 15.0037C67.9757 15.8416 68.3682 16.5838 68.8135 17.2094C68.697 17.4107 68.5276 17.7185 68.3045 18.111C68.0713 18.5035 67.8163 18.9061 67.5194 19.3095C67.2225 19.712 66.9147 20.0408 66.5759 20.3067C66.2363 20.5717 65.8975 20.6783 65.5687 20.6145C65.1553 20.5399 64.8374 20.2011 64.6252 19.5855C64.4021 18.9707 64.2755 18.1648 64.2327 17.1785C64.2008 16.1922 64.2436 15.1002 64.3702 13.9018C64.4868 12.7033 64.678 11.4948 64.9321 10.2535C65.1762 9.0131 65.4731 7.84649 65.8337 6.7327L63.9358 6.0861C63.4695 7.52866 63.087 8.98123 62.7902 10.4557C62.4823 11.9301 62.292 13.3399 62.2064 14.6868C62.1636 15.3015 62.1426 15.949 62.1536 16.6484C62.1536 17.3488 62.2064 18.0373 62.3129 18.7166C62.4186 19.3951 62.5889 20.0208 62.822 20.5936C63.0552 21.1664 63.363 21.6436 63.7655 22.0362C64.158 22.4177 64.6671 22.6618 65.2818 22.7465C65.8228 22.8312 66.3319 22.7574 66.8191 22.5243C67.2963 22.2911 67.7526 21.9624 68.1761 21.5489C68.6004 21.1355 68.993 20.6792 69.3317 20.1911C69.6714 19.6929 69.9683 19.2367 70.2224 18.7913C70.7952 19.3213 71.4209 19.7248 72.1103 19.9998L72.9272 18.1966C72.5875 18.0482 72.2697 17.8788 71.9837 17.6666C71.6868 17.4653 71.4218 17.2322 71.1668 16.9663C71.2415 16.8069 71.3362 16.5947 71.4637 16.3297C71.5912 16.0647 71.7178 15.7887 71.8453 15.5028H71.8471ZM71.0839 11.8226C70.9355 12.4692 70.7552 13.0849 70.543 13.6577C70.3308 14.2405 70.1086 14.7077 69.8745 15.0784C69.6623 14.7287 69.482 14.2615 69.3126 13.6677C69.1432 13.0849 69.0266 12.4592 68.9629 11.7798C68.8992 11.1114 68.9101 10.4857 69.0157 9.91379C69.0476 9.73347 69.1113 9.50033 69.207 9.19251C69.3026 8.88469 69.4401 8.60966 69.6314 8.36559C69.8226 8.12153 70.0658 8.00495 70.3736 8.0259C70.7451 8.03683 70.9992 8.22717 71.1477 8.59873C71.2961 8.95937 71.3599 9.42565 71.3389 9.99848C71.318 10.5713 71.2333 11.186 71.0839 11.8226Z" fill="#E99C82"/>
<path d="M82.7911 8.9912V6.35107H74.3816V22.4596H82.7911V19.8195H77.5846V15.408H82.0488V12.7679H77.5846V8.99302H82.7911V8.9912Z" fill="#E99C82"/>
<path d="M93.3215 13.4454C93.7668 12.7141 93.9999 11.8653 93.9999 10.9C93.9999 9.43647 93.6284 8.31266 92.8761 7.52764C92.1339 6.74261 91.0101 6.3501 89.5147 6.3501H84.2017V22.4586H87.4046V15.5864H88.2853C88.8681 15.5864 89.3244 15.7349 89.6422 16.0318C89.7269 16.1065 89.7907 16.2012 89.8544 16.3177C90.0238 16.6146 90.1085 17.0281 90.1085 17.5581V22.4577H93.3215V17.3569C93.3215 16.6884 93.1411 16.1374 92.8014 15.724C92.4936 15.3524 92.0592 15.1411 91.5073 15.0874C91.4436 15.0664 91.3698 15.0555 91.2952 15.0555V14.9389C92.1858 14.663 92.8643 14.1648 93.3206 13.4436L93.3215 13.4454ZM89.1222 12.9044H87.4046V9.01299H89.1222C89.6313 9.01299 90.0557 9.16144 90.3945 9.4474C90.7342 9.74429 90.9035 10.2324 90.9035 10.9C90.9035 11.5675 90.7342 12.0775 90.3945 12.4054C90.0548 12.7332 89.6313 12.9035 89.1222 12.9035V12.9044Z" fill="#E99C82"/>
<path d="M113.909 11.4519C113.644 11.4628 113.379 11.4947 113.114 11.5156C113.061 11.0812 112.966 10.5612 112.849 9.97836C112.722 9.39552 112.531 8.81176 112.287 8.22891C112.033 7.65607 111.703 7.15792 111.29 6.75448C110.887 6.34102 110.367 6.09695 109.731 6.02318C109.062 5.94851 108.437 6.05506 107.865 6.331C107.292 6.61696 106.773 7.0204 106.306 7.5395C105.839 8.06953 105.415 8.67424 105.044 9.34269C104.672 10.0212 104.343 10.7106 104.057 11.4318C103.771 12.1531 103.527 12.8316 103.336 13.4782C102.912 14.8989 102.583 16.3843 102.35 17.9324C102.117 19.4916 102 20.997 102 22.4605H104.025C104.025 21.527 104.089 20.5197 104.217 19.4488C104.354 18.3778 104.534 17.3068 104.768 16.2249C105.002 15.1329 105.278 14.1038 105.606 13.1075C105.924 12.1212 106.285 11.2415 106.677 10.4774C107.08 9.70333 107.494 9.09863 107.929 8.66422C108.374 8.21889 108.83 8.00669 109.296 8.02764C109.636 8.03857 109.911 8.19703 110.145 8.50485C110.368 8.81267 110.548 9.19425 110.686 9.63959C110.835 10.0849 110.94 10.5303 111.015 10.9656C111.079 11.4109 111.132 11.7606 111.163 12.0256C110.972 12.1003 110.782 12.185 110.602 12.2797C110.421 12.3753 110.241 12.471 110.061 12.5766C109.17 13.0748 108.396 13.7751 107.738 14.6867C107.081 15.5883 106.604 16.5427 106.328 17.539C106.158 18.1965 106.084 18.865 106.104 19.5325C106.136 20.1901 106.264 20.8048 106.497 21.3667C106.72 21.9186 107.059 22.3639 107.494 22.7027C107.93 23.0415 108.47 23.2118 109.095 23.2327C109.742 23.2437 110.294 23.1052 110.75 22.8193C111.195 22.5333 111.577 22.1508 111.874 21.6845C112.182 21.2073 112.415 20.6873 112.595 20.1254C112.764 19.5735 112.903 19.0226 112.988 18.4707C113.072 17.9188 113.136 17.4316 113.179 16.9862C113.211 16.5518 113.232 16.2231 113.253 15.9999C113.328 15.183 113.349 14.3561 113.317 13.5392C113.519 13.5073 113.742 13.4864 113.964 13.4645C114.197 13.4436 114.43 13.4327 114.685 13.4536L114.706 11.4282C114.441 11.4282 114.176 11.4391 113.911 11.4492L113.909 11.4519ZM111.258 15.7258C111.226 16.4362 111.153 17.1684 111.036 17.9315C110.93 18.5253 110.792 19.0772 110.633 19.6072C110.474 20.1272 110.273 20.5507 110.019 20.8476C109.775 21.1445 109.467 21.272 109.096 21.2082C108.82 21.1654 108.608 21.017 108.46 20.7629C108.311 20.4979 108.215 20.201 108.174 19.8722C108.131 19.5325 108.121 19.2256 108.153 18.9497C108.258 17.9743 108.577 17.0727 109.107 16.224C109.648 15.3752 110.379 14.6967 111.313 14.1986C111.313 14.5064 111.302 15.0155 111.26 15.7258H111.258Z" fill="#E99C82"/>
<path d="M125.044 13.4454C125.501 12.7141 125.734 11.8653 125.734 10.9C125.734 9.43647 125.352 8.31266 124.61 7.52764C123.868 6.74261 122.744 6.3501 121.249 6.3501H115.936V22.4586H119.138V15.5864H120.019C120.602 15.5864 121.058 15.7349 121.366 16.0318C121.684 16.3287 121.843 16.8377 121.843 17.559V22.4586H125.046V17.3578C125.046 16.6893 124.877 16.1383 124.537 15.7249C124.187 15.3114 123.688 15.0883 123.032 15.0564V14.9398C123.922 14.6639 124.601 14.1657 125.046 13.4445L125.044 13.4454ZM122.128 12.4063C121.789 12.735 121.365 12.9044 120.856 12.9044H119.138V9.01299H120.856C121.365 9.01299 121.79 9.16144 122.128 9.4474C122.468 9.74429 122.637 10.2324 122.637 10.9C122.637 11.5675 122.468 12.0775 122.128 12.4054V12.4063Z" fill="#E99C82"/>
<path d="M126.412 6.35107V8.9912H130.081V22.4587H133.284V8.9912H136.933V6.35107H126.413H126.412Z" fill="#E99C82"/>
<path d="M146.519 19.8185V6.35107H143.306V22.4596H151.726V19.8195H146.52L146.519 19.8185Z" fill="#E99C82"/>
<path d="M161.757 7.36885C160.835 6.45724 159.636 6.00098 158.141 6.00098C156.646 6.00098 155.383 6.45724 154.451 7.36885C153.507 8.27045 153.04 9.57458 153.04 11.2712V17.5387C153.04 19.2244 153.506 20.5185 154.451 21.4301C155.384 22.3317 156.614 22.788 158.141 22.788C159.022 22.788 159.838 22.5967 160.591 22.2151C161.344 21.8335 161.959 21.2607 162.425 20.4975C162.891 19.7234 163.125 18.7372 163.125 17.5387V11.2712C163.125 9.57458 162.669 8.27045 161.757 7.36885ZM159.923 17.168C159.923 17.6771 159.87 18.1543 159.764 18.5787C159.658 19.0131 159.488 19.3637 159.223 19.6388C158.968 19.9038 158.608 20.0413 158.141 20.0413C157.41 20.0413 156.911 19.7763 156.646 19.2462C156.381 18.7053 156.253 18.0159 156.253 17.168V11.6328C156.253 11.1128 156.296 10.6355 156.402 10.2011C156.507 9.76673 156.688 9.4061 156.953 9.14108C157.219 8.88699 157.59 8.74857 158.077 8.74857C158.565 8.74857 158.926 8.88608 159.191 9.14108C159.456 9.4061 159.647 9.76673 159.753 10.2011C159.859 10.6355 159.922 11.1128 159.922 11.6328V17.168H159.923Z" fill="#E99C82"/>
<path d="M173.847 15.5028C173.985 15.2168 174.101 14.9727 174.197 14.7496C174.302 14.5265 174.366 14.389 174.398 14.3252C174.716 13.6149 174.971 12.8617 175.151 12.0876C175.321 11.3135 175.405 10.5604 175.395 9.83911C175.395 9.10781 175.279 8.4603 175.056 7.87746C174.843 7.30462 174.504 6.84836 174.048 6.50958C173.592 6.16989 172.998 6.01142 172.267 6.02144C171.45 6.04239 170.751 6.37115 170.178 7.01866C169.605 7.65524 169.223 8.50311 169.043 9.56408C168.874 10.4757 168.852 11.3991 168.968 12.3317C169.085 13.2652 169.308 14.1558 169.647 15.0037C169.976 15.8416 170.368 16.5838 170.813 17.2094C170.697 17.4107 170.528 17.7185 170.304 18.111C170.071 18.5035 169.816 18.9061 169.519 19.3095C169.222 19.712 168.915 20.0408 168.576 20.3067C168.236 20.5717 167.897 20.6783 167.569 20.6145C167.155 20.5399 166.837 20.2011 166.625 19.5855C166.402 18.9707 166.275 18.1648 166.233 17.1785C166.201 16.1922 166.244 15.1002 166.37 13.9018C166.487 12.7033 166.678 11.4948 166.932 10.2535C167.176 9.0131 167.473 7.84649 167.834 6.7327L165.936 6.0861C165.469 7.52866 165.087 8.98123 164.79 10.4557C164.482 11.9301 164.292 13.3399 164.206 14.6868C164.164 15.3015 164.143 15.949 164.154 16.6484C164.154 17.3488 164.206 18.0373 164.313 18.7166C164.419 19.3951 164.589 20.0208 164.822 20.5936C165.055 21.1664 165.363 21.6436 165.765 22.0362C166.158 22.4177 166.667 22.6618 167.282 22.7465C167.823 22.8312 168.332 22.7574 168.819 22.5243C169.296 22.2911 169.753 21.9624 170.176 21.5489C170.6 21.1355 170.993 20.6792 171.332 20.1911C171.671 19.6929 171.968 19.2367 172.222 18.7913C172.795 19.3213 173.421 19.7248 174.11 19.9998L174.927 18.1966C174.587 18.0482 174.27 17.8788 173.984 17.6666C173.687 17.4653 173.422 17.2322 173.167 16.9663C173.241 16.8069 173.336 16.5947 173.464 16.3297C173.591 16.0647 173.718 15.7887 173.845 15.5028H173.847ZM173.084 11.8226C172.935 12.4692 172.755 13.0849 172.543 13.6577C172.331 14.2405 172.108 14.7077 171.874 15.0784C171.662 14.7287 171.482 14.2615 171.313 13.6677C171.143 13.0849 171.027 12.4592 170.963 11.7798C170.899 11.1114 170.91 10.4857 171.016 9.91379C171.048 9.73347 171.111 9.50033 171.207 9.19251C171.303 8.88469 171.44 8.60966 171.631 8.36559C171.823 8.12153 172.066 8.00495 172.374 8.0259C172.745 8.03683 172.999 8.22717 173.148 8.59873C173.296 8.95937 173.36 9.42565 173.339 9.99848C173.318 10.5713 173.233 11.186 173.084 11.8226Z" fill="#E99C82"/>
<path d="M184.791 8.9912V6.35107H176.382V22.4596H184.791V19.8195H179.585V15.408H184.049V12.7679H179.585V8.99302H184.791V8.9912Z" fill="#E99C82"/>
<path d="M195.321 13.4454C195.767 12.7141 196 11.8653 196 10.9C196 9.43647 195.628 8.31266 194.876 7.52764C194.134 6.74261 193.01 6.3501 191.515 6.3501H186.202V22.4586H189.405V15.5864H190.285C190.868 15.5864 191.324 15.7349 191.642 16.0318C191.727 16.1065 191.791 16.2012 191.854 16.3177C192.024 16.6146 192.108 17.0281 192.108 17.5581V22.4577H195.321V17.3569C195.321 16.6884 195.141 16.1374 194.801 15.724C194.494 15.3524 194.059 15.1411 193.507 15.0874C193.444 15.0664 193.37 15.0555 193.295 15.0555V14.9389C194.186 14.663 194.864 14.1648 195.32 13.4436L195.321 13.4454ZM191.122 12.9044H189.405V9.01299H191.122C191.631 9.01299 192.056 9.16144 192.394 9.4474C192.734 9.74429 192.903 10.2324 192.903 10.9C192.903 11.5675 192.734 12.0775 192.394 12.4054C192.055 12.7332 191.631 12.9035 191.122 12.9035V12.9044Z" fill="#E99C82"/>
<path d="M215.909 11.4519C215.644 11.4628 215.379 11.4947 215.114 11.5156C215.061 11.0812 214.966 10.5612 214.849 9.97836C214.722 9.39552 214.531 8.81176 214.287 8.22891C214.033 7.65607 213.703 7.15792 213.29 6.75448C212.887 6.34102 212.367 6.09695 211.731 6.02318C211.062 5.94851 210.437 6.05506 209.865 6.331C209.292 6.61696 208.773 7.0204 208.306 7.5395C207.839 8.06953 207.415 8.67424 207.043 9.34269C206.672 10.0212 206.343 10.7106 206.057 11.4318C205.771 12.1531 205.527 12.8316 205.336 13.4782C204.911 14.8989 204.583 16.3843 204.35 17.9324C204.116 19.4916 204 20.997 204 22.4605H206.025C206.025 21.527 206.089 20.5197 206.217 19.4488C206.354 18.3778 206.534 17.3068 206.768 16.2249C207.002 15.1329 207.277 14.1038 207.606 13.1075C207.924 12.1212 208.285 11.2415 208.677 10.4774C209.08 9.70333 209.494 9.09863 209.929 8.66422C210.374 8.21889 210.83 8.00669 211.296 8.02764C211.636 8.03857 211.911 8.19703 212.145 8.50485C212.368 8.81267 212.548 9.19425 212.686 9.63959C212.835 10.0849 212.94 10.5303 213.015 10.9656C213.079 11.4109 213.131 11.7606 213.163 12.0256C212.972 12.1003 212.782 12.185 212.601 12.2797C212.421 12.3753 212.241 12.471 212.061 12.5766C211.17 13.0748 210.396 13.7751 209.738 14.6867C209.081 15.5883 208.603 16.5427 208.328 17.539C208.158 18.1965 208.083 18.865 208.104 19.5325C208.136 20.1901 208.264 20.8048 208.497 21.3667C208.72 21.9186 209.059 22.3639 209.494 22.7027C209.929 23.0415 210.47 23.2118 211.095 23.2327C211.742 23.2437 212.294 23.1052 212.75 22.8193C213.195 22.5333 213.577 22.1508 213.874 21.6845C214.182 21.2073 214.415 20.6873 214.595 20.1254C214.764 19.5735 214.903 19.0226 214.988 18.4707C215.072 17.9188 215.136 17.4316 215.179 16.9862C215.211 16.5518 215.232 16.2231 215.253 15.9999C215.328 15.183 215.349 14.3561 215.317 13.5392C215.518 13.5073 215.742 13.4864 215.964 13.4645C216.197 13.4436 216.43 13.4327 216.685 13.4536L216.706 11.4282C216.441 11.4282 216.176 11.4391 215.911 11.4492L215.909 11.4519ZM213.258 15.7258C213.226 16.4362 213.152 17.1684 213.036 17.9315C212.93 18.5253 212.792 19.0772 212.633 19.6072C212.474 20.1272 212.273 20.5507 212.019 20.8476C211.775 21.1445 211.467 21.272 211.096 21.2082C210.82 21.1654 210.608 21.017 210.459 20.7629C210.311 20.4979 210.215 20.201 210.174 19.8722C210.131 19.5325 210.121 19.2256 210.153 18.9497C210.258 17.9743 210.577 17.0727 211.107 16.224C211.648 15.3752 212.379 14.6967 213.313 14.1986C213.313 14.5064 213.302 15.0155 213.26 15.7258H213.258Z" fill="#E99C82"/>
<path d="M227.044 13.4454C227.501 12.7141 227.734 11.8653 227.734 10.9C227.734 9.43647 227.352 8.31266 226.61 7.52764C225.868 6.74261 224.744 6.3501 223.249 6.3501H217.935V22.4586H221.138V15.5864H222.019C222.602 15.5864 223.058 15.7349 223.366 16.0318C223.684 16.3287 223.843 16.8377 223.843 17.559V22.4586H227.046V17.3578C227.046 16.6893 226.877 16.1383 226.537 15.7249C226.187 15.3114 225.688 15.0883 225.032 15.0564V14.9398C225.922 14.6639 226.601 14.1657 227.046 13.4445L227.044 13.4454ZM224.128 12.4063C223.789 12.735 223.365 12.9044 222.856 12.9044H221.138V9.01299H222.856C223.365 9.01299 223.789 9.16144 224.128 9.4474C224.468 9.74429 224.637 10.2324 224.637 10.9C224.637 11.5675 224.468 12.0775 224.128 12.4054V12.4063Z" fill="#E99C82"/>
<path d="M228.412 6.35107V8.9912H232.081V22.4587H235.284V8.9912H238.933V6.35107H228.413H228.412Z" fill="#E99C82"/>
<path d="M248.519 19.8185V6.35107H245.306V22.4596H253.726V19.8195H248.52L248.519 19.8185Z" fill="#E99C82"/>
<path d="M263.757 7.36885C262.835 6.45724 261.636 6.00098 260.141 6.00098C258.646 6.00098 257.383 6.45724 256.451 7.36885C255.507 8.27045 255.04 9.57458 255.04 11.2712V17.5387C255.04 19.2244 255.506 20.5185 256.451 21.4301C257.384 22.3317 258.614 22.788 260.141 22.788C261.022 22.788 261.838 22.5967 262.591 22.2151C263.344 21.8335 263.959 21.2607 264.425 20.4975C264.891 19.7234 265.125 18.7372 265.125 17.5387V11.2712C265.125 9.57458 264.669 8.27045 263.757 7.36885ZM261.923 17.168C261.923 17.6771 261.87 18.1543 261.764 18.5787C261.658 19.0131 261.488 19.3637 261.223 19.6388C260.968 19.9038 260.608 20.0413 260.141 20.0413C259.41 20.0413 258.911 19.7763 258.646 19.2462C258.381 18.7053 258.253 18.0159 258.253 17.168V11.6328C258.253 11.1128 258.296 10.6355 258.402 10.2011C258.507 9.76673 258.688 9.4061 258.953 9.14108C259.218 8.88699 259.59 8.74857 260.077 8.74857C260.564 8.74857 260.926 8.88608 261.191 9.14108C261.456 9.4061 261.647 9.76673 261.753 10.2011C261.859 10.6355 261.922 11.1128 261.922 11.6328V17.168H261.923Z" fill="#E99C82"/>
<path d="M275.847 15.5028C275.984 15.2168 276.101 14.9727 276.197 14.7496C276.302 14.5265 276.366 14.389 276.398 14.3252C276.716 13.6149 276.971 12.8617 277.151 12.0876C277.32 11.3135 277.405 10.5604 277.395 9.83911C277.395 9.10781 277.279 8.4603 277.055 7.87746C276.843 7.30462 276.504 6.84836 276.048 6.50958C275.592 6.16989 274.998 6.01142 274.267 6.02144C273.45 6.04239 272.751 6.37115 272.178 7.01866C271.605 7.65524 271.223 8.50311 271.043 9.56408C270.874 10.4757 270.852 11.3991 270.968 12.3317C271.085 13.2652 271.308 14.1558 271.647 15.0037C271.976 15.8416 272.368 16.5838 272.813 17.2094C272.697 17.4107 272.527 17.7185 272.304 18.111C272.071 18.5035 271.816 18.9061 271.519 19.3095C271.222 19.712 270.915 20.0408 270.576 20.3067C270.236 20.5717 269.897 20.6783 269.569 20.6145C269.155 20.5399 268.837 20.2011 268.625 19.5855C268.402 18.9707 268.275 18.1648 268.233 17.1785C268.201 16.1922 268.244 15.1002 268.37 13.9018C268.487 12.7033 268.678 11.4948 268.932 10.2535C269.176 9.0131 269.473 7.84649 269.834 6.7327L267.936 6.0861C267.469 7.52866 267.087 8.98123 266.79 10.4557C266.482 11.9301 266.292 13.3399 266.206 14.6868C266.163 15.3015 266.143 15.949 266.153 16.6484C266.153 17.3488 266.206 18.0373 266.313 18.7166C266.418 19.3951 266.589 20.0208 266.822 20.5936C267.055 21.1664 267.363 21.6436 267.765 22.0362C268.158 22.4177 268.667 22.6618 269.282 22.7465C269.823 22.8312 270.332 22.7574 270.819 22.5243C271.296 22.2911 271.752 21.9624 272.176 21.5489C272.6 21.1355 272.993 20.6792 273.332 20.1911C273.671 19.6929 273.968 19.2367 274.222 18.7913C274.795 19.3213 275.421 19.7248 276.11 19.9998L276.927 18.1966C276.587 18.0482 276.27 17.8788 275.984 17.6666C275.687 17.4653 275.422 17.2322 275.167 16.9663C275.241 16.8069 275.336 16.5947 275.464 16.3297C275.591 16.0647 275.718 15.7887 275.845 15.5028H275.847ZM275.084 11.8226C274.935 12.4692 274.755 13.0849 274.543 13.6577C274.331 14.2405 274.108 14.7077 273.874 15.0784C273.662 14.7287 273.482 14.2615 273.312 13.6677C273.143 13.0849 273.027 12.4592 272.963 11.7798C272.899 11.1114 272.91 10.4857 273.016 9.91379C273.047 9.73347 273.111 9.50033 273.207 9.19251C273.302 8.88469 273.44 8.60966 273.631 8.36559C273.822 8.12153 274.066 8.00495 274.373 8.0259C274.745 8.03683 274.999 8.22717 275.148 8.59873C275.296 8.95937 275.36 9.42565 275.339 9.99848C275.318 10.5713 275.233 11.186 275.084 11.8226Z" fill="#E99C82"/>
<path d="M286.791 8.9912V6.35107H278.382V22.4596H286.791V19.8195H281.584V15.408H286.049V12.7679H281.584V8.99302H286.791V8.9912Z" fill="#E99C82"/>
<path d="M297.321 13.4454C297.767 12.7141 298 11.8653 298 10.9C298 9.43647 297.628 8.31266 296.876 7.52764C296.134 6.74261 295.01 6.3501 293.515 6.3501H288.202V22.4586H291.405V15.5864H292.285C292.868 15.5864 293.324 15.7349 293.642 16.0318C293.727 16.1065 293.791 16.2012 293.854 16.3177C294.024 16.6146 294.108 17.0281 294.108 17.5581V22.4577H297.321V17.3569C297.321 16.6884 297.141 16.1374 296.801 15.724C296.494 15.3524 296.059 15.1411 295.507 15.0874C295.443 15.0664 295.37 15.0555 295.295 15.0555V14.9389C296.186 14.663 296.864 14.1648 297.32 13.4436L297.321 13.4454ZM293.122 12.9044H291.405V9.01299H293.122C293.631 9.01299 294.056 9.16144 294.394 9.4474C294.734 9.74429 294.903 10.2324 294.903 10.9C294.903 11.5675 294.734 12.0775 294.394 12.4054C294.055 12.7332 293.631 12.9035 293.122 12.9035V12.9044Z" fill="#E99C82"/>
<path d="M3.9092 33.4519C3.64419 33.4628 3.37917 33.4947 3.11416 33.5156C3.06134 33.0812 2.96571 32.5612 2.84914 31.9784C2.72164 31.3955 2.53131 30.8118 2.28724 30.2289C2.03315 29.6561 1.70348 29.1579 1.29002 28.7545C0.887488 28.341 0.367476 28.097 -0.269105 28.0232C-0.937561 27.9485 -1.56321 28.0551 -2.13514 28.331C-2.70797 28.617 -3.22707 29.0204 -3.69426 29.5395C-4.16054 30.0695 -4.58493 30.6742 -4.95649 31.3427C-5.32806 32.0212 -5.65682 32.7106 -5.94278 33.4318C-6.22874 34.1531 -6.47281 34.8316 -6.66406 35.4782C-7.08845 36.8989 -7.41721 38.3843 -7.65035 39.9324C-7.88349 41.4916 -8.00006 42.997 -8.00006 44.4605H-5.97466C-5.97466 43.527 -5.91091 42.5197 -5.78341 41.4488C-5.64589 40.3778 -5.46558 39.3068 -5.23152 38.2249C-4.99838 37.1329 -4.72244 36.1038 -4.39368 35.1075C-4.07584 34.1212 -3.7152 33.2415 -3.32269 32.4774C-2.92016 31.7033 -2.50579 31.0986 -2.07139 30.6642C-1.62605 30.2189 -1.16979 30.0067 -0.703509 30.0276C-0.363817 30.0386 -0.0887856 30.197 0.145265 30.5048C0.368387 30.8127 0.547796 31.1943 0.686223 31.6396C0.834667 32.0849 0.940309 32.5303 1.01499 32.9656C1.07874 33.4109 1.13156 33.7606 1.16343 34.0256C0.972184 34.1003 0.781846 34.185 0.601526 34.2797C0.421207 34.3753 0.24089 34.471 0.0605707 34.5766C-0.830097 35.0748 -1.6042 35.7751 -2.26172 36.6867C-2.91925 37.5883 -3.39646 38.5427 -3.6724 39.539C-3.84179 40.1965 -3.91647 40.865 -3.89552 41.5325C-3.86365 42.1901 -3.73615 42.8048 -3.50301 43.3667C-3.27989 43.9186 -2.94111 44.3639 -2.50579 44.7027C-2.07048 45.0415 -1.53043 45.2118 -0.904775 45.2327C-0.258176 45.2437 0.29371 45.1052 0.749971 44.8193C1.1953 44.5333 1.57689 44.1508 1.87378 43.6845C2.1816 43.2073 2.41474 42.6873 2.59505 42.1254C2.76445 41.5735 2.90287 41.0226 2.98757 40.4707C3.07226 39.9188 3.13601 39.4316 3.17882 38.9862C3.21069 38.5518 3.23164 38.2231 3.25349 37.9999C3.32817 37.183 3.34912 36.3561 3.31724 35.5392C3.51851 35.5073 3.74163 35.4864 3.96384 35.4645C4.19698 35.4436 4.43012 35.4327 4.68512 35.4536L4.70607 33.4282C4.44105 33.4282 4.17604 33.4391 3.91102 33.4492L3.9092 33.4519ZM1.25814 37.7258C1.22627 38.4362 1.1525 39.1684 1.03593 39.9315C0.93029 40.5253 0.791864 41.0772 0.633402 41.6072C0.474029 42.1272 0.272763 42.5507 0.0186777 42.8476C-0.225391 43.1445 -0.533209 43.272 -0.903865 43.2082C-1.17981 43.1654 -1.392 43.017 -1.54045 42.7629C-1.68889 42.4979 -1.78451 42.201 -1.82641 41.8722C-1.86921 41.5325 -1.87923 41.2256 -1.84735 40.9497C-1.74171 39.9743 -1.42296 39.0727 -0.892936 38.224C-0.351978 37.3752 0.379316 36.6967 1.31279 36.1986C1.31279 36.5064 1.30186 37.0155 1.25997 37.7258H1.25814Z" fill="#E99C82"/>
<path d="M15.0444 35.4454C15.5007 34.7141 15.7338 33.8653 15.7338 32.9C15.7338 31.4365 15.3522 30.3127 14.61 29.5276C13.8678 28.7426 12.744 28.3501 11.2486 28.3501H5.93555V44.4586H9.13849V37.5864H10.0191C10.602 37.5864 11.0582 37.7349 11.3661 38.0318C11.6839 38.3287 11.8433 38.8377 11.8433 39.559V44.4586H15.0462V39.3578C15.0462 38.6893 14.8768 38.1383 14.5371 37.7249C14.1874 37.3114 13.6884 37.0883 13.0317 37.0564V36.9398C13.9224 36.6639 14.6009 36.1657 15.0462 35.4445L15.0444 35.4454ZM12.1283 34.4063C11.7886 34.735 11.3652 34.9044 10.8561 34.9044H9.13849V31.013H10.8561C11.3652 31.013 11.7895 31.1614 12.1283 31.4474C12.468 31.7443 12.6374 32.2324 12.6374 32.9C12.6374 33.5675 12.468 34.0775 12.1283 34.4054V34.4063Z" fill="#E99C82"/>
<path d="M16.4123 28.3511V30.9912H20.0815V44.4587H23.2844V30.9912H26.9327V28.3511H16.4132H16.4123Z" fill="#E99C82"/>
<path d="M36.5187 41.8185V28.3511H33.3057V44.4596H41.7261V41.8195H36.5196L36.5187 41.8185Z" fill="#E99C82"/>
<path d="M51.7575 29.3689C50.8349 28.4572 49.6364 28.001 48.1411 28.001C46.6457 28.001 45.3834 28.4572 44.4509 29.3689C43.5074 30.2704 43.0402 31.5746 43.0402 33.2712V39.5387C43.0402 41.2244 43.5065 42.5185 44.4509 43.4301C45.3844 44.3317 46.6138 44.788 48.1411 44.788C49.0217 44.788 49.8377 44.5967 50.5908 44.2151C51.344 43.8335 51.9587 43.2607 52.425 42.4975C52.8913 41.7234 53.1253 40.7372 53.1253 39.5387V33.2712C53.1253 31.5746 52.6691 30.2704 51.7575 29.3689ZM49.9233 39.168C49.9233 39.6771 49.8705 40.1543 49.7639 40.5787C49.6583 41.0131 49.488 41.3637 49.223 41.6388C48.968 41.9038 48.6082 42.0413 48.1411 42.0413C47.4098 42.0413 46.9107 41.7763 46.6457 41.2462C46.3807 40.7053 46.2532 40.0159 46.2532 39.168V33.6328C46.2532 33.1128 46.296 32.6355 46.4016 32.2011C46.5073 31.7667 46.6876 31.4061 46.9535 31.1411C47.2185 30.887 47.5901 30.7486 48.0773 30.7486C48.5645 30.7486 48.9261 30.8861 49.1911 31.1411C49.4561 31.4061 49.6474 31.7667 49.753 32.2011C49.8586 32.6355 49.9224 33.1128 49.9224 33.6328V39.168H49.9233Z" fill="#E99C82"/>
<path d="M63.847 37.5028C63.9845 37.2168 64.1011 36.9727 64.1967 36.7496C64.3024 36.5265 64.3661 36.389 64.398 36.3252C64.7158 35.6149 64.9708 34.8617 65.1512 34.0876C65.3206 33.3135 65.4052 32.5604 65.3952 31.8391C65.3952 31.1078 65.2787 30.4603 65.0555 29.8775C64.8433 29.3046 64.5036 28.8484 64.0483 28.5096C63.592 28.1699 62.9983 28.0114 62.267 28.0214C61.4501 28.0424 60.7506 28.3712 60.1778 29.0187C59.605 29.6552 59.2234 30.5031 59.0431 31.5641C58.8737 32.4757 58.8518 33.3991 58.9684 34.3317C59.085 35.2652 59.3081 36.1558 59.6469 37.0037C59.9756 37.8416 60.3681 38.5838 60.8135 39.2094C60.6969 39.4107 60.5275 39.7185 60.3044 40.111C60.0713 40.5035 59.8163 40.9061 59.5194 41.3095C59.2225 41.712 58.9147 42.0408 58.5759 42.3067C58.2362 42.5717 57.8974 42.6783 57.5686 42.6145C57.1552 42.5399 56.8374 42.2011 56.6252 41.5855C56.402 40.9707 56.2755 40.1648 56.2326 39.1785C56.2008 38.1922 56.2436 37.1002 56.3702 35.9018C56.4867 34.7033 56.678 33.4948 56.9321 32.2535C57.1761 31.0131 57.473 29.8465 57.8337 28.7327L55.9358 28.0861C55.4695 29.5287 55.087 30.9812 54.7901 32.4557C54.4823 33.9301 54.2919 35.3399 54.2063 36.6868C54.1635 37.3015 54.1426 37.949 54.1535 38.6484C54.1535 39.3488 54.2063 40.0373 54.3129 40.7166C54.4185 41.3951 54.5888 42.0208 54.822 42.5936C55.0551 43.1664 55.3629 43.6436 55.7655 44.0362C56.158 44.4177 56.6671 44.6618 57.2818 44.7465C57.8227 44.8312 58.3318 44.7574 58.819 44.5243C59.2962 44.2911 59.7525 43.9624 60.176 43.5489C60.6004 43.1355 60.9929 42.6792 61.3317 42.1911C61.6714 41.6929 61.9683 41.2367 62.2223 40.7913C62.7952 41.3213 63.4208 41.7248 64.1102 41.9998L64.9271 40.1966C64.5874 40.0482 64.2696 39.8788 63.9836 39.6666C63.6867 39.4653 63.4217 39.2322 63.1667 38.9663C63.2414 38.8069 63.3361 38.5947 63.4636 38.3297C63.5911 38.0647 63.7177 37.7887 63.8452 37.5028H63.847ZM63.0839 33.8226C62.9354 34.4692 62.7551 35.0849 62.5429 35.6577C62.3307 36.2405 62.1085 36.7077 61.8744 37.0784C61.6623 36.7287 61.4819 36.2615 61.3125 35.6677C61.1432 35.0849 61.0266 34.4592 60.9628 33.7798C60.8991 33.1114 60.91 32.4857 61.0157 31.9138C61.0475 31.7335 61.1113 31.5003 61.2069 31.1925C61.3025 30.8847 61.44 30.6097 61.6313 30.3656C61.8225 30.1215 62.0657 30.005 62.3735 30.0259C62.7451 30.0368 62.9992 30.2272 63.1476 30.5987C63.2961 30.9594 63.3598 31.4256 63.3389 31.9985C63.3179 32.5713 63.2332 33.186 63.0839 33.8226Z" fill="#E99C82"/>
<path d="M74.791 30.9912V28.3511H66.3816V44.4596H74.791V41.8195H69.5845V37.408H74.0488V34.7679H69.5845V30.993H74.791V30.9912Z" fill="#E99C82"/>
<path d="M85.3214 35.4454C85.7667 34.7141 85.9999 33.8653 85.9999 32.9C85.9999 31.4365 85.6283 30.3127 84.8761 29.5276C84.1338 28.7426 83.01 28.3501 81.5147 28.3501H76.2016V44.4586H79.4046V37.5864H80.2852C80.8681 37.5864 81.3243 37.7349 81.6422 38.0318C81.7269 38.1065 81.7906 38.2012 81.8544 38.3177C82.0237 38.6146 82.1084 39.0281 82.1084 39.5581V44.4577H85.3214V39.3569C85.3214 38.6884 85.1411 38.1374 84.8014 37.724C84.4936 37.3524 84.0592 37.1411 83.5073 37.0874C83.4435 37.0664 83.3698 37.0555 83.2951 37.0555V36.9389C84.1858 36.663 84.8642 36.1648 85.3205 35.4436L85.3214 35.4454ZM81.1221 34.9044H79.4046V31.013H81.1221C81.6312 31.013 82.0556 31.1614 82.3944 31.4474C82.7341 31.7443 82.9035 32.2324 82.9035 32.9C82.9035 33.5675 82.7341 34.0775 82.3944 34.4054C82.0547 34.7332 81.6312 34.9035 81.1221 34.9035V34.9044Z" fill="#E99C82"/>
<path d="M105.909 33.4519C105.644 33.4628 105.379 33.4947 105.114 33.5156C105.061 33.0812 104.966 32.5612 104.849 31.9784C104.722 31.3955 104.531 30.8118 104.287 30.2289C104.033 29.6561 103.703 29.1579 103.29 28.7545C102.887 28.341 102.367 28.097 101.731 28.0232C101.062 27.9485 100.437 28.0551 99.8648 28.331C99.292 28.617 98.7729 29.0204 98.3057 29.5395C97.8394 30.0695 97.415 30.6742 97.0434 31.3427C96.6719 32.0212 96.3431 32.7106 96.0572 33.4318C95.7712 34.1531 95.5271 34.8316 95.3359 35.4782C94.9115 36.8989 94.5827 38.3843 94.3496 39.9324C94.1164 41.4916 93.9999 42.997 93.9999 44.4605H96.0253C96.0253 43.527 96.089 42.5197 96.2165 41.4488C96.354 40.3778 96.5344 39.3068 96.7684 38.2249C97.0016 37.1329 97.2775 36.1038 97.6063 35.1075C97.9241 34.1212 98.2847 33.2415 98.6772 32.4774C99.0798 31.7033 99.4941 31.0986 99.9286 30.6642C100.374 30.2189 100.83 30.0067 101.296 30.0276C101.636 30.0386 101.911 30.197 102.145 30.5048C102.368 30.8127 102.548 31.1943 102.686 31.6396C102.835 32.0849 102.94 32.5303 103.015 32.9656C103.079 33.4109 103.131 33.7606 103.163 34.0256C102.972 34.1003 102.782 34.185 102.601 34.2797C102.421 34.3753 102.241 34.471 102.061 34.5766C101.17 35.0748 100.396 35.7751 99.7382 36.6867C99.0807 37.5883 98.6035 38.5427 98.3275 39.539C98.1581 40.1965 98.0835 40.865 98.1044 41.5325C98.1363 42.1901 98.2638 42.8048 98.4969 43.3667C98.7201 43.9186 99.0588 44.3639 99.4941 44.7027C99.9295 45.0415 100.47 45.2118 101.095 45.2327C101.742 45.2437 102.294 45.1052 102.75 44.8193C103.195 44.5333 103.577 44.1508 103.874 43.6845C104.182 43.2073 104.415 42.6873 104.595 42.1254C104.764 41.5735 104.903 41.0226 104.988 40.4707C105.072 39.9188 105.136 39.4316 105.179 38.9862C105.211 38.5518 105.232 38.2231 105.253 37.9999C105.328 37.183 105.349 36.3561 105.317 35.5392C105.518 35.5073 105.742 35.4864 105.964 35.4645C106.197 35.4436 106.43 35.4327 106.685 35.4536L106.706 33.4282C106.441 33.4282 106.176 33.4391 105.911 33.4492L105.909 33.4519ZM103.258 37.7258C103.226 38.4362 103.152 39.1684 103.036 39.9315C102.93 40.5253 102.792 41.0772 102.633 41.6072C102.474 42.1272 102.273 42.5507 102.019 42.8476C101.775 43.1445 101.467 43.272 101.096 43.2082C100.82 43.1654 100.608 43.017 100.459 42.7629C100.311 42.4979 100.215 42.201 100.174 41.8722C100.131 41.5325 100.121 41.2256 100.153 40.9497C100.258 39.9743 100.577 39.0727 101.107 38.224C101.648 37.3752 102.379 36.6967 103.313 36.1986C103.313 36.5064 103.302 37.0155 103.26 37.7258H103.258Z" fill="#E99C82"/>
<path d="M117.044 35.4454C117.501 34.7141 117.734 33.8653 117.734 32.9C117.734 31.4365 117.352 30.3127 116.61 29.5276C115.868 28.7426 114.744 28.3501 113.249 28.3501H107.935V44.4586H111.138V37.5864H112.019C112.602 37.5864 113.058 37.7349 113.366 38.0318C113.684 38.3287 113.843 38.8377 113.843 39.559V44.4586H117.046V39.3578C117.046 38.6893 116.877 38.1383 116.537 37.7249C116.187 37.3114 115.688 37.0883 115.032 37.0564V36.9398C115.922 36.6639 116.601 36.1657 117.046 35.4445L117.044 35.4454ZM114.128 34.4063C113.789 34.735 113.365 34.9044 112.856 34.9044H111.138V31.013H112.856C113.365 31.013 113.789 31.1614 114.128 31.4474C114.468 31.7443 114.637 32.2324 114.637 32.9C114.637 33.5675 114.468 34.0775 114.128 34.4054V34.4063Z" fill="#E99C82"/>
<path d="M118.412 28.3511V30.9912H122.081V44.4587H125.284V30.9912H128.933V28.3511H118.413H118.412Z" fill="#E99C82"/>
<path d="M138.519 41.8185V28.3511H135.306V44.4596H143.726V41.8195H138.52L138.519 41.8185Z" fill="#E99C82"/>
<path d="M153.757 29.3689C152.835 28.4572 151.636 28.001 150.141 28.001C148.646 28.001 147.383 28.4572 146.451 29.3689C145.507 30.2704 145.04 31.5746 145.04 33.2712V39.5387C145.04 41.2244 145.506 42.5185 146.451 43.4301C147.384 44.3317 148.614 44.788 150.141 44.788C151.022 44.788 151.838 44.5967 152.591 44.2151C153.344 43.8335 153.959 43.2607 154.425 42.4975C154.891 41.7234 155.125 40.7372 155.125 39.5387V33.2712C155.125 31.5746 154.669 30.2704 153.757 29.3689ZM151.923 39.168C151.923 39.6771 151.87 40.1543 151.764 40.5787C151.658 41.0131 151.488 41.3637 151.223 41.6388C150.968 41.9038 150.608 42.0413 150.141 42.0413C149.41 42.0413 148.911 41.7763 148.646 41.2462C148.381 40.7053 148.253 40.0159 148.253 39.168V33.6328C148.253 33.1128 148.296 32.6355 148.402 32.2011C148.507 31.7667 148.688 31.4061 148.953 31.1411C149.218 30.887 149.59 30.7486 150.077 30.7486C150.564 30.7486 150.926 30.8861 151.191 31.1411C151.456 31.4061 151.647 31.7667 151.753 32.2011C151.859 32.6355 151.922 33.1128 151.922 33.6328V39.168H151.923Z" fill="#E99C82"/>
<path d="M165.847 37.5028C165.984 37.2168 166.101 36.9727 166.197 36.7496C166.302 36.5265 166.366 36.389 166.398 36.3252C166.716 35.6149 166.971 34.8617 167.151 34.0876C167.32 33.3135 167.405 32.5604 167.395 31.8391C167.395 31.1078 167.279 30.4603 167.055 29.8775C166.843 29.3046 166.504 28.8484 166.048 28.5096C165.592 28.1699 164.998 28.0114 164.267 28.0214C163.45 28.0424 162.751 28.3712 162.178 29.0187C161.605 29.6552 161.223 30.5031 161.043 31.5641C160.874 32.4757 160.852 33.3991 160.968 34.3317C161.085 35.2652 161.308 36.1558 161.647 37.0037C161.976 37.8416 162.368 38.5838 162.813 39.2094C162.697 39.4107 162.527 39.7185 162.304 40.111C162.071 40.5035 161.816 40.9061 161.519 41.3095C161.222 41.712 160.915 42.0408 160.576 42.3067C160.236 42.5717 159.897 42.6783 159.569 42.6145C159.155 42.5399 158.837 42.2011 158.625 41.5855C158.402 40.9707 158.275 40.1648 158.233 39.1785C158.201 38.1922 158.244 37.1002 158.37 35.9018C158.487 34.7033 158.678 33.4948 158.932 32.2535C159.176 31.0131 159.473 29.8465 159.834 28.7327L157.936 28.0861C157.469 29.5287 157.087 30.9812 156.79 32.4557C156.482 33.9301 156.292 35.3399 156.206 36.6868C156.163 37.3015 156.143 37.949 156.153 38.6484C156.153 39.3488 156.206 40.0373 156.313 40.7166C156.418 41.3951 156.589 42.0208 156.822 42.5936C157.055 43.1664 157.363 43.6436 157.765 44.0362C158.158 44.4177 158.667 44.6618 159.282 44.7465C159.823 44.8312 160.332 44.7574 160.819 44.5243C161.296 44.2911 161.752 43.9624 162.176 43.5489C162.6 43.1355 162.993 42.6792 163.332 42.1911C163.671 41.6929 163.968 41.2367 164.222 40.7913C164.795 41.3213 165.421 41.7248 166.11 41.9998L166.927 40.1966C166.587 40.0482 166.27 39.8788 165.984 39.6666C165.687 39.4653 165.422 39.2322 165.167 38.9663C165.241 38.8069 165.336 38.5947 165.464 38.3297C165.591 38.0647 165.718 37.7887 165.845 37.5028H165.847ZM165.084 33.8226C164.935 34.4692 164.755 35.0849 164.543 35.6577C164.331 36.2405 164.108 36.7077 163.874 37.0784C163.662 36.7287 163.482 36.2615 163.312 35.6677C163.143 35.0849 163.027 34.4592 162.963 33.7798C162.899 33.1114 162.91 32.4857 163.016 31.9138C163.047 31.7335 163.111 31.5003 163.207 31.1925C163.302 30.8847 163.44 30.6097 163.631 30.3656C163.822 30.1215 164.066 30.005 164.373 30.0259C164.745 30.0368 164.999 30.2272 165.148 30.5987C165.296 30.9594 165.36 31.4256 165.339 31.9985C165.318 32.5713 165.233 33.186 165.084 33.8226Z" fill="#E99C82"/>
<path d="M176.791 30.9912V28.3511H168.382V44.4596H176.791V41.8195H171.584V37.408H176.049V34.7679H171.584V30.993H176.791V30.9912Z" fill="#E99C82"/>
<path d="M187.321 35.4454C187.767 34.7141 188 33.8653 188 32.9C188 31.4365 187.628 30.3127 186.876 29.5276C186.134 28.7426 185.01 28.3501 183.515 28.3501H178.202V44.4586H181.405V37.5864H182.285C182.868 37.5864 183.324 37.7349 183.642 38.0318C183.727 38.1065 183.791 38.2012 183.854 38.3177C184.024 38.6146 184.108 39.0281 184.108 39.5581V44.4577H187.321V39.3569C187.321 38.6884 187.141 38.1374 186.801 37.724C186.494 37.3524 186.059 37.1411 185.507 37.0874C185.443 37.0664 185.37 37.0555 185.295 37.0555V36.9389C186.186 36.663 186.864 36.1648 187.32 35.4436L187.321 35.4454ZM183.122 34.9044H181.405V31.013H183.122C183.631 31.013 184.056 31.1614 184.394 31.4474C184.734 31.7443 184.903 32.2324 184.903 32.9C184.903 33.5675 184.734 34.0775 184.394 34.4054C184.055 34.7332 183.631 34.9035 183.122 34.9035V34.9044Z" fill="#E99C82"/>
<path d="M207.909 33.4519C207.644 33.4628 207.379 33.4947 207.114 33.5156C207.061 33.0812 206.966 32.5612 206.849 31.9784C206.722 31.3955 206.531 30.8118 206.287 30.2289C206.033 29.6561 205.703 29.1579 205.29 28.7545C204.887 28.341 204.367 28.097 203.731 28.0232C203.062 27.9485 202.437 28.0551 201.865 28.331C201.292 28.617 200.773 29.0204 200.306 29.5395C199.839 30.0695 199.415 30.6742 199.043 31.3427C198.672 32.0212 198.343 32.7106 198.057 33.4318C197.771 34.1531 197.527 34.8316 197.336 35.4782C196.911 36.8989 196.583 38.3843 196.35 39.9324C196.116 41.4916 196 42.997 196 44.4605H198.025C198.025 43.527 198.089 42.5197 198.216 41.4488C198.354 40.3778 198.534 39.3068 198.768 38.2249C199.001 37.1329 199.277 36.1038 199.606 35.1075C199.924 34.1212 200.285 33.2415 200.677 32.4774C201.08 31.7033 201.494 31.0986 201.928 30.6642C202.374 30.2189 202.83 30.0067 203.296 30.0276C203.636 30.0386 203.911 30.197 204.145 30.5048C204.368 30.8127 204.548 31.1943 204.686 31.6396C204.835 32.0849 204.94 32.5303 205.015 32.9656C205.079 33.4109 205.131 33.7606 205.163 34.0256C204.972 34.1003 204.782 34.185 204.601 34.2797C204.421 34.3753 204.241 34.471 204.06 34.5766C203.17 35.0748 202.396 35.7751 201.738 36.6867C201.081 37.5883 200.603 38.5427 200.327 39.539C200.158 40.1965 200.083 40.865 200.104 41.5325C200.136 42.1901 200.264 42.8048 200.497 43.3667C200.72 43.9186 201.059 44.3639 201.494 44.7027C201.929 45.0415 202.469 45.2118 203.095 45.2327C203.742 45.2437 204.294 45.1052 204.75 44.8193C205.195 44.5333 205.577 44.1508 205.874 43.6845C206.181 43.2073 206.415 42.6873 206.595 42.1254C206.764 41.5735 206.903 41.0226 206.987 40.4707C207.072 39.9188 207.136 39.4316 207.179 38.9862C207.211 38.5518 207.232 38.2231 207.253 37.9999C207.328 37.183 207.349 36.3561 207.317 35.5392C207.518 35.5073 207.742 35.4864 207.964 35.4645C208.197 35.4436 208.43 35.4327 208.685 35.4536L208.706 33.4282C208.441 33.4282 208.176 33.4391 207.911 33.4492L207.909 33.4519ZM205.258 37.7258C205.226 38.4362 205.152 39.1684 205.036 39.9315C204.93 40.5253 204.792 41.0772 204.633 41.6072C204.474 42.1272 204.273 42.5507 204.019 42.8476C203.774 43.1445 203.467 43.272 203.096 43.2082C202.82 43.1654 202.608 43.017 202.459 42.7629C202.311 42.4979 202.215 42.201 202.173 41.8722C202.131 41.5325 202.121 41.2256 202.153 40.9497C202.258 39.9743 202.577 39.0727 203.107 38.224C203.648 37.3752 204.379 36.6967 205.313 36.1986C205.313 36.5064 205.302 37.0155 205.26 37.7258H205.258Z" fill="#E99C82"/>
<path d="M219.044 35.4454C219.501 34.7141 219.734 33.8653 219.734 32.9C219.734 31.4365 219.352 30.3127 218.61 29.5276C217.868 28.7426 216.744 28.3501 215.248 28.3501H209.935V44.4586H213.138V37.5864H214.019C214.602 37.5864 215.058 37.7349 215.366 38.0318C215.684 38.3287 215.843 38.8377 215.843 39.559V44.4586H219.046V39.3578C219.046 38.6893 218.877 38.1383 218.537 37.7249C218.187 37.3114 217.688 37.0883 217.032 37.0564V36.9398C217.922 36.6639 218.601 36.1657 219.046 35.4445L219.044 35.4454ZM216.128 34.4063C215.789 34.735 215.365 34.9044 214.856 34.9044H213.138V31.013H214.856C215.365 31.013 215.789 31.1614 216.128 31.4474C216.468 31.7443 216.637 32.2324 216.637 32.9C216.637 33.5675 216.468 34.0775 216.128 34.4054V34.4063Z" fill="#E99C82"/>
<path d="M220.412 28.3511V30.9912H224.081V44.4587H227.284V30.9912H230.933V28.3511H220.413H220.412Z" fill="#E99C82"/>
<path d="M240.519 41.8185V28.3511H237.306V44.4596H245.726V41.8195H240.519L240.519 41.8185Z" fill="#E99C82"/>
<path d="M255.757 29.3689C254.835 28.4572 253.636 28.001 252.141 28.001C250.646 28.001 249.383 28.4572 248.451 29.3689C247.507 30.2704 247.04 31.5746 247.04 33.2712V39.5387C247.04 41.2244 247.506 42.5185 248.451 43.4301C249.384 44.3317 250.614 44.788 252.141 44.788C253.022 44.788 253.838 44.5967 254.591 44.2151C255.344 43.8335 255.959 43.2607 256.425 42.4975C256.891 41.7234 257.125 40.7372 257.125 39.5387V33.2712C257.125 31.5746 256.669 30.2704 255.757 29.3689ZM253.923 39.168C253.923 39.6771 253.87 40.1543 253.764 40.5787C253.658 41.0131 253.488 41.3637 253.223 41.6388C252.968 41.9038 252.608 42.0413 252.141 42.0413C251.41 42.0413 250.911 41.7763 250.646 41.2462C250.381 40.7053 250.253 40.0159 250.253 39.168V33.6328C250.253 33.1128 250.296 32.6355 250.401 32.2011C250.507 31.7667 250.687 31.4061 250.953 31.1411C251.218 30.887 251.59 30.7486 252.077 30.7486C252.564 30.7486 252.926 30.8861 253.191 31.1411C253.456 31.4061 253.647 31.7667 253.753 32.2011C253.859 32.6355 253.922 33.1128 253.922 33.6328V39.168H253.923Z" fill="#E99C82"/>
<path d="M267.847 37.5028C267.984 37.2168 268.101 36.9727 268.197 36.7496C268.302 36.5265 268.366 36.389 268.398 36.3252C268.716 35.6149 268.971 34.8617 269.151 34.0876C269.32 33.3135 269.405 32.5604 269.395 31.8391C269.395 31.1078 269.279 30.4603 269.055 29.8775C268.843 29.3046 268.504 28.8484 268.048 28.5096C267.592 28.1699 266.998 28.0114 266.267 28.0214C265.45 28.0424 264.751 28.3712 264.178 29.0187C263.605 29.6552 263.223 30.5031 263.043 31.5641C262.874 32.4757 262.852 33.3991 262.968 34.3317C263.085 35.2652 263.308 36.1558 263.647 37.0037C263.976 37.8416 264.368 38.5838 264.813 39.2094C264.697 39.4107 264.527 39.7185 264.304 40.111C264.071 40.5035 263.816 40.9061 263.519 41.3095C263.222 41.712 262.915 42.0408 262.576 42.3067C262.236 42.5717 261.897 42.6783 261.569 42.6145C261.155 42.5399 260.837 42.2011 260.625 41.5855C260.402 40.9707 260.275 40.1648 260.233 39.1785C260.201 38.1922 260.243 37.1002 260.37 35.9018C260.487 34.7033 260.678 33.4948 260.932 32.2535C261.176 31.0131 261.473 29.8465 261.834 28.7327L259.936 28.0861C259.469 29.5287 259.087 30.9812 258.79 32.4557C258.482 33.9301 258.292 35.3399 258.206 36.6868C258.163 37.3015 258.142 37.949 258.153 38.6484C258.153 39.3488 258.206 40.0373 258.313 40.7166C258.418 41.3951 258.589 42.0208 258.822 42.5936C259.055 43.1664 259.363 43.6436 259.765 44.0362C260.158 44.4177 260.667 44.6618 261.282 44.7465C261.823 44.8312 262.332 44.7574 262.819 44.5243C263.296 44.2911 263.752 43.9624 264.176 43.5489C264.6 43.1355 264.993 42.6792 265.332 42.1911C265.671 41.6929 265.968 41.2367 266.222 40.7913C266.795 41.3213 267.421 41.7248 268.11 41.9998L268.927 40.1966C268.587 40.0482 268.269 39.8788 267.984 39.6666C267.687 39.4653 267.422 39.2322 267.167 38.9663C267.241 38.8069 267.336 38.5947 267.464 38.3297C267.591 38.0647 267.718 37.7887 267.845 37.5028H267.847ZM267.084 33.8226C266.935 34.4692 266.755 35.0849 266.543 35.6577C266.331 36.2405 266.108 36.7077 265.874 37.0784C265.662 36.7287 265.482 36.2615 265.312 35.6677C265.143 35.0849 265.026 34.4592 264.963 33.7798C264.899 33.1114 264.91 32.4857 265.016 31.9138C265.047 31.7335 265.111 31.5003 265.207 31.1925C265.302 30.8847 265.44 30.6097 265.631 30.3656C265.822 30.1215 266.066 30.005 266.373 30.0259C266.745 30.0368 266.999 30.2272 267.147 30.5987C267.296 30.9594 267.36 31.4256 267.339 31.9985C267.318 32.5713 267.233 33.186 267.084 33.8226Z" fill="#E99C82"/>
<path d="M278.791 30.9912V28.3511H270.381V44.4596H278.791V41.8195H273.584V37.408H278.049V34.7679H273.584V30.993H278.791V30.9912Z" fill="#E99C82"/>
<path d="M289.321 35.4454C289.767 34.7141 290 33.8653 290 32.9C290 31.4365 289.628 30.3127 288.876 29.5276C288.134 28.7426 287.01 28.3501 285.515 28.3501H280.201V44.4586H283.404V37.5864H284.285C284.868 37.5864 285.324 37.7349 285.642 38.0318C285.727 38.1065 285.79 38.2012 285.854 38.3177C286.024 38.6146 286.108 39.0281 286.108 39.5581V44.4577H289.321V39.3569C289.321 38.6884 289.141 38.1374 288.801 37.724C288.493 37.3524 288.059 37.1411 287.507 37.0874C287.443 37.0664 287.37 37.0555 287.295 37.0555V36.9389C288.186 36.663 288.864 36.1648 289.32 35.4436L289.321 35.4454ZM285.122 34.9044H283.404V31.013H285.122C285.631 31.013 286.056 31.1614 286.394 31.4474C286.734 31.7443 286.903 32.2324 286.903 32.9C286.903 33.5675 286.734 34.0775 286.394 34.4054C286.055 34.7332 285.631 34.9035 285.122 34.9035V34.9044Z" fill="#E99C82"/>
</g>
<defs>
<clipPath id="clip0_623_6118">
<rect y="-80" width="290" height="131" rx="55" fill="white"/>
</clipPath>
</defs>
</svg>
