<svg width="197" height="48" viewBox="0 0 197 48" fill="none" xmlns="http://www.w3.org/2000/svg">
<path d="M50.5563 50.6466C49.6796 48.3699 49.4172 46.3506 49.7699 44.5885C50.1214 42.8255 50.9524 41.3862 52.2635 40.2694C53.5742 39.1537 55.1906 38.3647 57.1153 37.9018C59.0391 37.439 61.1027 37.3473 63.3038 37.6282C66.649 38.0955 70.1431 39.2748 73.787 41.1613C77.4296 43.0492 80.6385 45.4673 83.4137 48.4179C83.9725 48.997 84.5254 49.5881 85.0762 50.1984C85.6236 50.8049 86.1449 51.4337 86.6397 52.0795C87.3751 51.8325 88.3373 51.4596 89.5277 50.9615C90.7163 50.4616 91.8681 49.8417 92.9846 49.1016C94.099 48.3607 94.9455 47.5001 95.5211 46.5168C96.0964 45.5347 96.1606 44.4317 95.7121 43.2126C95.0697 41.5156 93.7804 39.9944 91.8415 38.6472C89.9031 37.3012 87.5097 36.1214 84.6629 35.1098C81.8166 34.0971 78.6974 33.2748 75.3096 32.6445C71.9209 32.0144 68.4555 31.5666 64.9151 31.3032C61.3735 31.0411 57.9298 30.9583 54.5816 31.0553C51.233 31.1535 48.1768 31.454 45.41 31.9564L42.4571 24.6773C46.7788 23.8926 51.4018 23.5058 56.3273 23.5177C61.2507 23.5289 66.1193 23.919 70.9332 24.6879C73.1122 25.0278 75.4709 25.5212 78.0062 26.1654C80.5406 26.8097 83.0753 27.6236 85.6101 28.607C88.1429 29.5919 90.5312 30.7858 92.7726 32.1914C95.0132 33.5971 96.9613 35.2542 98.6167 37.1615C100.272 39.0701 101.485 41.2571 102.253 43.7218C102.956 46.0289 103.003 48.0313 102.392 49.7279C101.781 51.4246 100.804 52.8762 99.4606 54.0836C98.1156 55.2903 96.6702 56.2741 95.1244 57.0371C93.5761 57.7983 92.1981 58.4031 90.9878 58.8498C91.4588 59.784 91.9092 60.7208 92.3374 61.6628C92.7659 62.6058 93.1718 63.5507 93.5571 64.5005L87.5602 65.5046C87.2391 64.5993 86.8815 63.7447 86.4844 62.9392C86.0872 62.1314 85.6958 61.3689 85.3105 60.646C82.9315 61.1903 80.4802 61.5517 77.9527 61.7276C77.2823 61.7921 76.2724 61.8764 74.9223 61.9806C73.5726 62.0836 72.0229 62.1249 70.2735 62.1034C68.5236 62.0808 66.6996 61.9022 64.8002 61.5687C62.8992 61.2334 61.0284 60.6525 59.1863 59.8263C57.3421 58.9994 55.6671 57.8444 54.1613 56.3636C52.6551 54.8818 51.4537 52.9768 50.5546 50.6469L50.5563 50.6466ZM61.8193 44.9488C60.9545 44.9924 60.058 45.1849 59.1274 45.5224C58.1964 45.861 57.4604 46.3624 56.9191 47.0279C56.3761 47.6914 56.2436 48.5369 56.5207 49.5625C56.8813 50.9121 57.6874 51.9561 58.9382 52.6926C60.1877 53.4281 61.7093 53.9447 63.5005 54.2427C65.2921 54.5396 67.127 54.7163 69.0057 54.7716C71.4232 54.7852 73.7082 54.6676 75.8588 54.4192C78.0082 54.1699 79.5372 53.9638 80.4457 53.7988C77.606 50.6893 74.5424 48.4001 71.2543 46.9301C67.9658 45.4592 64.8212 44.799 61.8181 44.9479L61.8193 44.9488Z" fill="#545454"/>
<path d="M156.394 45.6059C154.168 44.607 152.559 43.3583 151.569 41.859C150.577 40.3599 150.153 38.7528 150.297 37.0366C150.442 35.3214 151.033 33.6229 152.074 31.9387C153.114 30.2552 154.514 28.7368 156.274 27.386C158.978 25.3617 162.289 23.738 166.205 22.5109C170.12 21.2857 174.102 20.7423 178.15 20.8824C178.954 20.8999 179.763 20.9301 180.584 20.9755C181.4 21.0205 182.213 21.0998 183.019 21.2097C183.367 20.5165 183.787 19.574 184.282 18.3821C184.773 17.19 185.154 15.9388 185.426 14.627C185.695 13.3162 185.69 12.109 185.406 11.0055C185.123 9.90318 184.391 9.07495 183.214 8.52539C181.563 7.77308 179.576 7.60125 177.251 8.01044C174.927 8.42005 172.397 9.26819 169.664 10.555C166.93 11.8407 164.136 13.4538 161.287 15.3924C158.438 17.3317 155.663 19.4545 152.964 21.761C150.265 24.0693 147.762 26.4358 145.453 28.8628C143.145 31.2909 141.187 33.6568 139.577 35.9621L132.354 32.8742C134.869 29.2734 137.879 25.7429 141.384 22.2823C144.887 18.8228 148.618 15.6707 152.577 12.8262C154.363 11.5328 156.385 10.2219 158.639 8.89363C160.892 7.56603 163.264 6.35865 165.756 5.2715C168.248 4.18689 170.784 3.35237 173.365 2.77161C175.946 2.19156 178.496 1.99585 181.015 2.18403C183.534 2.37336 185.935 3.07166 188.217 4.27992C190.341 5.42258 191.784 6.81159 192.545 8.44582C193.307 10.0808 193.635 11.7998 193.532 13.6028C193.427 15.4067 193.094 17.1231 192.534 18.7534C191.971 20.3843 191.418 21.7842 190.874 22.9536C191.866 23.2851 192.846 23.6329 193.813 24.0001C194.781 24.3677 195.735 24.7527 196.677 25.1556L193.127 30.0919C192.262 29.6755 191.406 29.3206 190.557 29.0285C189.706 28.7348 188.891 28.4691 188.108 28.2273C186.803 30.2892 185.317 32.2722 183.647 34.1772C183.216 34.6952 182.559 35.4662 181.674 36.4911C180.788 37.5148 179.717 38.6356 178.46 39.8524C177.202 41.0688 175.781 42.2266 174.198 43.3276C172.612 44.4285 170.875 45.3336 168.985 46.0445C167.094 46.7564 165.091 47.1161 162.979 47.1254C160.866 47.1343 158.672 46.628 156.393 45.6073L156.394 45.6059ZM160.376 33.6284C159.793 34.2685 159.292 35.0365 158.869 35.9315C158.447 36.8276 158.278 37.702 158.362 38.5556C158.444 39.409 158.945 40.1026 159.864 40.6356C161.071 41.3396 162.378 41.513 163.785 41.1549C165.19 40.7971 166.634 40.0922 168.116 39.0422C169.597 37.9912 171.024 36.8243 172.396 35.5404C174.122 33.8474 175.661 32.1547 177.013 30.4636C178.363 28.7728 179.304 27.5497 179.832 26.7927C175.627 26.5852 171.839 27.1177 168.47 28.39C165.099 29.6618 162.402 31.4079 160.375 33.6287L160.376 33.6284Z" fill="#545454"/>
<path d="M22.0873 70.9716C20.1433 69.5306 18.6766 67.8401 17.6875 65.8992C16.6972 63.9585 16.1607 61.9384 16.0774 59.8375C15.9947 57.7381 16.2808 55.7013 16.9367 53.7246C17.5924 51.7488 18.5632 50.0103 19.8492 48.5124C21.8305 46.274 24.357 44.5864 27.4261 43.4446C30.4955 42.3051 33.6989 42.0119 37.0375 42.5671C37.6998 42.6647 38.3672 42.7784 39.0461 42.9118C39.7209 43.0444 40.3974 43.2189 41.0718 43.4306C41.2761 42.6093 41.5104 41.4879 41.776 40.0661C42.0395 38.6439 42.2052 37.1383 42.2738 35.5478C42.3409 33.9583 42.1948 32.4704 41.8323 31.084C41.4703 29.6991 40.7729 28.6095 39.7424 27.8212C38.2989 26.7383 36.6483 26.3388 34.7882 26.6232C32.929 26.9082 30.9523 27.714 28.8603 29.0412C26.7677 30.3668 24.6647 32.0903 22.5544 34.2094C20.4438 36.3294 18.4154 38.6825 16.4715 41.2691C14.5278 43.858 12.7516 46.5372 11.1422 49.3092C9.53325 52.0826 8.20433 54.8125 7.15357 57.5005L0.863325 53.0135C2.50458 48.8148 4.5596 44.7494 7.02957 40.8171C9.49802 36.8858 12.1896 33.3549 15.1045 30.2245C16.4185 28.7998 17.9239 27.3758 19.6172 25.9522C21.3102 24.5295 23.1155 23.2662 25.033 22.1623C26.9504 21.0614 28.9339 20.273 30.9839 19.8014C33.0336 19.3306 35.1033 19.3305 37.1923 19.8004C39.2818 20.2717 41.3345 21.359 43.3489 23.0633C45.2263 24.6719 46.5737 26.5196 47.3907 28.6051C48.2074 30.6913 48.6787 32.8404 48.806 35.052C48.9317 37.2646 48.8599 39.3478 48.5918 41.3035C48.3214 43.2596 48.0326 44.9322 47.7229 46.3215C48.5762 46.8237 49.421 47.3448 50.258 47.8887C51.0959 48.4331 51.9237 48.9975 52.7445 49.583L50.411 55.3293C49.6517 54.7345 48.9078 54.2163 48.1765 53.7761C47.4437 53.3339 46.7437 52.9295 46.073 52.5576C45.2439 54.9746 44.2576 57.2774 43.1105 59.4665C42.818 60.064 42.3689 60.9519 41.763 62.1309C41.1565 63.3085 40.4091 64.5882 39.5204 65.9685C38.6309 67.3483 37.6009 68.6405 36.431 69.8474C35.2589 71.0538 33.9396 72.0049 32.4723 72.7021C31.0036 73.4004 29.4024 73.6544 27.6704 73.4662C25.9374 73.2774 24.077 72.4463 22.0866 70.9732L22.0873 70.9716ZM23.9489 56.5911C23.5454 57.3246 23.2246 58.2235 22.9826 59.2862C22.7412 60.3504 22.705 61.4116 22.8745 62.4713C23.0419 63.5305 23.5349 64.4325 24.3516 65.1759C25.4245 66.1574 26.518 66.4946 27.6302 66.1864C28.7413 65.8783 29.8436 65.1463 30.936 63.9927C32.0279 62.8377 33.062 61.5349 34.0376 60.0828C35.2551 58.16 36.3195 56.22 37.2302 54.2643C38.1397 52.3087 38.7677 50.8906 39.1128 50.0079C35.6367 49.3547 32.5913 49.653 29.9755 50.902C27.3588 52.1504 25.3504 54.0467 23.9477 56.5913L23.9489 56.5911Z" fill="#545454"/>
<path d="M114.183 54.3058C112.186 53.008 110.635 51.4124 109.529 49.5181C108.423 47.6241 107.751 45.6083 107.515 43.4693C107.279 41.3317 107.406 39.225 107.897 37.1466C108.388 35.069 109.203 33.2057 110.343 31.5599C112.103 29.0951 114.434 27.1442 117.333 25.7023C120.233 24.2626 123.326 23.6756 126.613 23.9433C127.264 23.9836 127.922 24.0399 128.591 24.1153C129.257 24.1902 129.928 24.3078 130.599 24.4635C130.737 23.6061 130.882 22.4393 131.035 20.9628C131.185 19.4861 131.235 17.933 131.184 16.3018C131.131 14.6718 130.879 13.1647 130.424 11.7808C129.969 10.3982 129.21 9.34762 128.15 8.63465C126.666 7.65771 125.032 7.39768 123.244 7.85513C121.458 8.31315 119.596 9.31385 117.66 10.8575C115.724 12.3997 113.807 14.3492 111.912 16.7038C110.018 19.0592 108.22 21.6453 106.522 24.4625C104.824 27.282 103.296 30.1787 101.936 33.1553C100.577 36.1332 99.4878 39.0416 98.6654 41.8823L92.2172 37.8623C93.5017 33.4252 95.1983 29.0871 97.3083 24.8478C99.4168 20.6097 101.772 16.7607 104.374 13.3007C105.546 11.7272 106.904 10.1372 108.445 8.53085C109.985 6.92531 111.647 5.47259 113.429 4.17268C115.212 2.87592 117.082 1.89238 119.04 1.22662C120.998 0.561734 123.01 0.375897 125.076 0.668545C127.142 0.962623 129.219 1.88935 131.304 3.44989C133.248 4.92492 134.695 6.69186 135.644 8.74926C136.593 10.8075 137.21 12.9609 137.498 15.2091C137.784 17.4585 137.869 19.5933 137.753 21.6156C137.635 23.6384 137.478 25.3732 137.28 26.8205C138.147 27.257 139.007 27.7136 139.861 28.1941C140.716 28.6752 141.563 29.1776 142.404 29.7021L140.561 35.7826C139.779 35.243 139.017 34.7803 138.274 34.3962C137.528 34.0101 136.818 33.6598 136.138 33.34C135.511 35.8838 134.723 38.3251 133.77 40.6647C133.53 41.3014 133.159 42.2488 132.657 43.5078C132.155 44.7653 131.523 46.1398 130.762 47.6299C129.999 49.1195 129.093 50.5321 128.045 51.8702C126.995 53.208 125.783 54.298 124.408 55.1421C123.032 55.9873 121.494 56.3904 119.796 56.3536C118.097 56.3162 116.227 55.634 114.183 54.3075L114.183 54.3058ZM114.927 39.4462C114.589 40.2317 114.344 41.179 114.187 42.2865C114.032 43.3954 114.075 44.4829 114.318 45.5503C114.56 46.6175 115.106 47.4949 115.955 48.1812C117.071 49.0877 118.159 49.3341 119.218 48.9194C120.275 48.5049 121.292 47.6581 122.269 46.3815C123.245 45.1034 124.154 43.6795 124.995 42.1084C126.036 40.0347 126.927 37.957 127.667 35.8771C128.407 33.7975 128.912 32.2923 129.182 31.3595C125.754 31.004 122.815 31.5819 120.365 33.0928C117.913 34.6031 116.101 36.7208 114.926 39.4464L114.927 39.4462Z" fill="#545454"/>
</svg>
