<svg width="253" height="74" viewBox="0 0 253 74" fill="none" xmlns="http://www.w3.org/2000/svg">
<path d="M70.4413 71.3299C69.2025 68.1127 68.8318 65.2592 69.3302 62.7691C69.8268 60.2779 71.0012 58.244 72.8539 56.6658C74.706 55.0893 76.9901 53.9743 79.7099 53.3201C82.4284 52.6662 85.3444 52.5366 88.4548 52.9335C93.1819 53.594 98.1194 55.2603 103.269 57.9262C108.416 60.594 112.95 64.011 116.872 68.1805C117.662 68.9988 118.443 69.8341 119.221 70.6965C119.995 71.5535 120.732 72.4421 121.431 73.3547C122.47 73.0057 123.83 72.4787 125.512 71.7749C127.191 71.0684 128.819 70.1925 130.397 69.1466C131.971 68.0997 133.168 66.8835 133.981 65.494C134.794 64.1062 134.885 62.5476 134.251 60.8249C133.343 58.4268 131.521 56.2772 128.781 54.3736C126.042 52.4714 122.66 50.8043 118.637 49.3748C114.615 47.9437 110.208 46.7818 105.42 45.8911C100.632 45.0007 95.7347 44.3679 90.7318 43.9957C85.7271 43.6253 80.8608 43.5083 76.1295 43.6454C71.3976 43.7841 67.0789 44.2089 63.1691 44.9188L58.9965 34.6327C65.1034 33.5238 71.6361 32.9772 78.5963 32.994C85.5536 33.0099 92.4334 33.5611 99.2359 34.6476C102.315 35.128 105.648 35.8252 109.231 36.7355C112.812 37.646 116.394 38.796 119.976 40.1857C123.555 41.5774 126.93 43.2645 130.097 45.2508C133.263 47.2373 136.016 49.5789 138.355 52.2741C140.694 54.9711 142.408 58.0615 143.494 61.5444C144.488 64.8046 144.553 67.6342 143.691 70.0316C142.827 72.4293 141.446 74.4805 139.548 76.1867C137.647 77.8919 135.605 79.282 133.42 80.3602C131.233 81.436 129.285 82.2906 127.575 82.9217C128.241 84.2418 128.877 85.5657 129.482 86.8968C130.088 88.2293 130.661 89.5646 131.206 90.9067L122.732 92.3256C122.278 91.0464 121.773 89.8388 121.211 88.7005C120.65 87.559 120.097 86.4815 119.552 85.46C116.191 86.2291 112.727 86.7398 109.155 86.9884C108.208 87.0795 106.781 87.1986 104.873 87.3458C102.966 87.4914 100.776 87.5498 98.3037 87.5194C95.831 87.4876 93.2535 87.2351 90.5694 86.7639C87.883 86.29 85.2395 85.4691 82.6364 84.3016C80.0303 83.1331 77.6634 81.5011 75.5356 79.4086C73.4072 77.3146 71.7095 74.6226 70.4389 71.3303L70.4413 71.3299ZM86.3571 63.2783C85.135 63.3399 83.8682 63.6119 82.5532 64.0888C81.2375 64.5673 80.1976 65.2759 79.4326 66.2162C78.6654 67.1538 78.4781 68.3487 78.8696 69.7979C79.3792 71.705 80.5184 73.1803 82.2858 74.221C84.0515 75.2604 86.2017 75.9904 88.7328 76.4116C91.2645 76.831 93.8574 77.0807 96.5121 77.1589C99.9284 77.1781 103.157 77.012 106.196 76.6609C109.234 76.3086 111.394 76.0174 112.678 75.7843C108.665 71.3902 104.336 68.1553 99.6897 66.0781C95.0427 63.9995 90.5991 63.0666 86.3554 63.277L86.3571 63.2783Z" fill="#545454"/>
<path d="M220 64.2066C216.855 62.7952 214.582 61.0306 213.182 58.9119C211.78 56.7935 211.181 54.5226 211.385 52.0973C211.59 49.6737 212.426 47.2734 213.896 44.8936C215.365 42.5147 217.344 40.369 219.832 38.4601C223.653 35.5997 228.331 33.3052 233.864 31.5712C239.398 29.8398 245.023 29.072 250.744 29.27C251.881 29.2947 253.024 29.3374 254.184 29.4015C255.336 29.4651 256.485 29.5771 257.624 29.7325C258.116 28.7528 258.71 27.421 259.409 25.7367C260.103 24.0522 260.642 22.2841 261.025 20.4305C261.406 18.5782 261.399 16.8723 260.997 15.313C260.597 13.7552 259.564 12.5848 257.901 11.8083C255.567 10.7452 252.76 10.5024 249.474 11.0806C246.19 11.6594 242.615 12.8579 238.752 14.6763C234.889 16.4932 230.942 18.7727 226.916 21.512C222.889 24.2524 218.967 27.2521 215.153 30.5114C211.34 33.7733 207.803 37.1175 204.54 40.547C201.279 43.9781 198.512 47.3214 196.236 50.579L186.03 46.2156C189.584 41.1272 193.837 36.1382 198.79 31.2482C203.74 26.3595 209.012 21.9053 214.607 17.8857C217.131 16.058 219.988 14.2056 223.173 12.3286C226.356 10.4526 229.709 8.74644 233.231 7.21019C236.752 5.67752 240.336 4.49826 243.983 3.6776C247.63 2.85793 251.233 2.58137 254.792 2.84729C258.352 3.11483 261.745 4.10161 264.969 5.809C267.971 7.42368 270.01 9.38649 271.086 11.6958C272.162 14.0061 272.626 16.4354 272.48 18.9831C272.332 21.5323 271.861 23.9576 271.07 26.2615C270.274 28.566 269.494 30.5442 268.724 32.1968C270.126 32.6652 271.51 33.1567 272.877 33.6756C274.246 34.195 275.593 34.739 276.925 35.3084L271.909 42.2839C270.686 41.6955 269.476 41.194 268.276 40.7811C267.074 40.3661 265.922 39.9907 264.816 39.649C262.972 42.5626 260.872 45.3648 258.512 48.0567C257.903 48.7887 256.974 49.8783 255.723 51.3265C254.472 52.7731 252.959 54.3569 251.182 56.0764C249.404 57.7953 247.397 59.4314 245.159 60.9872C242.919 62.5428 240.464 63.8219 237.794 64.8265C235.121 65.8324 232.291 66.3408 229.306 66.3539C226.321 66.3664 223.22 65.651 219.999 64.2086L220 64.2066ZM225.628 47.2813C224.804 48.1858 224.096 49.2711 223.499 50.5358C222.902 51.8021 222.663 53.0376 222.782 54.2439C222.897 55.4499 223.606 56.43 224.905 57.1831C226.61 58.178 228.457 58.423 230.445 57.917C232.43 57.4114 234.471 56.4152 236.565 54.9316C238.657 53.4463 240.674 51.7973 242.613 49.9832C245.052 47.5908 247.227 45.1987 249.138 42.8091C251.046 40.4198 252.374 38.6915 253.122 37.6217C247.178 37.3285 241.827 38.0811 237.065 39.8789C232.302 41.6761 228.491 44.1434 225.626 47.2817L225.628 47.2813Z" fill="#545454"/>
<path d="M30.2118 100.051C27.4648 98.0148 25.3922 95.6259 23.9945 92.8832C22.5951 90.1408 21.837 87.2863 21.7193 84.3175C21.6024 81.3508 22.0067 78.4726 22.9336 75.6793C23.8601 72.8873 25.232 70.4307 27.0492 68.3139C29.8489 65.1509 33.4191 62.7661 37.7562 61.1527C42.0935 59.5424 46.6201 59.1281 51.338 59.9127C52.2739 60.0506 53.217 60.2113 54.1764 60.3998C55.1298 60.5871 56.0858 60.8337 57.0388 61.1328C57.3274 59.9723 57.6586 58.3876 58.0339 56.3785C58.4063 54.3687 58.6405 52.2412 58.7374 49.9937C58.8322 47.7475 58.6258 45.6451 58.1134 43.686C57.6019 41.7289 56.6164 40.1893 55.1603 39.0753C53.1205 37.545 50.788 36.9805 48.1595 37.3824C45.5323 37.7851 42.739 38.9238 39.7828 40.7992C36.8258 42.6725 33.854 45.1079 30.8719 48.1025C27.8894 51.0982 25.0231 54.4234 22.2761 58.0785C19.5295 61.7369 17.0197 65.5229 14.7453 69.4399C12.4717 73.359 10.5939 77.2166 9.10903 81.0151L0.220295 74.6745C2.53956 68.7413 5.44349 62.9965 8.93381 57.4397C12.422 51.8844 16.2255 46.895 20.3444 42.4713C22.2013 40.4581 24.3285 38.4458 26.7214 36.4342C29.1138 34.4237 31.6648 32.6385 34.3744 31.0786C37.0839 29.5231 39.8867 28.4089 42.7836 27.7425C45.68 27.0773 48.6048 27.0771 51.5567 27.7411C54.5093 28.4071 57.41 29.9436 60.2566 32.3519C62.9095 34.625 64.8135 37.236 65.968 40.183C67.1221 43.1311 67.7882 46.1678 67.968 49.2931C68.1457 52.4197 68.0441 55.3634 67.6654 58.1271C67.2832 60.8913 66.875 63.2548 66.4375 65.2181C67.6433 65.9277 68.837 66.6641 70.0198 67.4326C71.2039 68.2019 72.3737 68.9995 73.5334 69.8268L70.236 77.947C69.1631 77.1064 68.1118 76.3742 67.0784 75.7521C66.043 75.1272 65.0538 74.5558 64.1061 74.0303C62.9344 77.4457 61.5406 80.6997 59.9197 83.7933C59.5064 84.6376 58.8718 85.8922 58.0155 87.5582C57.1585 89.2222 56.1024 91.0306 54.8466 92.9812C53.5895 94.931 52.1342 96.7569 50.4809 98.4624C48.8246 100.167 46.9602 101.511 44.8869 102.496C42.8114 103.483 40.5489 103.842 38.1013 103.576C35.6525 103.309 33.0235 102.135 30.2109 100.053L30.2118 100.051ZM32.8424 79.73C32.2723 80.7665 31.819 82.0367 31.477 83.5385C31.1359 85.0422 31.0847 86.5418 31.3242 88.0392C31.5608 89.536 32.2574 90.8106 33.4116 91.8612C34.9277 93.2481 36.4728 93.7246 38.0446 93.2891C39.6146 92.8537 41.1722 91.8193 42.716 90.1892C44.2589 88.557 45.7202 86.716 47.0989 84.6641C48.8193 81.9471 50.3234 79.2055 51.6103 76.4419C52.8955 73.6785 53.7829 71.6746 54.2705 70.4273C49.3585 69.5043 45.055 69.9257 41.3587 71.6907C37.6611 73.4549 34.8229 76.1345 32.8407 79.7303L32.8424 79.73Z" fill="#545454"/>
<path d="M160.352 76.5006C157.531 74.6666 155.339 72.4118 153.776 69.735C152.212 67.0587 151.264 64.2102 150.929 61.1875C150.596 58.1669 150.776 55.1899 151.47 52.2529C152.164 49.3171 153.315 46.6841 154.925 44.3584C157.413 40.8754 160.707 38.1186 164.804 36.081C168.902 34.0466 173.272 33.2171 177.917 33.5954C178.837 33.6523 179.766 33.7319 180.713 33.8384C181.654 33.9442 182.601 34.1104 183.55 34.3305C183.745 33.1189 183.949 31.4701 184.165 29.3837C184.378 27.2969 184.448 25.1022 184.376 22.7972C184.302 20.4938 183.945 18.3642 183.302 16.4085C182.659 14.4549 181.587 12.9702 180.089 11.9627C177.992 10.5822 175.683 10.2148 173.157 10.8612C170.632 11.5084 168.001 12.9225 165.266 15.1038C162.53 17.2831 159.821 20.038 157.144 23.3652C154.466 26.6936 151.926 30.3481 149.526 34.3291C147.127 38.3133 144.967 42.4066 143.046 46.6128C141.126 50.821 139.586 54.9307 138.424 58.9449L129.312 53.2642C131.127 46.9942 133.525 40.8641 136.507 34.8736C139.486 28.8847 142.814 23.4456 146.491 18.5564C148.147 16.3328 150.066 14.0861 152.244 11.8161C154.421 9.54728 156.768 7.49444 159.287 5.65754C161.806 3.8251 164.449 2.43525 167.216 1.49448C169.982 0.554921 172.826 0.292314 175.745 0.705855C178.665 1.12141 181.599 2.43098 184.545 4.63617C187.293 6.72053 189.338 9.21739 190.679 12.1247C192.019 15.0332 192.892 18.0762 193.298 21.2531C193.703 24.4317 193.822 27.4484 193.659 30.306C193.492 33.1645 193.271 35.6159 192.991 37.6611C194.216 38.2779 195.431 38.9232 196.638 39.6022C197.846 40.282 199.042 40.992 200.231 41.7332L197.627 50.3255C196.522 49.5629 195.446 48.9092 194.395 48.3663C193.342 47.8207 192.338 47.3257 191.377 46.8738C190.491 50.4685 189.377 53.9182 188.031 57.2243C187.691 58.1241 187.167 59.4628 186.458 61.2419C185.748 63.0189 184.856 64.9613 183.779 67.0669C182.702 69.1718 181.422 71.168 179.941 73.0588C178.457 74.9492 176.744 76.4896 174.801 77.6823C172.857 78.8766 170.683 79.4464 168.284 79.3943C165.884 79.3415 163.24 78.3774 160.352 76.503L160.352 76.5006ZM161.404 55.5024C160.926 56.6125 160.58 57.9511 160.359 59.5161C160.138 61.0831 160.2 62.6198 160.544 64.1282C160.884 65.6363 161.656 66.876 162.856 67.8459C164.433 69.1268 165.971 69.4751 167.467 68.889C168.961 68.3034 170.398 67.1067 171.779 65.3027C173.158 63.4966 174.442 61.4846 175.63 59.2645C177.101 56.334 178.361 53.3981 179.407 50.459C180.452 47.5203 181.166 45.3933 181.548 44.0751C176.704 43.5728 172.551 44.3895 169.088 46.5245C165.624 48.6587 163.063 51.6512 161.402 55.5028L161.404 55.5024Z" fill="#545454"/>
</svg>
