<svg width="57" height="57" viewBox="0 0 57 57" fill="none" xmlns="http://www.w3.org/2000/svg">
<path d="M31.8528 77.1191C29.0279 76.9366 26.6611 76.0542 24.7525 74.4707C22.8425 72.8884 21.4296 70.8356 20.5128 68.3109C19.5971 65.7875 19.1352 63.0386 19.1271 60.0604C19.119 57.0834 19.5704 54.1406 20.4825 51.2359C21.9148 46.8465 24.1965 42.6893 27.3229 38.7602C30.4505 34.8337 34.0642 31.8419 38.1665 29.786C38.9754 29.3627 39.7965 28.9551 40.6388 28.5624C41.4758 28.172 42.3312 27.832 43.1987 27.5396C43.1159 26.3582 42.951 24.7817 42.7052 22.8088C42.4568 20.837 42.0621 18.8427 41.5212 16.8232C40.9789 14.8063 40.2282 13.0898 39.2651 11.6763C38.3033 10.2641 37.0664 9.4919 35.5595 9.36493C33.4568 9.21341 31.3799 10.0755 29.326 11.9537C27.2734 13.8319 25.2874 16.4494 23.3706 19.805C21.4526 23.1593 19.6777 27.0131 18.0487 31.3613C16.4196 35.7108 14.9773 40.2804 13.7244 45.069C12.4727 49.8602 11.4512 54.6253 10.6599 59.3681C9.86982 64.1121 9.3886 68.5725 9.2148 72.753L0.142756 72.3792C0.414221 65.8494 1.21925 59.1444 2.55916 52.263C3.8977 45.3841 5.65226 38.8162 7.82286 32.5593C8.79618 29.722 9.9924 26.7285 11.4076 23.5812C12.8227 20.4351 14.4306 17.3937 16.2314 14.4569C18.0334 11.524 20.0341 8.92238 22.2359 6.65723C24.4377 4.39335 26.8465 2.6939 29.4611 1.55882C32.0769 0.42506 34.8903 0.0817679 37.8999 0.531429C40.7126 0.975519 43.0019 2.14984 44.7667 4.05307C46.5314 5.95756 47.9188 8.22304 48.93 10.8483C49.9399 13.476 50.6693 16.1062 51.1207 18.7402C51.5694 21.3766 51.886 23.6781 52.0679 25.6471C53.257 25.5663 54.4435 25.516 55.6299 25.5C56.8176 25.4841 58.0013 25.5011 59.185 25.5498L58.7119 34.5582C57.5961 34.4474 56.5281 34.4186 55.5052 34.4757C54.4798 34.5314 53.5073 34.6071 52.5815 34.6987C52.5598 38.3626 52.3107 42.0146 51.8301 45.6584C51.7229 46.636 51.5468 48.1006 51.3017 50.0533C51.0554 52.0046 50.6851 54.1977 50.1895 56.6311C49.6927 59.0645 48.9983 61.5049 48.1077 63.9551C47.2145 66.4065 46.0502 68.6635 44.6147 70.7287C43.1778 72.7964 41.4135 74.4245 39.3242 75.6143C37.2336 76.804 34.744 77.3057 31.8527 77.1217L31.8528 77.1191ZM28.4068 57.8414C28.2235 59.0779 28.201 60.4508 28.3342 61.9612C28.4685 63.4728 28.8405 64.8124 29.4514 65.9811C30.0596 67.1511 30.9854 67.8596 32.2262 68.1066C33.8578 68.4372 35.2621 67.9557 36.4363 66.662C37.6091 65.3696 38.6063 63.5611 39.4275 61.2403C40.2475 58.9182 40.9425 56.4612 41.5113 53.868C42.1778 50.4953 42.6594 47.2268 42.956 44.0652C43.2513 40.9048 43.4287 38.639 43.4858 37.2662C39.1853 39.3139 35.7573 42.1823 33.2005 45.8715C30.6424 49.5607 29.0449 53.5503 28.4055 57.8426L28.4068 57.8414Z" fill="#D88164"/>
</svg>
