<svg width="137" height="65" viewBox="0 0 137 65" fill="none" xmlns="http://www.w3.org/2000/svg">
<path d="M8.98024 -11.3793C11.7535 -11.9469 14.2691 -11.7186 16.5273 -10.6934C18.7865 -9.66976 20.6898 -8.06126 22.239 -5.867C23.7866 -3.67368 24.9559 -1.14334 25.7477 1.72773C26.5392 4.59757 26.8784 7.55539 26.7631 10.5978C26.5369 15.2094 25.43 19.8207 23.4482 24.4342C21.4646 29.0455 18.7659 32.8831 15.3495 35.9463C14.6805 36.5677 13.9957 37.177 13.2865 37.7776C12.5818 38.3746 11.846 38.9278 11.0861 39.4383C11.4769 40.5562 12.0511 42.0337 12.8076 43.8723C13.5663 45.7091 14.4721 47.5292 15.5255 49.335C16.5796 51.1381 17.7557 52.5963 19.0569 53.7065C20.3566 54.8157 21.7531 55.2351 23.2403 54.9609C25.3087 54.5535 27.0854 53.1751 28.5724 50.8225C30.0582 48.4701 31.2851 45.4222 32.251 41.6803C33.2183 37.9394 33.9161 33.7544 34.343 29.1307C34.7696 24.5057 34.9581 19.7176 34.9062 14.7681C34.8526 9.81635 34.5836 4.95046 34.0985 0.166693C33.6119 -4.61803 32.9019 -9.0478 31.9691 -13.1266L40.8196 -15.1541C42.2766 -8.78319 43.2651 -2.10278 43.7839 4.88862C44.3034 11.8773 44.3397 18.6754 43.8928 25.283C43.7007 28.2765 43.3347 31.4793 42.798 34.8881C42.261 38.2957 41.5104 41.6532 40.5462 44.9604C39.5799 48.2642 38.3346 51.3008 36.8067 54.0657C35.2785 56.8293 33.4021 59.1029 31.1785 60.8863C28.9535 62.6686 26.3297 63.7404 23.3078 64.0989C20.4774 64.4109 17.9597 63.8807 15.7561 62.5091C13.5523 61.1364 11.6176 59.316 9.95085 57.0496C8.28483 54.7804 6.8888 52.435 5.75999 50.0127C4.6331 47.5874 3.72178 45.4505 3.02793 43.5988C1.90205 43.9897 0.770608 44.3506 -0.369729 44.6783C-1.51131 45.0064 -2.65777 45.3016 -3.81256 45.5662L-5.72757 36.751C-4.62193 36.5642 -3.58402 36.3108 -2.61221 35.9864C-1.63762 35.6627 -0.719371 35.3337 0.149619 35.0016C-0.793953 31.4612 -1.51498 27.8724 -2.01057 24.2307C-2.16448 23.2593 -2.38009 21.8001 -2.6577 19.8517C-2.93377 17.9043 -3.15383 15.6911 -3.31634 13.2131C-3.47761 10.7348 -3.45022 8.19763 -3.236 5.59939C-3.01957 2.99934 -2.49048 0.515441 -1.64928 -1.85481C-0.807405 -4.22783 0.466111 -6.26292 2.16848 -7.96074C3.8721 -9.65885 6.14186 -10.7982 8.97968 -11.3818L8.98024 -11.3793ZM17.3794 6.31133C17.2307 5.07016 16.891 3.73975 16.365 2.31773C15.8375 0.894742 15.126 -0.299636 14.229 -1.26637C13.3342 -2.23491 12.2546 -2.67474 10.9925 -2.58642C9.33138 -2.47578 8.10344 -1.64162 7.3112 -0.0844885C6.51993 1.47111 6.03405 3.47833 5.85271 5.93342C5.67291 8.38947 5.6492 10.9428 5.78314 13.5942C6.02802 17.0235 6.42381 20.3034 6.96993 23.4316C7.51701 26.5583 7.94233 28.7909 8.24864 30.1303C11.8584 27.0228 14.4104 23.3531 15.9059 19.1209C17.4026 14.8884 17.8935 10.6191 17.3804 6.30981L17.3794 6.31133Z" fill="#D88164"/>
<path d="M112.972 -33.0277C115.207 -31.2916 116.671 -29.2332 117.363 -26.8515C118.056 -24.4701 118.074 -21.9781 117.416 -19.3739C116.758 -16.7714 115.598 -14.2368 113.934 -11.767C112.27 -9.29826 110.245 -7.11566 107.86 -5.22304C104.212 -2.39332 99.9907 -0.232453 95.1982 1.26566C90.4063 2.76097 85.7363 3.20984 81.1871 2.60975C80.2799 2.50628 79.3716 2.38295 78.4541 2.23544C77.5422 2.08893 76.6434 1.89041 75.7612 1.64573C75.1668 2.67004 74.4188 4.06756 73.5152 5.83857C72.6145 7.61008 71.8222 9.48236 71.1369 11.4575C70.4541 13.4313 70.1124 15.2733 70.1164 16.9837C70.1202 18.6923 70.7108 20.0255 71.8869 20.9762C73.5424 22.2814 75.7453 22.7331 78.4992 22.3309C81.2521 21.9278 84.3647 20.8755 87.8341 19.1734C91.3039 17.4731 94.9354 15.2791 98.7235 12.5938C102.512 9.90757 106.27 6.9343 109.994 3.67353C113.719 0.409957 117.238 -2.96121 120.554 -6.44302C123.87 -9.92662 126.771 -13.3487 129.26 -16.7116L136.56 -11.3119C132.672 -6.05918 128.243 -0.960808 123.273 3.98346C118.305 8.92644 113.168 13.3786 107.86 17.3398C105.462 19.1423 102.793 20.949 99.8553 22.7601C96.9187 24.5703 93.8812 26.1856 90.7428 27.6061C87.6056 29.0228 84.4898 30.0537 81.3962 30.6932C78.3034 31.3317 75.356 31.3869 72.5549 30.8595C69.7535 30.3302 67.2321 29.0358 64.9932 26.9749C62.9141 25.0291 61.678 22.7725 61.2851 20.2069C60.893 17.6403 61.0158 14.9866 61.6517 12.2462C62.2901 9.5044 63.1622 6.91802 64.2665 4.4845C65.3743 2.05045 66.4036 -0.0322797 67.3578 -1.76422C66.3283 -2.36457 65.3179 -2.98867 64.3268 -3.64111C63.3348 -4.29431 62.3645 -4.97255 61.412 -5.67709L66.8582 -12.8683C67.7196 -12.1505 68.5875 -11.5275 69.4663 -11.0008C70.3463 -10.4715 71.1938 -9.9885 72.0115 -9.54489C74.0853 -12.5655 76.3406 -15.4487 78.7829 -18.1952C79.4202 -18.9443 80.3877 -20.0577 81.6862 -21.5366C82.985 -23.0136 84.5221 -24.6211 86.2976 -26.3573C88.0742 -28.0928 90.0183 -29.7233 92.1303 -31.2517C94.2452 -32.7797 96.4753 -33.9946 98.8223 -34.8987C101.172 -35.804 103.546 -36.1617 105.943 -35.9742C108.341 -35.7861 110.683 -34.8044 112.973 -33.0297L112.972 -33.0277ZM105.007 -15.137C105.853 -16.0577 106.642 -17.1815 107.379 -18.5064C108.116 -19.8331 108.56 -21.1506 108.71 -22.4608C108.863 -23.7705 108.494 -24.8764 107.606 -25.7771C106.441 -26.9662 105.008 -27.3556 103.31 -26.9436C101.614 -26.5319 99.7741 -25.5944 97.7921 -24.1341C95.8104 -22.6721 93.8565 -21.0283 91.9307 -19.2009C89.4866 -16.7831 87.254 -14.3478 85.2345 -11.8972C83.2168 -9.44691 81.7986 -7.67088 80.9811 -6.5666C85.6897 -5.84857 90.1368 -6.29951 94.3232 -7.91865C98.5107 -9.53703 102.071 -11.9431 105.009 -15.1373L105.007 -15.137Z" fill="#D88164"/>
</svg>
