<svg width="331" height="392" viewBox="0 0 331 392" fill="none" xmlns="http://www.w3.org/2000/svg">
<path d="M324.098 242.176C318.927 255.978 311.512 266.068 301.848 272.442C292.187 278.826 281.312 281.765 269.215 281.262C257.126 280.756 244.791 277.518 232.193 271.54C219.601 265.564 207.869 257.352 197.015 246.907C180.698 230.851 166.684 211.003 154.951 187.379C143.23 163.754 136.216 139.579 133.918 114.845C133.389 109.932 132.946 104.989 132.598 99.9701C132.252 94.9823 132.148 90.0039 132.263 85.061C127.142 83.0888 120.224 80.7302 111.504 77.9759C102.785 75.2372 93.7427 73.1868 84.3668 71.8192C74.9992 70.4635 66.5769 70.7606 59.1038 72.7352C51.6383 74.7063 46.4487 79.3504 43.565 86.6536C39.6498 96.8954 40.058 109.057 44.7956 123.156C49.5354 137.248 57.5028 152.501 68.697 168.898C79.8837 185.299 93.4039 201.991 109.241 218.95C125.083 235.913 142.146 252.383 160.43 268.346C178.726 284.308 197.271 299.062 216.08 312.617C234.896 326.168 252.995 337.596 270.389 346.916L254.68 391.671C227.51 377.113 200.431 359.524 173.439 338.895C146.456 318.279 121.435 296.203 98.3762 272.67C87.9027 262.053 77.1163 250.002 66.021 236.543C54.931 223.086 44.5834 208.873 34.9783 193.904C25.3913 178.937 17.5139 163.643 11.3715 148.019C5.23448 132.399 1.80494 116.88 1.0807 101.471C0.363963 86.0571 3.29527 71.2498 9.88298 57.0605C16.1404 43.8481 24.6683 34.7368 35.4594 29.7301C46.2557 24.7262 57.9897 22.3451 70.6582 22.5774C83.335 22.8217 95.5852 24.4782 107.418 27.5371C119.258 30.6143 129.476 33.6772 138.08 36.7439C139.591 30.6156 141.226 24.5616 143.007 18.5777C144.789 12.5875 146.705 6.6835 148.754 0.844016L186.084 21.4228C183.877 26.7963 182.093 32.0959 180.741 37.3428C179.379 42.5994 178.184 47.6308 177.129 52.46C192.578 59.9735 207.622 68.6039 222.271 78.3785C226.235 80.8922 232.149 84.7355 240.019 89.9113C247.881 95.0905 256.572 101.38 266.082 108.784C275.591 116.194 284.822 124.609 293.789 134.029C302.756 143.464 310.48 153.866 316.971 165.241C323.471 176.628 327.602 188.769 329.376 201.654C331.147 214.546 329.39 228.049 324.109 242.182L324.098 242.176ZM237.27 220.503C242.209 223.922 247.976 226.809 254.565 229.194C261.162 231.575 267.402 232.416 273.292 231.713C279.184 231.026 283.619 227.814 286.596 222.089C290.534 214.572 290.686 206.554 287.049 198.05C283.414 189.554 277.325 180.897 268.797 172.087C260.262 163.28 250.962 154.828 240.89 146.734C227.676 136.575 214.615 127.553 201.717 119.676C188.822 111.808 179.524 106.338 173.812 103.278C175.766 128.989 182.548 151.983 194.155 172.265C205.76 192.554 220.131 208.63 237.273 220.512L237.27 220.503Z" fill="#F6F5EA"/>
</svg>
