<svg width="276" height="420" viewBox="0 0 276 420" fill="none" xmlns="http://www.w3.org/2000/svg">
<path d="M24.4678 111.24C34.6092 100.545 45.3703 94.1432 56.7547 92.0391C68.1399 89.9254 79.3004 91.4574 90.2443 96.6349C101.18 101.813 111.278 109.602 120.549 120.018C129.817 130.429 137.421 142.564 143.345 156.414C152.115 177.559 157.284 201.299 158.883 227.628C160.469 253.953 157.506 278.95 149.982 302.623C148.555 307.355 147.037 312.079 145.401 316.837C143.775 321.565 141.931 326.19 139.898 330.698C143.846 334.51 149.298 339.378 156.255 345.313C163.217 351.233 170.745 356.646 178.846 361.56C186.945 366.459 194.817 369.468 202.469 370.562C210.112 371.656 216.701 369.402 222.203 363.8C229.801 355.894 234.165 344.536 235.297 329.705C236.424 314.88 235.031 297.728 231.113 278.264C227.203 258.801 221.258 238.159 213.283 216.368C205.304 194.573 196.009 172.755 185.393 150.928C174.765 129.098 163.437 108.283 151.398 88.4693C139.351 68.6564 127.138 51.0779 114.751 35.7151L146.661 0.622102C166.009 24.6184 184.092 51.3703 200.909 80.8875C217.723 110.39 232.162 140.472 244.225 171.132C249.733 184.991 254.969 200.292 259.941 217.012C264.91 233.727 268.9 250.849 271.911 268.378C274.907 285.897 276.201 303.053 275.768 319.834C275.332 336.612 272.442 352.239 267.103 366.713C261.756 381.187 253.285 393.681 241.688 404.181C230.776 413.91 219.372 418.977 207.483 419.382C195.59 419.782 183.856 417.402 172.279 412.25C160.7 407.085 150.064 400.785 140.359 393.356C130.655 385.907 122.438 379.104 115.71 372.927C111.93 377.982 108.065 382.92 104.093 387.736C100.117 392.558 96.052 397.249 91.8884 401.828L65.5313 368.327C69.6574 364.238 73.3667 360.054 76.6567 355.749C79.9595 351.438 83.0208 347.271 85.8743 343.234C74.5756 330.294 64.0847 316.483 54.4038 301.772C51.7329 297.912 47.7842 292.067 42.554 284.234C37.332 276.4 31.7803 267.22 25.907 256.695C20.0383 246.165 14.8168 234.818 10.2305 222.648C5.64953 210.464 2.5905 197.874 1.046 184.869C-0.501555 171.85 0.425392 159.058 3.81406 146.501C7.20721 133.938 14.0888 122.188 24.4603 111.231L24.4678 111.24ZM95.9832 165.04C92.7665 159.967 88.5814 155.06 83.4423 150.296C78.2949 145.532 72.8763 142.325 67.1781 140.677C61.4851 139.013 56.148 140.243 51.1757 144.355C44.6191 149.743 41.354 157.067 41.3893 166.317C41.4254 175.558 43.6589 185.903 48.0787 197.34C52.5067 208.777 57.777 220.185 63.8981 231.564C72.1077 246.071 80.6201 259.469 89.4278 271.751C98.2363 284.022 104.668 292.683 108.735 297.728C116.956 273.288 119.672 249.469 116.888 226.267C114.108 203.06 107.139 182.654 95.9839 165.03L95.9832 165.04Z" fill="#F6F5EA"/>
</svg>
