<svg width="186" height="100" viewBox="0 0 186 100" fill="none" xmlns="http://www.w3.org/2000/svg">
<path d="M-6.35225 -1.09347C-4.46766 -3.84535 -2.34997 -5.86746 0.00172235 -7.15928C2.35334 -8.45289 4.74448 -9.06679 7.17686 -9.00168C9.60752 -8.93586 11.9237 -8.32899 14.1281 -7.17944C16.3316 -6.03044 18.2252 -4.4355 19.8054 -2.39502C22.1598 0.742323 23.8164 4.63837 24.7815 9.28972C25.7439 13.9412 25.7149 18.7153 24.692 23.6138C24.5036 24.5867 24.2959 25.5656 24.0643 26.5599C23.8341 27.548 23.5553 28.535 23.2339 29.5156C24.1576 29.892 25.424 30.34 27.0333 30.8612C28.6433 31.3794 30.3606 31.7602 32.187 32.0046C34.0124 32.2466 35.745 32.1636 37.3854 31.7507C39.0241 31.3384 40.3605 30.4026 41.3877 28.9461C42.8021 26.9038 43.4519 24.4933 43.3371 21.7108C43.2215 18.9297 42.5187 15.9277 41.2279 12.7079C39.9389 9.48748 38.1923 6.21592 35.9902 2.89796C33.7872 -0.420541 31.306 -3.63798 28.5457 -6.75129C25.7828 -9.86443 22.8966 -12.7373 19.8842 -15.3715C16.8702 -18.005 13.8743 -20.2196 10.8947 -22.0182L16.7902 -30.9385C21.4443 -28.1291 25.8972 -24.7185 30.1491 -20.7048C34.4 -16.6935 38.1635 -12.3873 41.4397 -7.78619C42.9321 -5.71073 44.4018 -3.35181 45.8495 -0.714323C47.2963 1.92262 48.5463 4.7116 49.5996 7.65263C50.6494 10.5933 51.3314 13.6038 51.6403 16.6845C51.9483 19.7647 51.7113 22.8323 50.93 25.8862C50.147 28.9408 48.6578 31.8857 46.4615 34.7184C44.3913 37.3564 42.106 39.1877 39.6073 40.2114C37.1077 41.2346 34.5753 41.7404 32.0102 41.7306C29.4441 41.7184 27.0499 41.4249 24.8251 40.8521C22.6002 40.2757 20.7045 39.6976 19.1377 39.114C18.4608 40.3336 17.763 41.5389 17.0399 42.7306C16.316 43.9237 15.5702 45.1 14.801 46.2639L8.44138 42.2896C9.21441 41.2177 9.89718 40.1616 10.4887 39.1172C11.0827 38.0709 11.6292 37.0697 12.135 36.109C9.44263 34.6632 6.89996 32.9947 4.50675 31.0982C3.8512 30.611 2.87875 29.8658 1.5885 28.8618C0.299989 27.8572 -1.09019 26.6347 -2.58028 25.1937C-4.06954 23.7514 -5.44174 22.109 -6.6995 20.2666C-7.95652 18.4212 -8.9021 16.3804 -9.53807 14.1432C-10.175 11.9037 -10.2844 9.50779 -9.86895 6.95755C-9.45262 4.40604 -8.28095 1.72321 -6.35406 -1.09456L-6.35225 -1.09347ZM10.0187 2.95616C9.2191 2.29237 8.21916 1.73624 7.02131 1.28221C5.82174 0.828891 4.60207 0.679947 3.36056 0.836081C2.11981 0.989158 1.02311 1.63888 0.072127 2.78274C-1.18269 4.28477 -1.69692 5.87514 -1.4689 7.55134C-1.24096 9.22573 -0.523043 10.9251 0.68213 12.6478C1.88904 14.3698 3.273 16.0193 4.83575 17.5957C6.91368 19.5727 9.02909 21.3244 11.1802 22.8497C13.3312 24.3731 14.8946 25.4312 15.873 26.0218C17.0247 20.9285 17.0298 16.388 15.8891 12.399C14.7492 8.40872 12.7924 5.26172 10.0187 2.95436L10.0187 2.95616Z" fill="#545454"/>
<path d="M140.599 115.419C137.413 114.61 134.942 113.35 133.187 111.637C131.43 109.925 130.371 107.954 130.008 105.722C129.646 103.492 129.865 101.187 130.667 98.8067C131.468 96.4269 132.786 94.1823 134.621 92.0762C137.456 88.9063 141.201 86.1212 145.851 83.7166C150.502 81.3144 155.455 79.7728 160.713 79.0936C161.755 78.9453 162.806 78.8125 163.878 78.6965C164.943 78.5811 166.015 78.5103 167.088 78.4803C167.315 77.5173 167.555 76.2193 167.811 74.5857C168.063 72.9525 168.154 71.2669 168.084 69.5269C168.012 67.7885 167.619 66.2413 166.901 64.8862C166.183 63.5325 164.977 62.6253 163.286 62.1702C160.919 61.5557 158.305 61.7568 155.442 62.7749C152.579 63.7934 149.592 65.418 146.484 67.6484C143.374 69.8775 140.292 72.5391 137.243 75.63C134.193 78.7218 131.297 82.0333 128.559 85.5642C125.821 89.0974 123.354 92.6637 121.157 96.2663C118.961 99.8702 117.196 103.32 115.859 106.618L105.57 104.191C107.658 99.0386 110.405 93.8718 113.813 88.6898C117.218 83.5094 121.016 78.675 125.205 74.1868C127.092 72.1489 129.277 70.0386 131.754 67.8568C134.231 65.676 136.901 63.6241 139.762 61.701C142.625 59.7812 145.624 58.1727 148.763 56.8802C151.901 55.5887 155.122 54.7966 158.426 54.5037C161.73 54.212 165.046 54.5981 168.371 55.6637C171.471 56.6786 173.774 58.1539 175.277 60.0884C176.78 62.0238 177.752 64.159 178.196 66.4933C178.637 68.8292 178.757 71.1013 178.557 73.3111C178.353 75.5223 178.089 77.4349 177.762 79.0504C179.146 79.265 180.518 79.5033 181.881 79.769C183.246 80.035 184.597 80.3264 185.94 80.6432L182.946 87.7277C181.698 87.3772 180.483 87.1036 179.296 86.9091C178.106 86.7129 176.972 86.5451 175.886 86.401C174.864 89.3225 173.585 92.1811 172.043 94.9788C171.654 95.7345 171.053 96.863 170.241 98.3652C169.428 99.866 168.407 101.531 167.177 103.358C165.946 105.185 164.486 106.972 162.799 108.72C161.109 110.468 159.161 111.998 156.955 113.31C154.746 114.625 152.282 115.511 149.566 115.971C146.847 116.431 143.859 116.247 140.598 115.421L140.599 115.419ZM141.899 99.2123C141.352 100.157 140.953 101.248 140.694 102.486C140.437 103.725 140.498 104.882 140.88 105.959C141.258 107.036 142.125 107.82 143.479 108.308C145.258 108.955 146.998 108.9 148.695 108.142C150.39 107.385 152.024 106.175 153.596 104.514C155.167 102.852 156.632 101.052 157.99 99.1143C159.671 96.5767 161.112 94.0791 162.312 91.6233C163.511 89.1683 164.331 87.4 164.77 86.3169C159.287 86.9431 154.58 88.4298 150.647 90.7764C146.713 93.1228 143.798 95.9345 141.897 99.2129L141.899 99.2123Z" fill="#545454"/>
<path d="M153.636 -26.5222C155.838 -24.0815 157.194 -21.662 157.703 -19.2632C158.215 -16.8638 158.002 -14.636 157.065 -12.578C156.129 -10.5217 154.668 -8.72647 152.68 -7.19063C150.693 -5.65539 148.351 -4.51953 145.655 -3.78596C141.538 -2.72225 136.877 -2.4836 131.674 -3.06382C126.472 -3.64635 121.496 -5.11266 116.745 -7.46555C115.796 -7.9203 114.848 -8.39324 113.892 -8.89137C112.942 -9.38637 112.011 -9.92252 111.101 -10.4931C110.378 -9.81782 109.458 -8.87133 108.339 -7.65415C107.223 -6.4354 106.212 -5.0835 105.304 -3.59722C104.4 -2.11108 103.868 -0.606079 103.713 0.919828C103.559 2.44404 104.059 3.86816 105.213 5.18542C106.842 7.0102 109.127 8.29317 112.074 9.0353C115.021 9.77634 118.407 10.0825 122.231 9.95219C126.055 9.82359 130.096 9.31961 134.348 8.44052C138.6 7.56083 142.847 6.41294 147.084 4.99529C151.323 3.57533 155.354 1.97745 159.181 0.199818C163.008 -1.57951 166.391 -3.46981 169.333 -5.47182L176.545 2.2576C171.949 5.38468 166.797 8.1584 161.086 10.5783C155.378 12.998 149.537 14.9124 143.561 16.3215C140.86 16.9696 137.872 17.5127 134.6 17.9529C131.329 18.3924 127.97 18.618 124.522 18.6296C121.075 18.6384 117.687 18.3119 114.359 17.6455C111.032 16.9785 107.913 15.8497 105.002 14.2602C102.091 12.669 99.5471 10.5077 97.3726 7.77627C95.3565 5.21135 94.2598 2.70632 94.0827 0.262878C93.9066 -2.18117 94.2826 -4.497 95.2089 -6.68512C96.1379 -8.87336 97.2994 -10.8298 98.692 -12.5572C100.089 -14.2836 101.369 -15.7283 102.538 -16.8904C101.506 -17.8369 100.497 -18.7969 99.51 -19.7744C98.5224 -20.753 97.56 -21.7452 96.6191 -22.7537L103.041 -26.9859C103.885 -26.0019 104.744 -25.0998 105.623 -24.2792C106.504 -23.4558 107.355 -22.6867 108.178 -21.9646C110.649 -23.8277 113.3 -25.4958 116.135 -26.9674C116.878 -27.3802 118.004 -27.9858 119.513 -28.7848C121.023 -29.582 122.796 -30.4004 124.833 -31.238C126.871 -32.0746 129.077 -32.7507 131.45 -33.2688C133.827 -33.7852 136.296 -33.9767 138.86 -33.8444C141.426 -33.7122 143.968 -33.0822 146.483 -31.9572C148.999 -30.8311 151.383 -29.0202 153.638 -26.5235L153.636 -26.5222ZM143.561 -13.7613C144.54 -14.2439 145.478 -14.9301 146.38 -15.8162C147.281 -16.704 147.873 -17.7008 148.153 -18.8084C148.436 -19.9145 148.149 -21.0474 147.294 -22.2051C146.173 -23.7305 144.696 -24.65 142.863 -24.9614C141.033 -25.2723 139.002 -25.1722 136.772 -24.663C134.542 -24.152 132.325 -23.468 130.121 -22.6091C127.314 -21.4312 124.729 -20.1532 122.368 -18.7763C120.008 -17.399 118.345 -16.3831 117.379 -15.7257C122.287 -13.204 127.028 -11.8286 131.602 -11.5984C136.177 -11.3671 140.162 -12.0883 143.563 -13.7609L143.561 -13.7613Z" fill="#545454"/>
<ellipse cx="40.5" cy="90.5" rx="65.5" ry="43.5" fill="#545454"/>
</svg>
