<svg width="74" height="74" viewBox="0 0 74 74" fill="none" xmlns="http://www.w3.org/2000/svg">
<g filter="url(#filter0_dd_653_21296)">
<circle cx="37" cy="33" r="32" fill="#FAFAFA"/>
</g>
<path d="M23.668 33.0002C23.668 27.9722 23.668 25.4575 25.2306 23.8962C26.7933 22.3348 29.3066 22.3335 34.3346 22.3335H39.668C44.696 22.3335 47.2106 22.3335 48.772 23.8962C50.3333 25.4588 50.3346 27.9722 50.3346 33.0002V35.6668C50.3346 40.6948 50.3346 43.2095 48.772 44.7708C47.2093 46.3322 44.696 46.3335 39.668 46.3335H34.3346C29.3066 46.3335 26.792 46.3335 25.2306 44.7708C23.6693 43.2082 23.668 40.6948 23.668 35.6668V33.0002Z" stroke="black" stroke-width="1.5"/>
<path d="M30.3359 22.3335V20.3335M43.6693 22.3335V20.3335M24.3359 29.0002H49.6693" stroke="black" stroke-width="1.5" stroke-linecap="round"/>
<path d="M45 39.6667C45 40.0203 44.8595 40.3594 44.6095 40.6095C44.3594 40.8595 44.0203 41 43.6667 41C43.313 41 42.9739 40.8595 42.7239 40.6095C42.4738 40.3594 42.3333 40.0203 42.3333 39.6667C42.3333 39.313 42.4738 38.9739 42.7239 38.7239C42.9739 38.4738 43.313 38.3333 43.6667 38.3333C44.0203 38.3333 44.3594 38.4738 44.6095 38.7239C44.8595 38.9739 45 39.313 45 39.6667ZM45 34.3333C45 34.687 44.8595 35.0261 44.6095 35.2761C44.3594 35.5262 44.0203 35.6667 43.6667 35.6667C43.313 35.6667 42.9739 35.5262 42.7239 35.2761C42.4738 35.0261 42.3333 34.687 42.3333 34.3333C42.3333 33.9797 42.4738 33.6406 42.7239 33.3905C42.9739 33.1405 43.313 33 43.6667 33C44.0203 33 44.3594 33.1405 44.6095 33.3905C44.8595 33.6406 45 33.9797 45 34.3333ZM38.3333 39.6667C38.3333 40.0203 38.1929 40.3594 37.9428 40.6095C37.6928 40.8595 37.3536 41 37 41C36.6464 41 36.3072 40.8595 36.0572 40.6095C35.8071 40.3594 35.6667 40.0203 35.6667 39.6667C35.6667 39.313 35.8071 38.9739 36.0572 38.7239C36.3072 38.4738 36.6464 38.3333 37 38.3333C37.3536 38.3333 37.6928 38.4738 37.9428 38.7239C38.1929 38.9739 38.3333 39.313 38.3333 39.6667ZM38.3333 34.3333C38.3333 34.687 38.1929 35.0261 37.9428 35.2761C37.6928 35.5262 37.3536 35.6667 37 35.6667C36.6464 35.6667 36.3072 35.5262 36.0572 35.2761C35.8071 35.0261 35.6667 34.687 35.6667 34.3333C35.6667 33.9797 35.8071 33.6406 36.0572 33.3905C36.3072 33.1405 36.6464 33 37 33C37.3536 33 37.6928 33.1405 37.9428 33.3905C38.1929 33.6406 38.3333 33.9797 38.3333 34.3333ZM31.6667 39.6667C31.6667 40.0203 31.5262 40.3594 31.2761 40.6095C31.0261 40.8595 30.687 41 30.3333 41C29.9797 41 29.6406 40.8595 29.3905 40.6095C29.1405 40.3594 29 40.0203 29 39.6667C29 39.313 29.1405 38.9739 29.3905 38.7239C29.6406 38.4738 29.9797 38.3333 30.3333 38.3333C30.687 38.3333 31.0261 38.4738 31.2761 38.7239C31.5262 38.9739 31.6667 39.313 31.6667 39.6667ZM31.6667 34.3333C31.6667 34.687 31.5262 35.0261 31.2761 35.2761C31.0261 35.5262 30.687 35.6667 30.3333 35.6667C29.9797 35.6667 29.6406 35.5262 29.3905 35.2761C29.1405 35.0261 29 34.687 29 34.3333C29 33.9797 29.1405 33.6406 29.3905 33.3905C29.6406 33.1405 29.9797 33 30.3333 33C30.687 33 31.0261 33.1405 31.2761 33.3905C31.5262 33.6406 31.6667 33.9797 31.6667 34.3333Z" fill="black"/>
<defs>
<filter id="filter0_dd_653_21296" x="0" y="0" width="74" height="74" filterUnits="userSpaceOnUse" color-interpolation-filters="sRGB">
<feFlood flood-opacity="0" result="BackgroundImageFix"/>
<feColorMatrix in="SourceAlpha" type="matrix" values="0 0 0 0 0 0 0 0 0 0 0 0 0 0 0 0 0 0 127 0" result="hardAlpha"/>
<feMorphology radius="2" operator="erode" in="SourceAlpha" result="effect1_dropShadow_653_21296"/>
<feOffset dy="2"/>
<feGaussianBlur stdDeviation="2"/>
<feColorMatrix type="matrix" values="0 0 0 0 0 0 0 0 0 0 0 0 0 0 0 0 0 0 0.1 0"/>
<feBlend mode="normal" in2="BackgroundImageFix" result="effect1_dropShadow_653_21296"/>
<feColorMatrix in="SourceAlpha" type="matrix" values="0 0 0 0 0 0 0 0 0 0 0 0 0 0 0 0 0 0 127 0" result="hardAlpha"/>
<feMorphology radius="1" operator="erode" in="SourceAlpha" result="effect2_dropShadow_653_21296"/>
<feOffset dy="4"/>
<feGaussianBlur stdDeviation="3"/>
<feColorMatrix type="matrix" values="0 0 0 0 0 0 0 0 0 0 0 0 0 0 0 0 0 0 0.1 0"/>
<feBlend mode="normal" in2="effect1_dropShadow_653_21296" result="effect2_dropShadow_653_21296"/>
<feBlend mode="normal" in="SourceGraphic" in2="effect2_dropShadow_653_21296" result="shape"/>
</filter>
</defs>
</svg>
