<svg width="74" height="74" viewBox="0 0 74 74" fill="none" xmlns="http://www.w3.org/2000/svg">
<g filter="url(#filter0_dd_653_21282)">
<circle cx="37" cy="33" r="32" fill="#FAFAFA"/>
</g>
<path d="M30.3359 29L37.0026 33.6667L43.6693 29" stroke="#3A3A3A" stroke-width="2" stroke-linecap="round" stroke-linejoin="round"/>
<path d="M23.668 39.6665V26.3332C23.668 25.6259 23.9489 24.9476 24.449 24.4476C24.9491 23.9475 25.6274 23.6665 26.3346 23.6665H47.668C48.3752 23.6665 49.0535 23.9475 49.5536 24.4476C50.0537 24.9476 50.3346 25.6259 50.3346 26.3332V39.6665C50.3346 40.3737 50.0537 41.052 49.5536 41.5521C49.0535 42.0522 48.3752 42.3332 47.668 42.3332H26.3346C25.6274 42.3332 24.9491 42.0522 24.449 41.5521C23.9489 41.052 23.668 40.3737 23.668 39.6665Z" stroke="#3A3A3A" stroke-width="2"/>
<defs>
<filter id="filter0_dd_653_21282" x="0" y="0" width="74" height="74" filterUnits="userSpaceOnUse" color-interpolation-filters="sRGB">
<feFlood flood-opacity="0" result="BackgroundImageFix"/>
<feColorMatrix in="SourceAlpha" type="matrix" values="0 0 0 0 0 0 0 0 0 0 0 0 0 0 0 0 0 0 127 0" result="hardAlpha"/>
<feMorphology radius="2" operator="erode" in="SourceAlpha" result="effect1_dropShadow_653_21282"/>
<feOffset dy="2"/>
<feGaussianBlur stdDeviation="2"/>
<feColorMatrix type="matrix" values="0 0 0 0 0 0 0 0 0 0 0 0 0 0 0 0 0 0 0.1 0"/>
<feBlend mode="normal" in2="BackgroundImageFix" result="effect1_dropShadow_653_21282"/>
<feColorMatrix in="SourceAlpha" type="matrix" values="0 0 0 0 0 0 0 0 0 0 0 0 0 0 0 0 0 0 127 0" result="hardAlpha"/>
<feMorphology radius="1" operator="erode" in="SourceAlpha" result="effect2_dropShadow_653_21282"/>
<feOffset dy="4"/>
<feGaussianBlur stdDeviation="3"/>
<feColorMatrix type="matrix" values="0 0 0 0 0 0 0 0 0 0 0 0 0 0 0 0 0 0 0.1 0"/>
<feBlend mode="normal" in2="effect1_dropShadow_653_21282" result="effect2_dropShadow_653_21282"/>
<feBlend mode="normal" in="SourceGraphic" in2="effect2_dropShadow_653_21282" result="shape"/>
</filter>
</defs>
</svg>
