<svg width="341" height="441" viewBox="0 0 341 441" fill="none" xmlns="http://www.w3.org/2000/svg">
<path d="M327.868 290.055C320.049 304.161 310.399 313.889 298.912 319.233C287.428 324.587 275.183 326.018 262.171 323.526C249.168 321.032 236.337 315.542 223.664 307.043C210.996 298.548 199.62 287.771 189.553 274.717C174.476 254.712 162.504 230.972 153.606 203.513C144.723 176.055 141.023 148.76 142.517 121.618C142.736 116.214 143.052 110.793 143.483 105.305C143.912 99.8504 144.6 94.4451 145.521 89.1135C140.295 86.1544 133.186 82.4877 124.192 78.1028C115.195 73.7348 105.738 70.0599 95.8099 67.0703C85.8887 64.0949 76.7247 63.0607 68.3181 63.995C59.9202 64.9266 53.5554 69.1179 49.2585 76.5586C43.372 87.0139 41.856 100.243 44.7143 116.266C47.5759 132.283 53.7444 150.075 63.2212 169.625C72.6893 189.178 84.6363 209.422 99.0479 230.328C113.465 251.238 129.283 271.812 146.503 292.033C163.737 312.256 181.434 331.211 199.611 348.91C217.796 366.606 235.546 381.89 252.873 394.778L228.665 440.691C201.6 420.56 175.121 397.163 149.227 370.489C123.339 343.83 99.8107 315.908 78.6405 286.724C69.0131 273.546 59.2779 258.766 49.4353 242.412C39.5979 226.061 30.6858 209.011 22.6991 191.263C14.7316 173.52 8.66721 155.697 4.53389 137.798C0.405829 119.902 -0.808101 102.553 0.888695 85.7571C2.59416 68.9584 8.15067 53.403 17.5653 39.1053C26.4652 25.8116 37.1625 17.3225 49.6486 13.6404C62.14 9.96229 75.224 9.27387 88.8988 11.5648C102.581 13.8699 115.574 17.635 127.889 22.8508C140.209 28.0874 150.776 33.0476 159.595 37.752C162.217 31.362 164.962 25.0725 167.852 18.8822C170.745 12.6854 173.769 6.60337 176.928 0.612755L214.02 28.8964C210.767 34.3574 207.982 39.8063 205.674 45.2678C203.354 50.7382 201.25 55.9918 199.331 61.0491C214.843 71.6686 229.738 83.4319 244.02 96.37C247.906 99.7289 253.689 104.841 261.374 111.71C269.05 118.582 277.444 126.789 286.546 136.333C295.645 145.885 304.283 156.479 312.471 168.118C320.659 179.774 327.345 192.277 332.539 205.634C337.741 219.005 340.259 232.811 340.104 247.044C339.946 261.283 335.87 275.616 327.879 290.062L327.868 290.055ZM237.375 252.619C242.171 257.114 247.948 261.168 254.697 264.809C261.454 268.449 268.072 270.363 274.561 270.551C281.048 270.756 286.366 267.993 290.51 262.276C295.982 254.773 297.438 246.12 294.87 236.328C292.303 226.548 287.106 216.197 279.294 205.289C271.474 194.383 262.768 183.737 253.169 173.355C240.502 160.231 227.817 148.364 215.124 137.761C202.434 127.169 193.25 119.752 187.56 115.52C185.536 143.664 189.176 169.644 198.474 193.466C207.769 217.294 220.735 237.008 237.377 252.629L237.375 252.619Z" fill="#F6F5EA"/>
</svg>
