<svg width="127" height="533" viewBox="0 0 127 533" fill="none" xmlns="http://www.w3.org/2000/svg">
<path d="M41.7287 89.5015C37.8945 87.7663 35.1605 85.4622 33.5276 82.5877C31.8921 79.714 31.2612 76.5598 31.634 73.1229C32.0076 69.6882 33.1643 66.2352 35.1066 62.7594C37.0481 59.285 39.6104 56.0982 42.7925 53.2041C47.6766 48.8597 53.5975 45.2438 60.551 42.3491C67.5044 39.458 74.5252 37.9183 81.6159 37.733C83.0259 37.6756 84.4425 37.643 85.879 37.6392C87.3067 37.6353 88.7271 37.7 90.1332 37.8267C90.7923 36.4051 91.5956 34.4786 92.5458 32.0465C93.4915 29.6143 94.2473 27.077 94.8149 24.4316C95.3789 21.7884 95.4541 19.3831 95.0333 17.2165C94.6134 15.0521 93.3887 13.4854 91.3626 12.5252C88.5189 11.2153 85.0462 11.1008 80.9394 12.1831C76.8342 13.2661 72.3373 15.2467 67.4531 18.1249C62.5681 21.0009 57.5557 24.5362 52.4232 28.7266C47.2898 32.9183 42.2734 37.4674 37.3784 42.3737C32.4834 47.2836 27.9278 52.2873 23.7091 57.3889C19.4911 62.4928 15.8916 67.4325 12.906 72.2116L0.452913 66.8864C5.11633 59.4216 10.6415 52.0402 17.0311 44.7414C23.4171 37.4448 30.1814 30.7349 37.3241 24.6117C40.5477 21.8291 44.1857 18.9846 48.2312 16.0788C52.2757 13.1745 56.5215 10.496 60.9686 8.04348C65.4147 5.59603 69.9218 3.64187 74.4896 2.18831C79.0566 0.736206 83.5431 0.0535683 87.9473 0.139648C92.3524 0.22793 96.5156 1.34409 100.433 3.49027C104.079 5.52381 106.513 8.12645 107.735 11.296C108.955 14.4669 109.411 17.8553 109.105 21.4603C108.794 25.0675 108.09 28.5263 106.994 31.8397C105.893 35.1545 104.826 38.0078 103.789 40.4009C105.506 40.9476 107.2 41.5285 108.871 42.1492C110.544 42.7708 112.19 43.4285 113.815 44.1233L107.243 54.3685C105.754 53.6379 104.278 53.0288 102.809 52.544C101.337 52.0563 99.9262 51.6204 98.5703 51.2282C96.1364 55.4872 93.392 59.6097 90.3291 63.5979C89.5377 64.6796 88.3305 66.2917 86.7065 68.4357C85.0816 70.5775 83.1247 72.9341 80.8348 75.5034C78.5431 78.0719 75.9704 80.5423 73.1164 82.9183C70.2581 85.2941 67.1478 87.2974 63.7838 88.9309C60.4162 90.5666 56.8787 91.5134 53.1738 91.7742C49.4671 92.0343 45.6533 91.2772 41.7269 89.5044L41.7287 89.5015ZM49.5513 65.1742C48.4836 66.5167 47.5515 68.1049 46.747 69.9371C45.9435 71.7715 45.5854 73.5333 45.6738 75.2249C45.7577 76.9163 46.5887 78.2412 48.1634 79.1978C50.2305 80.4625 52.5118 80.6581 55.004 79.783C57.4935 78.9087 60.0756 77.3381 62.7474 75.0757C65.4185 72.811 68.003 70.3217 70.5003 67.6056C73.6457 64.0335 76.4638 60.4834 78.953 56.9581C81.4394 53.4335 83.1742 50.8881 84.1546 49.3187C76.7919 49.3877 70.1119 50.8836 64.113 53.8058C58.1123 56.7272 53.2593 60.5164 49.5486 65.1749L49.5513 65.1742Z" fill="#F6F5EA"/>
<path d="M126.175 486.485C125.683 490.665 124.315 493.968 122.071 496.395C119.828 498.825 117.013 500.382 113.625 501.068C110.238 501.752 106.597 501.696 102.696 500.899C98.797 500.101 94.9836 498.625 91.2613 496.469C85.6413 493.131 80.4013 488.584 75.5357 482.835C70.6736 477.084 67.079 470.86 64.7539 464.159C64.2719 462.833 63.8116 461.492 63.3727 460.125C62.9364 458.765 62.5676 457.392 62.2623 456.014C60.7078 455.816 58.6285 455.634 56.0228 455.466C53.4184 455.302 50.7714 455.35 48.0784 455.611C45.3885 455.874 43.0736 456.531 41.1363 457.589C39.2008 458.645 38.0789 460.287 37.7777 462.509C37.3911 465.615 38.3343 468.96 40.6101 472.545C42.886 476.129 46.1361 479.815 50.3589 483.597C54.5799 487.381 59.4679 491.087 65.0164 494.708C70.5666 498.33 76.4217 501.732 82.5806 504.911C88.7429 508.088 94.8917 510.913 101.032 513.388C107.174 515.861 112.972 517.794 118.431 519.191L117.13 532.673C108.603 530.49 99.8941 527.462 91.0024 523.584C82.1138 519.709 73.6697 515.296 65.6701 510.344C62.0415 508.115 58.2284 505.51 54.2334 502.536C50.2401 499.561 46.4011 496.327 42.7163 492.832C39.0367 489.336 35.8088 485.633 33.0395 481.72C30.2718 477.808 28.2618 473.739 27.0093 469.516C25.7587 465.291 25.5609 460.986 26.4191 456.602C27.2524 452.512 28.9951 449.403 31.6455 447.279C34.2975 445.154 37.3884 443.693 40.9169 442.893C44.4484 442.096 47.9581 441.719 51.4478 441.76C54.9406 441.805 57.9829 441.957 60.5777 442.22C60.5784 440.418 60.6187 438.627 60.7039 436.847C60.7893 435.064 60.9175 433.296 61.0873 431.537L72.842 434.696C72.597 436.336 72.4638 437.927 72.447 439.474C72.4281 441.025 72.4402 442.501 72.4773 443.912C77.2736 444.941 82.0339 446.308 86.7626 448.018C88.0333 448.445 89.9354 449.107 92.4707 450.005C95.0041 450.904 97.8429 452.055 100.985 453.459C104.127 454.864 107.261 456.568 110.39 458.567C113.521 460.571 116.372 462.928 118.948 465.639C121.527 468.353 123.501 471.437 124.873 474.889C126.244 478.343 126.678 482.207 126.178 486.486L126.175 486.485ZM100.621 486.401C102.224 487.012 104.02 487.419 106.009 487.63C108.001 487.84 109.789 487.648 111.374 487.051C112.96 486.459 113.971 485.265 114.406 483.475C114.985 481.122 114.48 478.888 112.891 476.778C111.303 474.671 109.024 472.686 106.058 470.825C103.091 468.966 99.9353 467.257 96.5902 465.7C92.233 463.785 87.9958 462.175 83.882 460.871C79.7697 459.57 76.8183 458.688 75.0257 458.229C77.3223 465.225 80.772 471.137 85.3745 475.969C89.9768 480.802 95.0584 484.279 100.622 486.404L100.621 486.401Z" fill="#F6F5EA"/>
</svg>
