<svg width="310" height="403" viewBox="0 0 310 403" fill="none" xmlns="http://www.w3.org/2000/svg">
<path d="M11.9517 136.421C19.275 123.63 28.2161 114.864 38.7796 110.126C49.3416 105.379 60.5477 104.227 72.4058 106.669C84.256 109.113 95.9102 114.292 107.382 122.219C118.85 130.141 129.109 140.133 138.141 152.188C151.665 170.659 162.303 192.502 170.085 217.706C177.854 242.908 180.89 267.896 179.18 292.678C178.912 297.612 178.554 302.562 178.091 307.571C177.63 312.55 176.932 317.48 176.024 322.34C180.761 325.11 187.21 328.551 195.373 332.672C203.538 336.777 212.133 340.255 221.167 343.112C230.195 345.957 238.555 347.018 246.249 346.271C253.934 345.526 259.803 341.777 263.823 335.032C269.335 325.553 270.888 313.485 268.479 298.807C266.067 284.136 260.656 267.801 252.245 249.817C243.841 231.83 233.181 213.181 220.278 193.896C207.369 174.607 193.177 155.607 177.698 136.911C162.207 118.215 146.276 100.67 129.892 84.2676C113.5 67.8671 97.4745 53.677 81.8051 41.6806L104.507 0.0346878C128.982 18.7727 152.881 40.4873 176.203 65.1881C199.52 89.8757 220.665 115.687 239.639 142.623C248.269 154.786 256.978 168.414 265.764 183.483C274.546 198.548 282.473 214.24 289.546 230.559C296.601 246.872 301.916 263.235 305.466 279.642C309.012 296.047 309.901 311.914 308.138 327.24C306.366 342.568 301.092 356.712 292.308 369.657C284.007 381.691 274.125 389.312 262.67 392.518C251.209 395.721 239.245 396.184 226.779 393.918C214.306 391.638 202.482 388.033 191.294 383.111C180.104 378.17 170.511 373.504 162.512 369.093C160.036 374.899 157.448 380.611 154.729 386.231C152.006 391.856 149.166 397.375 146.204 402.809L112.67 376.495C115.711 371.546 118.325 366.603 120.503 361.642C122.693 356.672 124.681 351.899 126.499 347.302C112.459 337.402 98.999 326.465 86.1127 314.461C82.6045 311.343 77.3852 306.599 70.4502 300.225C63.5232 293.848 55.9575 286.243 47.7609 277.406C39.5676 268.563 31.8098 258.773 24.4748 248.034C17.1415 237.28 11.1908 225.771 6.61344 213.5C2.02977 201.217 -0.0956594 188.569 0.225956 175.566C0.550802 162.558 4.45725 149.513 11.9422 136.413L11.9517 136.421ZM94.1646 171.774C89.839 167.606 84.612 163.829 78.4917 160.416C72.3634 157.005 66.34 155.171 60.4135 154.917C54.4886 154.648 49.5938 157.105 45.7356 162.277C40.6397 169.063 39.2 176.952 41.4226 185.931C43.6437 194.9 48.2614 204.424 55.2613 214.491C62.2692 224.555 70.0889 234.392 78.7283 244.001C90.1366 256.153 101.577 267.158 113.04 277.007C124.502 286.846 132.8 293.74 137.945 297.679C140.151 271.988 137.155 248.203 128.96 226.318C120.769 204.427 109.171 186.249 94.1631 171.765L94.1646 171.774Z" fill="#F6F5EA"/>
</svg>
