<svg width="74" height="74" viewBox="0 0 74 74" fill="none" xmlns="http://www.w3.org/2000/svg">
<g filter="url(#filter0_dd_653_21270)">
<circle cx="37" cy="33" r="32" fill="#FAFAFA"/>
</g>
<path d="M32.5843 20.3358L31.4371 20.6814C30.4156 20.9894 29.5034 21.5828 28.8078 22.3918C28.1122 23.2008 27.6622 24.1917 27.5107 25.2478C27.0355 28.5566 28.0979 32.4254 30.6595 36.8622C33.2147 41.2878 36.0275 44.139 39.1235 45.387C40.1182 45.7879 41.2072 45.8947 42.2609 45.6947C43.3146 45.4948 44.2887 44.9964 45.0675 44.259L45.9347 43.4366C46.4978 42.9036 46.8483 42.1843 46.921 41.4124C46.9936 40.6405 46.7836 39.8685 46.3299 39.2398L44.1603 36.2318C43.867 35.8257 43.4539 35.5215 42.979 35.362C42.5042 35.2025 41.9913 35.1955 41.5123 35.3422L38.2307 36.3454L38.1459 36.3614C37.7843 36.4142 36.9491 35.6318 35.9091 33.8302C34.8211 31.9454 34.5971 30.843 34.8963 30.5582L36.5651 29.0014C37.1747 28.4321 37.5912 27.6865 37.7561 26.8688C37.9211 26.0512 37.8263 25.2025 37.4851 24.4414L36.4259 22.0878C36.1074 21.3795 35.5422 20.8112 34.8357 20.4889C34.1292 20.1666 33.328 20.1121 32.5843 20.3358ZM34.9699 22.7438L36.0259 25.0974C36.2308 25.5539 36.2879 26.063 36.1892 26.5536C36.0906 27.0442 35.841 27.4916 35.4755 27.8334L33.8019 29.3918C32.7299 30.4062 33.0851 32.1374 34.5251 34.6302C35.8787 36.9758 37.1139 38.1342 38.4419 37.9326L38.6403 37.891L41.9811 36.8718C42.1408 36.8227 42.3118 36.8249 42.4702 36.878C42.6286 36.931 42.7664 37.0324 42.8643 37.1678L45.0339 40.1758C45.2611 40.4901 45.3663 40.8762 45.3301 41.2624C45.2939 41.6485 45.1187 42.0083 44.8371 42.275L43.9683 43.0974C43.412 43.6238 42.7163 43.9795 41.9639 44.1221C41.2114 44.2648 40.4338 44.1885 39.7235 43.9022C37.0067 42.8078 34.4387 40.2046 32.0467 36.0622C29.6483 31.9102 28.6771 28.379 29.0947 25.475C29.2028 24.7204 29.5242 24.0125 30.0211 23.4345C30.518 22.8566 31.1697 22.4326 31.8995 22.2126L33.0467 21.867C33.4186 21.7552 33.8185 21.7825 34.1718 21.9439C34.525 22.1052 34.8076 22.3895 34.9667 22.7438" fill="black"/>
<defs>
<filter id="filter0_dd_653_21270" x="0" y="0" width="74" height="74" filterUnits="userSpaceOnUse" color-interpolation-filters="sRGB">
<feFlood flood-opacity="0" result="BackgroundImageFix"/>
<feColorMatrix in="SourceAlpha" type="matrix" values="0 0 0 0 0 0 0 0 0 0 0 0 0 0 0 0 0 0 127 0" result="hardAlpha"/>
<feMorphology radius="2" operator="erode" in="SourceAlpha" result="effect1_dropShadow_653_21270"/>
<feOffset dy="2"/>
<feGaussianBlur stdDeviation="2"/>
<feColorMatrix type="matrix" values="0 0 0 0 0 0 0 0 0 0 0 0 0 0 0 0 0 0 0.1 0"/>
<feBlend mode="normal" in2="BackgroundImageFix" result="effect1_dropShadow_653_21270"/>
<feColorMatrix in="SourceAlpha" type="matrix" values="0 0 0 0 0 0 0 0 0 0 0 0 0 0 0 0 0 0 127 0" result="hardAlpha"/>
<feMorphology radius="1" operator="erode" in="SourceAlpha" result="effect2_dropShadow_653_21270"/>
<feOffset dy="4"/>
<feGaussianBlur stdDeviation="3"/>
<feColorMatrix type="matrix" values="0 0 0 0 0 0 0 0 0 0 0 0 0 0 0 0 0 0 0.1 0"/>
<feBlend mode="normal" in2="effect1_dropShadow_653_21270" result="effect2_dropShadow_653_21270"/>
<feBlend mode="normal" in="SourceGraphic" in2="effect2_dropShadow_653_21270" result="shape"/>
</filter>
</defs>
</svg>
