<svg width="120" height="349" viewBox="0 0 120 349" fill="none" xmlns="http://www.w3.org/2000/svg">
<path d="M41.7287 89.5015C37.8945 87.7663 35.1605 85.4622 33.5276 82.5877C31.8921 79.714 31.2612 76.5598 31.634 73.1229C32.0076 69.6882 33.1643 66.2352 35.1066 62.7594C37.0481 59.285 39.6104 56.0982 42.7925 53.2041C47.6766 48.8597 53.5975 45.2438 60.551 42.3491C67.5044 39.458 74.5252 37.9183 81.6159 37.733C83.0259 37.6756 84.4425 37.643 85.879 37.6392C87.3067 37.6353 88.7271 37.7 90.1332 37.8267C90.7923 36.4051 91.5956 34.4786 92.5458 32.0465C93.4915 29.6143 94.2473 27.077 94.8149 24.4316C95.3789 21.7884 95.4541 19.3831 95.0333 17.2165C94.6134 15.0521 93.3887 13.4854 91.3626 12.5252C88.5189 11.2153 85.0462 11.1008 80.9394 12.1831C76.8342 13.2661 72.3373 15.2467 67.4531 18.1249C62.5681 21.0009 57.5557 24.5362 52.4232 28.7266C47.2898 32.9183 42.2734 37.4674 37.3784 42.3737C32.4834 47.2836 27.9278 52.2873 23.7091 57.3889C19.4911 62.4928 15.8916 67.4325 12.906 72.2116L0.452913 66.8864C5.11633 59.4216 10.6415 52.0402 17.0311 44.7414C23.4171 37.4448 30.1814 30.7349 37.3241 24.6117C40.5477 21.8291 44.1857 18.9846 48.2312 16.0788C52.2757 13.1745 56.5215 10.496 60.9686 8.04348C65.4147 5.59603 69.9218 3.64187 74.4896 2.18831C79.0566 0.736206 83.5431 0.0535683 87.9473 0.139648C92.3524 0.22793 96.5156 1.34409 100.433 3.49027C104.079 5.52381 106.513 8.12645 107.735 11.296C108.955 14.4669 109.411 17.8553 109.105 21.4603C108.794 25.0675 108.09 28.5263 106.994 31.8397C105.893 35.1545 104.826 38.0078 103.789 40.4009C105.506 40.9476 107.2 41.5285 108.871 42.1492C110.544 42.7708 112.19 43.4285 113.815 44.1233L107.243 54.3685C105.754 53.6379 104.278 53.0288 102.809 52.544C101.337 52.0563 99.9262 51.6204 98.5703 51.2282C96.1364 55.4872 93.392 59.6097 90.3291 63.5979C89.5377 64.6796 88.3305 66.2917 86.7065 68.4357C85.0816 70.5775 83.1247 72.9341 80.8348 75.5034C78.5431 78.0719 75.9704 80.5423 73.1164 82.9183C70.2581 85.2941 67.1478 87.2974 63.7838 88.9309C60.4162 90.5666 56.8787 91.5134 53.1738 91.7742C49.4671 92.0343 45.6533 91.2772 41.7269 89.5044L41.7287 89.5015ZM49.5513 65.1742C48.4836 66.5167 47.5515 68.1049 46.747 69.9371C45.9435 71.7715 45.5854 73.5333 45.6738 75.2249C45.7577 76.9163 46.5887 78.2412 48.1634 79.1978C50.2305 80.4625 52.5118 80.6581 55.004 79.783C57.4935 78.9087 60.0756 77.3381 62.7474 75.0757C65.4185 72.811 68.003 70.3217 70.5003 67.6056C73.6457 64.0335 76.4638 60.4834 78.953 56.9581C81.4394 53.4335 83.1742 50.8881 84.1546 49.3187C76.7919 49.3877 70.1119 50.8836 64.113 53.8058C58.1123 56.7272 53.2593 60.5164 49.5486 65.1749L49.5513 65.1742Z" fill="#F6F5EA"/>
<path d="M47.7287 346.501C43.8945 344.766 41.1605 342.462 39.5276 339.588C37.8921 336.714 37.2612 333.56 37.634 330.123C38.0076 326.688 39.1643 323.235 41.1066 319.759C43.0481 316.285 45.6104 313.098 48.7925 310.204C53.6766 305.86 59.5975 302.244 66.551 299.349C73.5044 296.458 80.5252 294.918 87.6159 294.733C89.0259 294.676 90.4425 294.643 91.879 294.639C93.3067 294.635 94.7271 294.7 96.1332 294.827C96.7923 293.405 97.5956 291.479 98.5458 289.046C99.4915 286.614 100.247 284.077 100.815 281.432C101.379 278.788 101.454 276.383 101.033 274.217C100.613 272.052 99.3887 270.485 97.3626 269.525C94.5189 268.215 91.0462 268.101 86.9394 269.183C82.8342 270.266 78.3373 272.247 73.4531 275.125C68.5681 278.001 63.5557 281.536 58.4232 285.727C53.2898 289.918 48.2734 294.467 43.3784 299.374C38.4834 304.284 33.9278 309.287 29.7091 314.389C25.4911 319.493 21.8916 324.432 18.906 329.212L6.45291 323.886C11.1163 316.422 16.6415 309.04 23.0311 301.741C29.4171 294.445 36.1814 287.735 43.3241 281.612C46.5477 278.829 50.1857 275.985 54.2312 273.079C58.2757 270.174 62.5215 267.496 66.9686 265.043C71.4147 262.596 75.9218 260.642 80.4896 259.188C85.0566 257.736 89.5431 257.054 93.9473 257.14C98.3524 257.228 102.516 258.344 106.433 260.49C110.079 262.524 112.513 265.126 113.735 268.296C114.955 271.467 115.411 274.855 115.105 278.46C114.794 282.067 114.09 285.526 112.994 288.84C111.893 292.154 110.826 295.008 109.789 297.401C111.506 297.948 113.2 298.528 114.871 299.149C116.544 299.771 118.19 300.429 119.815 301.123L113.243 311.368C111.754 310.638 110.278 310.029 108.809 309.544C107.337 309.056 105.926 308.62 104.57 308.228C102.136 312.487 99.392 316.61 96.3291 320.598C95.5377 321.68 94.3305 323.292 92.7065 325.436C91.0816 327.577 89.1247 329.934 86.8348 332.503C84.5431 335.072 81.9704 337.542 79.1164 339.918C76.2581 342.294 73.1478 344.297 69.7838 345.931C66.4162 347.567 62.8787 348.513 59.1738 348.774C55.4671 349.034 51.6533 348.277 47.7269 346.504L47.7287 346.501ZM55.5513 322.174C54.4836 323.517 53.5515 325.105 52.747 326.937C51.9435 328.771 51.5854 330.533 51.6738 332.225C51.7577 333.916 52.5887 335.241 54.1634 336.198C56.2305 337.462 58.5118 337.658 61.004 336.783C63.4935 335.909 66.0756 334.338 68.7474 332.076C71.4185 329.811 74.003 327.322 76.5003 324.606C79.6457 321.034 82.4638 317.483 84.953 313.958C87.4394 310.434 89.1742 307.888 90.1546 306.319C82.7919 306.388 76.1119 307.884 70.113 310.806C64.1123 313.727 59.2593 317.516 55.5486 322.175L55.5513 322.174Z" fill="#F6F5EA"/>
</svg>
