<svg width="353" height="322" viewBox="0 0 353 322" fill="none" xmlns="http://www.w3.org/2000/svg">
<path d="M-57.7241 147.027C-54.8894 142.371 -51.3146 138.977 -46.9977 136.847C-42.6817 134.713 -38.0379 133.749 -33.063 133.953C-28.0913 134.158 -23.1558 135.288 -18.2503 137.346C-13.3468 139.403 -8.91186 142.214 -4.95287 145.779C0.981308 151.258 5.77139 158.013 9.42847 166.04C13.0802 174.067 14.7586 182.267 14.4591 190.644C14.4296 192.308 14.3632 193.982 14.2534 195.681C14.1445 197.37 13.9362 199.055 13.6389 200.727C15.6561 201.409 18.397 202.226 21.8623 203.183C25.3281 204.134 28.9623 204.853 32.769 205.341C36.5728 205.826 40.0693 205.749 43.2582 205.102C46.4437 204.455 48.8235 202.898 50.3844 200.435C52.5202 196.98 52.9657 192.864 51.7194 188.079C50.472 183.297 47.9489 178.114 44.1498 172.534C40.3539 166.953 35.6082 161.267 29.9183 155.484C24.2263 149.699 18.0047 144.079 11.2531 138.626C4.49622 133.174 -2.42435 128.129 -9.51469 123.49C-16.6083 118.852 -23.5125 114.935 -30.2321 111.732L-21.4778 96.6311C-10.9819 101.633 -0.676604 107.66 9.43891 114.716C19.5516 121.768 28.7795 129.307 37.1226 137.335C40.9159 140.957 44.766 145.065 48.6726 149.651C52.5772 154.235 56.1366 159.074 59.351 164.166C62.558 169.257 65.0418 174.455 66.7918 179.758C68.5397 185.061 69.1735 190.322 68.6945 195.539C68.2123 200.757 66.2527 205.76 62.8128 210.543C59.5589 214.996 55.5735 218.056 50.8599 219.72C46.1443 221.384 41.1736 222.157 35.9485 222.043C30.7207 221.925 25.7405 221.33 21.0034 220.262C16.2648 219.188 12.1955 218.123 8.79385 217.062C7.8598 219.131 6.878 221.175 5.83986 223.195C4.80048 225.217 3.7105 227.21 2.56825 229.18L-11.8232 222.113C-10.6398 220.3 -9.63428 218.512 -8.81037 216.74C-7.98196 214.965 -7.23393 213.266 -6.55399 211.635C-12.5605 209.049 -18.3434 206.087 -23.9051 202.738C-25.4167 201.877 -27.6674 200.56 -30.6591 198.786C-33.6475 197.012 -36.9222 194.859 -40.4797 192.327C-44.036 189.794 -47.4269 186.92 -50.6576 183.708C-53.8879 180.49 -56.5553 176.948 -58.664 173.081C-60.7755 169.21 -61.8702 165.09 -61.9525 160.725C-62.0336 156.357 -60.6249 151.793 -57.7281 147.025L-57.7241 147.027ZM-22.9266 154.602C-24.7958 153.432 -27.0336 152.438 -29.6371 151.613C-32.2438 150.789 -34.7807 150.487 -37.2511 150.709C-39.7209 150.925 -41.7169 151.999 -43.2364 153.928C-45.244 156.461 -45.712 159.174 -44.6378 162.062C-43.5645 164.947 -41.4847 167.894 -38.4046 170.898C-35.3212 173.902 -31.9038 176.788 -28.1491 179.555C-23.2 183.03 -18.2565 186.119 -13.3228 188.821C-8.38994 191.519 -4.82248 193.396 -2.61594 194.447C-2.12524 185.741 -3.7673 177.941 -7.54089 171.046C-11.3132 164.148 -16.4415 158.668 -22.9274 154.599L-22.9266 154.602Z" fill="#D88164"/>
<path d="M368.197 334.892C364.519 338.916 360.359 341.559 355.713 342.819C351.067 344.082 346.324 344.135 341.481 342.978C336.642 341.821 332.016 339.763 327.598 336.799C323.182 333.837 319.37 330.225 316.171 325.966C311.402 319.448 308 311.897 305.956 303.317C303.916 294.737 303.846 286.367 305.752 278.205C306.101 276.577 306.488 274.948 306.922 273.301C307.354 271.665 307.883 270.051 308.496 268.467C306.648 267.41 304.115 266.081 300.898 264.476C297.68 262.876 294.252 261.472 290.611 260.26C286.971 259.052 283.525 258.455 280.271 258.477C277.021 258.499 274.386 259.569 272.381 261.686C269.62 264.666 268.391 268.62 268.694 273.554C268.998 278.487 270.477 284.059 273.132 290.266C275.783 296.472 279.347 302.965 283.818 309.735C288.291 316.506 293.315 323.218 298.892 329.868C304.474 336.518 310.295 342.799 316.36 348.716C322.429 354.632 328.451 359.804 334.429 364.239L322.934 377.374C313.596 370.447 304.642 362.55 296.073 353.68C287.506 344.815 279.9 335.641 273.257 326.158C270.231 321.874 267.243 317.103 264.292 311.851C261.342 306.601 258.78 301.169 256.605 295.553C254.437 289.94 252.999 284.362 252.302 278.82C251.607 273.28 251.997 267.996 253.471 262.968C254.947 257.941 257.833 253.409 262.128 249.376C266.178 245.632 270.678 243.396 275.624 242.669C280.571 241.944 285.598 242.142 290.703 243.259C295.811 244.38 300.584 245.921 305.027 247.881C309.47 249.846 313.259 251.674 316.393 253.37C317.707 251.519 319.064 249.702 320.471 247.919C321.88 246.135 323.333 244.389 324.833 242.675L337.596 252.379C336.086 253.93 334.756 255.492 333.606 257.072C332.452 258.654 331.391 260.178 330.41 261.648C335.807 265.341 340.912 269.36 345.726 273.716C347.043 274.852 348.999 276.577 351.593 278.893C354.185 281.209 356.984 283.951 359.988 287.12C362.991 290.291 365.766 293.763 368.318 297.537C370.869 301.316 372.805 305.304 374.131 309.505C375.458 313.71 375.74 317.964 374.981 322.263C374.221 326.565 371.96 330.773 368.2 334.895L368.197 334.892ZM335.506 320.765C337.115 322.273 339.12 323.678 341.517 324.989C343.916 326.299 346.348 327.083 348.814 327.341C351.28 327.604 353.445 326.933 355.307 325.333C357.765 323.233 358.746 320.661 358.247 317.62C357.749 314.583 356.275 311.291 353.83 307.75C351.382 304.209 348.584 300.72 345.431 297.282C341.243 292.92 336.986 288.938 332.664 285.338C328.342 281.741 325.202 279.213 323.239 277.757C321.083 286.206 321.194 294.176 323.571 301.669C325.946 309.164 329.924 315.528 335.506 320.768L335.506 320.765Z" fill="#D88164"/>
<path d="M279.899 -21.0791C284.081 -17.5827 286.905 -13.5425 288.369 -8.9566C289.836 -4.37102 290.098 0.364614 289.156 5.25374C288.213 10.1395 286.361 14.8517 283.595 19.3961C280.831 23.9387 277.39 27.9056 273.276 31.2896C266.975 36.342 259.581 40.0728 251.099 42.494C242.618 44.9099 234.259 45.3487 226.021 43.8053C224.38 43.5284 222.734 43.2135 221.07 42.852C219.417 42.4928 217.781 42.036 216.172 41.4929C215.198 43.3862 213.981 45.9748 212.52 49.2592C211.063 52.5447 209.811 56.0314 208.761 59.7228C207.715 63.412 207.271 66.8811 207.436 70.1308C207.601 73.3771 208.787 75.9622 210.99 77.8724C214.088 80.4988 218.093 81.5522 223.009 81.0322C227.924 80.5106 233.425 78.7875 239.509 75.8615C245.593 72.9389 251.922 69.0927 258.488 64.3272C265.055 59.5599 271.539 54.2446 277.936 48.3801C284.334 42.5103 290.352 36.4179 295.996 30.0973C301.638 23.7733 306.54 17.5293 310.707 11.3614L324.336 22.2666C317.827 31.9007 310.333 41.1938 301.85 50.146C293.371 59.096 284.541 67.0985 275.361 74.1534C271.215 77.3651 266.579 80.5606 261.463 83.741C256.348 86.9194 251.034 89.7188 245.52 92.1392C240.008 94.5525 234.499 96.2347 228.993 97.1754C223.489 98.1143 218.192 97.9578 213.105 96.7074C208.017 95.4537 203.362 92.7711 199.144 88.6574C195.225 84.7766 192.793 80.3801 191.849 75.4712C190.906 70.5605 190.882 65.5301 191.772 60.3803C192.667 55.2282 193.997 50.3921 195.758 45.8669C197.526 41.341 199.185 37.4756 200.741 34.2699C198.834 33.0381 196.959 31.7629 195.116 30.4356C193.271 29.1067 191.463 27.7322 189.685 26.3094L198.816 13.1306C200.432 14.5707 202.051 15.8312 203.68 16.9098C205.312 17.9932 206.881 18.9859 208.393 19.9012C211.844 14.3465 215.634 9.06916 219.773 4.06804C220.85 2.7015 222.488 0.67201 224.687 -2.0223C226.886 -4.71321 229.503 -7.63084 232.536 -10.7718C235.571 -13.9112 238.917 -16.8364 242.575 -19.5528C246.238 -22.268 250.137 -24.3784 254.275 -25.8878C258.418 -27.3994 262.655 -27.8684 266.984 -27.2999C271.314 -26.7298 275.618 -24.6572 279.902 -21.0828L279.899 -21.0791ZM267.227 12.2026C268.663 10.5285 269.978 8.46352 271.182 6.01193C272.385 3.55693 273.061 1.09327 273.21 -1.38246C273.364 -3.85699 272.599 -5.99068 270.917 -7.78046C268.712 -10.1428 266.099 -11.0095 263.083 -10.3773C260.07 -9.7455 256.847 -8.1276 253.417 -5.52924C249.988 -2.92747 246.625 0.0221432 243.33 3.32301C239.157 7.69965 235.366 12.1281 231.96 16.6045C228.557 21.0807 226.171 24.329 224.802 26.3543C233.338 28.1358 241.296 27.6734 248.676 24.9686C256.059 22.2653 262.242 18.0101 267.23 12.2023L267.227 12.2026Z" fill="#D88164"/>
</svg>
