<svg width="296" height="265" viewBox="0 0 296 265" fill="none" xmlns="http://www.w3.org/2000/svg">
<path d="M14.5245 36.8167C13.5232 31.2155 13.8803 26.1975 15.5978 21.7621C17.3127 17.3248 20.028 13.6492 23.7453 10.7324C27.4609 7.81867 31.7553 5.69092 36.6347 4.34783C41.5119 3.0052 46.5447 2.57578 51.7272 3.0635C59.5834 3.90589 67.4501 6.51182 75.3315 10.8698C83.2093 15.2312 89.7785 20.9591 95.0379 28.059C96.1045 29.451 97.1507 30.8738 98.1824 32.3445C99.2078 33.8061 100.159 35.326 101.038 36.8909C102.937 36.2026 105.446 35.1777 108.567 33.8182C111.686 32.454 114.774 30.794 117.836 28.837C120.893 26.8784 123.362 24.6465 125.236 22.1347C127.109 19.6259 127.805 16.8649 127.32 13.8636C126.6 9.68746 124.23 6.0133 120.205 2.83703C116.181 -0.336723 110.975 -3.0509 104.59 -5.30091C98.2077 -7.55391 91.0719 -9.30462 83.1926 -10.5498C75.3112 -11.7946 67.1549 -12.5763 58.7268 -12.8904C50.2949 -13.2011 42.0119 -13.0734 33.8714 -12.5059C25.7294 -11.9355 18.1946 -10.8879 11.2603 -9.36443L7.69634 -27.2581C18.5275 -29.6377 29.8915 -31.0529 41.791 -31.5015C53.6858 -31.9517 65.2623 -31.4503 76.5204 -29.9974C81.6205 -29.3601 87.0793 -28.3567 92.8912 -26.9941C98.7009 -25.631 104.428 -23.8445 110.072 -21.6345C115.71 -19.4206 120.897 -16.6706 125.625 -13.3777C130.35 -10.0843 134.246 -6.13477 137.311 -1.53172C140.374 3.07431 142.232 8.41879 142.88 14.5001C143.447 20.1941 142.576 25.1909 140.268 29.4875C137.958 33.7846 134.882 37.5052 131.044 40.6512C127.2 43.7957 123.224 46.3931 119.113 48.449C114.997 50.5007 111.369 52.1451 108.224 53.3781C108.904 55.6656 109.533 57.9617 110.106 60.2728C110.679 62.5865 111.196 64.9071 111.661 67.2418L96.6729 70.3321C96.3409 68.1024 95.8963 66.0027 95.3318 64.0293C94.7683 62.0504 94.1965 60.1839 93.6201 58.4158C87.6027 60.0063 81.5002 61.147 75.3047 61.8319C73.6525 62.0581 71.1702 62.3666 67.8557 62.758C64.5429 63.1463 60.7767 63.4001 56.5587 63.5163C52.3403 63.6299 48.0193 63.3609 43.5919 62.7125C39.1614 62.0596 34.9248 60.7904 30.8778 58.9058C26.8261 57.0196 23.3445 54.2976 20.4318 50.7454C17.5186 47.1906 15.5498 42.5494 14.5203 36.8176L14.5245 36.8167ZM44.5454 21.4917C42.4336 21.6846 40.1723 22.2525 37.7572 23.1858C35.3406 24.122 33.3155 25.4459 31.6805 27.1604C30.0424 28.8703 29.3069 30.9951 29.4732 33.5297C29.6824 36.8653 31.1184 39.3946 33.7801 41.1125C36.4391 42.8284 39.8634 43.9708 44.0466 44.5412C48.2314 45.1086 52.5798 45.3717 57.0935 45.3274C62.9303 45.1266 68.5109 44.611 73.8312 43.7816C79.1488 42.9501 82.9456 42.287 85.2226 41.7867C79.8854 34.296 73.604 28.876 66.378 25.524C59.1515 22.1696 51.8748 20.8261 44.5428 21.4896L44.5454 21.4917Z" fill="#F6F5EA"/>
<path d="M-60.4755 160.817C-61.4768 155.215 -61.1197 150.197 -59.4022 145.762C-57.6873 141.325 -54.972 137.649 -51.2547 134.732C-47.5391 131.819 -43.2447 129.691 -38.3653 128.348C-33.4881 127.005 -28.4553 126.576 -23.2728 127.063C-15.4166 127.906 -7.54993 130.512 0.331544 134.87C8.20931 139.231 14.7785 144.959 20.0379 152.059C21.1045 153.451 22.1507 154.874 23.1824 156.345C24.2078 157.806 25.1592 159.326 26.0381 160.891C27.9369 160.203 30.4458 159.178 33.5674 157.818C36.6859 156.454 39.7741 154.794 42.8361 152.837C45.8933 150.878 48.3619 148.647 50.2361 146.135C52.1087 143.626 52.8053 140.865 52.3197 137.864C51.6 133.687 49.2303 130.013 45.2052 126.837C41.1807 123.663 35.9747 120.949 29.5904 118.699C23.2077 116.446 16.0719 114.695 8.19264 113.45C0.311239 112.205 -7.84509 111.424 -16.2732 111.11C-24.7051 110.799 -32.9881 110.927 -41.1286 111.494C-49.2706 112.065 -56.8054 113.112 -63.7397 114.636L-67.3037 96.7419C-56.4725 94.3623 -45.1085 92.9471 -33.209 92.4985C-21.3142 92.0483 -9.73774 92.5497 1.52036 94.0026C6.6205 94.6399 12.0793 95.6433 17.8912 97.0059C23.7009 98.369 29.4279 100.155 35.0721 102.365C40.7105 104.579 45.8972 107.329 50.6249 110.622C55.3504 113.916 59.2458 117.865 62.3107 122.468C65.3739 127.074 67.2321 132.419 67.8805 138.5C68.4474 144.194 67.576 149.191 65.268 153.488C62.958 157.785 59.8823 161.505 56.0436 164.651C52.2002 167.796 48.2236 170.393 44.1128 172.449C39.9968 174.501 36.369 176.145 33.2244 177.378C33.9043 179.666 34.5331 181.962 35.1056 184.273C35.6785 186.586 36.1957 188.907 36.6607 191.242L21.6729 194.332C21.3409 192.102 20.8963 190.003 20.3318 188.029C19.7683 186.05 19.1965 184.184 18.6201 182.416C12.6027 184.006 6.50024 185.147 0.304742 185.832C-1.34752 186.058 -3.82983 186.367 -7.14429 186.758C-10.4571 187.146 -14.2233 187.4 -18.4413 187.516C-22.6597 187.63 -26.9807 187.361 -31.4081 186.713C-35.8386 186.06 -40.0752 184.79 -44.1222 182.906C-48.1739 181.02 -51.6555 178.298 -54.5682 174.745C-57.4814 171.191 -59.4502 166.549 -60.4797 160.818L-60.4755 160.817ZM-30.4546 145.492C-32.5664 145.685 -34.8277 146.253 -37.2428 147.186C-39.6594 148.122 -41.6845 149.446 -43.3195 151.16C-44.9576 152.87 -45.6931 154.995 -45.5268 157.53C-45.3176 160.865 -43.8816 163.395 -41.2199 165.113C-38.5609 166.828 -35.1366 167.971 -30.9534 168.541C-26.7686 169.109 -22.4202 169.372 -17.9065 169.327C-12.0697 169.127 -6.48908 168.611 -1.16882 167.782C4.14883 166.95 7.94562 166.287 10.2226 165.787C4.88536 158.296 -1.39601 152.876 -8.62201 149.524C-15.8485 146.17 -23.1252 144.826 -30.4572 145.49L-30.4546 145.492Z" fill="#F6F5EA"/>
<path d="M249.525 148.817C248.523 143.215 248.88 138.197 250.598 133.762C252.313 129.325 255.028 125.649 258.745 122.732C262.461 119.819 266.755 117.691 271.635 116.348C276.512 115.005 281.545 114.576 286.727 115.063C294.583 115.906 302.45 118.512 310.332 122.87C318.209 127.231 324.778 132.959 330.038 140.059C331.104 141.451 332.151 142.874 333.182 144.345C334.208 145.806 335.159 147.326 336.038 148.891C337.937 148.203 340.446 147.178 343.567 145.818C346.686 144.454 349.774 142.794 352.836 140.837C355.893 138.878 358.362 136.647 360.236 134.135C362.109 131.626 362.805 128.865 362.32 125.864C361.6 121.687 359.23 118.013 355.205 114.837C351.181 111.663 345.975 108.949 339.59 106.699C333.208 104.446 326.072 102.695 318.193 101.45C310.311 100.205 302.155 99.4237 293.727 99.1096C285.295 98.7989 277.012 98.9266 268.871 99.4941C260.729 100.065 253.195 101.112 246.26 102.636L242.696 84.7419C253.527 82.3623 264.891 80.9471 276.791 80.4985C288.686 80.0483 300.262 80.5497 311.52 82.0026C316.621 82.6399 322.079 83.6433 327.891 85.0059C333.701 86.369 339.428 88.1555 345.072 90.3655C350.71 92.5794 355.897 95.3294 360.625 98.6223C365.35 101.916 369.246 105.865 372.311 110.468C375.374 115.074 377.232 120.419 377.88 126.5C378.447 132.194 377.576 137.191 375.268 141.488C372.958 145.785 369.882 149.505 366.044 152.651C362.2 155.796 358.224 158.393 354.113 160.449C349.997 162.501 346.369 164.145 343.224 165.378C343.904 167.666 344.533 169.962 345.106 172.273C345.679 174.586 346.196 176.907 346.661 179.242L331.673 182.332C331.341 180.102 330.896 178.003 330.332 176.029C329.768 174.05 329.196 172.184 328.62 170.416C322.603 172.006 316.5 173.147 310.305 173.832C308.652 174.058 306.17 174.367 302.856 174.758C299.543 175.146 295.777 175.4 291.559 175.516C287.34 175.63 283.019 175.361 278.592 174.713C274.161 174.06 269.925 172.79 265.878 170.906C261.826 169.02 258.344 166.298 255.432 162.745C252.519 159.191 250.55 154.549 249.52 148.818L249.525 148.817ZM279.545 133.492C277.434 133.685 275.172 134.253 272.757 135.186C270.341 136.122 268.316 137.446 266.681 139.16C265.042 140.87 264.307 142.995 264.473 145.53C264.682 148.865 266.118 151.395 268.78 153.113C271.439 154.828 274.863 155.971 279.047 156.541C283.231 157.109 287.58 157.372 292.093 157.327C297.93 157.127 303.511 156.611 308.831 155.782C314.149 154.95 317.946 154.287 320.223 153.787C314.885 146.296 308.604 140.876 301.378 137.524C294.151 134.17 286.875 132.826 279.543 133.49L279.545 133.492Z" fill="#F6F5EA"/>
<path d="M222.525 20.8167C221.523 15.2155 221.88 10.1975 223.598 5.76215C225.313 1.32476 228.028 -2.35081 231.745 -5.26756C235.461 -8.18133 239.755 -10.3091 244.635 -11.6522C249.512 -12.9948 254.545 -13.4242 259.727 -12.9365C267.583 -12.0941 275.45 -9.48818 283.332 -5.13022C291.209 -0.768805 297.778 4.95908 303.038 12.059C304.104 13.451 305.151 14.8738 306.182 16.3445C307.208 17.8061 308.159 19.326 309.038 20.8909C310.937 20.2026 313.446 19.1777 316.567 17.8182C319.686 16.454 322.774 14.794 325.836 12.837C328.893 10.8784 331.362 8.64653 333.236 6.13472C335.109 3.6259 335.805 0.864887 335.32 -2.13637C334.6 -6.31254 332.23 -9.9867 328.205 -13.163C324.181 -16.3367 318.975 -19.0509 312.59 -21.3009C306.208 -23.5539 299.072 -25.3046 291.193 -26.5498C283.311 -27.7946 275.155 -28.5763 266.727 -28.8904C258.295 -29.2011 250.012 -29.0734 241.871 -28.5059C233.729 -27.9355 226.195 -26.8879 219.26 -25.3644L215.696 -43.2581C226.527 -45.6377 237.891 -47.0529 249.791 -47.5015C261.686 -47.9517 273.262 -47.4503 284.52 -45.9974C289.621 -45.3601 295.079 -44.3567 300.891 -42.9941C306.701 -41.631 312.428 -39.8445 318.072 -37.6345C323.71 -35.4206 328.897 -32.6706 333.625 -29.3777C338.35 -26.0843 342.246 -22.1348 345.311 -17.5317C348.374 -12.9257 350.232 -7.58121 350.88 -1.49987C351.447 4.19412 350.576 9.19092 348.268 13.4875C345.958 17.7846 342.882 21.5052 339.044 24.6512C335.2 27.7957 331.224 30.3931 327.113 32.449C322.997 34.5007 319.369 36.1451 316.224 37.3781C316.904 39.6656 317.533 41.9617 318.106 44.2728C318.679 46.5865 319.196 48.9071 319.661 51.2418L304.673 54.3321C304.341 52.1024 303.896 50.0027 303.332 48.0293C302.768 46.0504 302.196 44.1839 301.62 42.4158C295.603 44.0063 289.5 45.147 283.305 45.8319C281.652 46.0581 279.17 46.3666 275.856 46.758C272.543 47.1463 268.777 47.4001 264.559 47.5163C260.34 47.6299 256.019 47.3609 251.592 46.7125C247.161 46.0596 242.925 44.7904 238.878 42.9058C234.826 41.0196 231.344 38.2976 228.432 34.7454C225.519 31.1906 223.55 26.5494 222.52 20.8176L222.525 20.8167ZM252.545 5.49172C250.434 5.68464 248.172 6.25252 245.757 7.18576C243.341 8.12199 241.316 9.44588 239.681 11.1604C238.042 12.8703 237.307 14.9951 237.473 17.5297C237.682 20.8653 239.118 23.3946 241.78 25.1125C244.439 26.8284 247.863 27.9708 252.047 28.5412C256.231 29.1086 260.58 29.3717 265.093 29.3274C270.93 29.1266 276.511 28.611 281.831 27.7816C287.149 26.9501 290.946 26.287 293.223 25.7867C287.885 18.296 281.604 12.876 274.378 9.52403C267.151 6.16955 259.875 4.82613 252.543 5.48965L252.545 5.49172Z" fill="#F6F5EA"/>
<path d="M181.041 192.459C184.398 187.865 188.273 184.657 192.666 182.834C197.059 181.008 201.592 180.432 206.269 181.104C210.942 181.777 215.448 183.412 219.79 186.011C224.13 188.61 227.918 191.951 231.146 196.035C235.965 202.297 239.516 209.784 241.81 218.493C244.1 227.202 244.498 235.908 242.998 244.616C242.729 246.349 242.423 248.088 242.073 249.85C241.725 251.601 241.283 253.339 240.759 255.056C242.568 255.953 245.043 257.059 248.182 258.376C251.323 259.688 254.657 260.774 258.187 261.635C261.715 262.492 265.034 262.735 268.145 262.355C271.253 261.975 273.73 260.571 275.564 258.147C278.086 254.741 279.105 250.489 278.621 245.385C278.135 240.283 276.5 234.644 273.716 228.474C270.935 222.303 267.27 215.934 262.727 209.378C258.182 202.82 253.112 196.383 247.516 190.073C241.915 183.762 236.1 177.862 230.065 172.369C224.027 166.877 218.064 162.154 212.172 158.193L222.646 143.254C231.85 149.44 240.724 156.678 249.27 164.971C257.813 173.259 265.449 181.975 272.177 191.118C275.24 195.245 278.286 199.885 281.316 205.028C284.345 210.17 287.01 215.544 289.312 221.152C291.607 226.758 293.202 232.407 294.088 238.1C294.972 243.792 294.808 249.337 293.597 254.733C292.384 260.13 289.804 265.166 285.855 269.836C282.13 274.18 277.916 277.002 273.215 278.302C268.512 279.601 263.698 279.948 258.771 279.346C253.842 278.74 249.217 277.66 244.891 276.108C240.564 274.55 236.868 273.064 233.804 271.642C232.62 273.714 231.395 275.755 230.12 277.766C228.843 279.778 227.522 281.756 226.156 283.705L213.567 275.004C214.949 273.224 216.16 271.452 217.197 269.68C218.238 267.906 219.192 266.203 220.072 264.564C214.765 261.313 209.724 257.689 204.949 253.683C203.644 252.645 201.706 251.064 199.133 248.938C196.563 246.811 193.777 244.264 190.779 241.295C187.783 238.323 184.992 235.014 182.402 231.365C179.813 227.711 177.803 223.771 176.37 219.543C174.934 215.311 174.496 210.913 175.052 206.353C175.609 201.791 177.604 197.161 181.037 192.457L181.041 192.459ZM212.861 203.575C211.263 202.181 209.29 200.939 206.946 199.838C204.6 198.738 202.244 198.188 199.875 198.191C197.507 198.188 195.462 199.124 193.745 200.995C191.478 203.451 190.641 206.237 191.238 209.348C191.835 212.456 193.375 215.721 195.853 219.139C198.334 222.557 201.148 225.882 204.298 229.115C208.476 233.196 212.705 236.874 216.98 240.147C221.255 243.417 224.358 245.704 226.293 247.004C228.021 237.971 227.599 229.685 225.03 222.145C222.462 214.603 218.406 208.414 212.861 203.572L212.861 203.575Z" fill="#F6F5EA"/>
</svg>
