<svg width="296" height="270" viewBox="0 0 296 270" fill="none" xmlns="http://www.w3.org/2000/svg">
<path d="M216.751 182.147C219.743 177.307 223.358 173.808 227.597 171.651C231.835 169.491 236.31 168.565 241.025 168.874C245.737 169.183 250.355 170.464 254.885 172.72C259.414 174.975 263.449 178.013 266.983 181.835C272.272 187.705 276.392 194.896 279.353 203.401C282.31 211.906 283.38 220.556 282.559 229.353C282.425 231.102 282.254 232.859 282.041 234.643C281.83 236.416 281.524 238.183 281.134 239.935C283.008 240.689 285.56 241.6 288.792 242.671C292.025 243.736 295.433 244.561 299.019 245.146C302.603 245.728 305.931 245.713 309.003 245.093C312.072 244.474 314.433 242.883 316.074 240.323C318.325 236.733 319.012 232.415 318.134 227.364C317.255 222.314 315.189 216.819 311.935 210.882C308.685 204.945 304.539 198.879 299.502 192.694C294.463 186.507 288.91 180.482 282.842 174.624C276.77 168.766 270.516 163.334 264.074 158.324C257.63 153.315 251.319 149.067 245.138 145.575L254.425 129.87C264.079 135.325 273.487 141.855 282.649 149.462C291.808 157.064 300.095 165.163 307.51 173.757C310.883 177.636 314.28 182.026 317.699 186.919C321.116 191.811 324.189 196.963 326.918 202.376C329.64 207.787 331.667 213.297 332.991 218.904C334.313 224.51 334.578 230.051 333.789 235.525C332.997 240.999 330.814 246.22 327.239 251.182C323.861 255.801 319.878 258.941 315.292 260.6C310.704 262.259 305.93 262.978 300.972 262.759C296.011 262.536 291.316 261.817 286.882 260.605C282.448 259.386 278.649 258.19 275.484 257.01C274.464 259.167 273.4 261.297 272.284 263.4C271.167 265.505 270.003 267.579 268.791 269.628L255.567 261.928C256.808 260.046 257.878 258.185 258.774 256.339C259.675 254.489 260.495 252.717 261.245 251.016C255.702 248.185 250.396 244.962 245.325 241.338C243.944 240.403 241.889 238.977 239.159 237.056C236.433 235.135 233.458 232.811 230.24 230.082C227.022 227.352 223.983 224.268 221.119 220.831C218.255 217.388 215.946 213.615 214.19 209.511C212.431 205.403 211.655 201.052 211.856 196.463C212.058 191.871 213.689 187.101 216.748 182.145L216.751 182.147ZM249.337 190.767C247.635 189.502 245.572 188.415 243.15 187.499C240.726 186.583 238.334 186.218 235.972 186.404C233.611 186.584 231.646 187.676 230.078 189.675C228.008 192.298 227.389 195.14 228.225 198.196C229.061 201.248 230.849 204.384 233.584 207.601C236.322 210.816 239.385 213.914 242.776 216.893C247.257 220.638 251.757 223.978 256.273 226.911C260.788 229.84 264.058 231.88 266.088 233.027C267.112 223.887 266.051 215.658 262.906 208.34C259.762 201.019 255.239 195.163 249.336 190.764L249.337 190.767Z" fill="#F6F5EA"/>
<path d="M-8.24874 -1.85309C-5.25667 -6.69284 -1.64209 -10.1918 2.59687 -12.3489C6.83524 -14.5094 11.3103 -15.4348 16.0252 -15.1265C20.737 -14.817 25.3552 -13.5359 29.8854 -11.2801C34.4138 -9.0253 38.4486 -5.98662 41.9829 -2.165C47.2718 3.70505 51.3916 10.8955 54.3533 19.4007C57.3099 27.9059 58.38 36.5556 57.5591 45.3532C57.4245 47.1016 57.2543 48.8595 57.0412 50.6433C56.8295 52.4161 56.5237 54.183 56.1341 55.9349C58.0075 56.6895 60.56 57.6004 63.7922 58.671C67.025 59.7361 70.4328 60.5605 74.0192 61.1464C77.6032 61.7279 80.9311 61.713 84.0031 61.093C87.0719 60.4741 89.4333 58.8827 91.0744 56.3234C93.3253 52.7329 94.0122 48.4151 93.1341 43.3635C92.2547 38.3141 90.1887 32.8186 86.9354 26.8825C83.6852 20.9452 79.5391 14.8794 74.5018 8.69398C69.4627 2.50746 63.9098 -3.51767 57.8424 -9.37593C51.7699 -15.2341 45.5158 -20.6664 39.0744 -25.6762C32.6298 -30.6847 26.3191 -34.9327 20.138 -38.4255L29.4246 -54.1304C39.0793 -48.6748 48.4872 -42.1452 57.6489 -34.5385C66.8082 -26.9361 75.0953 -18.8374 82.5104 -10.2425C85.8835 -6.36435 89.2795 -1.97428 92.6987 2.91894C96.1159 7.81109 99.189 12.9634 101.918 18.3758C104.64 23.7873 106.667 29.2967 107.991 34.904C109.313 40.5103 109.578 46.0513 108.789 51.5247C107.997 56.9993 105.814 62.2197 102.239 67.1816C98.8612 71.8006 94.8778 74.9405 90.2916 76.6004C85.7036 78.2591 80.9301 78.9775 75.9717 78.759C71.0109 78.5361 66.316 77.8169 61.8825 76.6047C57.4479 75.386 53.6487 74.1899 50.4839 73.0097C49.4637 75.167 48.3998 77.2967 47.2838 79.4C46.1666 81.5054 45.0031 83.5789 43.7915 85.628L30.5668 77.9278C31.8075 76.0457 32.8776 74.1852 33.774 72.3387C34.675 70.4889 35.4946 68.7172 36.2453 67.0157C30.7024 64.1847 25.3962 60.962 20.325 57.3376C18.9435 56.4035 16.8889 54.9768 14.1592 53.0564C11.4327 51.1349 8.45845 48.8106 5.23956 46.0824C2.02197 43.352 -1.01663 40.268 -3.88131 36.8307C-6.74526 33.3878 -9.05357 29.6154 -10.81 25.5111C-12.5689 21.4025 -13.3455 17.0519 -13.1442 12.4626C-12.9417 7.8711 -11.3107 3.10068 -8.25249 -1.85521L-8.24874 -1.85309ZM24.3365 6.76714C22.635 5.50157 20.5719 4.41545 18.1504 3.49888C15.7258 2.58346 13.3342 2.21809 10.9723 2.4039C8.61121 2.58423 6.64556 3.6759 5.07798 5.67451C3.00787 8.29845 2.38946 11.1404 3.22539 14.1961C4.06075 17.2484 5.84867 20.3844 8.58351 23.6008C11.3215 26.816 14.3845 29.9137 17.7757 32.8928C22.2568 36.6383 26.7571 39.9784 31.2729 42.911C35.7882 45.8404 39.0585 47.8802 41.0882 49.0271C42.1119 39.8866 41.0506 31.6582 37.9058 24.3397C34.7623 17.019 30.2394 11.1626 24.336 6.76387L24.3365 6.76714Z" fill="#F6F5EA"/>
<path d="M231.751 -36.8531C234.743 -41.6928 238.358 -45.1918 242.597 -47.3489C246.835 -49.5094 251.31 -50.4348 256.025 -50.1265C260.737 -49.817 265.355 -48.5359 269.885 -46.2801C274.414 -44.0253 278.449 -40.9866 281.983 -37.165C287.272 -31.2949 291.392 -24.1045 294.353 -15.5993C297.31 -7.09405 298.38 1.55565 297.559 10.3532C297.425 12.1016 297.254 13.8595 297.041 15.6433C296.83 17.4161 296.524 19.183 296.134 20.9349C298.008 21.6895 300.56 22.6004 303.792 23.671C307.025 24.7361 310.433 25.5605 314.019 26.1464C317.603 26.7279 320.931 26.713 324.003 26.093C327.072 25.4741 329.433 23.8827 331.074 21.3234C333.325 17.7329 334.012 13.4151 333.134 8.36353C332.255 3.31414 330.189 -2.18137 326.935 -8.11753C323.685 -14.0548 319.539 -20.1206 314.502 -26.306C309.463 -32.4925 303.91 -38.5177 297.842 -44.3759C291.77 -50.2341 285.516 -55.6664 279.074 -60.6762C272.63 -65.6847 266.319 -69.9327 260.138 -73.4255L269.425 -89.1304C279.079 -83.6748 288.487 -77.1452 297.649 -69.5385C306.808 -61.9361 315.095 -53.8374 322.51 -45.2425C325.883 -41.3644 329.28 -36.9743 332.699 -32.0811C336.116 -27.1889 339.189 -22.0366 341.918 -16.6242C344.64 -11.2127 346.667 -5.70334 347.991 -0.0959761C349.313 5.51033 349.578 11.0513 348.789 16.5247C347.997 21.9993 345.814 27.2197 342.239 32.1816C338.861 36.8006 334.878 39.9405 330.292 41.6004C325.704 43.2591 320.93 43.9775 315.972 43.759C311.011 43.5361 306.316 42.8169 301.882 41.6047C297.448 40.386 293.649 39.1899 290.484 38.0097C289.464 40.167 288.4 42.2967 287.284 44.4C286.167 46.5054 285.003 48.5789 283.791 50.628L270.567 42.9278C271.808 41.0457 272.878 39.1852 273.774 37.3387C274.675 35.4889 275.495 33.7172 276.245 32.0157C270.702 29.1847 265.396 25.962 260.325 22.3376C258.944 21.4035 256.889 19.9768 254.159 18.0564C251.433 16.1349 248.458 13.8106 245.24 11.0824C242.022 8.35198 238.983 5.26805 236.119 1.83068C233.255 -1.61218 230.946 -5.38465 229.19 -9.48889C227.431 -13.5975 226.655 -17.9481 226.856 -22.5374C227.058 -27.1289 228.689 -31.8993 231.748 -36.8552L231.751 -36.8531ZM264.337 -28.2329C262.635 -29.4984 260.572 -30.5845 258.15 -31.5011C255.726 -32.4165 253.334 -32.7819 250.972 -32.5961C248.611 -32.4158 246.646 -31.3241 245.078 -29.3255C243.008 -26.7015 242.389 -23.8596 243.225 -20.8039C244.061 -17.7516 245.849 -14.6156 248.584 -11.3992C251.322 -8.18402 254.385 -5.08628 257.776 -2.1072C262.257 1.63831 266.757 4.97843 271.273 7.91105C275.788 10.8404 279.058 12.8802 281.088 14.0271C282.112 4.88663 281.051 -3.34176 277.906 -10.6603C274.762 -17.981 270.239 -23.8374 264.336 -28.2361L264.337 -28.2329Z" fill="#F6F5EA"/>
<path d="M-36.2487 152.147C-33.2567 147.307 -29.6421 143.808 -25.4031 141.651C-21.1648 139.491 -16.6897 138.565 -11.9748 138.874C-7.26302 139.183 -2.64483 140.464 1.88544 142.72C6.41383 144.975 10.4486 148.013 13.9829 151.835C19.2718 157.705 23.3916 164.896 26.3533 173.401C29.3099 181.906 30.38 190.556 29.5591 199.353C29.4245 201.102 29.2543 202.859 29.0412 204.643C28.8295 206.416 28.5237 208.183 28.1341 209.935C30.0075 210.689 32.56 211.6 35.7922 212.671C39.025 213.736 42.4328 214.561 46.0192 215.146C49.6032 215.728 52.9311 215.713 56.0031 215.093C59.0719 214.474 61.4333 212.883 63.0744 210.323C65.3253 206.733 66.0122 202.415 65.1341 197.364C64.2547 192.314 62.1887 186.819 58.9354 180.882C55.6852 174.945 51.5391 168.879 46.5018 162.694C41.4627 156.507 35.9098 150.482 29.8424 144.624C23.7699 138.766 17.5158 133.334 11.0744 128.324C4.62981 123.315 -1.68086 119.067 -7.86196 115.575L1.42459 99.8696C11.0793 105.325 20.4872 111.855 29.6489 119.462C38.8082 127.064 47.0953 135.163 54.5104 143.757C57.8835 147.636 61.2795 152.026 64.6987 156.919C68.1159 161.811 71.189 166.963 73.9178 172.376C76.6397 177.787 78.6675 183.297 79.991 188.904C81.3126 194.51 81.5782 200.051 80.7891 205.525C79.9967 210.999 77.8141 216.22 74.2388 221.182C70.8612 225.801 66.8778 228.941 62.2916 230.6C57.7036 232.259 52.9301 232.978 47.9717 232.759C43.0109 232.536 38.316 231.817 33.8825 230.605C29.4479 229.386 25.6487 228.19 22.4839 227.01C21.4637 229.167 20.3998 231.297 19.2838 233.4C18.1666 235.505 17.0031 237.579 15.7915 239.628L2.56681 231.928C3.80752 230.046 4.8776 228.185 5.77404 226.339C6.67497 224.489 7.49465 222.717 8.24527 221.016C2.7024 218.185 -2.60379 214.962 -7.67502 211.338C-9.05649 210.403 -11.1111 208.977 -13.8408 207.056C-16.5673 205.135 -19.5416 202.811 -22.7604 200.082C-25.978 197.352 -29.0166 194.268 -31.8813 190.831C-34.7453 187.388 -37.0536 183.615 -38.81 179.511C-40.5689 175.403 -41.3455 171.052 -41.1442 166.463C-40.9417 161.871 -39.3107 157.101 -36.2525 152.145L-36.2487 152.147ZM-3.66348 160.767C-5.365 159.502 -7.42815 158.415 -9.84956 157.499C-12.2742 156.583 -14.6658 156.218 -17.0277 156.404C-19.3888 156.584 -21.3544 157.676 -22.922 159.675C-24.9921 162.298 -25.6105 165.14 -24.7746 168.196C-23.9392 171.248 -22.1513 174.384 -19.4165 177.601C-16.6785 180.816 -13.6155 183.914 -10.2243 186.893C-5.74322 190.638 -1.2429 193.978 3.27294 196.911C7.78822 199.84 11.0585 201.88 13.0882 203.027C14.1119 193.887 13.0506 185.658 9.90581 178.34C6.76229 171.019 2.23939 165.163 -3.66403 160.764L-3.66348 160.767Z" fill="#F6F5EA"/>
<path d="M274.751 97.1469C277.743 92.3072 281.358 88.8082 285.597 86.6511C289.835 84.4906 294.31 83.5652 299.025 83.8735C303.737 84.183 308.355 85.4641 312.885 87.7199C317.414 89.9747 321.449 93.0134 324.983 96.835C330.272 102.705 334.392 109.896 337.353 118.401C340.31 126.906 341.38 135.556 340.559 144.353C340.425 146.102 340.254 147.859 340.041 149.643C339.83 151.416 339.524 153.183 339.134 154.935C341.008 155.689 343.56 156.6 346.792 157.671C350.025 158.736 353.433 159.561 357.019 160.146C360.603 160.728 363.931 160.713 367.003 160.093C370.072 159.474 372.433 157.883 374.074 155.323C376.325 151.733 377.012 147.415 376.134 142.364C375.255 137.314 373.189 131.819 369.935 125.882C366.685 119.945 362.539 113.879 357.502 107.694C352.463 101.507 346.91 95.4823 340.842 89.6241C334.77 83.7659 328.516 78.3336 322.074 73.3238C315.63 68.3153 309.319 64.0673 303.138 60.5745L312.425 44.8696C322.079 50.3252 331.487 56.8548 340.649 64.4615C349.808 72.0639 358.095 80.1626 365.51 88.7575C368.883 92.6356 372.28 97.0257 375.699 101.919C379.116 106.811 382.189 111.963 384.918 117.376C387.64 122.787 389.667 128.297 390.991 133.904C392.313 139.51 392.578 145.051 391.789 150.525C390.997 155.999 388.814 161.22 385.239 166.182C381.861 170.801 377.878 173.941 373.292 175.6C368.704 177.259 363.93 177.978 358.972 177.759C354.011 177.536 349.316 176.817 344.882 175.605C340.448 174.386 336.649 173.19 333.484 172.01C332.464 174.167 331.4 176.297 330.284 178.4C329.167 180.505 328.003 182.579 326.791 184.628L313.567 176.928C314.808 175.046 315.878 173.185 316.774 171.339C317.675 169.489 318.495 167.717 319.245 166.016C313.702 163.185 308.396 159.962 303.325 156.338C301.944 155.403 299.889 153.977 297.159 152.056C294.433 150.135 291.458 147.811 288.24 145.082C285.022 142.352 281.983 139.268 279.119 135.831C276.255 132.388 273.946 128.615 272.19 124.511C270.431 120.403 269.655 116.052 269.856 111.463C270.058 106.871 271.689 102.101 274.748 97.1448L274.751 97.1469ZM307.337 105.767C305.635 104.502 303.572 103.415 301.15 102.499C298.726 101.583 296.334 101.218 293.972 101.404C291.611 101.584 289.646 102.676 288.078 104.675C286.008 107.298 285.389 110.14 286.225 113.196C287.061 116.248 288.849 119.384 291.584 122.601C294.322 125.816 297.385 128.914 300.776 131.893C305.257 135.638 309.757 138.978 314.273 141.911C318.788 144.84 322.058 146.88 324.088 148.027C325.112 138.887 324.051 130.658 320.906 123.34C317.762 116.019 313.239 110.163 307.336 105.764L307.337 105.767Z" fill="#F6F5EA"/>
</svg>
