<svg width="40" height="40" viewBox="0 0 40 40" fill="none" xmlns="http://www.w3.org/2000/svg">
<path d="M26.6666 11.6663C26.6666 11.2243 26.8422 10.8004 27.1548 10.4878C27.4673 10.1752 27.8912 9.99963 28.3333 9.99963C28.7753 9.99963 29.1992 10.1752 29.5118 10.4878C29.8244 10.8004 29.9999 11.2243 29.9999 11.6663C29.9999 12.1083 29.8244 12.5323 29.5118 12.8448C29.1992 13.1574 28.7753 13.333 28.3333 13.333C27.8912 13.333 27.4673 13.1574 27.1548 12.8448C26.8422 12.5323 26.6666 12.1083 26.6666 11.6663Z" fill="white"/>
<path fill-rule="evenodd" clip-rule="evenodd" d="M20.0003 12.083C17.9006 12.083 15.887 12.9171 14.4023 14.4017C12.9177 15.8864 12.0836 17.9 12.0836 19.9997C12.0836 22.0993 12.9177 24.1129 14.4023 25.5976C15.887 27.0823 17.9006 27.9163 20.0003 27.9163C22.0999 27.9163 24.1135 27.0823 25.5982 25.5976C27.0828 24.1129 27.9169 22.0993 27.9169 19.9997C27.9169 17.9 27.0828 15.8864 25.5982 14.4017C24.1135 12.9171 22.0999 12.083 20.0003 12.083ZM14.5836 19.9997C14.5836 18.5631 15.1543 17.1853 16.1701 16.1695C17.1859 15.1537 18.5637 14.583 20.0003 14.583C21.4368 14.583 22.8146 15.1537 23.8304 16.1695C24.8462 17.1853 25.4169 18.5631 25.4169 19.9997C25.4169 21.4363 24.8462 22.814 23.8304 23.8298C22.8146 24.8457 21.4368 25.4163 20.0003 25.4163C18.5637 25.4163 17.1859 24.8457 16.1701 23.8298C15.1543 22.814 14.5836 21.4363 14.5836 19.9997Z" fill="white"/>
<path fill-rule="evenodd" clip-rule="evenodd" d="M28.7631 4.72153C22.9388 4.07557 17.0608 4.07557 11.2365 4.72153C7.88313 5.09653 5.1748 7.7382 4.78146 11.1082C4.09164 17.0159 4.09164 22.9838 4.78146 28.8915C5.1748 32.2615 7.88147 34.9032 11.2365 35.2782C17.0609 35.9228 22.9387 35.9228 28.7631 35.2782C32.1165 34.9032 34.8248 32.2615 35.2181 28.8915C35.908 22.9838 35.908 17.0159 35.2181 11.1082C34.8248 7.7382 32.1181 5.09653 28.7631 4.72153ZM11.5131 7.20486C17.1536 6.57938 22.846 6.57938 28.4865 7.20486C30.7031 7.45486 32.4781 9.2032 32.7365 11.3999C33.405 17.1137 33.405 22.886 32.7365 28.5999C32.6028 29.6749 32.1107 30.6736 31.3395 31.4344C30.5684 32.1953 29.5632 32.674 28.4865 32.7932C22.846 33.4187 17.1536 33.4187 11.5131 32.7932C10.4364 32.674 9.43122 32.1953 8.66006 31.4344C7.88889 30.6736 7.39675 29.6749 7.26313 28.5999C6.59456 22.886 6.59456 17.1137 7.26313 11.3999C7.39675 10.3248 7.88889 9.32616 8.66006 8.56528C9.43122 7.8044 10.4364 7.32404 11.5131 7.20486Z" fill="white"/>
</svg>
