<svg width="31" height="8" viewBox="0 0 31 8" fill="none" xmlns="http://www.w3.org/2000/svg">
<path d="M2.14931 2.15933V7.23509H0.730217V0.863897H2.06687L2.14931 2.15933ZM1.91966 3.81396L1.43682 3.80807C1.43682 3.36841 1.49178 2.96211 1.60169 2.58918C1.71161 2.21625 1.87256 1.8924 2.08454 1.61761C2.29652 1.33889 2.55953 1.12495 2.87358 0.975775C3.19155 0.822678 3.55859 0.74613 3.9747 0.74613C4.26519 0.74613 4.53017 0.789311 4.76963 0.875673C5.01301 0.95811 5.22303 1.08962 5.39968 1.27019C5.58026 1.45077 5.71765 1.68238 5.81186 1.96502C5.91 2.24766 5.95907 2.58918 5.95907 2.98959V7.23509H4.53998V3.11325C4.53998 2.80313 4.49287 2.55974 4.39866 2.38309C4.30837 2.20644 4.17687 2.08082 4.00414 2.00624C3.83534 1.92773 3.63317 1.88847 3.39764 1.88847C3.1307 1.88847 2.90302 1.9395 2.71459 2.04157C2.53009 2.14363 2.37896 2.28299 2.26119 2.45964C2.14342 2.63629 2.05706 2.84042 2.0021 3.07203C1.94714 3.30364 1.91966 3.55095 1.91966 3.81396ZM5.87075 3.43711L5.20536 3.58432C5.20536 3.19961 5.25836 2.83649 5.36435 2.49497C5.47427 2.14952 5.63325 1.84725 5.84131 1.58816C6.05329 1.32515 6.31434 1.11906 6.62446 0.969887C6.93458 0.820715 7.28984 0.74613 7.69025 0.74613C8.01607 0.74613 8.30656 0.791274 8.56172 0.881562C8.82081 0.967924 9.04064 1.10532 9.22122 1.29375C9.4018 1.48217 9.53919 1.72752 9.6334 2.02979C9.72762 2.32813 9.77472 2.68929 9.77472 3.11325V7.23509H8.34974V3.10736C8.34974 2.78546 8.30264 2.53619 8.20842 2.35954C8.11814 2.18289 7.98859 2.06119 7.81979 1.99446C7.65099 1.9238 7.44883 1.88847 7.21329 1.88847C6.99346 1.88847 6.79914 1.92969 6.63035 2.01213C6.46547 2.09064 6.32611 2.20252 6.21227 2.34776C6.09843 2.48908 6.01207 2.65199 5.95318 2.83649C5.89823 3.021 5.87075 3.2212 5.87075 3.43711ZM10.9642 4.12016V3.98472C10.9642 3.52543 11.0309 3.09951 11.1644 2.70695C11.2978 2.31047 11.4902 1.96698 11.7414 1.67649C11.9966 1.38207 12.3067 1.15439 12.6718 0.99344C13.0408 0.828566 13.4569 0.74613 13.9201 0.74613C14.3873 0.74613 14.8034 0.828566 15.1685 0.99344C15.5375 1.15439 15.8495 1.38207 16.1047 1.67649C16.3599 1.96698 16.5542 2.31047 16.6877 2.70695C16.8211 3.09951 16.8879 3.52543 16.8879 3.98472V4.12016C16.8879 4.57945 16.8211 5.00537 16.6877 5.39793C16.5542 5.79048 16.3599 6.13397 16.1047 6.42839C15.8495 6.71888 15.5394 6.94656 15.1743 7.11144C14.8093 7.27239 14.3951 7.35286 13.9319 7.35286C13.4648 7.35286 13.0467 7.27239 12.6777 7.11144C12.3126 6.94656 12.0025 6.71888 11.7473 6.42839C11.4922 6.13397 11.2978 5.79048 11.1644 5.39793C11.0309 5.00537 10.9642 4.57945 10.9642 4.12016ZM12.3833 3.98472V4.12016C12.3833 4.40672 12.4127 4.67759 12.4716 4.93275C12.5305 5.18791 12.6227 5.41167 12.7483 5.60402C12.874 5.79637 13.0349 5.94751 13.2312 6.05742C13.4275 6.16734 13.661 6.2223 13.9319 6.2223C14.1949 6.2223 14.4226 6.16734 14.615 6.05742C14.8112 5.94751 14.9722 5.79637 15.0978 5.60402C15.2234 5.41167 15.3157 5.18791 15.3745 4.93275C15.4374 4.67759 15.4688 4.40672 15.4688 4.12016V3.98472C15.4688 3.70208 15.4374 3.43514 15.3745 3.18391C15.3157 2.92875 15.2215 2.70303 15.0919 2.50675C14.9663 2.31047 14.8053 2.15737 14.6091 2.04746C14.4167 1.93361 14.1871 1.87669 13.9201 1.87669C13.6532 1.87669 13.4216 1.93361 13.2253 2.04746C13.0329 2.15737 12.874 2.31047 12.7483 2.50675C12.6227 2.70303 12.5305 2.92875 12.4716 3.18391C12.4127 3.43514 12.3833 3.70208 12.3833 3.98472ZM19.4846 2.22411V7.23509H18.0655V0.863897H19.4022L19.4846 2.22411ZM19.2314 3.81396L18.7721 3.80807C18.7761 3.35663 18.8389 2.94248 18.9606 2.56563C19.0862 2.18878 19.2589 1.86492 19.4787 1.59405C19.7025 1.32319 19.9694 1.11513 20.2795 0.969887C20.5897 0.820715 20.9351 0.74613 21.3159 0.74613C21.6221 0.74613 21.8988 0.789311 22.1462 0.875673C22.3974 0.95811 22.6113 1.09354 22.788 1.28197C22.9686 1.4704 23.106 1.71574 23.2002 2.01801C23.2944 2.31636 23.3415 2.6834 23.3415 3.11914V7.23509H21.9165V3.11325C21.9165 2.80705 21.8714 2.56563 21.7811 2.38898C21.6947 2.2084 21.5671 2.08082 21.3983 2.00624C21.2335 1.92773 21.0274 1.88847 20.7801 1.88847C20.5367 1.88847 20.3188 1.9395 20.1264 2.04157C19.9341 2.14363 19.7712 2.28299 19.6377 2.45964C19.5082 2.63629 19.4081 2.84042 19.3374 3.07203C19.2667 3.30364 19.2314 3.55095 19.2314 3.81396ZM24.5192 4.12016V3.98472C24.5192 3.52543 24.5859 3.09951 24.7194 2.70695C24.8528 2.31047 25.0452 1.96698 25.2964 1.67649C25.5516 1.38207 25.8617 1.15439 26.2268 0.99344C26.5958 0.828566 27.0119 0.74613 27.4751 0.74613C27.9423 0.74613 28.3584 0.828566 28.7234 0.99344C29.0924 1.15439 29.4045 1.38207 29.6597 1.67649C29.9149 1.96698 30.1092 2.31047 30.2426 2.70695C30.3761 3.09951 30.4428 3.52543 30.4428 3.98472V4.12016C30.4428 4.57945 30.3761 5.00537 30.2426 5.39793C30.1092 5.79048 29.9149 6.13397 29.6597 6.42839C29.4045 6.71888 29.0944 6.94656 28.7293 7.11144C28.3643 7.27239 27.9501 7.35286 27.4869 7.35286C27.0197 7.35286 26.6017 7.27239 26.2327 7.11144C25.8676 6.94656 25.5575 6.71888 25.3023 6.42839C25.0471 6.13397 24.8528 5.79048 24.7194 5.39793C24.5859 5.00537 24.5192 4.57945 24.5192 4.12016ZM25.9383 3.98472V4.12016C25.9383 4.40672 25.9677 4.67759 26.0266 4.93275C26.0855 5.18791 26.1777 5.41167 26.3033 5.60402C26.4289 5.79637 26.5899 5.94751 26.7862 6.05742C26.9825 6.16734 27.216 6.2223 27.4869 6.2223C27.7499 6.2223 27.9776 6.16734 28.1699 6.05742C28.3662 5.94751 28.5272 5.79637 28.6528 5.60402C28.7784 5.41167 28.8706 5.18791 28.9295 4.93275C28.9923 4.67759 29.0237 4.40672 29.0237 4.12016V3.98472C29.0237 3.70208 28.9923 3.43514 28.9295 3.18391C28.8706 2.92875 28.7764 2.70303 28.6469 2.50675C28.5213 2.31047 28.3603 2.15737 28.164 2.04746C27.9717 1.93361 27.742 1.87669 27.4751 1.87669C27.2082 1.87669 26.9766 1.93361 26.7803 2.04746C26.5879 2.15737 26.4289 2.31047 26.3033 2.50675C26.1777 2.70303 26.0855 2.92875 26.0266 3.18391C25.9677 3.43514 25.9383 3.70208 25.9383 3.98472Z" fill="#F8F7F7"/>
</svg>
