<svg width="40" height="20" viewBox="0 0 40 20" fill="none" xmlns="http://www.w3.org/2000/svg">
<rect x="0.477966" width="39.5221" height="20" rx="2.67985" fill="white"/>
<path d="M13.3254 10.9474H10.8458V9.64538H13.3254C13.7572 9.64538 14.1062 9.57559 14.3722 9.43602C14.6383 9.29644 14.8324 9.10453 14.9545 8.86027C15.081 8.61165 15.1442 8.32814 15.1442 8.00973C15.1442 7.70877 15.081 7.42744 14.9545 7.16573C14.8324 6.89966 14.6383 6.68594 14.3722 6.52455C14.1062 6.36317 13.7572 6.28248 13.3254 6.28248H11.3495V14.5H9.70734V4.97396H13.3254C14.0625 4.97396 14.6884 5.10481 15.2031 5.36651C15.7222 5.62386 16.1169 5.98152 16.3873 6.4395C16.6578 6.89312 16.793 7.41217 16.793 7.99664C16.793 8.61165 16.6578 9.13942 16.3873 9.57996C16.1169 10.0205 15.7222 10.3585 15.2031 10.5941C14.6884 10.8296 14.0625 10.9474 13.3254 10.9474ZM22.0205 13.0803V9.70426C22.0205 9.45128 21.9747 9.2332 21.8831 9.05C21.7915 8.86681 21.652 8.72505 21.4644 8.62473C21.2812 8.52441 21.05 8.47425 20.7709 8.47425C20.5136 8.47425 20.2911 8.51787 20.1035 8.60511C19.916 8.69234 19.7699 8.81011 19.6652 8.95841C19.5605 9.10671 19.5082 9.27463 19.5082 9.46219H17.9379C17.9379 9.18304 18.0055 8.91261 18.1408 8.6509C18.276 8.3892 18.4723 8.15585 18.7296 7.95084C18.9869 7.74584 19.2944 7.58446 19.6521 7.46669C20.0098 7.34892 20.4111 7.29004 20.8559 7.29004C21.3881 7.29004 21.8591 7.37946 22.2692 7.55829C22.6835 7.73712 23.0085 8.00755 23.244 8.36957C23.4839 8.72723 23.6038 9.17649 23.6038 9.71735V12.8643C23.6038 13.1871 23.6257 13.4772 23.6693 13.7345C23.7173 13.9875 23.7849 14.2078 23.8721 14.3953V14.5H22.2561C22.1819 14.3299 22.123 14.114 22.0794 13.8523C22.0402 13.5862 22.0205 13.3289 22.0205 13.0803ZM22.2495 10.195L22.2626 11.1698H21.1307C20.8385 11.1698 20.5812 11.1982 20.3587 11.2549C20.1363 11.3072 19.9509 11.3857 19.8026 11.4904C19.6543 11.5951 19.5431 11.7216 19.4689 11.8699C19.3948 12.0182 19.3577 12.1861 19.3577 12.3737C19.3577 12.5612 19.4013 12.7335 19.4885 12.8905C19.5758 13.0432 19.7023 13.1631 19.868 13.2504C20.0381 13.3376 20.2431 13.3812 20.483 13.3812C20.8058 13.3812 21.0871 13.3158 21.327 13.1849C21.5713 13.0497 21.7632 12.8862 21.9028 12.6942C22.0423 12.498 22.1165 12.3126 22.1252 12.1381L22.6355 12.8382C22.5832 13.017 22.4938 13.2089 22.3673 13.4139C22.2408 13.6189 22.0751 13.8152 21.8701 14.0028C21.6694 14.186 21.4273 14.3364 21.1438 14.4542C20.8647 14.572 20.5419 14.6309 20.1755 14.6309C19.7132 14.6309 19.301 14.5393 18.939 14.3561C18.5769 14.1685 18.2934 13.9177 18.0884 13.6037C17.8834 13.2853 17.7809 12.9254 17.7809 12.5241C17.7809 12.149 17.8507 11.8175 17.9903 11.5297C18.1342 11.2374 18.3436 10.9932 18.6184 10.7969C18.8975 10.6006 19.2377 10.4523 19.639 10.352C20.0403 10.2473 20.4983 10.195 21.013 10.195H22.2495ZM27.2023 13.728L29.1258 7.42089H30.8138L27.9743 15.5795C27.9089 15.754 27.8238 15.9437 27.7191 16.1487C27.6145 16.3537 27.4771 16.5478 27.307 16.731C27.1412 16.9186 26.934 17.0691 26.6854 17.1825C26.4368 17.3002 26.1358 17.3591 25.7825 17.3591C25.643 17.3591 25.5077 17.346 25.3769 17.3199C25.2504 17.2981 25.1305 17.2741 25.0171 17.2479L25.0105 16.0441C25.0541 16.0484 25.1065 16.0528 25.1675 16.0571C25.233 16.0615 25.2853 16.0637 25.3246 16.0637C25.5863 16.0637 25.8043 16.031 25.9788 15.9655C26.1533 15.9045 26.295 15.8042 26.4041 15.6646C26.5175 15.525 26.6134 15.3375 26.692 15.1019L27.2023 13.728ZM26.1162 7.42089L27.7977 12.7204L28.079 14.3822L26.9864 14.6636L24.4151 7.42089H26.1162Z" fill="black"/>
</svg>
