<svg width="40" height="40" viewBox="0 0 40 40" fill="none" xmlns="http://www.w3.org/2000/svg">
<g id="mingcute:tiktok-line">
<g id="Group">
<path id="Vector" fill-rule="evenodd" clip-rule="evenodd" d="M23.4783 4.34778C23.9203 4.34778 24.3442 4.52337 24.6568 4.83593C24.9693 5.14849 25.1449 5.57242 25.1449 6.01444C25.1459 7.55098 25.677 9.04013 26.6487 10.2304C27.6204 11.4207 28.973 12.2392 30.4783 12.5478C30.9115 12.6362 31.2918 12.8931 31.5356 13.2619C31.7794 13.6307 31.8667 14.0813 31.7783 14.5144C31.6899 14.9476 31.433 15.328 31.0642 15.5718C30.6954 15.8156 30.2448 15.9028 29.8116 15.8144C28.0753 15.4585 26.4647 14.6475 25.1449 13.4644V27.6811C25.1449 29.3293 24.6562 30.9405 23.7405 32.3109C22.8248 33.6813 21.5233 34.7494 20.0006 35.3801C18.4779 36.0108 16.8024 36.1759 15.1858 35.8543C13.5693 35.5328 12.0845 34.7391 10.919 33.5737C9.7536 32.4082 8.95993 30.9234 8.63839 29.3069C8.31684 27.6904 8.48187 26.0148 9.1126 24.4921C9.74333 22.9694 10.8114 21.6679 12.1818 20.7522C13.5523 19.8365 15.1634 19.3478 16.8116 19.3478C17.2536 19.3478 17.6775 19.5234 17.9901 19.8359C18.3027 20.1485 18.4783 20.5724 18.4783 21.0144C18.4783 21.4565 18.3027 21.8804 17.9901 22.193C17.6775 22.5055 17.2536 22.6811 16.8116 22.6811C15.8227 22.6811 14.856 22.9744 14.0337 23.5238C13.2115 24.0732 12.5706 24.8541 12.1922 25.7677C11.8138 26.6813 11.7147 27.6867 11.9077 28.6566C12.1006 29.6265 12.5768 30.5174 13.2761 31.2166C13.9753 31.9159 14.8662 32.3921 15.8361 32.585C16.8061 32.778 17.8114 32.6789 18.725 32.3005C19.6386 31.9221 20.4195 31.2812 20.9689 30.459C21.5184 29.6367 21.8116 28.67 21.8116 27.6811V6.01444C21.8116 5.57242 21.9872 5.14849 22.2998 4.83593C22.6123 4.52337 23.0362 4.34778 23.4783 4.34778Z" fill="white"/>
</g>
</g>
</svg>
