<svg xmlns="http://www.w3.org/2000/svg" width="619" height="437" viewBox="0 0 619 437" fill="none">
<path d="M184.742 409.256C167.162 395.747 155.91 380.642 150.99 363.936C146.056 347.23 146.612 330.294 152.656 313.114C158.702 295.947 168.785 279.626 182.926 264.134C197.061 248.648 214.034 235.383 233.835 224.365C264.108 207.954 298.824 196.526 337.968 190.038C377.108 183.569 414.969 184.112 451.56 191.686C458.861 193.087 466.166 194.623 473.538 196.33C480.866 198.026 488.073 200.066 495.133 202.406C500.222 195.907 506.658 186.992 514.456 175.66C522.231 164.322 529.157 152.217 535.249 139.331C541.319 126.451 544.596 114.205 545.043 102.587C545.491 90.9804 541.093 81.4723 531.856 74.1118C518.845 63.9749 501.171 59.2129 478.806 59.8266C456.448 60.4462 431.003 65.1986 402.491 74.0892C373.978 82.9676 344.02 95.0746 312.657 110.397C281.289 125.725 250.091 143.027 219.086 162.306C188.076 181.605 158.696 201.792 130.924 222.887C103.155 243.994 78.7541 265.002 57.6955 285.925L0.225072 243.642C33.1179 210.961 70.3305 179.743 111.877 149.989C153.403 120.242 196.164 93.9587 240.16 71.1395C260.04 60.7429 282.119 50.5269 306.361 40.4864C330.597 30.4523 355.594 21.8188 381.352 14.5858C407.098 7.37784 432.564 2.77322 457.74 0.809317C482.91 -1.14822 506.742 0.744101 529.228 6.48033C551.716 12.2289 571.727 22.9586 589.241 38.6762C605.495 53.489 614.85 69.7643 617.306 87.4896C619.756 105.221 618.02 123.148 612.113 141.27C606.186 159.398 598.415 176.291 588.81 191.968C579.175 207.646 570.275 220.998 562.079 232.026C570.23 236.895 578.22 241.91 586.045 247.103C593.877 252.302 601.528 257.654 609.027 263.171L563.004 307.819C556.245 302.281 549.406 297.383 542.453 293.13C535.491 288.859 528.778 284.927 522.295 281.286C504.692 300.204 485.66 318.049 465.156 334.822C459.796 339.419 451.666 346.237 440.759 355.281C429.851 364.313 416.98 374.047 402.147 384.472C387.305 394.891 371.139 404.469 353.645 413.224C336.128 421.974 317.767 428.51 298.549 432.844C279.31 437.185 260.028 437.788 240.712 434.672C221.388 431.55 202.737 423.082 184.729 409.269L184.742 409.256ZM254.11 293.885C247.02 299.487 240.33 306.512 234.001 314.943C227.674 323.385 223.72 331.991 222.14 340.774C220.537 349.55 223.206 357.344 230.133 364.144C239.214 373.115 250.681 376.861 264.515 375.369C278.335 373.878 293.466 368.926 309.89 360.534C326.313 352.13 342.562 342.469 358.635 331.54C379.062 317 397.785 302.18 414.789 287.091C431.78 272.002 443.738 261.032 450.653 254.162C412.806 245.664 376.746 245.306 342.465 253.082C308.175 260.852 278.728 274.453 254.096 293.885L254.11 293.885Z" fill="#F6F5EA"/>
</svg>