<svg width="151" height="100" viewBox="0 0 151 100" fill="none" xmlns="http://www.w3.org/2000/svg">
<path d="M92.2112 152.943C90.2866 150.041 89.1676 146.849 88.8549 143.367C88.5405 139.884 88.9049 136.388 89.948 132.876C90.9912 129.367 92.5158 126.058 94.5247 122.945C96.5327 119.834 98.8507 117.2 101.477 115.048C105.485 111.847 109.951 109.703 114.876 108.608C119.8 107.517 124.444 107.867 128.809 109.662C129.682 109.997 130.553 110.361 131.429 110.76C132.3 111.156 133.15 111.623 133.977 112.151C134.716 110.84 135.663 109.038 136.82 106.745C137.973 104.452 139.036 101.994 140.01 99.3694C140.981 96.7463 141.598 94.2365 141.856 91.8386C142.114 89.4432 141.74 87.451 140.733 85.8722C139.311 83.6959 137.222 82.601 134.462 82.5874C131.704 82.5751 128.493 83.3973 124.833 85.0554C121.174 86.7109 117.28 89.0245 113.157 91.9935C109.034 94.9639 104.897 98.3429 100.749 102.132C96.6002 105.925 92.6362 109.912 88.8541 114.096C85.072 118.283 81.7057 122.471 78.7516 126.662L72.427 117.564C77.0411 111.018 82.1606 104.801 87.7872 98.914C93.4112 93.0281 99.1263 87.8657 104.933 83.4268C107.558 81.4034 110.45 79.4311 113.605 77.5087C116.76 75.5875 119.983 73.9605 123.275 72.6277C126.566 71.2999 129.776 70.5084 132.905 70.2606C136.033 70.0141 138.929 70.5548 141.592 71.8812C144.256 73.2101 146.528 75.5528 148.406 78.9104C150.145 82.0732 151.01 85.4948 151.002 89.1728C150.993 92.852 150.466 96.5452 149.424 100.253C148.378 103.961 147.128 107.403 145.673 110.582C144.215 113.761 142.888 116.464 141.688 118.691C142.604 119.748 143.499 120.835 144.37 121.957C145.242 123.08 146.088 124.234 146.914 125.421L140.477 134.358C139.743 133.171 138.988 132.116 138.207 131.194C137.426 130.268 136.67 129.413 135.937 128.62C133.442 132.418 130.791 135.986 127.978 139.323C127.239 140.239 126.12 141.597 124.622 143.397C123.123 145.195 121.371 147.126 119.366 149.187C117.359 151.246 115.205 153.124 112.902 154.823C110.596 156.521 108.225 157.756 105.787 158.531C103.346 159.307 100.966 159.311 98.6462 158.546C96.3257 157.779 94.1813 155.913 92.2094 152.945L92.2112 152.943ZM102.754 129.54C101.784 130.653 100.839 132.062 99.9142 133.764C98.989 135.469 98.3525 137.223 98.0048 139.027C97.6543 140.831 97.8463 142.458 98.5787 143.906C99.5381 145.817 100.882 146.663 102.608 146.442C104.333 146.22 106.279 145.292 108.445 143.661C110.61 142.028 112.776 140.134 114.943 137.976C117.708 135.1 120.268 132.155 122.622 129.144C124.974 126.133 126.635 123.942 127.605 122.565C123.102 120.572 118.676 120.272 114.327 121.663C109.976 123.053 106.119 125.679 102.752 129.54L102.754 129.54Z" fill="#545454"/>
<ellipse cx="41.5" cy="29.5" rx="65.5" ry="43.5" fill="#545454"/>
</svg>
