<svg width="25" height="25" viewBox="0 0 25 25" fill="none" xmlns="http://www.w3.org/2000/svg">
<path fill-rule="evenodd" clip-rule="evenodd" d="M4.26553 24.6713C3.31904 24.6713 2.41996 24.2954 1.74269 23.6266C1.06542 22.9578 0.697998 22.0502 0.697998 21.1037V4.52749C0.697998 3.58101 1.07388 2.68193 1.74269 2.00465C2.4115 1.32738 3.31904 0.959961 4.26553 0.959961H20.8418C21.7883 0.959961 22.6873 1.33585 23.3646 2.00465C24.0419 2.67346 24.4093 3.58101 24.4093 4.52749V21.1037C24.4093 22.0502 24.0334 22.9493 23.3646 23.6266C22.6958 24.3039 21.7883 24.6713 20.8418 24.6713H4.26553ZM18.7422 14.6646H16.2363V22.9442H20.8418C21.0837 22.9449 21.3233 22.8978 21.5469 22.8055C21.7705 22.7132 21.9737 22.5777 22.1447 22.4067C22.3157 22.2356 22.4513 22.0325 22.5435 21.8089C22.6358 21.5853 22.6829 21.3456 22.6823 21.1037V4.52749C22.6825 4.28574 22.635 4.04631 22.5426 3.82291C22.4502 3.59951 22.3146 3.39653 22.1437 3.22558C21.9727 3.05463 21.7698 2.91907 21.5464 2.82665C21.323 2.73424 21.0835 2.68678 20.8418 2.68701H4.26553C3.77782 2.68835 3.31046 2.88269 2.96559 3.22755C2.62072 3.57242 2.42638 4.03978 2.42504 4.52749V21.1037C2.42638 21.5915 2.62072 22.0588 2.96559 22.4037C3.31046 22.7486 3.77782 22.9429 4.26553 22.9442H13.4764V14.6646H10.7166V11.9047H13.4764V10.4215C13.4764 7.61078 14.8445 6.37476 17.1845 6.37476C18.28 6.37476 18.8692 6.45434 19.1486 6.49328L19.1655 6.49497V9.13634H17.5739C16.7714 9.13634 16.3921 9.48005 16.277 10.1726C16.2493 10.353 16.2363 10.5353 16.238 10.7178V11.8979H19.1334L18.7388 14.6578L18.7422 14.6646Z" fill="white"/>
</svg>
