<svg width="28" height="28" viewBox="0 0 28 28" fill="none" xmlns="http://www.w3.org/2000/svg">
<path d="M18.0606 7.90223C18.0606 7.60285 18.1795 7.31574 18.3912 7.10405C18.6029 6.89236 18.89 6.77344 19.1894 6.77344C19.4888 6.77344 19.7759 6.89236 19.9876 7.10405C20.1993 7.31574 20.3182 7.60285 20.3182 7.90223C20.3182 8.2016 20.1993 8.48871 19.9876 8.7004C19.7759 8.91209 19.4888 9.03101 19.1894 9.03101C18.89 9.03101 18.6029 8.91209 18.3912 8.7004C18.1795 8.48871 18.0606 8.2016 18.0606 7.90223Z" fill="white"/>
<path fill-rule="evenodd" clip-rule="evenodd" d="M13.5455 8.18359C12.1235 8.18359 10.7597 8.74849 9.7542 9.75401C8.74867 10.7595 8.18378 12.1233 8.18378 13.5453C8.18378 14.9674 8.74867 16.3311 9.7542 17.3367C10.7597 18.3422 12.1235 18.9071 13.5455 18.9071C14.9675 18.9071 16.3313 18.3422 17.3368 17.3367C18.3424 16.3311 18.9073 14.9674 18.9073 13.5453C18.9073 12.1233 18.3424 10.7595 17.3368 9.75401C16.3313 8.74849 14.9675 8.18359 13.5455 8.18359ZM9.87696 13.5453C9.87696 12.5724 10.2635 11.6393 10.9515 10.9513C11.6394 10.2633 12.5726 9.87678 13.5455 9.87678C14.5185 9.87678 15.4516 10.2633 16.1396 10.9513C16.8276 11.6393 17.2141 12.5724 17.2141 13.5453C17.2141 14.5183 16.8276 15.4514 16.1396 16.1394C15.4516 16.8274 14.5185 17.2139 13.5455 17.2139C12.5726 17.2139 11.6394 16.8274 10.9515 16.1394C10.2635 15.4514 9.87696 14.5183 9.87696 13.5453Z" fill="white"/>
<path fill-rule="evenodd" clip-rule="evenodd" d="M19.4806 3.19726C15.5359 2.75977 11.5549 2.75977 7.61025 3.19726C5.33913 3.45124 3.50485 5.24037 3.23846 7.52277C2.77126 11.5239 2.77126 15.5658 3.23846 19.5669C3.50485 21.8493 5.33801 23.6385 7.61025 23.8925C11.555 24.329 15.5359 24.329 19.4806 23.8925C21.7517 23.6385 23.586 21.8493 23.8524 19.5669C24.3196 15.5658 24.3196 11.5239 23.8524 7.52277C23.586 5.24037 21.7528 3.45124 19.4806 3.19726ZM7.79763 4.87915C11.6178 4.45553 15.4731 4.45553 19.2932 4.87915C20.7945 5.04847 21.9967 6.23257 22.1716 7.72031C22.6244 11.5901 22.6244 15.4996 22.1716 19.3694C22.0811 20.0975 21.7478 20.7739 21.2255 21.2892C20.7032 21.8045 20.0225 22.1287 19.2932 22.2094C15.4731 22.6331 11.6178 22.6331 7.79763 22.2094C7.06837 22.1287 6.38761 21.8045 5.86532 21.2892C5.34304 20.7739 5.00972 20.0975 4.91922 19.3694C4.46642 15.4996 4.46642 11.5901 4.91922 7.72031C5.00972 6.9922 5.34304 6.31585 5.86532 5.80053C6.38761 5.2852 7.06837 4.95987 7.79763 4.87915Z" fill="white"/>
</svg>
