<svg width="17" height="25" viewBox="0 0 17 25" fill="none" xmlns="http://www.w3.org/2000/svg">
<path fill-rule="evenodd" clip-rule="evenodd" d="M10.8031 0.568359C11.1024 0.568359 11.3896 0.687285 11.6012 0.898974C11.8129 1.11066 11.9319 1.39777 11.9319 1.69715C11.9325 2.7378 12.2922 3.74636 12.9503 4.55251C13.6084 5.35867 14.5245 5.91303 15.544 6.122C15.8374 6.18187 16.095 6.35584 16.2601 6.60563C16.4252 6.85542 16.4843 7.16058 16.4244 7.45397C16.3646 7.74735 16.1906 8.00494 15.9408 8.17005C15.691 8.33517 15.3859 8.39429 15.0925 8.33442C13.9165 8.09336 12.8257 7.54408 11.9319 6.74283V16.3714C11.9319 17.4877 11.6009 18.5789 10.9807 19.507C10.3605 20.4351 9.47906 21.1585 8.44777 21.5857C7.41647 22.0129 6.28166 22.1247 5.18685 21.9069C4.09203 21.6891 3.08638 21.1516 2.29706 20.3623C1.50774 19.5729 0.970204 18.5673 0.752431 17.4725C0.534659 16.3777 0.646427 15.2428 1.0736 14.2115C1.50078 13.1803 2.22418 12.2988 3.15232 11.6786C4.08046 11.0585 5.17166 10.7275 6.28792 10.7275C6.5873 10.7275 6.87441 10.8464 7.0861 11.0581C7.29779 11.2698 7.41671 11.5569 7.41671 11.8562C7.41671 12.1556 7.29779 12.4427 7.0861 12.6544C6.87441 12.8661 6.5873 12.985 6.28792 12.985C5.61817 12.985 4.96345 13.1836 4.40656 13.5557C3.84968 13.9278 3.41564 14.4567 3.15933 15.0755C2.90303 15.6943 2.83596 16.3751 2.96663 17.032C3.09729 17.6889 3.41981 18.2923 3.8934 18.7659C4.367 19.2395 4.97039 19.562 5.62728 19.6927C6.28417 19.8233 6.96505 19.7563 7.58383 19.5C8.20261 19.2437 8.73148 18.8096 9.10358 18.2528C9.47568 17.6959 9.67429 17.0411 9.67429 16.3714V1.69715C9.67429 1.39777 9.79321 1.11066 10.0049 0.898974C10.2166 0.687285 10.5037 0.568359 10.8031 0.568359Z" fill="white"/>
</svg>
