<svg width="25" height="19" viewBox="0 0 25 19" fill="none" xmlns="http://www.w3.org/2000/svg">
<path d="M14.8027 9.63746L10.852 11.895V7.37988L14.8027 9.63746Z" fill="white" stroke="white" stroke-width="1.69318" stroke-linecap="round" stroke-linejoin="round"/>
<path d="M1.25751 10.4356V8.83728C1.25751 5.56944 1.25751 3.93496 2.27906 2.88406C3.30174 1.83202 4.91139 1.78687 8.12957 1.69544C9.65343 1.65255 11.2112 1.62207 12.5454 1.62207C13.8796 1.62207 15.4362 1.65255 16.9612 1.69544C20.1794 1.78687 21.789 1.83202 22.8106 2.88406C23.8321 3.93609 23.8333 5.57057 23.8333 8.83728V10.4345C23.8333 13.7035 23.8333 15.3368 22.8117 16.3889C21.789 17.4398 20.1805 17.4861 16.9612 17.5764C15.4373 17.6204 13.8796 17.6509 12.5454 17.6509C11.2112 17.6509 9.65456 17.6204 8.12957 17.5764C4.91139 17.4861 3.30174 17.4409 2.27906 16.3889C1.25638 15.3368 1.25751 13.7024 1.25751 10.4356Z" stroke="white" stroke-width="1.69318"/>
</svg>
