<svg width="401" height="259" viewBox="0 0 401 259" fill="none" xmlns="http://www.w3.org/2000/svg">
<path d="M37.2648 169.241C32.887 155.168 32.5578 142.651 36.2833 131.689C40.0008 120.722 46.7897 111.733 56.6536 104.713C66.5138 97.7002 78.2437 92.6946 91.861 89.6928C105.472 86.6921 119.775 85.9854 134.754 87.582C157.489 90.26 180.729 97.3469 204.483 108.814C228.228 120.29 248.592 135.086 265.573 153.216C269.004 156.773 272.385 160.406 275.737 164.157C279.068 167.886 282.203 171.754 285.143 175.73C290.398 174.148 297.309 171.769 305.886 168.598C314.453 165.415 322.853 161.49 331.099 156.822C339.33 152.149 345.801 146.75 350.494 140.608C355.182 134.473 356.434 127.623 354.234 120.085C351.047 109.594 343.268 100.237 330.881 92.0047C318.495 83.7784 302.849 76.6147 283.952 70.5254C265.059 64.4288 244.143 59.5329 221.234 55.8463C198.318 52.1607 174.74 49.6125 150.509 48.2133C126.268 46.8226 102.572 46.5384 79.4032 47.3637C56.2302 48.1964 34.9256 50.2659 15.4697 53.569L0.437584 8.58219C30.8272 3.42297 63.0034 0.713483 96.9742 0.459088C130.931 0.200362 164.232 2.29692 196.878 6.74876C211.661 8.71353 227.571 11.6191 244.589 15.4486C261.601 19.279 278.49 24.1618 295.256 30.0971C312.006 36.0418 327.607 43.2935 342.039 51.869C356.465 60.4456 368.689 70.6016 378.71 82.3307C388.727 94.0671 395.491 107.562 398.987 122.81C402.145 137.084 400.995 149.51 395.541 160.082C390.08 170.655 382.271 179.731 372.121 187.315C361.957 194.895 351.264 201.098 340.041 205.937C328.801 210.766 318.851 214.612 310.174 217.465C312.738 223.232 315.159 229.017 317.421 234.836C319.686 240.661 321.793 246.499 323.755 252.369L281.648 259.002C280.096 253.404 278.256 248.123 276.107 243.149C273.96 238.162 271.818 233.455 269.691 228.993C252.88 232.53 235.704 234.937 218.138 236.198C213.466 236.643 206.437 237.233 197.047 237.97C187.66 238.699 176.938 239.059 164.886 239.042C152.831 239.019 140.378 238.032 127.519 236.089C114.65 234.134 102.171 230.653 90.0683 225.647C77.9521 220.637 67.2439 213.58 57.942 204.488C48.6379 195.39 41.747 183.646 37.253 169.243L37.2648 169.241ZM119.144 133.122C113.146 133.451 106.82 134.705 100.153 136.862C93.4816 139.026 88.0367 142.188 83.8143 146.354C79.5818 150.509 78.0473 155.767 79.2065 162.114C80.7049 170.467 85.5004 176.894 93.5889 181.382C101.669 185.865 111.788 188.97 123.926 190.701C136.068 192.424 148.597 193.398 161.517 193.616C178.185 193.54 194.034 192.657 209.053 190.972C224.064 189.281 234.763 187.9 241.152 186.815C223.842 167.703 204.386 153.697 182.78 144.792C161.173 135.881 139.964 131.992 119.136 133.117L119.144 133.122Z" fill="#F6F5EA"/>
</svg>
