<svg width="94" height="18" viewBox="0 0 94 18" fill="none" xmlns="http://www.w3.org/2000/svg">
  <g transform="translate(0, 0)">

<path d="M11.9091 5.45188C11.6441 5.46281 11.3791 5.49469 11.1141 5.51563C11.0613 5.08123 10.9657 4.56121 10.8491 3.97836C10.7216 3.39552 10.5312 2.81176 10.2872 2.22891C10.0331 1.65607 9.70342 1.15792 9.28996 0.754478C8.88743 0.341018 8.36742 0.0969502 7.73083 0.0231833C7.06238 -0.0514943 6.43672 0.0550584 5.8648 0.331001C5.29197 0.616962 4.77287 1.0204 4.30568 1.5395C3.8394 2.06953 3.41501 2.67424 3.04345 3.34269C2.67188 4.02117 2.34312 4.71057 2.05716 5.43185C1.77119 6.15313 1.52713 6.8316 1.33588 7.47819C0.911492 8.89889 0.582728 10.3843 0.349588 11.9324C0.116448 13.4916 -0.00012207 14.997 -0.00012207 16.4605H2.02528C2.02528 15.527 2.08903 14.5197 2.21653 13.4488C2.35404 12.3778 2.53436 11.3068 2.76841 10.2249C3.00155 9.13295 3.2775 8.10385 3.60626 7.10754C3.9241 6.12125 4.28473 5.24151 4.67725 4.47743C5.07978 3.70333 5.49415 3.09863 5.92855 2.66422C6.37389 2.21889 6.83015 2.00669 7.29643 2.02764C7.63612 2.03857 7.91115 2.19703 8.1452 2.50485C8.36833 2.81267 8.54774 3.19425 8.68616 3.63959C8.83461 4.08492 8.94025 4.53025 9.01493 4.96557C9.07867 5.4109 9.1315 5.76061 9.16337 6.02562C8.97212 6.1003 8.78179 6.185 8.60147 6.27971C8.42115 6.37534 8.24083 6.47096 8.06051 6.5766C7.16984 7.07476 6.39574 7.77509 5.73822 8.6867C5.08069 9.58829 4.60348 10.5427 4.32754 11.539C4.15815 12.1965 4.08347 12.865 4.10442 13.5325C4.13629 14.1901 4.26379 14.8048 4.49693 15.3667C4.72005 15.9186 5.05883 16.3639 5.49415 16.7027C5.92946 17.0415 6.46951 17.2118 7.09516 17.2327C7.74176 17.2437 8.29365 17.1052 8.74991 16.8193C9.19524 16.5333 9.57683 16.1508 9.87372 15.6845C10.1815 15.2073 10.4147 14.6873 10.595 14.1254C10.7644 13.5735 10.9028 13.0226 10.9875 12.4707C11.0722 11.9188 11.136 11.4316 11.1788 10.9862C11.2106 10.5518 11.2316 10.2231 11.2534 9.99993C11.3281 9.18303 11.3491 8.35611 11.3172 7.53921C11.5184 7.50734 11.7416 7.48639 11.9638 7.46454C12.1969 7.44359 12.4301 7.43266 12.6851 7.4536L12.706 5.4282C12.441 5.4282 12.176 5.43913 11.911 5.44915L11.9091 5.45188ZM9.25808 9.72581C9.22621 10.4362 9.15244 11.1684 9.03587 11.9315C8.93023 12.5253 8.7918 13.0772 8.63334 13.6072C8.47397 14.1272 8.2727 14.5507 8.01862 14.8476C7.77455 15.1445 7.46673 15.272 7.09607 15.2082C6.82013 15.1654 6.60794 15.017 6.45949 14.7629C6.31105 14.4979 6.21542 14.201 6.17353 13.8722C6.13073 13.5325 6.12071 13.2256 6.15259 12.9497C6.25823 11.9743 6.57697 11.0727 7.107 10.224C7.64796 9.37519 8.37926 8.69672 9.31273 8.19856C9.31273 8.50638 9.3018 9.01546 9.2599 9.72581H9.25808Z" fill="#E99C82"/>



<path d="M23.0443 7.44538C23.5006 6.71409 23.7337 5.86531 23.7337 4.89997C23.7337 3.43647 23.3522 2.31266 22.6099 1.52764C21.8677 0.74261 20.7439 0.350098 19.2485 0.350098H13.9355V16.4586H17.1384V9.58645H18.0191C18.6019 9.58645 19.0582 9.73489 19.366 10.0318C19.6838 10.3287 19.8432 10.8377 19.8432 11.559V16.4586H23.0462V11.3578C23.0462 10.6893 22.8768 10.1383 22.5371 9.72487C22.1874 9.31141 21.6883 9.08829 21.0317 9.05642V8.93984C21.9223 8.6639 22.6008 8.16575 23.0462 7.44447L23.0443 7.44538ZM20.1283 6.40627C19.7886 6.73503 19.3651 6.90443 18.856 6.90443H17.1384V3.01299H18.856C19.3651 3.01299 19.7895 3.16144 20.1283 3.4474C20.468 3.74429 20.6373 4.23242 20.6373 4.89997C20.6373 5.56751 20.468 6.07751 20.1283 6.40536V6.40627Z" fill="#E99C82"/>
<path d="M24.4122 0.351074V2.9912H28.0814V16.4587H31.2844V2.9912H34.9326V0.351074H24.4131H24.4122Z" fill="#E99C82"/>
<path d="M44.5186 13.8185V0.351074H41.3056V16.4596H49.726V13.8195H44.5195L44.5186 13.8185Z" fill="#E99C82"/>
<path d="M59.7574 1.36885C58.8349 0.45724 57.6364 0.000976562 56.141 0.000976562C54.6456 0.000976562 53.3834 0.45724 52.4508 1.36885C51.5073 2.27045 51.0401 3.57458 51.0401 5.27122V11.5387C51.0401 13.2244 51.5064 14.5185 52.4508 15.4301C53.3843 16.3317 54.6137 16.788 56.141 16.788C57.0216 16.788 57.8376 16.5967 58.5908 16.2151C59.3439 15.8335 59.9587 15.2607 60.4249 14.4975C60.8912 13.7234 61.1253 12.7372 61.1253 11.5387V5.27122C61.1253 3.57458 60.669 2.27045 59.7574 1.36885ZM57.9232 11.168C57.9232 11.6771 57.8704 12.1543 57.7639 12.5787C57.6582 13.0131 57.4879 13.3637 57.2229 13.6388C56.9679 13.9038 56.6082 14.0413 56.141 14.0413C55.4097 14.0413 54.9106 13.7763 54.6456 13.2462C54.3806 12.7053 54.2531 12.0159 54.2531 11.168V5.63276C54.2531 5.11275 54.2959 4.63555 54.4016 4.20114C54.5072 3.76673 54.6875 3.4061 54.9534 3.14108C55.2185 2.88699 55.59 2.74857 56.0772 2.74857C56.5645 2.74857 56.926 2.88608 57.191 3.14108C57.456 3.4061 57.6473 3.76673 57.7529 4.20114C57.8586 4.63555 57.9223 5.11275 57.9223 5.63276V11.168H57.9232Z" fill="#E99C82"/>
<path d="M71.847 9.50277C71.9845 9.21681 72.1011 8.97274 72.1967 8.74962C72.3023 8.5265 72.3661 8.38898 72.3979 8.32523C72.7158 7.61488 72.9708 6.86173 73.1511 6.08763C73.3205 5.31353 73.4052 4.56038 73.3952 3.83911C73.3952 3.10781 73.2786 2.4603 73.0555 1.87746C72.8433 1.30462 72.5036 0.848362 72.0482 0.509581C71.592 0.169889 70.9982 0.0114248 70.2669 0.0214425C69.45 0.0423887 68.7506 0.371153 68.1777 1.01866C67.6049 1.65524 67.2233 2.50311 67.043 3.56408C66.8736 4.47569 66.8518 5.39915 66.9683 6.33171C67.0849 7.26518 67.308 8.15584 67.6468 9.0037C67.9756 9.84155 68.3681 10.5838 68.8134 11.2094C68.6968 11.4107 68.5275 11.7185 68.3043 12.111C68.0712 12.5035 67.8162 12.9061 67.5193 13.3095C67.2224 13.712 66.9146 14.0408 66.5758 14.3067C66.2361 14.5717 65.8973 14.6783 65.5686 14.6145C65.1551 14.5399 64.8373 14.2011 64.6251 13.5855C64.402 12.9707 64.2754 12.1648 64.2326 11.1785C64.2007 10.1922 64.2435 9.10024 64.3701 7.90176C64.4867 6.70327 64.6779 5.49477 64.932 4.25348C65.1761 3.0131 65.473 1.84649 65.8336 0.732701L63.9357 0.0861044C63.4694 1.52866 63.0869 2.98123 62.79 4.45565C62.4822 5.93008 62.2919 7.33985 62.2063 8.68678C62.1635 9.30151 62.1425 9.94901 62.1534 10.6484C62.1534 11.3488 62.2063 12.0373 62.3128 12.7166C62.4185 13.3951 62.5888 14.0208 62.8219 14.5936C63.055 15.1664 63.3629 15.6436 63.7654 16.0362C64.1579 16.4177 64.667 16.6618 65.2817 16.7465C65.8227 16.8312 66.3318 16.7574 66.819 16.5243C67.2962 16.2911 67.7524 15.9624 68.1759 15.5489C68.6003 15.1355 68.9928 14.6792 69.3316 14.1911C69.6713 13.6929 69.9682 13.2367 70.2223 12.7913C70.7951 13.3213 71.4208 13.7248 72.1102 13.9998L72.9271 12.1966C72.5874 12.0482 72.2695 11.8788 71.9836 11.6666C71.6867 11.4653 71.4217 11.2322 71.1667 10.9663C71.2413 10.8069 71.3361 10.5947 71.4636 10.3297C71.5911 10.0647 71.7176 9.78873 71.8451 9.50277H71.847ZM71.0838 5.82262C70.9354 6.46922 70.755 7.08486 70.5428 7.65769C70.3306 8.24054 70.1084 8.70773 69.8744 9.07838C69.6622 8.72867 69.4819 8.26148 69.3125 7.66771C69.1431 7.08486 69.0265 6.4592 68.9628 5.77982C68.899 5.11136 68.9099 4.48571 69.0156 3.91379C69.0475 3.73347 69.1112 3.50033 69.2068 3.19251C69.3025 2.88469 69.44 2.60966 69.6312 2.36559C69.8225 2.12153 70.0656 2.00495 70.3735 2.0259C70.745 2.03683 70.9991 2.22717 71.1475 2.59873C71.296 2.95937 71.3597 3.42565 71.3388 3.99848C71.3178 4.57131 71.2332 5.18604 71.0838 5.82262Z" fill="#E99C82"/>
<path d="M82.7909 2.9912V0.351074H74.3815V16.4596H82.7909V13.8195H77.5845V9.40801H82.0487V6.76788H77.5845V2.99302H82.7909V2.9912Z" fill="#E99C82"/>
<path d="M93.3213 7.44538C93.7667 6.71409 93.9998 5.86531 93.9998 4.89997C93.9998 3.43647 93.6283 2.31266 92.876 1.52764C92.1338 0.74261 91.01 0.350098 89.5146 0.350098H84.2016V16.4586H87.4045V9.58645H88.2852C88.868 9.58645 89.3243 9.73489 89.6421 10.0318C89.7268 10.1065 89.7905 10.2012 89.8543 10.3177C90.0237 10.6146 90.1084 11.0281 90.1084 11.5581V16.4577H93.3213V11.3569C93.3213 10.6884 93.141 10.1374 92.8013 9.72396C92.4935 9.3524 92.0591 9.14111 91.5072 9.08738C91.4435 9.06643 91.3697 9.0555 91.295 9.0555V8.93893C92.1857 8.66299 92.8642 8.16484 93.3204 7.44356L93.3213 7.44538ZM89.1221 6.90443H87.4045V3.01299H89.1221C89.6312 3.01299 90.0556 3.16144 90.3943 3.4474C90.734 3.74429 90.9034 4.23242 90.9034 4.89997C90.9034 5.56751 90.734 6.07751 90.3943 6.40536C90.0547 6.73321 89.6312 6.90351 89.1221 6.90351V6.90443Z" fill="#E99C82"/>
</g>

  <g transform="translate(110, 0)">

<path d="M11.9091 5.45188C11.6441 5.46281 11.3791 5.49469 11.1141 5.51563C11.0613 5.08123 10.9657 4.56121 10.8491 3.97836C10.7216 3.39552 10.5312 2.81176 10.2872 2.22891C10.0331 1.65607 9.70342 1.15792 9.28996 0.754478C8.88743 0.341018 8.36742 0.0969502 7.73083 0.0231833C7.06238 -0.0514943 6.43672 0.0550584 5.8648 0.331001C5.29197 0.616962 4.77287 1.0204 4.30568 1.5395C3.8394 2.06953 3.41501 2.67424 3.04345 3.34269C2.67188 4.02117 2.34312 4.71057 2.05716 5.43185C1.77119 6.15313 1.52713 6.8316 1.33588 7.47819C0.911492 8.89889 0.582728 10.3843 0.349588 11.9324C0.116448 13.4916 -0.00012207 14.997 -0.00012207 16.4605H2.02528C2.02528 15.527 2.08903 14.5197 2.21653 13.4488C2.35404 12.3778 2.53436 11.3068 2.76841 10.2249C3.00155 9.13295 3.2775 8.10385 3.60626 7.10754C3.9241 6.12125 4.28473 5.24151 4.67725 4.47743C5.07978 3.70333 5.49415 3.09863 5.92855 2.66422C6.37389 2.21889 6.83015 2.00669 7.29643 2.02764C7.63612 2.03857 7.91115 2.19703 8.1452 2.50485C8.36833 2.81267 8.54774 3.19425 8.68616 3.63959C8.83461 4.08492 8.94025 4.53025 9.01493 4.96557C9.07867 5.4109 9.1315 5.76061 9.16337 6.02562C8.97212 6.1003 8.78179 6.185 8.60147 6.27971C8.42115 6.37534 8.24083 6.47096 8.06051 6.5766C7.16984 7.07476 6.39574 7.77509 5.73822 8.6867C5.08069 9.58829 4.60348 10.5427 4.32754 11.539C4.15815 12.1965 4.08347 12.865 4.10442 13.5325C4.13629 14.1901 4.26379 14.8048 4.49693 15.3667C4.72005 15.9186 5.05883 16.3639 5.49415 16.7027C5.92946 17.0415 6.46951 17.2118 7.09516 17.2327C7.74176 17.2437 8.29365 17.1052 8.74991 16.8193C9.19524 16.5333 9.57683 16.1508 9.87372 15.6845C10.1815 15.2073 10.4147 14.6873 10.595 14.1254C10.7644 13.5735 10.9028 13.0226 10.9875 12.4707C11.0722 11.9188 11.136 11.4316 11.1788 10.9862C11.2106 10.5518 11.2316 10.2231 11.2534 9.99993C11.3281 9.18303 11.3491 8.35611 11.3172 7.53921C11.5184 7.50734 11.7416 7.48639 11.9638 7.46454C12.1969 7.44359 12.4301 7.43266 12.6851 7.4536L12.706 5.4282C12.441 5.4282 12.176 5.43913 11.911 5.44915L11.9091 5.45188ZM9.25808 9.72581C9.22621 10.4362 9.15244 11.1684 9.03587 11.9315C8.93023 12.5253 8.7918 13.0772 8.63334 13.6072C8.47397 14.1272 8.2727 14.5507 8.01862 14.8476C7.77455 15.1445 7.46673 15.272 7.09607 15.2082C6.82013 15.1654 6.60794 15.017 6.45949 14.7629C6.31105 14.4979 6.21542 14.201 6.17353 13.8722C6.13073 13.5325 6.12071 13.2256 6.15259 12.9497C6.25823 11.9743 6.57697 11.0727 7.107 10.224C7.64796 9.37519 8.37926 8.69672 9.31273 8.19856C9.31273 8.50638 9.3018 9.01546 9.2599 9.72581H9.25808Z" fill="#E99C82"/>



<path d="M23.0443 7.44538C23.5006 6.71409 23.7337 5.86531 23.7337 4.89997C23.7337 3.43647 23.3522 2.31266 22.6099 1.52764C21.8677 0.74261 20.7439 0.350098 19.2485 0.350098H13.9355V16.4586H17.1384V9.58645H18.0191C18.6019 9.58645 19.0582 9.73489 19.366 10.0318C19.6838 10.3287 19.8432 10.8377 19.8432 11.559V16.4586H23.0462V11.3578C23.0462 10.6893 22.8768 10.1383 22.5371 9.72487C22.1874 9.31141 21.6883 9.08829 21.0317 9.05642V8.93984C21.9223 8.6639 22.6008 8.16575 23.0462 7.44447L23.0443 7.44538ZM20.1283 6.40627C19.7886 6.73503 19.3651 6.90443 18.856 6.90443H17.1384V3.01299H18.856C19.3651 3.01299 19.7895 3.16144 20.1283 3.4474C20.468 3.74429 20.6373 4.23242 20.6373 4.89997C20.6373 5.56751 20.468 6.07751 20.1283 6.40536V6.40627Z" fill="#E99C82"/>
<path d="M24.4122 0.351074V2.9912H28.0814V16.4587H31.2844V2.9912H34.9326V0.351074H24.4131H24.4122Z" fill="#E99C82"/>
<path d="M44.5186 13.8185V0.351074H41.3056V16.4596H49.726V13.8195H44.5195L44.5186 13.8185Z" fill="#E99C82"/>
<path d="M59.7574 1.36885C58.8349 0.45724 57.6364 0.000976562 56.141 0.000976562C54.6456 0.000976562 53.3834 0.45724 52.4508 1.36885C51.5073 2.27045 51.0401 3.57458 51.0401 5.27122V11.5387C51.0401 13.2244 51.5064 14.5185 52.4508 15.4301C53.3843 16.3317 54.6137 16.788 56.141 16.788C57.0216 16.788 57.8376 16.5967 58.5908 16.2151C59.3439 15.8335 59.9587 15.2607 60.4249 14.4975C60.8912 13.7234 61.1253 12.7372 61.1253 11.5387V5.27122C61.1253 3.57458 60.669 2.27045 59.7574 1.36885ZM57.9232 11.168C57.9232 11.6771 57.8704 12.1543 57.7639 12.5787C57.6582 13.0131 57.4879 13.3637 57.2229 13.6388C56.9679 13.9038 56.6082 14.0413 56.141 14.0413C55.4097 14.0413 54.9106 13.7763 54.6456 13.2462C54.3806 12.7053 54.2531 12.0159 54.2531 11.168V5.63276C54.2531 5.11275 54.2959 4.63555 54.4016 4.20114C54.5072 3.76673 54.6875 3.4061 54.9534 3.14108C55.2185 2.88699 55.59 2.74857 56.0772 2.74857C56.5645 2.74857 56.926 2.88608 57.191 3.14108C57.456 3.4061 57.6473 3.76673 57.7529 4.20114C57.8586 4.63555 57.9223 5.11275 57.9223 5.63276V11.168H57.9232Z" fill="#E99C82"/>
<path d="M71.847 9.50277C71.9845 9.21681 72.1011 8.97274 72.1967 8.74962C72.3023 8.5265 72.3661 8.38898 72.3979 8.32523C72.7158 7.61488 72.9708 6.86173 73.1511 6.08763C73.3205 5.31353 73.4052 4.56038 73.3952 3.83911C73.3952 3.10781 73.2786 2.4603 73.0555 1.87746C72.8433 1.30462 72.5036 0.848362 72.0482 0.509581C71.592 0.169889 70.9982 0.0114248 70.2669 0.0214425C69.45 0.0423887 68.7506 0.371153 68.1777 1.01866C67.6049 1.65524 67.2233 2.50311 67.043 3.56408C66.8736 4.47569 66.8518 5.39915 66.9683 6.33171C67.0849 7.26518 67.308 8.15584 67.6468 9.0037C67.9756 9.84155 68.3681 10.5838 68.8134 11.2094C68.6968 11.4107 68.5275 11.7185 68.3043 12.111C68.0712 12.5035 67.8162 12.9061 67.5193 13.3095C67.2224 13.712 66.9146 14.0408 66.5758 14.3067C66.2361 14.5717 65.8973 14.6783 65.5686 14.6145C65.1551 14.5399 64.8373 14.2011 64.6251 13.5855C64.402 12.9707 64.2754 12.1648 64.2326 11.1785C64.2007 10.1922 64.2435 9.10024 64.3701 7.90176C64.4867 6.70327 64.6779 5.49477 64.932 4.25348C65.1761 3.0131 65.473 1.84649 65.8336 0.732701L63.9357 0.0861044C63.4694 1.52866 63.0869 2.98123 62.79 4.45565C62.4822 5.93008 62.2919 7.33985 62.2063 8.68678C62.1635 9.30151 62.1425 9.94901 62.1534 10.6484C62.1534 11.3488 62.2063 12.0373 62.3128 12.7166C62.4185 13.3951 62.5888 14.0208 62.8219 14.5936C63.055 15.1664 63.3629 15.6436 63.7654 16.0362C64.1579 16.4177 64.667 16.6618 65.2817 16.7465C65.8227 16.8312 66.3318 16.7574 66.819 16.5243C67.2962 16.2911 67.7524 15.9624 68.1759 15.5489C68.6003 15.1355 68.9928 14.6792 69.3316 14.1911C69.6713 13.6929 69.9682 13.2367 70.2223 12.7913C70.7951 13.3213 71.4208 13.7248 72.1102 13.9998L72.9271 12.1966C72.5874 12.0482 72.2695 11.8788 71.9836 11.6666C71.6867 11.4653 71.4217 11.2322 71.1667 10.9663C71.2413 10.8069 71.3361 10.5947 71.4636 10.3297C71.5911 10.0647 71.7176 9.78873 71.8451 9.50277H71.847ZM71.0838 5.82262C70.9354 6.46922 70.755 7.08486 70.5428 7.65769C70.3306 8.24054 70.1084 8.70773 69.8744 9.07838C69.6622 8.72867 69.4819 8.26148 69.3125 7.66771C69.1431 7.08486 69.0265 6.4592 68.9628 5.77982C68.899 5.11136 68.9099 4.48571 69.0156 3.91379C69.0475 3.73347 69.1112 3.50033 69.2068 3.19251C69.3025 2.88469 69.44 2.60966 69.6312 2.36559C69.8225 2.12153 70.0656 2.00495 70.3735 2.0259C70.745 2.03683 70.9991 2.22717 71.1475 2.59873C71.296 2.95937 71.3597 3.42565 71.3388 3.99848C71.3178 4.57131 71.2332 5.18604 71.0838 5.82262Z" fill="#E99C82"/>
<path d="M82.7909 2.9912V0.351074H74.3815V16.4596H82.7909V13.8195H77.5845V9.40801H82.0487V6.76788H77.5845V2.99302H82.7909V2.9912Z" fill="#E99C82"/>
<path d="M93.3213 7.44538C93.7667 6.71409 93.9998 5.86531 93.9998 4.89997C93.9998 3.43647 93.6283 2.31266 92.876 1.52764C92.1338 0.74261 91.01 0.350098 89.5146 0.350098H84.2016V16.4586H87.4045V9.58645H88.2852C88.868 9.58645 89.3243 9.73489 89.6421 10.0318C89.7268 10.1065 89.7905 10.2012 89.8543 10.3177C90.0237 10.6146 90.1084 11.0281 90.1084 11.5581V16.4577H93.3213V11.3569C93.3213 10.6884 93.141 10.1374 92.8013 9.72396C92.4935 9.3524 92.0591 9.14111 91.5072 9.08738C91.4435 9.06643 91.3697 9.0555 91.295 9.0555V8.93893C92.1857 8.66299 92.8642 8.16484 93.3204 7.44356L93.3213 7.44538ZM89.1221 6.90443H87.4045V3.01299H89.1221C89.6312 3.01299 90.0556 3.16144 90.3943 3.4474C90.734 3.74429 90.9034 4.23242 90.9034 4.89997C90.9034 5.56751 90.734 6.07751 90.3943 6.40536C90.0547 6.73321 89.6312 6.90351 89.1221 6.90351V6.90443Z" fill="#E99C82"/>
</g>

  <g transform="translate(220, 0)">

<path d="M11.9091 5.45188C11.6441 5.46281 11.3791 5.49469 11.1141 5.51563C11.0613 5.08123 10.9657 4.56121 10.8491 3.97836C10.7216 3.39552 10.5312 2.81176 10.2872 2.22891C10.0331 1.65607 9.70342 1.15792 9.28996 0.754478C8.88743 0.341018 8.36742 0.0969502 7.73083 0.0231833C7.06238 -0.0514943 6.43672 0.0550584 5.8648 0.331001C5.29197 0.616962 4.77287 1.0204 4.30568 1.5395C3.8394 2.06953 3.41501 2.67424 3.04345 3.34269C2.67188 4.02117 2.34312 4.71057 2.05716 5.43185C1.77119 6.15313 1.52713 6.8316 1.33588 7.47819C0.911492 8.89889 0.582728 10.3843 0.349588 11.9324C0.116448 13.4916 -0.00012207 14.997 -0.00012207 16.4605H2.02528C2.02528 15.527 2.08903 14.5197 2.21653 13.4488C2.35404 12.3778 2.53436 11.3068 2.76841 10.2249C3.00155 9.13295 3.2775 8.10385 3.60626 7.10754C3.9241 6.12125 4.28473 5.24151 4.67725 4.47743C5.07978 3.70333 5.49415 3.09863 5.92855 2.66422C6.37389 2.21889 6.83015 2.00669 7.29643 2.02764C7.63612 2.03857 7.91115 2.19703 8.1452 2.50485C8.36833 2.81267 8.54774 3.19425 8.68616 3.63959C8.83461 4.08492 8.94025 4.53025 9.01493 4.96557C9.07867 5.4109 9.1315 5.76061 9.16337 6.02562C8.97212 6.1003 8.78179 6.185 8.60147 6.27971C8.42115 6.37534 8.24083 6.47096 8.06051 6.5766C7.16984 7.07476 6.39574 7.77509 5.73822 8.6867C5.08069 9.58829 4.60348 10.5427 4.32754 11.539C4.15815 12.1965 4.08347 12.865 4.10442 13.5325C4.13629 14.1901 4.26379 14.8048 4.49693 15.3667C4.72005 15.9186 5.05883 16.3639 5.49415 16.7027C5.92946 17.0415 6.46951 17.2118 7.09516 17.2327C7.74176 17.2437 8.29365 17.1052 8.74991 16.8193C9.19524 16.5333 9.57683 16.1508 9.87372 15.6845C10.1815 15.2073 10.4147 14.6873 10.595 14.1254C10.7644 13.5735 10.9028 13.0226 10.9875 12.4707C11.0722 11.9188 11.136 11.4316 11.1788 10.9862C11.2106 10.5518 11.2316 10.2231 11.2534 9.99993C11.3281 9.18303 11.3491 8.35611 11.3172 7.53921C11.5184 7.50734 11.7416 7.48639 11.9638 7.46454C12.1969 7.44359 12.4301 7.43266 12.6851 7.4536L12.706 5.4282C12.441 5.4282 12.176 5.43913 11.911 5.44915L11.9091 5.45188ZM9.25808 9.72581C9.22621 10.4362 9.15244 11.1684 9.03587 11.9315C8.93023 12.5253 8.7918 13.0772 8.63334 13.6072C8.47397 14.1272 8.2727 14.5507 8.01862 14.8476C7.77455 15.1445 7.46673 15.272 7.09607 15.2082C6.82013 15.1654 6.60794 15.017 6.45949 14.7629C6.31105 14.4979 6.21542 14.201 6.17353 13.8722C6.13073 13.5325 6.12071 13.2256 6.15259 12.9497C6.25823 11.9743 6.57697 11.0727 7.107 10.224C7.64796 9.37519 8.37926 8.69672 9.31273 8.19856C9.31273 8.50638 9.3018 9.01546 9.2599 9.72581H9.25808Z" fill="#E99C82"/>



<path d="M23.0443 7.44538C23.5006 6.71409 23.7337 5.86531 23.7337 4.89997C23.7337 3.43647 23.3522 2.31266 22.6099 1.52764C21.8677 0.74261 20.7439 0.350098 19.2485 0.350098H13.9355V16.4586H17.1384V9.58645H18.0191C18.6019 9.58645 19.0582 9.73489 19.366 10.0318C19.6838 10.3287 19.8432 10.8377 19.8432 11.559V16.4586H23.0462V11.3578C23.0462 10.6893 22.8768 10.1383 22.5371 9.72487C22.1874 9.31141 21.6883 9.08829 21.0317 9.05642V8.93984C21.9223 8.6639 22.6008 8.16575 23.0462 7.44447L23.0443 7.44538ZM20.1283 6.40627C19.7886 6.73503 19.3651 6.90443 18.856 6.90443H17.1384V3.01299H18.856C19.3651 3.01299 19.7895 3.16144 20.1283 3.4474C20.468 3.74429 20.6373 4.23242 20.6373 4.89997C20.6373 5.56751 20.468 6.07751 20.1283 6.40536V6.40627Z" fill="#E99C82"/>
<path d="M24.4122 0.351074V2.9912H28.0814V16.4587H31.2844V2.9912H34.9326V0.351074H24.4131H24.4122Z" fill="#E99C82"/>
<path d="M44.5186 13.8185V0.351074H41.3056V16.4596H49.726V13.8195H44.5195L44.5186 13.8185Z" fill="#E99C82"/>
<path d="M59.7574 1.36885C58.8349 0.45724 57.6364 0.000976562 56.141 0.000976562C54.6456 0.000976562 53.3834 0.45724 52.4508 1.36885C51.5073 2.27045 51.0401 3.57458 51.0401 5.27122V11.5387C51.0401 13.2244 51.5064 14.5185 52.4508 15.4301C53.3843 16.3317 54.6137 16.788 56.141 16.788C57.0216 16.788 57.8376 16.5967 58.5908 16.2151C59.3439 15.8335 59.9587 15.2607 60.4249 14.4975C60.8912 13.7234 61.1253 12.7372 61.1253 11.5387V5.27122C61.1253 3.57458 60.669 2.27045 59.7574 1.36885ZM57.9232 11.168C57.9232 11.6771 57.8704 12.1543 57.7639 12.5787C57.6582 13.0131 57.4879 13.3637 57.2229 13.6388C56.9679 13.9038 56.6082 14.0413 56.141 14.0413C55.4097 14.0413 54.9106 13.7763 54.6456 13.2462C54.3806 12.7053 54.2531 12.0159 54.2531 11.168V5.63276C54.2531 5.11275 54.2959 4.63555 54.4016 4.20114C54.5072 3.76673 54.6875 3.4061 54.9534 3.14108C55.2185 2.88699 55.59 2.74857 56.0772 2.74857C56.5645 2.74857 56.926 2.88608 57.191 3.14108C57.456 3.4061 57.6473 3.76673 57.7529 4.20114C57.8586 4.63555 57.9223 5.11275 57.9223 5.63276V11.168H57.9232Z" fill="#E99C82"/>
<path d="M71.847 9.50277C71.9845 9.21681 72.1011 8.97274 72.1967 8.74962C72.3023 8.5265 72.3661 8.38898 72.3979 8.32523C72.7158 7.61488 72.9708 6.86173 73.1511 6.08763C73.3205 5.31353 73.4052 4.56038 73.3952 3.83911C73.3952 3.10781 73.2786 2.4603 73.0555 1.87746C72.8433 1.30462 72.5036 0.848362 72.0482 0.509581C71.592 0.169889 70.9982 0.0114248 70.2669 0.0214425C69.45 0.0423887 68.7506 0.371153 68.1777 1.01866C67.6049 1.65524 67.2233 2.50311 67.043 3.56408C66.8736 4.47569 66.8518 5.39915 66.9683 6.33171C67.0849 7.26518 67.308 8.15584 67.6468 9.0037C67.9756 9.84155 68.3681 10.5838 68.8134 11.2094C68.6968 11.4107 68.5275 11.7185 68.3043 12.111C68.0712 12.5035 67.8162 12.9061 67.5193 13.3095C67.2224 13.712 66.9146 14.0408 66.5758 14.3067C66.2361 14.5717 65.8973 14.6783 65.5686 14.6145C65.1551 14.5399 64.8373 14.2011 64.6251 13.5855C64.402 12.9707 64.2754 12.1648 64.2326 11.1785C64.2007 10.1922 64.2435 9.10024 64.3701 7.90176C64.4867 6.70327 64.6779 5.49477 64.932 4.25348C65.1761 3.0131 65.473 1.84649 65.8336 0.732701L63.9357 0.0861044C63.4694 1.52866 63.0869 2.98123 62.79 4.45565C62.4822 5.93008 62.2919 7.33985 62.2063 8.68678C62.1635 9.30151 62.1425 9.94901 62.1534 10.6484C62.1534 11.3488 62.2063 12.0373 62.3128 12.7166C62.4185 13.3951 62.5888 14.0208 62.8219 14.5936C63.055 15.1664 63.3629 15.6436 63.7654 16.0362C64.1579 16.4177 64.667 16.6618 65.2817 16.7465C65.8227 16.8312 66.3318 16.7574 66.819 16.5243C67.2962 16.2911 67.7524 15.9624 68.1759 15.5489C68.6003 15.1355 68.9928 14.6792 69.3316 14.1911C69.6713 13.6929 69.9682 13.2367 70.2223 12.7913C70.7951 13.3213 71.4208 13.7248 72.1102 13.9998L72.9271 12.1966C72.5874 12.0482 72.2695 11.8788 71.9836 11.6666C71.6867 11.4653 71.4217 11.2322 71.1667 10.9663C71.2413 10.8069 71.3361 10.5947 71.4636 10.3297C71.5911 10.0647 71.7176 9.78873 71.8451 9.50277H71.847ZM71.0838 5.82262C70.9354 6.46922 70.755 7.08486 70.5428 7.65769C70.3306 8.24054 70.1084 8.70773 69.8744 9.07838C69.6622 8.72867 69.4819 8.26148 69.3125 7.66771C69.1431 7.08486 69.0265 6.4592 68.9628 5.77982C68.899 5.11136 68.9099 4.48571 69.0156 3.91379C69.0475 3.73347 69.1112 3.50033 69.2068 3.19251C69.3025 2.88469 69.44 2.60966 69.6312 2.36559C69.8225 2.12153 70.0656 2.00495 70.3735 2.0259C70.745 2.03683 70.9991 2.22717 71.1475 2.59873C71.296 2.95937 71.3597 3.42565 71.3388 3.99848C71.3178 4.57131 71.2332 5.18604 71.0838 5.82262Z" fill="#E99C82"/>
<path d="M82.7909 2.9912V0.351074H74.3815V16.4596H82.7909V13.8195H77.5845V9.40801H82.0487V6.76788H77.5845V2.99302H82.7909V2.9912Z" fill="#E99C82"/>
<path d="M93.3213 7.44538C93.7667 6.71409 93.9998 5.86531 93.9998 4.89997C93.9998 3.43647 93.6283 2.31266 92.876 1.52764C92.1338 0.74261 91.01 0.350098 89.5146 0.350098H84.2016V16.4586H87.4045V9.58645H88.2852C88.868 9.58645 89.3243 9.73489 89.6421 10.0318C89.7268 10.1065 89.7905 10.2012 89.8543 10.3177C90.0237 10.6146 90.1084 11.0281 90.1084 11.5581V16.4577H93.3213V11.3569C93.3213 10.6884 93.141 10.1374 92.8013 9.72396C92.4935 9.3524 92.0591 9.14111 91.5072 9.08738C91.4435 9.06643 91.3697 9.0555 91.295 9.0555V8.93893C92.1857 8.66299 92.8642 8.16484 93.3204 7.44356L93.3213 7.44538ZM89.1221 6.90443H87.4045V3.01299H89.1221C89.6312 3.01299 90.0556 3.16144 90.3943 3.4474C90.734 3.74429 90.9034 4.23242 90.9034 4.89997C90.9034 5.56751 90.734 6.07751 90.3943 6.40536C90.0547 6.73321 89.6312 6.90351 89.1221 6.90351V6.90443Z" fill="#E99C82"/>
</g>


</svg>
