<svg width="36" height="61" viewBox="0 0 36 61" fill="none" xmlns="http://www.w3.org/2000/svg">
<path d="M-22.7888 82.9429C-24.7134 80.0411 -25.8324 76.8494 -26.1451 73.3667C-26.4595 69.8839 -26.0951 66.3878 -25.052 62.876C-24.0088 59.3667 -22.4842 56.0577 -20.4753 52.9454C-18.4673 49.8343 -16.1493 47.2 -13.523 45.0475C-9.51525 41.8467 -5.04859 39.7033 -0.123927 38.6085C4.79984 37.5174 9.44379 37.8674 13.8088 39.6621C14.6817 39.9973 15.5527 40.3605 16.429 40.7596C17.3 41.1561 18.1502 41.6228 18.977 42.1506C19.7162 40.8397 20.6631 39.038 21.8195 36.7454C22.9733 34.4515 24.0362 31.9937 25.0102 29.3694C25.9814 26.7463 26.5983 24.2365 26.8562 21.8386C27.1142 19.4432 26.7399 17.451 25.7331 15.8722C24.3112 13.6959 22.2221 12.601 19.4625 12.5874C16.7037 12.5751 13.4931 13.3973 9.83334 15.0554C6.1736 16.7109 2.27975 19.0245 -1.84282 21.9935C-5.96628 24.9639 -10.1033 28.3429 -14.2511 32.1321C-18.3998 35.925 -22.3638 39.9118 -26.1459 44.0962C-29.928 48.2831 -33.2943 52.4708 -36.2484 56.6619L-42.573 47.5641C-37.9589 41.0179 -32.8394 34.8012 -27.2128 28.914C-21.5888 23.0281 -15.8737 17.8657 -10.0672 13.4268C-7.44215 11.4034 -4.54981 9.43111 -1.39468 7.50867C1.75955 5.5875 4.98283 3.9605 8.27514 2.62767C11.5657 1.29994 14.7762 0.508366 17.9049 0.260619C21.0327 0.0141452 23.9289 0.554758 26.5923 1.88118C29.2558 3.21015 31.5279 5.55282 33.4057 8.91045C35.1446 12.0732 36.01 15.4948 36.002 19.1728C35.9932 22.852 35.4665 26.5452 34.4237 30.2526C33.3783 33.9612 32.1279 37.403 30.6733 40.582C29.2151 43.7609 27.8878 46.464 26.6877 48.6912C27.6044 49.7484 28.4987 50.8349 29.3697 51.957C30.2416 53.0804 31.0884 54.2343 31.9136 55.4214L25.4765 64.3578C24.7425 63.1712 23.9876 62.1161 23.2074 61.1937C22.4263 60.2675 21.67 59.4129 20.9368 58.6198C18.4425 62.4184 15.7913 65.9862 12.978 69.3232C12.2389 70.2394 11.1204 71.597 9.62179 73.3973C8.12313 75.1951 6.37108 77.1257 4.36564 79.1867C2.3593 81.2464 0.20496 83.1239 -2.09829 84.8232C-4.40423 86.5211 -6.77522 87.7563 -9.21306 88.5312C-11.6536 89.3074 -14.0341 89.311 -16.3538 88.5459C-18.6743 87.7794 -20.8187 85.9126 -22.7906 82.9454L-22.7888 82.9429ZM-12.2461 59.5396C-13.2155 60.6527 -14.1606 62.0622 -15.0858 63.7644C-16.011 65.4692 -16.6475 67.2226 -16.9952 69.0273C-17.3457 70.8307 -17.1537 72.458 -16.4213 73.9064C-15.4619 75.8172 -14.118 76.6632 -12.3916 76.4417C-10.6669 76.2203 -8.72054 75.2922 -6.55516 73.6612C-4.38979 72.0277 -2.22378 70.1336 -0.0571369 67.9764C2.70772 65.1003 5.26794 62.1554 7.62176 59.1444C9.97379 56.1334 11.6353 53.9417 12.6053 52.5655C8.10211 50.5721 3.67625 50.2718 -0.673232 51.6633C-5.0236 53.0535 -8.88064 55.6789 -12.2479 59.5396L-12.2461 59.5396Z" fill="#545454"/>
</svg>
