<svg width="94" height="113" viewBox="0 0 94 113" fill="none" xmlns="http://www.w3.org/2000/svg">
<path d="M91.6799 70.9314C90.0605 74.816 87.8396 77.6179 85.0155 79.3363C82.1921 81.0574 79.0583 81.7827 75.6118 81.5133C72.1674 81.243 68.6811 80.1905 65.1486 78.3534C61.6175 76.5171 58.3552 74.0517 55.3669 70.9579C50.8778 66.2064 47.0858 60.3967 43.9835 53.5333C40.885 46.6698 39.1352 39.6985 38.7371 32.6165C38.6374 31.2089 38.5623 29.7939 38.5153 28.3581C38.4686 26.9312 38.4906 25.5095 38.575 24.1002C37.1343 23.4841 35.1845 22.739 32.725 21.8623C30.2655 20.99 27.7067 20.3107 25.0454 19.8228C22.3865 19.3385 19.98 19.3355 17.827 19.8212C15.6761 20.3059 14.1469 21.5771 13.248 23.631C12.0241 26.5128 12.0139 29.9873 13.219 34.0599C14.4248 38.1306 16.5395 42.566 19.5631 47.3616C22.5844 52.1581 26.2687 57.0621 30.6112 62.0665C34.9552 67.0717 39.6528 71.9493 44.7039 76.6947C49.7586 81.4401 54.8968 85.8434 60.1228 89.9071C65.351 93.9698 70.3965 97.4194 75.2631 100.26L70.3143 112.868C62.7128 108.43 55.1688 103.129 47.6815 96.9618C40.1964 90.7977 33.2865 84.2379 26.9516 77.2823C24.0734 74.1437 21.121 70.5927 18.095 66.6364C15.0706 62.6809 12.2659 58.5174 9.6809 54.146C7.10105 49.7753 5.01245 45.329 3.4224 40.8068C1.83382 36.2855 1.01679 31.8215 0.970593 27.4167C0.926574 23.011 1.91723 18.8161 3.94482 14.8358C5.86798 11.1307 8.39636 8.61957 11.5278 7.30326C14.6607 5.9878 18.0338 5.43051 21.6464 5.62874C25.2612 5.83046 28.7396 6.43072 32.0845 7.42682C35.4308 8.4282 38.3149 9.4086 40.7381 10.3733C41.233 8.64029 41.7627 6.92978 42.333 5.24079C42.904 3.55002 43.5121 1.88524 44.1578 0.240257L54.5956 6.50125C53.9101 8.01162 53.3456 9.5053 52.9051 10.9884C52.4618 12.4743 52.0685 13.8975 51.7172 15.2646C56.0473 17.5695 60.2504 20.1889 64.3287 23.1306C65.4337 23.8892 67.0813 25.0475 69.2731 26.6064C71.4627 28.1662 73.877 30.0515 76.5139 32.2632C79.1501 34.4767 81.6966 36.9742 84.1572 39.7555C86.6178 42.5412 88.7136 45.5899 90.4474 48.9034C92.1834 52.2203 93.236 55.7278 93.6079 59.4232C93.9791 63.1204 93.3369 66.9552 91.6828 70.9331L91.6799 70.9314ZM67.1287 63.8428C68.5027 64.8697 70.118 65.7537 71.9736 66.5027C73.8313 67.2509 75.6031 67.5558 77.2912 67.4168C78.9794 67.2821 80.2787 66.4116 81.1876 64.8089C82.3897 62.7048 82.5167 60.4186 81.5672 57.9539C80.6185 55.4917 78.9711 52.958 76.6294 50.3552C74.2856 47.7534 71.7198 45.2448 68.93 42.8302C65.2651 39.7935 61.6319 37.0832 58.0335 34.701C54.4358 32.3215 51.8394 30.664 50.2414 29.7311C50.5314 37.0884 52.2272 43.7204 55.3282 49.6289C58.4284 55.5392 62.3616 60.2762 67.1295 63.8454L67.1287 63.8428Z" fill="#F6F5EA"/>
</svg>