<svg width="222" height="126" viewBox="0 0 222 126" fill="none" xmlns="http://www.w3.org/2000/svg">
<path d="M46.8447 124.04C42.6324 122.487 39.4392 120.008 37.2659 116.602C35.09 113.196 33.8871 109.253 33.656 104.768C33.4262 100.287 33.9904 95.6432 35.3505 90.8315C36.71 86.0217 38.7527 81.472 41.4786 77.1888C45.6797 70.7405 51.066 65.0454 57.6317 60.0949C64.1981 55.1491 71.0731 51.9288 78.26 50.4372C79.6855 50.1141 81.1221 49.8219 82.5841 49.5631C84.0371 49.3057 85.4949 49.1378 86.9491 49.0521C87.3676 47.1081 87.8432 44.4894 88.3786 41.1948C88.9094 37.9009 89.2281 34.5054 89.336 31.0042C89.4406 27.5064 89.0898 24.401 88.2764 21.69C87.4642 18.9816 85.9389 17.184 83.7053 16.3077C80.5771 15.1264 77.0209 15.5931 73.0315 17.7103C69.044 19.8282 64.8171 23.1693 60.3554 27.7328C55.8924 32.2936 51.4169 37.7245 46.9355 44.0187C42.4534 50.315 38.1539 57.0498 34.0415 64.2225C29.9298 71.3999 26.1803 78.6377 22.7912 85.9419C19.4033 93.2489 16.6159 100.235 14.4251 106.907L0.799048 102.262C4.22103 91.8415 8.53528 81.3755 13.7444 70.8629C18.9502 60.3538 24.6455 50.532 30.8303 41.3976C33.6182 37.2506 36.8171 32.9507 40.4198 28.5C44.022 24.0514 47.8692 19.8575 51.9615 15.9185C56.0537 11.9862 60.2956 8.67732 64.6884 6.00126C69.0805 3.32722 73.5274 1.65661 78.0271 0.988795C82.5281 0.323656 86.9654 1.02269 91.3358 3.08931C95.4092 5.05919 98.35 7.97484 100.157 11.8336C101.964 15.6943 103.03 19.9698 103.358 24.6585C103.683 29.3506 103.58 33.9217 103.053 38.3751C102.521 42.8312 101.942 46.6879 101.311 49.9477C103.157 50.3471 104.985 50.7944 106.796 51.297C108.61 51.8004 110.403 52.3551 112.181 52.9611L107.31 67.2937C105.664 66.6176 104.053 66.0955 102.471 65.732C100.885 65.3651 99.3712 65.0541 97.921 64.7896C96.1995 70.6951 94.1376 76.48 91.7276 82.1484C91.114 83.679 90.1712 85.9649 88.8986 89.0082C87.6247 92.0488 86.0508 95.4244 84.1757 99.1322C82.2987 102.839 80.1181 106.47 77.6343 110.029C75.1461 113.588 72.3351 116.714 69.2001 119.408C66.0618 122.106 62.628 123.949 58.902 124.939C55.1741 125.928 51.1563 125.629 46.8434 124.044L46.8447 124.04ZM50.4873 91.3828C49.6386 93.2974 48.9717 95.5038 48.4782 98.0014C47.986 100.502 47.9344 102.83 48.3249 104.989C48.7109 107.149 49.7925 108.705 51.5658 109.657C53.8953 110.917 56.2529 110.765 58.635 109.2C61.0145 107.636 63.3645 105.16 65.683 101.779C68.0003 98.3958 70.1896 94.7388 72.2498 90.8056C74.8177 85.6574 77.0564 80.5953 78.9645 75.6233C80.87 70.6527 82.1841 67.0737 82.9035 64.8829C75.419 66.273 68.8832 69.3768 63.2942 74.1938C57.7034 79.0102 53.4352 84.7393 50.4847 91.3841L50.4873 91.3828Z" fill="#F6F5EA"/>
<path d="M100.772 62.0794C99.9925 57.4323 100.466 53.2204 102.194 49.4432C103.919 45.6643 106.558 42.4839 110.112 39.8995C113.665 37.3176 117.736 35.3708 122.332 34.0578C126.926 32.7453 131.64 32.1907 136.468 32.3975C143.784 32.7973 151.061 34.6721 158.303 38.012C165.542 41.355 171.52 45.892 176.236 51.6276C177.193 52.7507 178.131 53.9004 179.054 55.0908C179.972 56.2737 180.818 57.5084 181.596 58.7834C183.389 58.134 185.761 57.1791 188.715 55.9206C191.667 54.6583 194.598 53.1496 197.513 51.3936C200.424 49.6363 202.792 47.6733 204.613 45.4992C206.432 43.3277 207.16 40.9908 206.79 38.4988C206.234 35.0329 204.122 32.0511 200.45 29.5501C196.778 27.0511 191.99 24.9825 186.088 23.348C180.188 21.7109 173.57 20.5232 166.243 19.7873C158.915 19.0518 151.316 18.7144 143.451 18.7788C135.582 18.8462 127.84 19.2746 120.219 20.0653C112.597 20.8585 105.528 22.0274 99.0074 23.5711L96.1756 8.73963C106.361 6.32838 117.017 4.70335 128.147 3.86618C139.272 3.02786 150.073 2.99795 160.551 3.77645C165.298 4.11172 170.37 4.73922 175.762 5.65359C181.152 6.56844 186.452 7.84075 191.664 9.47054C196.87 11.1038 201.639 13.2031 205.964 15.7745C210.288 18.3464 213.817 21.4993 216.552 25.2312C219.286 28.9657 220.873 33.3648 221.31 38.4273C221.681 43.1688 220.728 47.383 218.452 51.0671C216.174 54.7517 213.198 57.9837 209.524 60.7647C205.845 63.5445 202.058 65.8719 198.16 67.7513C194.258 69.6276 190.823 71.1441 187.851 72.2977C188.422 74.185 188.946 76.0815 189.416 77.9928C189.887 79.9061 190.306 81.8275 190.675 83.7627L176.587 86.9298C176.339 85.0773 175.982 83.3379 175.509 81.7089C175.038 80.0752 174.556 78.5359 174.066 77.0791C168.4 78.6432 162.667 79.8345 156.86 80.6479C155.31 80.9013 152.983 81.2557 149.875 81.7118C146.769 82.1653 143.244 82.5238 139.3 82.7847C135.356 83.0435 131.326 82.9861 127.208 82.6156C123.087 82.2413 119.164 81.3439 115.436 79.9244C111.703 78.5037 108.526 76.3616 105.903 73.5029C103.281 70.642 101.571 66.8356 100.768 62.0803L100.772 62.0794ZM129.246 48.0933C127.267 48.3367 125.139 48.8995 122.857 49.774C120.573 50.6511 118.644 51.8372 117.069 53.3351C115.491 54.8292 114.745 56.6353 114.829 58.7493C114.932 61.5318 116.203 63.592 118.642 64.9259C121.079 66.2582 124.246 67.081 128.138 67.3958C132.032 67.7081 136.087 67.7594 140.306 67.5472C145.764 67.1526 150.992 66.5047 155.986 65.6043C160.977 64.7022 164.543 64.0001 166.684 63.4932C161.906 57.4337 156.188 53.1431 149.531 50.6193C142.873 48.0935 136.112 47.252 129.243 48.0917L129.246 48.0933Z" fill="#F6F5EA"/>
</svg>
