<svg width="235" height="232" viewBox="0 0 235 232" fill="none" xmlns="http://www.w3.org/2000/svg">
<path d="M21.3279 213.026C19.071 207.51 18.4809 202.182 19.56 197.041C20.6356 191.898 23.0049 187.239 26.6691 183.06C30.332 178.885 34.812 175.349 40.1159 172.448C45.4175 169.549 51.0782 167.551 57.0921 166.46C66.2293 164.915 75.7292 165.199 85.5942 167.301C95.4558 169.408 104.095 173.339 111.512 179.101C113.006 180.219 114.484 181.376 115.954 182.587C117.415 183.791 118.804 185.078 120.118 186.435C122.149 185.134 124.81 183.294 128.104 180.919C131.393 178.539 134.589 175.861 137.696 172.882C140.797 169.903 143.171 166.821 144.812 163.631C146.451 160.445 146.697 157.36 145.546 154.389C143.894 150.268 140.458 147.178 135.231 145.116C130.005 143.056 123.521 141.839 115.785 141.467C108.049 141.092 99.5542 141.471 90.3105 142.605C81.0646 143.74 71.5968 145.442 61.9116 147.713C52.2228 149.989 42.7912 152.676 33.6098 155.775C24.4272 158.878 16.0328 162.29 8.41863 166.012L0.791601 148.504C12.6847 142.691 25.378 137.716 38.8749 133.581C52.3661 129.447 65.683 126.399 78.8257 124.44C84.7754 123.53 91.2074 122.891 98.114 122.516C105.018 122.143 111.912 122.235 118.796 122.793C125.673 123.357 132.142 124.618 138.195 126.585C144.245 128.552 149.478 131.458 153.892 135.3C158.305 139.145 161.49 144.13 163.439 150.254C165.218 156 165.217 161.464 163.436 166.643C161.653 171.824 158.881 176.641 155.124 181.095C151.361 185.55 147.338 189.476 143.053 192.881C138.761 196.284 134.947 199.112 131.601 201.363C132.832 203.532 134.007 205.726 135.12 207.953C136.234 210.182 137.286 212.436 138.281 214.72L121.784 222.554C120.961 220.337 120.036 218.291 118.999 216.413C117.962 214.529 116.938 212.764 115.929 211.104C109.375 214.612 102.634 217.68 95.6968 220.302C93.8553 221.046 91.0825 222.132 87.3761 223.561C83.6709 224.986 79.4214 226.411 74.6287 227.832C69.835 229.25 64.848 230.303 59.6642 230.993C54.476 231.68 49.3865 231.666 44.3912 230.954C39.3902 230.242 34.8738 228.485 30.842 225.689C26.8091 222.89 23.6385 218.671 21.3233 213.028L21.3279 213.026ZM52.5567 187.836C50.1839 188.688 47.715 189.976 45.1432 191.691C42.5702 193.409 40.5214 195.41 38.9955 197.697C37.4652 199.98 37.048 202.416 37.7418 205C38.644 208.404 40.7864 210.592 44.1669 211.557C47.544 212.522 51.6807 212.654 56.5703 211.958C61.461 211.258 66.4781 210.191 71.6226 208.754C78.2468 206.746 84.5159 204.489 90.4253 201.987C96.3313 199.483 100.534 197.623 103.035 196.401C95.4515 190.257 87.2021 186.557 78.2854 185.299C69.3677 184.039 60.7926 184.885 52.5533 187.835L52.5567 187.836Z" fill="#F6F5EA"/>
<path d="M90.5056 57.3176C93.3113 52.0599 97.0364 48.2051 101.683 45.7543C106.329 43.3001 111.428 42.1505 116.983 42.3043C122.535 42.4594 128.117 43.6513 133.735 45.8831C139.351 48.1138 144.502 51.1965 149.18 55.1304C156.202 61.178 162.045 68.6731 166.724 77.6092C171.396 86.5456 173.883 95.7053 174.181 105.092C174.274 106.957 174.326 108.832 174.332 110.737C174.338 112.631 174.233 114.521 174.028 116.399C176.326 117.132 179.44 118.007 183.372 119.026C187.303 120.039 191.404 120.79 195.68 121.281C199.953 121.767 203.841 121.628 207.344 120.855C210.842 120.084 213.375 118.304 214.928 115.521C217.046 111.619 217.231 107.002 215.483 101.662C213.733 96.3242 210.532 90.5559 205.88 84.3628C201.232 78.1683 195.518 71.8704 188.746 65.478C181.971 59.0846 174.618 52.8818 166.688 46.8755C158.752 40.8695 150.665 35.323 142.419 30.233C134.169 25.1443 126.185 20.8595 118.46 17.3732L127.07 0.327491C139.136 5.77304 151.067 12.3699 162.864 20.1215C174.658 27.8686 185.503 36.1756 195.4 45.0427C199.898 49.0426 204.495 53.5861 209.191 58.6639C213.885 63.7406 218.214 69.1068 222.178 74.7623C226.134 80.417 229.292 86.2015 231.64 92.1162C233.987 98.0298 235.089 103.913 234.949 109.763C234.806 115.615 233.001 121.248 229.531 126.657C226.243 131.694 222.035 135.181 216.912 137.115C211.786 139.049 206.308 139.989 200.481 139.94C194.65 139.886 189.059 139.295 183.703 138.169C178.345 137.037 173.733 135.905 169.865 134.767C168.98 137.099 168.041 139.403 167.037 141.681C166.032 143.962 164.969 146.21 163.845 148.434L147.285 140.733C148.467 138.686 149.452 136.667 150.236 134.671C151.024 132.67 151.729 130.755 152.363 128.918C145.479 126.112 138.816 122.881 132.369 119.213C130.621 118.271 128.015 116.829 124.55 114.888C121.088 112.945 117.279 110.583 113.126 107.8C108.974 105.015 104.982 101.848 101.141 98.2977C97.3014 94.7419 94.0637 90.815 91.4238 86.5149C88.7803 82.2103 87.2505 77.6119 86.8296 72.7236C86.41 67.8329 87.6345 62.6992 90.5009 57.3155L90.5056 57.3176ZM129.829 65.2818C127.659 63.9987 125.092 62.9198 122.13 62.0344C119.165 61.1504 116.317 60.8502 113.583 61.135C110.849 61.414 108.707 62.6477 107.16 64.8312C105.115 67.6983 104.799 70.7437 106.213 73.9625C107.626 77.178 110.164 80.4471 113.821 83.7668C117.481 87.0852 121.505 90.2665 125.895 93.3096C131.668 97.1276 137.407 100.514 143.105 103.466C148.802 106.414 152.916 108.463 155.453 109.608C155.343 99.8488 152.926 91.1369 148.203 83.4696C143.482 75.7999 137.358 69.7384 129.828 65.2784L129.829 65.2818Z" fill="#F6F5EA"/>
</svg>
