<svg width="470" height="313" viewBox="0 0 470 313" fill="none" xmlns="http://www.w3.org/2000/svg">
<path d="M129.678 286.92C117.281 275.926 109.692 264.108 106.915 251.464C104.127 238.819 105.449 226.315 110.88 213.94C116.311 201.575 124.711 190.066 136.095 179.399C147.473 168.736 160.851 159.878 176.22 152.843C199.693 142.409 226.215 135.916 255.777 133.329C285.336 130.756 313.564 133.301 340.468 140.979C345.842 142.429 351.212 143.979 356.623 145.66C362.001 147.331 367.271 149.248 372.414 151.38C376.561 146.858 381.842 140.623 388.268 132.676C394.678 124.724 400.496 116.156 405.732 106.963C410.953 97.7731 414.054 88.894 415.01 80.3192C415.966 71.7536 413.193 64.4669 406.693 58.4958C397.525 50.256 384.589 45.7307 367.864 44.919C351.144 44.1121 331.899 46.1894 310.143 51.1563C288.387 56.1141 265.379 63.3799 241.152 72.946C216.919 82.5164 192.708 93.5569 168.535 106.073C144.358 118.602 121.349 131.882 99.4919 145.924C77.6358 159.975 58.2996 174.145 41.4622 188.44L0.833628 153.888C27.1332 131.56 56.5784 110.559 89.18 90.8871C121.766 71.2188 155.088 54.1845 189.146 39.7842C204.54 33.2139 221.565 26.9019 240.196 20.8422C258.822 14.7868 277.941 9.81124 297.552 5.91541C317.154 2.03749 336.407 0.0706756 355.302 0.0420948C374.193 0.0178605 391.878 2.76756 408.353 8.28633C424.829 13.8143 439.19 22.8892 451.419 35.5147C462.757 47.3992 468.868 59.9756 469.752 73.2349C470.63 86.4984 468.375 99.6695 462.996 112.749C457.602 125.832 450.897 137.896 442.889 148.957C434.859 160.016 427.501 169.395 420.793 177.094C426.616 181.16 432.31 185.324 437.872 189.611C443.44 193.903 448.863 198.297 454.164 202.805L417.425 233.248C412.677 228.767 407.835 224.754 402.874 221.212C397.906 217.657 393.107 214.367 388.463 211.304C374.312 224.311 359.152 236.443 342.95 247.698C338.704 250.797 332.271 255.383 323.646 261.46C315.021 267.528 304.894 274.005 293.265 280.882C281.629 287.754 269.051 293.928 255.526 299.419C241.984 304.903 227.93 308.702 213.355 310.822C198.763 312.946 184.34 312.301 170.09 308.901C155.835 305.496 142.368 298.173 129.668 286.929L129.678 286.92ZM187.629 205.45C182.037 209.195 176.668 214.016 171.493 219.898C166.319 225.789 162.907 231.936 161.257 238.347C159.591 244.752 161.166 250.673 165.971 256.098C172.269 263.253 180.626 266.674 191.031 266.353C201.425 266.031 212.984 263.223 225.691 257.94C238.398 252.649 251.043 246.418 263.625 239.239C279.649 229.632 294.416 219.722 307.915 209.516C321.404 199.309 330.916 191.866 336.445 187.172C308.654 178.739 281.76 176.433 255.757 180.249C229.749 184.059 207.044 192.459 187.618 205.449L187.629 205.45Z" fill="#F6F5EA"/>
</svg>
