<svg width="125" height="179" viewBox="0 0 125 179" fill="none" xmlns="http://www.w3.org/2000/svg">
<path d="M116.649 126.247C112.708 131.223 108.338 134.381 103.535 135.72C98.7325 137.063 93.8866 136.833 88.9939 135.032C84.1048 133.229 79.475 130.275 75.0991 126.162C70.725 122.052 66.9985 117.138 63.9268 111.424C59.3552 102.69 56.2284 92.7045 54.5343 81.4721C52.8454 70.2411 53.1586 59.4056 55.4791 48.9626C55.9103 46.8785 56.3805 44.7938 56.8999 42.6905C57.416 40.6 58.0298 38.5454 58.7291 36.5342C56.8899 35.0503 54.3647 33.1707 51.1533 30.8915C47.9402 28.6187 44.5038 26.5855 40.8405 24.7881C37.179 22.9968 33.6871 22.0077 30.363 21.8315C27.0425 21.6548 24.3025 22.8742 22.157 25.4878C19.2011 29.17 17.7643 34.2094 17.8468 40.6142C17.9311 47.0167 19.1855 54.3205 21.6118 62.5191C24.0346 70.7182 27.3755 79.3444 31.631 88.3859C35.8882 97.4292 40.7109 106.432 46.1008 115.388C51.4961 124.345 57.1524 132.839 63.0753 140.877C69.0017 148.914 74.9138 155.986 80.8155 162.101L68.4722 178.377C59.254 168.825 50.4728 158.042 42.1285 146.025C33.7861 134.014 26.4404 121.664 20.0914 108.975C17.1981 103.241 14.3657 96.8784 11.5925 89.8971C8.82108 82.9176 6.45376 75.7261 4.49054 68.3227C2.53443 60.9225 1.32237 53.6135 0.865033 46.3985C0.409486 39.1854 1.05042 32.3712 2.78609 25.9583C4.52529 19.545 7.68008 13.8614 12.2523 8.91337C16.5603 4.32225 21.2581 1.71189 26.3423 1.08273C31.4283 0.455415 36.5527 1.02695 41.7156 2.79318C46.8803 4.56542 51.6838 6.86031 56.1314 9.67514C60.5791 12.4983 64.3642 15.1017 67.4869 17.4937C68.9145 15.1807 70.3835 12.9146 71.9026 10.6963C73.4234 8.47569 74.9874 6.30798 76.5979 4.18442L89.1869 17.5446C87.5736 19.4564 86.1429 21.3936 84.8966 23.3662C83.645 25.3415 82.4915 27.2466 81.4221 29.0872C86.7643 34.2051 91.7934 39.7275 96.5094 45.6668C97.803 47.2201 99.7206 49.5758 102.264 52.7356C104.804 55.8959 107.537 59.6207 110.46 63.9103C113.38 68.2023 116.055 72.8697 118.488 77.914C120.92 82.9648 122.714 88.2479 123.875 93.7672C125.037 99.2926 125.13 104.815 124.157 110.331C123.183 115.85 120.681 121.154 116.652 126.251L116.649 126.247ZM83.912 105.91C85.4861 107.962 87.4692 109.907 89.8561 111.753C92.2465 113.6 94.6936 114.768 97.201 115.257C99.7066 115.752 101.949 115.02 103.924 113.066C106.53 110.503 107.65 107.237 107.281 103.27C106.911 99.3082 105.557 94.9561 103.223 90.2196C100.886 85.4836 98.1878 80.7921 95.1263 76.1453C91.0492 70.2374 86.8846 64.8163 82.6362 59.8857C78.3877 54.9592 75.2972 51.4906 73.3593 49.4825C70.7692 60.2809 70.5166 70.6018 72.5997 80.4475C74.6811 90.2955 78.4518 98.7815 83.912 105.914L83.912 105.91Z" fill="#F6F5EA"/>
</svg>
