<svg width="120" height="69" viewBox="0 0 120 69" fill="none" xmlns="http://www.w3.org/2000/svg">
<path d="M18.7819 54.259C16.8722 50.5086 16.177 47.0015 16.6979 43.7369C17.2163 40.4713 18.6942 37.6143 21.1326 35.1636C23.5702 32.7152 26.6307 30.7416 30.3189 29.2412C34.0054 27.7413 37.9971 26.8539 42.2899 26.5821C48.8177 26.2414 55.6999 27.1173 62.9378 29.2013C70.1734 31.2881 76.6172 34.4723 82.2695 38.7576C83.4063 39.5937 84.5328 40.4533 85.6568 41.3478C86.774 42.2367 87.8426 43.1747 88.8614 44.1521C90.2642 43.4538 92.095 42.4515 94.3564 41.1461C96.6144 39.8379 98.7897 38.3289 100.886 36.618C102.977 34.9065 104.539 33.0754 105.564 31.1208C106.588 29.1684 106.611 27.1799 105.629 25.1644C104.227 22.365 101.587 20.106 97.7039 18.3852C93.822 16.6661 89.0733 15.4031 83.4615 14.5989C77.8503 13.7925 71.7278 13.4214 65.1024 13.4867C58.4752 13.5525 51.7163 13.9704 44.829 14.7431C37.9393 15.5186 31.2562 16.5794 24.7748 17.9271C18.2926 19.277 12.3959 20.8851 7.07894 22.7514L0.682342 10.8132C8.98735 7.89814 17.9131 5.58654 27.4622 3.87955C37.0072 2.17201 46.4809 1.15895 55.8836 0.840359C60.1391 0.681666 64.7569 0.733558 69.731 0.992121C74.7035 1.25125 79.6921 1.81251 84.6967 2.67591C89.6974 3.5427 94.4375 4.83271 98.9123 6.55159C103.385 8.27104 107.315 10.541 110.7 13.3598C114.085 16.1809 116.638 19.6534 118.356 23.7768C119.932 27.6423 120.207 31.1952 119.18 34.4333C118.152 37.672 116.391 40.6024 113.9 43.2257C111.404 45.8484 108.693 48.109 105.767 50.0113C102.836 51.9115 100.221 53.473 97.9157 54.6937C98.9151 56.1936 99.8748 57.7053 100.792 59.2341C101.71 60.7645 102.584 62.3063 103.418 63.864L91.8864 67.7579C91.1801 66.2571 90.4081 64.8593 89.5638 63.5628C88.7193 62.2625 87.89 61.0407 87.0763 59.8873C82.5151 61.6922 77.7966 63.1965 72.9134 64.3969C71.6197 64.7471 69.6698 65.2516 67.0623 65.9111C64.4555 66.5683 61.4552 67.1857 58.062 67.7612C54.6679 68.335 51.1156 68.6566 47.4028 68.7287C43.6866 68.798 40.0065 68.419 36.3593 67.5928C32.7079 66.766 29.3542 65.2951 26.2985 63.1841C23.2418 61.0713 20.7369 58.0975 18.7787 54.2602L18.7819 54.259ZM40.0887 40.1512C38.4163 40.5324 36.6963 41.1901 34.9235 42.1181C33.15 43.0484 31.7696 44.2004 30.7818 45.5764C29.7906 46.9495 29.6118 48.5032 30.2436 50.2339C31.0675 52.5128 32.7266 54.0909 35.2192 54.9647C37.7093 55.8373 40.7066 56.2242 44.2064 56.1269C47.7069 56.0274 51.2801 55.6985 54.9269 55.1379C59.6146 54.3139 64.0331 53.3026 68.1791 52.1051C72.3226 50.9065 75.2674 50.0028 77.0134 49.39C71.2214 44.8439 65.071 41.8385 58.5613 40.3723C52.0507 38.9043 45.894 38.831 40.0862 40.1501L40.0887 40.1512Z" fill="#F6F5EA"/>
</svg>
