<svg width="1100" height="279" viewBox="0 0 1100 279" fill="none" xmlns="http://www.w3.org/2000/svg">
<path d="M-4.0329 61.4484V1.56116H-18.3203V73.1926H19.1234V61.4525H-4.02885L-4.0329 61.4484Z" fill="#545454"/>
<path d="M63.7307 6.08879C59.6284 2.03502 54.2989 0.00610352 47.6493 0.00610352C40.9996 0.00610352 35.3867 2.03502 31.2398 6.08879C27.0443 10.098 24.9668 15.8972 24.9668 23.4418V51.312C24.9668 58.8081 27.0403 64.5627 31.2398 68.6165C35.3908 72.6257 40.8579 74.6546 47.6493 74.6546C51.5654 74.6546 55.1939 73.8042 58.543 72.1073C61.8922 70.4105 64.6257 67.8632 66.6992 64.4696C68.7726 61.0273 69.8134 56.6415 69.8134 51.312V23.4418C69.8134 15.8972 67.7845 10.098 63.7307 6.08879ZM55.5746 49.6638C55.5746 51.9276 55.3397 54.0496 54.8659 55.9368C54.3961 57.8685 53.6388 59.4277 52.4604 60.6507C51.3264 61.8291 49.7268 62.4407 47.6493 62.4407C44.3974 62.4407 42.1781 61.2622 40.9996 58.9053C39.8212 56.4997 39.2542 53.4341 39.2542 49.6638V25.0496C39.2542 22.7372 39.4446 20.6151 39.9143 18.6834C40.3841 16.7517 41.1859 15.148 42.3685 13.9695C43.5469 12.8397 45.1992 12.2241 47.3658 12.2241C49.5324 12.2241 51.1402 12.8356 52.3186 13.9695C53.4971 15.148 54.3475 16.7517 54.8173 18.6834C55.2871 20.6151 55.5705 22.7372 55.5705 25.0496V49.6638H55.5746Z" fill="#545454"/>
<path d="M117.491 42.2568C118.103 40.9851 118.621 39.8998 119.046 38.9077C119.516 37.9155 119.799 37.304 119.941 37.0205C121.354 33.8617 122.488 30.5126 123.29 27.0703C124.043 23.628 124.42 20.2789 124.376 17.0715C124.376 13.8196 123.857 10.9403 122.865 8.34846C121.921 5.80118 120.411 3.77228 118.386 2.26578C116.357 0.755236 113.717 0.0505778 110.465 0.0951247C106.832 0.188268 103.722 1.65022 101.175 4.52957C98.6274 7.36033 96.9306 11.1306 96.1287 15.8485C95.3755 19.9023 95.2783 24.0087 95.7966 28.1557C96.315 32.3066 97.3072 36.2672 98.8137 40.0375C100.276 43.7633 102.021 47.0638 104.001 49.846C103.483 50.7409 102.73 52.1097 101.738 53.8552C100.701 55.6006 99.5669 57.3906 98.2467 59.1846C96.9265 60.9746 95.5577 62.4365 94.0512 63.619C92.5407 64.7975 91.0342 65.2713 89.5722 64.9878C87.7337 64.6558 86.3203 63.1493 85.3767 60.4117C84.3845 57.6781 83.8216 54.0941 83.6313 49.7083C83.4896 45.3224 83.6799 40.4668 84.2428 35.1374C84.7611 29.8079 85.6116 24.434 86.7415 18.9142C87.8268 13.3985 89.147 8.21076 90.7507 3.25796L82.3111 0.382664C80.2376 6.79742 78.5367 13.2567 77.2165 19.8132C75.8477 26.3697 75.0013 32.6387 74.6207 38.6282C74.4303 41.3618 74.3372 44.2411 74.3858 47.3513C74.3858 50.4655 74.6207 53.5271 75.0945 56.5482C75.5642 59.5653 76.3215 62.3474 77.3583 64.8947C78.395 67.442 79.7638 69.564 81.5538 71.3095C83.2992 73.0063 85.563 74.0916 88.2966 74.4682C90.7021 74.8449 92.9659 74.5168 95.1325 73.4801C97.2545 72.4434 99.2835 70.9814 101.167 69.1429C103.054 67.3043 104.799 65.2754 106.306 63.1047C107.816 60.8895 109.136 58.8606 110.266 56.8803C112.814 59.2373 115.596 61.0313 118.661 62.2543L122.294 54.2358C120.783 53.5757 119.37 52.8225 118.098 51.8789C116.778 50.9839 115.6 49.9472 114.466 48.7647C114.798 48.056 115.219 47.1124 115.786 45.9339C116.353 44.7554 116.916 43.5284 117.483 42.2568H117.491ZM114.097 25.8918C113.437 28.7672 112.635 31.5048 111.692 34.052C110.748 36.6439 109.76 38.7214 108.719 40.3696C107.776 38.8145 106.974 36.737 106.221 34.0966C105.467 31.5048 104.949 28.7226 104.666 25.7015C104.382 22.729 104.431 19.9468 104.9 17.4036C105.042 16.6018 105.326 15.5651 105.751 14.1963C106.176 12.8274 106.788 11.6044 107.638 10.5191C108.488 9.43379 109.57 8.91542 110.939 9.00856C112.591 9.05716 113.721 9.90355 114.381 11.5558C115.041 13.1595 115.324 15.233 115.231 17.7802C115.138 20.3275 114.761 23.0611 114.097 25.8918Z" fill="#545454"/>
<path d="M166.157 13.3013V1.56116H128.762V73.1926H166.157V61.4525H143.005V41.8356H162.856V30.0955H143.005V13.3094H166.157V13.3013Z" fill="#545454"/>
<path d="M212.984 33.1084C214.964 29.8565 216.001 26.0821 216.001 21.7894C216.001 15.2815 214.348 10.2842 211.003 6.79329C207.703 3.30243 202.705 1.55701 196.056 1.55701H172.43V73.1884H186.673V42.6293H190.589C193.18 42.6293 195.209 43.2894 196.623 44.6096C196.999 44.9416 197.283 45.3628 197.566 45.8812C198.32 47.2014 198.696 49.04 198.696 51.3969V73.1844H212.984V50.5019C212.984 47.5294 212.182 45.0794 210.671 43.2408C209.302 41.5885 207.371 40.6489 204.917 40.41C204.633 40.3169 204.305 40.2683 203.973 40.2683V39.7499C207.934 38.5228 210.951 36.3076 212.98 33.1003L212.984 33.1084ZM194.31 30.7028H186.673V13.3984H194.31C196.574 13.3984 198.461 14.0585 199.968 15.3301C201.478 16.6503 202.232 18.821 202.232 21.7894C202.232 24.7579 201.478 27.0257 199.968 28.4836C198.457 29.9415 196.574 30.6988 194.31 30.6988V30.7028Z" fill="#545454"/>
<path d="M292.958 24.2435C291.78 24.2921 290.601 24.4338 289.423 24.527C289.188 22.5952 288.763 20.2828 288.244 17.691C287.677 15.0992 286.831 12.5033 285.746 9.91152C284.616 7.36424 283.15 5.14904 281.311 3.35502C279.521 1.51644 277.209 0.431119 274.378 0.103092C271.406 -0.228985 268.623 0.244834 266.08 1.4719C263.533 2.74351 261.225 4.53753 259.147 6.84587C257.074 9.20281 255.186 11.8918 253.534 14.8643C251.882 17.8814 250.42 20.947 249.148 24.1544C247.877 27.3618 246.791 30.3788 245.941 33.2541C244.054 39.5717 242.592 46.1768 241.555 53.0613C240.518 59.9944 240 66.6886 240 73.1965H249.007C249.007 69.0455 249.29 64.5665 249.857 59.8041C250.469 55.0416 251.27 50.2791 252.311 45.4681C253.348 40.6125 254.575 36.0363 256.037 31.6059C257.45 27.22 259.054 23.308 260.799 19.9103C262.589 16.468 264.432 13.779 266.364 11.8473C268.344 9.86697 270.373 8.92337 272.446 9.01652C273.957 9.06511 275.18 9.76977 276.221 11.1386C277.213 12.5074 278.011 14.2042 278.626 16.1845C279.286 18.1649 279.756 20.1452 280.088 22.0809C280.372 24.0612 280.607 25.6163 280.748 26.7948C279.898 27.1269 279.051 27.5035 278.25 27.9247C277.448 28.3499 276.646 28.7751 275.844 29.2449C271.883 31.4601 268.441 34.5743 265.517 38.6281C262.593 42.6373 260.471 46.8814 259.244 51.3118C258.491 54.2357 258.159 57.2082 258.252 60.1766C258.394 63.1005 258.961 65.8341 259.998 68.3328C260.99 70.7869 262.496 72.7672 264.432 74.2737C266.368 75.7802 268.769 76.5375 271.551 76.6306C274.427 76.6792 276.881 76.0637 278.91 74.7921C280.89 73.5205 282.587 71.8196 283.907 69.7461C285.276 67.6241 286.313 65.3117 287.114 62.813C287.868 60.3589 288.483 57.9088 288.86 55.4547C289.237 53.0005 289.52 50.8339 289.71 48.8536C289.852 46.9219 289.945 45.46 290.042 44.4678C290.374 40.8352 290.468 37.158 290.326 33.5254C291.221 33.3837 292.213 33.2906 293.201 33.1934C294.238 33.1002 295.275 33.0516 296.409 33.1447L296.502 24.1382C295.323 24.1382 294.145 24.1868 292.966 24.2313L292.958 24.2435ZM281.169 43.2488C281.028 46.4076 280.7 49.6636 280.181 53.0572C279.712 55.6977 279.096 58.1518 278.391 60.5087C277.683 62.8211 276.788 64.7042 275.658 66.0244C274.572 67.3446 273.204 67.9116 271.555 67.6281C270.328 67.4378 269.385 66.7777 268.725 65.6478C268.065 64.4693 267.639 63.1491 267.453 61.6872C267.263 60.1766 267.218 58.8119 267.36 57.5848C267.83 53.2476 269.247 49.2384 271.604 45.464C274.01 41.6897 277.261 38.6726 281.412 36.4574C281.412 37.8262 281.364 40.09 281.178 43.2488H281.169Z" fill="#545454"/>
<path d="M342.474 33.1084C344.503 29.8565 345.54 26.0821 345.54 21.7894C345.54 15.2815 343.843 10.2842 340.542 6.79329C337.242 3.30243 332.244 1.55701 325.595 1.55701H301.969V73.1884H316.212V42.6293H320.128C322.72 42.6293 324.748 43.2894 326.117 44.6096C327.531 45.9298 328.239 48.1936 328.239 51.401V73.1884H342.482V50.506C342.482 47.5335 341.729 45.0834 340.218 43.2448C338.663 41.4062 336.444 40.4141 333.524 40.2723V39.754C337.485 38.5269 340.502 36.3117 342.482 33.1043L342.474 33.1084ZM329.507 28.4876C327.996 29.9496 326.113 30.7028 323.849 30.7028H316.212V13.3984H323.849C326.113 13.3984 328 14.0585 329.507 15.3301C331.017 16.6503 331.771 18.821 331.771 21.7894C331.771 24.7579 331.017 27.0257 329.507 28.4836V28.4876Z" fill="#545454"/>
<path d="M348.557 1.56116V13.3013H364.873V73.1885H379.116V13.3013H395.339V1.56116H348.561H348.557Z" fill="#545454"/>
<path d="M437.967 61.4484V1.56116H423.68V73.1926H461.123V61.4525H437.971L437.967 61.4484Z" fill="#545454"/>
<path d="M505.731 6.08879C501.628 2.03502 496.299 0.00610352 489.649 0.00610352C483 0.00610352 477.387 2.03502 473.24 6.08879C469.044 10.098 466.967 15.8972 466.967 23.4418V51.312C466.967 58.8081 469.04 64.5627 473.24 68.6165C477.391 72.6257 482.858 74.6546 489.649 74.6546C493.565 74.6546 497.194 73.8042 500.543 72.1073C503.892 70.4105 506.626 67.8632 508.699 64.4696C510.773 61.0273 511.813 56.6415 511.813 51.312V23.4418C511.813 15.8972 509.785 10.098 505.731 6.08879ZM497.575 49.6638C497.575 51.9276 497.34 54.0496 496.866 55.9368C496.396 57.8685 495.639 59.4277 494.46 60.6507C493.326 61.8291 491.727 62.4407 489.649 62.4407C486.397 62.4407 484.178 61.2622 483 58.9053C481.821 56.4997 481.254 53.4341 481.254 49.6638V25.0496C481.254 22.7372 481.445 20.6151 481.914 18.6834C482.384 16.7517 483.186 15.148 484.368 13.9695C485.547 12.8397 487.199 12.2241 489.366 12.2241C491.532 12.2241 493.14 12.8356 494.319 13.9695C495.497 15.148 496.348 16.7517 496.817 18.6834C497.287 20.6151 497.571 22.7372 497.571 25.0496V49.6638H497.575Z" fill="#545454"/>
<path d="M559.491 42.2568C560.103 40.9851 560.621 39.8998 561.046 38.9077C561.516 37.9155 561.799 37.304 561.941 37.0205C563.354 33.8617 564.488 30.5126 565.29 27.0703C566.043 23.628 566.42 20.2789 566.376 17.0715C566.376 13.8196 565.857 10.9403 564.865 8.34846C563.921 5.80118 562.411 3.77228 560.386 2.26578C558.357 0.755236 555.717 0.0505778 552.465 0.0951247C548.832 0.188268 545.722 1.65022 543.175 4.52957C540.627 7.36033 538.931 11.1306 538.129 15.8485C537.375 19.9023 537.278 24.0087 537.797 28.1557C538.315 32.3066 539.307 36.2672 540.814 40.0375C542.276 43.7633 544.021 47.0638 546.001 49.846C545.483 50.7409 544.73 52.1097 543.738 53.8552C542.701 55.6006 541.567 57.3906 540.247 59.1846C538.927 60.9746 537.558 62.4365 536.051 63.619C534.541 64.7975 533.034 65.2713 531.572 64.9878C529.734 64.6558 528.32 63.1493 527.377 60.4117C526.385 57.6781 525.822 54.0941 525.631 49.7083C525.49 45.3224 525.68 40.4668 526.243 35.1374C526.761 29.8079 527.612 24.434 528.741 18.9142C529.827 13.3985 531.147 8.21076 532.751 3.25796L524.311 0.382664C522.238 6.79742 520.537 13.2567 519.217 19.8132C517.848 26.3697 517.001 32.6387 516.621 38.6282C516.43 41.3618 516.337 44.2411 516.386 47.3513C516.386 50.4655 516.621 53.5271 517.094 56.5482C517.564 59.5653 518.322 62.3474 519.358 64.8947C520.395 67.442 521.764 69.564 523.554 71.3095C525.299 73.0063 527.563 74.0916 530.297 74.4682C532.702 74.8449 534.966 74.5168 537.132 73.4801C539.255 72.4434 541.283 70.9814 543.167 69.1429C545.054 67.3043 546.799 65.2754 548.306 63.1047C549.816 60.8895 551.136 58.8606 552.266 56.8803C554.814 59.2373 557.596 61.0313 560.661 62.2543L564.294 54.2358C562.783 53.5757 561.37 52.8225 560.098 51.8789C558.778 50.9839 557.6 49.9472 556.466 48.7647C556.798 48.056 557.219 47.1124 557.786 45.9339C558.353 44.7554 558.916 43.5284 559.483 42.2568H559.491ZM556.097 25.8918C555.437 28.7672 554.635 31.5048 553.692 34.052C552.748 36.6439 551.76 38.7214 550.719 40.3696C549.776 38.8145 548.974 36.737 548.221 34.0966C547.467 31.5048 546.949 28.7226 546.666 25.7015C546.382 22.729 546.431 19.9468 546.9 17.4036C547.042 16.6018 547.326 15.5651 547.751 14.1963C548.176 12.8274 548.788 11.6044 549.638 10.5191C550.488 9.43379 551.57 8.91542 552.939 9.00856C554.591 9.05716 555.721 9.90355 556.381 11.5558C557.041 13.1595 557.324 15.233 557.231 17.7802C557.138 20.3275 556.761 23.0611 556.097 25.8918Z" fill="#545454"/>
<path d="M608.157 13.3013V1.56116H570.762V73.1926H608.157V61.4525H585.005V41.8356H604.856V30.0955H585.005V13.3094H608.157V13.3013Z" fill="#545454"/>
<path d="M654.984 33.1084C656.964 29.8565 658.001 26.0821 658.001 21.7894C658.001 15.2815 656.348 10.2842 653.003 6.79329C649.703 3.30243 644.705 1.55701 638.056 1.55701H614.43V73.1884H628.673V42.6293H632.589C635.18 42.6293 637.209 43.2894 638.623 44.6096C638.999 44.9416 639.283 45.3628 639.566 45.8812C640.32 47.2014 640.696 49.04 640.696 51.3969V73.1844H654.984V50.5019C654.984 47.5294 654.182 45.0794 652.671 43.2408C651.302 41.5885 649.371 40.6489 646.917 40.41C646.633 40.3169 646.305 40.2683 645.973 40.2683V39.7499C649.934 38.5228 652.951 36.3076 654.98 33.1003L654.984 33.1084ZM636.31 30.7028H628.673V13.3984H636.31C638.574 13.3984 640.461 14.0585 641.968 15.3301C643.478 16.6503 644.232 18.821 644.232 21.7894C644.232 24.7579 643.478 27.0257 641.968 28.4836C640.457 29.9415 638.574 30.6988 636.31 30.6988V30.7028Z" fill="#545454"/>
<path d="M734.958 24.2435C733.78 24.2921 732.601 24.4338 731.423 24.527C731.188 22.5952 730.763 20.2828 730.244 17.691C729.677 15.0992 728.831 12.5033 727.746 9.91152C726.616 7.36424 725.15 5.14904 723.311 3.35502C721.521 1.51644 719.209 0.431119 716.378 0.103092C713.406 -0.228985 710.623 0.244834 708.08 1.4719C705.533 2.74351 703.225 4.53753 701.147 6.84587C699.074 9.20281 697.186 11.8918 695.534 14.8643C693.882 17.8814 692.42 20.947 691.148 24.1544C689.877 27.3618 688.791 30.3788 687.941 33.2541C686.054 39.5717 684.592 46.1768 683.555 53.0613C682.518 59.9944 682 66.6886 682 73.1965H691.007C691.007 69.0455 691.29 64.5665 691.857 59.8041C692.469 55.0416 693.27 50.2791 694.311 45.4681C695.348 40.6125 696.575 36.0363 698.037 31.6059C699.45 27.22 701.054 23.308 702.799 19.9103C704.589 16.468 706.432 13.779 708.364 11.8473C710.344 9.86697 712.373 8.92337 714.446 9.01652C715.957 9.06511 717.18 9.76977 718.221 11.1386C719.213 12.5074 720.011 14.2042 720.626 16.1845C721.286 18.1649 721.756 20.1452 722.088 22.0809C722.372 24.0612 722.607 25.6163 722.748 26.7948C721.898 27.1269 721.051 27.5035 720.25 27.9247C719.448 28.3499 718.646 28.7751 717.844 29.2449C713.883 31.4601 710.441 34.5743 707.517 38.6281C704.593 42.6373 702.471 46.8814 701.244 51.3118C700.491 54.2357 700.159 57.2082 700.252 60.1766C700.394 63.1005 700.961 65.8341 701.998 68.3328C702.99 70.7869 704.496 72.7672 706.432 74.2737C708.368 75.7802 710.769 76.5375 713.551 76.6306C716.427 76.6792 718.881 76.0637 720.91 74.7921C722.89 73.5205 724.587 71.8196 725.907 69.7461C727.276 67.6241 728.313 65.3117 729.114 62.813C729.868 60.3589 730.483 57.9088 730.86 55.4547C731.237 53.0005 731.52 50.8339 731.71 48.8536C731.852 46.9219 731.945 45.46 732.042 44.4678C732.374 40.8352 732.468 37.158 732.326 33.5254C733.221 33.3837 734.213 33.2906 735.201 33.1934C736.238 33.1002 737.275 33.0516 738.409 33.1447L738.502 24.1382C737.323 24.1382 736.145 24.1868 734.966 24.2313L734.958 24.2435ZM723.169 43.2488C723.028 46.4076 722.7 49.6636 722.181 53.0572C721.712 55.6977 721.096 58.1518 720.391 60.5087C719.683 62.8211 718.788 64.7042 717.658 66.0244C716.572 67.3446 715.204 67.9116 713.555 67.6281C712.328 67.4378 711.385 66.7777 710.725 65.6478C710.065 64.4693 709.639 63.1491 709.453 61.6872C709.263 60.1766 709.218 58.8119 709.36 57.5848C709.83 53.2476 711.247 49.2384 713.604 45.464C716.01 41.6897 719.261 38.6726 723.412 36.4574C723.412 37.8262 723.364 40.09 723.178 43.2488H723.169Z" fill="#545454"/>
<path d="M784.474 33.1084C786.503 29.8565 787.54 26.0821 787.54 21.7894C787.54 15.2815 785.843 10.2842 782.542 6.79329C779.242 3.30243 774.244 1.55701 767.595 1.55701H743.969V73.1884H758.212V42.6293H762.128C764.72 42.6293 766.748 43.2894 768.117 44.6096C769.531 45.9298 770.239 48.1936 770.239 51.401V73.1884H784.482V50.506C784.482 47.5335 783.729 45.0834 782.218 43.2448C780.663 41.4062 778.444 40.4141 775.524 40.2723V39.754C779.485 38.5269 782.502 36.3117 784.482 33.1043L784.474 33.1084ZM771.507 28.4876C769.996 29.9496 768.113 30.7028 765.849 30.7028H758.212V13.3984H765.849C768.113 13.3984 770 14.0585 771.507 15.3301C773.017 16.6503 773.771 18.821 773.771 21.7894C773.771 24.7579 773.017 27.0257 771.507 28.4836V28.4876Z" fill="#545454"/>
<path d="M790.557 1.56116V13.3013H806.873V73.1885H821.116V13.3013H837.339V1.56116H790.561H790.557Z" fill="#545454"/>
<path d="M879.967 61.4484V1.56116H865.68V73.1926H903.123V61.4525H879.971L879.967 61.4484Z" fill="#545454"/>
<path d="M947.731 6.08879C943.628 2.03502 938.299 0.00610352 931.649 0.00610352C925 0.00610352 919.387 2.03502 915.24 6.08879C911.044 10.098 908.967 15.8972 908.967 23.4418V51.312C908.967 58.8081 911.04 64.5627 915.24 68.6165C919.391 72.6257 924.858 74.6546 931.649 74.6546C935.565 74.6546 939.194 73.8042 942.543 72.1073C945.892 70.4105 948.626 67.8632 950.699 64.4696C952.773 61.0273 953.813 56.6415 953.813 51.312V23.4418C953.813 15.8972 951.785 10.098 947.731 6.08879ZM939.575 49.6638C939.575 51.9276 939.34 54.0496 938.866 55.9368C938.396 57.8685 937.639 59.4277 936.46 60.6507C935.326 61.8291 933.727 62.4407 931.649 62.4407C928.397 62.4407 926.178 61.2622 925 58.9053C923.821 56.4997 923.254 53.4341 923.254 49.6638V25.0496C923.254 22.7372 923.445 20.6151 923.914 18.6834C924.384 16.7517 925.186 15.148 926.368 13.9695C927.547 12.8397 929.199 12.2241 931.366 12.2241C933.532 12.2241 935.14 12.8356 936.319 13.9695C937.497 15.148 938.348 16.7517 938.817 18.6834C939.287 20.6151 939.571 22.7372 939.571 25.0496V49.6638H939.575Z" fill="#545454"/>
<path d="M1001.49 42.2568C1002.1 40.9851 1002.62 39.8998 1003.05 38.9077C1003.52 37.9155 1003.8 37.304 1003.94 37.0205C1005.35 33.8617 1006.49 30.5126 1007.29 27.0703C1008.04 23.628 1008.42 20.2789 1008.38 17.0715C1008.38 13.8196 1007.86 10.9403 1006.86 8.34846C1005.92 5.80118 1004.41 3.77228 1002.39 2.26578C1000.36 0.755236 997.717 0.0505778 994.465 0.0951247C990.832 0.188268 987.722 1.65022 985.175 4.52957C982.627 7.36033 980.931 11.1306 980.129 15.8485C979.375 19.9023 979.278 24.0087 979.797 28.1557C980.315 32.3066 981.307 36.2672 982.814 40.0375C984.276 43.7633 986.021 47.0638 988.001 49.846C987.483 50.7409 986.73 52.1097 985.738 53.8552C984.701 55.6006 983.567 57.3906 982.247 59.1846C980.927 60.9746 979.558 62.4365 978.051 63.619C976.541 64.7975 975.034 65.2713 973.572 64.9878C971.734 64.6558 970.32 63.1493 969.377 60.4117C968.385 57.6781 967.822 54.0941 967.631 49.7083C967.49 45.3224 967.68 40.4668 968.243 35.1374C968.761 29.8079 969.612 24.434 970.741 18.9142C971.827 13.3985 973.147 8.21076 974.751 3.25796L966.311 0.382664C964.238 6.79742 962.537 13.2567 961.217 19.8132C959.848 26.3697 959.001 32.6387 958.621 38.6282C958.43 41.3618 958.337 44.2411 958.386 47.3513C958.386 50.4655 958.621 53.5271 959.094 56.5482C959.564 59.5653 960.322 62.3474 961.358 64.8947C962.395 67.442 963.764 69.564 965.554 71.3095C967.299 73.0063 969.563 74.0916 972.297 74.4682C974.702 74.8449 976.966 74.5168 979.132 73.4801C981.255 72.4434 983.283 70.9814 985.167 69.1429C987.054 67.3043 988.799 65.2754 990.306 63.1047C991.816 60.8895 993.136 58.8606 994.266 56.8803C996.814 59.2373 999.596 61.0313 1002.66 62.2543L1006.29 54.2358C1004.78 53.5757 1003.37 52.8225 1002.1 51.8789C1000.78 50.9839 999.6 49.9472 998.466 48.7647C998.798 48.056 999.219 47.1124 999.786 45.9339C1000.35 44.7554 1000.92 43.5284 1001.48 42.2568H1001.49ZM998.097 25.8918C997.437 28.7672 996.635 31.5048 995.692 34.052C994.748 36.6439 993.76 38.7214 992.719 40.3696C991.776 38.8145 990.974 36.737 990.221 34.0966C989.467 31.5048 988.949 28.7226 988.666 25.7015C988.382 22.729 988.431 19.9468 988.9 17.4036C989.042 16.6018 989.326 15.5651 989.751 14.1963C990.176 12.8274 990.788 11.6044 991.638 10.5191C992.488 9.43379 993.57 8.91542 994.939 9.00856C996.591 9.05716 997.721 9.90355 998.381 11.5558C999.041 13.1595 999.324 15.233 999.231 17.7802C999.138 20.3275 998.761 23.0611 998.097 25.8918Z" fill="#545454"/>
<path d="M1050.16 13.3013V1.56116H1012.76V73.1926H1050.16V61.4525H1027V41.8356H1046.86V30.0955H1027V13.3094H1050.16V13.3013Z" fill="#545454"/>
<path d="M1096.98 33.1084C1098.96 29.8565 1100 26.0821 1100 21.7894C1100 15.2815 1098.35 10.2842 1095 6.79329C1091.7 3.30243 1086.71 1.55701 1080.06 1.55701H1056.43V73.1884H1070.67V42.6293H1074.59C1077.18 42.6293 1079.21 43.2894 1080.62 44.6096C1081 44.9416 1081.28 45.3628 1081.57 45.8812C1082.32 47.2014 1082.7 49.04 1082.7 51.3969V73.1844H1096.98V50.5019C1096.98 47.5294 1096.18 45.0794 1094.67 43.2408C1093.3 41.5885 1091.37 40.6489 1088.92 40.41C1088.63 40.3169 1088.31 40.2683 1087.97 40.2683V39.7499C1091.93 38.5228 1094.95 36.3076 1096.98 33.1003L1096.98 33.1084ZM1078.31 30.7028H1070.67V13.3984H1078.31C1080.57 13.3984 1082.46 14.0585 1083.97 15.3301C1085.48 16.6503 1086.23 18.821 1086.23 21.7894C1086.23 24.7579 1085.48 27.0257 1083.97 28.4836C1082.46 29.9415 1080.57 30.6988 1078.31 30.6988V30.7028Z" fill="#545454"/>
<path d="M-45.4434 102.561V114.301H-29.127V174.189H-14.8842V114.301H1.33902V102.561H-45.4393H-45.4434Z" fill="#545454"/>
<path d="M43.9671 162.448V102.561H29.6797V174.193H67.1234V162.452H43.9712L43.9671 162.448Z" fill="#545454"/>
<path d="M111.731 107.089C107.628 103.035 102.299 101.006 95.6493 101.006C88.9996 101.006 83.3867 103.035 79.2398 107.089C75.0443 111.098 72.9668 116.897 72.9668 124.442V152.312C72.9668 159.808 75.0403 165.563 79.2398 169.616C83.3908 173.626 88.8579 175.655 95.6493 175.655C99.5654 175.655 103.194 174.804 106.543 173.107C109.892 171.41 112.626 168.863 114.699 165.47C116.773 162.027 117.813 157.641 117.813 152.312V124.442C117.813 116.897 115.785 111.098 111.731 107.089ZM103.575 150.664C103.575 152.928 103.34 155.05 102.866 156.937C102.396 158.869 101.639 160.428 100.46 161.651C99.3264 162.829 97.7268 163.441 95.6493 163.441C92.3974 163.441 90.1781 162.262 88.9996 159.905C87.8212 157.5 87.2542 154.434 87.2542 150.664V126.05C87.2542 123.737 87.4446 121.615 87.9143 119.683C88.3841 117.752 89.1859 116.148 90.3685 114.97C91.5469 113.84 93.1992 113.224 95.3658 113.224C97.5324 113.224 99.1402 113.836 100.319 114.97C101.497 116.148 102.348 117.752 102.817 119.683C103.287 121.615 103.571 123.737 103.571 126.05V150.664H103.575Z" fill="#545454"/>
<path d="M165.491 143.257C166.103 141.985 166.621 140.9 167.046 139.908C167.516 138.915 167.799 138.304 167.941 138.02C169.354 134.862 170.488 131.513 171.29 128.07C172.043 124.628 172.42 121.279 172.376 118.072C172.376 114.82 171.857 111.94 170.865 109.348C169.921 106.801 168.411 104.772 166.386 103.266C164.357 101.755 161.717 101.051 158.465 101.095C154.832 101.188 151.722 102.65 149.175 105.53C146.627 108.36 144.931 112.131 144.129 116.849C143.375 120.902 143.278 125.009 143.797 129.156C144.315 133.307 145.307 137.267 146.814 141.038C148.276 144.763 150.021 148.064 152.001 150.846C151.483 151.741 150.73 153.11 149.738 154.855C148.701 156.601 147.567 158.391 146.247 160.185C144.927 161.975 143.558 163.437 142.051 164.619C140.541 165.798 139.034 166.271 137.572 165.988C135.734 165.656 134.32 164.149 133.377 161.412C132.385 158.678 131.822 155.094 131.631 150.708C131.49 146.322 131.68 141.467 132.243 136.137C132.761 130.808 133.612 125.434 134.741 119.914C135.827 114.398 137.147 109.211 138.751 104.258L130.311 101.383C128.238 107.797 126.537 114.257 125.217 120.813C123.848 127.37 123.001 133.639 122.621 139.628C122.43 142.362 122.337 145.241 122.386 148.351C122.386 151.466 122.621 154.527 123.094 157.548C123.564 160.565 124.322 163.347 125.358 165.895C126.395 168.442 127.764 170.564 129.554 172.309C131.299 174.006 133.563 175.092 136.297 175.468C138.702 175.845 140.966 175.517 143.132 174.48C145.255 173.443 147.283 171.981 149.167 170.143C151.054 168.304 152.799 166.275 154.306 164.105C155.816 161.89 157.136 159.861 158.266 157.88C160.814 160.237 163.596 162.031 166.661 163.254L170.294 155.236C168.783 154.576 167.37 153.822 166.098 152.879C164.778 151.984 163.6 150.947 162.466 149.765C162.798 149.056 163.219 148.112 163.786 146.934C164.353 145.755 164.916 144.528 165.483 143.257H165.491ZM162.097 126.892C161.437 129.767 160.635 132.505 159.692 135.052C158.748 137.644 157.76 139.721 156.719 141.37C155.776 139.815 154.974 137.737 154.221 135.097C153.467 132.505 152.949 129.723 152.666 126.702C152.382 123.729 152.431 120.947 152.9 118.404C153.042 117.602 153.326 116.565 153.751 115.196C154.176 113.827 154.788 112.604 155.638 111.519C156.488 110.434 157.57 109.915 158.939 110.009C160.591 110.057 161.721 110.904 162.381 112.556C163.041 114.16 163.324 116.233 163.231 118.78C163.138 121.328 162.761 124.061 162.097 126.892Z" fill="#545454"/>
<path d="M214.157 114.301V102.561H176.762V174.193H214.157V162.452H191.005V142.836H210.856V131.095H191.005V114.309H214.157V114.301Z" fill="#545454"/>
<path d="M260.984 134.108C262.964 130.856 264.001 127.082 264.001 122.789C264.001 116.282 262.348 111.284 259.003 107.793C255.703 104.302 250.705 102.557 244.056 102.557H220.43V174.188H234.673V143.629H238.589C241.18 143.629 243.209 144.289 244.623 145.61C244.999 145.942 245.283 146.363 245.566 146.881C246.32 148.201 246.696 150.04 246.696 152.397V174.184H260.984V151.502C260.984 148.529 260.182 146.079 258.671 144.241C257.302 142.589 255.371 141.649 252.917 141.41C252.633 141.317 252.305 141.268 251.973 141.268V140.75C255.934 139.523 258.951 137.308 260.98 134.1L260.984 134.108ZM242.31 131.703H234.673V114.398H242.31C244.574 114.398 246.461 115.058 247.968 116.33C249.478 117.65 250.232 119.821 250.232 122.789C250.232 125.758 249.478 128.026 247.968 129.484C246.457 130.942 244.574 131.699 242.31 131.699V131.703Z" fill="#545454"/>
<path d="M340.958 125.243C339.78 125.292 338.601 125.434 337.423 125.527C337.188 123.595 336.763 121.283 336.244 118.691C335.677 116.099 334.831 113.503 333.746 110.912C332.616 108.364 331.15 106.149 329.311 104.355C327.521 102.516 325.209 101.431 322.378 101.103C319.406 100.771 316.623 101.245 314.08 102.472C311.533 103.744 309.225 105.538 307.147 107.846C305.074 110.203 303.186 112.892 301.534 115.864C299.882 118.881 298.42 121.947 297.148 125.154C295.877 128.362 294.791 131.379 293.941 134.254C292.054 140.572 290.592 147.177 289.555 154.061C288.518 160.994 288 167.689 288 174.196H297.007C297.007 170.046 297.29 165.567 297.857 160.804C298.469 156.042 299.27 151.279 300.311 146.468C301.348 141.612 302.575 137.036 304.037 132.606C305.45 128.22 307.054 124.308 308.799 120.91C310.589 117.468 312.432 114.779 314.364 112.847C316.344 110.867 318.373 109.923 320.446 110.017C321.957 110.065 323.18 110.77 324.221 112.139C325.213 113.507 326.011 115.204 326.626 117.185C327.286 119.165 327.756 121.145 328.088 123.081C328.372 125.061 328.607 126.616 328.748 127.795C327.898 128.127 327.051 128.504 326.25 128.925C325.448 129.35 324.646 129.775 323.844 130.245C319.883 132.46 316.441 135.574 313.517 139.628C310.593 143.637 308.471 147.881 307.244 152.312C306.491 155.236 306.159 158.208 306.252 161.177C306.394 164.101 306.961 166.834 307.998 169.333C308.99 171.787 310.496 173.767 312.432 175.274C314.368 176.78 316.769 177.538 319.551 177.631C322.427 177.679 324.881 177.064 326.91 175.792C328.89 174.52 330.587 172.82 331.907 170.746C333.276 168.624 334.313 166.312 335.114 163.813C335.868 161.359 336.483 158.909 336.86 156.455C337.237 154.001 337.52 151.834 337.71 149.854C337.852 147.922 337.945 146.46 338.042 145.468C338.374 141.835 338.468 138.158 338.326 134.525C339.221 134.384 340.213 134.291 341.201 134.193C342.238 134.1 343.275 134.052 344.409 134.145L344.502 125.138C343.323 125.138 342.145 125.187 340.966 125.231L340.958 125.243ZM329.169 144.249C329.028 147.408 328.7 150.664 328.181 154.057C327.712 156.698 327.096 159.152 326.391 161.509C325.683 163.821 324.788 165.704 323.658 167.024C322.572 168.345 321.204 168.912 319.555 168.628C318.328 168.438 317.385 167.778 316.725 166.648C316.065 165.469 315.639 164.149 315.453 162.687C315.263 161.177 315.218 159.812 315.36 158.585C315.83 154.248 317.247 150.238 319.604 146.464C322.01 142.69 325.261 139.673 329.412 137.457C329.412 138.826 329.364 141.09 329.178 144.249H329.169Z" fill="#545454"/>
<path d="M390.474 134.108C392.503 130.856 393.54 127.082 393.54 122.789C393.54 116.282 391.843 111.284 388.542 107.793C385.242 104.302 380.244 102.557 373.595 102.557H349.969V174.188H364.212V143.629H368.128C370.72 143.629 372.748 144.289 374.117 145.61C375.531 146.93 376.239 149.194 376.239 152.401V174.188H390.482V151.506C390.482 148.533 389.729 146.083 388.218 144.245C386.663 142.406 384.444 141.414 381.524 141.272V140.754C385.485 139.527 388.502 137.312 390.482 134.104L390.474 134.108ZM377.507 129.488C375.996 130.95 374.113 131.703 371.849 131.703H364.212V114.398H371.849C374.113 114.398 376 115.058 377.507 116.33C379.017 117.65 379.771 119.821 379.771 122.789C379.771 125.758 379.017 128.026 377.507 129.484V129.488Z" fill="#545454"/>
<path d="M396.557 102.561V114.301H412.873V174.189H427.116V114.301H443.339V102.561H396.561H396.557Z" fill="#545454"/>
<path d="M485.967 162.448V102.561H471.68V174.193H509.123V162.452H485.971L485.967 162.448Z" fill="#545454"/>
<path d="M553.731 107.089C549.628 103.035 544.299 101.006 537.649 101.006C531 101.006 525.387 103.035 521.24 107.089C517.044 111.098 514.967 116.897 514.967 124.442V152.312C514.967 159.808 517.04 165.563 521.24 169.616C525.391 173.626 530.858 175.655 537.649 175.655C541.565 175.655 545.194 174.804 548.543 173.107C551.892 171.41 554.626 168.863 556.699 165.47C558.773 162.027 559.813 157.641 559.813 152.312V124.442C559.813 116.897 557.785 111.098 553.731 107.089ZM545.575 150.664C545.575 152.928 545.34 155.05 544.866 156.937C544.396 158.869 543.639 160.428 542.46 161.651C541.326 162.829 539.727 163.441 537.649 163.441C534.397 163.441 532.178 162.262 531 159.905C529.821 157.5 529.254 154.434 529.254 150.664V126.05C529.254 123.737 529.445 121.615 529.914 119.683C530.384 117.752 531.186 116.148 532.368 114.97C533.547 113.84 535.199 113.224 537.366 113.224C539.532 113.224 541.14 113.836 542.319 114.97C543.497 116.148 544.348 117.752 544.817 119.683C545.287 121.615 545.571 123.737 545.571 126.05V150.664H545.575Z" fill="#545454"/>
<path d="M607.491 143.257C608.103 141.985 608.621 140.9 609.046 139.908C609.516 138.915 609.799 138.304 609.941 138.02C611.354 134.862 612.488 131.513 613.29 128.07C614.043 124.628 614.42 121.279 614.376 118.072C614.376 114.82 613.857 111.94 612.865 109.348C611.921 106.801 610.411 104.772 608.386 103.266C606.357 101.755 603.717 101.051 600.465 101.095C596.832 101.188 593.722 102.65 591.175 105.53C588.627 108.36 586.931 112.131 586.129 116.849C585.375 120.902 585.278 125.009 585.797 129.156C586.315 133.307 587.307 137.267 588.814 141.038C590.276 144.763 592.021 148.064 594.001 150.846C593.483 151.741 592.73 153.11 591.738 154.855C590.701 156.601 589.567 158.391 588.247 160.185C586.927 161.975 585.558 163.437 584.051 164.619C582.541 165.798 581.034 166.271 579.572 165.988C577.734 165.656 576.32 164.149 575.377 161.412C574.385 158.678 573.822 155.094 573.631 150.708C573.49 146.322 573.68 141.467 574.243 136.137C574.761 130.808 575.612 125.434 576.741 119.914C577.827 114.398 579.147 109.211 580.751 104.258L572.311 101.383C570.238 107.797 568.537 114.257 567.217 120.813C565.848 127.37 565.001 133.639 564.621 139.628C564.43 142.362 564.337 145.241 564.386 148.351C564.386 151.466 564.621 154.527 565.094 157.548C565.564 160.565 566.322 163.347 567.358 165.895C568.395 168.442 569.764 170.564 571.554 172.309C573.299 174.006 575.563 175.092 578.297 175.468C580.702 175.845 582.966 175.517 585.132 174.48C587.255 173.443 589.283 171.981 591.167 170.143C593.054 168.304 594.799 166.275 596.306 164.105C597.816 161.89 599.136 159.861 600.266 157.88C602.814 160.237 605.596 162.031 608.661 163.254L612.294 155.236C610.783 154.576 609.37 153.822 608.098 152.879C606.778 151.984 605.6 150.947 604.466 149.765C604.798 149.056 605.219 148.112 605.786 146.934C606.353 145.755 606.916 144.528 607.483 143.257H607.491ZM604.097 126.892C603.437 129.767 602.635 132.505 601.692 135.052C600.748 137.644 599.76 139.721 598.719 141.37C597.776 139.815 596.974 137.737 596.221 135.097C595.467 132.505 594.949 129.723 594.666 126.702C594.382 123.729 594.431 120.947 594.9 118.404C595.042 117.602 595.326 116.565 595.751 115.196C596.176 113.827 596.788 112.604 597.638 111.519C598.488 110.434 599.57 109.915 600.939 110.009C602.591 110.057 603.721 110.904 604.381 112.556C605.041 114.16 605.324 116.233 605.231 118.78C605.138 121.328 604.761 124.061 604.097 126.892Z" fill="#545454"/>
<path d="M656.157 114.301V102.561H618.762V174.193H656.157V162.452H633.005V142.836H652.856V131.095H633.005V114.309H656.157V114.301Z" fill="#545454"/>
<path d="M702.984 134.108C704.964 130.856 706.001 127.082 706.001 122.789C706.001 116.282 704.348 111.284 701.003 107.793C697.703 104.302 692.705 102.557 686.056 102.557H662.43V174.188H676.673V143.629H680.589C683.18 143.629 685.209 144.289 686.623 145.61C686.999 145.942 687.283 146.363 687.566 146.881C688.32 148.201 688.696 150.04 688.696 152.397V174.184H702.984V151.502C702.984 148.529 702.182 146.079 700.671 144.241C699.302 142.589 697.371 141.649 694.917 141.41C694.633 141.317 694.305 141.268 693.973 141.268V140.75C697.934 139.523 700.951 137.308 702.98 134.1L702.984 134.108ZM684.31 131.703H676.673V114.398H684.31C686.574 114.398 688.461 115.058 689.968 116.33C691.478 117.65 692.232 119.821 692.232 122.789C692.232 125.758 691.478 128.026 689.968 129.484C688.457 130.942 686.574 131.699 684.31 131.699V131.703Z" fill="#545454"/>
<path d="M782.958 125.243C781.78 125.292 780.601 125.434 779.423 125.527C779.188 123.595 778.763 121.283 778.244 118.691C777.677 116.099 776.831 113.503 775.746 110.912C774.616 108.364 773.15 106.149 771.311 104.355C769.521 102.516 767.209 101.431 764.378 101.103C761.406 100.771 758.623 101.245 756.08 102.472C753.533 103.744 751.225 105.538 749.147 107.846C747.074 110.203 745.186 112.892 743.534 115.864C741.882 118.881 740.42 121.947 739.148 125.154C737.877 128.362 736.791 131.379 735.941 134.254C734.054 140.572 732.592 147.177 731.555 154.061C730.518 160.994 730 167.689 730 174.196H739.007C739.007 170.046 739.29 165.567 739.857 160.804C740.469 156.042 741.27 151.279 742.311 146.468C743.348 141.612 744.575 137.036 746.037 132.606C747.45 128.22 749.054 124.308 750.799 120.91C752.589 117.468 754.432 114.779 756.364 112.847C758.344 110.867 760.373 109.923 762.446 110.017C763.957 110.065 765.18 110.77 766.221 112.139C767.213 113.507 768.011 115.204 768.626 117.185C769.286 119.165 769.756 121.145 770.088 123.081C770.372 125.061 770.607 126.616 770.748 127.795C769.898 128.127 769.051 128.504 768.25 128.925C767.448 129.35 766.646 129.775 765.844 130.245C761.883 132.46 758.441 135.574 755.517 139.628C752.593 143.637 750.471 147.881 749.244 152.312C748.491 155.236 748.159 158.208 748.252 161.177C748.394 164.101 748.961 166.834 749.998 169.333C750.99 171.787 752.496 173.767 754.432 175.274C756.368 176.78 758.769 177.538 761.551 177.631C764.427 177.679 766.881 177.064 768.91 175.792C770.89 174.52 772.587 172.82 773.907 170.746C775.276 168.624 776.313 166.312 777.114 163.813C777.868 161.359 778.483 158.909 778.86 156.455C779.237 154.001 779.52 151.834 779.71 149.854C779.852 147.922 779.945 146.46 780.042 145.468C780.374 141.835 780.468 138.158 780.326 134.525C781.221 134.384 782.213 134.291 783.201 134.193C784.238 134.1 785.275 134.052 786.409 134.145L786.502 125.138C785.323 125.138 784.145 125.187 782.966 125.231L782.958 125.243ZM771.169 144.249C771.028 147.408 770.7 150.664 770.181 154.057C769.712 156.698 769.096 159.152 768.391 161.509C767.683 163.821 766.788 165.704 765.658 167.024C764.572 168.345 763.204 168.912 761.555 168.628C760.328 168.438 759.385 167.778 758.725 166.648C758.065 165.469 757.639 164.149 757.453 162.687C757.263 161.177 757.218 159.812 757.36 158.585C757.83 154.248 759.247 150.238 761.604 146.464C764.01 142.69 767.261 139.673 771.412 137.457C771.412 138.826 771.364 141.09 771.178 144.249H771.169Z" fill="#545454"/>
<path d="M832.474 134.108C834.503 130.856 835.54 127.082 835.54 122.789C835.54 116.282 833.843 111.284 830.542 107.793C827.242 104.302 822.244 102.557 815.595 102.557H791.969V174.188H806.212V143.629H810.128C812.72 143.629 814.748 144.289 816.117 145.61C817.531 146.93 818.239 149.194 818.239 152.401V174.188H832.482V151.506C832.482 148.533 831.729 146.083 830.218 144.245C828.663 142.406 826.444 141.414 823.524 141.272V140.754C827.485 139.527 830.502 137.312 832.482 134.104L832.474 134.108ZM819.507 129.488C817.996 130.95 816.113 131.703 813.849 131.703H806.212V114.398H813.849C816.113 114.398 818 115.058 819.507 116.33C821.017 117.65 821.771 119.821 821.771 122.789C821.771 125.758 821.017 128.026 819.507 129.484V129.488Z" fill="#545454"/>
<path d="M838.557 102.561V114.301H854.873V174.189H869.116V114.301H885.339V102.561H838.561H838.557Z" fill="#545454"/>
<path d="M927.967 162.448V102.561H913.68V174.193H951.123V162.452H927.971L927.967 162.448Z" fill="#545454"/>
<path d="M995.731 107.089C991.628 103.035 986.299 101.006 979.649 101.006C973 101.006 967.387 103.035 963.24 107.089C959.044 111.098 956.967 116.897 956.967 124.442V152.312C956.967 159.808 959.04 165.563 963.24 169.616C967.391 173.626 972.858 175.655 979.649 175.655C983.565 175.655 987.194 174.804 990.543 173.107C993.892 171.41 996.626 168.863 998.699 165.47C1000.77 162.027 1001.81 157.641 1001.81 152.312V124.442C1001.81 116.897 999.785 111.098 995.731 107.089ZM987.575 150.664C987.575 152.928 987.34 155.05 986.866 156.937C986.396 158.869 985.639 160.428 984.46 161.651C983.326 162.829 981.727 163.441 979.649 163.441C976.397 163.441 974.178 162.262 973 159.905C971.821 157.5 971.254 154.434 971.254 150.664V126.05C971.254 123.737 971.445 121.615 971.914 119.683C972.384 117.752 973.186 116.148 974.368 114.97C975.547 113.84 977.199 113.224 979.366 113.224C981.532 113.224 983.14 113.836 984.319 114.97C985.497 116.148 986.348 117.752 986.817 119.683C987.287 121.615 987.571 123.737 987.571 126.05V150.664H987.575Z" fill="#545454"/>
<path d="M1049.49 143.257C1050.1 141.985 1050.62 140.9 1051.05 139.908C1051.52 138.915 1051.8 138.304 1051.94 138.02C1053.35 134.862 1054.49 131.513 1055.29 128.07C1056.04 124.628 1056.42 121.279 1056.38 118.072C1056.38 114.82 1055.86 111.94 1054.86 109.348C1053.92 106.801 1052.41 104.772 1050.39 103.266C1048.36 101.755 1045.72 101.051 1042.46 101.095C1038.83 101.188 1035.72 102.65 1033.17 105.53C1030.63 108.36 1028.93 112.131 1028.13 116.849C1027.38 120.902 1027.28 125.009 1027.8 129.156C1028.32 133.307 1029.31 137.267 1030.81 141.038C1032.28 144.763 1034.02 148.064 1036 150.846C1035.48 151.741 1034.73 153.11 1033.74 154.855C1032.7 156.601 1031.57 158.391 1030.25 160.185C1028.93 161.975 1027.56 163.437 1026.05 164.619C1024.54 165.798 1023.03 166.271 1021.57 165.988C1019.73 165.656 1018.32 164.149 1017.38 161.412C1016.38 158.678 1015.82 155.094 1015.63 150.708C1015.49 146.322 1015.68 141.467 1016.24 136.137C1016.76 130.808 1017.61 125.434 1018.74 119.914C1019.83 114.398 1021.15 109.211 1022.75 104.258L1014.31 101.383C1012.24 107.797 1010.54 114.257 1009.22 120.813C1007.85 127.37 1007 133.639 1006.62 139.628C1006.43 142.362 1006.34 145.241 1006.39 148.351C1006.39 151.466 1006.62 154.527 1007.09 157.548C1007.56 160.565 1008.32 163.347 1009.36 165.895C1010.39 168.442 1011.76 170.564 1013.55 172.309C1015.3 174.006 1017.56 175.092 1020.3 175.468C1022.7 175.845 1024.97 175.517 1027.13 174.48C1029.25 173.443 1031.28 171.981 1033.17 170.143C1035.05 168.304 1036.8 166.275 1038.31 164.105C1039.82 161.89 1041.14 159.861 1042.27 157.88C1044.81 160.237 1047.6 162.031 1050.66 163.254L1054.29 155.236C1052.78 154.576 1051.37 153.822 1050.1 152.879C1048.78 151.984 1047.6 150.947 1046.47 149.765C1046.8 149.056 1047.22 148.112 1047.79 146.934C1048.35 145.755 1048.92 144.528 1049.48 143.257H1049.49ZM1046.1 126.892C1045.44 129.767 1044.64 132.505 1043.69 135.052C1042.75 137.644 1041.76 139.721 1040.72 141.37C1039.78 139.815 1038.97 137.737 1038.22 135.097C1037.47 132.505 1036.95 129.723 1036.67 126.702C1036.38 123.729 1036.43 120.947 1036.9 118.404C1037.04 117.602 1037.33 116.565 1037.75 115.196C1038.18 113.827 1038.79 112.604 1039.64 111.519C1040.49 110.434 1041.57 109.915 1042.94 110.009C1044.59 110.057 1045.72 110.904 1046.38 112.556C1047.04 114.16 1047.32 116.233 1047.23 118.78C1047.14 121.328 1046.76 124.061 1046.1 126.892Z" fill="#545454"/>
<path d="M1098.16 114.301V102.561H1060.76V174.193H1098.16V162.452H1075V142.836H1094.86V131.095H1075V114.309H1098.16V114.301Z" fill="#545454"/>
<path d="M52.9582 226.243C51.7797 226.292 50.6013 226.434 49.4228 226.527C49.1879 224.595 48.7627 222.283 48.2443 219.691C47.6774 217.099 46.831 214.503 45.7456 211.912C44.6158 209.364 43.1498 207.149 41.3112 205.355C39.5212 203.516 37.2088 202.431 34.3781 202.103C31.4056 201.771 28.6234 202.245 26.0802 203.472C23.5329 204.744 21.2246 206.538 19.1471 208.846C17.0736 211.203 15.1865 213.892 13.5342 216.864C11.8819 219.881 10.4199 222.947 9.14832 226.154C7.87671 229.362 6.79138 232.379 5.94094 235.254C4.05377 241.572 2.59182 248.177 1.55509 255.061C0.518364 261.994 0 268.689 0 275.196H9.00658C9.00658 271.046 9.29006 266.567 9.85702 261.804C10.4685 257.042 11.2704 252.279 12.3111 247.468C13.3479 242.612 14.5749 238.036 16.0369 233.606C17.4502 229.22 19.0539 225.308 20.7994 221.91C22.5893 218.468 24.432 215.779 26.3637 213.847C28.344 211.867 30.3729 210.923 32.4464 211.017C33.9569 211.065 35.1799 211.77 36.2207 213.139C37.2129 214.507 38.0107 216.204 38.6262 218.185C39.2863 220.165 39.7561 222.145 40.0882 224.081C40.3717 226.061 40.6066 227.616 40.7483 228.795C39.8979 229.127 39.0515 229.504 38.2496 229.925C37.4478 230.35 36.6459 230.775 35.8441 231.245C31.8835 233.46 28.4412 236.574 25.5173 240.628C22.5934 244.637 20.4713 248.881 19.2443 253.312C18.491 256.236 18.1589 259.208 18.2521 262.177C18.3938 265.101 18.9608 267.834 19.9975 270.333C20.9897 272.787 22.4962 274.767 24.432 276.274C26.3677 277.78 28.7692 278.538 31.5514 278.631C34.4267 278.679 36.8808 278.064 38.9097 276.792C40.89 275.52 42.5869 273.82 43.9071 271.746C45.2759 269.624 46.3126 267.312 47.1144 264.813C47.8677 262.359 48.4833 259.909 48.8599 257.455C49.2365 255.001 49.52 252.834 49.7103 250.854C49.8521 248.922 49.9452 247.46 50.0424 246.468C50.3745 242.835 50.4676 239.158 50.3259 235.525C51.2209 235.384 52.2131 235.291 53.2012 235.193C54.2379 235.1 55.2746 235.052 56.4086 235.145L56.5017 226.138C55.3232 226.138 54.1448 226.187 52.9663 226.231L52.9582 226.243ZM41.1695 245.249C41.0277 248.408 40.6997 251.664 40.1813 255.057C39.7116 257.698 39.096 260.152 38.3913 262.509C37.6827 264.821 36.7877 266.704 35.6578 268.024C34.5725 269.345 33.2037 269.912 31.5554 269.628C30.3284 269.438 29.3848 268.778 28.7247 267.648C28.0646 266.469 27.6393 265.149 27.4531 263.687C27.2627 262.177 27.2182 260.812 27.3599 259.585C27.8297 255.248 29.2471 251.238 31.604 247.464C34.0096 243.69 37.2615 240.673 41.4124 238.457C41.4124 239.826 41.3638 242.09 41.1776 245.249H41.1695Z" fill="#545454"/>
<path d="M102.474 235.108C104.503 231.856 105.54 228.082 105.54 223.789C105.54 217.282 103.843 212.284 100.542 208.793C97.2418 205.302 92.2445 203.557 85.5948 203.557H61.9688V275.188H76.2116V244.629H80.1277C82.7195 244.629 84.7484 245.289 86.1172 246.61C87.5306 247.93 88.2393 250.194 88.2393 253.401V275.188H102.482V252.506C102.482 249.533 101.729 247.083 100.218 245.245C98.6633 243.406 96.444 242.414 93.5242 242.272V241.754C97.4848 240.527 100.502 238.312 102.482 235.104L102.474 235.108ZM89.5068 230.488C87.9963 231.95 86.1132 232.703 83.8494 232.703H76.2116V215.398H83.8494C86.1132 215.398 88.0003 216.058 89.5068 217.33C91.0174 218.65 91.7706 220.821 91.7706 223.789C91.7706 226.758 91.0174 229.026 89.5068 230.484V230.488Z" fill="#545454"/>
<path d="M108.557 203.561V215.301H124.873V275.189H139.116V215.301H155.339V203.561H108.561H108.557Z" fill="#545454"/>
<path d="M197.967 263.448V203.561H183.68V275.193H221.123V263.452H197.971L197.967 263.448Z" fill="#545454"/>
<path d="M265.731 208.089C261.628 204.035 256.299 202.006 249.649 202.006C243 202.006 237.387 204.035 233.24 208.089C229.044 212.098 226.967 217.897 226.967 225.442V253.312C226.967 260.808 229.04 266.563 233.24 270.616C237.391 274.626 242.858 276.655 249.649 276.655C253.565 276.655 257.194 275.804 260.543 274.107C263.892 272.41 266.626 269.863 268.699 266.47C270.773 263.027 271.813 258.641 271.813 253.312V225.442C271.813 217.897 269.785 212.098 265.731 208.089ZM257.575 251.664C257.575 253.928 257.34 256.05 256.866 257.937C256.396 259.869 255.639 261.428 254.46 262.651C253.326 263.829 251.727 264.441 249.649 264.441C246.397 264.441 244.178 263.262 243 260.905C241.821 258.5 241.254 255.434 241.254 251.664V227.05C241.254 224.737 241.445 222.615 241.914 220.683C242.384 218.752 243.186 217.148 244.368 215.97C245.547 214.84 247.199 214.224 249.366 214.224C251.532 214.224 253.14 214.836 254.319 215.97C255.497 217.148 256.348 218.752 256.817 220.683C257.287 222.615 257.571 224.737 257.571 227.05V251.664H257.575Z" fill="#545454"/>
<path d="M319.491 244.257C320.103 242.985 320.621 241.9 321.046 240.908C321.516 239.915 321.799 239.304 321.941 239.02C323.354 235.862 324.488 232.513 325.29 229.07C326.043 225.628 326.42 222.279 326.376 219.072C326.376 215.82 325.857 212.94 324.865 210.348C323.921 207.801 322.411 205.772 320.386 204.266C318.357 202.755 315.717 202.051 312.465 202.095C308.832 202.188 305.722 203.65 303.175 206.53C300.627 209.36 298.931 213.131 298.129 217.849C297.375 221.902 297.278 226.009 297.797 230.156C298.315 234.307 299.307 238.267 300.814 242.038C302.276 245.763 304.021 249.064 306.001 251.846C305.483 252.741 304.73 254.11 303.738 255.855C302.701 257.601 301.567 259.391 300.247 261.185C298.927 262.975 297.558 264.437 296.051 265.619C294.541 266.798 293.034 267.271 291.572 266.988C289.734 266.656 288.32 265.149 287.377 262.412C286.385 259.678 285.822 256.094 285.631 251.708C285.49 247.322 285.68 242.467 286.243 237.137C286.761 231.808 287.612 226.434 288.741 220.914C289.827 215.398 291.147 210.211 292.751 205.258L284.311 202.383C282.238 208.797 280.537 215.257 279.217 221.813C277.848 228.37 277.001 234.639 276.621 240.628C276.43 243.362 276.337 246.241 276.386 249.351C276.386 252.466 276.621 255.527 277.094 258.548C277.564 261.565 278.322 264.347 279.358 266.895C280.395 269.442 281.764 271.564 283.554 273.309C285.299 275.006 287.563 276.092 290.297 276.468C292.702 276.845 294.966 276.517 297.132 275.48C299.255 274.443 301.283 272.981 303.167 271.143C305.054 269.304 306.799 267.275 308.306 265.105C309.816 262.89 311.136 260.861 312.266 258.88C314.814 261.237 317.596 263.031 320.661 264.254L324.294 256.236C322.783 255.576 321.37 254.822 320.098 253.879C318.778 252.984 317.6 251.947 316.466 250.765C316.798 250.056 317.219 249.112 317.786 247.934C318.353 246.755 318.916 245.528 319.483 244.257H319.491ZM316.097 227.892C315.437 230.767 314.635 233.505 313.692 236.052C312.748 238.644 311.76 240.721 310.719 242.37C309.776 240.815 308.974 238.737 308.221 236.097C307.467 233.505 306.949 230.723 306.666 227.702C306.382 224.729 306.431 221.947 306.9 219.404C307.042 218.602 307.326 217.565 307.751 216.196C308.176 214.827 308.788 213.604 309.638 212.519C310.488 211.434 311.57 210.915 312.939 211.009C314.591 211.057 315.721 211.904 316.381 213.556C317.041 215.16 317.324 217.233 317.231 219.78C317.138 222.328 316.761 225.061 316.097 227.892Z" fill="#545454"/>
<path d="M368.157 215.301V203.561H330.762V275.193H368.157V263.452H345.005V243.836H364.856V232.095H345.005V215.309H368.157V215.301Z" fill="#545454"/>
<path d="M414.984 235.108C416.964 231.856 418.001 228.082 418.001 223.789C418.001 217.282 416.348 212.284 413.003 208.793C409.703 205.302 404.705 203.557 398.056 203.557H374.43V275.188H388.673V244.629H392.589C395.18 244.629 397.209 245.289 398.623 246.61C398.999 246.942 399.283 247.363 399.566 247.881C400.32 249.201 400.696 251.04 400.696 253.397V275.184H414.984V252.502C414.984 249.529 414.182 247.079 412.671 245.241C411.302 243.589 409.371 242.649 406.917 242.41C406.633 242.317 406.305 242.268 405.973 242.268V241.75C409.934 240.523 412.951 238.308 414.98 235.1L414.984 235.108ZM396.31 232.703H388.673V215.398H396.31C398.574 215.398 400.461 216.058 401.968 217.33C403.478 218.65 404.232 220.821 404.232 223.789C404.232 226.758 403.478 229.026 401.968 230.484C400.457 231.942 398.574 232.699 396.31 232.699V232.703Z" fill="#545454"/>
<path d="M494.958 226.243C493.78 226.292 492.601 226.434 491.423 226.527C491.188 224.595 490.763 222.283 490.244 219.691C489.677 217.099 488.831 214.503 487.746 211.912C486.616 209.364 485.15 207.149 483.311 205.355C481.521 203.516 479.209 202.431 476.378 202.103C473.406 201.771 470.623 202.245 468.08 203.472C465.533 204.744 463.225 206.538 461.147 208.846C459.074 211.203 457.186 213.892 455.534 216.864C453.882 219.881 452.42 222.947 451.148 226.154C449.877 229.362 448.791 232.379 447.941 235.254C446.054 241.572 444.592 248.177 443.555 255.061C442.518 261.994 442 268.689 442 275.196H451.007C451.007 271.046 451.29 266.567 451.857 261.804C452.469 257.042 453.27 252.279 454.311 247.468C455.348 242.612 456.575 238.036 458.037 233.606C459.45 229.22 461.054 225.308 462.799 221.91C464.589 218.468 466.432 215.779 468.364 213.847C470.344 211.867 472.373 210.923 474.446 211.017C475.957 211.065 477.18 211.77 478.221 213.139C479.213 214.507 480.011 216.204 480.626 218.185C481.286 220.165 481.756 222.145 482.088 224.081C482.372 226.061 482.607 227.616 482.748 228.795C481.898 229.127 481.051 229.504 480.25 229.925C479.448 230.35 478.646 230.775 477.844 231.245C473.883 233.46 470.441 236.574 467.517 240.628C464.593 244.637 462.471 248.881 461.244 253.312C460.491 256.236 460.159 259.208 460.252 262.177C460.394 265.101 460.961 267.834 461.998 270.333C462.99 272.787 464.496 274.767 466.432 276.274C468.368 277.78 470.769 278.538 473.551 278.631C476.427 278.679 478.881 278.064 480.91 276.792C482.89 275.52 484.587 273.82 485.907 271.746C487.276 269.624 488.313 267.312 489.114 264.813C489.868 262.359 490.483 259.909 490.86 257.455C491.237 255.001 491.52 252.834 491.71 250.854C491.852 248.922 491.945 247.46 492.042 246.468C492.374 242.835 492.468 239.158 492.326 235.525C493.221 235.384 494.213 235.291 495.201 235.193C496.238 235.1 497.275 235.052 498.409 235.145L498.502 226.138C497.323 226.138 496.145 226.187 494.966 226.231L494.958 226.243ZM483.169 245.249C483.028 248.408 482.7 251.664 482.181 255.057C481.712 257.698 481.096 260.152 480.391 262.509C479.683 264.821 478.788 266.704 477.658 268.024C476.572 269.345 475.204 269.912 473.555 269.628C472.328 269.438 471.385 268.778 470.725 267.648C470.065 266.469 469.639 265.149 469.453 263.687C469.263 262.177 469.218 260.812 469.36 259.585C469.83 255.248 471.247 251.238 473.604 247.464C476.01 243.69 479.261 240.673 483.412 238.457C483.412 239.826 483.364 242.09 483.178 245.249H483.169Z" fill="#545454"/>
<path d="M544.474 235.108C546.503 231.856 547.54 228.082 547.54 223.789C547.54 217.282 545.843 212.284 542.542 208.793C539.242 205.302 534.244 203.557 527.595 203.557H503.969V275.188H518.212V244.629H522.128C524.72 244.629 526.748 245.289 528.117 246.61C529.531 247.93 530.239 250.194 530.239 253.401V275.188H544.482V252.506C544.482 249.533 543.729 247.083 542.218 245.245C540.663 243.406 538.444 242.414 535.524 242.272V241.754C539.485 240.527 542.502 238.312 544.482 235.104L544.474 235.108ZM531.507 230.488C529.996 231.95 528.113 232.703 525.849 232.703H518.212V215.398H525.849C528.113 215.398 530 216.058 531.507 217.33C533.017 218.65 533.771 220.821 533.771 223.789C533.771 226.758 533.017 229.026 531.507 230.484V230.488Z" fill="#545454"/>
<path d="M550.557 203.561V215.301H566.873V275.189H581.116V215.301H597.339V203.561H550.561H550.557Z" fill="#545454"/>
<path d="M639.967 263.448V203.561H625.68V275.193H663.123V263.452H639.971L639.967 263.448Z" fill="#545454"/>
<path d="M707.731 208.089C703.628 204.035 698.299 202.006 691.649 202.006C685 202.006 679.387 204.035 675.24 208.089C671.044 212.098 668.967 217.897 668.967 225.442V253.312C668.967 260.808 671.04 266.563 675.24 270.616C679.391 274.626 684.858 276.655 691.649 276.655C695.565 276.655 699.194 275.804 702.543 274.107C705.892 272.41 708.626 269.863 710.699 266.47C712.773 263.027 713.813 258.641 713.813 253.312V225.442C713.813 217.897 711.785 212.098 707.731 208.089ZM699.575 251.664C699.575 253.928 699.34 256.05 698.866 257.937C698.396 259.869 697.639 261.428 696.46 262.651C695.326 263.829 693.727 264.441 691.649 264.441C688.397 264.441 686.178 263.262 685 260.905C683.821 258.5 683.254 255.434 683.254 251.664V227.05C683.254 224.737 683.445 222.615 683.914 220.683C684.384 218.752 685.186 217.148 686.368 215.97C687.547 214.84 689.199 214.224 691.366 214.224C693.532 214.224 695.14 214.836 696.319 215.97C697.497 217.148 698.348 218.752 698.817 220.683C699.287 222.615 699.571 224.737 699.571 227.05V251.664H699.575Z" fill="#545454"/>
<path d="M761.491 244.257C762.103 242.985 762.621 241.9 763.046 240.908C763.516 239.915 763.799 239.304 763.941 239.02C765.354 235.862 766.488 232.513 767.29 229.07C768.043 225.628 768.42 222.279 768.376 219.072C768.376 215.82 767.857 212.94 766.865 210.348C765.921 207.801 764.411 205.772 762.386 204.266C760.357 202.755 757.717 202.051 754.465 202.095C750.832 202.188 747.722 203.65 745.175 206.53C742.627 209.36 740.931 213.131 740.129 217.849C739.375 221.902 739.278 226.009 739.797 230.156C740.315 234.307 741.307 238.267 742.814 242.038C744.276 245.763 746.021 249.064 748.001 251.846C747.483 252.741 746.73 254.11 745.738 255.855C744.701 257.601 743.567 259.391 742.247 261.185C740.927 262.975 739.558 264.437 738.051 265.619C736.541 266.798 735.034 267.271 733.572 266.988C731.734 266.656 730.32 265.149 729.377 262.412C728.385 259.678 727.822 256.094 727.631 251.708C727.49 247.322 727.68 242.467 728.243 237.137C728.761 231.808 729.612 226.434 730.741 220.914C731.827 215.398 733.147 210.211 734.751 205.258L726.311 202.383C724.238 208.797 722.537 215.257 721.217 221.813C719.848 228.37 719.001 234.639 718.621 240.628C718.43 243.362 718.337 246.241 718.386 249.351C718.386 252.466 718.621 255.527 719.094 258.548C719.564 261.565 720.322 264.347 721.358 266.895C722.395 269.442 723.764 271.564 725.554 273.309C727.299 275.006 729.563 276.092 732.297 276.468C734.702 276.845 736.966 276.517 739.132 275.48C741.255 274.443 743.283 272.981 745.167 271.143C747.054 269.304 748.799 267.275 750.306 265.105C751.816 262.89 753.136 260.861 754.266 258.88C756.814 261.237 759.596 263.031 762.661 264.254L766.294 256.236C764.783 255.576 763.37 254.822 762.098 253.879C760.778 252.984 759.6 251.947 758.466 250.765C758.798 250.056 759.219 249.112 759.786 247.934C760.353 246.755 760.916 245.528 761.483 244.257H761.491ZM758.097 227.892C757.437 230.767 756.635 233.505 755.692 236.052C754.748 238.644 753.76 240.721 752.719 242.37C751.776 240.815 750.974 238.737 750.221 236.097C749.467 233.505 748.949 230.723 748.666 227.702C748.382 224.729 748.431 221.947 748.9 219.404C749.042 218.602 749.326 217.565 749.751 216.196C750.176 214.827 750.788 213.604 751.638 212.519C752.488 211.434 753.57 210.915 754.939 211.009C756.591 211.057 757.721 211.904 758.381 213.556C759.041 215.16 759.324 217.233 759.231 219.78C759.138 222.328 758.761 225.061 758.097 227.892Z" fill="#545454"/>
<path d="M810.157 215.301V203.561H772.762V275.193H810.157V263.452H787.005V243.836H806.856V232.095H787.005V215.309H810.157V215.301Z" fill="#545454"/>
<path d="M856.984 235.108C858.964 231.856 860.001 228.082 860.001 223.789C860.001 217.282 858.348 212.284 855.003 208.793C851.703 205.302 846.705 203.557 840.056 203.557H816.43V275.188H830.673V244.629H834.589C837.18 244.629 839.209 245.289 840.623 246.61C840.999 246.942 841.283 247.363 841.566 247.881C842.32 249.201 842.696 251.04 842.696 253.397V275.184H856.984V252.502C856.984 249.529 856.182 247.079 854.671 245.241C853.302 243.589 851.371 242.649 848.917 242.41C848.633 242.317 848.305 242.268 847.973 242.268V241.75C851.934 240.523 854.951 238.308 856.98 235.1L856.984 235.108ZM838.31 232.703H830.673V215.398H838.31C840.574 215.398 842.461 216.058 843.968 217.33C845.478 218.65 846.232 220.821 846.232 223.789C846.232 226.758 845.478 229.026 843.968 230.484C842.457 231.942 840.574 232.699 838.31 232.699V232.703Z" fill="#545454"/>
<path d="M936.958 226.243C935.78 226.292 934.601 226.434 933.423 226.527C933.188 224.595 932.763 222.283 932.244 219.691C931.677 217.099 930.831 214.503 929.746 211.912C928.616 209.364 927.15 207.149 925.311 205.355C923.521 203.516 921.209 202.431 918.378 202.103C915.406 201.771 912.623 202.245 910.08 203.472C907.533 204.744 905.225 206.538 903.147 208.846C901.074 211.203 899.186 213.892 897.534 216.864C895.882 219.881 894.42 222.947 893.148 226.154C891.877 229.362 890.791 232.379 889.941 235.254C888.054 241.572 886.592 248.177 885.555 255.061C884.518 261.994 884 268.689 884 275.196H893.007C893.007 271.046 893.29 266.567 893.857 261.804C894.469 257.042 895.27 252.279 896.311 247.468C897.348 242.612 898.575 238.036 900.037 233.606C901.45 229.22 903.054 225.308 904.799 221.91C906.589 218.468 908.432 215.779 910.364 213.847C912.344 211.867 914.373 210.923 916.446 211.017C917.957 211.065 919.18 211.77 920.221 213.139C921.213 214.507 922.011 216.204 922.626 218.185C923.286 220.165 923.756 222.145 924.088 224.081C924.372 226.061 924.607 227.616 924.748 228.795C923.898 229.127 923.051 229.504 922.25 229.925C921.448 230.35 920.646 230.775 919.844 231.245C915.883 233.46 912.441 236.574 909.517 240.628C906.593 244.637 904.471 248.881 903.244 253.312C902.491 256.236 902.159 259.208 902.252 262.177C902.394 265.101 902.961 267.834 903.998 270.333C904.99 272.787 906.496 274.767 908.432 276.274C910.368 277.78 912.769 278.538 915.551 278.631C918.427 278.679 920.881 278.064 922.91 276.792C924.89 275.52 926.587 273.82 927.907 271.746C929.276 269.624 930.313 267.312 931.114 264.813C931.868 262.359 932.483 259.909 932.86 257.455C933.237 255.001 933.52 252.834 933.71 250.854C933.852 248.922 933.945 247.46 934.042 246.468C934.374 242.835 934.468 239.158 934.326 235.525C935.221 235.384 936.213 235.291 937.201 235.193C938.238 235.1 939.275 235.052 940.409 235.145L940.502 226.138C939.323 226.138 938.145 226.187 936.966 226.231L936.958 226.243ZM925.169 245.249C925.028 248.408 924.7 251.664 924.181 255.057C923.712 257.698 923.096 260.152 922.391 262.509C921.683 264.821 920.788 266.704 919.658 268.024C918.572 269.345 917.204 269.912 915.555 269.628C914.328 269.438 913.385 268.778 912.725 267.648C912.065 266.469 911.639 265.149 911.453 263.687C911.263 262.177 911.218 260.812 911.36 259.585C911.83 255.248 913.247 251.238 915.604 247.464C918.01 243.69 921.261 240.673 925.412 238.457C925.412 239.826 925.364 242.09 925.178 245.249H925.169Z" fill="#545454"/>
<path d="M986.474 235.108C988.503 231.856 989.54 228.082 989.54 223.789C989.54 217.282 987.843 212.284 984.542 208.793C981.242 205.302 976.244 203.557 969.595 203.557H945.969V275.188H960.212V244.629H964.128C966.72 244.629 968.748 245.289 970.117 246.61C971.531 247.93 972.239 250.194 972.239 253.401V275.188H986.482V252.506C986.482 249.533 985.729 247.083 984.218 245.245C982.663 243.406 980.444 242.414 977.524 242.272V241.754C981.485 240.527 984.502 238.312 986.482 235.104L986.474 235.108ZM973.507 230.488C971.996 231.95 970.113 232.703 967.849 232.703H960.212V215.398H967.849C970.113 215.398 972 216.058 973.507 217.33C975.017 218.65 975.771 220.821 975.771 223.789C975.771 226.758 975.017 229.026 973.507 230.484V230.488Z" fill="#545454"/>
<path d="M992.557 203.561V215.301H1008.87V275.189H1023.12V215.301H1039.34V203.561H992.561H992.557Z" fill="#545454"/>
<path d="M1081.97 263.448V203.561H1067.68V275.193H1105.12V263.452H1081.97L1081.97 263.448Z" fill="#545454"/>
</svg>
