<svg width="296" height="154" viewBox="0 0 296 154" fill="none" xmlns="http://www.w3.org/2000/svg">
<path d="M19.8503 8.42038C19.4754 8.43584 19.1004 8.48094 18.7254 8.51058C18.6507 7.89594 18.5154 7.16018 18.3505 6.33551C18.1701 5.51084 17.9008 4.68488 17.5554 3.86021C17.1959 3.04971 16.7295 2.34488 16.1445 1.77405C15.5749 1.18905 14.8392 0.843717 13.9385 0.739345C12.9927 0.633684 12.1075 0.784445 11.2983 1.17487C10.4878 1.57948 9.75328 2.1503 9.09226 2.88478C8.43252 3.63471 7.83206 4.49031 7.30633 5.4361C6.7806 6.39607 6.31544 7.37151 5.91083 8.39204C5.50623 9.41257 5.1609 10.3725 4.8903 11.2874C4.28984 13.2975 3.82467 15.3992 3.4948 17.5897C3.16493 19.7957 3 21.9257 3 23.9964H5.86573C5.86573 22.6756 5.95593 21.2505 6.13633 19.7351C6.3309 18.2198 6.58603 16.7045 6.91719 15.1737C7.24706 13.6287 7.63749 12.1726 8.10265 10.763C8.55236 9.36746 9.06262 8.12272 9.61798 7.04163C10.1875 5.94637 10.7738 5.09077 11.3885 4.47614C12.0186 3.84604 12.6641 3.5458 13.3239 3.57544C13.8045 3.5909 14.1936 3.81511 14.5248 4.25064C14.8405 4.68617 15.0943 5.22607 15.2902 5.85617C15.5002 6.48627 15.6497 7.11637 15.7553 7.7323C15.8455 8.3624 15.9203 8.8572 15.9654 9.23216C15.6948 9.33782 15.4255 9.45766 15.1703 9.59167C14.9152 9.72697 14.6601 9.86227 14.4049 10.0117C13.1447 10.7166 12.0495 11.7075 11.1191 12.9973C10.1888 14.273 9.51361 15.6234 9.12318 17.033C8.88351 17.9634 8.77785 18.9092 8.80749 19.8537C8.85259 20.784 9.03298 21.6538 9.36285 22.4488C9.67855 23.2297 10.1579 23.8598 10.7738 24.3391C11.3897 24.8184 12.1538 25.0594 13.0391 25.089C13.954 25.1045 14.7348 24.9086 15.3804 24.504C16.0105 24.0994 16.5504 23.5582 16.9704 22.8985C17.406 22.2233 17.7358 21.4875 17.991 20.6925C18.2306 19.9117 18.4265 19.1321 18.5463 18.3512C18.6662 17.5704 18.7564 16.881 18.8169 16.2509C18.862 15.6363 18.8917 15.1711 18.9226 14.8554C19.0283 13.6996 19.0579 12.5296 19.0128 11.3737C19.2976 11.3286 19.6133 11.299 19.9277 11.2681C20.2575 11.2384 20.5874 11.223 20.9482 11.2526L20.9778 8.38688C20.6029 8.38688 20.2279 8.40234 19.8529 8.41652L19.8503 8.42038ZM16.0994 14.4675C16.0543 15.4726 15.9499 16.5086 15.785 17.5884C15.6355 18.4285 15.4396 19.2094 15.2154 19.9593C14.9899 20.6951 14.7052 21.2943 14.3457 21.7143C14.0003 22.1344 13.5648 22.3148 13.0404 22.2246C12.6499 22.164 12.3497 21.954 12.1397 21.5945C11.9296 21.2195 11.7943 20.7995 11.7351 20.3343C11.6745 19.8537 11.6603 19.4194 11.7054 19.029C11.8549 17.649 12.3059 16.3733 13.0558 15.1724C13.8212 13.9714 14.8559 13.0115 16.1767 12.3066C16.1767 12.7422 16.1612 13.4625 16.102 14.4675H16.0994Z" fill="#545454"/>
<path d="M35.6058 11.2412C36.2514 10.2065 36.5813 9.0056 36.5813 7.63973C36.5813 5.56904 36.0414 3.97897 34.9912 2.86824C33.941 1.75751 32.351 1.20215 30.2352 1.20215H22.7178V23.994H27.2496V14.2706H28.4956C29.3203 14.2706 29.9659 14.4806 30.4014 14.9007C30.8511 15.3208 31.0766 16.0411 31.0766 17.0616V23.994H35.6084V16.7768C35.6084 15.831 35.3687 15.0515 34.8881 14.4665C34.3933 13.8815 33.6872 13.5658 32.7581 13.5207V13.3557C34.0183 12.9653 34.9783 12.2605 35.6084 11.2399L35.6058 11.2412ZM31.4799 9.77099C30.9993 10.2362 30.4001 10.4758 29.6798 10.4758H27.2496V4.96986H29.6798C30.4001 4.96986 31.0006 5.1799 31.4799 5.5845C31.9605 6.00457 32.2002 6.69523 32.2002 7.63973C32.2002 8.58424 31.9605 9.30583 31.4799 9.76971V9.77099Z" fill="#545454"/>
<path d="M37.541 1.20361V4.93911H42.7326V23.9942H47.2644V4.93911H52.4263V1.20361H37.5423H37.541Z" fill="#545454"/>
<path d="M65.9894 20.2587V1.20361H61.4434V23.9955H73.3573V20.26H65.9906L65.9894 20.2587Z" fill="#545454"/>
<path d="M87.5498 2.64341C86.2445 1.35357 84.5488 0.708008 82.433 0.708008C80.3172 0.708008 78.5313 1.35357 77.2118 2.64341C75.8769 3.91907 75.2158 5.76428 75.2158 8.16484V17.0326C75.2158 19.4177 75.8756 21.2488 77.2118 22.5386C78.5326 23.8143 80.2721 24.4598 82.433 24.4598C83.679 24.4598 84.8336 24.1892 85.8992 23.6493C86.9648 23.1094 87.8346 22.2989 88.4943 21.2191C89.1541 20.1239 89.4852 18.7284 89.4852 17.0326V8.16484C89.4852 5.76428 88.8396 3.91907 87.5498 2.64341ZM84.9547 16.5082C84.9547 17.2285 84.8799 17.9037 84.7292 18.5042C84.5797 19.1188 84.3387 19.6149 83.9638 20.004C83.603 20.379 83.094 20.5736 82.433 20.5736C81.3983 20.5736 80.6922 20.1986 80.3172 19.4487C79.9422 18.6833 79.7618 17.7078 79.7618 16.5082V8.67639C79.7618 7.94063 79.8224 7.26543 79.9719 6.6508C80.1213 6.03616 80.3765 5.52589 80.7527 5.15092C81.1277 4.79142 81.6534 4.59556 82.3428 4.59556C83.0322 4.59556 83.5437 4.79013 83.9187 5.15092C84.2936 5.52589 84.5642 6.03616 84.7137 6.6508C84.8632 7.26543 84.9534 7.94063 84.9534 8.67639V16.5082H84.9547Z" fill="#545454"/>
<path d="M104.443 13.7922C104.638 13.3876 104.802 13.0422 104.938 12.7265C105.087 12.4109 105.177 12.2163 105.223 12.1261C105.672 11.121 106.033 10.0554 106.288 8.96012C106.528 7.86485 106.648 6.79922 106.634 5.77869C106.634 4.74398 106.469 3.82783 106.153 3.00316C105.853 2.19266 105.372 1.5471 104.728 1.06776C104.082 0.587132 103.242 0.362922 102.207 0.377096C101.052 0.406733 100.062 0.871901 99.2514 1.78806C98.4409 2.68875 97.901 3.88839 97.6459 5.38955C97.4062 6.67939 97.3753 7.98598 97.5402 9.30545C97.7052 10.6262 98.0209 11.8864 98.5002 13.0861C98.9654 14.2715 99.5207 15.3217 100.151 16.2069C99.9859 16.4917 99.7462 16.9272 99.4305 17.4826C99.1007 18.0379 98.7399 18.6075 98.3198 19.1783C97.8997 19.7478 97.4642 20.213 96.9849 20.5893C96.5042 20.9642 96.0249 21.115 95.5597 21.0248C94.9747 20.9191 94.525 20.4398 94.2248 19.5687C93.9091 18.699 93.73 17.5586 93.6694 16.1631C93.6243 14.7676 93.6849 13.2226 93.864 11.5269C94.0289 9.83118 94.2995 8.12128 94.659 6.36498C95.0044 4.60998 95.4244 2.95935 95.9347 1.38345L93.2494 0.468586C92.5896 2.50965 92.0484 4.56488 91.6284 6.65104C91.1928 8.7372 90.9235 10.7319 90.8024 12.6376C90.7419 13.5074 90.7122 14.4236 90.7277 15.4132C90.7277 16.4041 90.8024 17.3782 90.9532 18.3395C91.1027 19.2994 91.3436 20.1847 91.6735 20.9952C92.0033 21.8057 92.4389 22.4809 93.0084 23.0362C93.5638 23.5761 94.2841 23.9215 95.1538 24.0413C95.9192 24.1611 96.6395 24.0568 97.3289 23.7269C98.0041 23.397 98.6497 22.9318 99.2489 22.3468C99.8493 21.7618 100.405 21.1163 100.884 20.4256C101.365 19.7208 101.785 19.0752 102.144 18.4451C102.955 19.1951 103.84 19.7659 104.815 20.155L105.971 17.6037C105.491 17.3937 105.041 17.154 104.636 16.8538C104.216 16.569 103.841 16.2391 103.48 15.8629C103.586 15.6374 103.72 15.3371 103.901 14.9622C104.081 14.5872 104.26 14.1968 104.44 13.7922H104.443ZM103.363 8.58515C103.153 9.50002 102.898 10.3711 102.598 11.1816C102.298 12.0063 101.983 12.6673 101.652 13.1917C101.352 12.6969 101.097 12.0359 100.857 11.1958C100.617 10.3711 100.452 9.48585 100.362 8.52459C100.272 7.5788 100.287 6.69356 100.437 5.88435C100.482 5.62922 100.572 5.29935 100.707 4.86382C100.843 4.42829 101.037 4.03915 101.308 3.69382C101.579 3.34849 101.923 3.18356 102.358 3.21319C102.884 3.22866 103.243 3.49796 103.453 4.02369C103.663 4.53396 103.754 5.19369 103.724 6.00419C103.694 6.81468 103.575 7.68446 103.363 8.58515Z" fill="#545454"/>
<path d="M120.141 4.93911V1.20361H108.242V23.9955H120.141V20.26H112.774V14.0182H119.09V10.2827H112.774V4.94169H120.141V4.93911Z" fill="#545454"/>
<path d="M135.04 11.2412C135.67 10.2065 136 9.0056 136 7.63973C136 5.56904 135.474 3.97897 134.41 2.86824C133.36 1.75751 131.77 1.20215 129.654 1.20215H122.137V23.994H126.669V14.2706H127.915C128.739 14.2706 129.385 14.4806 129.835 14.9007C129.954 15.0064 130.045 15.1404 130.135 15.3053C130.374 15.7254 130.494 16.3104 130.494 17.0603V23.9927H135.04V16.7755C135.04 15.8298 134.785 15.0502 134.304 14.4652C133.869 13.9395 133.254 13.6405 132.473 13.5645C132.383 13.5348 132.279 13.5194 132.173 13.5194V13.3544C133.433 12.964 134.393 12.2592 135.039 11.2386L135.04 11.2412ZM129.099 10.4758H126.669V4.96986H129.099C129.819 4.96986 130.42 5.1799 130.899 5.5845C131.379 6.00457 131.619 6.69523 131.619 7.63973C131.619 8.58424 131.379 9.30583 130.899 9.76971C130.418 10.2336 129.819 10.4745 129.099 10.4745V10.4758Z" fill="#545454"/>
<path d="M168.851 8.42038C168.476 8.43584 168.101 8.48094 167.726 8.51058C167.652 7.89594 167.516 7.16018 167.351 6.33551C167.171 5.51084 166.902 4.68488 166.556 3.86021C166.197 3.04971 165.73 2.34488 165.145 1.77405C164.576 1.18905 163.84 0.843717 162.939 0.739345C161.994 0.633684 161.108 0.784445 160.299 1.17487C159.489 1.57948 158.754 2.1503 158.093 2.88478C157.433 3.63471 156.833 4.49031 156.307 5.4361C155.782 6.39607 155.316 7.37151 154.912 8.39204C154.507 9.41257 154.162 10.3725 153.891 11.2874C153.291 13.2975 152.826 15.3992 152.496 17.5897C152.166 19.7957 152.001 21.9257 152.001 23.9964H154.867C154.867 22.6756 154.957 21.2505 155.137 19.7351C155.332 18.2198 155.587 16.7045 155.918 15.1737C156.248 13.6287 156.638 12.1726 157.104 10.763C157.553 9.36746 158.064 8.12272 158.619 7.04163C159.188 5.94637 159.775 5.09077 160.389 4.47614C161.02 3.84604 161.665 3.5458 162.325 3.57544C162.805 3.5909 163.195 3.81511 163.526 4.25064C163.841 4.68617 164.095 5.22607 164.291 5.85617C164.501 6.48627 164.651 7.11637 164.756 7.7323C164.847 8.3624 164.921 8.8572 164.966 9.23216C164.696 9.33782 164.426 9.45766 164.171 9.59167C163.916 9.72697 163.661 9.86227 163.406 10.0117C162.146 10.7166 161.05 11.7075 160.12 12.9973C159.19 14.273 158.515 15.6234 158.124 17.033C157.884 17.9634 157.779 18.9092 157.808 19.8537C157.854 20.784 158.034 21.6538 158.364 22.4488C158.68 23.2297 159.159 23.8598 159.775 24.3391C160.391 24.8184 161.155 25.0594 162.04 25.089C162.955 25.1045 163.736 24.9086 164.381 24.504C165.011 24.0994 165.551 23.5582 165.971 22.8985C166.407 22.2233 166.737 21.4875 166.992 20.6925C167.232 19.9117 167.427 19.1321 167.547 18.3512C167.667 17.5704 167.757 16.881 167.818 16.2509C167.863 15.6363 167.893 15.1711 167.924 14.8554C168.029 13.6996 168.059 12.5296 168.014 11.3737C168.299 11.3286 168.614 11.299 168.929 11.2681C169.259 11.2384 169.588 11.223 169.949 11.2526L169.979 8.38688C169.604 8.38688 169.229 8.40234 168.854 8.41652L168.851 8.42038ZM165.1 14.4675C165.055 15.4726 164.951 16.5086 164.786 17.5884C164.636 18.4285 164.441 19.2094 164.216 19.9593C163.991 20.6951 163.706 21.2943 163.347 21.7143C163.001 22.1344 162.566 22.3148 162.041 22.2246C161.651 22.164 161.351 21.954 161.141 21.5945C160.931 21.2195 160.795 20.7995 160.736 20.3343C160.675 19.8537 160.661 19.4194 160.706 19.029C160.856 17.649 161.307 16.3733 162.057 15.1724C162.822 13.9714 163.857 13.0115 165.178 12.3066C165.178 12.7422 165.162 13.4625 165.103 14.4675H165.1Z" fill="#545454"/>
<path d="M184.607 11.2412C185.252 10.2065 185.582 9.0056 185.582 7.63973C185.582 5.56904 185.042 3.97897 183.992 2.86824C182.942 1.75751 181.352 1.20215 179.236 1.20215H171.719V23.994H176.251V14.2706H177.497C178.321 14.2706 178.967 14.4806 179.402 14.9007C179.852 15.3208 180.078 16.0411 180.078 17.0616V23.994H184.609V16.7768C184.609 15.831 184.37 15.0515 183.889 14.4665C183.394 13.8815 182.688 13.5658 181.759 13.5207V13.3557C183.019 12.9653 183.979 12.2605 184.609 11.2399L184.607 11.2412ZM180.481 9.77099C180 10.2362 179.401 10.4758 178.681 10.4758H176.251V4.96986H178.681C179.401 4.96986 180.002 5.1799 180.481 5.5845C180.962 6.00457 181.201 6.69523 181.201 7.63973C181.201 8.58424 180.962 9.30583 180.481 9.76971V9.77099Z" fill="#545454"/>
<path d="M186.542 1.20361V4.93911H191.734V23.9942H196.265V4.93911H201.427V1.20361H186.543H186.542Z" fill="#545454"/>
<path d="M214.99 20.2587V1.20361H210.444V23.9955H222.358V20.26H214.992L214.99 20.2587Z" fill="#545454"/>
<path d="M236.551 2.64341C235.245 1.35357 233.55 0.708008 231.434 0.708008C229.318 0.708008 227.532 1.35357 226.213 2.64341C224.878 3.91907 224.217 5.76428 224.217 8.16484V17.0326C224.217 19.4177 224.877 21.2488 226.213 22.5386C227.534 23.8143 229.273 24.4598 231.434 24.4598C232.68 24.4598 233.835 24.1892 234.9 23.6493C235.966 23.1094 236.836 22.2989 237.495 21.2191C238.155 20.1239 238.486 18.7284 238.486 17.0326V8.16484C238.486 5.76428 237.841 3.91907 236.551 2.64341ZM233.956 16.5082C233.956 17.2285 233.881 17.9037 233.73 18.5042C233.581 19.1188 233.34 19.6149 232.965 20.004C232.604 20.379 232.095 20.5736 231.434 20.5736C230.399 20.5736 229.693 20.1986 229.318 19.4487C228.943 18.6833 228.763 17.7078 228.763 16.5082V8.67639C228.763 7.94063 228.823 7.26543 228.973 6.6508C229.122 6.03616 229.377 5.52589 229.754 5.15092C230.129 4.79142 230.654 4.59556 231.344 4.59556C232.033 4.59556 232.545 4.79013 232.92 5.15092C233.295 5.52589 233.565 6.03616 233.715 6.6508C233.864 7.26543 233.954 7.94063 233.954 8.67639V16.5082H233.956Z" fill="#545454"/>
<path d="M253.444 13.7922C253.639 13.3876 253.803 13.0422 253.939 12.7265C254.088 12.4109 254.178 12.2163 254.224 12.1261C254.673 11.121 255.034 10.0554 255.289 8.96012C255.529 7.86485 255.649 6.79922 255.635 5.77869C255.635 4.74398 255.47 3.82783 255.154 3.00316C254.854 2.19266 254.373 1.5471 253.729 1.06776C253.083 0.587132 252.243 0.362922 251.208 0.377096C250.053 0.406733 249.063 0.871901 248.252 1.78806C247.442 2.68875 246.902 3.88839 246.647 5.38955C246.407 6.67939 246.376 7.98598 246.541 9.30545C246.706 10.6262 247.022 11.8864 247.501 13.0861C247.966 14.2715 248.522 15.3217 249.152 16.2069C248.987 16.4917 248.747 16.9272 248.432 17.4826C248.102 18.0379 247.741 18.6075 247.321 19.1783C246.901 19.7478 246.465 20.213 245.986 20.5893C245.505 20.9642 245.026 21.115 244.561 21.0248C243.976 20.9191 243.526 20.4398 243.226 19.5687C242.91 18.699 242.731 17.5586 242.67 16.1631C242.625 14.7676 242.686 13.2226 242.865 11.5269C243.03 9.83118 243.301 8.12128 243.66 6.36498C244.005 4.60998 244.425 2.95935 244.936 1.38345L242.25 0.468586C241.591 2.50965 241.049 4.56488 240.629 6.65104C240.194 8.7372 239.925 10.7319 239.803 12.6376C239.743 13.5074 239.713 14.4236 239.729 15.4132C239.729 16.4041 239.803 17.3782 239.954 18.3395C240.104 19.2994 240.345 20.1847 240.674 20.9952C241.004 21.8057 241.44 22.4809 242.009 23.0362C242.565 23.5761 243.285 23.9215 244.155 24.0413C244.92 24.1611 245.641 24.0568 246.33 23.7269C247.005 23.397 247.651 22.9318 248.25 22.3468C248.85 21.7618 249.406 21.1163 249.885 20.4256C250.366 19.7208 250.786 19.0752 251.145 18.4451C251.956 19.1951 252.841 19.7659 253.816 20.155L254.972 17.6037C254.492 17.3937 254.042 17.154 253.637 16.8538C253.217 16.569 252.842 16.2391 252.481 15.8629C252.587 15.6374 252.721 15.3371 252.901 14.9622C253.082 14.5872 253.261 14.1968 253.441 13.7922H253.444ZM252.364 8.58515C252.154 9.50002 251.899 10.3711 251.599 11.1816C251.299 12.0063 250.984 12.6673 250.653 13.1917C250.353 12.6969 250.098 12.0359 249.858 11.1958C249.618 10.3711 249.453 9.48585 249.363 8.52459C249.273 7.5788 249.288 6.69356 249.438 5.88435C249.483 5.62922 249.573 5.29935 249.708 4.86382C249.844 4.42829 250.038 4.03915 250.309 3.69382C250.58 3.34849 250.924 3.18356 251.359 3.21319C251.885 3.22866 252.244 3.49796 252.454 4.02369C252.664 4.53396 252.755 5.19369 252.725 6.00419C252.695 6.81468 252.575 7.68446 252.364 8.58515Z" fill="#545454"/>
<path d="M269.142 4.93911V1.20361H257.243V23.9955H269.142V20.26H261.775V14.0182H268.091V10.2827H261.775V4.94169H269.142V4.93911Z" fill="#545454"/>
<path d="M284.041 11.2412C284.671 10.2065 285.001 9.0056 285.001 7.63973C285.001 5.56904 284.475 3.97897 283.411 2.86824C282.361 1.75751 280.771 1.20215 278.655 1.20215H271.138V23.994H275.67V14.2706H276.916C277.74 14.2706 278.386 14.4806 278.835 14.9007C278.955 15.0064 279.046 15.1404 279.136 15.3053C279.375 15.7254 279.495 16.3104 279.495 17.0603V23.9927H284.041V16.7755C284.041 15.8298 283.786 15.0502 283.305 14.4652C282.87 13.9395 282.255 13.6405 281.474 13.5645C281.384 13.5348 281.28 13.5194 281.174 13.5194V13.3544C282.434 12.964 283.394 12.2592 284.04 11.2386L284.041 11.2412ZM278.1 10.4758H275.67V4.96986H278.1C278.82 4.96986 279.42 5.1799 279.9 5.5845C280.38 6.00457 280.62 6.69523 280.62 7.63973C280.62 8.58424 280.38 9.30583 279.9 9.76971C279.419 10.2336 278.82 10.4745 278.1 10.4745V10.4758Z" fill="#545454"/>
<path d="M-5.01064 51.8822V32.8271H-9.55664V55.619H2.35728V51.8835H-5.00935L-5.01064 51.8822Z" fill="#545454"/>
<path d="M16.5498 34.2669C15.2445 32.9771 13.5488 32.3315 11.433 32.3315C9.31718 32.3315 7.53126 32.9771 6.21179 34.2669C4.87685 35.5426 4.21582 37.3878 4.21582 39.7884V48.6562C4.21582 51.0413 4.87556 52.8723 6.21179 54.1621C7.53255 55.4378 9.27209 56.0834 11.433 56.0834C12.679 56.0834 13.8336 55.8128 14.8992 55.2729C15.9648 54.733 16.8346 53.9225 17.4943 52.8427C18.1541 51.7474 18.4852 50.3519 18.4852 48.6562V39.7884C18.4852 37.3878 17.8396 35.5426 16.5498 34.2669ZM13.9547 48.1317C13.9547 48.852 13.8799 49.5272 13.7292 50.1277C13.5797 50.7423 13.3387 51.2384 12.9638 51.6276C12.603 52.0025 12.094 52.1971 11.433 52.1971C10.3983 52.1971 9.69215 51.8221 9.31719 51.0722C8.94222 50.3068 8.76182 49.3314 8.76182 48.1317V40.2999C8.76182 39.5642 8.82239 38.889 8.97186 38.2743C9.12133 37.6597 9.37646 37.1494 9.75272 36.7745C10.1277 36.415 10.6534 36.2191 11.3428 36.2191C12.0322 36.2191 12.5437 36.4137 12.9187 36.7745C13.2936 37.1494 13.5642 37.6597 13.7137 38.2743C13.8632 38.889 13.9534 39.5642 13.9534 40.2999V48.1317H13.9547Z" fill="#545454"/>
<path d="M33.443 45.4157C33.6376 45.0111 33.8025 44.6658 33.9378 44.3501C34.0873 44.0344 34.1775 43.8398 34.2226 43.7496C34.6723 42.7445 35.0331 41.6789 35.2882 40.5837C35.5279 39.4884 35.6477 38.4228 35.6335 37.4022C35.6335 36.3675 35.4686 35.4514 35.1529 34.6267C34.8527 33.8162 34.372 33.1706 33.7278 32.6913C33.0822 32.2107 32.2421 31.9865 31.2074 32.0006C30.0515 32.0303 29.0619 32.4954 28.2514 33.4116C27.4409 34.3123 26.901 35.5119 26.6459 37.0131C26.4062 38.3029 26.3753 39.6095 26.5402 40.929C26.7052 42.2498 27.0209 43.5099 27.5002 44.7096C27.9654 45.895 28.5207 46.9452 29.1508 47.8305C28.9859 48.1152 28.7462 48.5507 28.4305 49.1061C28.1007 49.6615 27.7399 50.231 27.3198 50.8018C26.8997 51.3714 26.4642 51.8365 25.9849 52.2128C25.5042 52.5878 25.0249 52.7385 24.5597 52.6483C23.9747 52.5427 23.525 52.0633 23.2248 51.1923C22.9091 50.3225 22.73 49.1821 22.6694 47.7866C22.6243 46.3911 22.6849 44.8462 22.864 43.1504C23.0289 41.4547 23.2995 39.7448 23.659 37.9885C24.0044 36.2335 24.4244 34.5829 24.9347 33.007L22.2494 32.0921C21.5896 34.1332 21.0484 36.1884 20.6284 38.2746C20.1928 40.3607 19.9235 42.3554 19.8024 44.2612C19.7419 45.1309 19.7122 46.0471 19.7277 47.0367C19.7277 48.0276 19.8024 49.0017 19.9532 49.963C20.1027 50.923 20.3436 51.8082 20.6735 52.6187C21.0033 53.4292 21.4389 54.1044 22.0084 54.6598C22.5638 55.1997 23.2841 55.545 24.1538 55.6648C24.9192 55.7847 25.6395 55.6803 26.3289 55.3504C27.0041 55.0206 27.6497 54.5554 28.2489 53.9704C28.8493 53.3854 29.4047 52.7398 29.884 52.0492C30.3647 51.3443 30.7847 50.6988 31.1442 50.0687C31.9547 50.8186 32.84 51.3894 33.8154 51.7786L34.9712 49.2272C34.4906 49.0172 34.0409 48.7775 33.6363 48.4773C33.2162 48.1925 32.8412 47.8627 32.4804 47.4864C32.5861 47.2609 32.7201 46.9607 32.9005 46.5857C33.0809 46.2107 33.26 45.8203 33.4404 45.4157H33.443ZM32.3632 40.2087C32.1532 41.1236 31.898 41.9946 31.5978 42.8051C31.2976 43.6298 30.9831 44.2908 30.652 44.8152C30.3518 44.3204 30.0966 43.6594 29.857 42.8193C29.6173 41.9946 29.4524 41.1094 29.3622 40.1481C29.272 39.2023 29.2874 38.3171 29.4369 37.5079C29.482 37.2528 29.5722 36.9229 29.7075 36.4874C29.8428 36.0518 30.0374 35.6627 30.308 35.3174C30.5785 34.972 30.9226 34.8071 31.3581 34.8367C31.8839 34.8522 32.2434 35.1215 32.4534 35.6472C32.6634 36.1575 32.7536 36.8172 32.724 37.6277C32.6943 38.4382 32.5745 39.308 32.3632 40.2087Z" fill="#545454"/>
<path d="M49.1406 36.5626V32.8271H37.2422V55.619H49.1406V51.8835H41.774V45.6418H48.0905V41.9063H41.774V36.5652H49.1406V36.5626Z" fill="#545454"/>
<path d="M64.0403 42.8648C64.6704 41.8301 65.0002 40.6291 65.0002 39.2633C65.0002 37.1926 64.4745 35.6025 63.4101 34.4918C62.36 33.381 60.7699 32.8257 58.6541 32.8257H51.1367V55.6175H55.6685V45.8941H56.9146C57.7392 45.8941 58.3848 46.1042 58.8345 46.5242C58.9543 46.6299 59.0445 46.7639 59.1347 46.9288C59.3744 47.3489 59.4942 47.9339 59.4942 48.6838V55.6162H64.0403V48.3991C64.0403 47.4533 63.7851 46.6737 63.3045 46.0887C62.8689 45.563 62.2543 45.264 61.4735 45.188C61.3833 45.1584 61.2789 45.1429 61.1732 45.1429V44.978C62.4334 44.5875 63.3934 43.8827 64.039 42.8622L64.0403 42.8648ZM58.0987 42.0994H55.6685V36.5934H58.0987C58.819 36.5934 59.4195 36.8034 59.8989 37.208C60.3795 37.6281 60.6191 38.3188 60.6191 39.2633C60.6191 40.2078 60.3795 40.9294 59.8989 41.3932C59.4182 41.8571 58.819 42.0981 58.0987 42.0981V42.0994Z" fill="#545454"/>
<path d="M97.8513 40.0439C97.4764 40.0594 97.1014 40.1045 96.7264 40.1341C96.6517 39.5195 96.5164 38.7837 96.3515 37.959C96.1711 37.1344 95.9018 36.3084 95.5564 35.4837C95.1969 34.6732 94.7305 33.9684 94.1455 33.3976C93.5759 32.8126 92.8402 32.4673 91.9395 32.3629C90.9937 32.2572 90.1084 32.408 89.2992 32.7984C88.4887 33.203 87.7543 33.7738 87.0932 34.5083C86.4335 35.2582 85.833 36.1138 85.3073 37.0596C84.7816 38.0196 84.3164 38.995 83.9118 40.0156C83.5072 41.0361 83.1619 41.9961 82.8913 42.9109C82.2908 44.9211 81.8256 47.0227 81.4958 49.2132C81.1659 51.4192 81.001 53.5492 81.001 55.6199H83.8667C83.8667 54.2991 83.9569 52.874 84.1373 51.3587C84.3319 49.8433 84.587 48.328 84.9182 46.7972C85.248 45.2522 85.6385 43.7962 86.1036 42.3865C86.5533 40.991 87.0636 39.7463 87.619 38.6652C88.1885 37.5699 88.7748 36.7143 89.3894 36.0997C90.0195 35.4696 90.6651 35.1693 91.3248 35.199C91.8055 35.2144 92.1946 35.4386 92.5258 35.8742C92.8414 36.3097 93.0953 36.8496 93.2912 37.4797C93.5012 38.1098 93.6507 38.7399 93.7563 39.3558C93.8465 39.9859 93.9213 40.4807 93.9664 40.8557C93.6958 40.9614 93.4264 41.0812 93.1713 41.2152C92.9162 41.3505 92.6611 41.4858 92.4059 41.6353C91.1457 42.3401 90.0505 43.331 89.1201 44.6208C88.1898 45.8965 87.5146 47.2469 87.1242 48.6566C86.8845 49.5869 86.7788 50.5327 86.8085 51.4772C86.8536 52.4075 87.034 53.2773 87.3638 54.0723C87.6795 54.8532 88.1589 55.4833 88.7748 55.9626C89.3907 56.442 90.1548 56.6829 91.0401 56.7126C91.9549 56.728 92.7358 56.5322 93.3813 56.1276C94.0114 55.723 94.5514 55.1818 94.9714 54.522C95.4069 53.8468 95.7368 53.1111 95.9919 52.316C96.2316 51.5352 96.4275 50.7556 96.5473 49.9748C96.6671 49.1939 96.7573 48.5045 96.8179 47.8744C96.863 47.2598 96.8926 46.7946 96.9236 46.4789C97.0292 45.3231 97.0589 44.1531 97.0138 42.9973C97.2985 42.9522 97.6142 42.9225 97.9286 42.8916C98.2585 42.862 98.5884 42.8465 98.9492 42.8761L98.9788 40.0104C98.6038 40.0104 98.2289 40.0259 97.8539 40.0401L97.8513 40.0439ZM94.1004 46.0911C94.0553 47.0961 93.9509 48.1321 93.786 49.2119C93.6365 50.0521 93.4406 50.8329 93.2164 51.5829C92.9909 52.3186 92.7062 52.9178 92.3466 53.3379C92.0013 53.7579 91.5658 53.9383 91.0413 53.8481C90.6509 53.7876 90.3507 53.5775 90.1406 53.218C89.9306 52.8431 89.7953 52.423 89.736 51.9578C89.6755 51.4772 89.6613 51.043 89.7064 50.6525C89.8559 49.2725 90.3069 47.9968 91.0568 46.7959C91.8222 45.595 92.8569 44.635 94.1777 43.9302C94.1777 44.3657 94.1622 45.086 94.1029 46.0911H94.1004Z" fill="#545454"/>
<path d="M113.607 42.8648C114.252 41.8301 114.582 40.6291 114.582 39.2633C114.582 37.1926 114.042 35.6025 112.992 34.4918C111.942 33.381 110.352 32.8257 108.236 32.8257H100.719V55.6175H105.251V45.8941H106.497C107.321 45.8941 107.967 46.1042 108.402 46.5242C108.852 46.9443 109.078 47.6646 109.078 48.6851V55.6175H113.609V48.4004C113.609 47.4546 113.37 46.675 112.889 46.09C112.394 45.505 111.688 45.1893 110.759 45.1442V44.9793C112.019 44.5888 112.979 43.884 113.609 42.8635L113.607 42.8648ZM109.481 41.3945C109 41.8597 108.401 42.0994 107.681 42.0994H105.251V36.5934H107.681C108.401 36.5934 109.002 36.8034 109.481 37.208C109.962 37.6281 110.201 38.3188 110.201 39.2633C110.201 40.2078 109.962 40.9294 109.481 41.3932V41.3945Z" fill="#545454"/>
<path d="M115.542 32.8271V36.5626H120.734V55.6177H125.265V36.5626H130.427V32.8271H115.543H115.542Z" fill="#545454"/>
<path d="M143.99 51.8822V32.8271H139.444V55.619H151.358V51.8835H143.992L143.99 51.8822Z" fill="#545454"/>
<path d="M165.551 34.2669C164.245 32.9771 162.55 32.3315 160.434 32.3315C158.318 32.3315 156.532 32.9771 155.213 34.2669C153.878 35.5426 153.217 37.3878 153.217 39.7884V48.6562C153.217 51.0413 153.877 52.8723 155.213 54.1621C156.534 55.4378 158.273 56.0834 160.434 56.0834C161.68 56.0834 162.835 55.8128 163.9 55.2729C164.966 54.733 165.836 53.9225 166.495 52.8427C167.155 51.7474 167.486 50.3519 167.486 48.6562V39.7884C167.486 37.3878 166.841 35.5426 165.551 34.2669ZM162.956 48.1317C162.956 48.852 162.881 49.5272 162.73 50.1277C162.581 50.7423 162.34 51.2384 161.965 51.6276C161.604 52.0025 161.095 52.1971 160.434 52.1971C159.399 52.1971 158.693 51.8221 158.318 51.0722C157.943 50.3068 157.763 49.3314 157.763 48.1317V40.2999C157.763 39.5642 157.823 38.889 157.973 38.2743C158.122 37.6597 158.377 37.1494 158.754 36.7745C159.129 36.415 159.654 36.2191 160.344 36.2191C161.033 36.2191 161.545 36.4137 161.92 36.7745C162.295 37.1494 162.565 37.6597 162.715 38.2743C162.864 38.889 162.954 39.5642 162.954 40.2999V48.1317H162.956Z" fill="#545454"/>
<path d="M182.444 45.4157C182.639 45.0111 182.803 44.6658 182.939 44.3501C183.088 44.0344 183.178 43.8398 183.224 43.7496C183.673 42.7445 184.034 41.6789 184.289 40.5837C184.529 39.4884 184.649 38.4228 184.635 37.4022C184.635 36.3675 184.47 35.4514 184.154 34.6267C183.854 33.8162 183.373 33.1706 182.729 32.6913C182.083 32.2107 181.243 31.9865 180.208 32.0006C179.053 32.0303 178.063 32.4954 177.252 33.4116C176.442 34.3123 175.902 35.5119 175.647 37.0131C175.407 38.3029 175.376 39.6095 175.541 40.929C175.706 42.2498 176.022 43.5099 176.501 44.7096C176.966 45.895 177.522 46.9452 178.152 47.8305C177.987 48.1152 177.747 48.5507 177.432 49.1061C177.102 49.6615 176.741 50.231 176.321 50.8018C175.901 51.3714 175.465 51.8365 174.986 52.2128C174.505 52.5878 174.026 52.7385 173.561 52.6483C172.976 52.5427 172.526 52.0633 172.226 51.1923C171.91 50.3225 171.731 49.1821 171.67 47.7866C171.625 46.3911 171.686 44.8462 171.865 43.1504C172.03 41.4547 172.301 39.7448 172.66 37.9885C173.005 36.2335 173.425 34.5829 173.936 33.007L171.25 32.0921C170.591 34.1332 170.049 36.1884 169.629 38.2746C169.194 40.3607 168.925 42.3554 168.803 44.2612C168.743 45.1309 168.713 46.0471 168.729 47.0367C168.729 48.0276 168.803 49.0017 168.954 49.963C169.104 50.923 169.345 51.8082 169.674 52.6187C170.004 53.4292 170.44 54.1044 171.009 54.6598C171.565 55.1997 172.285 55.545 173.155 55.6648C173.92 55.7847 174.641 55.6803 175.33 55.3504C176.005 55.0206 176.651 54.5554 177.25 53.9704C177.85 53.3854 178.406 52.7398 178.885 52.0492C179.366 51.3443 179.786 50.6988 180.145 50.0687C180.956 50.8186 181.841 51.3894 182.816 51.7786L183.972 49.2272C183.492 49.0172 183.042 48.7775 182.637 48.4773C182.217 48.1925 181.842 47.8627 181.481 47.4864C181.587 47.2609 181.721 46.9607 181.901 46.5857C182.082 46.2107 182.261 45.8203 182.441 45.4157H182.444ZM181.364 40.2087C181.154 41.1236 180.899 41.9946 180.599 42.8051C180.299 43.6298 179.984 44.2908 179.653 44.8152C179.353 44.3204 179.098 43.6594 178.858 42.8193C178.618 41.9946 178.453 41.1094 178.363 40.1481C178.273 39.2023 178.288 38.3171 178.438 37.5079C178.483 37.2528 178.573 36.9229 178.708 36.4874C178.844 36.0518 179.038 35.6627 179.309 35.3174C179.58 34.972 179.924 34.8071 180.359 34.8367C180.885 34.8522 181.244 35.1215 181.454 35.6472C181.664 36.1575 181.755 36.8172 181.725 37.6277C181.695 38.4382 181.575 39.308 181.364 40.2087Z" fill="#545454"/>
<path d="M198.142 36.5626V32.8271H186.243V55.619H198.142V51.8835H190.775V45.6418H197.091V41.9063H190.775V36.5652H198.142V36.5626Z" fill="#545454"/>
<path d="M213.041 42.8648C213.671 41.8301 214.001 40.6291 214.001 39.2633C214.001 37.1926 213.475 35.6025 212.411 34.4918C211.361 33.381 209.771 32.8257 207.655 32.8257H200.138V55.6175H204.67V45.8941H205.916C206.74 45.8941 207.386 46.1042 207.835 46.5242C207.955 46.6299 208.046 46.7639 208.136 46.9288C208.375 47.3489 208.495 47.9339 208.495 48.6838V55.6162H213.041V48.3991C213.041 47.4533 212.786 46.6737 212.305 46.0887C211.87 45.563 211.255 45.264 210.474 45.188C210.384 45.1584 210.28 45.1429 210.174 45.1429V44.978C211.434 44.5875 212.394 43.8827 213.04 42.8622L213.041 42.8648ZM207.1 42.0994H204.67V36.5934H207.1C207.82 36.5934 208.42 36.8034 208.9 37.208C209.38 37.6281 209.62 38.3188 209.62 39.2633C209.62 40.2078 209.38 40.9294 208.9 41.3932C208.419 41.8571 207.82 42.0981 207.1 42.0981V42.0994Z" fill="#545454"/>
<path d="M246.851 40.0439C246.476 40.0594 246.101 40.1045 245.726 40.1341C245.652 39.5195 245.516 38.7837 245.351 37.959C245.171 37.1344 244.902 36.3084 244.556 35.4837C244.197 34.6732 243.73 33.9684 243.145 33.3976C242.576 32.8126 241.84 32.4673 240.939 32.3629C239.994 32.2572 239.108 32.408 238.299 32.7984C237.489 33.203 236.754 33.7738 236.093 34.5083C235.433 35.2582 234.833 36.1138 234.307 37.0596C233.782 38.0196 233.316 38.995 232.912 40.0156C232.507 41.0361 232.162 41.9961 231.891 42.9109C231.291 44.9211 230.826 47.0227 230.496 49.2132C230.166 51.4192 230.001 53.5492 230.001 55.6199H232.867C232.867 54.2991 232.957 52.874 233.137 51.3587C233.332 49.8433 233.587 48.328 233.918 46.7972C234.248 45.2522 234.638 43.7962 235.104 42.3865C235.553 40.991 236.064 39.7463 236.619 38.6652C237.188 37.5699 237.775 36.7143 238.389 36.0997C239.02 35.4696 239.665 35.1693 240.325 35.199C240.805 35.2144 241.195 35.4386 241.526 35.8742C241.841 36.3097 242.095 36.8496 242.291 37.4797C242.501 38.1098 242.651 38.7399 242.756 39.3558C242.847 39.9859 242.921 40.4807 242.966 40.8557C242.696 40.9614 242.426 41.0812 242.171 41.2152C241.916 41.3505 241.661 41.4858 241.406 41.6353C240.146 42.3401 239.05 43.331 238.12 44.6208C237.19 45.8965 236.515 47.2469 236.124 48.6566C235.884 49.5869 235.779 50.5327 235.808 51.4772C235.854 52.4075 236.034 53.2773 236.364 54.0723C236.68 54.8532 237.159 55.4833 237.775 55.9626C238.391 56.442 239.155 56.6829 240.04 56.7126C240.955 56.728 241.736 56.5322 242.381 56.1276C243.011 55.723 243.551 55.1818 243.971 54.522C244.407 53.8468 244.737 53.1111 244.992 52.316C245.232 51.5352 245.427 50.7556 245.547 49.9748C245.667 49.1939 245.757 48.5045 245.818 47.8744C245.863 47.2598 245.893 46.7946 245.924 46.4789C246.029 45.3231 246.059 44.1531 246.014 42.9973C246.299 42.9522 246.614 42.9225 246.929 42.8916C247.259 42.862 247.588 42.8465 247.949 42.8761L247.979 40.0104C247.604 40.0104 247.229 40.0259 246.854 40.0401L246.851 40.0439ZM243.1 46.0911C243.055 47.0961 242.951 48.1321 242.786 49.2119C242.636 50.0521 242.441 50.8329 242.216 51.5829C241.991 52.3186 241.706 52.9178 241.347 53.3379C241.001 53.7579 240.566 53.9383 240.041 53.8481C239.651 53.7876 239.351 53.5775 239.141 53.218C238.931 52.8431 238.795 52.423 238.736 51.9578C238.675 51.4772 238.661 51.043 238.706 50.6525C238.856 49.2725 239.307 47.9968 240.057 46.7959C240.822 45.595 241.857 44.635 243.178 43.9302C243.178 44.3657 243.162 45.086 243.103 46.0911H243.1Z" fill="#545454"/>
<path d="M262.607 42.8648C263.252 41.8301 263.582 40.6291 263.582 39.2633C263.582 37.1926 263.042 35.6025 261.992 34.4918C260.942 33.381 259.352 32.8257 257.236 32.8257H249.719V55.6175H254.251V45.8941H255.497C256.321 45.8941 256.967 46.1042 257.402 46.5242C257.852 46.9443 258.078 47.6646 258.078 48.6851V55.6175H262.609V48.4004C262.609 47.4546 262.37 46.675 261.889 46.09C261.394 45.505 260.688 45.1893 259.759 45.1442V44.9793C261.019 44.5888 261.979 43.884 262.609 42.8635L262.607 42.8648ZM258.481 41.3945C258 41.8597 257.401 42.0994 256.681 42.0994H254.251V36.5934H256.681C257.401 36.5934 258.002 36.8034 258.481 37.208C258.962 37.6281 259.201 38.3188 259.201 39.2633C259.201 40.2078 258.962 40.9294 258.481 41.3932V41.3945Z" fill="#545454"/>
<path d="M264.542 32.8271V36.5626H269.734V55.6177H274.265V36.5626H279.427V32.8271H264.543H264.542Z" fill="#545454"/>
<path d="M292.99 51.8822V32.8271H288.444V55.619H300.358V51.8835H292.992L292.99 51.8822Z" fill="#545454"/>
<path d="M30.8513 73.0439C30.4764 73.0594 30.1014 73.1045 29.7264 73.1341C29.6517 72.5195 29.5164 71.7837 29.3515 70.959C29.1711 70.1344 28.9018 69.3084 28.5564 68.4837C28.1969 67.6732 27.7305 66.9684 27.1455 66.3976C26.5759 65.8126 25.8402 65.4673 24.9395 65.3629C23.9937 65.2572 23.1084 65.408 22.2992 65.7984C21.4887 66.203 20.7543 66.7738 20.0932 67.5083C19.4335 68.2582 18.833 69.1138 18.3073 70.0596C17.7816 71.0196 17.3164 71.995 16.9118 73.0156C16.5072 74.0361 16.1619 74.9961 15.8913 75.9109C15.2908 77.9211 14.8256 80.0227 14.4958 82.2132C14.1659 84.4192 14.001 86.5492 14.001 88.6199H16.8667C16.8667 87.2991 16.9569 85.874 17.1373 84.3587C17.3319 82.8433 17.587 81.328 17.9182 79.7972C18.248 78.2522 18.6385 76.7962 19.1036 75.3865C19.5533 73.991 20.0636 72.7463 20.619 71.6652C21.1885 70.5699 21.7748 69.7143 22.3894 69.0997C23.0195 68.4696 23.6651 68.1693 24.3248 68.199C24.8055 68.2144 25.1946 68.4386 25.5258 68.8742C25.8414 69.3097 26.0953 69.8496 26.2912 70.4797C26.5012 71.1098 26.6507 71.7399 26.7563 72.3558C26.8465 72.9859 26.9213 73.4807 26.9664 73.8557C26.6958 73.9614 26.4264 74.0812 26.1713 74.2152C25.9162 74.3505 25.6611 74.4858 25.4059 74.6353C24.1457 75.3401 23.0505 76.331 22.1201 77.6208C21.1898 78.8965 20.5146 80.2469 20.1242 81.6566C19.8845 82.5869 19.7788 83.5327 19.8085 84.4772C19.8536 85.4075 20.034 86.2773 20.3638 87.0723C20.6795 87.8532 21.1589 88.4833 21.7748 88.9626C22.3907 89.442 23.1548 89.6829 24.0401 89.7126C24.9549 89.728 25.7358 89.5322 26.3813 89.1276C27.0114 88.723 27.5514 88.1818 27.9714 87.522C28.4069 86.8468 28.7368 86.1111 28.9919 85.316C29.2316 84.5352 29.4275 83.7556 29.5473 82.9748C29.6671 82.1939 29.7573 81.5045 29.8179 80.8744C29.863 80.2598 29.8926 79.7946 29.9236 79.4789C30.0292 78.3231 30.0589 77.1531 30.0138 75.9973C30.2985 75.9522 30.6142 75.9225 30.9286 75.8916C31.2585 75.862 31.5884 75.8465 31.9492 75.8761L31.9788 73.0104C31.6038 73.0104 31.2289 73.0259 30.8539 73.0401L30.8513 73.0439ZM27.1004 79.0911C27.0553 80.0961 26.9509 81.1321 26.786 82.2119C26.6365 83.0521 26.4406 83.8329 26.2164 84.5829C25.9909 85.3186 25.7062 85.9178 25.3466 86.3379C25.0013 86.7579 24.5658 86.9383 24.0413 86.8481C23.6509 86.7876 23.3507 86.5775 23.1406 86.218C22.9306 85.8431 22.7953 85.423 22.736 84.9578C22.6755 84.4772 22.6613 84.043 22.7064 83.6525C22.8559 82.2725 23.3069 80.9968 24.0568 79.7959C24.8222 78.595 25.8569 77.635 27.1777 76.9302C27.1777 77.3657 27.1622 78.086 27.1029 79.0911H27.1004Z" fill="#545454"/>
<path d="M46.6068 75.8648C47.2524 74.8301 47.5822 73.6291 47.5822 72.2633C47.5822 70.1926 47.0423 68.6025 45.9922 67.4918C44.942 66.381 43.3519 65.8257 41.2361 65.8257H33.7188V88.6175H38.2506V78.8941H39.4966C40.3213 78.8941 40.9668 79.1042 41.4024 79.5242C41.8521 79.9443 42.0776 80.6646 42.0776 81.6851V88.6175H46.6094V81.4004C46.6094 80.4546 46.3697 79.675 45.8891 79.09C45.3943 78.505 44.6882 78.1893 43.7591 78.1442V77.9793C45.0193 77.5888 45.9793 76.884 46.6094 75.8635L46.6068 75.8648ZM42.4809 74.3945C42.0002 74.8597 41.4011 75.0994 40.6808 75.0994H38.2506V69.5934H40.6808C41.4011 69.5934 42.0015 69.8034 42.4809 70.208C42.9615 70.6281 43.2012 71.3188 43.2012 72.2633C43.2012 73.2078 42.9615 73.9294 42.4809 74.3932V74.3945Z" fill="#545454"/>
<path d="M48.542 65.8271V69.5626H53.7336V88.6177H58.2654V69.5626H63.4273V65.8271H48.5433H48.542Z" fill="#545454"/>
<path d="M76.9903 84.8822V65.8271H72.4443V88.619H84.3583V84.8835H76.9916L76.9903 84.8822Z" fill="#545454"/>
<path d="M98.5508 67.2669C97.2455 65.9771 95.5498 65.3315 93.434 65.3315C91.3182 65.3315 89.5322 65.9771 88.2128 67.2669C86.8778 68.5426 86.2168 70.3878 86.2168 72.7884V81.6562C86.2168 84.0413 86.8765 85.8723 88.2128 87.1621C89.5335 88.4378 91.2731 89.0834 93.434 89.0834C94.68 89.0834 95.8345 88.8128 96.9002 88.2729C97.9658 87.733 98.8356 86.9225 99.4953 85.8427C100.155 84.7474 100.486 83.3519 100.486 81.6562V72.7884C100.486 70.3878 99.8406 68.5426 98.5508 67.2669ZM95.9556 81.1317C95.9556 81.852 95.8809 82.5272 95.7302 83.1277C95.5807 83.7423 95.3397 84.2384 94.9648 84.6276C94.604 85.0025 94.095 85.1971 93.434 85.1971C92.3993 85.1971 91.6931 84.8221 91.3182 84.0722C90.9432 83.3068 90.7628 82.3314 90.7628 81.1317V73.2999C90.7628 72.5642 90.8234 71.889 90.9728 71.2743C91.1223 70.6597 91.3774 70.1494 91.7537 69.7745C92.1287 69.415 92.6544 69.2191 93.3438 69.2191C94.0331 69.2191 94.5447 69.4137 94.9197 69.7745C95.2946 70.1494 95.5652 70.6597 95.7147 71.2743C95.8642 71.889 95.9544 72.5642 95.9544 73.2999V81.1317H95.9556Z" fill="#545454"/>
<path d="M115.444 78.4157C115.639 78.0111 115.803 77.6658 115.939 77.3501C116.088 77.0344 116.178 76.8398 116.224 76.7496C116.673 75.7445 117.034 74.6789 117.289 73.5837C117.529 72.4884 117.649 71.4228 117.635 70.4022C117.635 69.3675 117.47 68.4514 117.154 67.6267C116.854 66.8162 116.373 66.1706 115.729 65.6913C115.083 65.2107 114.243 64.9865 113.208 65.0006C112.053 65.0303 111.063 65.4954 110.252 66.4116C109.442 67.3123 108.902 68.5119 108.647 70.0131C108.407 71.3029 108.376 72.6095 108.541 73.929C108.706 75.2498 109.022 76.5099 109.501 77.7096C109.966 78.895 110.522 79.9452 111.152 80.8305C110.987 81.1152 110.747 81.5507 110.432 82.1061C110.102 82.6615 109.741 83.231 109.321 83.8018C108.901 84.3714 108.465 84.8365 107.986 85.2128C107.505 85.5878 107.026 85.7385 106.561 85.6483C105.976 85.5427 105.526 85.0633 105.226 84.1923C104.91 83.3225 104.731 82.1821 104.67 80.7866C104.625 79.3911 104.686 77.8462 104.865 76.1504C105.03 74.4547 105.301 72.7448 105.66 70.9885C106.005 69.2335 106.425 67.5829 106.936 66.007L104.25 65.0921C103.591 67.1332 103.049 69.1884 102.629 71.2746C102.194 73.3607 101.925 75.3554 101.803 77.2612C101.743 78.1309 101.713 79.0471 101.729 80.0367C101.729 81.0276 101.803 82.0017 101.954 82.963C102.104 83.923 102.345 84.8082 102.674 85.6187C103.004 86.4292 103.44 87.1044 104.009 87.6598C104.565 88.1997 105.285 88.545 106.155 88.6648C106.92 88.7847 107.641 88.6803 108.33 88.3504C109.005 88.0206 109.651 87.5554 110.25 86.9704C110.85 86.3854 111.406 85.7398 111.885 85.0492C112.366 84.3443 112.786 83.6988 113.145 83.0687C113.956 83.8186 114.841 84.3894 115.816 84.7786L116.972 82.2272C116.492 82.0172 116.042 81.7775 115.637 81.4773C115.217 81.1925 114.842 80.8627 114.481 80.4864C114.587 80.2609 114.721 79.9607 114.901 79.5857C115.082 79.2107 115.261 78.8203 115.441 78.4157H115.444ZM114.364 73.2087C114.154 74.1236 113.899 74.9946 113.599 75.8051C113.299 76.6298 112.984 77.2908 112.653 77.8152C112.353 77.3204 112.098 76.6594 111.858 75.8193C111.618 74.9946 111.453 74.1094 111.363 73.1481C111.273 72.2023 111.288 71.3171 111.438 70.5079C111.483 70.2528 111.573 69.9229 111.708 69.4874C111.844 69.0518 112.038 68.6627 112.309 68.3174C112.58 67.972 112.924 67.8071 113.359 67.8367C113.885 67.8522 114.244 68.1215 114.454 68.6472C114.664 69.1575 114.755 69.8172 114.725 70.6277C114.695 71.4382 114.575 72.308 114.364 73.2087Z" fill="#545454"/>
<path d="M131.142 69.5626V65.8271H119.243V88.619H131.142V84.8835H123.775V78.6418H130.091V74.9063H123.775V69.5652H131.142V69.5626Z" fill="#545454"/>
<path d="M146.041 75.8648C146.671 74.8301 147.001 73.6291 147.001 72.2633C147.001 70.1926 146.475 68.6025 145.411 67.4918C144.361 66.381 142.771 65.8257 140.655 65.8257H133.138V88.6175H137.67V78.8941H138.916C139.74 78.8941 140.386 79.1042 140.835 79.5242C140.955 79.6299 141.046 79.7639 141.136 79.9288C141.375 80.3489 141.495 80.9339 141.495 81.6838V88.6162H146.041V81.3991C146.041 80.4533 145.786 79.6737 145.305 79.0887C144.87 78.563 144.255 78.264 143.474 78.188C143.384 78.1584 143.28 78.1429 143.174 78.1429V77.978C144.434 77.5875 145.394 76.8827 146.04 75.8622L146.041 75.8648ZM140.1 75.0994H137.67V69.5934H140.1C140.82 69.5934 141.42 69.8034 141.9 70.208C142.38 70.6281 142.62 71.3188 142.62 72.2633C142.62 73.2078 142.38 73.9294 141.9 74.3932C141.419 74.8571 140.82 75.0981 140.1 75.0981V75.0994Z" fill="#545454"/>
<path d="M179.851 73.0439C179.476 73.0594 179.101 73.1045 178.726 73.1341C178.652 72.5195 178.516 71.7837 178.351 70.959C178.171 70.1344 177.902 69.3084 177.556 68.4837C177.197 67.6732 176.73 66.9684 176.145 66.3976C175.576 65.8126 174.84 65.4673 173.939 65.3629C172.994 65.2572 172.108 65.408 171.299 65.7984C170.489 66.203 169.754 66.7738 169.093 67.5083C168.433 68.2582 167.833 69.1138 167.307 70.0596C166.782 71.0196 166.316 71.995 165.912 73.0156C165.507 74.0361 165.162 74.9961 164.891 75.9109C164.291 77.9211 163.826 80.0227 163.496 82.2132C163.166 84.4192 163.001 86.5492 163.001 88.6199H165.867C165.867 87.2991 165.957 85.874 166.137 84.3587C166.332 82.8433 166.587 81.328 166.918 79.7972C167.248 78.2522 167.638 76.7962 168.104 75.3865C168.553 73.991 169.064 72.7463 169.619 71.6652C170.188 70.5699 170.775 69.7143 171.389 69.0997C172.02 68.4696 172.665 68.1693 173.325 68.199C173.805 68.2144 174.195 68.4386 174.526 68.8742C174.841 69.3097 175.095 69.8496 175.291 70.4797C175.501 71.1098 175.651 71.7399 175.756 72.3558C175.847 72.9859 175.921 73.4807 175.966 73.8557C175.696 73.9614 175.426 74.0812 175.171 74.2152C174.916 74.3505 174.661 74.4858 174.406 74.6353C173.146 75.3401 172.05 76.331 171.12 77.6208C170.19 78.8965 169.515 80.2469 169.124 81.6566C168.884 82.5869 168.779 83.5327 168.808 84.4772C168.854 85.4075 169.034 86.2773 169.364 87.0723C169.68 87.8532 170.159 88.4833 170.775 88.9626C171.391 89.442 172.155 89.6829 173.04 89.7126C173.955 89.728 174.736 89.5322 175.381 89.1276C176.011 88.723 176.551 88.1818 176.971 87.522C177.407 86.8468 177.737 86.1111 177.992 85.316C178.232 84.5352 178.427 83.7556 178.547 82.9748C178.667 82.1939 178.757 81.5045 178.818 80.8744C178.863 80.2598 178.893 79.7946 178.924 79.4789C179.029 78.3231 179.059 77.1531 179.014 75.9973C179.299 75.9522 179.614 75.9225 179.929 75.8916C180.259 75.862 180.588 75.8465 180.949 75.8761L180.979 73.0104C180.604 73.0104 180.229 73.0259 179.854 73.0401L179.851 73.0439ZM176.1 79.0911C176.055 80.0961 175.951 81.1321 175.786 82.2119C175.636 83.0521 175.441 83.8329 175.216 84.5829C174.991 85.3186 174.706 85.9178 174.347 86.3379C174.001 86.7579 173.566 86.9383 173.041 86.8481C172.651 86.7876 172.351 86.5775 172.141 86.218C171.931 85.8431 171.795 85.423 171.736 84.9578C171.675 84.4772 171.661 84.043 171.706 83.6525C171.856 82.2725 172.307 80.9968 173.057 79.7959C173.822 78.595 174.857 77.635 176.178 76.9302C176.178 77.3657 176.162 78.086 176.103 79.0911H176.1Z" fill="#545454"/>
<path d="M195.607 75.8648C196.252 74.8301 196.582 73.6291 196.582 72.2633C196.582 70.1926 196.042 68.6025 194.992 67.4918C193.942 66.381 192.352 65.8257 190.236 65.8257H182.719V88.6175H187.251V78.8941H188.497C189.321 78.8941 189.967 79.1042 190.402 79.5242C190.852 79.9443 191.078 80.6646 191.078 81.6851V88.6175H195.609V81.4004C195.609 80.4546 195.37 79.675 194.889 79.09C194.394 78.505 193.688 78.1893 192.759 78.1442V77.9793C194.019 77.5888 194.979 76.884 195.609 75.8635L195.607 75.8648ZM191.481 74.3945C191 74.8597 190.401 75.0994 189.681 75.0994H187.251V69.5934H189.681C190.401 69.5934 191.002 69.8034 191.481 70.208C191.962 70.6281 192.201 71.3188 192.201 72.2633C192.201 73.2078 191.962 73.9294 191.481 74.3932V74.3945Z" fill="#545454"/>
<path d="M197.542 65.8271V69.5626H202.734V88.6177H207.265V69.5626H212.427V65.8271H197.543H197.542Z" fill="#545454"/>
<path d="M225.99 84.8822V65.8271H221.444V88.619H233.358V84.8835H225.992L225.99 84.8822Z" fill="#545454"/>
<path d="M247.551 67.2669C246.245 65.9771 244.55 65.3315 242.434 65.3315C240.318 65.3315 238.532 65.9771 237.213 67.2669C235.878 68.5426 235.217 70.3878 235.217 72.7884V81.6562C235.217 84.0413 235.877 85.8723 237.213 87.1621C238.534 88.4378 240.273 89.0834 242.434 89.0834C243.68 89.0834 244.835 88.8128 245.9 88.2729C246.966 87.733 247.836 86.9225 248.495 85.8427C249.155 84.7474 249.486 83.3519 249.486 81.6562V72.7884C249.486 70.3878 248.841 68.5426 247.551 67.2669ZM244.956 81.1317C244.956 81.852 244.881 82.5272 244.73 83.1277C244.581 83.7423 244.34 84.2384 243.965 84.6276C243.604 85.0025 243.095 85.1971 242.434 85.1971C241.399 85.1971 240.693 84.8221 240.318 84.0722C239.943 83.3068 239.763 82.3314 239.763 81.1317V73.2999C239.763 72.5642 239.823 71.889 239.973 71.2743C240.122 70.6597 240.377 70.1494 240.754 69.7745C241.129 69.415 241.654 69.2191 242.344 69.2191C243.033 69.2191 243.545 69.4137 243.92 69.7745C244.295 70.1494 244.565 70.6597 244.715 71.2743C244.864 71.889 244.954 72.5642 244.954 73.2999V81.1317H244.956Z" fill="#545454"/>
<path d="M264.444 78.4157C264.639 78.0111 264.803 77.6658 264.939 77.3501C265.088 77.0344 265.178 76.8398 265.224 76.7496C265.673 75.7445 266.034 74.6789 266.289 73.5837C266.529 72.4884 266.649 71.4228 266.635 70.4022C266.635 69.3675 266.47 68.4514 266.154 67.6267C265.854 66.8162 265.373 66.1706 264.729 65.6913C264.083 65.2107 263.243 64.9865 262.208 65.0006C261.053 65.0303 260.063 65.4954 259.252 66.4116C258.442 67.3123 257.902 68.5119 257.647 70.0131C257.407 71.3029 257.376 72.6095 257.541 73.929C257.706 75.2498 258.022 76.5099 258.501 77.7096C258.966 78.895 259.522 79.9452 260.152 80.8305C259.987 81.1152 259.747 81.5507 259.432 82.1061C259.102 82.6615 258.741 83.231 258.321 83.8018C257.901 84.3714 257.465 84.8365 256.986 85.2128C256.505 85.5878 256.026 85.7385 255.561 85.6483C254.976 85.5427 254.526 85.0633 254.226 84.1923C253.91 83.3225 253.731 82.1821 253.67 80.7866C253.625 79.3911 253.686 77.8462 253.865 76.1504C254.03 74.4547 254.301 72.7448 254.66 70.9885C255.005 69.2335 255.425 67.5829 255.936 66.007L253.25 65.0921C252.591 67.1332 252.049 69.1884 251.629 71.2746C251.194 73.3607 250.925 75.3554 250.803 77.2612C250.743 78.1309 250.713 79.0471 250.729 80.0367C250.729 81.0276 250.803 82.0017 250.954 82.963C251.104 83.923 251.345 84.8082 251.674 85.6187C252.004 86.4292 252.44 87.1044 253.009 87.6598C253.565 88.1997 254.285 88.545 255.155 88.6648C255.92 88.7847 256.641 88.6803 257.33 88.3504C258.005 88.0206 258.651 87.5554 259.25 86.9704C259.85 86.3854 260.406 85.7398 260.885 85.0492C261.366 84.3443 261.786 83.6988 262.145 83.0687C262.956 83.8186 263.841 84.3894 264.816 84.7786L265.972 82.2272C265.492 82.0172 265.042 81.7775 264.637 81.4773C264.217 81.1925 263.842 80.8627 263.481 80.4864C263.587 80.2609 263.721 79.9607 263.901 79.5857C264.082 79.2107 264.261 78.8203 264.441 78.4157H264.444ZM263.364 73.2087C263.154 74.1236 262.899 74.9946 262.599 75.8051C262.299 76.6298 261.984 77.2908 261.653 77.8152C261.353 77.3204 261.098 76.6594 260.858 75.8193C260.618 74.9946 260.453 74.1094 260.363 73.1481C260.273 72.2023 260.288 71.3171 260.438 70.5079C260.483 70.2528 260.573 69.9229 260.708 69.4874C260.844 69.0518 261.038 68.6627 261.309 68.3174C261.58 67.972 261.924 67.8071 262.359 67.8367C262.885 67.8522 263.244 68.1215 263.454 68.6472C263.664 69.1575 263.755 69.8172 263.725 70.6277C263.695 71.4382 263.575 72.308 263.364 73.2087Z" fill="#545454"/>
<path d="M280.142 69.5626V65.8271H268.243V88.619H280.142V84.8835H272.775V78.6418H279.091V74.9063H272.775V69.5652H280.142V69.5626Z" fill="#545454"/>
<path d="M295.041 75.8648C295.671 74.8301 296.001 73.6291 296.001 72.2633C296.001 70.1926 295.475 68.6025 294.411 67.4918C293.361 66.381 291.771 65.8257 289.655 65.8257H282.138V88.6175H286.67V78.8941H287.916C288.74 78.8941 289.386 79.1042 289.835 79.5242C289.955 79.6299 290.046 79.7639 290.136 79.9288C290.375 80.3489 290.495 80.9339 290.495 81.6838V88.6162H295.041V81.3991C295.041 80.4533 294.786 79.6737 294.305 79.0887C293.87 78.563 293.255 78.264 292.474 78.188C292.384 78.1584 292.28 78.1429 292.174 78.1429V77.978C293.434 77.5875 294.394 76.8827 295.04 75.8622L295.041 75.8648ZM289.1 75.0994H286.67V69.5934H289.1C289.82 69.5934 290.42 69.8034 290.9 70.208C291.38 70.6281 291.62 71.3188 291.62 72.2633C291.62 73.2078 291.38 73.9294 290.9 74.3932C290.419 74.8571 289.82 75.0981 289.1 75.0981V75.0994Z" fill="#545454"/>
<path d="M24.8513 137.044C24.4764 137.059 24.1014 137.104 23.7264 137.134C23.6517 136.519 23.5164 135.784 23.3515 134.959C23.1711 134.134 22.9018 133.308 22.5564 132.484C22.1969 131.673 21.7305 130.968 21.1455 130.398C20.5759 129.813 19.8402 129.467 18.9395 129.363C17.9937 129.257 17.1084 129.408 16.2992 129.798C15.4887 130.203 14.7543 130.774 14.0932 131.508C13.4335 132.258 12.833 133.114 12.3073 134.06C11.7816 135.02 11.3164 135.995 10.9118 137.016C10.5072 138.036 10.1619 138.996 9.89128 139.911C9.29081 141.921 8.82565 144.023 8.49578 146.213C8.16591 148.419 8.00098 150.549 8.00098 152.62H10.8667C10.8667 151.299 10.9569 149.874 11.1373 148.359C11.3319 146.843 11.587 145.328 11.9182 143.797C12.248 142.252 12.6385 140.796 13.1036 139.386C13.5533 137.991 14.0636 136.746 14.619 135.665C15.1885 134.57 15.7748 133.714 16.3894 133.1C17.0195 132.47 17.6651 132.169 18.3248 132.199C18.8055 132.214 19.1946 132.439 19.5258 132.874C19.8414 133.31 20.0953 133.85 20.2912 134.48C20.5012 135.11 20.6507 135.74 20.7563 136.356C20.8465 136.986 20.9213 137.481 20.9664 137.856C20.6958 137.961 20.4264 138.081 20.1713 138.215C19.9162 138.351 19.6611 138.486 19.4059 138.635C18.1457 139.34 17.0505 140.331 16.1201 141.621C15.1898 142.897 14.5146 144.247 14.1242 145.657C13.8845 146.587 13.7788 147.533 13.8085 148.477C13.8536 149.408 14.034 150.277 14.3638 151.072C14.6795 151.853 15.1589 152.483 15.7748 152.963C16.3907 153.442 17.1548 153.683 18.0401 153.713C18.9549 153.728 19.7358 153.532 20.3813 153.128C21.0114 152.723 21.5514 152.182 21.9714 151.522C22.4069 150.847 22.7368 150.111 22.9919 149.316C23.2316 148.535 23.4275 147.756 23.5473 146.975C23.6671 146.194 23.7573 145.505 23.8179 144.874C23.863 144.26 23.8926 143.795 23.9236 143.479C24.0292 142.323 24.0589 141.153 24.0138 139.997C24.2985 139.952 24.6142 139.923 24.9286 139.892C25.2585 139.862 25.5884 139.847 25.9492 139.876L25.9788 137.01C25.6038 137.01 25.2289 137.026 24.8539 137.04L24.8513 137.044ZM21.1004 143.091C21.0553 144.096 20.9509 145.132 20.786 146.212C20.6365 147.052 20.4406 147.833 20.2164 148.583C19.9909 149.319 19.7062 149.918 19.3466 150.338C19.0013 150.758 18.5658 150.938 18.0413 150.848C17.6509 150.788 17.3507 150.578 17.1406 150.218C16.9306 149.843 16.7953 149.423 16.736 148.958C16.6755 148.477 16.6613 148.043 16.7064 147.653C16.8559 146.273 17.3069 144.997 18.0568 143.796C18.8222 142.595 19.8569 141.635 21.1777 140.93C21.1777 141.366 21.1622 142.086 21.1029 143.091H21.1004Z" fill="#545454"/>
<path d="M40.6068 139.865C41.2524 138.83 41.5822 137.629 41.5822 136.263C41.5822 134.193 41.0423 132.603 39.9922 131.492C38.942 130.381 37.3519 129.826 35.2361 129.826H27.7188V152.618H32.2506V142.894H33.4966C34.3213 142.894 34.9668 143.104 35.4024 143.524C35.8521 143.944 36.0776 144.665 36.0776 145.685V152.618H40.6094V145.4C40.6094 144.455 40.3697 143.675 39.8891 143.09C39.3943 142.505 38.6882 142.189 37.7591 142.144V141.979C39.0193 141.589 39.9793 140.884 40.6094 139.863L40.6068 139.865ZM36.4809 138.395C36.0002 138.86 35.4011 139.099 34.6808 139.099H32.2506V133.593H34.6808C35.4011 133.593 36.0015 133.803 36.4809 134.208C36.9615 134.628 37.2012 135.319 37.2012 136.263C37.2012 137.208 36.9615 137.929 36.4809 138.393V138.395Z" fill="#545454"/>
<path d="M42.542 129.827V133.563H47.7336V152.618H52.2654V133.563H57.4273V129.827H42.5433H42.542Z" fill="#545454"/>
<path d="M70.9903 148.882V129.827H66.4443V152.619H78.3583V148.883H70.9916L70.9903 148.882Z" fill="#545454"/>
<path d="M92.5508 131.267C91.2455 129.977 89.5498 129.332 87.434 129.332C85.3182 129.332 83.5322 129.977 82.2128 131.267C80.8778 132.543 80.2168 134.388 80.2168 136.788V145.656C80.2168 148.041 80.8765 149.872 82.2128 151.162C83.5335 152.438 85.2731 153.083 87.434 153.083C88.68 153.083 89.8345 152.813 90.9002 152.273C91.9658 151.733 92.8356 150.922 93.4953 149.843C94.155 148.747 94.4862 147.352 94.4862 145.656V136.788C94.4862 134.388 93.8406 132.543 92.5508 131.267ZM89.9556 145.132C89.9556 145.852 89.8809 146.527 89.7302 147.128C89.5807 147.742 89.3397 148.238 88.9648 148.628C88.604 149.003 88.095 149.197 87.434 149.197C86.3993 149.197 85.6931 148.822 85.3182 148.072C84.9432 147.307 84.7628 146.331 84.7628 145.132V137.3C84.7628 136.564 84.8234 135.889 84.9728 135.274C85.1223 134.66 85.3774 134.149 85.7537 133.774C86.1287 133.415 86.6544 133.219 87.3438 133.219C88.0331 133.219 88.5447 133.414 88.9197 133.774C89.2946 134.149 89.5652 134.66 89.7147 135.274C89.8642 135.889 89.9544 136.564 89.9544 137.3V145.132H89.9556Z" fill="#545454"/>
<path d="M109.444 142.416C109.639 142.011 109.803 141.666 109.939 141.35C110.088 141.034 110.178 140.84 110.224 140.75C110.673 139.745 111.034 138.679 111.289 137.584C111.529 136.488 111.649 135.423 111.635 134.402C111.635 133.368 111.47 132.451 111.154 131.627C110.854 130.816 110.373 130.171 109.729 129.691C109.083 129.211 108.243 128.986 107.208 129.001C106.053 129.03 105.063 129.495 104.252 130.412C103.442 131.312 102.902 132.512 102.647 134.013C102.407 135.303 102.376 136.61 102.541 137.929C102.706 139.25 103.022 140.51 103.501 141.71C103.966 142.895 104.522 143.945 105.152 144.83C104.987 145.115 104.747 145.551 104.432 146.106C104.102 146.661 103.741 147.231 103.321 147.802C102.901 148.371 102.465 148.837 101.986 149.213C101.505 149.588 101.026 149.739 100.561 149.648C99.9757 149.543 99.526 149.063 99.2258 148.192C98.9101 147.323 98.731 146.182 98.6704 144.787C98.6253 143.391 98.6859 141.846 98.865 140.15C99.0299 138.455 99.3005 136.745 99.66 134.989C100.005 133.234 100.425 131.583 100.936 130.007L98.2503 129.092C97.5906 131.133 97.0494 133.188 96.6294 135.275C96.1938 137.361 95.9245 139.355 95.8034 141.261C95.7428 142.131 95.7132 143.047 95.7287 144.037C95.7287 145.028 95.8034 146.002 95.9542 146.963C96.1036 147.923 96.3446 148.808 96.6744 149.619C97.0043 150.429 97.4399 151.104 98.0094 151.66C98.5648 152.2 99.2851 152.545 100.155 152.665C100.92 152.785 101.641 152.68 102.33 152.35C103.005 152.021 103.651 151.555 104.25 150.97C104.85 150.385 105.406 149.74 105.885 149.049C106.366 148.344 106.786 147.699 107.145 147.069C107.956 147.819 108.841 148.389 109.816 148.779L110.972 146.227C110.492 146.017 110.042 145.778 109.637 145.477C109.217 145.193 108.842 144.863 108.481 144.486C108.587 144.261 108.721 143.961 108.901 143.586C109.082 143.211 109.261 142.82 109.441 142.416H109.444ZM108.364 137.209C108.154 138.124 107.899 138.995 107.599 139.805C107.299 140.63 106.984 141.291 106.653 141.815C106.353 141.32 106.098 140.659 105.858 139.819C105.618 138.995 105.453 138.109 105.363 137.148C105.273 136.202 105.288 135.317 105.438 134.508C105.483 134.253 105.573 133.923 105.708 133.487C105.844 133.052 106.038 132.663 106.309 132.317C106.58 131.972 106.924 131.807 107.359 131.837C107.885 131.852 108.244 132.121 108.454 132.647C108.664 133.157 108.755 133.817 108.725 134.628C108.695 135.438 108.575 136.308 108.364 137.209Z" fill="#545454"/>
<path d="M125.142 133.563V129.827H113.243V152.619H125.142V148.883H117.775V142.642H124.091V138.906H117.775V133.565H125.142V133.563Z" fill="#545454"/>
<path d="M140.041 139.865C140.671 138.83 141.001 137.629 141.001 136.263C141.001 134.193 140.475 132.603 139.411 131.492C138.361 130.381 136.771 129.826 134.655 129.826H127.138V152.618H131.67V142.894H132.916C133.74 142.894 134.386 143.104 134.835 143.524C134.955 143.63 135.046 143.764 135.136 143.929C135.375 144.349 135.495 144.934 135.495 145.684V152.616H140.041V145.399C140.041 144.453 139.786 143.674 139.305 143.089C138.87 142.563 138.255 142.264 137.474 142.188C137.384 142.158 137.28 142.143 137.174 142.143V141.978C138.434 141.588 139.394 140.883 140.04 139.862L140.041 139.865ZM134.1 139.099H131.67V133.593H134.1C134.82 133.593 135.42 133.803 135.9 134.208C136.38 134.628 136.62 135.319 136.62 136.263C136.62 137.208 136.38 137.929 135.9 138.393C135.419 138.857 134.82 139.098 134.1 139.098V139.099Z" fill="#545454"/>
<path d="M173.851 137.044C173.476 137.059 173.101 137.104 172.726 137.134C172.652 136.519 172.516 135.784 172.351 134.959C172.171 134.134 171.902 133.308 171.556 132.484C171.197 131.673 170.73 130.968 170.145 130.398C169.576 129.813 168.84 129.467 167.939 129.363C166.994 129.257 166.108 129.408 165.299 129.798C164.489 130.203 163.754 130.774 163.093 131.508C162.433 132.258 161.833 133.114 161.307 134.06C160.782 135.02 160.316 135.995 159.912 137.016C159.507 138.036 159.162 138.996 158.891 139.911C158.291 141.921 157.826 144.023 157.496 146.213C157.166 148.419 157.001 150.549 157.001 152.62H159.867C159.867 151.299 159.957 149.874 160.137 148.359C160.332 146.843 160.587 145.328 160.918 143.797C161.248 142.252 161.638 140.796 162.104 139.386C162.553 137.991 163.064 136.746 163.619 135.665C164.188 134.57 164.775 133.714 165.389 133.1C166.02 132.47 166.665 132.169 167.325 132.199C167.805 132.214 168.195 132.439 168.526 132.874C168.841 133.31 169.095 133.85 169.291 134.48C169.501 135.11 169.651 135.74 169.756 136.356C169.847 136.986 169.921 137.481 169.966 137.856C169.696 137.961 169.426 138.081 169.171 138.215C168.916 138.351 168.661 138.486 168.406 138.635C167.146 139.34 166.05 140.331 165.12 141.621C164.19 142.897 163.515 144.247 163.124 145.657C162.884 146.587 162.779 147.533 162.808 148.477C162.854 149.408 163.034 150.277 163.364 151.072C163.68 151.853 164.159 152.483 164.775 152.963C165.391 153.442 166.155 153.683 167.04 153.713C167.955 153.728 168.736 153.532 169.381 153.128C170.011 152.723 170.551 152.182 170.971 151.522C171.407 150.847 171.737 150.111 171.992 149.316C172.232 148.535 172.427 147.756 172.547 146.975C172.667 146.194 172.757 145.505 172.818 144.874C172.863 144.26 172.893 143.795 172.924 143.479C173.029 142.323 173.059 141.153 173.014 139.997C173.299 139.952 173.614 139.923 173.929 139.892C174.259 139.862 174.588 139.847 174.949 139.876L174.979 137.01C174.604 137.01 174.229 137.026 173.854 137.04L173.851 137.044ZM170.1 143.091C170.055 144.096 169.951 145.132 169.786 146.212C169.636 147.052 169.441 147.833 169.216 148.583C168.991 149.319 168.706 149.918 168.347 150.338C168.001 150.758 167.566 150.938 167.041 150.848C166.651 150.788 166.351 150.578 166.141 150.218C165.931 149.843 165.795 149.423 165.736 148.958C165.675 148.477 165.661 148.043 165.706 147.653C165.856 146.273 166.307 144.997 167.057 143.796C167.822 142.595 168.857 141.635 170.178 140.93C170.178 141.366 170.162 142.086 170.103 143.091H170.1Z" fill="#545454"/>
<path d="M189.607 139.865C190.252 138.83 190.582 137.629 190.582 136.263C190.582 134.193 190.042 132.603 188.992 131.492C187.942 130.381 186.352 129.826 184.236 129.826H176.719V152.618H181.251V142.894H182.497C183.321 142.894 183.967 143.104 184.402 143.524C184.852 143.944 185.078 144.665 185.078 145.685V152.618H189.609V145.4C189.609 144.455 189.37 143.675 188.889 143.09C188.394 142.505 187.688 142.189 186.759 142.144V141.979C188.019 141.589 188.979 140.884 189.609 139.863L189.607 139.865ZM185.481 138.395C185 138.86 184.401 139.099 183.681 139.099H181.251V133.593H183.681C184.401 133.593 185.002 133.803 185.481 134.208C185.962 134.628 186.201 135.319 186.201 136.263C186.201 137.208 185.962 137.929 185.481 138.393V138.395Z" fill="#545454"/>
<path d="M191.542 129.827V133.563H196.734V152.618H201.265V133.563H206.427V129.827H191.543H191.542Z" fill="#545454"/>
<path d="M219.99 148.882V129.827H215.444V152.619H227.358V148.883H219.992L219.99 148.882Z" fill="#545454"/>
<path d="M241.551 131.267C240.245 129.977 238.55 129.332 236.434 129.332C234.318 129.332 232.532 129.977 231.213 131.267C229.878 132.543 229.217 134.388 229.217 136.788V145.656C229.217 148.041 229.877 149.872 231.213 151.162C232.534 152.438 234.273 153.083 236.434 153.083C237.68 153.083 238.835 152.813 239.9 152.273C240.966 151.733 241.836 150.922 242.495 149.843C243.155 148.747 243.486 147.352 243.486 145.656V136.788C243.486 134.388 242.841 132.543 241.551 131.267ZM238.956 145.132C238.956 145.852 238.881 146.527 238.73 147.128C238.581 147.742 238.34 148.238 237.965 148.628C237.604 149.003 237.095 149.197 236.434 149.197C235.399 149.197 234.693 148.822 234.318 148.072C233.943 147.307 233.763 146.331 233.763 145.132V137.3C233.763 136.564 233.823 135.889 233.973 135.274C234.122 134.66 234.377 134.149 234.754 133.774C235.129 133.415 235.654 133.219 236.344 133.219C237.033 133.219 237.545 133.414 237.92 133.774C238.295 134.149 238.565 134.66 238.715 135.274C238.864 135.889 238.954 136.564 238.954 137.3V145.132H238.956Z" fill="#545454"/>
<path d="M258.444 142.416C258.639 142.011 258.803 141.666 258.939 141.35C259.088 141.034 259.178 140.84 259.224 140.75C259.673 139.745 260.034 138.679 260.289 137.584C260.529 136.488 260.649 135.423 260.635 134.402C260.635 133.368 260.47 132.451 260.154 131.627C259.854 130.816 259.373 130.171 258.729 129.691C258.083 129.211 257.243 128.986 256.208 129.001C255.053 129.03 254.063 129.495 253.252 130.412C252.442 131.312 251.902 132.512 251.647 134.013C251.407 135.303 251.376 136.61 251.541 137.929C251.706 139.25 252.022 140.51 252.501 141.71C252.966 142.895 253.522 143.945 254.152 144.83C253.987 145.115 253.747 145.551 253.432 146.106C253.102 146.661 252.741 147.231 252.321 147.802C251.901 148.371 251.465 148.837 250.986 149.213C250.505 149.588 250.026 149.739 249.561 149.648C248.976 149.543 248.526 149.063 248.226 148.192C247.91 147.323 247.731 146.182 247.67 144.787C247.625 143.391 247.686 141.846 247.865 140.15C248.03 138.455 248.301 136.745 248.66 134.989C249.005 133.234 249.425 131.583 249.936 130.007L247.25 129.092C246.591 131.133 246.049 133.188 245.629 135.275C245.194 137.361 244.925 139.355 244.803 141.261C244.743 142.131 244.713 143.047 244.729 144.037C244.729 145.028 244.803 146.002 244.954 146.963C245.104 147.923 245.345 148.808 245.674 149.619C246.004 150.429 246.44 151.104 247.009 151.66C247.565 152.2 248.285 152.545 249.155 152.665C249.92 152.785 250.641 152.68 251.33 152.35C252.005 152.021 252.651 151.555 253.25 150.97C253.85 150.385 254.406 149.74 254.885 149.049C255.366 148.344 255.786 147.699 256.145 147.069C256.956 147.819 257.841 148.389 258.816 148.779L259.972 146.227C259.492 146.017 259.042 145.778 258.637 145.477C258.217 145.193 257.842 144.863 257.481 144.486C257.587 144.261 257.721 143.961 257.901 143.586C258.082 143.211 258.261 142.82 258.441 142.416H258.444ZM257.364 137.209C257.154 138.124 256.899 138.995 256.599 139.805C256.299 140.63 255.984 141.291 255.653 141.815C255.353 141.32 255.098 140.659 254.858 139.819C254.618 138.995 254.453 138.109 254.363 137.148C254.273 136.202 254.288 135.317 254.438 134.508C254.483 134.253 254.573 133.923 254.708 133.487C254.844 133.052 255.038 132.663 255.309 132.317C255.58 131.972 255.924 131.807 256.359 131.837C256.885 131.852 257.244 132.121 257.454 132.647C257.664 133.157 257.755 133.817 257.725 134.628C257.695 135.438 257.575 136.308 257.364 137.209Z" fill="#545454"/>
<path d="M274.142 133.563V129.827H262.243V152.619H274.142V148.883H266.775V142.642H273.091V138.906H266.775V133.565H274.142V133.563Z" fill="#545454"/>
<path d="M289.041 139.865C289.671 138.83 290.001 137.629 290.001 136.263C290.001 134.193 289.475 132.603 288.411 131.492C287.361 130.381 285.771 129.826 283.655 129.826H276.138V152.618H280.67V142.894H281.916C282.74 142.894 283.386 143.104 283.835 143.524C283.955 143.63 284.046 143.764 284.136 143.929C284.375 144.349 284.495 144.934 284.495 145.684V152.616H289.041V145.399C289.041 144.453 288.786 143.674 288.305 143.089C287.87 142.563 287.255 142.264 286.474 142.188C286.384 142.158 286.28 142.143 286.174 142.143V141.978C287.434 141.588 288.394 140.883 289.04 139.862L289.041 139.865ZM283.1 139.099H280.67V133.593H283.1C283.82 133.593 284.42 133.803 284.9 134.208C285.38 134.628 285.62 135.319 285.62 136.263C285.62 137.208 285.38 137.929 284.9 138.393C284.419 138.857 283.82 139.098 283.1 139.098V139.099Z" fill="#545454"/>
<path d="M-5.01064 117.882V98.8271H-9.55664V121.619H2.35728V117.883H-5.00935L-5.01064 117.882Z" fill="#545454"/>
<path d="M16.5498 100.267C15.2445 98.9771 13.5488 98.3315 11.433 98.3315C9.31718 98.3315 7.53126 98.9771 6.21179 100.267C4.87685 101.543 4.21582 103.388 4.21582 105.788V114.656C4.21582 117.041 4.87556 118.872 6.21179 120.162C7.53255 121.438 9.27209 122.083 11.433 122.083C12.679 122.083 13.8336 121.813 14.8992 121.273C15.9648 120.733 16.8346 119.922 17.4943 118.843C18.1541 117.747 18.4852 116.352 18.4852 114.656V105.788C18.4852 103.388 17.8396 101.543 16.5498 100.267ZM13.9547 114.132C13.9547 114.852 13.8799 115.527 13.7292 116.128C13.5797 116.742 13.3387 117.238 12.9638 117.628C12.603 118.003 12.094 118.197 11.433 118.197C10.3983 118.197 9.69215 117.822 9.31719 117.072C8.94222 116.307 8.76182 115.331 8.76182 114.132V106.3C8.76182 105.564 8.82239 104.889 8.97186 104.274C9.12133 103.66 9.37646 103.149 9.75272 102.774C10.1277 102.415 10.6534 102.219 11.3428 102.219C12.0322 102.219 12.5437 102.414 12.9187 102.774C13.2936 103.149 13.5642 103.66 13.7137 104.274C13.8632 104.889 13.9534 105.564 13.9534 106.3V114.132H13.9547Z" fill="#545454"/>
<path d="M33.443 111.416C33.6376 111.011 33.8025 110.666 33.9378 110.35C34.0873 110.034 34.1775 109.84 34.2226 109.75C34.6723 108.745 35.0331 107.679 35.2882 106.584C35.5279 105.488 35.6477 104.423 35.6335 103.402C35.6335 102.368 35.4686 101.451 35.1529 100.627C34.8527 99.8162 34.372 99.1706 33.7278 98.6913C33.0822 98.2107 32.2421 97.9865 31.2074 98.0006C30.0515 98.0303 29.0619 98.4954 28.2514 99.4116C27.4409 100.312 26.901 101.512 26.6459 103.013C26.4062 104.303 26.3753 105.61 26.5402 106.929C26.7052 108.25 27.0209 109.51 27.5002 110.71C27.9654 111.895 28.5207 112.945 29.1508 113.83C28.9859 114.115 28.7462 114.551 28.4305 115.106C28.1007 115.661 27.7399 116.231 27.3198 116.802C26.8997 117.371 26.4642 117.837 25.9849 118.213C25.5042 118.588 25.0249 118.739 24.5597 118.648C23.9747 118.543 23.525 118.063 23.2248 117.192C22.9091 116.323 22.73 115.182 22.6694 113.787C22.6243 112.391 22.6849 110.846 22.864 109.15C23.0289 107.455 23.2995 105.745 23.659 103.989C24.0044 102.234 24.4244 100.583 24.9347 99.007L22.2494 98.0921C21.5896 100.133 21.0484 102.188 20.6284 104.275C20.1928 106.361 19.9235 108.355 19.8024 110.261C19.7419 111.131 19.7122 112.047 19.7277 113.037C19.7277 114.028 19.8024 115.002 19.9532 115.963C20.1027 116.923 20.3436 117.808 20.6735 118.619C21.0033 119.429 21.4389 120.104 22.0084 120.66C22.5638 121.2 23.2841 121.545 24.1538 121.665C24.9192 121.785 25.6395 121.68 26.3289 121.35C27.0041 121.021 27.6497 120.555 28.2489 119.97C28.8493 119.385 29.4047 118.74 29.884 118.049C30.3647 117.344 30.7847 116.699 31.1442 116.069C31.9547 116.819 32.84 117.389 33.8154 117.779L34.9712 115.227C34.4906 115.017 34.0409 114.778 33.6363 114.477C33.2162 114.193 32.8412 113.863 32.4804 113.486C32.5861 113.261 32.7201 112.961 32.9005 112.586C33.0809 112.211 33.26 111.82 33.4404 111.416H33.443ZM32.3632 106.209C32.1532 107.124 31.898 107.995 31.5978 108.805C31.2976 109.63 30.9831 110.291 30.652 110.815C30.3518 110.32 30.0966 109.659 29.857 108.819C29.6173 107.995 29.4524 107.109 29.3622 106.148C29.272 105.202 29.2874 104.317 29.4369 103.508C29.482 103.253 29.5722 102.923 29.7075 102.487C29.8428 102.052 30.0374 101.663 30.308 101.317C30.5785 100.972 30.9226 100.807 31.3581 100.837C31.8839 100.852 32.2434 101.121 32.4534 101.647C32.6634 102.157 32.7536 102.817 32.724 103.628C32.6943 104.438 32.5745 105.308 32.3632 106.209Z" fill="#545454"/>
<path d="M49.1406 102.563V98.8271H37.2422V121.619H49.1406V117.883H41.774V111.642H48.0905V107.906H41.774V102.565H49.1406V102.563Z" fill="#545454"/>
<path d="M64.0403 108.865C64.6704 107.83 65.0002 106.629 65.0002 105.263C65.0002 103.193 64.4745 101.603 63.4101 100.492C62.36 99.381 60.7699 98.8257 58.6541 98.8257H51.1367V121.618H55.6685V111.894H56.9146C57.7392 111.894 58.3848 112.104 58.8345 112.524C58.9543 112.63 59.0445 112.764 59.1347 112.929C59.3744 113.349 59.4942 113.934 59.4942 114.684V121.616H64.0403V114.399C64.0403 113.453 63.7851 112.674 63.3045 112.089C62.8689 111.563 62.2543 111.264 61.4735 111.188C61.3833 111.158 61.2789 111.143 61.1732 111.143V110.978C62.4334 110.588 63.3934 109.883 64.039 108.862L64.0403 108.865ZM58.0987 108.099H55.6685V102.593H58.0987C58.819 102.593 59.4195 102.803 59.8989 103.208C60.3795 103.628 60.6191 104.319 60.6191 105.263C60.6191 106.208 60.3795 106.929 59.8989 107.393C59.4182 107.857 58.819 108.098 58.0987 108.098V108.099Z" fill="#545454"/>
<path d="M97.8513 106.044C97.4764 106.059 97.1014 106.104 96.7264 106.134C96.6517 105.519 96.5164 104.784 96.3515 103.959C96.1711 103.134 95.9018 102.308 95.5564 101.484C95.1969 100.673 94.7305 99.9684 94.1455 99.3976C93.5759 98.8126 92.8402 98.4673 91.9395 98.3629C90.9937 98.2572 90.1084 98.408 89.2992 98.7984C88.4887 99.203 87.7543 99.7738 87.0932 100.508C86.4335 101.258 85.833 102.114 85.3073 103.06C84.7816 104.02 84.3164 104.995 83.9118 106.016C83.5072 107.036 83.1619 107.996 82.8913 108.911C82.2908 110.921 81.8256 113.023 81.4958 115.213C81.1659 117.419 81.001 119.549 81.001 121.62H83.8667C83.8667 120.299 83.9569 118.874 84.1373 117.359C84.3319 115.843 84.587 114.328 84.9182 112.797C85.248 111.252 85.6385 109.796 86.1036 108.386C86.5533 106.991 87.0636 105.746 87.619 104.665C88.1885 103.57 88.7748 102.714 89.3894 102.1C90.0195 101.47 90.6651 101.169 91.3248 101.199C91.8055 101.214 92.1946 101.439 92.5258 101.874C92.8414 102.31 93.0953 102.85 93.2912 103.48C93.5012 104.11 93.6507 104.74 93.7563 105.356C93.8465 105.986 93.9213 106.481 93.9664 106.856C93.6958 106.961 93.4264 107.081 93.1713 107.215C92.9162 107.351 92.6611 107.486 92.4059 107.635C91.1457 108.34 90.0505 109.331 89.1201 110.621C88.1898 111.897 87.5146 113.247 87.1242 114.657C86.8845 115.587 86.7788 116.533 86.8085 117.477C86.8536 118.408 87.034 119.277 87.3638 120.072C87.6795 120.853 88.1589 121.483 88.7748 121.963C89.3907 122.442 90.1548 122.683 91.0401 122.713C91.9549 122.728 92.7358 122.532 93.3813 122.128C94.0114 121.723 94.5514 121.182 94.9714 120.522C95.4069 119.847 95.7368 119.111 95.9919 118.316C96.2316 117.535 96.4275 116.756 96.5473 115.975C96.6671 115.194 96.7573 114.505 96.8179 113.874C96.863 113.26 96.8926 112.795 96.9236 112.479C97.0292 111.323 97.0589 110.153 97.0138 108.997C97.2985 108.952 97.6142 108.923 97.9286 108.892C98.2585 108.862 98.5884 108.847 98.9492 108.876L98.9788 106.01C98.6038 106.01 98.2289 106.026 97.8539 106.04L97.8513 106.044ZM94.1004 112.091C94.0553 113.096 93.9509 114.132 93.786 115.212C93.6365 116.052 93.4406 116.833 93.2164 117.583C92.9909 118.319 92.7062 118.918 92.3466 119.338C92.0013 119.758 91.5658 119.938 91.0413 119.848C90.6509 119.788 90.3507 119.578 90.1406 119.218C89.9306 118.843 89.7953 118.423 89.736 117.958C89.6755 117.477 89.6613 117.043 89.7064 116.653C89.8559 115.273 90.3069 113.997 91.0568 112.796C91.8222 111.595 92.8569 110.635 94.1777 109.93C94.1777 110.366 94.1622 111.086 94.1029 112.091H94.1004Z" fill="#545454"/>
<path d="M113.607 108.865C114.252 107.83 114.582 106.629 114.582 105.263C114.582 103.193 114.042 101.603 112.992 100.492C111.942 99.381 110.352 98.8257 108.236 98.8257H100.719V121.618H105.251V111.894H106.497C107.321 111.894 107.967 112.104 108.402 112.524C108.852 112.944 109.078 113.665 109.078 114.685V121.618H113.609V114.4C113.609 113.455 113.37 112.675 112.889 112.09C112.394 111.505 111.688 111.189 110.759 111.144V110.979C112.019 110.589 112.979 109.884 113.609 108.863L113.607 108.865ZM109.481 107.395C109 107.86 108.401 108.099 107.681 108.099H105.251V102.593H107.681C108.401 102.593 109.002 102.803 109.481 103.208C109.962 103.628 110.201 104.319 110.201 105.263C110.201 106.208 109.962 106.929 109.481 107.393V107.395Z" fill="#545454"/>
<path d="M115.542 98.8271V102.563H120.734V121.618H125.265V102.563H130.427V98.8271H115.543H115.542Z" fill="#545454"/>
<path d="M143.99 117.882V98.8271H139.444V121.619H151.358V117.883H143.992L143.99 117.882Z" fill="#545454"/>
<path d="M165.551 100.267C164.245 98.9771 162.55 98.3315 160.434 98.3315C158.318 98.3315 156.532 98.9771 155.213 100.267C153.878 101.543 153.217 103.388 153.217 105.788V114.656C153.217 117.041 153.877 118.872 155.213 120.162C156.534 121.438 158.273 122.083 160.434 122.083C161.68 122.083 162.835 121.813 163.9 121.273C164.966 120.733 165.836 119.922 166.495 118.843C167.155 117.747 167.486 116.352 167.486 114.656V105.788C167.486 103.388 166.841 101.543 165.551 100.267ZM162.956 114.132C162.956 114.852 162.881 115.527 162.73 116.128C162.581 116.742 162.34 117.238 161.965 117.628C161.604 118.003 161.095 118.197 160.434 118.197C159.399 118.197 158.693 117.822 158.318 117.072C157.943 116.307 157.763 115.331 157.763 114.132V106.3C157.763 105.564 157.823 104.889 157.973 104.274C158.122 103.66 158.377 103.149 158.754 102.774C159.129 102.415 159.654 102.219 160.344 102.219C161.033 102.219 161.545 102.414 161.92 102.774C162.295 103.149 162.565 103.66 162.715 104.274C162.864 104.889 162.954 105.564 162.954 106.3V114.132H162.956Z" fill="#545454"/>
<path d="M182.444 111.416C182.639 111.011 182.803 110.666 182.939 110.35C183.088 110.034 183.178 109.84 183.224 109.75C183.673 108.745 184.034 107.679 184.289 106.584C184.529 105.488 184.649 104.423 184.635 103.402C184.635 102.368 184.47 101.451 184.154 100.627C183.854 99.8162 183.373 99.1706 182.729 98.6913C182.083 98.2107 181.243 97.9865 180.208 98.0006C179.053 98.0303 178.063 98.4954 177.252 99.4116C176.442 100.312 175.902 101.512 175.647 103.013C175.407 104.303 175.376 105.61 175.541 106.929C175.706 108.25 176.022 109.51 176.501 110.71C176.966 111.895 177.522 112.945 178.152 113.83C177.987 114.115 177.747 114.551 177.432 115.106C177.102 115.661 176.741 116.231 176.321 116.802C175.901 117.371 175.465 117.837 174.986 118.213C174.505 118.588 174.026 118.739 173.561 118.648C172.976 118.543 172.526 118.063 172.226 117.192C171.91 116.323 171.731 115.182 171.67 113.787C171.625 112.391 171.686 110.846 171.865 109.15C172.03 107.455 172.301 105.745 172.66 103.989C173.005 102.234 173.425 100.583 173.936 99.007L171.25 98.0921C170.591 100.133 170.049 102.188 169.629 104.275C169.194 106.361 168.925 108.355 168.803 110.261C168.743 111.131 168.713 112.047 168.729 113.037C168.729 114.028 168.803 115.002 168.954 115.963C169.104 116.923 169.345 117.808 169.674 118.619C170.004 119.429 170.44 120.104 171.009 120.66C171.565 121.2 172.285 121.545 173.155 121.665C173.92 121.785 174.641 121.68 175.33 121.35C176.005 121.021 176.651 120.555 177.25 119.97C177.85 119.385 178.406 118.74 178.885 118.049C179.366 117.344 179.786 116.699 180.145 116.069C180.956 116.819 181.841 117.389 182.816 117.779L183.972 115.227C183.492 115.017 183.042 114.778 182.637 114.477C182.217 114.193 181.842 113.863 181.481 113.486C181.587 113.261 181.721 112.961 181.901 112.586C182.082 112.211 182.261 111.82 182.441 111.416H182.444ZM181.364 106.209C181.154 107.124 180.899 107.995 180.599 108.805C180.299 109.63 179.984 110.291 179.653 110.815C179.353 110.32 179.098 109.659 178.858 108.819C178.618 107.995 178.453 107.109 178.363 106.148C178.273 105.202 178.288 104.317 178.438 103.508C178.483 103.253 178.573 102.923 178.708 102.487C178.844 102.052 179.038 101.663 179.309 101.317C179.58 100.972 179.924 100.807 180.359 100.837C180.885 100.852 181.244 101.121 181.454 101.647C181.664 102.157 181.755 102.817 181.725 103.628C181.695 104.438 181.575 105.308 181.364 106.209Z" fill="#545454"/>
<path d="M198.142 102.563V98.8271H186.243V121.619H198.142V117.883H190.775V111.642H197.091V107.906H190.775V102.565H198.142V102.563Z" fill="#545454"/>
<path d="M213.041 108.865C213.671 107.83 214.001 106.629 214.001 105.263C214.001 103.193 213.475 101.603 212.411 100.492C211.361 99.381 209.771 98.8257 207.655 98.8257H200.138V121.618H204.67V111.894H205.916C206.74 111.894 207.386 112.104 207.835 112.524C207.955 112.63 208.046 112.764 208.136 112.929C208.375 113.349 208.495 113.934 208.495 114.684V121.616H213.041V114.399C213.041 113.453 212.786 112.674 212.305 112.089C211.87 111.563 211.255 111.264 210.474 111.188C210.384 111.158 210.28 111.143 210.174 111.143V110.978C211.434 110.588 212.394 109.883 213.04 108.862L213.041 108.865ZM207.1 108.099H204.67V102.593H207.1C207.82 102.593 208.42 102.803 208.9 103.208C209.38 103.628 209.62 104.319 209.62 105.263C209.62 106.208 209.38 106.929 208.9 107.393C208.419 107.857 207.82 108.098 207.1 108.098V108.099Z" fill="#545454"/>
<path d="M246.851 106.044C246.476 106.059 246.101 106.104 245.726 106.134C245.652 105.519 245.516 104.784 245.351 103.959C245.171 103.134 244.902 102.308 244.556 101.484C244.197 100.673 243.73 99.9684 243.145 99.3976C242.576 98.8126 241.84 98.4673 240.939 98.3629C239.994 98.2572 239.108 98.408 238.299 98.7984C237.489 99.203 236.754 99.7738 236.093 100.508C235.433 101.258 234.833 102.114 234.307 103.06C233.782 104.02 233.316 104.995 232.912 106.016C232.507 107.036 232.162 107.996 231.891 108.911C231.291 110.921 230.826 113.023 230.496 115.213C230.166 117.419 230.001 119.549 230.001 121.62H232.867C232.867 120.299 232.957 118.874 233.137 117.359C233.332 115.843 233.587 114.328 233.918 112.797C234.248 111.252 234.638 109.796 235.104 108.386C235.553 106.991 236.064 105.746 236.619 104.665C237.188 103.57 237.775 102.714 238.389 102.1C239.02 101.47 239.665 101.169 240.325 101.199C240.805 101.214 241.195 101.439 241.526 101.874C241.841 102.31 242.095 102.85 242.291 103.48C242.501 104.11 242.651 104.74 242.756 105.356C242.847 105.986 242.921 106.481 242.966 106.856C242.696 106.961 242.426 107.081 242.171 107.215C241.916 107.351 241.661 107.486 241.406 107.635C240.146 108.34 239.05 109.331 238.12 110.621C237.19 111.897 236.515 113.247 236.124 114.657C235.884 115.587 235.779 116.533 235.808 117.477C235.854 118.408 236.034 119.277 236.364 120.072C236.68 120.853 237.159 121.483 237.775 121.963C238.391 122.442 239.155 122.683 240.04 122.713C240.955 122.728 241.736 122.532 242.381 122.128C243.011 121.723 243.551 121.182 243.971 120.522C244.407 119.847 244.737 119.111 244.992 118.316C245.232 117.535 245.427 116.756 245.547 115.975C245.667 115.194 245.757 114.505 245.818 113.874C245.863 113.26 245.893 112.795 245.924 112.479C246.029 111.323 246.059 110.153 246.014 108.997C246.299 108.952 246.614 108.923 246.929 108.892C247.259 108.862 247.588 108.847 247.949 108.876L247.979 106.01C247.604 106.01 247.229 106.026 246.854 106.04L246.851 106.044ZM243.1 112.091C243.055 113.096 242.951 114.132 242.786 115.212C242.636 116.052 242.441 116.833 242.216 117.583C241.991 118.319 241.706 118.918 241.347 119.338C241.001 119.758 240.566 119.938 240.041 119.848C239.651 119.788 239.351 119.578 239.141 119.218C238.931 118.843 238.795 118.423 238.736 117.958C238.675 117.477 238.661 117.043 238.706 116.653C238.856 115.273 239.307 113.997 240.057 112.796C240.822 111.595 241.857 110.635 243.178 109.93C243.178 110.366 243.162 111.086 243.103 112.091H243.1Z" fill="#545454"/>
<path d="M262.607 108.865C263.252 107.83 263.582 106.629 263.582 105.263C263.582 103.193 263.042 101.603 261.992 100.492C260.942 99.381 259.352 98.8257 257.236 98.8257H249.719V121.618H254.251V111.894H255.497C256.321 111.894 256.967 112.104 257.402 112.524C257.852 112.944 258.078 113.665 258.078 114.685V121.618H262.609V114.4C262.609 113.455 262.37 112.675 261.889 112.09C261.394 111.505 260.688 111.189 259.759 111.144V110.979C261.019 110.589 261.979 109.884 262.609 108.863L262.607 108.865ZM258.481 107.395C258 107.86 257.401 108.099 256.681 108.099H254.251V102.593H256.681C257.401 102.593 258.002 102.803 258.481 103.208C258.962 103.628 259.201 104.319 259.201 105.263C259.201 106.208 258.962 106.929 258.481 107.393V107.395Z" fill="#545454"/>
<path d="M264.542 98.8271V102.563H269.734V121.618H274.265V102.563H279.427V98.8271H264.543H264.542Z" fill="#545454"/>
<path d="M292.99 117.882V98.8271H288.444V121.619H300.358V117.883H292.992L292.99 117.882Z" fill="#545454"/>
</svg>
