<svg width="280" height="98" viewBox="0 0 280 98" fill="none" xmlns="http://www.w3.org/2000/svg">
<path d="M301.95 37.0873C302.165 42.384 301.115 46.9707 298.799 50.8478C296.485 54.727 293.286 57.7767 289.2 59.9993C285.117 62.2194 280.569 63.6408 275.55 64.264C270.534 64.8871 265.491 64.6475 260.426 63.5425C252.763 61.7723 245.334 58.3729 238.134 53.3545C230.937 48.3333 225.227 42.2161 221.003 34.998C220.14 33.5784 219.301 32.1329 218.484 30.645C217.671 29.1663 216.94 27.6431 216.286 26.0876C214.31 26.483 211.684 27.112 208.404 27.9725C205.126 28.8377 201.838 29.9798 198.534 31.3993C195.235 32.8209 192.48 34.5691 190.276 36.6508C188.074 38.73 187.001 41.1905 187.065 44.0222C187.199 47.968 189.036 51.6588 192.581 55.0992C196.126 58.5373 200.905 61.7004 206.915 64.5839C212.924 67.47 219.747 69.9877 227.377 72.1326C235.01 74.2774 242.978 76.0296 251.281 77.3844C259.588 78.7365 267.808 79.6652 275.949 80.17C284.091 80.6722 291.698 80.6573 298.776 80.1272L299.823 97.0943C288.767 97.9223 277.317 97.7927 265.471 96.7033C253.629 95.6159 242.234 93.6904 231.287 90.9268C226.325 89.6941 221.058 88.0782 215.492 86.0861C209.927 84.0938 204.504 81.7212 199.221 78.9681C193.944 76.2121 189.189 73.0184 184.964 69.3815C180.742 65.7444 177.432 61.6066 175.035 56.9705C172.641 52.3319 171.542 47.1638 171.744 41.4685C171.972 36.1411 173.528 31.6389 176.41 27.9645C179.294 24.2899 182.856 21.2443 187.094 18.8253C191.336 16.4085 195.634 14.5134 199.99 13.1351C204.351 11.7614 208.172 10.7019 211.457 9.96106C211.101 7.76366 210.797 5.56478 210.55 3.35918C210.304 1.15118 210.114 -1.05624 209.977 -3.27006L225.248 -4.22883C225.268 -2.12871 225.417 -0.134383 225.702 1.75847C225.985 3.65627 226.293 5.45141 226.618 7.15631C232.798 6.44852 239 6.16659 245.23 6.31724C246.898 6.31724 249.399 6.34609 252.735 6.40363C256.07 6.46372 259.835 6.70534 264.028 7.13106C268.221 7.55916 272.463 8.3535 276.757 9.51137C281.054 10.6739 285.074 12.3807 288.82 14.6316C292.571 16.8846 295.641 19.837 298.033 23.484C300.424 27.1333 301.73 31.6661 301.955 37.087L301.95 37.0873ZM270.095 47.4398C272.213 47.5285 274.531 47.2901 277.052 46.7338C279.575 46.175 281.764 45.2088 283.621 43.8328C285.481 42.4614 286.504 40.5931 286.691 38.2325C286.946 35.1271 285.875 32.611 283.477 30.689C281.082 28.7692 277.85 27.282 273.786 26.2269C269.721 25.1744 265.451 24.3822 260.975 23.8527C255.167 23.3006 249.569 23.0714 244.185 23.1648C238.804 23.2604 234.952 23.3927 232.627 23.5668C236.874 31.1555 242.342 36.9521 249.033 40.9592C255.724 44.9686 262.744 47.1281 270.097 47.442L270.095 47.4398Z" fill="#F6F5EA"/>
<path d="M88.1777 73.6453C84.7779 69.9027 82.7441 65.7391 82.0779 61.1527C81.4086 56.5663 81.8991 51.9303 83.5494 47.2413C85.1998 42.5556 87.6809 38.1119 90.9972 33.905C94.312 29.6998 98.1748 26.1098 102.583 23.1418C109.313 18.7234 116.867 15.6803 125.244 14.0009C133.62 12.3265 141.572 12.569 149.102 14.7335C150.606 15.135 152.109 15.5738 153.622 16.0595C155.126 16.5421 156.597 17.1184 158.031 17.7767C159.244 16.0098 160.795 13.5846 162.685 10.5011C164.571 7.416 166.295 4.11858 167.86 0.605388C169.421 -2.90601 170.381 -6.25104 170.731 -9.43122C171.081 -12.608 170.366 -15.2223 168.585 -17.2606C166.072 -20.0684 162.46 -21.416 157.741 -21.3034C153.025 -21.1891 147.568 -19.9509 141.374 -17.5872C135.181 -15.2269 128.612 -11.9861 121.677 -7.86842C114.741 -3.74904 107.797 0.910959 100.85 6.11319C93.9011 11.3205 87.2756 16.7752 80.9686 22.4823C74.6617 28.1928 69.0657 33.8847 64.1746 39.5614L53.0186 27.8414C60.6584 18.9745 69.1747 10.5191 78.5703 2.47504C87.9613 -5.5672 97.5358 -12.6579 107.294 -18.797C111.704 -21.5945 116.574 -24.337 121.895 -27.0261C127.214 -29.7135 132.663 -32.0155 138.24 -33.9322C143.815 -35.842 149.273 -37.0397 154.612 -37.5151C159.95 -37.9887 164.921 -37.4116 169.524 -35.7852C174.128 -34.1555 178.1 -31.168 181.438 -26.821C184.53 -22.7249 186.139 -18.2454 186.264 -13.3859C186.388 -8.52476 185.628 -3.62053 183.986 1.3267C182.339 6.27574 180.332 10.8821 177.965 15.1508C175.593 19.4196 173.426 23.0535 171.459 26.0528C173.066 27.4061 174.636 28.7991 176.167 30.2404C177.7 31.6833 179.192 33.1677 180.647 34.6969L169.982 46.8079C168.682 45.2749 167.352 43.9167 165.983 42.735C164.613 41.5483 163.287 40.4551 162.004 39.442C157.884 44.5784 153.487 49.4175 148.804 53.9593C147.575 55.2047 145.715 57.0512 143.221 59.5006C140.727 61.9466 137.805 64.5801 134.455 67.3978C131.103 70.2139 127.491 72.7964 123.618 75.1503C119.741 77.5027 115.734 79.2467 111.596 80.3859C107.454 81.5268 103.384 81.6442 99.3901 80.7431C95.3942 79.8403 91.6578 77.4755 88.1748 73.6488L88.1777 73.6453ZM105.314 42.2275C103.699 43.7438 102.137 45.6508 100.62 47.9434C99.1027 50.2394 98.081 52.5861 97.5549 54.9868C97.0241 57.3859 97.4137 59.5266 98.7207 61.4056C100.433 63.8846 102.762 64.9387 105.705 64.5644C108.645 64.1902 111.937 62.8719 115.577 60.6148C119.217 58.3542 122.848 55.7494 126.47 52.7968C131.087 48.8662 135.353 44.8545 139.262 40.7652C143.169 36.6759 145.926 33.7017 147.533 31.8376C139.759 29.4172 132.182 29.2299 124.799 31.2741C117.415 33.3166 110.921 36.9677 105.311 42.2275L105.314 42.2275Z" fill="#F6F5EA"/>
<path d="M103.506 -1.96591C100.25 1.92949 96.5611 4.33306 92.4374 5.24321C88.314 6.15673 84.1014 5.7919 79.7967 4.14892C75.495 2.50573 71.3806 -0.0636621 67.4486 -3.56396C63.5181 -7.0627 60.1233 -11.1898 57.2705 -15.9424C53.017 -23.2027 49.9764 -31.4255 48.1379 -40.6083C46.3041 -49.7897 46.2205 -58.5764 47.8917 -66.9704C48.1976 -68.6467 48.5372 -70.3222 48.919 -72.0109C49.2983 -73.6893 49.7635 -75.335 50.3044 -76.9423C48.6598 -78.2149 46.4068 -79.834 43.5454 -81.8029C40.6827 -83.7666 37.6341 -85.544 34.3963 -87.1382C31.1603 -88.7276 28.0977 -89.6592 25.2075 -89.9246C22.3203 -90.1903 19.9826 -89.3011 18.2066 -87.2579C15.7623 -84.3768 14.6808 -80.3378 14.9625 -75.1343C15.2455 -69.9325 16.5736 -63.9558 18.9478 -57.2095C21.319 -50.4629 24.501 -43.3356 28.4902 -35.8375C32.481 -28.3379 36.9611 -20.8504 41.9319 -13.3803C46.9074 -5.90885 52.0942 1.19667 57.4974 7.94099C62.9036 14.6851 68.2658 20.6452 73.5875 25.8279L63.4102 38.5886C55.0979 30.4934 47.1244 21.4152 39.4896 11.3506C31.8565 1.29095 25.0773 -9.00737 19.1519 -19.5444C16.4532 -24.3066 13.7867 -29.5773 11.1513 -35.3481C8.51753 -41.1173 6.22746 -47.0437 4.28109 -53.1273C2.341 -59.2081 1.04956 -65.1874 0.416114 -71.0626C-0.215721 -76.9363 0.117001 -82.4456 1.41285 -87.5888C2.71174 -92.7322 5.26294 -97.2311 9.06824 -101.08C12.6559 -104.65 16.6469 -106.596 21.0381 -106.92C25.4309 -107.242 29.8964 -106.59 34.4344 -104.965C38.9742 -103.336 43.2177 -101.296 47.1694 -98.8468C51.1215 -96.3907 54.4915 -94.1375 57.2796 -92.0803C58.4426 -93.9058 59.643 -95.6918 60.8884 -97.4371C62.1353 -99.1842 63.4214 -100.887 64.7493 -102.552L76.1115 -91.2403C74.7743 -89.7473 73.5963 -88.227 72.5795 -86.6712C71.5582 -85.1133 70.6197 -83.6089 69.7521 -82.1538C74.5557 -77.8015 79.1007 -73.1324 83.3878 -68.1362C84.5613 -66.8273 86.3025 -64.844 88.6133 -62.1847C90.9211 -59.5251 93.4148 -56.4001 96.0914 -52.8094C98.7666 -49.217 101.24 -45.3287 103.517 -41.1433C105.793 -36.9527 107.524 -32.5969 108.712 -28.0726C109.902 -23.5434 110.163 -19.0561 109.5 -14.6128C108.835 -10.1677 106.839 -5.95325 103.509 -1.96277L103.506 -1.96591ZM74.4318 -19.6844C75.8651 -17.9595 77.6497 -16.3078 79.7815 -14.7205C81.9163 -13.1334 84.0781 -12.095 86.2699 -11.6057C88.4605 -11.1112 90.3822 -11.6229 92.0321 -13.1371C94.2095 -15.1217 95.0743 -17.7329 94.6236 -20.9671C94.1731 -24.1979 92.8551 -27.7816 90.6745 -31.7134C88.4909 -35.6449 85.9961 -39.5537 83.1871 -43.4394C79.4554 -48.3865 75.6638 -52.9416 71.8155 -57.1015C67.9674 -61.258 65.1719 -64.1882 63.4244 -65.8901C61.5309 -57.2174 61.6502 -48.8464 63.7807 -40.7753C65.9097 -32.7023 69.4601 -25.6732 74.432 -19.681L74.4318 -19.6844Z" fill="#F6F5EA"/>
</svg>
