<svg width="136" height="190" viewBox="0 0 136 190" fill="none" xmlns="http://www.w3.org/2000/svg">
<path d="M46.3799 188.346C42.1675 186.793 38.9743 184.314 36.801 180.908C34.6251 177.502 33.4223 173.559 33.1912 169.075C32.9613 164.593 33.5255 159.949 34.8857 155.138C36.2452 150.328 38.2879 145.778 41.0137 141.495C45.2149 135.047 50.6011 129.352 57.1669 124.401C63.7332 119.455 70.6083 116.235 77.7952 114.743C79.2206 114.42 80.6573 114.128 82.1193 113.869C83.5723 113.612 85.03 113.444 86.4842 113.358C86.9027 111.414 87.3784 108.796 87.9137 105.501C88.4446 102.207 88.7633 98.8115 88.8711 95.3103C88.9758 91.8126 88.6249 88.7071 87.8115 85.9961C86.9994 83.2878 85.474 81.4901 83.2405 80.6138C80.1122 79.4326 76.556 79.8992 72.5666 82.0165C68.5792 84.1344 64.3523 87.4754 59.8905 92.0389C55.4275 96.5997 50.952 102.031 46.4706 108.325C41.9885 114.621 37.6891 121.356 33.5767 128.529C29.4649 135.706 25.7155 142.944 22.3263 150.248C18.9385 157.555 16.1511 164.542 13.9602 171.213L0.334205 166.569C3.75619 156.148 8.07044 145.682 13.2795 135.169C18.4854 124.66 24.1807 114.838 30.3654 105.704C33.1533 101.557 36.3522 97.2568 39.955 92.8061C43.5571 88.3575 47.4043 84.1637 51.4966 80.2247C55.5889 76.2924 59.8308 72.9835 64.2236 70.3074C68.6157 67.6334 73.0626 65.9628 77.5623 65.2949C82.0633 64.6298 86.5006 65.3288 90.871 67.3955C94.9443 69.3653 97.8852 72.281 99.6923 76.1397C101.499 80.0005 102.565 84.2759 102.893 88.9646C103.218 93.6568 103.116 98.2279 102.588 102.681C102.056 107.137 101.477 110.994 100.846 114.254C102.692 114.653 104.52 115.101 106.332 115.603C108.145 116.107 109.938 116.661 111.716 117.267L106.845 131.6C105.199 130.924 103.588 130.402 102.006 130.038C100.42 129.671 98.9064 129.36 97.4561 129.096C95.7347 135.001 93.6728 140.786 91.2627 146.455C90.6491 147.985 89.7063 150.271 88.4337 153.314C87.1599 156.355 85.586 159.731 83.7109 163.438C81.8339 167.145 79.6532 170.776 77.1695 174.335C74.6812 177.895 71.8702 181.02 68.7352 183.714C65.5969 186.412 62.1632 188.255 58.4372 189.245C54.7093 190.235 50.6914 189.935 46.3786 188.35L46.3799 188.346ZM50.0224 155.689C49.1738 157.604 48.5069 159.81 48.0134 162.308C47.5211 164.808 47.4696 167.136 47.8601 169.295C48.2461 171.455 49.3277 173.011 51.101 173.963C53.4304 175.223 55.7881 175.071 58.1701 173.506C60.5496 171.942 62.8996 169.466 65.2182 166.085C67.5355 162.702 69.7248 159.045 71.7849 155.112C74.3529 149.964 76.5916 144.901 78.4997 139.929C80.4052 134.959 81.7192 131.38 82.4386 129.189C74.9541 130.579 68.4184 133.683 62.8294 138.5C57.2385 143.316 52.9704 149.045 50.0198 155.69L50.0224 155.689Z" fill="#F6F5EA"/>
<path d="M14.4889 58.8992C13.7093 54.2522 14.1825 50.0402 15.9105 46.263C17.6361 42.4841 20.2751 39.3037 23.8291 36.7193C27.3816 34.1374 31.4528 32.1907 36.0487 30.8776C40.6427 29.5651 45.3565 29.0105 50.1847 29.2174C57.5009 29.6172 64.7779 31.4919 72.0199 34.8319C79.2584 38.1748 85.2363 42.7118 89.9524 48.4474C90.9101 49.5706 91.848 50.7203 92.771 51.9106C93.6883 53.0936 94.5348 54.3283 95.3124 55.6033C97.1055 54.9538 99.478 53.9989 102.432 52.7404C105.384 51.4781 108.315 49.9694 111.23 48.2134C114.141 46.4562 116.509 44.4932 118.33 42.319C120.149 40.1475 120.877 37.8106 120.507 35.3186C119.951 31.8527 117.839 28.8709 114.167 26.3699C110.495 23.871 105.707 21.8024 99.805 20.1678C93.9046 18.5307 87.2867 17.343 79.9601 16.6071C72.6315 15.8717 65.0332 15.5343 57.1679 15.5986C49.2991 15.666 41.5571 16.0944 33.9361 16.8851C26.3135 17.6783 19.2449 18.8472 12.7242 20.3909L9.89236 5.55946C20.0776 3.1482 30.7338 1.52318 41.8634 0.686006C52.9887 -0.152317 63.7901 -0.182229 74.2676 0.596273C79.0147 0.931546 84.0867 1.55904 89.4785 2.47342C94.8683 3.38826 100.169 4.66058 105.381 6.29037C110.587 7.92365 115.356 10.023 119.681 12.5943C124.004 15.1662 127.534 18.3191 130.269 22.0511C133.003 25.7856 134.59 30.1846 135.027 35.2471C135.398 39.9887 134.445 44.2028 132.169 47.8869C129.891 51.5715 126.914 54.8035 123.24 57.5845C119.562 60.3644 115.775 62.6917 111.877 64.5712C107.975 66.4474 104.54 67.9639 101.568 69.1175C102.139 71.0049 102.663 72.9014 103.133 74.8126C103.604 76.726 104.023 78.6473 104.392 80.5825L90.3038 83.7496C90.0557 81.8971 89.6987 80.1577 89.2262 78.5287C88.7549 76.8951 88.2726 75.3557 87.7832 73.8989C82.1173 75.4631 76.3843 76.6543 70.5771 77.4677C69.0271 77.7211 66.6995 78.0756 63.592 78.5316C60.4862 78.9851 56.9605 79.3436 53.0167 79.6045C49.0725 79.8633 45.043 79.806 40.9248 79.4354C36.8038 79.0611 32.881 78.1637 29.1525 76.7442C25.4197 75.3235 22.2427 73.1814 19.6203 70.3227C16.9975 67.4619 15.2873 63.6554 14.485 58.9002L14.4889 58.8992ZM42.9624 44.9131C40.9841 45.1565 38.8556 45.7194 36.5734 46.5939C34.2896 47.4709 32.3609 48.6571 30.7856 50.1549C29.2076 51.649 28.4614 53.4551 28.5462 55.5691C28.6489 58.3516 29.9201 60.4119 32.359 61.7457C34.7955 63.078 37.9628 63.9008 41.8551 64.2157C45.749 64.528 49.8042 64.5792 54.0223 64.367C59.481 63.9724 64.709 63.3245 69.7026 62.4241C74.6937 61.5221 78.2593 60.8199 80.4006 60.313C75.6226 54.2535 69.905 49.9629 63.2473 47.4391C56.5893 44.9133 49.8285 44.0718 42.96 44.9115L42.9624 44.9131Z" fill="#F6F5EA"/>
</svg>
