<svg width="140" height="97" viewBox="0 0 140 97" fill="none" xmlns="http://www.w3.org/2000/svg">
<path d="M114.865 42.6373C116.7 40.2153 118.795 38.597 121.151 37.7829C123.507 36.967 125.925 36.8604 128.407 37.4629C130.886 38.0657 133.266 39.201 135.549 40.8712C137.831 42.5406 139.812 44.6015 141.487 47.0526C143.985 50.8049 145.797 55.1857 146.927 60.1928C148.054 65.1996 148.175 70.1144 147.286 74.9388C147.125 75.9003 146.944 76.8637 146.739 77.8376C146.536 78.8056 146.283 79.7616 145.986 80.7017C146.939 81.2931 148.244 82.0336 149.901 82.9251C151.558 83.8136 153.321 84.584 155.19 85.238C157.058 85.8892 158.822 86.185 160.481 86.1203C162.138 86.0561 163.471 85.3855 164.472 84.1101C165.849 82.3162 166.436 79.9744 166.231 77.0809C166.026 74.1885 165.215 70.9392 163.798 67.3361C162.383 63.7327 160.499 59.9759 158.15 56.0709C155.8 52.1653 153.17 48.3025 150.259 44.4857C147.344 40.6685 144.312 37.0718 141.159 33.6934C138.003 30.3153 134.88 27.3731 131.786 24.8632L137.515 16.9655C142.347 20.8857 146.993 25.3816 151.454 30.4548C155.913 35.5255 159.884 40.7927 163.369 46.2567C164.955 48.7247 166.528 51.4798 168.086 54.5172C169.644 57.5539 171.006 60.704 172.172 63.9675C173.335 67.2299 174.125 70.4833 174.536 73.727C174.947 76.9699 174.802 80.08 174.102 83.0561C173.4 86.0326 171.975 88.7404 169.825 91.1771C167.798 93.4409 165.526 94.8256 163.012 95.331C160.496 95.8356 157.931 95.7996 155.316 95.2249C152.7 94.6476 150.25 93.8181 147.965 92.738C145.679 91.6542 143.728 90.6409 142.113 89.6946C141.461 90.8028 140.788 91.8916 140.088 92.961C139.388 94.0315 138.665 95.0799 137.917 96.1104L131.31 90.6139C132.064 89.6791 132.727 88.7407 133.297 87.7943C133.87 86.8465 134.395 85.9347 134.88 85.0557C132.091 82.9727 129.446 80.6932 126.947 78.2114C126.264 77.565 125.249 76.5827 123.902 75.2639C122.557 73.9447 121.102 72.3786 119.538 70.5651C117.974 68.7506 116.524 66.7555 115.184 64.5795C113.844 62.4005 112.816 60.0887 112.098 57.6426C111.378 55.1938 111.191 52.7 111.534 50.1625C111.878 47.624 112.988 45.1163 114.863 42.6357L114.865 42.6373ZM131.68 50.4149C130.844 49.5546 129.807 48.7613 128.572 48.0296C127.335 47.2983 126.087 46.8763 124.826 46.764C123.566 46.6487 122.469 47.0771 121.536 48.0469C120.304 49.3191 119.83 50.8453 120.115 52.6234C120.4 54.3996 121.185 56.3094 122.468 58.3504C123.752 60.3912 125.215 62.3962 126.858 64.365C129.038 66.8603 131.249 69.1316 133.49 71.1774C135.73 73.2212 137.357 74.656 138.373 75.4801C139.387 70.4833 139.249 65.8039 137.96 61.4408C136.673 57.0767 134.579 53.402 131.68 50.413L131.68 50.4149Z" fill="#F6F5EA"/>
<path d="M-34.0004 26.0378C-33.1577 23.211 -31.8227 21.0004 -29.9941 19.4063C-28.1663 17.8106 -26.0533 16.8212 -23.6537 16.437C-21.2555 16.0539 -18.7729 16.1799 -16.2027 16.816C-13.6335 17.4519 -11.2053 18.5466 -8.92164 20.1005C-5.48384 22.5034 -2.45235 25.718 0.177495 29.7403C2.80482 33.7633 4.50822 38.0773 5.28589 42.6846C5.45473 43.597 5.60702 44.5183 5.74136 45.4578C5.87496 46.3916 5.96066 47.3331 6.0024 48.2766C7.04123 48.4482 8.44077 48.6219 10.2018 48.7994C11.9624 48.9739 13.778 49.0049 15.6507 48.893C17.5215 48.7791 19.1838 48.3887 20.6364 47.7173C22.0875 47.0469 23.0535 45.9589 23.5286 44.4573C24.1693 42.3566 23.9297 40.0627 22.8083 37.5723C21.6865 35.0833 19.9111 32.5018 17.4824 29.8309C15.0551 27.1591 12.1623 24.5244 8.80777 21.9307C5.45214 19.3368 1.86137 16.8847 -1.96417 14.5774C-5.79223 12.2707 -9.65362 10.2034 -13.5516 8.37437C-17.451 6.54632 -21.1807 5.09303 -24.7436 4.01224L-22.2205 -5.11204C-16.6554 -3.42388 -11.0686 -1.15643 -5.4594 1.69192C0.147945 4.53833 5.38618 7.73959 10.2553 11.2957C12.466 12.8972 14.7573 14.7586 17.1281 16.8754C19.4978 18.9919 21.7305 21.2815 23.8262 23.7441C25.9183 26.207 27.6765 28.7999 29.0957 31.5241C30.5138 34.248 31.395 37.0598 31.7396 39.9583C32.0828 42.8578 31.6963 45.7867 30.5784 48.7432C29.5132 51.5011 27.9451 53.57 25.8757 54.9489C23.8053 56.3275 21.5151 57.245 19.0059 57.7032C16.4949 58.1594 14.0498 58.3304 11.6689 58.2186C9.2865 58.1035 7.22498 57.9268 5.48284 57.6854C5.26403 58.9094 5.01959 60.1242 4.74558 61.3315C4.47121 62.54 4.16941 63.7375 3.8402 64.928L-3.81346 62.499C-3.44719 61.3908 -3.16332 60.3133 -2.96439 59.2631C-2.76367 58.2105 -2.59303 57.2074 -2.44745 56.2483C-5.6018 55.4336 -8.6907 54.3907 -11.7163 53.1147C-12.5334 52.7944 -13.7536 52.2988 -15.3781 51.6277C-17.0011 50.9556 -18.8025 50.1054 -20.7807 49.0761C-22.7586 48.0455 -24.6947 46.813 -26.5916 45.3792C-28.4889 43.9425 -30.1528 42.2728 -31.5855 40.3695C-33.02 38.4642 -33.996 36.3217 -34.5152 33.9444C-35.034 31.5658 -34.8627 28.9311 -34.0026 26.0371L-34.0004 26.0378ZM-16.5402 26.712C-17.5621 26.2585 -18.7406 25.9386 -20.0753 25.7469C-21.4115 25.5562 -22.6569 25.6439 -23.813 26.0108C-24.9694 26.3749 -25.805 27.161 -26.319 28.3665C-26.9999 29.9506 -26.9253 31.4796 -26.0946 32.9509C-25.2646 34.4206 -23.9469 35.8236 -22.1448 37.159C-20.3412 38.4934 -18.391 39.7302 -16.2928 40.8684C-13.5459 42.2743 -10.8442 43.4701 -8.1897 44.4551C-5.53597 45.4385 -3.62502 46.1087 -2.45506 46.4636C-3.17762 41.657 -4.81967 37.5581 -7.38085 34.1656C-9.94167 30.7718 -12.9945 28.2878 -16.5409 26.7104L-16.5402 26.712Z" fill="#F6F5EA"/>
</svg>
