<svg width="260" height="179" viewBox="0 0 260 179" fill="none" xmlns="http://www.w3.org/2000/svg">
<path d="M303.508 74.7119C300.291 79.2339 296.554 82.3028 292.295 83.9172C288.037 85.5351 283.628 85.8611 279.065 84.896C274.504 83.93 270.097 81.9864 265.837 79.0609C261.579 76.1367 257.851 72.4814 254.66 68.0968C249.894 61.3813 246.349 53.4808 244.013 44.3995C241.682 35.3189 241.195 26.3514 242.555 17.4942C242.797 15.7299 243.075 13.9609 243.396 12.1715C243.715 10.393 244.125 8.63358 244.616 6.90096C242.843 5.87299 240.42 4.59184 237.347 3.05407C234.272 1.52179 231.012 0.210803 227.564 -0.881586C224.117 -1.96922 220.881 -2.41339 217.855 -2.20519C214.833 -1.99771 212.435 -0.700944 210.677 1.6822C208.259 5.03266 207.316 9.34054 207.847 14.6127C208.379 19.8828 210.036 25.7715 212.819 32.2735C215.599 38.7761 219.242 45.5334 223.743 52.5358C228.246 59.5395 233.259 66.4496 238.783 73.2605C244.312 80.072 250.044 86.4745 255.985 92.4718C261.93 98.4684 267.793 103.671 273.578 108.085L263.548 122.818C254.511 115.922 245.783 107.966 237.363 98.9446C228.946 89.9285 221.408 80.5267 214.749 70.7393C211.718 66.3193 208.697 61.3742 205.686 55.9128C202.677 50.4528 200.019 44.775 197.712 38.8794C195.412 32.9858 193.793 27.0883 192.864 21.1879C191.938 15.289 192.034 9.60235 193.15 4.13019C194.27 -1.3427 196.725 -6.36452 200.518 -10.9305C204.096 -15.1741 208.169 -17.826 212.733 -18.8855C217.299 -19.9436 221.985 -20.0173 226.791 -19.1101C231.599 -18.198 236.117 -16.8167 240.349 -14.9688C244.582 -13.114 248.198 -11.37 251.199 -9.72973C252.329 -11.7887 253.499 -13.8134 254.718 -15.804C255.939 -17.7967 257.202 -19.7503 258.511 -21.6725L270.874 -11.9956C269.548 -10.2476 268.389 -8.49823 267.399 -6.73921C266.406 -4.97739 265.496 -3.28396 264.657 -1.6526C269.864 1.99911 274.816 6.01763 279.514 10.4132C280.798 11.5564 282.704 13.2948 285.234 15.6297C287.762 17.9653 290.505 20.7458 293.459 23.972C296.413 27.2002 299.169 30.7642 301.734 34.6645C304.298 38.5704 306.301 42.7357 307.746 47.1631C309.194 51.5952 309.671 56.1386 309.182 60.7904C308.692 65.4442 306.801 70.0834 303.512 74.7146L303.508 74.7119ZM272.384 61.4246C273.957 62.9499 275.893 64.3421 278.189 65.611C280.487 66.879 282.789 67.5817 285.096 67.7182C287.403 67.8603 289.383 67.0184 291.035 65.1969C293.215 62.807 293.998 59.9945 293.38 56.7634C292.763 53.5357 291.226 50.0913 288.773 46.4342C286.316 42.7778 283.537 39.1964 280.431 35.6907C276.314 31.253 272.153 27.226 267.951 23.6124C263.749 20.0023 260.7 17.4709 258.8 16.0213C257.221 25.2003 257.727 33.737 260.317 41.6335C262.905 49.5321 266.927 56.128 272.384 61.428L272.384 61.4246Z" fill="#D88164"/>
<path d="M-77.5808 104.421C-75.9652 99.0019 -73.4056 94.7638 -69.9 91.7077C-66.3958 88.6485 -62.3448 86.7516 -57.7444 86.0152C-53.1468 85.2807 -48.3873 85.5222 -43.4597 86.7418C-38.5342 87.9608 -33.8789 90.0595 -29.5008 93.0386C-22.91 97.6453 -17.0982 103.808 -12.0564 111.52C-7.01938 119.232 -3.7537 127.503 -2.26278 136.336C-1.9391 138.085 -1.64714 139.851 -1.38958 141.653C-1.13345 143.443 -0.969153 145.248 -0.889117 147.057C1.10247 147.386 3.78561 147.719 7.16171 148.059C10.5371 148.394 14.0178 148.453 17.6081 148.238C21.1949 148.02 24.3817 147.271 27.1665 145.984C29.9486 144.699 31.8005 142.613 32.7113 139.734C33.9397 135.707 33.4803 131.309 31.3304 126.535C29.1798 121.763 25.776 116.814 21.1197 111.693C16.4662 106.571 10.9204 101.52 4.4892 96.5475C-1.94407 91.5745 -8.82813 86.8735 -16.1623 82.45C-23.5013 78.0277 -30.9041 74.0643 -38.3772 70.5578C-45.8529 67.0532 -53.0034 64.267 -59.834 62.195L-54.9968 44.7023C-44.3276 47.9387 -33.6168 52.2858 -22.8632 57.7465C-12.113 63.2035 -2.07051 69.3409 7.26437 76.1585C11.5026 79.2287 15.8953 82.7973 20.4405 86.8556C24.9836 90.9133 29.264 95.3028 33.2818 100.024C37.2927 104.746 40.6634 109.717 43.3843 114.939C46.1031 120.162 47.7925 125.552 48.4531 131.109C49.111 136.668 48.3701 142.283 46.227 147.951C44.1847 153.239 41.1785 157.205 37.2112 159.848C33.2418 162.491 28.8511 164.25 24.0406 165.129C19.2265 166.003 14.539 166.331 9.97437 166.117C5.407 165.896 1.45475 165.558 -1.8852 165.095C-2.3047 167.441 -2.77332 169.77 -3.29865 172.085C-3.82466 174.402 -4.40325 176.698 -5.03439 178.98L-19.7077 174.323C-19.0055 172.199 -18.4612 170.133 -18.0799 168.119C-17.695 166.102 -17.3679 164.178 -17.0888 162.34C-23.1362 160.778 -29.0581 158.778 -34.8587 156.332C-36.4251 155.718 -38.7645 154.768 -41.8788 153.481C-44.9904 152.193 -48.4439 150.563 -52.2365 148.589C-56.0285 146.614 -59.7403 144.251 -63.3769 141.502C-67.0143 138.748 -70.2042 135.546 -72.951 131.897C-75.7012 128.245 -77.5723 124.137 -78.5676 119.58C-79.5623 115.019 -79.2338 109.968 -77.5849 104.42L-77.5808 104.421ZM-44.1068 105.714C-46.0659 104.844 -48.3252 104.231 -50.8842 103.864C-53.4458 103.498 -55.8335 103.666 -58.0499 104.37C-60.2669 105.068 -61.8689 106.575 -62.8543 108.886C-64.1597 111.923 -64.0167 114.854 -62.424 117.675C-60.8328 120.492 -58.3066 123.182 -54.8517 125.742C-51.394 128.301 -47.6552 130.672 -43.6324 132.854C-38.3663 135.549 -33.1866 137.842 -28.0976 139.73C-23.01 141.615 -19.3464 142.9 -17.1034 143.581C-18.4887 134.366 -21.6367 126.508 -26.5469 120.004C-31.4564 113.497 -37.3092 108.735 -44.1082 105.711L-44.1068 105.714Z" fill="#D88164"/>
</svg>
