<svg width="140" height="109" viewBox="0 0 140 109" fill="none" xmlns="http://www.w3.org/2000/svg">
<path d="M165.547 92.6167C162.984 94.2473 160.456 95.0339 157.964 94.9755C155.471 94.9189 153.167 94.1759 151.051 92.7463C148.937 91.3169 147.103 89.4232 145.545 87.0619C143.988 84.7017 142.85 82.0797 142.135 79.1985C141.101 74.8106 140.93 70.0732 141.616 64.9862C142.305 59.9005 143.905 55.2518 146.419 51.0397C146.906 50.1949 147.411 49.3549 147.943 48.5134C148.471 47.6771 149.041 46.8693 149.647 46.0916C148.96 45.205 147.995 44.0561 146.753 42.643C145.509 41.2325 144.126 39.896 142.602 38.6315C141.078 37.3698 139.528 36.4779 137.95 35.9601C136.374 35.4427 134.892 35.6066 133.509 36.453C131.592 37.6543 130.226 39.6448 129.409 42.4281C128.594 45.2107 128.221 48.5388 128.293 52.4098C128.364 56.2806 128.819 60.4583 129.66 64.9371C130.501 69.417 131.62 73.9543 133.018 78.5466C134.419 83.1403 136.007 87.5684 137.785 91.8342C139.565 96.1002 141.467 99.9466 143.492 103.377L135.369 108.783C132.207 103.424 129.419 97.5907 127.007 91.2809C124.595 84.9739 122.709 78.6525 121.348 72.3167C120.721 69.4505 120.208 66.3201 119.805 62.9299C119.404 59.5407 119.226 56.1134 119.27 52.6481C119.318 49.1851 119.711 45.8603 120.456 42.6765C121.201 39.4938 122.421 36.6293 124.115 34.084C125.811 31.5389 128.09 29.4977 130.954 27.9632C133.644 26.548 136.256 26.042 138.789 26.4449C141.322 26.8488 143.714 27.7768 145.965 29.227C148.215 30.6801 150.222 32.3114 151.988 34.1205C153.753 35.9332 155.228 37.5628 156.412 39.0129C157.409 38.2013 158.42 37.4155 159.448 36.657C160.478 35.8978 161.521 35.1672 162.581 34.4619L166.858 41.9169C165.825 42.5302 164.877 43.1787 164.013 43.867C163.145 44.5558 162.335 45.2273 161.574 45.882C163.463 48.8068 165.146 51.8651 166.624 55.0623C167.039 55.9064 167.648 57.1808 168.45 58.8864C169.251 60.5916 170.069 62.5669 170.903 64.8118C171.736 67.0576 172.4 69.4331 172.897 71.9397C173.393 74.4489 173.551 76.9741 173.372 79.5173C173.193 82.0634 172.499 84.466 171.292 86.7246C170.085 88.984 168.171 90.9475 165.548 92.6188L165.547 92.6167ZM152.499 79.4657C152.982 80.5634 153.677 81.6684 154.58 82.7847C155.485 83.9014 156.507 84.7319 157.649 85.2765C158.79 85.8238 159.968 85.8048 161.181 85.2211C162.779 84.4581 163.755 83.1929 164.108 81.4269C164.46 79.6628 164.389 77.5991 163.899 75.2389C163.406 72.8785 162.734 70.4894 161.881 68.0714C160.707 64.9727 159.426 62.073 158.039 59.3745C156.652 56.6779 155.627 54.766 154.962 53.6394C152.271 57.9696 150.769 62.4035 150.455 66.9419C150.141 71.4811 150.822 75.6551 152.498 79.4675L152.499 79.4657Z" fill="#D88164"/>
<path d="M21.4183 56.474C18.6357 57.4529 16.0625 57.6713 13.6982 57.1282C11.333 56.5866 9.29097 55.458 7.57035 53.7419C5.85134 52.0264 4.49474 49.9434 3.49943 47.4898C2.5045 45.0372 1.96373 42.4291 1.8795 39.6682C1.80418 35.4746 2.62448 31.1328 4.33429 26.6415C6.04609 22.1519 8.53624 18.239 11.8076 14.9028C12.4468 14.2301 13.1028 13.5656 13.7842 12.9049C14.4613 12.2482 15.1729 11.6257 15.9118 11.0375C15.4404 10.0961 14.7587 8.86151 13.8677 7.33224C12.9745 5.80498 11.9329 4.3176 10.742 2.86797C9.5507 1.42095 8.25818 0.305163 6.86147 -0.475833C5.46639 -1.25623 4.01849 -1.39873 2.52426 -0.900935C0.447885 -0.18521 -1.2676 1.35641 -2.62397 3.72699C-3.97908 6.0971 -5.02491 9.05045 -5.75932 12.585C-6.49535 16.119 -6.92784 20.0078 -7.05577 24.2461C-7.18334 28.4855 -7.05795 32.8318 -6.67747 37.2831C-6.29501 41.736 -5.69929 46.0753 -4.88922 50.3041C-4.07752 54.5336 -3.06226 58.4056 -1.84358 61.9237L-10.7094 65.2426C-12.613 59.7474 -14.0605 53.8944 -15.051 47.6819C-16.0421 41.4721 -16.5292 35.3524 -16.5122 29.323C-16.5151 26.5932 -16.355 23.6455 -16.0349 20.4833C-15.7145 17.3222 -15.1735 14.1703 -14.412 11.0277C-13.6481 7.88771 -12.5829 4.94158 -11.2122 2.1926C-9.84121 -0.555306 -8.08356 -2.92037 -5.94052 -4.90213C-3.79586 -6.88329 -1.19867 -8.29138 1.85056 -9.1238C4.70813 -9.88206 7.30354 -9.82868 9.63515 -8.96426C11.9671 -8.09877 14.0552 -6.7846 15.9001 -5.02328C17.7446 -3.25937 19.3195 -1.38128 20.6278 0.61112C21.9343 2.60659 23.0026 4.37858 23.8308 5.93016C24.9498 5.38811 26.0765 4.87217 27.2144 4.38462C28.3535 3.8966 29.4998 3.4373 30.6566 3.00425L33.1877 10.6248C32.0758 10.9795 31.0371 11.3828 30.0703 11.8389C29.1007 12.2948 28.1887 12.7461 27.327 13.1918C28.521 16.223 29.4918 19.3353 30.2369 22.5333C30.4578 23.3826 30.7737 24.6612 31.185 26.3701C31.5947 28.0783 31.965 30.0355 32.2943 32.241C32.6224 34.4471 32.7626 36.7379 32.7168 39.1153C32.6689 41.4946 32.2953 43.8221 31.5968 46.0997C30.8979 48.3799 29.7376 50.4284 28.1188 52.2453C26.4989 54.0626 24.2662 55.4719 21.419 56.4761L21.4183 56.474ZM11.7057 41.9489C11.9391 43.0423 12.3726 44.1838 13.0017 45.3765C13.6324 46.5698 14.435 47.5261 15.4111 48.2461C16.3852 48.968 17.5122 49.1823 18.7897 48.89C20.4716 48.5103 21.6651 47.5516 22.3676 46.0149C23.0693 44.4798 23.4304 42.5892 23.4523 40.3464C23.4725 38.1029 23.3275 35.7982 23.0158 33.4315C22.5397 30.3827 21.92 27.4939 21.1575 24.7672C20.3941 22.042 19.8138 20.1019 19.4136 18.9466C15.9486 22.3553 13.5965 26.0922 12.3559 30.1579C11.1142 34.2241 10.8977 38.1539 11.7048 41.9504L11.7057 41.9489Z" fill="#D88164"/>
</svg>
