<svg width="260" height="219" viewBox="0 0 260 219" fill="none" xmlns="http://www.w3.org/2000/svg">
<path d="M279.899 -21.0791C284.081 -17.5827 286.905 -13.5425 288.369 -8.9566C289.836 -4.37102 290.098 0.364614 289.156 5.25374C288.213 10.1395 286.36 14.8517 283.595 19.3961C280.831 23.9387 277.39 27.9056 273.275 31.2896C266.974 36.342 259.581 40.0728 251.099 42.494C242.618 44.9099 234.259 45.3487 226.021 43.8053C224.38 43.5284 222.734 43.2135 221.07 42.852C219.416 42.4928 217.781 42.036 216.172 41.4929C215.197 43.3862 213.981 45.9748 212.52 49.2592C211.063 52.5447 209.811 56.0314 208.761 59.7228C207.715 63.412 207.271 66.8811 207.436 70.1308C207.601 73.3771 208.786 75.9622 210.99 77.8724C214.088 80.4988 218.093 81.5522 223.009 81.0322C227.923 80.5106 233.425 78.7875 239.508 75.8615C245.592 72.9389 251.922 69.0927 258.487 64.3272C265.054 59.5599 271.539 54.2446 277.936 48.3801C284.334 42.5103 290.352 36.4179 295.995 30.0973C301.638 23.7733 306.54 17.5293 310.707 11.3614L324.336 22.2666C317.827 31.9007 310.333 41.1938 301.85 50.146C293.371 59.096 284.541 67.0985 275.361 74.1534C271.214 77.3651 266.579 80.5606 261.463 83.741C256.348 86.9194 251.034 89.7188 245.52 92.1392C240.008 94.5525 234.498 96.2347 228.993 97.1754C223.489 98.1143 218.192 97.9578 213.105 96.7074C208.017 95.4537 203.362 92.7711 199.144 88.6574C195.225 84.7766 192.793 80.3801 191.849 75.4712C190.906 70.5605 190.882 65.5301 191.772 60.3803C192.667 55.2282 193.997 50.3921 195.758 45.8669C197.526 41.341 199.185 37.4756 200.741 34.2699C198.834 33.0381 196.958 31.7629 195.116 30.4356C193.271 29.1067 191.463 27.7322 189.684 26.3094L198.816 13.1306C200.432 14.5707 202.05 15.8312 203.68 16.9098C205.312 17.9932 206.881 18.9859 208.393 19.9012C211.844 14.3465 215.634 9.06916 219.773 4.06804C220.85 2.7015 222.488 0.67201 224.687 -2.0223C226.886 -4.71321 229.502 -7.63084 232.536 -10.7718C235.571 -13.9112 238.917 -16.8364 242.575 -19.5528C246.238 -22.268 250.137 -24.3784 254.275 -25.8878C258.418 -27.3994 262.655 -27.8684 266.983 -27.2999C271.314 -26.7298 275.618 -24.6572 279.902 -21.0828L279.899 -21.0791ZM267.227 12.2026C268.663 10.5285 269.978 8.46352 271.182 6.01193C272.385 3.55693 273.061 1.09327 273.21 -1.38246C273.364 -3.85699 272.599 -5.99068 270.917 -7.78046C268.711 -10.1428 266.099 -11.0095 263.083 -10.3773C260.07 -9.7455 256.847 -8.1276 253.417 -5.52924C249.988 -2.92747 246.625 0.0221432 243.33 3.32301C239.157 7.69965 235.366 12.1281 231.96 16.6045C228.557 21.0807 226.17 24.329 224.802 26.3543C233.338 28.1358 241.295 27.6734 248.676 24.9686C256.059 22.2653 262.241 18.0101 267.23 12.2023L267.227 12.2026Z" fill="#D88164"/>
<path d="M-14.9249 217.951C-20.1543 217.019 -24.4314 214.913 -27.7558 211.632C-31.0829 208.353 -33.4176 204.325 -34.762 199.546C-36.1044 194.769 -36.5703 189.679 -36.159 184.269C-35.748 178.861 -34.4869 173.613 -32.3742 168.532C-29.0812 160.865 -24.2409 153.801 -17.8619 147.33C-11.481 140.864 -4.32951 136.199 3.59715 133.338C5.16277 132.741 6.74874 132.175 8.37193 131.641C9.98508 131.11 11.6252 130.674 13.2811 130.328C13.2962 128.165 13.215 125.267 13.0401 121.632C12.8602 117.998 12.4113 114.293 11.694 110.511C10.9738 106.733 9.82279 103.456 8.23335 100.685C6.646 97.916 4.45538 96.2508 1.66984 95.7C-2.22045 94.9781 -6.20797 96.1023 -10.298 99.0765C-14.3857 102.051 -18.4553 106.382 -22.5019 112.069C-26.5505 117.752 -30.4043 124.373 -34.0575 131.923C-37.7109 139.476 -41.0484 147.467 -44.0649 155.897C-47.0796 164.331 -49.662 172.768 -51.8132 181.212C-53.9622 189.659 -55.496 197.657 -56.4177 205.211L-73.2427 202.605C-71.803 190.805 -69.3454 178.8 -65.8675 166.588C-62.3925 154.381 -58.188 142.827 -53.254 131.926C-51.037 126.98 -48.383 121.798 -45.2996 116.384C-42.2164 110.971 -38.7895 105.79 -35.0187 100.84C-31.2464 95.8965 -27.1517 91.5972 -22.731 87.9517C-18.3105 84.3085 -13.5856 81.7343 -8.55878 80.2286C-3.52984 78.7256 1.75363 78.7001 7.28869 80.1562C12.4581 81.5603 16.5493 84.1793 19.5602 88.0105C22.5709 91.844 24.8277 96.2528 26.3334 101.235C27.8362 106.221 28.8167 111.153 29.2794 116.032C29.7368 120.915 29.9965 125.161 30.0531 128.776C32.2769 128.882 34.4917 129.042 36.7013 129.266C38.9132 129.489 41.1131 129.771 43.3084 130.111L41.1387 146.37C39.0786 145.931 37.0957 145.652 35.1844 145.538C33.2686 145.422 31.4485 145.352 29.713 145.322C29.1482 151.971 28.1619 158.55 26.7462 165.065C26.4068 166.817 25.8695 169.439 25.134 172.933C24.3964 176.425 23.3935 180.328 22.1232 184.642C20.8506 188.955 19.2095 193.239 17.2017 197.5C15.1889 201.761 12.6997 205.613 9.73333 209.058C6.76406 212.507 3.2485 215.089 -0.808887 216.806C-4.86865 218.522 -9.57239 218.904 -14.9254 217.955L-14.9249 217.951ZM-18.5765 182.211C-19.0946 184.417 -19.3329 186.906 -19.3015 189.677C-19.2679 192.45 -18.7675 194.962 -17.7983 197.214C-16.8342 199.468 -15.2132 200.951 -12.9401 201.664C-9.95168 202.611 -7.27021 202.035 -4.90044 199.935C-2.53332 197.837 -0.41928 194.765 1.44082 190.725C3.29882 186.683 4.94358 182.368 6.37299 177.78C8.09579 171.797 9.45966 165.964 10.4641 160.286C11.4658 154.609 12.1203 150.532 12.423 148.052C4.12885 150.856 -2.65955 155.337 -7.94462 161.493C-13.2321 167.649 -16.7751 174.554 -18.5792 182.213L-18.5765 182.211Z" fill="#D88164"/>
</svg>
