<svg width="260" height="198" viewBox="0 0 260 198" fill="none" xmlns="http://www.w3.org/2000/svg">
<path d="M281.671 -45.2072C285.96 -41.8638 288.909 -37.9278 290.516 -33.3973C292.126 -28.8673 292.536 -24.1438 291.747 -19.2234C290.958 -14.3064 289.254 -9.52995 286.633 -4.88829C284.012 -0.248549 280.698 3.84027 276.692 7.37094C270.553 12.6478 263.28 16.6434 254.879 19.3694C246.478 22.09 238.138 22.8302 229.856 21.5851C228.207 21.3675 226.553 21.1123 224.878 20.811C223.214 20.5117 221.565 20.1141 219.94 19.6295C219.025 21.5568 217.891 24.1879 216.533 27.5232C215.18 30.8594 214.038 34.3893 213.104 38.1165C212.175 41.8414 211.839 45.3245 212.106 48.5664C212.373 51.805 213.638 54.3458 215.901 56.1755C219.079 58.6885 223.114 59.5968 228.012 58.8996C232.907 58.201 238.352 56.2802 244.34 53.1363C250.329 49.9958 256.534 45.9233 262.947 40.9236C269.361 35.9219 275.675 30.3756 281.885 24.2835C288.095 18.1861 293.919 11.8799 299.361 5.35924C304.802 -1.16484 309.506 -7.58216 313.478 -13.897L327.441 -3.48994C321.237 6.37369 314.038 15.932 305.84 25.1853C297.647 34.4363 289.073 42.7529 280.118 50.1352C276.075 53.4947 271.543 56.8558 266.529 60.219C261.517 63.5802 256.293 66.5699 250.858 69.1879C245.425 71.7987 239.971 73.6789 234.498 74.8178C229.027 75.9547 223.728 75.9895 218.604 74.9234C213.48 73.854 208.744 71.341 204.399 67.3818C200.361 63.6447 197.792 59.3385 196.695 54.4665C195.599 49.5926 195.417 44.5659 196.146 39.3868C196.879 34.2053 198.056 29.3239 199.675 24.7377C201.3 20.1506 202.837 16.2275 204.292 12.9675C202.347 11.8053 200.433 10.5985 198.549 9.3384C196.664 8.07688 194.814 6.7684 192.992 5.41051L201.705 -8.09039C203.365 -6.70945 205.023 -5.50802 206.685 -4.48892C208.35 -3.46496 209.949 -2.52945 211.489 -1.6693C214.764 -7.34535 218.387 -12.7565 222.367 -17.9042C223.4 -19.3089 224.973 -21.3963 227.087 -24.1684C229.201 -26.9372 231.724 -29.9476 234.657 -33.1963C237.593 -36.4435 240.845 -39.4878 244.416 -42.3347C247.991 -45.1806 251.822 -47.4305 255.911 -49.0884C260.004 -50.7486 264.224 -51.3703 268.568 -50.9584C272.914 -50.5449 277.281 -48.6288 281.673 -45.2111L281.671 -45.2072ZM270.049 -11.487C271.431 -13.212 272.681 -15.3233 273.807 -17.8169C274.933 -20.3139 275.532 -22.8006 275.603 -25.2803C275.679 -27.759 274.847 -29.8639 273.111 -31.592C270.832 -33.8734 268.194 -34.6452 265.2 -33.9046C262.208 -33.1644 259.038 -31.4311 255.691 -28.7104C252.345 -25.9863 249.077 -22.917 245.887 -19.4991C241.853 -14.9743 238.204 -10.4115 234.94 -5.81466C231.679 -1.21824 229.395 2.11435 228.091 4.18797C236.678 5.66037 244.617 4.91099 251.908 1.9413C259.202 -1.02692 265.248 -5.50285 270.052 -11.4874L270.049 -11.487Z" fill="#F6F5EA"/>
<path d="M-50.9505 73.7756C-46.3873 70.8797 -41.8505 69.54 -37.3389 69.7583C-32.8265 69.9733 -28.6254 71.4467 -24.7326 74.1791C-20.8429 76.9109 -17.4369 80.4875 -14.5109 84.9146C-11.5861 89.3398 -9.40807 94.2294 -7.9823 99.5789C-5.91147 107.723 -5.38641 116.474 -6.39547 125.833C-7.40889 135.189 -10.0912 143.698 -14.4476 151.36C-15.289 152.898 -16.1648 154.426 -17.0879 155.955C-18.0052 157.475 -19.0003 158.941 -20.0608 160.35C-18.7766 162.016 -16.9784 164.18 -14.6669 166.843C-12.3525 169.501 -9.78896 172.029 -6.97389 174.431C-4.1591 176.827 -1.31482 178.542 1.56275 179.567C4.43712 180.592 7.11233 180.355 9.57558 178.855C12.9874 176.722 15.3678 173.109 16.7184 168.008C18.067 162.909 18.5891 156.783 18.2817 149.635C17.9775 142.488 16.9626 134.757 15.2374 126.454C13.5111 118.148 11.2796 109.724 8.53996 101.186C5.79595 92.6458 2.72004 84.4026 -0.691228 76.4507C-4.1057 68.4982 -7.72207 61.3147 -11.5418 54.8928L2.90506 45.2761C8.87137 55.3069 14.1809 66.197 18.8327 77.9497C23.4843 89.6971 27.1859 101.448 29.9375 113.202C31.2023 118.52 32.274 124.32 33.1562 130.595C34.0373 136.868 34.5167 143.201 34.5944 149.595C34.6667 155.985 34.1063 162.104 32.9045 167.947C31.7016 173.788 29.6252 179.021 26.6774 183.643C23.7264 188.265 19.6954 191.932 14.5841 194.637C9.78391 197.13 5.08174 197.948 0.480754 197.092C-4.1214 196.234 -8.49091 194.415 -12.6287 191.639C-16.7667 188.857 -20.4718 185.758 -23.749 182.34C-27.0244 178.916 -29.7673 175.843 -31.9758 173.114C-33.7424 174.568 -35.5349 175.974 -37.3607 177.328C-39.1886 178.684 -41.0425 179.986 -42.9275 181.24L-51.0055 167.292C-49.1651 166.205 -47.4793 165.051 -45.9474 163.818C-44.4103 162.586 -42.9749 161.382 -41.6276 160.208C-45.1781 154.726 -48.3639 149.007 -51.1825 143.04C-51.9724 141.464 -53.1316 139.085 -54.6614 135.901C-56.188 132.718 -57.7586 129.037 -59.3698 124.856C-60.9791 120.674 -62.2887 116.261 -63.3032 111.612C-64.3147 106.959 -64.7154 102.292 -64.5076 97.6056C-64.3 92.9144 -63.1541 88.5108 -61.0752 84.3956C-58.9942 80.2791 -55.6206 76.74 -50.9528 73.7717L-50.9505 73.7756ZM-26.7437 98.6262C-27.6689 96.5788 -28.9769 94.5086 -30.661 92.4082C-32.3483 90.3071 -34.2361 88.729 -36.3276 87.6731C-38.4161 86.6125 -40.5462 86.5953 -42.7137 87.6188C-45.5697 88.9562 -47.2782 91.2481 -47.8353 94.4918C-48.3914 97.7322 -48.17 101.544 -47.1744 105.922C-46.1757 110.3 -44.8509 114.74 -43.197 119.24C-40.9321 125.011 -38.4824 130.42 -35.85 135.462C-33.2167 140.5 -31.2756 144.075 -30.0213 146.183C-25.3494 138.311 -22.8346 130.194 -22.4749 121.831C-22.1132 113.467 -23.5364 105.734 -26.7429 98.6229L-26.7437 98.6262Z" fill="#F6F5EA"/>
</svg>
