<svg width="140" height="115" viewBox="0 0 140 115" fill="none" xmlns="http://www.w3.org/2000/svg">
<path d="M160.26 42.6214C158.497 45.0957 156.45 46.7744 154.119 47.6566C151.787 48.5408 149.373 48.7177 146.876 48.1877C144.379 47.6573 141.967 46.5917 139.637 44.9886C137.307 43.3864 135.267 41.384 133.522 38.9826C130.915 35.3046 128.977 30.9784 127.702 26.0062C126.429 21.0344 126.166 16.1252 126.913 11.277C127.047 10.3112 127.199 9.34296 127.376 8.36347C127.551 7.38999 127.776 6.42699 128.045 5.47868C127.075 4.91531 125.749 4.2131 124.067 3.37018C122.385 2.53027 120.601 1.81143 118.713 1.21218C116.827 0.61555 115.056 0.371236 113.399 0.484129C111.744 0.59662 110.432 1.30565 109.468 2.60962C108.143 4.44289 107.625 6.80081 107.914 9.68712C108.203 12.5723 109.109 15.7966 110.63 19.3569C112.149 22.9176 114.141 26.6181 116.603 30.453C119.065 34.2886 121.807 38.0732 124.828 41.8037C127.853 45.5345 130.988 49.0414 134.239 52.3266C137.491 55.6115 140.698 58.4616 143.864 60.8803L138.368 68.9414C133.423 65.1634 128.648 60.8047 124.042 55.8634C119.437 50.9247 115.314 45.7752 111.672 40.4149C110.015 37.9942 108.363 35.286 106.716 32.2952C105.071 29.3051 103.618 26.196 102.357 22.9678C101.1 19.7406 100.216 16.5116 99.7099 13.2812C99.2048 10.0516 99.2593 6.93865 99.8726 3.94344C100.488 0.947825 101.834 -1.80038 103.911 -4.29857C105.872 -6.62037 108.102 -8.07064 110.601 -8.64897C113.101 -9.22658 115.666 -9.26525 118.297 -8.76687C120.928 -8.26588 123.401 -7.50807 125.717 -6.49495C128.034 -5.4781 130.013 -4.52205 131.655 -3.62307C132.274 -4.74981 132.916 -5.85778 133.584 -6.94705C134.253 -8.03745 134.945 -9.10648 135.662 -10.1583L142.427 -4.8564C141.7 -3.9 141.065 -2.94275 140.523 -1.98017C139.978 -1.01605 139.479 -0.0893538 139.02 0.8034C141.869 2.80432 144.578 5.00594 147.149 7.41389C147.851 8.04017 148.893 8.99249 150.278 10.2716C151.661 11.5511 153.161 13.0742 154.778 14.8413C156.393 16.6096 157.901 18.5616 159.304 20.6977C160.706 22.8368 161.801 25.1177 162.59 27.5419C163.381 29.9687 163.64 32.4561 163.371 35.0024C163.101 37.5499 162.065 40.0888 160.262 42.6229L160.26 42.6214ZM143.227 35.3364C144.088 36.172 145.147 36.9348 146.403 37.6302C147.661 38.3252 148.92 38.7107 150.184 38.7863C151.446 38.8648 152.531 38.4047 153.436 37.4081C154.63 36.1007 155.059 34.5613 154.722 32.7923C154.386 31.0251 153.545 29.139 152.204 27.1361C150.861 25.1336 149.34 23.1721 147.641 21.2518C145.389 18.821 143.113 16.6151 140.813 14.6354C138.514 12.6576 136.847 11.2708 135.807 10.4765C134.939 15.5008 135.213 20.1742 136.628 24.4979C138.042 28.8227 140.241 32.4349 143.227 35.3383L143.227 35.3364Z" fill="#F6F5EA"/>
<path d="M-34.0004 76.0379C-33.1577 73.2111 -31.8227 71.0005 -29.9941 69.4064C-28.1663 67.8107 -26.0533 66.8213 -23.6537 66.4372C-21.2555 66.054 -18.7729 66.18 -16.2027 66.8162C-13.6335 67.452 -11.2053 68.5467 -8.92164 70.1006C-5.48384 72.5035 -2.45235 75.7182 0.177495 79.7405C2.80482 83.7634 4.50822 88.0774 5.28589 92.6847C5.45473 93.5971 5.60702 94.5184 5.74136 95.458C5.87496 96.3917 5.96066 97.3332 6.0024 98.2768C7.04123 98.4484 8.44077 98.6221 10.2018 98.7995C11.9624 98.9741 13.778 99.005 15.6507 98.8931C17.5215 98.7792 19.1838 98.3888 20.6364 97.7174C22.0875 97.047 23.0535 95.9591 23.5286 94.4575C24.1693 92.3567 23.9297 90.0628 22.8083 87.5725C21.6865 85.0834 19.9111 82.502 17.4824 79.8311C15.0551 77.1592 12.1623 74.5245 8.80777 71.9309C5.45214 69.3369 1.86137 66.8848 -1.96417 64.5775C-5.79223 62.2708 -9.65362 60.2035 -13.5516 58.3745C-17.451 56.5464 -21.1807 55.0932 -24.7436 54.0124L-22.2205 44.8881C-16.6554 46.5762 -11.0686 48.8437 -5.4594 51.692C0.147945 54.5384 5.38618 57.7397 10.2553 61.2958C12.466 62.8973 14.7573 64.7587 17.1281 66.8755C19.4978 68.992 21.7305 71.2816 23.8262 73.7442C25.9183 76.2071 27.6765 78.8 29.0957 81.5242C30.5138 84.2481 31.395 87.0599 31.7396 89.9584C32.0828 92.8579 31.6963 95.7868 30.5784 98.7434C29.5132 101.501 27.9451 103.57 25.8757 104.949C23.8053 106.328 21.5151 107.245 19.0059 107.703C16.4949 108.16 14.0498 108.331 11.6689 108.219C9.2865 108.104 7.22498 107.927 5.48284 107.686C5.26403 108.91 5.01959 110.124 4.74558 111.332C4.47121 112.54 4.16941 113.738 3.8402 114.928L-3.81346 112.499C-3.44719 111.391 -3.16332 110.313 -2.96439 109.263C-2.76367 108.211 -2.59303 107.208 -2.44745 106.248C-5.6018 105.434 -8.6907 104.391 -11.7163 103.115C-12.5334 102.795 -13.7536 102.299 -15.3781 101.628C-17.0011 100.956 -18.8025 100.106 -20.7807 99.0762C-22.7586 98.0457 -24.6947 96.8132 -26.5916 95.3793C-28.4889 93.9426 -30.1528 92.273 -31.5855 90.3696C-33.02 88.4643 -33.996 86.3219 -34.5152 83.9445C-35.034 81.5659 -34.8627 78.9312 -34.0026 76.0372L-34.0004 76.0379ZM-16.5402 76.7121C-17.5621 76.2586 -18.7406 75.9387 -20.0753 75.7471C-21.4115 75.5563 -22.6569 75.644 -23.813 76.0109C-24.9694 76.375 -25.805 77.1611 -26.319 78.3666C-26.9999 79.9507 -26.9253 81.4797 -26.0946 82.951C-25.2646 84.4207 -23.9469 85.8237 -22.1448 87.1591C-20.3412 88.4935 -18.391 89.7303 -16.2928 90.8685C-13.5459 92.2744 -10.8442 93.4702 -8.1897 94.4552C-5.53597 95.4386 -3.62502 96.1088 -2.45506 96.4637C-3.17762 91.6571 -4.81967 87.5582 -7.38085 84.1657C-9.94167 80.7719 -12.9945 78.2879 -16.5409 76.7105L-16.5402 76.7121Z" fill="#F6F5EA"/>
</svg>
