<svg width="140" height="141" viewBox="0 0 140 141" fill="none" xmlns="http://www.w3.org/2000/svg">
<path d="M163.466 45.7539C161.704 48.2294 159.658 49.9094 157.327 50.7932C154.996 51.6789 152.583 51.8573 150.084 51.329C147.588 50.8002 145.175 49.7362 142.843 48.1347C140.513 46.5339 138.472 44.5329 136.725 42.1326C134.116 38.4564 132.175 34.1314 130.896 29.1601C129.62 24.1891 129.353 19.28 130.098 14.4313C130.231 13.4655 130.383 12.4971 130.559 11.5175C130.733 10.5439 130.958 9.58078 131.226 8.6323C130.256 8.06956 128.929 7.36822 127.247 6.5264C125.564 5.68759 123.779 4.96992 121.891 4.37191C120.005 3.77651 118.233 3.53336 116.577 3.64734C114.922 3.76091 113.61 4.4708 112.647 5.7754C111.324 7.60954 110.807 9.96779 111.098 12.8539C111.389 15.7389 112.296 18.9626 113.82 22.5219C115.342 26.0817 117.336 29.7808 119.8 33.6141C122.265 37.4481 125.009 41.2309 128.033 44.9594C131.06 48.6882 134.198 52.1931 137.45 55.4762C140.704 58.7589 143.914 61.6069 147.081 64.0236L141.59 72.0883C136.643 68.3135 131.865 63.9579 127.256 59.0196C122.648 54.0839 118.521 48.9371 114.876 43.5792C113.217 41.1596 111.563 38.4525 109.915 35.4628C108.268 32.4738 106.812 29.3656 105.55 26.1382C104.291 22.9119 103.404 19.6834 102.896 16.4534C102.389 13.2241 102.441 10.1111 103.053 7.1155C103.666 4.11948 105.01 1.3704 107.086 -1.12915C109.045 -3.45223 111.274 -4.90396 113.773 -5.48393C116.272 -6.06317 118.837 -6.10352 121.468 -5.60687C124.1 -5.1076 126.574 -4.35141 128.89 -3.33981C131.208 -2.32447 133.187 -1.36971 134.83 -0.471815C135.449 -1.59896 136.089 -2.70735 136.757 -3.79705C137.425 -4.88789 138.116 -5.95738 138.833 -7.00964L145.601 -1.71219C144.875 -0.755321 144.24 0.202348 143.699 1.16528C143.155 2.12976 142.656 3.05678 142.197 3.94984C145.048 5.94889 147.759 8.14874 150.331 10.555C151.033 11.1808 152.077 12.1325 153.462 13.4106C154.846 14.6892 156.347 16.2114 157.965 17.9774C159.581 19.7447 161.09 21.6957 162.495 23.8309C163.898 25.969 164.995 28.2492 165.786 30.6729C166.578 33.0992 166.839 35.5864 166.571 38.1329C166.303 40.6805 165.268 43.2201 163.468 45.7554L163.466 45.7539ZM146.427 38.4801C147.289 39.3151 148.348 40.0772 149.605 40.7718C150.863 41.466 152.123 41.8506 153.386 41.9254C154.649 42.0031 155.733 41.5423 156.637 40.5451C157.831 39.2369 158.259 37.6972 157.921 35.9284C157.583 34.1615 156.742 32.2759 155.399 30.2739C154.054 28.2723 152.533 26.3117 150.832 24.3926C148.579 21.9633 146.301 19.7588 144 17.7806C141.7 15.8043 140.031 14.4186 138.991 13.625C138.127 18.6499 138.404 23.3231 139.821 27.6459C141.238 31.9698 143.44 35.5806 146.428 38.4819L146.427 38.4801Z" fill="#D88164"/>
<path d="M-31.0004 114.038C-30.1577 111.211 -28.8227 109 -26.9941 107.406C-25.1663 105.811 -23.0533 104.821 -20.6537 104.437C-18.2555 104.054 -15.7729 104.18 -13.2027 104.816C-10.6335 105.452 -8.20527 106.547 -5.92164 108.1C-2.48384 110.503 0.547647 113.718 3.17749 117.74C5.80482 121.763 7.50822 126.077 8.28589 130.685C8.45473 131.597 8.60702 132.518 8.74136 133.458C8.87496 134.392 8.96066 135.333 9.0024 136.277C10.0412 136.448 11.4408 136.622 13.2018 136.799C14.9624 136.974 16.778 137.005 18.6507 136.893C20.5215 136.779 22.1838 136.389 23.6364 135.717C25.0875 135.047 26.0535 133.959 26.5286 132.457C27.1693 130.357 26.9297 128.063 25.8083 125.572C24.6865 123.083 22.9111 120.502 20.4824 117.831C18.0551 115.159 15.1623 112.524 11.8078 109.931C8.45214 107.337 4.86137 104.885 1.03583 102.577C-2.79223 100.271 -6.65362 98.2034 -10.5516 96.3744C-14.451 94.5463 -18.1807 93.093 -21.7436 92.0122L-19.2205 82.888C-13.6554 84.5761 -8.06856 86.8436 -2.4594 89.6919C3.14794 92.5383 8.38618 95.7396 13.2553 99.2957C15.466 100.897 17.7573 102.759 20.1281 104.875C22.4978 106.992 24.7305 109.281 26.8262 111.744C28.9183 114.207 30.6765 116.8 32.0957 119.524C33.5138 122.248 34.395 125.06 34.7396 127.958C35.0828 130.858 34.6963 133.787 33.5784 136.743C32.5132 139.501 30.9451 141.57 28.8757 142.949C26.8053 144.327 24.5151 145.245 22.0059 145.703C19.4949 146.159 17.0498 146.33 14.6689 146.219C12.2865 146.103 10.225 145.927 8.48284 145.685C8.26403 146.909 8.01959 148.124 7.74558 149.331C7.47121 150.54 7.16941 151.737 6.8402 152.928L-0.813461 150.499C-0.447187 149.391 -0.163319 148.313 0.0356113 147.263C0.236334 146.211 0.406971 145.207 0.55255 144.248C-2.6018 143.434 -5.6907 142.391 -8.71634 141.115C-9.53339 140.794 -10.7536 140.299 -12.3781 139.628C-14.0011 138.956 -15.8025 138.105 -17.7807 137.076C-19.7586 136.046 -21.6947 134.813 -23.5916 133.379C-25.4889 131.943 -27.1528 130.273 -28.5855 128.369C-30.02 126.464 -30.996 124.322 -31.5152 121.944C-32.034 119.566 -31.8627 116.931 -31.0026 114.037L-31.0004 114.038ZM-13.5402 114.712C-14.5621 114.258 -15.7406 113.939 -17.0753 113.747C-18.4115 113.556 -19.6569 113.644 -20.813 114.011C-21.9694 114.375 -22.805 115.161 -23.319 116.366C-23.9999 117.951 -23.9253 119.48 -23.0946 120.951C-22.2646 122.421 -20.9469 123.824 -19.1448 125.159C-17.3412 126.493 -15.391 127.73 -13.2928 128.868C-10.5459 130.274 -7.84416 131.47 -5.1897 132.455C-2.53597 133.438 -0.625019 134.109 0.544944 134.464C-0.177622 129.657 -1.81967 125.558 -4.38085 122.166C-6.94167 118.772 -9.99455 116.288 -13.5409 114.71L-13.5402 114.712Z" fill="#D88164"/>
</svg>
