<svg width="260" height="220" viewBox="0 0 260 220" fill="none" xmlns="http://www.w3.org/2000/svg">
<path d="M193.368 42.3947C193.271 36.7056 194.422 31.8083 196.823 27.7028C199.223 23.5949 202.488 20.3983 206.622 18.1103C210.754 15.8249 215.333 14.4077 220.364 13.8582C225.392 13.3089 230.429 13.6859 235.468 14.9921C243.09 17.074 250.442 20.8986 257.529 26.4553C264.613 32.0148 270.187 38.7151 274.249 46.5615C275.081 48.1055 275.887 49.6766 276.672 51.2928C277.451 52.899 278.149 54.5509 278.767 56.2357C280.751 55.8584 283.392 55.2458 286.69 54.4004C289.986 53.5499 293.299 52.4024 296.633 50.9577C299.963 49.5106 302.755 47.7 305.005 45.5185C307.253 43.3396 308.38 40.7246 308.379 37.6844C308.333 33.4469 306.578 29.4424 303.11 25.6661C299.641 21.8923 294.934 18.3842 288.989 15.1469C283.046 11.9069 276.28 9.04291 268.699 6.55964C261.116 4.0765 253.188 2.00674 244.917 0.355394C236.642 -1.29314 228.445 -2.48521 220.318 -3.22046C212.189 -3.95302 204.583 -4.11791 197.495 -3.71733L196.824 -21.9501C207.896 -22.5758 219.34 -22.1645 231.159 -20.7137C242.974 -19.2652 254.323 -16.9279 265.207 -13.7019C270.14 -12.261 275.37 -10.4018 280.891 -8.13165C286.41 -5.86138 291.779 -3.18623 297 -0.10619C302.214 2.97678 306.897 6.51713 311.041 10.5205C315.182 14.5239 318.399 19.043 320.692 24.0752C322.983 29.11 323.967 34.6821 323.64 40.7891C323.293 46.5007 321.638 51.2952 318.676 55.1697C315.711 59.0445 312.082 62.2281 307.792 64.7232C303.497 67.216 299.158 69.1474 294.772 70.5229C290.382 71.8934 286.539 72.9396 283.238 73.6564C283.545 76.023 283.801 78.3899 283.998 80.7627C284.196 83.138 284.337 85.5114 284.425 87.8903L269.136 88.5561C269.163 86.302 269.058 84.1582 268.815 82.1202C268.574 80.0768 268.306 78.1431 268.018 76.3058C261.825 76.9184 255.618 77.0735 249.393 76.7637C247.726 76.724 245.226 76.6336 241.891 76.4925C238.559 76.3487 234.8 75.9999 230.618 75.4434C226.435 74.8843 222.212 73.931 217.944 72.5863C213.674 71.2366 209.693 69.3094 205.998 66.8048C202.298 64.2978 199.294 61.0565 196.983 57.086C194.673 53.1129 193.468 48.2175 193.364 42.3949L193.368 42.3947ZM225.445 32.0426C223.33 31.897 221.007 32.0977 218.474 32.6348C215.939 33.1745 213.729 34.1592 211.842 35.5917C209.953 37.0191 208.889 38.9998 208.649 41.5285C208.325 44.855 209.34 47.5806 211.695 49.7001C214.047 51.8173 217.246 53.4901 221.285 54.7189C225.326 55.9451 229.577 56.8968 234.04 57.5714C239.835 58.302 245.426 58.6811 250.811 58.7089C256.193 58.7343 260.047 58.6838 262.374 58.5523C258.297 50.3077 252.958 43.9571 246.358 39.4979C239.757 35.0362 232.787 32.5519 225.443 32.0401L225.445 32.0426Z" fill="#F6F5EA"/>
<path d="M46.6867 159.726C45.0218 165.128 42.4238 169.339 38.8905 172.359C35.3585 175.381 31.2905 177.235 26.6836 177.923C22.0795 178.61 17.3225 178.318 12.4062 177.047C7.492 175.776 2.85608 173.629 -1.49467 170.604C-8.04319 165.928 -13.7986 159.705 -18.77 151.941C-23.7365 144.176 -26.9267 135.871 -28.3371 127.023C-28.6448 125.27 -28.9207 123.501 -29.1618 121.697C-29.4016 119.904 -29.5495 118.098 -29.613 116.288C-31.6015 115.938 -34.2815 115.577 -37.6544 115.202C-41.0265 114.832 -44.5066 114.736 -48.0986 114.913C-51.6872 115.093 -54.8807 115.808 -57.6771 117.066C-60.4708 118.322 -62.3416 120.388 -63.2786 123.257C-64.5436 127.272 -64.1243 131.674 -62.0179 136.471C-59.9109 141.265 -56.5523 146.25 -51.9429 151.419C-47.3363 156.59 -41.8367 161.699 -35.4511 166.739C-29.0634 171.779 -22.2225 176.552 -14.929 181.052C-7.63065 185.551 -0.264206 189.592 7.17652 193.177C14.62 196.76 21.7447 199.621 28.5562 201.764L23.5599 219.205C12.9206 215.857 2.24998 211.398 -8.4534 205.825C-19.1534 200.255 -29.1395 194.013 -38.4118 187.097C-42.6219 183.983 -46.9819 180.368 -51.4899 176.263C-55.9958 172.157 -60.2361 167.723 -64.2107 162.96C-68.1784 158.196 -71.5037 153.19 -74.1769 147.939C-76.848 142.689 -78.4882 137.281 -79.0982 131.717C-79.7054 126.152 -78.9134 120.545 -76.7187 114.899C-74.6284 109.634 -71.5862 105.699 -67.595 103.097C-63.6018 100.496 -59.1953 98.7831 -54.377 97.9553C-49.5552 97.1312 -44.8648 96.8525 -40.3024 97.1149C-35.7373 97.3835 -31.7883 97.7636 -28.4527 98.2615C-28.0119 95.9194 -27.5221 93.5954 -26.9757 91.2865C-26.4286 88.9751 -25.8291 86.6856 -25.1772 84.41L-10.5471 89.2205C-11.2686 91.3376 -11.8316 93.3975 -12.2313 95.4069C-12.6345 97.4206 -12.9791 99.3402 -13.275 101.176C-7.24208 102.801 -1.33867 104.863 4.4394 107.37C6.00013 108 8.33072 108.975 11.4332 110.294C14.5329 111.615 17.9714 113.281 21.7459 115.294C25.5196 117.31 29.2098 119.712 32.8212 122.498C36.4333 125.291 39.5939 128.525 42.3073 132.203C45.0241 135.884 46.8577 140.011 47.8115 144.579C48.7647 149.15 48.3902 154.197 46.6908 159.728L46.6867 159.726ZM13.2261 158.083C15.1772 158.972 17.4308 159.609 19.9862 160.004C22.5445 160.396 24.9335 160.253 27.1562 159.573C29.3795 158.898 30.9951 157.408 32.0016 155.107C33.3345 152.084 33.2183 149.152 31.6514 146.314C30.0858 143.48 27.5842 140.764 24.1528 138.168C20.7186 135.573 17.0015 133.163 12.9989 130.939C7.75751 128.188 2.59898 125.842 -2.47259 123.9C-7.5428 121.961 -11.1945 120.638 -13.4312 119.934C-12.1299 129.163 -9.05358 137.054 -4.20288 143.609C0.647121 150.167 6.45632 154.99 13.2275 158.086L13.2261 158.083Z" fill="#F6F5EA"/>
</svg>
