<svg width="169" height="50" viewBox="0 0 169 50" fill="none" xmlns="http://www.w3.org/2000/svg">
<path d="M81.4379 7.16752C82.1654 4.86123 83.6407 3.0242 85.8652 1.65667C88.0885 0.287878 90.7803 -0.60932 93.9424 -1.03577C97.1027 -1.46138 100.449 -1.48327 103.985 -1.10082C107.519 -0.718579 110.93 0.0382656 114.213 1.17014C119.163 2.92504 123.684 5.35039 127.782 8.44261C131.876 11.5355 134.773 14.9072 136.471 18.5597C136.827 19.2823 137.163 20.0129 137.476 20.7589C137.788 21.5004 138.037 22.2504 138.227 23.0042C139.644 23.0903 141.545 23.1602 143.931 23.2152C146.316 23.2679 148.754 23.2029 151.249 23.0205C153.741 22.8367 155.914 22.4417 157.765 21.832C159.615 21.2231 160.755 20.3038 161.179 19.0773C161.739 17.3626 161.091 15.5368 159.234 13.5972C157.376 11.6587 154.628 9.6785 150.993 7.65894C147.359 5.63856 143.106 3.67098 138.24 1.75915C133.373 -0.152883 128.21 -1.93962 122.754 -3.59876C117.294 -5.25727 111.823 -6.7224 106.338 -7.99479C100.85 -9.26634 95.6437 -10.246 90.7137 -10.9356L92.7981 -18.3701C100.499 -17.293 108.311 -15.753 116.235 -13.7486C124.157 -11.7458 131.634 -9.44036 138.668 -6.8324C141.859 -5.65883 145.195 -4.281 148.675 -2.70245C152.152 -1.12412 155.471 0.59961 158.631 2.46875C161.786 4.33831 164.512 6.32856 166.802 8.44075C169.09 10.5527 170.672 12.7618 171.546 15.0667C172.418 17.3726 172.317 19.7381 171.239 22.162C170.203 24.4241 168.396 26.1591 165.818 27.3661C163.238 28.573 160.299 29.4214 157 29.9126C153.699 30.4023 150.445 30.6603 147.238 30.6885C144.028 30.7142 141.239 30.6746 138.869 30.5674C138.75 31.5588 138.595 32.5442 138.4 33.5249C138.204 34.5067 137.97 35.4809 137.698 36.4509L127.092 34.8837C127.425 33.9778 127.653 33.1006 127.77 32.2493C127.889 31.3962 127.975 30.5841 128.034 29.8085C123.689 29.3119 119.4 28.6293 115.163 27.7568C114.022 27.5406 112.316 27.204 110.042 26.7467C107.771 26.2886 105.235 25.6966 102.437 24.9699C99.6389 24.2421 96.8681 23.3505 94.1213 22.2958C91.3735 21.2387 88.9055 19.9834 86.7141 18.5294C84.52 17.0741 82.9069 15.406 81.8727 13.5272C80.8387 11.6473 80.6936 9.52808 81.4349 7.1671L81.4379 7.16752ZM104.94 6.84373C103.506 6.53097 101.88 6.33304 100.064 6.24552C98.2455 6.15884 96.5884 6.29067 95.0908 6.64186C93.5924 6.99074 92.584 7.66182 92.0665 8.65303C91.3791 9.95577 91.6966 11.177 93.0195 12.3146C94.3413 13.4509 96.3073 14.5097 98.9131 15.4903C101.521 16.4701 104.311 17.3644 107.286 18.1724C111.168 19.1629 114.96 19.9872 118.658 20.6449C122.356 21.3014 125.013 21.7438 126.632 21.9702C124.979 18.1553 122.195 14.9529 118.279 12.3618C114.363 9.76964 109.917 7.93071 104.939 6.84247L104.94 6.84373Z" fill="#F6F5EA"/>
<path d="M4.9032 -22.13C6.9673 -23.3901 9.28655 -23.805 11.8619 -23.3737C14.4372 -22.9441 17.0556 -21.8511 19.7191 -20.0943C22.3808 -18.338 24.9169 -16.1554 27.3306 -13.5431C29.7434 -10.932 31.8166 -8.11979 33.5466 -5.10941C36.1242 -0.533201 37.9377 4.26622 38.9937 9.28991C40.0468 14.3119 40.0144 18.7573 38.8935 22.6261C38.687 23.4047 38.4595 24.1757 38.2056 24.9442C37.9534 25.708 37.648 26.4368 37.2959 27.1299C38.3073 28.1261 39.694 29.4281 41.4561 31.0377C43.219 32.645 45.0994 34.1985 47.0993 35.7006C49.0982 37.1997 50.9954 38.3301 52.7918 39.0876C54.5862 39.8446 56.0498 39.901 57.1749 39.2548C58.7239 38.3306 59.4359 36.5289 59.3106 33.8462C59.1844 31.1641 58.4153 27.866 57.0024 23.9544C55.5914 20.0432 53.6794 15.7653 51.2686 11.1263C48.8568 6.48619 46.1403 1.74661 43.1182 -3.09011C40.0932 -7.92852 36.9332 -12.6282 33.635 -17.1925C30.335 -21.7574 27.0548 -25.9177 23.7923 -29.6776L30.2494 -33.911C35.3453 -28.0382 40.2208 -21.7431 44.8761 -15.0242C49.5303 -8.30812 53.6508 -1.65606 57.2375 4.932C58.8715 7.91396 60.4805 11.1452 62.0653 14.6217C63.6491 18.097 65.0175 21.5773 66.1704 25.0628C67.3195 28.5454 68.0658 31.8369 68.4036 34.9339C68.7404 38.0299 68.4804 40.734 67.6244 43.0459C66.7664 45.3572 65.1353 47.0734 62.7298 48.1917C60.4625 49.2159 57.9597 49.3355 55.2234 48.5509C52.4862 47.7652 49.7131 46.4726 46.9042 44.6749C44.0942 42.8743 41.4726 40.9305 39.0366 38.8435C36.6003 36.7531 34.5245 34.8905 32.8089 33.2522C32.0675 33.921 31.3032 34.5619 30.5112 35.1725C29.7183 35.7837 28.9015 36.364 28.059 36.9164L21.0957 28.7647C21.9424 28.3011 22.6902 27.7893 23.3381 27.2248C23.9887 26.6602 24.5873 26.1047 25.1413 25.5588C22.1933 22.3291 19.4093 18.9956 16.789 15.553C16.0712 14.6402 15.0065 13.2651 13.5938 11.4265C12.183 9.58835 10.6609 7.47557 9.02946 5.08869C7.3989 2.7012 5.89658 0.208146 4.51958 -2.39216C3.14342 -4.9948 2.1083 -7.56301 1.41226 -10.0991C0.715145 -12.638 0.595689 -14.9554 1.05107 -17.0512C1.50736 -19.1475 2.7908 -20.8401 4.90122 -22.1323L4.9032 -22.13ZM22.8292 -6.92758C21.9537 -8.10602 20.8588 -9.32342 19.5472 -10.5833C18.2337 -11.8437 16.8982 -12.8334 15.5387 -13.553C14.18 -14.2749 12.979 -14.4318 11.9374 -14.025C10.5631 -13.4949 9.9998 -12.3658 10.2492 -10.6389C10.4986 -8.91377 11.2844 -6.82364 12.6038 -4.37194C13.9252 -1.9197 15.4404 0.588207 17.1514 3.1523C19.4264 6.45038 21.7426 9.56383 24.0978 12.4904C26.453 15.4152 28.1648 17.495 29.2361 18.7296C30.498 14.7684 30.5043 10.5247 29.2558 5.99813C28.0083 1.47094 25.8661 -2.83705 22.8291 -6.92932L22.8292 -6.92758Z" fill="#F6F5EA"/>
</svg>
