<svg width="398" height="322" viewBox="0 0 398 322" fill="none" xmlns="http://www.w3.org/2000/svg">
<path d="M145.142 312.977C131.714 306.9 122.14 298.831 116.421 288.764C110.694 278.7 108.484 267.654 109.789 255.618C111.098 243.589 115.149 231.496 121.951 219.324C128.75 207.156 137.724 195.996 148.868 185.86C165.972 170.646 186.708 157.983 211.059 147.845C235.411 137.72 259.998 132.328 284.83 131.679C289.768 131.478 294.729 131.364 299.76 131.351C304.76 131.337 309.734 131.564 314.659 132.007C316.967 127.029 319.78 120.282 323.108 111.765C326.42 103.247 329.066 94.3613 331.054 85.0969C333.029 75.8401 333.293 67.4167 331.819 59.8289C330.348 52.2489 326.059 46.7622 318.964 43.3995C309.005 38.8124 296.844 38.4114 282.461 42.2015C268.084 45.9943 252.336 52.9305 235.231 63.0102C218.123 73.0822 200.569 85.4632 182.595 100.138C164.617 114.818 147.05 130.749 129.907 147.931C112.764 165.127 96.8103 182.65 82.0358 200.516C67.2643 218.39 54.6585 235.689 44.2027 252.426L0.590901 233.777C16.9225 207.635 36.2721 181.784 58.649 156.223C81.0133 130.67 104.703 107.171 129.717 85.7275C141.006 75.9827 153.747 66.0209 167.914 55.8447C182.078 45.6735 196.947 36.2934 212.522 27.7043C228.092 19.1331 243.876 12.2895 259.873 7.19901C275.867 2.11362 291.579 -0.277026 307.003 0.0244298C322.43 0.333601 337.01 4.24248 350.73 11.7586C363.497 18.8802 372.022 27.9948 376.3 39.0948C380.576 50.1998 382.172 62.066 381.098 74.6911C380.012 87.3236 377.545 99.4367 373.706 111.041C369.849 122.649 366.114 132.642 362.482 141.023C368.497 142.937 374.429 144.971 380.281 147.145C386.139 149.322 391.903 151.626 397.593 154.059L374.579 189.938C369.364 187.38 364.195 185.247 359.05 183.549C353.895 181.841 348.954 180.314 344.206 178.941C335.682 193.856 326.071 208.293 315.345 222.26C312.573 226.049 308.345 231.694 302.658 239.203C296.968 246.703 290.114 254.956 282.095 263.954C274.069 272.95 265.059 281.601 255.064 289.922C245.054 298.242 234.162 305.258 222.381 310.979C210.587 316.707 198.198 320.023 185.224 320.936C172.243 321.847 158.886 319.195 145.136 312.987L145.142 312.977ZM172.537 227.781C168.798 232.482 165.534 238.044 162.717 244.461C159.902 250.885 158.649 257.055 158.958 262.979C159.252 268.903 162.162 273.542 167.677 276.892C174.916 281.322 182.905 282.006 191.633 278.942C200.352 275.88 209.394 270.38 218.751 262.456C228.106 254.525 237.157 245.808 245.902 236.296C256.918 223.786 266.787 211.353 275.504 199.007C284.212 186.664 290.287 177.749 293.721 172.254C267.936 172.495 244.542 177.734 223.534 187.968C202.519 198.199 185.523 211.469 172.528 227.783L172.537 227.781Z" fill="#F6F5EA"/>
</svg>
