<svg width="330" height="314" viewBox="0 0 330 314" fill="none" xmlns="http://www.w3.org/2000/svg">
<path d="M145.142 304.977C131.714 298.9 122.14 290.831 116.421 280.764C110.694 270.7 108.484 259.654 109.789 247.618C111.098 235.589 115.149 223.496 121.951 211.324C128.75 199.156 137.724 187.996 148.868 177.86C165.972 162.646 186.708 149.983 211.059 139.845C235.411 129.72 259.998 124.328 284.83 123.679C289.768 123.478 294.729 123.364 299.76 123.351C304.76 123.337 309.734 123.564 314.659 124.007C316.967 119.029 319.78 112.282 323.108 103.765C326.42 95.2471 329.066 86.3613 331.054 77.0969C333.029 67.8401 333.293 59.4167 331.819 51.8289C330.348 44.2489 326.059 38.7622 318.964 35.3995C309.005 30.8124 296.844 30.4114 282.461 34.2015C268.084 37.9943 252.336 44.9305 235.231 55.0102C218.123 65.0822 200.569 77.4632 182.595 92.1381C164.617 106.818 147.05 122.749 129.907 139.931C112.764 157.127 96.8103 174.65 82.0358 192.516C67.2643 210.39 54.6585 227.689 44.2027 244.426L0.590901 225.777C16.9225 199.635 36.2721 173.784 58.649 148.223C81.0133 122.67 104.703 99.1714 129.717 77.7275C141.006 67.9827 153.747 58.0209 167.914 47.8447C182.078 37.6735 196.947 28.2934 212.522 19.7043C228.092 11.1331 243.876 4.28948 259.873 -0.800989C275.867 -5.88638 291.579 -8.27703 307.003 -7.97557C322.43 -7.6664 337.01 -3.75752 350.73 3.75859C363.497 10.8802 372.022 19.9948 376.3 31.0948C380.576 42.1998 382.172 54.066 381.098 66.6911C380.012 79.3236 377.545 91.4367 373.706 103.041C369.849 114.649 366.114 124.642 362.482 133.023C368.497 134.937 374.429 136.971 380.281 139.145C386.139 141.322 391.903 143.626 397.593 146.059L374.579 181.938C369.364 179.38 364.195 177.247 359.05 175.549C353.895 173.841 348.954 172.314 344.206 170.941C335.682 185.856 326.071 200.293 315.345 214.26C312.573 218.049 308.345 223.694 302.658 231.203C296.968 238.703 290.114 246.956 282.095 255.954C274.069 264.95 265.059 273.601 255.064 281.922C245.054 290.242 234.162 297.258 222.381 302.979C210.587 308.707 198.198 312.023 185.224 312.936C172.243 313.847 158.886 311.195 145.136 304.987L145.142 304.977ZM172.537 219.781C168.798 224.482 165.534 230.044 162.717 236.461C159.902 242.885 158.649 249.055 158.958 254.979C159.252 260.903 162.162 265.542 167.677 268.892C174.916 273.322 182.905 274.006 191.633 270.942C200.352 267.88 209.394 262.38 218.751 254.456C228.106 246.525 237.157 237.808 245.902 228.296C256.918 215.786 266.787 203.353 275.504 191.007C284.212 178.664 290.287 169.749 293.721 164.254C267.936 164.495 244.542 169.734 223.534 179.968C202.519 190.199 185.523 203.469 172.528 219.783L172.537 219.781Z" fill="#F6F5EA"/>
</svg>
