<svg width="151" height="322" viewBox="0 0 151 322" fill="none" xmlns="http://www.w3.org/2000/svg">
<path d="M-101.858 312.977C-115.286 306.9 -124.86 298.831 -130.579 288.764C-136.306 278.7 -138.516 267.654 -137.211 255.618C-135.902 243.589 -131.851 231.496 -125.049 219.324C-118.25 207.156 -109.276 195.996 -98.1324 185.86C-81.0279 170.646 -60.2923 157.983 -35.9407 147.845C-11.5893 137.72 12.9979 132.328 37.8302 131.679C42.768 131.478 47.7293 131.364 52.7601 131.351C57.7599 131.337 62.7342 131.564 67.6585 132.007C69.9667 127.029 72.7799 120.282 76.1075 111.765C79.4197 103.247 82.0664 94.3613 84.0541 85.0969C86.0293 75.8401 86.2926 67.4167 84.819 59.8289C83.3484 52.2489 79.0595 46.7622 71.9641 43.3995C62.0051 38.8124 49.8436 38.4114 35.4609 42.2015C21.0844 45.9943 5.33597 52.9305 -11.769 63.0102C-28.8769 73.0822 -46.4306 85.4632 -64.405 100.138C-82.3826 114.818 -99.9504 130.749 -117.093 147.931C-134.236 165.127 -150.19 182.65 -164.964 200.516C-179.736 218.39 -192.342 235.689 -202.797 252.426L-246.409 233.777C-230.077 207.635 -210.728 181.784 -188.351 156.223C-165.987 130.67 -142.297 107.171 -117.283 85.7275C-105.994 75.9827 -93.2532 66.0209 -79.0858 55.8447C-64.9217 45.6735 -50.0525 36.2934 -34.4784 27.7043C-18.9077 19.1331 -3.12358 12.2895 12.8734 7.19901C28.8673 2.11362 44.5793 -0.277026 60.0033 0.0244298C75.4302 0.333601 90.01 4.24248 103.73 11.7586C116.497 18.8802 125.022 27.9948 129.3 39.0948C133.576 50.1998 135.172 62.066 134.098 74.6911C133.012 87.3236 130.545 99.4367 126.706 111.041C122.849 122.649 119.114 132.642 115.482 141.023C121.497 142.937 127.429 144.971 133.281 147.145C139.139 149.322 144.903 151.626 150.593 154.059L127.579 189.938C122.364 187.38 117.195 185.247 112.05 183.549C106.895 181.841 101.954 180.314 97.2058 178.941C88.6822 193.856 79.0711 208.293 68.3446 222.26C65.5731 226.049 61.3452 231.694 55.6578 239.203C49.9675 246.703 43.1142 254.956 35.0947 263.954C27.0692 272.95 18.0591 281.601 8.0644 289.922C-1.94577 298.242 -12.8382 305.258 -24.6193 310.979C-36.4128 316.707 -48.8016 320.023 -61.7764 320.936C-74.7573 321.847 -88.1137 319.195 -101.864 312.987L-101.858 312.977ZM-74.4627 227.781C-78.2019 232.482 -81.4662 238.044 -84.2834 244.461C-87.0976 250.885 -88.3514 257.055 -88.042 262.979C-87.7481 268.903 -84.8377 273.542 -79.3231 276.892C-72.0841 281.322 -64.0945 282.006 -55.3668 278.942C-46.6483 275.88 -37.6057 270.38 -28.2486 262.456C-18.8944 254.525 -9.84311 245.808 -1.09759 236.296C9.91783 223.786 19.7873 211.353 28.5044 199.007C37.2122 186.664 43.2874 177.749 46.7208 172.254C20.9361 172.495 -2.45754 177.734 -23.4663 187.968C-44.4811 198.199 -61.4768 211.469 -74.472 227.783L-74.4627 227.781Z" fill="#F6F5EA"/>
</svg>
