<svg width="151" height="148" viewBox="0 0 151 148" fill="none" xmlns="http://www.w3.org/2000/svg">
<path d="M93.5684 144.217V35.7778H115.168V126.463H150.231V144.217H93.5684Z" fill="#545454"/>
<path d="M60.7858 147.989C56.5438 147.889 52.9443 146.706 49.9871 144.437C47.0281 142.171 44.7844 139.164 43.254 135.415C41.7256 131.667 40.8626 127.552 40.6651 123.062C40.4676 118.575 40.9604 114.111 42.1456 109.675C44.0173 102.969 47.1758 96.5596 51.6134 90.442C56.0529 84.3283 61.2787 79.5935 67.2946 76.2394C68.4797 75.5509 69.6841 74.8854 70.921 74.2411C72.1503 73.6006 73.4102 73.0348 74.6913 72.5401C74.4937 70.7643 74.1485 68.3978 73.6576 65.4387C73.1628 62.4816 72.4475 59.4995 71.5117 56.4887C70.5739 53.4817 69.3427 50.9407 67.8124 48.8696C66.284 46.8004 64.3835 45.713 62.1187 45.6152C58.9602 45.5174 55.9033 46.9461 52.9443 49.9052C49.9871 52.8642 47.1758 56.9336 44.514 62.1115C41.8502 67.2874 39.432 73.2074 37.263 79.8639C35.0941 86.5222 33.2186 93.5008 31.6403 100.798C30.0639 108.098 28.8308 115.346 27.941 122.545C27.0531 129.746 26.6101 136.5 26.6101 142.813H13C13 132.952 13.7882 122.794 15.3665 112.337C16.9428 101.883 19.1616 91.8726 22.0229 82.3051C23.3039 77.9672 24.9091 73.38 26.8325 68.5474C28.756 63.7166 30.9748 59.0316 33.489 54.4924C36.005 49.9589 38.8394 45.9125 41.996 42.3609C45.1526 38.8111 48.6543 36.0995 52.4994 34.2259C56.3463 32.3542 60.5385 31.6619 65.0739 32.1528C69.314 32.6476 72.8157 34.2757 75.5772 37.0353C78.3388 39.7969 80.5576 43.126 82.2356 47.0209C83.9117 50.9196 85.1678 54.8395 86.0077 58.7823C86.8439 62.729 87.4614 66.179 87.8564 69.1361C89.6322 68.9405 91.4061 68.7909 93.1819 68.6931C94.9597 68.5953 96.7336 68.5474 98.5094 68.5474L98.3617 82.1574C96.6837 82.0596 95.0824 82.0827 93.554 82.2322C92.0217 82.3799 90.57 82.5544 89.1892 82.75C89.3848 88.275 89.2391 93.7961 88.7462 99.3192C88.6465 100.8 88.4739 103.018 88.2285 105.978C87.9811 108.935 87.563 112.264 86.9724 115.963C86.3798 119.662 85.4919 123.385 84.3106 127.134C83.1254 130.885 81.5222 134.36 79.5009 137.562C77.4777 140.769 74.9367 143.333 71.8818 145.256C68.8249 147.18 65.1276 148.091 60.7858 147.993V147.989ZM54.4248 119.141C54.2272 121.016 54.279 123.087 54.5724 125.356C54.8677 127.627 55.5083 129.623 56.4959 131.347C57.4797 133.073 58.9103 134.084 60.7839 134.379C63.2482 134.776 65.3213 133.963 66.9993 131.94C68.6754 129.918 70.0561 127.13 71.1415 123.58C72.2251 120.029 73.113 116.281 73.8033 112.337C74.5915 107.211 75.1093 102.253 75.3567 97.4686C75.6022 92.6858 75.7268 89.2588 75.7268 87.1857C69.4137 90.5398 64.4583 95.0772 60.8587 100.798C57.2572 106.518 55.1132 112.632 54.4228 119.143L54.4248 119.141Z" fill="#545454"/>
<g clip-path="url(#clip0_0_1)">
<rect x="-168" y="-70" width="245" height="131" rx="65.5" fill="#D88164"/>
<path d="M3.51862 26.2853V12.8179H0.305664V28.9264H8.72602V26.2863H3.51953L3.51862 26.2853Z" fill="#E99C82"/>
<path d="M18.7573 13.8357C17.8347 12.924 16.6363 12.4678 15.1409 12.4678C13.6455 12.4678 12.3833 12.924 11.4507 13.8357C10.5072 14.7372 10.04 16.0414 10.04 17.738V24.0055C10.04 25.6912 10.5063 26.9853 11.4507 27.8969C12.3842 28.7985 13.6136 29.2548 15.1409 29.2548C16.0215 29.2548 16.8375 29.0635 17.5907 28.6819C18.3438 28.3003 18.9586 27.7275 19.4248 26.9643C19.8911 26.1902 20.1252 25.204 20.1252 24.0055V17.738C20.1252 16.0414 19.6689 14.7372 18.7573 13.8357ZM16.9231 23.6348C16.9231 24.1439 16.8703 24.6211 16.7638 25.0455C16.6581 25.4799 16.4878 25.8305 16.2228 26.1056C15.9678 26.3706 15.6081 26.5081 15.1409 26.5081C14.4096 26.5081 13.9105 26.2431 13.6455 25.713C13.3805 25.1721 13.253 24.4827 13.253 23.6348V18.0996C13.253 17.5795 13.2958 17.1023 13.4014 16.6679C13.5071 16.2335 13.6874 15.8729 13.9533 15.6079C14.2183 15.3538 14.5899 15.2154 15.0771 15.2154C15.5644 15.2154 15.9259 15.3529 16.1909 15.6079C16.4559 15.8729 16.6472 16.2335 16.7528 16.6679C16.8585 17.1023 16.9222 17.5795 16.9222 18.0996V23.6348H16.9231Z" fill="#E99C82"/>
<path d="M30.6964 21.7152C30.8339 21.4292 30.9505 21.1851 31.0461 20.962C31.1517 20.7389 31.2155 20.6014 31.2474 20.5376C31.5652 19.8273 31.8202 19.0741 32.0005 18.3C32.1699 17.5259 32.2546 16.7728 32.2446 16.0515C32.2446 15.3202 32.128 14.6727 31.9049 14.0899C31.6927 13.517 31.353 13.0608 30.8976 12.722C30.4414 12.3823 29.8476 12.2238 29.1163 12.2338C28.2994 12.2548 27.6 12.5836 27.0272 13.2311C26.4543 13.8676 26.0727 14.7155 25.8924 15.7765C25.723 16.6881 25.7012 17.6115 25.8177 18.5441C25.9343 19.4776 26.1574 20.3682 26.4962 21.2161C26.825 22.054 27.2175 22.7962 27.6628 23.4218C27.5463 23.6231 27.3769 23.9309 27.1537 24.3234C26.9206 24.7159 26.6656 25.1185 26.3687 25.5219C26.0718 25.9244 25.764 26.2532 25.4252 26.5191C25.0855 26.7841 24.7468 26.8907 24.418 26.8269C24.0045 26.7523 23.6867 26.4135 23.4745 25.7979C23.2514 25.1831 23.1248 24.3772 23.082 23.3909C23.0501 22.4046 23.0929 21.3126 23.2195 20.1142C23.3361 18.9157 23.5273 17.7072 23.7814 16.4659C24.0255 15.2255 24.3224 14.0589 24.683 12.9451L22.7851 12.2985C22.3188 13.7411 21.9363 15.1936 21.6394 16.6681C21.3316 18.1425 21.1413 19.5523 21.0557 20.8992C21.0129 21.5139 20.9919 22.1614 21.0029 22.8608C21.0029 23.5612 21.0557 24.2497 21.1622 24.929C21.2679 25.6075 21.4382 26.2332 21.6713 26.806C21.9045 27.3788 22.2123 27.856 22.6148 28.2486C23.0073 28.6301 23.5164 28.8742 24.1311 28.9589C24.6721 29.0436 25.1812 28.9698 25.6684 28.7367C26.1456 28.5036 26.6019 28.1748 27.0253 27.7613C27.4497 27.3479 27.8422 26.8916 28.181 26.4035C28.5207 25.9053 28.8176 25.4491 29.0717 25.0037C29.6445 25.5338 30.2702 25.9372 30.9596 26.2122L31.7765 24.409C31.4368 24.2606 31.1189 24.0912 30.833 23.879C30.5361 23.6777 30.2711 23.4446 30.0161 23.1787C30.0908 23.0193 30.1855 22.8071 30.313 22.5421C30.4405 22.2771 30.5671 22.0011 30.6946 21.7152H30.6964ZM29.9332 18.035C29.7848 18.6816 29.6045 19.2973 29.3923 19.8701C29.1801 20.4529 28.9578 20.9201 28.7238 21.2908C28.5116 20.9411 28.3313 20.4739 28.1619 19.8801C27.9925 19.2973 27.8759 18.6716 27.8122 17.9922C27.7484 17.3238 27.7594 16.6981 27.865 16.1262C27.8969 15.9459 27.9606 15.7127 28.0563 15.4049C28.1519 15.0971 28.2894 14.8221 28.4806 14.578C28.6719 14.3339 28.915 14.2174 29.2229 14.2383C29.5944 14.2492 29.8485 14.4396 29.997 14.8111C30.1454 15.1718 30.2092 15.6381 30.1882 16.2109C30.1673 16.7837 30.0826 17.3984 29.9332 18.035Z" fill="#E99C82"/>
<path d="M41.7913 15.458V12.8179H33.3818V28.9264H41.7913V26.2863H36.5848V21.8748H41.049V19.2347H36.5848V15.4598H41.7913V15.458Z" fill="#E99C82"/>
<path d="M52.3219 19.9122C52.7673 19.1809 53.0004 18.3321 53.0004 17.3668C53.0004 15.9033 52.6288 14.7795 51.8766 13.9944C51.1344 13.2094 50.0106 12.8169 48.5152 12.8169H43.2021V28.9254H46.4051V22.0532H47.2857C47.8686 22.0532 48.3249 22.2017 48.6427 22.4986C48.7274 22.5732 48.7911 22.668 48.8549 22.7845C49.0243 23.0814 49.109 23.4949 49.109 24.0249V28.9245H52.3219V23.8236C52.3219 23.1552 52.1416 22.6042 51.8019 22.1908C51.4941 21.8192 51.0597 21.6079 50.5078 21.5542C50.4441 21.5332 50.3703 21.5223 50.2956 21.5223V21.4057C51.1863 21.1298 51.8648 20.6316 52.321 19.9104L52.3219 19.9122ZM48.1227 19.3712H46.4051V15.4798H48.1227C48.6318 15.4798 49.0562 15.6282 49.3949 15.9142C49.7346 16.2111 49.904 16.6992 49.904 17.3668C49.904 18.0343 49.7346 18.5443 49.3949 18.8722C49.0552 19.2 48.6318 19.3703 48.1227 19.3703V19.3712Z" fill="#E99C82"/>
<path d="M72.9093 17.802C72.6442 17.8129 72.3792 17.8448 72.1142 17.8657C72.0614 17.4313 71.9658 16.9113 71.8492 16.3285C71.7217 15.7456 71.5314 15.1619 71.2873 14.579C71.0332 14.0062 70.7035 13.508 70.2901 13.1046C69.8875 12.6911 69.3675 12.447 68.731 12.3733C68.0625 12.2986 67.4368 12.4052 66.8649 12.6811C66.2921 12.9671 65.773 13.3705 65.3058 13.8896C64.8395 14.4196 64.4151 15.0243 64.0436 15.6928C63.672 16.3713 63.3432 17.0607 63.0573 17.7819C62.7713 18.5032 62.5272 19.1817 62.336 19.8283C61.9116 21.249 61.5828 22.7343 61.3497 24.2825C61.1166 25.8417 61 27.3471 61 28.8106H63.0254C63.0254 27.8771 63.0892 26.8698 63.2167 25.7989C63.3542 24.7279 63.5345 23.6569 63.7685 22.575C64.0017 21.483 64.2776 20.4539 64.6064 19.4576C64.9242 18.4713 65.2849 17.5916 65.6774 16.8275C66.0799 16.0534 66.4943 15.4487 66.9287 15.0143C67.374 14.569 67.8303 14.3568 68.2966 14.3777C68.6362 14.3887 68.9113 14.5471 69.1453 14.8549C69.3684 15.1628 69.5479 15.5444 69.6863 15.9897C69.8347 16.435 69.9404 16.8804 70.015 17.3157C70.0788 17.761 70.1316 18.1107 70.1635 18.3757C69.9722 18.4504 69.7819 18.5351 69.6016 18.6298C69.4213 18.7254 69.241 18.8211 69.0606 18.9267C68.17 19.4249 67.3959 20.1252 66.7383 21.0368C66.0808 21.9384 65.6036 22.8928 65.3277 23.8891C65.1583 24.5466 65.0836 25.2151 65.1045 25.8826C65.1364 26.5402 65.2639 27.1549 65.4971 27.7168C65.7202 28.2687 66.059 28.714 66.4943 29.0528C66.9296 29.3916 67.4696 29.5619 68.0953 29.5828C68.7419 29.5938 69.2938 29.4553 69.75 29.1694C70.1954 28.8834 70.577 28.5009 70.8738 28.0346C71.1817 27.5574 71.4148 27.0374 71.5951 26.4755C71.7645 25.9236 71.9029 25.3727 71.9876 24.8208C72.0723 24.2689 72.1361 23.7817 72.1789 23.3363C72.2108 22.9019 72.2317 22.5732 72.2536 22.35C72.3282 21.5331 72.3492 20.7062 72.3173 19.8893C72.5186 19.8574 72.7417 19.8365 72.9639 19.8146C73.197 19.7937 73.4302 19.7828 73.6852 19.8037L73.7061 17.7783C73.4411 17.7783 73.1761 17.7892 72.9111 17.7992L72.9093 17.802ZM70.2582 22.0759C70.2263 22.7863 70.1526 23.5185 70.036 24.2816C69.9304 24.8754 69.7919 25.4273 69.6335 25.9573C69.4741 26.4773 69.2728 26.9008 69.0187 27.1977C68.7747 27.4946 68.4669 27.6221 68.0962 27.5583C67.8203 27.5155 67.6081 27.3671 67.4596 27.113C67.3112 26.848 67.2155 26.5511 67.1737 26.2223C67.1309 25.8826 67.1208 25.5757 67.1527 25.2998C67.2583 24.3244 67.5771 23.4228 68.1071 22.5741C68.6481 21.7253 69.3794 21.0468 70.3128 20.5487C70.3128 20.8565 70.3019 21.3656 70.26 22.0759H70.2582Z" fill="#E99C82"/>
<path d="M84.0444 19.7955C84.5007 19.0642 84.7338 18.2154 84.7338 17.2501C84.7338 15.7866 84.3522 14.6628 83.61 13.8777C82.8678 13.0927 81.744 12.7002 80.2486 12.7002H74.9355V28.8087H78.1385V21.9365H79.0191C79.602 21.9365 80.0582 22.085 80.3661 22.3819C80.6839 22.6788 80.8433 23.1878 80.8433 23.9091V28.8087H84.0462V23.7079C84.0462 23.0394 83.8768 22.4884 83.5371 22.075C83.1874 21.6615 82.6884 21.4384 82.0317 21.4065V21.2899C82.9224 21.014 83.6009 20.5158 84.0462 19.7946L84.0444 19.7955ZM81.1283 18.7564C80.7886 19.0851 80.3652 19.2545 79.8561 19.2545H78.1385V15.3631H79.8561C80.3652 15.3631 80.7895 15.5115 81.1283 15.7975C81.468 16.0944 81.6374 16.5825 81.6374 17.2501C81.6374 17.9176 81.468 18.4276 81.1283 18.7555V18.7564Z" fill="#E99C82"/>
<path d="M6.0444 -5.55462C6.50066 -6.28591 6.7338 -7.13469 6.7338 -8.10003C6.7338 -9.56353 6.35221 -10.6873 5.60999 -11.4724C4.86777 -12.2574 3.74396 -12.6499 2.24859 -12.6499H-3.06445V3.4586H0.138489V-3.41355H1.01914C1.60199 -3.41355 2.05825 -3.26511 2.36607 -2.96822C2.6839 -2.67134 2.84328 -2.16225 2.84328 -1.44097V3.4586H6.04622V-1.64224C6.04622 -2.31069 5.87683 -2.86167 5.53714 -3.27513C5.18743 -3.68859 4.68836 -3.91171 4.03174 -3.94358V-4.06016C4.92241 -4.3361 5.60088 -4.83425 6.04622 -5.55553L6.0444 -5.55462ZM3.12832 -6.59373C2.78863 -6.26497 2.36516 -6.09557 1.85608 -6.09557H0.138489V-9.98701H1.85608C2.36516 -9.98701 2.78954 -9.83856 3.12832 -9.5526C3.46802 -9.25571 3.63741 -8.76758 3.63741 -8.10003C3.63741 -7.43249 3.46802 -6.92249 3.12832 -6.59464V-6.59373Z" fill="#E99C82"/>
<path d="M7.41211 -12.6489V-10.0088H11.0813V3.45867H14.2843V-10.0088H17.9326V-12.6489H7.41302H7.41211Z" fill="#E99C82"/>
<path d="M27.5186 0.818543V-12.6489H24.3057V3.45958H32.726V0.819455H27.5195L27.5186 0.818543Z" fill="#E99C82"/>
<path d="M42.7573 -11.6311C41.8347 -12.5428 40.6363 -12.999 39.1409 -12.999C37.6455 -12.999 36.3833 -12.5428 35.4507 -11.6311C34.5072 -10.7296 34.04 -9.42542 34.04 -7.72878V-1.46133C34.04 0.224384 34.5063 1.51849 35.4507 2.4301C36.3842 3.3317 37.6136 3.78796 39.1409 3.78796C40.0215 3.78796 40.8375 3.59671 41.5907 3.21513C42.3438 2.83355 42.9586 2.26071 43.4248 1.49755C43.8911 0.723449 44.1252 -0.262842 44.1252 -1.46133V-7.72878C44.1252 -9.42542 43.6689 -10.7296 42.7573 -11.6311ZM40.9231 -1.83198C40.9231 -1.3229 40.8703 -0.845694 40.7638 -0.421306C40.6581 0.0130997 40.4878 0.363722 40.2228 0.638754C39.9678 0.903769 39.6081 1.04128 39.1409 1.04128C38.4096 1.04128 37.9105 0.77627 37.6455 0.246241C37.3805 -0.294717 37.253 -0.984119 37.253 -1.83198V-7.36724C37.253 -7.88725 37.2958 -8.36445 37.4014 -8.79886C37.5071 -9.23327 37.6874 -9.5939 37.9533 -9.85892C38.2183 -10.113 38.5899 -10.2514 39.0771 -10.2514C39.5644 -10.2514 39.9259 -10.1139 40.1909 -9.85892C40.4559 -9.5939 40.6472 -9.23327 40.7528 -8.79886C40.8585 -8.36445 40.9222 -7.88725 40.9222 -7.36724V-1.83198H40.9231Z" fill="#E99C82"/>
<path d="M54.8468 -3.49723C54.9843 -3.78319 55.1009 -4.02726 55.1965 -4.25038C55.3021 -4.4735 55.3659 -4.61102 55.3977 -4.67477C55.7156 -5.38512 55.9706 -6.13827 56.1509 -6.91237C56.3203 -7.68647 56.405 -8.43962 56.395 -9.16089C56.395 -9.89219 56.2784 -10.5397 56.0553 -11.1225C55.8431 -11.6954 55.5034 -12.1516 55.048 -12.4904C54.5918 -12.8301 53.998 -12.9886 53.2667 -12.9786C52.4498 -12.9576 51.7504 -12.6288 51.1775 -11.9813C50.6047 -11.3448 50.2231 -10.4969 50.0428 -9.43592C49.8734 -8.52431 49.8516 -7.60085 49.9681 -6.66829C50.0847 -5.73482 50.3078 -4.84416 50.6466 -3.9963C50.9754 -3.15845 51.3679 -2.41622 51.8132 -1.79057C51.6967 -1.5893 51.5273 -1.28149 51.3041 -0.888978C51.071 -0.496466 50.816 -0.0939312 50.5191 0.309509C50.2222 0.71204 49.9144 1.0408 49.5756 1.30672C49.2359 1.57174 48.8972 1.67829 48.5684 1.61454C48.1549 1.53987 47.8371 1.20109 47.6249 0.58545C47.4018 -0.0292749 47.2752 -0.835246 47.2324 -1.82154C47.2005 -2.80783 47.2433 -3.89976 47.3699 -5.09824C47.4865 -6.29673 47.6777 -7.50523 47.9318 -8.74652C48.1759 -9.9869 48.4728 -11.1535 48.8334 -12.2673L46.9355 -12.9139C46.4692 -11.4713 46.0867 -10.0188 45.7898 -8.54435C45.482 -7.06992 45.2917 -5.66015 45.2061 -4.31322C45.1633 -3.69849 45.1423 -3.05099 45.1533 -2.35157C45.1533 -1.65124 45.2061 -0.962743 45.3126 -0.283359C45.4183 0.395115 45.5886 1.02077 45.8217 1.5936C46.0548 2.16643 46.3627 2.64364 46.7652 3.03615C47.1577 3.41774 47.6668 3.66181 48.2815 3.7465C48.8225 3.8312 49.3316 3.75743 49.8188 3.52429C50.296 3.29115 50.7523 2.96238 51.1757 2.54892C51.6001 2.13547 51.9926 1.67921 52.3314 1.19107C52.6711 0.692915 52.968 0.236653 53.2221 -0.20868C53.7949 0.321349 54.4206 0.724786 55.11 0.999819L55.9269 -0.803372C55.5872 -0.951817 55.2693 -1.12121 54.9834 -1.3334C54.6865 -1.53467 54.4215 -1.76781 54.1665 -2.03373C54.2412 -2.19311 54.3359 -2.4053 54.4634 -2.67031C54.5909 -2.93533 54.7175 -3.21127 54.845 -3.49723H54.8468ZM54.0836 -7.17738C53.9352 -6.53078 53.7548 -5.91514 53.5426 -5.34231C53.3305 -4.75946 53.1082 -4.29227 52.8742 -3.92162C52.662 -4.27133 52.4817 -4.73852 52.3123 -5.33229C52.1429 -5.91514 52.0263 -6.5408 51.9626 -7.22018C51.8988 -7.88864 51.9098 -8.51429 52.0154 -9.08621C52.0473 -9.26653 52.111 -9.49967 52.2066 -9.80749C52.3023 -10.1153 52.4398 -10.3903 52.631 -10.6344C52.8223 -10.8785 53.0654 -10.995 53.3733 -10.9741C53.7448 -10.9632 53.9989 -10.7728 54.1474 -10.4013C54.2958 -10.0406 54.3595 -9.57435 54.3386 -9.00152C54.3177 -8.42869 54.233 -7.81396 54.0836 -7.17738Z" fill="#E99C82"/>
<path d="M65.7913 -10.0088V-12.6489H57.3818V3.45958H65.7913V0.819455H60.5848V-3.59199H65.049V-6.23212H60.5848V-10.007H65.7913V-10.0088Z" fill="#E99C82"/>
<path d="M76.3219 -5.55462C76.7673 -6.28591 77.0004 -7.13469 77.0004 -8.10003C77.0004 -9.56353 76.6288 -10.6873 75.8766 -11.4724C75.1344 -12.2574 74.0106 -12.6499 72.5152 -12.6499H67.2021V3.4586H70.4051V-3.41355H71.2857C71.8686 -3.41355 72.3249 -3.26511 72.6427 -2.96822C72.7274 -2.89355 72.7911 -2.79883 72.8549 -2.68226C73.0243 -2.38537 73.109 -1.97192 73.109 -1.44189V3.4577H76.3219V-1.64315C76.3219 -2.3116 76.1416 -2.86258 75.8019 -3.27604C75.4941 -3.6476 75.0597 -3.85889 74.5078 -3.91262C74.4441 -3.93357 74.3703 -3.9445 74.2956 -3.9445V-4.06107C75.1863 -4.33701 75.8648 -4.83516 76.321 -5.55644L76.3219 -5.55462ZM72.1227 -6.09557H70.4051V-9.98701H72.1227C72.6318 -9.98701 73.0562 -9.83856 73.3949 -9.5526C73.7346 -9.25571 73.904 -8.76758 73.904 -8.10003C73.904 -7.43249 73.7346 -6.92249 73.3949 -6.59464C73.0552 -6.26679 72.6318 -6.09649 72.1227 -6.09649V-6.09557Z" fill="#E99C82"/>
<path d="M5.84677 46.9696C5.98429 46.6836 6.10086 46.4395 6.19648 46.2164C6.30212 45.9933 6.36587 45.8558 6.39775 45.792C6.71558 45.0817 6.97058 44.3285 7.1509 43.5544C7.32029 42.7803 7.40499 42.0272 7.39497 41.3059C7.39497 40.5746 7.2784 39.9271 7.05528 39.3443C6.84308 38.7714 6.50339 38.3152 6.04804 37.9764C5.59177 37.6367 4.998 37.4782 4.2667 37.4882C3.4498 37.5092 2.75038 37.838 2.17755 38.4855C1.60472 39.122 1.22314 39.9699 1.04282 41.0309C0.873426 41.9425 0.851569 42.8659 0.968139 43.7985C1.08471 44.732 1.30783 45.6226 1.64661 46.4705C1.97538 47.3083 2.36789 48.0506 2.81322 48.6762C2.69665 48.8775 2.52726 49.1853 2.30414 49.5778C2.071 49.9703 1.816 50.3729 1.51911 50.7763C1.22222 51.1788 0.914407 51.5076 0.575626 51.7735C0.235934 52.0385 -0.102848 52.1451 -0.431611 52.0813C-0.84507 52.0067 -1.1629 51.6679 -1.3751 51.0522C-1.59822 50.4375 -1.72481 49.6316 -1.76761 48.6453C-1.79949 47.659 -1.75669 46.567 -1.6301 45.3686C-1.51353 44.1701 -1.32228 42.9616 -1.06819 41.7203C-0.824123 40.4799 -0.527237 39.3133 -0.166599 38.1995L-2.0645 37.5529C-2.53078 38.9955 -2.91328 40.448 -3.21017 41.9225C-3.51798 43.3969 -3.70832 44.8066 -3.79392 46.1536C-3.83673 46.7683 -3.85768 47.4158 -3.84675 48.1152C-3.84675 48.8156 -3.79393 49.5041 -3.68737 50.1834C-3.58173 50.8619 -3.41143 51.4876 -3.17829 52.0604C-2.94515 52.6332 -2.63733 53.1104 -2.2348 53.503C-1.84229 53.8845 -1.33321 54.1286 -0.718485 54.2133C-0.177527 54.298 0.331556 54.2242 0.818782 53.9911C1.29599 53.7579 1.75225 53.4292 2.17573 53.0157C2.60012 52.6023 2.99263 52.146 3.33141 51.6579C3.67111 51.1597 3.96799 50.7035 4.22208 50.2581C4.79491 50.7881 5.42057 51.1916 6.10997 51.4666L6.92687 49.6634C6.58717 49.515 6.26934 49.3456 5.98338 49.1334C5.68649 48.9321 5.42147 48.699 5.16648 48.4331C5.24115 48.2737 5.33587 48.0615 5.46337 47.7965C5.59086 47.5315 5.71745 47.2555 5.84495 46.9696H5.84677ZM5.0836 43.2894C4.93516 43.936 4.75484 44.5517 4.54265 45.1245C4.33045 45.7073 4.10824 46.1745 3.87419 46.5452C3.66199 46.1955 3.48168 45.7283 3.31229 45.1345C3.1429 44.5517 3.02633 43.926 2.96258 43.2466C2.89883 42.5782 2.90976 41.9525 3.0154 41.3806C3.04727 41.2003 3.11102 40.9671 3.20665 40.6593C3.30227 40.3515 3.43979 40.0765 3.63103 39.8324C3.82228 39.5883 4.06544 39.4718 4.37326 39.4927C4.74482 39.5036 4.99891 39.694 5.14736 40.0655C5.2958 40.4262 5.35955 40.8924 5.3386 41.4653C5.31765 42.0381 5.23296 42.6528 5.0836 43.2894Z" fill="#E99C82"/>
<path d="M16.7913 40.458V37.8179H8.38184V53.9264H16.7913V51.2863H11.5848V46.8748H16.049V44.2347H11.5848V40.4598H16.7913V40.458Z" fill="#E99C82"/>
<path d="M27.3219 44.9122C27.7673 44.1809 28.0004 43.3321 28.0004 42.3668C28.0004 40.9033 27.6288 39.7795 26.8766 38.9944C26.1344 38.2094 25.0106 37.8169 23.5152 37.8169H18.2021V53.9254H21.4051V47.0532H22.2857C22.8686 47.0532 23.3249 47.2017 23.6427 47.4986C23.7274 47.5732 23.7911 47.668 23.8549 47.7845C24.0243 48.0814 24.109 48.4949 24.109 49.0249V53.9245H27.3219V48.8236C27.3219 48.1552 27.1416 47.6042 26.8019 47.1908C26.4941 46.8192 26.0597 46.6079 25.5078 46.5542C25.4441 46.5332 25.3703 46.5223 25.2956 46.5223V46.4057C26.1863 46.1298 26.8648 45.6316 27.321 44.9104L27.3219 44.9122ZM23.1227 44.3712H21.4051V40.4798H23.1227C23.6318 40.4798 24.0562 40.6282 24.3949 40.9142C24.7346 41.2111 24.904 41.6992 24.904 42.3668C24.904 43.0343 24.7346 43.5443 24.3949 43.8722C24.0552 44.2 23.6318 44.3703 23.1227 44.3703V44.3712Z" fill="#E99C82"/>
<path d="M47.9093 42.9187C47.6442 42.9296 47.3792 42.9615 47.1142 42.9824C47.0614 42.548 46.9658 42.028 46.8492 41.4452C46.7217 40.8623 46.5314 40.2786 46.2873 39.6957C46.0332 39.1229 45.7035 38.6247 45.2901 38.2213C44.8875 37.8078 44.3675 37.5637 43.731 37.49C43.0625 37.4153 42.4368 37.5219 41.8649 37.7978C41.2921 38.0838 40.773 38.4872 40.3058 39.0063C39.8395 39.5363 39.4151 40.141 39.0436 40.8095C38.672 41.488 38.3432 42.1774 38.0573 42.8986C37.7713 43.6199 37.5272 44.2984 37.336 44.945C36.9116 46.3657 36.5828 47.851 36.3497 49.3992C36.1166 50.9584 36 52.4638 36 53.9273H38.0254C38.0254 52.9938 38.0892 51.9865 38.2167 50.9156C38.3542 49.8446 38.5345 48.7736 38.7685 47.6917C39.0017 46.5997 39.2776 45.5706 39.6064 44.5743C39.9242 43.588 40.2849 42.7083 40.6774 41.9442C41.0799 41.1701 41.4943 40.5654 41.9287 40.131C42.374 39.6857 42.8303 39.4735 43.2966 39.4944C43.6362 39.5054 43.9113 39.6638 44.1453 39.9716C44.3684 40.2795 44.5479 40.661 44.6863 41.1064C44.8347 41.5517 44.9404 41.9971 45.015 42.4324C45.0788 42.8777 45.1316 43.2274 45.1635 43.4924C44.9722 43.5671 44.7819 43.6518 44.6016 43.7465C44.4213 43.8421 44.241 43.9378 44.0606 44.0434C43.17 44.5416 42.3959 45.2419 41.7383 46.1535C41.0808 47.0551 40.6036 48.0095 40.3277 49.0058C40.1583 49.6633 40.0836 50.3318 40.1045 50.9993C40.1364 51.6569 40.2639 52.2716 40.4971 52.8335C40.7202 53.3854 41.059 53.8307 41.4943 54.1695C41.9296 54.5083 42.4696 54.6786 43.0953 54.6995C43.7419 54.7105 44.2938 54.572 44.75 54.2861C45.1954 54.0001 45.577 53.6176 45.8738 53.1513C46.1817 52.6741 46.4148 52.1541 46.5951 51.5922C46.7645 51.0403 46.9029 50.4894 46.9876 49.9375C47.0723 49.3856 47.1361 48.8984 47.1789 48.453C47.2108 48.0186 47.2317 47.6898 47.2536 47.4667C47.3282 46.6498 47.3492 45.8229 47.3173 45.006C47.5186 44.9741 47.7417 44.9532 47.9639 44.9313C48.197 44.9104 48.4302 44.8995 48.6852 44.9204L48.7061 42.895C48.4411 42.895 48.1761 42.9059 47.9111 42.9159L47.9093 42.9187ZM45.2582 47.1926C45.2263 47.903 45.1526 48.6352 45.036 49.3983C44.9304 49.9921 44.7919 50.544 44.6335 51.074C44.4741 51.594 44.2728 52.0175 44.0187 52.3144C43.7747 52.6113 43.4669 52.7388 43.0962 52.675C42.8203 52.6322 42.6081 52.4838 42.4596 52.2297C42.3112 51.9647 42.2155 51.6678 42.1737 51.339C42.1309 50.9993 42.1208 50.6924 42.1527 50.4165C42.2583 49.4411 42.5771 48.5395 43.1071 47.6908C43.6481 46.842 44.3794 46.1635 45.3128 45.6654C45.3128 45.9732 45.3019 46.4823 45.26 47.1926H45.2582Z" fill="#E99C82"/>
<path d="M59.0444 44.9122C59.5007 44.1809 59.7338 43.3321 59.7338 42.3668C59.7338 40.9033 59.3522 39.7795 58.61 38.9944C57.8678 38.2094 56.744 37.8169 55.2486 37.8169H49.9355V53.9254H53.1385V47.0532H54.0191C54.602 47.0532 55.0582 47.2017 55.3661 47.4986C55.6839 47.7955 55.8433 48.3045 55.8433 49.0258V53.9254H59.0462V48.8246C59.0462 48.1561 58.8768 47.6051 58.5371 47.1917C58.1874 46.7782 57.6884 46.5551 57.0317 46.5232V46.4066C57.9224 46.1307 58.6009 45.6325 59.0462 44.9113L59.0444 44.9122ZM56.1283 43.8731C55.7886 44.2018 55.3652 44.3712 54.8561 44.3712H53.1385V40.4798H54.8561C55.3652 40.4798 55.7895 40.6282 56.1283 40.9142C56.468 41.2111 56.6374 41.6992 56.6374 42.3668C56.6374 43.0343 56.468 43.5443 56.1283 43.8722V43.8731Z" fill="#E99C82"/>
<path d="M60.4121 37.8179V40.458H64.0813V53.9255H67.2843V40.458H70.9326V37.8179H60.413H60.4121Z" fill="#E99C82"/>
</g>
<defs>
<clipPath id="clip0_0_1">
<rect x="-168" y="-70" width="245" height="131" rx="65.5" fill="white"/>
</clipPath>
</defs>
</svg>
