<svg width="326" height="305" viewBox="0 0 326 305" fill="none" xmlns="http://www.w3.org/2000/svg">
<path d="M109.377 26.7188C116.733 13.2969 126.494 3.73003 138.665 -1.97859C150.834 -7.69652 164.188 -9.89539 178.735 -8.57817C193.273 -7.25798 207.886 -3.19557 222.593 3.61861C237.295 10.4296 250.777 19.4137 263.019 30.5676C281.395 47.6869 296.684 68.4348 308.917 92.7962C321.136 117.157 327.633 141.75 328.398 166.583C328.637 171.521 328.771 176.482 328.783 181.513C328.795 186.513 328.517 191.487 327.977 196.411C333.993 198.724 342.145 201.544 352.438 204.879C362.73 208.2 373.468 210.855 384.664 212.852C395.852 214.836 406.033 215.108 415.205 213.641C424.368 212.178 431.003 207.894 435.074 200.802C440.626 190.848 441.12 178.687 436.551 164.3C431.978 149.92 423.607 134.165 411.438 117.05C399.277 99.9326 384.327 82.3669 366.604 64.3783C348.874 46.3864 329.633 28.8031 308.878 11.6439C288.109 -5.51559 266.941 -21.4865 245.358 -36.2783C223.766 -51.0672 202.867 -63.6898 182.645 -74.1619L205.221 -117.755C236.806 -101.398 268.036 -82.0238 298.913 -59.6222C329.781 -37.2331 358.165 -13.521 384.064 11.514C395.833 22.8128 407.864 35.5632 420.153 49.7404C432.435 63.9145 443.761 78.7927 454.13 94.3752C464.477 109.954 472.736 125.745 478.876 141.747C485.01 157.746 487.887 173.46 487.51 188.884C487.124 204.31 482.388 218.886 473.292 232.599C464.674 245.36 453.65 253.875 440.231 258.143C426.805 262.407 412.461 263.992 397.202 262.906C381.934 261.807 367.295 259.329 353.272 255.479C339.244 251.61 327.169 247.866 317.042 244.226C314.723 250.238 312.26 256.168 309.627 262.018C306.992 267.875 304.203 273.636 301.257 279.324L257.909 256.275C261.005 251.063 263.588 245.896 265.644 240.752C267.713 235.599 269.562 230.66 271.225 225.912C253.204 217.374 235.762 207.749 218.889 197.009C214.312 194.234 207.491 190.001 198.421 184.306C189.359 178.608 179.389 171.747 168.52 163.719C157.654 155.685 147.204 146.666 137.155 136.663C127.106 126.645 118.635 115.746 111.73 103.959C104.816 92.1602 100.818 79.7682 99.7244 66.7925C98.6341 53.8107 101.849 40.4569 109.365 26.7124L109.377 26.7188ZM212.331 54.1966C206.651 50.4529 199.931 47.1832 192.178 44.3598C184.415 41.5394 176.958 40.2795 169.798 40.5831C162.638 40.8713 157.028 43.7772 152.974 49.2886C147.615 56.5233 146.78 64.5121 150.477 73.2429C154.171 81.9643 160.812 91.0122 170.382 100.377C179.96 109.739 190.49 118.799 201.98 127.553C217.092 138.581 232.111 148.463 247.026 157.192C261.939 165.911 272.709 171.995 279.349 175.434C279.078 149.649 272.764 126.25 260.412 105.232C248.063 84.2069 232.037 67.1983 212.328 54.1873L212.331 54.1966Z" fill="#545454"/>
<ellipse cx="258" cy="264" rx="258" ry="127" fill="#D88164"/>
</svg>
