<svg width="384" height="288" viewBox="0 0 384 288" fill="none" xmlns="http://www.w3.org/2000/svg">
<path d="M251.527 279.194V26.792H301.802V237.87H383.415V279.194H251.527Z" fill="#545454"/>
<path d="M175.226 287.975C165.352 287.742 156.974 284.988 150.091 279.708C143.203 274.432 137.981 267.433 134.419 258.706C130.861 249.984 128.853 240.405 128.393 229.956C127.933 219.511 129.08 209.119 131.839 198.795C136.195 183.186 143.547 168.268 153.876 154.029C164.209 139.799 176.373 128.778 190.375 120.971C193.134 119.368 195.937 117.82 198.816 116.32C201.677 114.829 204.61 113.512 207.592 112.361C207.132 108.227 206.328 102.719 205.186 95.8315C204.034 88.9486 202.369 82.0076 200.191 74.9996C198.008 68.0006 195.143 62.0862 191.581 57.2655C188.023 52.4492 183.599 49.9183 178.328 49.6906C170.976 49.463 163.861 52.7884 156.974 59.6758C150.091 66.5633 143.547 76.0352 137.351 88.0871C131.151 100.135 125.523 113.914 120.474 129.407C115.426 144.905 111.06 161.148 107.387 178.133C103.718 195.126 100.848 211.994 98.7764 228.751C96.7098 245.512 95.6786 261.233 95.6786 275.927H64C64 252.975 65.8346 229.331 69.5082 204.991C73.1773 180.659 78.3418 157.359 85.0015 135.09C87.9833 124.993 91.7194 114.316 96.1964 103.067C100.673 91.8232 105.838 80.9184 111.69 70.3529C117.546 59.8008 124.143 50.3825 131.491 42.1158C138.838 33.8535 146.988 27.5419 155.938 23.1809C164.892 18.8244 174.65 17.213 185.206 18.3557C195.076 19.5073 203.226 23.297 209.654 29.7202C216.082 36.1479 221.246 43.8968 225.152 52.9625C229.053 62.0371 231.977 71.1609 233.932 80.3382C235.878 89.5244 237.315 97.5545 238.235 104.437C242.368 103.982 246.497 103.634 250.63 103.406C254.768 103.179 258.897 103.067 263.03 103.067L262.687 134.746C258.781 134.518 255.054 134.572 251.496 134.92C247.93 135.264 244.551 135.67 241.337 136.125C241.792 148.985 241.453 161.836 240.306 174.691C240.074 178.137 239.672 183.302 239.101 190.189C238.525 197.072 237.552 204.821 236.177 213.431C234.798 222.042 232.731 230.706 229.981 239.432C227.223 248.163 223.491 256.251 218.787 263.706C214.077 271.169 208.163 277.137 201.052 281.614C193.937 286.091 185.331 288.211 175.226 287.983V287.975ZM160.42 220.828C159.96 225.193 160.08 230.014 160.763 235.294C161.451 240.579 162.942 245.226 165.24 249.239C167.53 253.256 170.86 255.608 175.221 256.296C180.957 257.22 185.782 255.327 189.688 250.618C193.589 245.913 196.803 239.423 199.329 231.161C201.851 222.894 203.918 214.172 205.525 204.991C207.36 193.059 208.565 181.521 209.141 170.384C209.712 159.251 210.002 151.275 210.002 146.45C195.308 154.256 183.774 164.818 175.395 178.133C167.013 191.448 162.022 205.678 160.415 220.832L160.42 220.828Z" fill="#545454"/>
<g clip-path="url(#clip0_0_1)">
<rect x="-861" y="-742" width="1184" height="907.272" rx="453.636" fill="#D88164"/>
<path d="M12.7307 94.0888C8.62836 90.035 3.29892 88.0061 -3.35072 88.0061C-10.0004 88.0061 -15.6133 90.035 -19.7602 94.0888C-23.9557 98.098 -26.0332 103.897 -26.0332 111.442V139.312C-26.0332 146.808 -23.9597 152.563 -19.7602 156.616C-15.6092 160.626 -10.1421 162.655 -3.35072 162.655C0.565363 162.655 4.19392 161.804 7.54304 160.107C10.8922 158.41 13.6257 155.863 15.6992 152.47C17.7726 149.027 18.8134 144.641 18.8134 139.312V111.442C18.8134 103.897 16.7845 98.098 12.7307 94.0888ZM4.57459 137.664C4.57459 139.928 4.3397 142.05 3.86589 143.937C3.39612 145.869 2.63882 147.428 1.46035 148.651C0.326431 149.829 -1.27321 150.441 -3.35072 150.441C-6.60264 150.441 -8.82188 149.262 -10.0004 146.905C-11.1788 144.5 -11.7458 141.434 -11.7458 137.664V113.05C-11.7458 110.737 -11.5554 108.615 -11.0857 106.683C-10.6159 104.752 -9.81406 103.148 -8.63154 101.97C-7.45307 100.84 -5.8008 100.224 -3.6342 100.224C-1.4676 100.224 0.140154 100.836 1.31862 101.97C2.49709 103.148 3.34753 104.752 3.81729 106.683C4.28706 108.615 4.57054 110.737 4.57054 113.05V137.664H4.57459Z" fill="#E99C82"/>
<path d="M66.491 130.257C67.1025 128.985 67.6209 127.9 68.0461 126.908C68.5159 125.915 68.7993 125.304 68.9411 125.02C70.3544 121.862 71.4884 118.513 72.2902 115.07C73.0435 111.628 73.4201 108.279 73.3755 105.072C73.3755 101.82 72.8572 98.9403 71.865 96.3485C70.9214 93.8012 69.4108 91.7723 67.386 90.2658C65.3571 88.7552 62.7166 88.0506 59.4647 88.0951C55.8321 88.1883 52.7219 89.6502 50.1747 92.5296C47.6274 95.3603 45.9306 99.1306 45.1287 103.849C44.3755 107.902 44.2783 112.009 44.7966 116.156C45.315 120.307 46.3072 124.267 47.8137 128.038C49.2756 131.763 51.0211 135.064 53.0014 137.846C52.483 138.741 51.7298 140.11 50.7376 141.855C49.7009 143.601 48.5669 145.391 47.2467 147.185C45.9265 148.975 44.5577 150.437 43.0512 151.619C41.5407 152.798 40.0342 153.271 38.5722 152.988C36.7337 152.656 35.3203 151.149 34.3767 148.412C33.3845 145.678 32.8216 142.094 32.6313 137.708C32.4896 133.322 32.6799 128.467 33.2428 123.137C33.7611 117.808 34.6116 112.434 35.7415 106.914C36.8268 101.398 38.147 96.2108 39.7507 91.258L31.3111 88.3827C29.2376 94.7974 27.5367 101.257 26.2165 107.813C24.8477 114.37 24.0013 120.639 23.6207 126.628C23.4303 129.362 23.3372 132.241 23.3858 135.351C23.3858 138.466 23.6207 141.527 24.0945 144.548C24.5642 147.565 25.3215 150.347 26.3583 152.895C27.395 155.442 28.7638 157.564 30.5538 159.309C32.2992 161.006 34.563 162.092 37.2966 162.468C39.7021 162.845 41.9659 162.517 44.1325 161.48C46.2545 160.443 48.2835 158.981 50.1666 157.143C52.0537 155.304 53.7992 153.275 55.3057 151.105C56.8162 148.89 58.1364 146.861 59.2663 144.88C61.8136 147.237 64.5957 149.031 67.6614 150.254L71.294 142.236C69.7834 141.576 68.3701 140.822 67.0985 139.879C65.7783 138.984 64.5998 137.947 63.4658 136.765C63.7979 136.056 64.2191 135.112 64.7861 133.934C65.353 132.755 65.9159 131.528 66.4829 130.257H66.491ZM63.0973 113.892C62.4372 116.767 61.6354 119.505 60.6918 122.052C59.7482 124.644 58.7601 126.721 57.7193 128.37C56.7757 126.815 55.9739 124.737 55.2206 122.097C54.4674 119.505 53.949 116.723 53.6655 113.702C53.3821 110.729 53.4306 107.947 53.9004 105.404C54.0422 104.602 54.3256 103.565 54.7509 102.196C55.1761 100.827 55.7876 99.6044 56.638 98.5191C57.4885 97.4338 58.5698 96.9154 59.9386 97.0086C61.5908 97.0572 62.7207 97.9036 63.3808 99.5558C64.0409 101.16 64.3244 103.233 64.2313 105.78C64.1381 108.328 63.7615 111.061 63.0973 113.892Z" fill="#E99C82"/>
<path d="M115.157 101.301V89.5612H77.7617V161.193H115.157V149.452H92.0046V129.836H111.856V118.095H92.0046V101.309H115.157V101.301Z" fill="#E99C82"/>
<path d="M161.984 121.108C163.964 117.856 165.001 114.082 165.001 109.789C165.001 103.282 163.348 98.2842 160.003 94.7933C156.703 91.3024 151.705 89.557 145.056 89.557H121.43V161.188H135.673V130.629H139.589C142.18 130.629 144.209 131.289 145.623 132.61C145.999 132.942 146.283 133.363 146.566 133.881C147.32 135.201 147.696 137.04 147.696 139.397V161.184H161.984V138.502C161.984 135.529 161.182 133.079 159.671 131.241C158.302 129.589 156.371 128.649 153.917 128.41C153.633 128.317 153.305 128.268 152.973 128.268V127.75C156.934 126.523 159.951 124.308 161.98 121.1L161.984 121.108ZM143.31 118.703H135.673V101.398H143.31C145.574 101.398 147.461 102.058 148.968 103.33C150.478 104.65 151.232 106.821 151.232 109.789C151.232 112.758 150.478 115.026 148.968 116.484C147.457 117.942 145.574 118.699 143.31 118.699V118.703Z" fill="#E99C82"/>
<path d="M3.491 30.2568C4.10251 28.9851 4.62086 27.8998 5.04608 26.9077C5.51585 25.9155 5.79934 25.304 5.94108 25.0205C7.35443 21.8617 8.48836 18.5126 9.2902 15.0703C10.0435 11.628 10.4201 8.27892 10.3755 5.07155C10.3755 1.81962 9.85717 -1.05972 8.86499 -3.65154C7.92141 -6.19882 6.41084 -8.22772 4.38597 -9.73422C2.35706 -11.2448 -0.283352 -11.9494 -3.53528 -11.9049C-7.16788 -11.8117 -10.2781 -10.3498 -12.8253 -7.47043C-15.3726 -4.63967 -17.0694 -0.869377 -17.8713 3.84855C-18.6245 7.90232 -18.7217 12.0087 -18.2034 16.1557C-17.685 20.3066 -16.6928 24.2672 -15.1863 28.0375C-13.7244 31.7633 -11.9789 35.0638 -9.99862 37.846C-10.517 38.7409 -11.2702 40.1097 -12.2624 41.8552C-13.2991 43.6006 -14.4331 45.3906 -15.7533 47.1846C-17.0735 48.9746 -18.4423 50.4365 -19.9488 51.619C-21.4593 52.7975 -22.9658 53.2713 -24.4278 52.9878C-26.2663 52.6558 -27.6797 51.1493 -28.6233 48.4117C-29.6155 45.6781 -30.1784 42.0941 -30.3687 37.7083C-30.5104 33.3224 -30.3201 28.4668 -29.7572 23.1374C-29.2389 17.8079 -28.3884 12.434 -27.2585 6.91419C-26.1732 1.39847 -24.853 -3.78924 -23.2493 -8.74204L-31.6889 -11.6173C-33.7624 -5.20258 -35.4633 1.25672 -36.7835 7.81322C-38.1523 14.3697 -38.9987 20.6387 -39.3793 26.6282C-39.5697 29.3618 -39.6628 32.2411 -39.6142 35.3513C-39.6142 38.4655 -39.3793 41.5271 -38.9055 44.5482C-38.4358 47.5653 -37.6785 50.3474 -36.6417 52.8947C-35.605 55.442 -34.2362 57.564 -32.4462 59.3095C-30.7008 61.0063 -28.437 62.0916 -25.7034 62.4682C-23.2979 62.8449 -21.0341 62.5168 -18.8675 61.4801C-16.7455 60.4434 -14.7165 58.9814 -12.8334 57.1429C-10.9463 55.3043 -9.20082 53.2754 -7.69432 51.1047C-6.18378 48.8895 -4.86358 46.8606 -3.73371 44.8803C-1.18644 47.2373 1.59574 49.0313 4.66138 50.2543L8.29396 42.2358C6.78342 41.5757 5.37007 40.8225 4.09846 39.8789C2.77825 38.9839 1.59977 37.9472 0.465847 36.7647C0.797924 36.056 1.2191 35.1124 1.78606 33.9339C2.35302 32.7554 2.91594 31.5284 3.48289 30.2568H3.491ZM0.0973358 13.8918C-0.562771 16.7672 -1.36462 19.5048 -2.3082 22.052C-3.25179 24.6439 -4.23993 26.7214 -5.2807 28.3696C-6.22429 26.8145 -7.02613 24.737 -7.77938 22.0966C-8.53263 19.5048 -9.05098 16.7226 -9.33446 13.7015C-9.61794 10.729 -9.56936 7.94685 -9.09959 5.40363C-8.95785 4.60178 -8.67435 3.56506 -8.24913 2.19625C-7.82391 0.827449 -7.21242 -0.395561 -6.36198 -1.48089C-5.51153 -2.56621 -4.43025 -3.08458 -3.06144 -2.99144C-1.40916 -2.94284 -0.279285 -2.09645 0.380821 -0.444159C1.04092 1.15953 1.32439 3.23297 1.23125 5.78025C1.13811 8.32752 0.76149 11.0611 0.0973358 13.8918Z" fill="#E99C82"/>
<path d="M52.1568 1.30129V-10.4388H14.7617V61.1926H52.1568V49.4525H29.0046V29.8356H48.8563V18.0955H29.0046V1.30939H52.1568V1.30129Z" fill="#E99C82"/>
<path d="M98.9836 21.1084C100.964 17.8565 102.001 14.0821 102.001 9.78941C102.001 3.28151 100.348 -1.71585 97.0033 -5.20671C93.7028 -8.69757 88.7054 -10.443 82.0558 -10.443H58.4297V61.1884H72.6726V30.6293H76.5886C79.1805 30.6293 81.2094 31.2894 82.6227 32.6096C82.9994 32.9416 83.2828 33.3628 83.5663 33.8812C84.3196 35.2014 84.6962 37.04 84.6962 39.3969V61.1844H98.9836V38.5019C98.9836 35.5294 98.1817 33.0794 96.6712 31.2408C95.3024 29.5885 93.3707 28.6489 90.9166 28.41C90.6331 28.3169 90.3051 28.2683 89.973 28.2683V27.7499C93.9336 26.5228 96.9507 24.3076 98.9796 21.1003L98.9836 21.1084ZM80.3103 18.7028H72.6726V1.39839H80.3103C82.5741 1.39839 84.4613 2.0585 85.9678 3.33011C87.4784 4.65032 88.2316 6.82096 88.2316 9.78941C88.2316 12.7579 87.4784 15.0257 85.9678 16.4836C84.4573 17.9415 82.5741 18.6988 80.3103 18.6988V18.7028Z" fill="#E99C82"/>
<path d="M176.958 12.2435C175.78 12.2921 174.601 12.4338 173.423 12.527C173.188 10.5952 172.763 8.28285 172.244 5.69102C171.677 3.0992 170.831 0.503336 169.746 -2.08848C168.616 -4.63576 167.15 -6.85096 165.311 -8.64498C163.521 -10.4836 161.209 -11.5689 158.378 -11.8969C155.406 -12.229 152.623 -11.7552 150.08 -10.5281C147.533 -9.25649 145.225 -7.46247 143.147 -5.15413C141.074 -2.79719 139.186 -0.108179 137.534 2.86432C135.882 5.88136 134.42 8.94701 133.148 12.1544C131.877 15.3618 130.791 18.3788 129.941 21.2541C128.054 27.5717 126.592 34.1768 125.555 41.0613C124.518 47.9944 124 54.6886 124 61.1965H133.007C133.007 57.0455 133.29 52.5665 133.857 47.8041C134.469 43.0416 135.27 38.2791 136.311 33.4681C137.348 28.6125 138.575 24.0363 140.037 19.6059C141.45 15.22 143.054 11.308 144.799 7.91026C146.589 4.468 148.432 1.779 150.364 -0.152719C152.344 -2.13303 154.373 -3.07663 156.446 -2.98348C157.957 -2.93489 159.18 -2.23023 160.221 -0.861421C161.213 0.507385 162.011 2.20423 162.626 4.18454C163.286 6.16485 163.756 8.14517 164.088 10.0809C164.372 12.0612 164.607 13.6163 164.748 14.7948C163.898 15.1269 163.051 15.5035 162.25 15.9247C161.448 16.3499 160.646 16.7751 159.844 17.2449C155.883 19.4601 152.441 22.5743 149.517 26.6281C146.593 30.6373 144.471 34.8814 143.244 39.3118C142.491 42.2357 142.159 45.2082 142.252 48.1766C142.394 51.1005 142.961 53.8341 143.998 56.3328C144.99 58.7869 146.496 60.7672 148.432 62.2737C150.368 63.7802 152.769 64.5375 155.551 64.6306C158.427 64.6792 160.881 64.0637 162.91 62.7921C164.89 61.5205 166.587 59.8196 167.907 57.7461C169.276 55.6241 170.313 53.3117 171.114 50.813C171.868 48.3589 172.483 45.9088 172.86 43.4547C173.237 41.0005 173.52 38.8339 173.71 36.8536C173.852 34.9219 173.945 33.46 174.042 32.4678C174.374 28.8352 174.468 25.158 174.326 21.5254C175.221 21.3837 176.213 21.2906 177.201 21.1934C178.238 21.1002 179.275 21.0516 180.409 21.1447L180.502 12.1382C179.323 12.1382 178.145 12.1868 176.966 12.2313L176.958 12.2435ZM165.169 31.2488C165.028 34.4076 164.7 37.6636 164.181 41.0572C163.712 43.6977 163.096 46.1518 162.391 48.5087C161.683 50.8211 160.788 52.7042 159.658 54.0244C158.572 55.3446 157.204 55.9116 155.555 55.6281C154.328 55.4378 153.385 54.7777 152.725 53.6478C152.065 52.4693 151.639 51.1491 151.453 49.6872C151.263 48.1766 151.218 46.8119 151.36 45.5848C151.83 41.2476 153.247 37.2384 155.604 33.464C158.01 29.6897 161.261 26.6726 165.412 24.4574C165.412 25.8262 165.364 28.09 165.178 31.2488H165.169Z" fill="#E99C82"/>
<path d="M226.474 21.1084C228.503 17.8565 229.54 14.0821 229.54 9.78941C229.54 3.28151 227.843 -1.71585 224.542 -5.20671C221.242 -8.69757 216.244 -10.443 209.595 -10.443H185.969V61.1884H200.212V30.6293H204.128C206.72 30.6293 208.748 31.2894 210.117 32.6096C211.531 33.9298 212.239 36.1936 212.239 39.401V61.1884H226.482V38.506C226.482 35.5335 225.729 33.0834 224.218 31.2448C222.663 29.4062 220.444 28.4141 217.524 28.2723V27.754C221.485 26.5269 224.502 24.3117 226.482 21.1043L226.474 21.1084ZM213.507 16.4876C211.996 17.9496 210.113 18.7028 207.849 18.7028H200.212V1.39839H207.849C210.113 1.39839 212 2.0585 213.507 3.33011C215.017 4.65032 215.771 6.82096 215.771 9.78941C215.771 12.7579 215.017 15.0257 213.507 16.4836V16.4876Z" fill="#E99C82"/>
<path d="M232.557 -10.4388V1.30129H248.873V61.1885H263.116V1.30129H279.339V-10.4388H232.561H232.557Z" fill="#E99C82"/>
<path d="M321.967 49.4484V-10.4388H307.68V61.1926H345.123V49.4525H321.971L321.967 49.4484Z" fill="#E99C82"/>
</g>
<defs>
<clipPath id="clip0_0_1">
<rect x="-861" y="-742" width="1184" height="907.272" rx="453.636" fill="white"/>
</clipPath>
</defs>
</svg>
