<svg width="24" height="25" viewBox="0 0 24 25" fill="none" xmlns="http://www.w3.org/2000/svg">
<path d="M3.34157 8.09924C3.56772 7.55327 3.89919 7.05719 4.31706 6.63933C4.73493 6.22146 5.23101 5.88999 5.77697 5.66384C6.32294 5.43769 6.90811 5.32129 7.49906 5.32129C8.09002 5.32129 8.67518 5.43769 9.22115 5.66384C9.76712 5.88999 10.2632 6.22146 10.6811 6.63933L11.9991 7.95733L13.3171 6.63933C14.161 5.79541 15.3056 5.3213 16.4991 5.3213C17.6925 5.3213 18.8371 5.79541 19.6811 6.63933C20.525 7.48325 20.9991 8.62785 20.9991 9.82133C20.9991 11.0148 20.525 12.1594 19.6811 13.0033L11.9991 20.6853L4.31706 13.0033C3.89919 12.5855 3.56772 12.0894 3.34157 11.5434C3.11542 10.9974 2.99902 10.4123 2.99902 9.82133C2.99902 9.23038 3.11542 8.64521 3.34157 8.09924Z" stroke="white" stroke-width="1.5" stroke-linecap="round" stroke-linejoin="round"/>
</svg>
