<svg width="20" height="20" viewBox="0 0 20 20" fill="none" xmlns="http://www.w3.org/2000/svg">
<path d="M7.23689 11.1181C7.40523 10.7815 7.50023 10.4015 7.50023 9.99981C7.50023 9.59814 7.40523 9.21814 7.23689 8.88148M7.23689 11.1181C6.98498 11.6218 6.5704 12.0257 6.06031 12.2643C5.55022 12.5029 4.9745 12.5623 4.42643 12.4329C3.87836 12.3035 3.39004 11.9928 3.04057 11.5512C2.69111 11.1096 2.50098 10.563 2.50098 9.99981C2.50098 9.43667 2.69111 8.89002 3.04057 8.44842C3.39004 8.00682 3.87836 7.69615 4.42643 7.56673C4.9745 7.43731 5.55022 7.49672 6.06031 7.73534C6.5704 7.97397 6.98498 8.37782 7.23689 8.88148M7.23689 11.1181L12.7636 13.8815M7.23689 8.88148L12.7636 6.11814M12.7636 13.8815C12.467 14.4747 12.4182 15.1614 12.6279 15.7906C12.8376 16.4198 13.2887 16.9399 13.8819 17.2365C14.4751 17.5331 15.1618 17.5819 15.791 17.3722C16.4202 17.1624 16.9403 16.7113 17.2369 16.1181C17.5335 15.5249 17.5823 14.8382 17.3726 14.209C17.1628 13.5798 16.7118 13.0597 16.1186 12.7631C15.8248 12.6163 15.5051 12.5287 15.1775 12.5054C14.8499 12.4822 14.521 12.5236 14.2094 12.6275C13.5803 12.8372 13.0602 13.2883 12.7636 13.8815ZM12.7636 6.11814C12.9104 6.41181 13.1137 6.67368 13.3618 6.88879C13.6098 7.1039 13.8978 7.26805 14.2093 7.37186C14.5208 7.47567 14.8497 7.5171 15.1772 7.4938C15.5048 7.4705 15.8245 7.38292 16.1181 7.23606C16.4118 7.0892 16.6737 6.88593 16.8888 6.63787C17.1039 6.3898 17.2681 6.1018 17.3719 5.7903C17.4757 5.4788 17.5171 5.1499 17.4938 4.82238C17.4705 4.49487 17.3829 4.17515 17.2361 3.88148C16.9395 3.28839 16.4194 2.83741 15.7903 2.62776C15.1612 2.41811 14.4746 2.46696 13.8815 2.76356C13.2884 3.06016 12.8374 3.58022 12.6278 4.20932C12.4181 4.83843 12.467 5.52505 12.7636 6.11814Z" stroke="#C65528" stroke-width="2" stroke-linecap="round" stroke-linejoin="round"/>
</svg>
