<svg width="40" height="40" viewBox="0 0 40 40" fill="none" xmlns="http://www.w3.org/2000/svg">
<path d="M32.5 29.1667C32.5 30.2717 32.061 31.3315 31.2796 32.1129C30.4982 32.8943 29.4384 33.3333 28.3333 33.3333C27.2283 33.3333 26.1685 32.8943 25.3871 32.1129C24.6057 31.3315 24.1667 30.2717 24.1667 29.1667C24.1667 28.0616 24.6057 27.0018 25.3871 26.2204C26.1685 25.439 27.2283 25 28.3333 25C29.4384 25 30.4982 25.439 31.2796 26.2204C32.061 27.0018 32.5 28.0616 32.5 29.1667ZM15.8333 29.1667C15.8333 30.2717 15.3943 31.3315 14.6129 32.1129C13.8315 32.8943 12.7717 33.3333 11.6667 33.3333C10.5616 33.3333 9.50179 32.8943 8.72039 32.1129C7.93899 31.3315 7.5 30.2717 7.5 29.1667C7.5 28.0616 7.93899 27.0018 8.72039 26.2204C9.50179 25.439 10.5616 25 11.6667 25C12.7717 25 13.8315 25.439 14.6129 26.2204C15.3943 27.0018 15.8333 28.0616 15.8333 29.1667Z" stroke="#3A3A3A" stroke-width="1.5" stroke-linecap="round" stroke-linejoin="round"/>
<path d="M24.1654 29.167H15.832M32.4987 29.167H33.7704C34.137 29.167 34.3204 29.167 34.4737 29.147C35.0254 29.0783 35.5385 28.8276 35.9319 28.4346C36.3252 28.0416 36.5762 27.5287 36.6454 26.977C36.6654 26.822 36.6654 26.6387 36.6654 26.272V21.667C36.6654 18.7938 35.524 16.0383 33.4924 14.0067C31.4607 11.975 28.7052 10.8337 25.832 10.8337M3.33203 6.66699H19.9987C22.3554 6.66699 23.5337 6.66699 24.2654 7.40033C24.9987 8.13033 24.9987 9.30866 24.9987 11.667V25.8337M3.33203 21.2503V25.0003C3.33203 26.5587 3.33203 27.337 3.66703 27.917C3.88644 28.297 4.20201 28.6126 4.58203 28.832C5.16203 29.167 5.94036 29.167 7.4987 29.167M3.33203 11.667H13.332M3.33203 16.667H9.9987" stroke="#3A3A3A" stroke-width="1.5" stroke-linecap="round" stroke-linejoin="round"/>
</svg>
