<svg width="40" height="40" viewBox="0 0 40 40" fill="none" xmlns="http://www.w3.org/2000/svg">
<path d="M10 15C10 17.6522 11.0536 20.1957 12.9289 22.0711C14.8043 23.9464 17.3478 25 20 25C22.6522 25 25.1957 23.9464 27.0711 22.0711C28.9464 20.1957 30 17.6522 30 15C30 12.3478 28.9464 9.8043 27.0711 7.92893C25.1957 6.05357 22.6522 5 20 5C17.3478 5 14.8043 6.05357 12.9289 7.92893C11.0536 9.8043 10 12.3478 10 15Z" stroke="#3A3A3A" stroke-width="2" stroke-linecap="round" stroke-linejoin="round"/>
<path d="M19.9999 25L25.6666 34.8167L28.3299 29.4283L34.3266 29.815L28.6599 20M11.3366 20L5.66992 29.8167L11.6666 29.4283L14.3299 34.815L19.9966 25" stroke="#3A3A3A" stroke-width="2" stroke-linecap="round" stroke-linejoin="round"/>
</svg>
