<svg width="40" height="40" viewBox="0 0 40 40" fill="none" xmlns="http://www.w3.org/2000/svg">
<path d="M6.66602 18.333V31.6663C6.66602 32.5504 7.0172 33.3982 7.64233 34.0234C8.26745 34.6485 9.11529 34.9997 9.99935 34.9997H29.9993C30.8834 34.9997 31.7312 34.6485 32.3564 34.0234C32.9815 33.3982 33.3327 32.5504 33.3327 31.6663V18.333" stroke="#3A3A3A" stroke-width="1.5" stroke-linecap="round" stroke-linejoin="round"/>
<path d="M20 9.16634C20 7.61924 19.3854 6.13551 18.2915 5.04155C17.1975 3.94759 15.7138 3.33301 14.1667 3.33301C13.0616 3.33301 12.0018 3.77199 11.2204 4.5534C10.439 5.3348 10 6.39461 10 7.49967C10 8.60474 10.439 9.66455 11.2204 10.446C12.0018 11.2274 13.0616 11.6663 14.1667 11.6663H20M20 9.16634V11.6663M20 9.16634C20 7.61924 20.6146 6.13551 21.7085 5.04155C22.8025 3.94759 24.2862 3.33301 25.8333 3.33301C26.9384 3.33301 27.9982 3.77199 28.7796 4.5534C29.561 5.3348 30 6.39461 30 7.49967C30 8.04685 29.8922 8.58867 29.6828 9.09419C29.4734 9.59971 29.1665 10.059 28.7796 10.446C28.3927 10.8329 27.9334 11.1398 27.4278 11.3492C26.9223 11.5586 26.3805 11.6663 25.8333 11.6663H20" stroke="#3A3A3A" stroke-width="1.5" stroke-linejoin="round"/>
<path d="M20 18.3327V34.9994M5 11.666H35V18.3327H5V11.666Z" stroke="#3A3A3A" stroke-width="1.5" stroke-linecap="round" stroke-linejoin="round"/>
</svg>
