<svg width="169" height="109" viewBox="0 0 169 109" fill="none" xmlns="http://www.w3.org/2000/svg">
<g clip-path="url(#clip0_1684_1187)">
<rect width="260" height="28" transform="translate(13.5366 -42) rotate(28.9106)" fill="#C65528"/>
<path d="M54.8254 1.3653L62.1953 -4.16042L63.5399 -3.41785L62.7983 5.76852L61.3697 4.97954L62.1837 -3.22096L62.7299 -2.91929L56.233 2.14268L54.8254 1.3653ZM57.2884 0.504768L58.2478 -0.363643L62.2185 1.82926L61.9944 3.10377L57.2884 0.504768ZM68.7895 9.07728L68.2782 4.12033L69.7583 4.04667L70.3337 9.93007L68.7895 9.07728ZM63.9259 6.39126L67.9869 -0.961891L69.3314 -0.21932L65.2705 7.13383L63.9259 6.39126ZM66.5722 3.80875L67.222 2.63225L69.701 4.00136L69.0513 5.17787L66.5722 3.80875ZM69.4724 4.86211L68.3152 4.00368L72.8505 1.72413L74.3001 2.52471L69.4724 4.86211ZM71.2711 10.4478L75.3321 3.09465L76.6766 3.83722L73.2538 10.0349L76.9619 12.0827L80.3847 5.88509L81.7398 6.63347L77.6789 13.9866L71.2711 10.4478ZM76.6174 15.5115L77.6964 13.5577L77.8154 14.062L76.3238 13.2382L76.9619 12.0827L79.4095 13.4345L77.8779 16.2076L76.6174 15.5115ZM80.0317 15.286L84.0926 7.93288L85.4372 8.67545L82.554 13.8962L89.3869 10.8568L90.658 11.5587L86.597 18.9119L85.2524 18.1693L88.1299 12.9591L81.3028 15.988L80.0317 15.286ZM92.934 22.4116L94.2335 20.0586L94.4014 20.5489L92.248 19.3596C91.6317 19.0193 91.1556 18.6238 90.8196 18.1732C90.4944 17.7194 90.3191 17.2342 90.2937 16.7176C90.2722 16.1939 90.4123 15.6589 90.714 15.1127C91.0272 14.5455 91.4201 14.1319 91.8927 13.8719C92.3691 13.605 92.8965 13.4941 93.4747 13.5393C94.0568 13.5774 94.6595 13.7686 95.2827 14.1128L98.3395 15.801L94.2786 23.1542L92.934 22.4116ZM88.165 19.7778L91.4326 18.1553L92.8087 18.9153L89.6041 20.5726L88.165 19.7778ZM94.4772 19.6174L96.5657 15.8358L96.693 16.3996L94.6866 15.2915C94.1264 14.9821 93.6241 14.8738 93.1799 14.9666C92.7465 15.0563 92.3906 15.3533 92.1122 15.8575C91.8453 16.3407 91.7784 16.7927 91.9116 17.2135C92.0556 17.6312 92.4042 17.9928 92.9575 18.2983L95.0164 19.4354L94.4772 19.6174Z" fill="white"/>
<path d="M105.597 29.4051L112.967 23.8794L114.311 24.6219L113.57 33.8083L112.141 33.0193L112.955 24.8188L113.501 25.1205L107.005 30.1825L105.597 29.4051ZM108.06 28.5446L109.019 27.6762L112.99 29.8691L112.766 31.1436L108.06 28.5446ZM119.561 37.1171L119.05 32.1601L120.53 32.0865L121.105 37.9699L119.561 37.1171ZM114.697 34.4311L118.758 27.0779L120.103 27.8205L116.042 35.1736L114.697 34.4311ZM117.344 31.8485L117.993 30.672L120.473 32.0412L119.823 33.2177L117.344 31.8485ZM120.244 32.9019L119.087 32.0435L123.622 29.7639L125.072 30.5645L120.244 32.9019ZM122.043 38.4876L126.104 31.1344L127.448 31.877L124.025 38.0747L127.733 40.1225L131.156 33.9249L132.511 34.6733L128.45 42.0264L122.043 38.4876ZM127.389 43.5513L128.468 41.5974L128.587 42.1018L127.095 41.278L127.733 40.1225L130.181 41.4743L128.649 44.2474L127.389 43.5513ZM130.803 43.3258L134.864 35.9727L136.209 36.7152L133.325 41.936L140.158 38.8965L141.429 39.5985L137.369 46.9517L136.024 46.2091L138.901 40.9989L132.074 44.0278L130.803 43.3258ZM143.706 50.4514L145.005 48.0984L145.173 48.5887L143.019 47.3994C142.403 47.0591 141.927 46.6636 141.591 46.213C141.266 45.7592 141.091 45.274 141.065 44.7574C141.044 44.2337 141.184 43.6987 141.485 43.1525C141.799 42.5853 142.192 42.1717 142.664 41.9117C143.141 41.6448 143.668 41.5339 144.246 41.5791C144.828 41.6172 145.431 41.8084 146.054 42.1526L149.111 43.8408L145.05 51.194L143.706 50.4514ZM138.936 47.8176L142.204 46.1951L143.58 46.9551L140.376 48.6124L138.936 47.8176ZM145.249 47.6572L147.337 43.8756L147.464 44.4394L145.458 43.3313C144.898 43.0219 144.396 42.9136 143.951 43.0064C143.518 43.0961 143.162 43.3931 142.884 43.8973C142.617 44.3805 142.55 44.8325 142.683 45.2533C142.827 45.671 143.176 46.0326 143.729 46.3381L145.788 47.4752L145.249 47.6572Z" fill="white"/>
<path d="M156.369 57.4449L163.739 51.9192L165.083 52.6617L164.342 61.8481L162.913 61.0591L163.727 52.8586L164.273 53.1603L157.776 58.2223L156.369 57.4449ZM158.832 56.5844L159.791 55.7159L163.762 57.9089L163.538 59.1834L158.832 56.5844ZM170.333 65.1569L169.822 60.1999L171.302 60.1263L171.877 66.0097L170.333 65.1569ZM165.469 62.4708L169.53 55.1177L170.875 55.8603L166.814 63.2134L165.469 62.4708ZM168.116 59.8883L168.765 58.7118L171.244 60.081L170.595 61.2575L168.116 59.8883ZM171.016 60.9417L169.859 60.0833L174.394 57.8037L175.844 58.6043L171.016 60.9417ZM172.815 66.5274L176.876 59.1742L178.22 59.9168L174.797 66.1145L178.505 68.1623L181.928 61.9647L183.283 62.7131L179.222 70.0662L172.815 66.5274ZM178.161 71.5911L179.24 69.6372L179.359 70.1416L177.867 69.3178L178.505 68.1623L180.953 69.514L179.421 72.2872L178.161 71.5911ZM181.575 71.3656L185.636 64.0125L186.981 64.755L182.92 72.1082L181.575 71.3656ZM189.266 75.6132L190.566 73.2602L190.734 73.7505L188.58 72.5612C187.964 72.2208 187.488 71.8254 187.152 71.3747C186.827 70.921 186.651 70.4358 186.626 69.9191C186.604 69.3955 186.745 68.8605 187.046 68.3143C187.359 67.747 187.752 67.3335 188.225 67.0735C188.701 66.8066 189.229 66.6957 189.807 66.7409C190.389 66.779 190.992 66.9702 191.615 67.3144L194.672 69.0026L190.611 76.3558L189.266 75.6132ZM184.497 72.9794L187.765 71.3569L189.141 72.1169L185.936 73.7742L184.497 72.9794ZM190.809 72.819L192.898 69.0374L193.025 69.6012L191.019 68.4931C190.459 68.1837 189.956 68.0754 189.512 68.1682C189.079 68.2579 188.723 68.5548 188.444 69.0591C188.178 69.5423 188.111 69.9943 188.244 70.4151C188.388 70.8328 188.736 71.1944 189.29 71.4999L191.349 72.637L190.809 72.819Z" fill="white"/>
</g>
<defs>
<clipPath id="clip0_1684_1187">
<rect width="260" height="28" fill="white" transform="translate(13.5366 -42) rotate(28.9106)"/>
</clipPath>
</defs>
</svg>
