<svg width="169" height="109" viewBox="0 0 169 109" fill="none" xmlns="http://www.w3.org/2000/svg">
<g clip-path="url(#clip0_1684_1276)">
<rect width="260" height="28" transform="translate(13.5366 -42) rotate(28.9106)" fill="#C65528"/>
<path d="M24.3059 -14.7739L31.6758 -20.2996L33.0203 -19.557L32.2788 -10.3706L30.8502 -11.1596L31.6641 -19.3601L32.2104 -19.0585L25.7135 -13.9965L24.3059 -14.7739ZM26.7689 -15.6344L27.7283 -16.5028L31.699 -14.3099L31.4749 -13.0354L26.7689 -15.6344ZM38.27 -7.06188L37.7587 -12.0188L39.2387 -12.0925L39.8141 -6.20909L38.27 -7.06188ZM33.4064 -9.7479L37.4673 -17.1011L38.8119 -16.3585L34.751 -9.00533L33.4064 -9.7479ZM36.0527 -12.3304L36.7024 -13.5069L39.1815 -12.1378L38.5318 -10.9613L36.0527 -12.3304ZM38.9529 -11.2771L37.7957 -12.1355L42.3309 -14.415L43.7805 -13.6144L38.9529 -11.2771ZM40.7516 -5.69136L44.8125 -13.0445L46.1571 -12.3019L42.7343 -6.10429L46.4424 -4.05641L49.8652 -10.2541L51.2203 -9.50569L47.1593 -2.15254L40.7516 -5.69136ZM46.0979 -0.627674L47.1769 -2.58151L47.2959 -2.07713L45.8043 -2.90092L46.4424 -4.05641L48.8899 -2.7047L47.3584 0.0684872L46.0979 -0.627674ZM49.5122 -0.853135L53.5731 -8.20628L54.9177 -7.46371L50.8568 -0.110564L49.5122 -0.853135ZM57.2033 3.39444L58.5028 1.04143L58.6707 1.53171L56.5173 0.342434C55.901 0.0020883 55.4248 -0.39339 55.0888 -0.844001C54.7636 -1.29775 54.5884 -1.78295 54.563 -2.29961C54.5415 -2.82328 54.6815 -3.35823 54.9832 -3.90446C55.2965 -4.4717 55.6894 -4.88529 56.162 -5.14523C56.6384 -5.41218 57.1657 -5.52306 57.7439 -5.47789C58.326 -5.43973 58.9287 -5.24854 59.552 -4.90432L62.6088 -3.21613L58.5478 4.13701L57.2033 3.39444ZM52.4342 0.760634L55.7018 -0.861858L57.0779 -0.101883L53.8733 1.55542L52.4342 0.760634ZM58.7464 0.600246L60.8349 -3.18137L60.9622 -2.61757L58.9558 -3.72562C58.3956 -4.03503 57.8934 -4.14333 57.4491 -4.05052C57.0158 -3.96085 56.6599 -3.66391 56.3814 -3.15969C56.1145 -2.67649 56.0477 -2.22447 56.1808 -1.80366C56.3249 -1.38598 56.6735 -1.02437 57.2267 -0.718831L59.2856 0.418231L58.7464 0.600246Z" fill="white"/>
<path d="M70.7183 10.8584L74.7792 3.50527L77.8045 5.17605C78.4558 5.53574 78.9545 5.94825 79.3007 6.4136C79.6539 6.88282 79.8482 7.38313 79.8838 7.91453C79.9193 8.44593 79.7882 8.98124 79.4903 9.52047C79.1925 10.0597 78.8093 10.4558 78.3406 10.7087C77.8719 10.9617 77.345 11.0636 76.7597 11.0146C76.1815 10.9694 75.5668 10.767 74.9155 10.4073L72.6465 9.1542L73.6096 8.84991L72.0839 11.6126L70.7183 10.8584ZM73.5284 8.99697L73.2847 7.99871L75.4906 9.21699C76.0929 9.5496 76.6142 9.673 77.0545 9.5872C77.5058 9.49826 77.859 9.2227 78.1143 8.7605C78.3734 8.2913 78.4185 7.84556 78.2496 7.42328C78.0877 7.00486 77.7056 6.62935 77.1034 6.29674L74.8974 5.07846L75.878 4.74265L73.5284 8.99697ZM78.2376 15.0111L82.2986 7.65798L85.3239 9.32877C85.9752 9.68845 86.4739 10.101 86.82 10.5663C87.1732 11.0355 87.3676 11.5358 87.4031 12.0672C87.4386 12.5986 87.3075 13.134 87.0097 13.6732C86.7119 14.2124 86.3286 14.6085 85.8599 14.8614C85.3951 15.1074 84.8701 15.2058 84.2849 15.1568C83.7105 15.1046 83.0977 14.8987 82.4464 14.539L80.1774 13.2859L81.129 13.0026L79.6032 15.7653L78.2376 15.0111ZM83.0487 17.6681L82.6629 13.9732L84.1231 14.7796L84.5193 18.4803L83.0487 17.6681ZM81.0478 13.1497L80.7982 12.1619L83.0041 13.3802C83.6064 13.7128 84.1296 13.8327 84.5739 13.7399C85.0251 13.651 85.3783 13.3754 85.6336 12.9132C85.8927 12.444 85.9378 11.9983 85.7689 11.576C85.607 11.1576 85.225 10.7821 84.6227 10.4495L82.4168 9.23118L83.3973 8.89537L81.0478 13.1497ZM89.3086 21.2624C88.7343 20.9452 88.2578 20.5587 87.879 20.1028C87.5002 19.6468 87.2251 19.1521 87.0536 18.6188C86.8859 18.0784 86.8298 17.5264 86.8851 16.9629C86.9443 16.3925 87.1247 15.8341 87.4264 15.2879C87.728 14.7416 88.1026 14.2951 88.5501 13.9481C89.0014 13.5942 89.4985 13.3478 90.0413 13.2089C90.5879 13.063 91.1551 13.029 91.7427 13.1068C92.3303 13.1845 92.9078 13.3801 93.475 13.6933C94.0493 14.0105 94.5223 14.3951 94.8941 14.8472C95.2729 15.3031 95.5461 15.8013 95.7137 16.3417C95.8852 16.8751 95.9414 17.427 95.8822 17.9975C95.8269 18.561 95.6484 19.1158 95.3467 19.6621C95.0451 20.2083 94.6686 20.6584 94.2172 21.0123C93.7659 21.3662 93.2688 21.6126 92.726 21.7515C92.1832 21.8904 91.618 21.9209 91.0304 21.8432C90.4497 21.7692 89.8758 21.5757 89.3086 21.2624ZM89.9594 20.0591C90.3306 20.264 90.7085 20.3905 91.0933 20.4385C91.478 20.4865 91.8498 20.4588 92.2085 20.3553C92.5711 20.2448 92.9005 20.0703 93.1967 19.8318C93.5038 19.5902 93.7618 19.2803 93.9707 18.9021C94.1795 18.5239 94.3025 18.144 94.3396 17.7624C94.3876 17.3777 94.3598 17.0059 94.2564 16.6472C94.1568 16.2815 93.9842 15.9486 93.7387 15.6485C93.4932 15.3484 93.1848 15.0958 92.8137 14.8909C92.4425 14.6859 92.0646 14.5594 91.6798 14.5114C91.3021 14.4673 90.9284 14.4985 90.5588 14.6051C90.2001 14.7086 89.8671 14.8812 89.5601 15.1228C89.2638 15.3613 89.0113 15.6697 88.8024 16.0478C88.5975 16.419 88.471 16.7969 88.423 17.1817C88.382 17.5703 88.4113 17.9475 88.5109 18.3132C88.6144 18.6719 88.7889 19.0014 89.0344 19.3015C89.2799 19.6015 89.5883 19.8541 89.9594 20.0591ZM94.7638 24.138L98.8247 16.7849L99.9487 17.4056L100.199 24.5486L99.6103 24.2238L105.737 20.6022L106.861 21.2229L102.81 28.5819L101.518 27.8683L104.449 22.5367L104.722 22.6876L99.5557 25.6878L98.9465 25.3514L98.6925 19.3576L99.0076 19.5316L96.0663 24.8574L94.7638 24.138ZM108.184 31.6867C107.61 31.3695 107.133 30.983 106.754 30.527C106.376 30.0711 106.1 29.5764 105.929 29.043C105.761 28.5026 105.705 27.9507 105.76 27.3872C105.82 26.8167 106 26.2584 106.302 25.7121C106.603 25.1659 106.978 24.7193 107.425 24.3724C107.877 24.0185 108.374 23.7721 108.917 23.6332C109.463 23.4873 110.03 23.4533 110.618 23.531C111.206 23.6088 111.783 23.8044 112.35 24.1176C112.925 24.4348 113.398 24.8194 113.769 25.2714C114.148 25.7274 114.421 26.2256 114.589 26.7659C114.76 27.2993 114.817 27.8513 114.757 28.4218C114.702 28.9853 114.524 29.5401 114.222 30.0863C113.92 30.6326 113.544 31.0827 113.092 31.4366C112.641 31.7905 112.144 32.0369 111.601 32.1758C111.058 32.3147 110.493 32.3452 109.906 32.2674C109.325 32.1935 108.751 31.9999 108.184 31.6867ZM108.835 30.4833C109.206 30.6883 109.584 30.8148 109.969 30.8628C110.353 30.9108 110.725 30.883 111.084 30.7796C111.446 30.6691 111.776 30.4946 112.072 30.2561C112.379 30.0144 112.637 29.7045 112.846 29.3264C113.055 28.9482 113.178 28.5683 113.215 28.1867C113.263 27.802 113.235 27.4302 113.132 27.0715C113.032 26.7058 112.859 26.3728 112.614 26.0727C112.368 25.7727 112.06 25.5201 111.689 25.3151C111.318 25.1102 110.94 24.9837 110.555 24.9357C110.177 24.8916 109.804 24.9228 109.434 25.0294C109.075 25.1329 108.742 25.3054 108.435 25.5471C108.139 25.7856 107.887 26.094 107.678 26.4721C107.473 26.8433 107.346 27.2212 107.298 27.606C107.257 27.9946 107.287 28.3718 107.386 28.7375C107.49 29.0962 107.664 29.4256 107.91 29.7257C108.155 30.0258 108.464 30.2784 108.835 30.4833ZM115.028 35.3295L118.451 29.1318L116.014 27.7859L116.652 26.6304L122.892 30.0764L122.254 31.2319L119.816 29.886L116.394 36.0836L115.028 35.3295ZM119.856 37.9955L123.916 30.6424L125.282 31.3966L121.221 38.7497L119.856 37.9955ZM126.597 41.856C126.023 41.5389 125.547 41.1523 125.168 40.6964C124.789 40.2404 124.514 39.7458 124.342 39.2124C124.175 38.672 124.119 38.12 124.174 37.5566C124.233 36.9861 124.414 36.4277 124.715 35.8815C125.017 35.3352 125.392 34.8887 125.839 34.5418C126.29 34.1879 126.787 33.9415 127.33 33.8026C127.877 33.6567 128.444 33.6226 129.032 33.7004C129.619 33.7782 130.197 33.9737 130.764 34.287C131.338 34.6041 131.811 34.9887 132.183 35.4408C132.562 35.8967 132.835 36.3949 133.003 36.9353C133.174 37.4687 133.23 38.0206 133.171 38.5911C133.116 39.1546 132.937 39.7095 132.636 40.2557C132.334 40.8019 131.957 41.252 131.506 41.6059C131.055 41.9598 130.558 42.2062 130.015 42.3451C129.472 42.484 128.907 42.5146 128.319 42.4368C127.739 42.3629 127.165 42.1693 126.597 41.856ZM127.248 40.6527C127.619 40.8577 127.997 40.9842 128.382 41.0321C128.767 41.0801 129.139 41.0524 129.497 40.9489C129.86 40.8384 130.189 40.6639 130.486 40.4254C130.793 40.1838 131.051 39.8739 131.26 39.4957C131.468 39.1175 131.591 38.7377 131.629 38.356C131.676 37.9713 131.649 37.5996 131.545 37.2408C131.446 36.8751 131.273 36.5422 131.028 36.2421C130.782 35.942 130.474 35.6895 130.103 35.4845C129.731 35.2795 129.353 35.153 128.969 35.105C128.591 35.0609 128.217 35.0921 127.848 35.1988C127.489 35.3022 127.156 35.4748 126.849 35.7164C126.553 35.955 126.3 36.2633 126.091 36.6415C125.886 37.0126 125.76 37.3906 125.712 37.7753C125.671 38.1639 125.7 38.5411 125.8 38.9068C125.903 39.2656 126.078 39.595 126.323 39.8951C126.569 40.1952 126.877 40.4477 127.248 40.6527ZM132.053 44.7317L136.114 37.3785L137.238 37.9993L138.722 46.208L138.165 45.9005L141.292 40.2386L142.647 40.987L138.586 48.3401L137.462 47.7194L135.978 39.5106L136.535 39.8181L133.408 45.48L132.053 44.7317Z" fill="white"/>
<path d="M150.377 54.8518L154.438 47.4987L157.464 49.1695C158.115 49.5291 158.614 49.9417 158.96 50.407C159.313 50.8762 159.507 51.3765 159.543 51.9079C159.578 52.4393 159.447 52.9747 159.15 53.5139C158.852 54.0531 158.468 54.4492 158 54.7021C157.531 54.9551 157.004 55.057 156.419 55.008C155.841 54.9628 155.226 54.7604 154.575 54.4007L152.306 53.1476L153.269 52.8433L151.743 55.606L150.377 54.8518ZM153.188 52.9904L152.944 51.9921L155.15 53.2104C155.752 53.543 156.273 53.6664 156.714 53.5806C157.165 53.4917 157.518 53.2161 157.773 52.7539C158.033 52.2847 158.078 51.839 157.909 51.4167C157.747 50.9983 157.365 50.6228 156.763 50.2901L154.557 49.0719L155.537 48.7361L153.188 52.9904ZM157.897 59.0045L161.958 51.6514L164.983 53.3222C165.634 53.6819 166.133 54.0944 166.479 54.5597C166.832 55.0289 167.027 55.5293 167.062 56.0607C167.098 56.5921 166.967 57.1274 166.669 57.6666C166.371 58.2058 165.988 58.6019 165.519 58.8548C165.054 59.1008 164.529 59.1992 163.944 59.1502C163.37 59.098 162.757 58.8921 162.106 58.5324L159.837 57.2793L160.788 56.996L159.262 59.7587L157.897 59.0045ZM162.708 61.6616L162.322 57.9666L163.782 58.773L164.179 62.4737L162.708 61.6616ZM160.707 57.1431L160.457 56.1553L162.663 57.3736C163.266 57.7062 163.789 57.8261 164.233 57.7333C164.684 57.6444 165.038 57.3688 165.293 56.9066C165.552 56.4374 165.597 55.9917 165.428 55.5694C165.266 55.151 164.884 54.7755 164.282 54.4429L162.076 53.2246L163.056 52.8888L160.707 57.1431ZM168.968 65.2558C168.394 64.9386 167.917 64.5521 167.538 64.0962C167.159 63.6402 166.884 63.1456 166.713 62.6122C166.545 62.0718 166.489 61.5198 166.544 60.9563C166.603 60.3859 166.784 59.8275 167.086 59.2813C167.387 58.735 167.762 58.2885 168.209 57.9416C168.661 57.5877 169.158 57.3412 169.7 57.2024C170.247 57.0564 170.814 57.0224 171.402 57.1002C171.99 57.178 172.567 57.3735 173.134 57.6867C173.708 58.0039 174.181 58.3885 174.553 58.8406C174.932 59.2965 175.205 59.7947 175.373 60.3351C175.544 60.8685 175.601 61.4204 175.541 61.9909C175.486 62.5544 175.308 63.1092 175.006 63.6555C174.704 64.2017 174.328 64.6518 173.876 65.0057C173.425 65.3596 172.928 65.606 172.385 65.7449C171.842 65.8838 171.277 65.9143 170.69 65.8366C170.109 65.7627 169.535 65.5691 168.968 65.2558ZM169.619 64.0525C169.99 64.2575 170.368 64.3839 170.752 64.4319C171.137 64.4799 171.509 64.4522 171.868 64.3487C172.23 64.2382 172.56 64.0637 172.856 63.8252C173.163 63.5836 173.421 63.2737 173.63 62.8955C173.839 62.5173 173.962 62.1374 173.999 61.7558C174.047 61.3711 174.019 60.9993 173.916 60.6406C173.816 60.2749 173.643 59.942 173.398 59.6419C173.152 59.3418 172.844 59.0892 172.473 58.8843C172.102 58.6793 171.724 58.5528 171.339 58.5048C170.961 58.4607 170.588 58.4919 170.218 58.5985C169.859 58.702 169.526 58.8746 169.219 59.1162C168.923 59.3547 168.67 59.6631 168.462 60.0412C168.257 60.4124 168.13 60.7904 168.082 61.1751C168.041 61.5637 168.07 61.9409 168.17 62.3066C168.274 62.6654 168.448 62.9948 168.694 63.2949C168.939 63.595 169.247 63.8475 169.619 64.0525ZM174.423 68.1315L178.484 60.7783L179.608 61.399L179.858 68.5421L179.269 68.2172L185.396 64.5956L186.52 65.2163L182.469 72.5753L181.177 71.8617L184.108 66.5301L184.381 66.681L179.215 69.6812L178.606 69.3448L178.352 63.351L178.667 63.525L175.725 68.8508L174.423 68.1315ZM187.843 75.6801C187.269 75.3629 186.792 74.9764 186.413 74.5204C186.035 74.0645 185.76 73.5698 185.588 73.0364C185.42 72.4961 185.364 71.9441 185.42 71.3806C185.479 70.8101 185.659 70.2518 185.961 69.7055C186.262 69.1593 186.637 68.7127 187.085 68.3658C187.536 68.0119 188.033 67.7655 188.576 67.6266C189.122 67.4807 189.69 67.4467 190.277 67.5245C190.865 67.6022 191.442 67.7978 192.009 68.111C192.584 68.4282 193.057 68.8128 193.429 69.2649C193.807 69.7208 194.081 70.219 194.248 70.7594C194.42 71.2927 194.476 71.8447 194.417 72.4152C194.361 72.9787 194.183 73.5335 193.881 74.0798C193.58 74.626 193.203 75.0761 192.752 75.43C192.3 75.7839 191.803 76.0303 191.26 76.1692C190.718 76.3081 190.152 76.3386 189.565 76.2608C188.984 76.1869 188.41 75.9933 187.843 75.6801ZM188.494 74.4768C188.865 74.6817 189.243 74.8082 189.628 74.8562C190.012 74.9042 190.384 74.8765 190.743 74.773C191.106 74.6625 191.435 74.488 191.731 74.2495C192.038 74.0078 192.296 73.6979 192.505 73.3198C192.714 72.9416 192.837 72.5617 192.874 72.1801C192.922 71.7954 192.894 71.4236 192.791 71.0649C192.691 70.6992 192.519 70.3663 192.273 70.0662C192.028 69.7661 191.719 69.5135 191.348 69.3085C190.977 69.1036 190.599 68.9771 190.214 68.9291C189.837 68.885 189.463 68.9162 189.093 69.0228C188.735 69.1263 188.402 69.2989 188.094 69.5405C187.798 69.779 187.546 70.0874 187.337 70.4655C187.132 70.8367 187.005 71.2146 186.957 71.5994C186.916 71.988 186.946 72.3652 187.045 72.7309C187.149 73.0896 187.323 73.419 187.569 73.7191C187.814 74.0192 188.123 74.2718 188.494 74.4768ZM194.687 79.3229L198.11 73.1252L195.673 71.7793L196.311 70.6238L202.551 74.0698L201.913 75.2253L199.476 73.8794L196.053 80.077L194.687 79.3229ZM199.515 81.9889L203.576 74.6358L204.941 75.39L200.88 82.7431L199.515 81.9889ZM206.257 85.8494C205.682 85.5323 205.206 85.1457 204.827 84.6898C204.448 84.2338 204.173 83.7392 204.002 83.2058C203.834 82.6654 203.778 82.1135 203.833 81.55C203.892 80.9795 204.073 80.4211 204.374 79.8749C204.676 79.3287 205.051 78.8821 205.498 78.5352C205.95 78.1813 206.447 77.9349 206.989 77.796C207.536 77.6501 208.103 77.616 208.691 77.6938C209.278 77.7716 209.856 77.9671 210.423 78.2804C210.997 78.5975 211.47 78.9821 211.842 79.4342C212.221 79.8901 212.494 80.3883 212.662 80.9287C212.833 81.4621 212.889 82.014 212.83 82.5845C212.775 83.148 212.597 83.7029 212.295 84.2491C211.993 84.7953 211.617 85.2454 211.165 85.5993C210.714 85.9532 210.217 86.1996 209.674 86.3385C209.131 86.4774 208.566 86.508 207.978 86.4302C207.398 86.3563 206.824 86.1627 206.257 85.8494ZM206.908 84.6461C207.279 84.8511 207.657 84.9776 208.041 85.0255C208.426 85.0735 208.798 85.0458 209.157 84.9423C209.519 84.8318 209.849 84.6574 210.145 84.4188C210.452 84.1772 210.71 83.8673 210.919 83.4891C211.128 83.111 211.251 82.7311 211.288 82.3495C211.336 81.9647 211.308 81.593 211.204 81.2342C211.105 80.8685 210.932 80.5356 210.687 80.2355C210.441 79.9354 210.133 79.6829 209.762 79.4779C209.391 79.2729 209.013 79.1464 208.628 79.0984C208.25 79.0543 207.876 79.0856 207.507 79.1922C207.148 79.2956 206.815 79.4682 206.508 79.7098C206.212 79.9484 205.959 80.2567 205.751 80.6349C205.546 81.006 205.419 81.384 205.371 81.7687C205.33 82.1573 205.359 82.5345 205.459 82.9003C205.562 83.259 205.737 83.5884 205.982 83.8885C206.228 84.1886 206.536 84.4411 206.908 84.6461ZM211.712 88.7251L215.773 81.3719L216.897 81.9927L218.381 90.2014L217.825 89.8939L220.952 84.232L222.307 84.9804L218.246 92.3335L217.122 91.7128L215.637 83.5041L216.194 83.8115L213.067 89.4734L211.712 88.7251Z" fill="white"/>
</g>
<defs>
<clipPath id="clip0_1684_1276">
<rect width="260" height="28" fill="white" transform="translate(13.5366 -42) rotate(28.9106)"/>
</clipPath>
</defs>
</svg>
