<svg width="169" height="109" viewBox="0 0 169 109" fill="none" xmlns="http://www.w3.org/2000/svg">
<g clip-path="url(#clip0_456_1041)">
<rect width="260" height="28" transform="translate(13.5371 -42) rotate(28.9106)" fill="#C65528"/>
<path d="M54.8264 1.3653L62.1963 -4.16042L63.5408 -3.41785L62.7993 5.76852L61.3707 4.97954L62.1846 -3.22096L62.7309 -2.91929L56.234 2.14268L54.8264 1.3653ZM57.2894 0.504768L58.2488 -0.363643L62.2195 1.82926L61.9954 3.10377L57.2894 0.504768ZM68.7905 9.07728L68.2792 4.12033L69.7592 4.04667L70.3347 9.93007L68.7905 9.07728ZM63.9269 6.39126L67.9878 -0.961891L69.3324 -0.21932L65.2715 7.13383L63.9269 6.39126ZM66.5732 3.80875L67.223 2.63225L69.702 4.00136L69.0523 5.17787L66.5732 3.80875ZM69.4734 4.86211L68.3162 4.00368L72.8514 1.72413L74.3011 2.52471L69.4734 4.86211ZM71.2721 10.4478L75.333 3.09465L76.6776 3.83722L73.2548 10.0349L76.9629 12.0827L80.3857 5.88509L81.7408 6.63347L77.6798 13.9866L71.2721 10.4478ZM76.6184 15.5115L77.6974 13.5577L77.8164 14.062L76.3248 13.2382L76.9629 12.0827L79.4105 13.4345L77.8789 16.2076L76.6184 15.5115ZM80.0327 15.286L84.0936 7.93288L85.4382 8.67545L81.3773 16.0286L80.0327 15.286ZM87.7238 19.5336L89.0233 17.1806L89.1912 17.6709L87.0378 16.4816C86.4215 16.1412 85.9454 15.7458 85.6093 15.2952C85.2842 14.8414 85.1089 14.3562 85.0835 13.8395C85.062 13.3159 85.2021 12.7809 85.5037 12.2347C85.817 11.6675 86.2099 11.2539 86.6825 10.9939C87.1589 10.727 87.6862 10.6161 88.2644 10.6613C88.8465 10.6994 89.4492 10.8906 90.0725 11.2348L93.1293 12.923L89.0684 20.2762L87.7238 19.5336ZM82.9547 16.8998L86.2224 15.2773L87.5984 16.0373L84.3939 17.6946L82.9547 16.8998ZM89.2669 16.7394L91.3554 12.9578L91.4827 13.5216L89.4764 12.4135C88.9161 12.1041 88.4139 11.9958 87.9697 12.0886C87.5363 12.1783 87.1804 12.4753 86.9019 12.9795C86.6351 13.4627 86.5682 13.9147 86.7014 14.3355C86.8454 14.7532 87.194 15.1148 87.7472 15.4203L89.8061 16.5574L89.2669 16.7394Z" fill="white"/>
<path d="M100.346 26.5045L107.716 20.9787L109.06 21.7213L108.319 30.9077L106.89 30.1187L107.704 21.9182L108.25 22.2199L101.754 27.2818L100.346 26.5045ZM102.809 25.6439L103.768 24.7755L107.739 26.9684L107.515 28.2429L102.809 25.6439ZM114.31 34.2164L113.799 29.2595L115.279 29.1858L115.854 35.0692L114.31 34.2164ZM109.446 31.5304L113.507 24.1773L114.852 24.9198L110.791 32.273L109.446 31.5304ZM112.093 28.9479L112.742 27.7714L115.222 29.1405L114.572 30.317L112.093 28.9479ZM114.993 30.0013L113.836 29.1428L118.371 26.8633L119.821 27.6639L114.993 30.0013ZM116.792 35.587L120.853 28.2338L122.197 28.9764L118.774 35.174L122.482 37.2219L125.905 31.0243L127.26 31.7726L123.199 39.1258L116.792 35.587ZM122.138 40.6506L123.217 38.6968L123.336 39.2012L121.844 38.3774L122.482 37.2219L124.93 38.5736L123.398 41.3468L122.138 40.6506ZM125.552 40.4252L129.613 33.072L130.958 33.8146L126.897 41.1678L125.552 40.4252ZM133.243 44.6728L134.543 42.3198L134.711 42.81L132.557 41.6208C131.941 41.2804 131.465 40.8849 131.129 40.4343C130.804 39.9806 130.628 39.4954 130.603 38.9787C130.582 38.455 130.722 37.9201 131.023 37.3739C131.337 36.8066 131.729 36.393 132.202 36.1331C132.678 35.8661 133.206 35.7553 133.784 35.8004C134.366 35.8386 134.969 36.0298 135.592 36.374L138.649 38.0622L134.588 45.4153L133.243 44.6728ZM128.474 42.039L131.742 40.4165L133.118 41.1764L129.913 42.8337L128.474 42.039ZM134.786 41.8786L136.875 38.0969L137.002 38.6608L134.996 37.5527C134.436 37.2433 133.933 37.135 133.489 37.2278C133.056 37.3175 132.7 37.6144 132.421 38.1186C132.155 38.6018 132.088 39.0538 132.221 39.4747C132.365 39.8923 132.714 40.254 133.267 40.5595L135.326 41.6966L134.786 41.8786Z" fill="white"/>
<path d="M145.865 51.6435L153.235 46.1178L154.58 46.8603L153.838 56.0467L152.41 55.2577L153.224 47.0572L153.77 47.3589L147.273 52.4209L145.865 51.6435ZM148.328 50.783L149.288 49.9146L153.259 52.1075L153.034 53.382L148.328 50.783ZM159.83 59.3555L159.318 54.3985L160.798 54.3249L161.374 60.2083L159.83 59.3555ZM154.966 56.6695L159.027 49.3163L160.371 50.0589L156.311 57.412L154.966 56.6695ZM157.612 54.0869L158.262 52.9104L160.741 54.2796L160.091 55.4561L157.612 54.0869ZM160.512 55.1403L159.355 54.2819L163.89 52.0023L165.34 52.8029L160.512 55.1403ZM162.311 60.726L166.372 53.3728L167.717 54.1154L164.294 60.3131L168.002 62.3609L171.425 56.1633L172.78 56.9117L168.719 64.2648L162.311 60.726ZM167.657 65.7897L168.736 63.8358L168.855 64.3402L167.364 63.5164L168.002 62.3609L170.45 63.7127L168.918 66.4858L167.657 65.7897ZM171.072 65.5642L175.133 58.2111L176.477 58.9536L172.416 66.3068L171.072 65.5642ZM178.763 69.8118L180.062 67.4588L180.23 67.9491L178.077 66.7598C177.461 66.4194 176.984 66.024 176.648 65.5734C176.323 65.1196 176.148 64.6344 176.123 64.1177C176.101 63.5941 176.241 63.0591 176.543 62.5129C176.856 61.9457 177.249 61.5321 177.722 61.2721C178.198 61.0052 178.725 60.8943 179.304 60.9395C179.886 60.9776 180.488 61.1688 181.112 61.513L184.168 63.2012L180.107 70.5544L178.763 69.8118ZM173.994 67.178L177.261 65.5555L178.638 66.3155L175.433 67.9728L173.994 67.178ZM180.306 67.0176L182.394 63.236L182.522 63.7998L180.515 62.6917C179.955 62.3823 179.453 62.274 179.009 62.3668C178.575 62.4565 178.219 62.7534 177.941 63.2577C177.674 63.7409 177.607 64.1929 177.74 64.6137C177.884 65.0314 178.233 65.393 178.786 65.6985L180.845 66.8356L180.306 67.0176Z" fill="white"/>
</g>
<defs>
<clipPath id="clip0_456_1041">
<rect width="260" height="28" fill="white" transform="translate(13.5371 -42) rotate(28.9106)"/>
</clipPath>
</defs>
</svg>
