<svg width="185" height="100" viewBox="0 0 185 100" fill="none" xmlns="http://www.w3.org/2000/svg">
<path d="M126.211 141.943C124.287 139.041 123.168 135.849 122.855 132.367C122.541 128.884 122.905 125.388 123.948 121.876C124.991 118.367 126.516 115.058 128.525 111.945C130.533 108.834 132.851 106.2 135.477 104.048C139.485 100.847 143.951 98.7033 148.876 97.6085C153.8 96.5174 158.444 96.8674 162.809 98.6621C163.682 98.9973 164.553 99.3605 165.429 99.7596C166.3 100.156 167.15 100.623 167.977 101.151C168.716 99.8397 169.663 98.038 170.82 95.7454C171.973 93.4515 173.036 90.9937 174.01 88.3694C174.981 85.7463 175.598 83.2365 175.856 80.8386C176.114 78.4432 175.74 76.451 174.733 74.8722C173.311 72.6959 171.222 71.601 168.462 71.5874C165.704 71.5751 162.493 72.3973 158.833 74.0554C155.174 75.7109 151.28 78.0245 147.157 80.9935C143.034 83.9639 138.897 87.3429 134.749 91.1321C130.6 94.925 126.636 98.9118 122.854 103.096C119.072 107.283 115.706 111.471 112.752 115.662L106.427 106.564C111.041 100.018 116.161 93.8012 121.787 87.914C127.411 82.0281 133.126 76.8657 138.933 72.4268C141.558 70.4034 144.45 68.4311 147.605 66.5087C150.76 64.5875 153.983 62.9605 157.275 61.6277C160.566 60.2999 163.776 59.5084 166.905 59.2606C170.033 59.0141 172.929 59.5548 175.592 60.8812C178.256 62.2101 180.528 64.5528 182.406 67.9104C184.145 71.0732 185.01 74.4948 185.002 78.1728C184.993 81.852 184.466 85.5452 183.424 89.2526C182.378 92.9612 181.128 96.403 179.673 99.582C178.215 102.761 176.888 105.464 175.688 107.691C176.604 108.748 177.499 109.835 178.37 110.957C179.242 112.08 180.088 113.234 180.914 114.421L174.477 123.358C173.743 122.171 172.988 121.116 172.207 120.194C171.426 119.268 170.67 118.413 169.937 117.62C167.442 121.418 164.791 124.986 161.978 128.323C161.239 129.239 160.12 130.597 158.622 132.397C157.123 134.195 155.371 136.126 153.366 138.187C151.359 140.246 149.205 142.124 146.902 143.823C144.596 145.521 142.225 146.756 139.787 147.531C137.346 148.307 134.966 148.311 132.646 147.546C130.326 146.779 128.181 144.913 126.209 141.945L126.211 141.943ZM136.754 118.54C135.784 119.653 134.839 121.062 133.914 122.764C132.989 124.469 132.353 126.223 132.005 128.027C131.654 129.831 131.846 131.458 132.579 132.906C133.538 134.817 134.882 135.663 136.608 135.442C138.333 135.22 140.279 134.292 142.445 132.661C144.61 131.028 146.776 129.134 148.943 126.976C151.708 124.1 154.268 121.155 156.622 118.144C158.974 115.133 160.635 112.942 161.605 111.565C157.102 109.572 152.676 109.272 148.327 110.663C143.976 112.053 140.119 114.679 136.752 118.54L136.754 118.54Z" fill="#545454"/>
<ellipse cx="41.5" cy="29.5" rx="65.5" ry="43.5" fill="#545454"/>
</svg>
