<svg width="124" height="100" viewBox="0 0 124 100" fill="none" xmlns="http://www.w3.org/2000/svg">
<path d="M122.585 18.9988C121.637 21.2236 119.991 22.9089 117.644 24.0542C115.299 25.2008 112.533 25.8327 109.344 25.9504C106.157 26.0674 102.825 25.7646 99.3427 25.0409C95.8619 24.3176 92.5405 23.2335 89.3834 21.7885C84.6266 19.5617 80.3621 16.7092 76.5837 13.234C72.8087 9.7586 70.2522 6.12171 68.9166 2.3217C68.6323 1.56798 68.3695 0.808356 68.1296 0.0353869C67.8911 -0.732818 67.7162 -1.50345 67.6 -2.27216C66.198 -2.49527 64.3129 -2.74925 61.9436 -3.03547C59.5749 -3.31931 57.1418 -3.49112 54.6414 -3.55161C52.1435 -3.61038 49.9426 -3.42803 48.0404 -3.00081C46.1402 -2.57425 44.9162 -1.76983 44.376 -0.59019C43.6522 1.06203 44.1196 2.94208 45.7802 5.05271C47.4413 7.16232 49.9835 9.39968 53.4063 11.7624C56.8272 14.1258 60.8689 16.4966 65.5264 18.8715C70.1854 21.2466 75.1501 23.5257 80.42 25.7064C85.6932 27.8867 90.9957 29.8756 96.3321 31.6741C101.67 33.472 106.757 34.9522 111.597 36.1167L108.801 43.3139C101.242 41.495 93.616 39.2043 85.9233 36.4407C78.2331 33.6788 71.0145 30.6589 64.2674 27.381C61.205 25.9034 58.018 24.2084 54.7082 22.2998C51.4 20.3915 48.2641 18.354 45.3006 16.1872C42.3419 14.0204 39.822 11.7751 37.7476 9.4507C35.6747 7.12666 34.3151 4.77467 33.6686 2.39574C33.0239 0.0161508 33.3543 -2.32842 34.6623 -4.63627C35.9126 -6.78723 37.8801 -8.33868 40.5629 -9.28998C43.2472 -10.2409 46.2553 -10.8001 49.5859 -10.969C52.9191 -11.1362 56.1822 -11.0774 59.3774 -10.7943C62.5748 -10.5084 65.3465 -10.1986 67.6947 -9.86201C67.9095 -10.8372 68.1592 -11.8028 68.449 -12.7599C68.7392 -13.7181 69.0669 -14.665 69.4316 -15.6041L79.8352 -13.0154C79.4156 -12.1461 79.1043 -11.2951 78.905 -10.4592C78.7035 -9.6217 78.539 -8.82181 78.4054 -8.05557C82.6812 -7.13986 86.8839 -6.04434 91.0168 -4.76492C92.1313 -4.43909 93.7969 -3.93853 96.0149 -3.26289C98.2312 -2.58659 100.698 -1.7514 103.412 -0.756669C106.126 0.239076 108.798 1.39524 111.429 2.71152C114.062 4.03018 116.396 5.51898 118.436 7.17862C120.479 8.83999 121.922 10.6567 122.77 12.627C123.616 14.5983 123.555 16.7215 122.588 18.9995L122.585 18.9988ZM99.1626 17.0412C100.56 17.4916 102.158 17.8463 103.958 18.1096C105.759 18.3723 107.421 18.4018 108.946 18.1975C110.471 17.9957 111.54 17.4256 112.151 16.4892C112.961 15.2593 112.764 14.0131 111.558 12.7525C110.352 11.4933 108.498 10.2488 106 9.02C103.5 7.79188 100.809 6.63111 97.927 5.53837C94.1591 4.176 90.465 2.98775 86.8477 1.97433C83.2315 0.962267 80.6298 0.264201 79.0406 -0.118201C80.3151 3.839 82.7757 7.29646 86.4218 10.2552C90.0676 13.215 94.3142 15.4765 99.1637 17.0426L99.1626 17.0412Z" fill="#F6F5EA"/>
<path d="M63.0283 109.641C62.4253 112.906 61.3184 115.473 59.7066 117.343C58.0955 119.214 56.1759 120.395 53.9465 120.886C51.7185 121.377 49.377 121.284 46.919 120.607C44.462 119.93 42.1069 118.723 39.8569 116.986C36.4656 114.298 33.4018 110.668 30.6614 106.102C27.9234 101.536 26.0342 96.6158 24.9954 91.3393C24.7757 90.2947 24.571 89.2395 24.3819 88.163C24.194 87.0931 24.0505 86.0133 23.9482 84.9303C22.9605 84.7549 21.6336 84.5846 19.9668 84.4176C18.3006 84.2539 16.5923 84.2564 14.8399 84.4241C13.0893 84.5941 11.5532 85.0774 10.233 85.879C8.9141 86.6795 8.07903 87.9495 7.73297 89.6845C7.27126 92.1111 7.6498 94.7413 8.87015 97.5787C10.0908 100.415 11.9318 103.343 14.3928 106.36C16.8525 109.379 19.7472 112.345 23.0731 115.254C26.4 118.164 29.9384 120.906 33.6878 123.476C37.4395 126.046 41.2065 128.34 44.9919 130.36C48.7787 132.378 52.3809 133.97 55.8015 135.137L54.0403 145.671C48.6975 143.848 43.2956 141.361 37.8339 138.206C32.374 135.053 27.2373 131.485 22.4237 127.502C20.2391 125.709 17.9614 123.618 15.5919 121.236C13.2234 118.854 10.9721 116.271 8.83802 113.486C6.70728 110.7 4.88165 107.758 3.36579 104.658C1.85097 101.559 0.834884 98.3471 0.317282 95.0246C-0.199032 91.701 -0.0316604 88.3282 0.821226 84.9084C1.63798 81.718 2.97327 79.3085 4.82581 77.6812C6.67939 76.0542 8.7703 74.9522 11.0978 74.3734C13.427 73.7968 15.7134 73.5491 17.9584 73.6278C20.205 73.7102 22.1541 73.87 23.8075 74.1109C23.9313 72.7002 24.0798 71.2996 24.2566 69.907C24.4336 68.5129 24.6372 67.131 24.867 65.7564L32.222 68.3867C31.9519 69.6674 31.7572 70.9111 31.6404 72.1218C31.5222 73.3351 31.4289 74.491 31.3562 75.5959C34.375 76.4659 37.3476 77.5993 40.2762 79.0018C41.0655 79.3527 42.2453 79.8964 43.8168 80.6334C45.3871 81.3716 47.1367 82.3106 49.0646 83.4516C50.9923 84.5941 52.8942 85.9695 54.7727 87.5769C56.6517 89.1877 58.327 91.071 59.8007 93.2275C61.2762 95.3862 62.3366 97.827 62.9834 100.547C63.63 103.269 63.6451 106.299 63.0303 109.642L63.0283 109.641ZM46.5747 109.232C47.5653 109.731 48.6942 110.074 49.9613 110.266C51.2298 110.457 52.3943 110.331 53.4562 109.885C54.5187 109.443 55.2514 108.522 55.6538 107.126C56.1878 105.292 56.0155 103.537 55.1365 101.865C54.2582 100.194 52.9261 98.6095 51.1432 97.1131C49.3591 95.6179 47.4437 94.2379 45.3957 92.9743C42.7203 91.4167 40.1014 90.0995 37.5409 89.0235C34.9813 87.9494 33.1407 87.2194 32.0174 86.8361C33.0178 92.3427 34.835 97.017 37.4687 100.861C40.1021 104.706 43.1372 107.496 46.5754 109.233L46.5747 109.232Z" fill="#F6F5EA"/>
</svg>
