<svg width="20" height="20" viewBox="0 0 20 20" fill="none" xmlns="http://www.w3.org/2000/svg">
<path d="M14.167 2.78357C15.4239 3.50928 16.4694 4.55067 17.2002 5.80465C17.9309 7.05863 18.3215 8.48171 18.3332 9.93302C18.3449 11.3843 17.9774 12.8135 17.267 14.0792C16.5566 15.3448 15.528 16.4029 14.283 17.1488C13.038 17.8948 11.6198 18.3026 10.1687 18.332C8.71768 18.3613 7.28412 18.0112 6.00995 17.3163C4.73579 16.6213 3.66522 15.6057 2.90421 14.3698C2.14321 13.134 1.71817 11.7208 1.67116 10.2702L1.66699 10.0002L1.67116 9.73024C1.71783 8.29106 2.13662 6.88854 2.88669 5.6594C3.63677 4.43026 4.69254 3.41645 5.95107 2.7168C7.2096 2.01716 8.62795 1.65557 10.0678 1.66727C11.5077 1.67897 12.92 2.06357 14.167 2.78357ZM10.0003 5.00024C9.79622 5.00026 9.59921 5.0752 9.44668 5.21083C9.29415 5.34646 9.19671 5.53336 9.17283 5.73607L9.16699 5.83357V10.0002L9.17449 10.1094C9.19349 10.254 9.2501 10.391 9.33866 10.5069L9.41116 10.5902L11.9112 13.0902L11.9895 13.1586C12.1356 13.272 12.3154 13.3335 12.5003 13.3335C12.6853 13.3335 12.865 13.272 13.0112 13.1586L13.0895 13.0894L13.1587 13.0111C13.272 12.8649 13.3336 12.6852 13.3336 12.5002C13.3336 12.3153 13.272 12.1355 13.1587 11.9894L13.0895 11.9111L10.8337 9.6544V5.83357L10.8278 5.73607C10.8039 5.53336 10.7065 5.34646 10.554 5.21083C10.4014 5.0752 10.2044 5.00026 10.0003 5.00024Z" fill="#545454"/>
</svg>
