<svg width="418" height="277" viewBox="0 0 418 277" fill="none" xmlns="http://www.w3.org/2000/svg">
<path d="M52.9582 24.2435C51.7797 24.2921 50.6013 24.4338 49.4228 24.527C49.1879 22.5952 48.7627 20.2828 48.2443 17.691C47.6774 15.0992 46.831 12.5033 45.7456 9.91152C44.6158 7.36424 43.1498 5.14904 41.3112 3.35502C39.5212 1.51644 37.2088 0.431119 34.3781 0.103092C31.4056 -0.228985 28.6234 0.244834 26.0802 1.4719C23.5329 2.74351 21.2246 4.53753 19.1471 6.84587C17.0736 9.20281 15.1865 11.8918 13.5342 14.8643C11.8819 17.8814 10.4199 20.947 9.14832 24.1544C7.87671 27.3618 6.79138 30.3788 5.94094 33.2541C4.05377 39.5717 2.59182 46.1768 1.55509 53.0613C0.518364 59.9944 0 66.6886 0 73.1965H9.00658C9.00658 69.0455 9.29006 64.5665 9.85702 59.8041C10.4685 55.0416 11.2704 50.2791 12.3111 45.4681C13.3479 40.6125 14.5749 36.0363 16.0369 31.6059C17.4502 27.22 19.0539 23.308 20.7994 19.9103C22.5893 16.468 24.432 13.779 26.3637 11.8473C28.344 9.86697 30.3729 8.92337 32.4464 9.01652C33.9569 9.06511 35.1799 9.76977 36.2207 11.1386C37.2129 12.5074 38.0107 14.2042 38.6262 16.1845C39.2863 18.1649 39.7561 20.1452 40.0882 22.0809C40.3717 24.0612 40.6066 25.6163 40.7483 26.7948C39.8979 27.1269 39.0515 27.5035 38.2496 27.9247C37.4478 28.3499 36.6459 28.7751 35.8441 29.2449C31.8835 31.4601 28.4412 34.5743 25.5173 38.6281C22.5934 42.6373 20.4713 46.8814 19.2443 51.3118C18.491 54.2357 18.1589 57.2082 18.2521 60.1766C18.3938 63.1005 18.9608 65.8341 19.9975 68.3328C20.9897 70.7869 22.4962 72.7672 24.432 74.2737C26.3677 75.7802 28.7692 76.5375 31.5514 76.6306C34.4267 76.6792 36.8808 76.0637 38.9097 74.7921C40.89 73.5205 42.5869 71.8196 43.9071 69.7461C45.2759 67.6241 46.3126 65.3117 47.1144 62.813C47.8677 60.3589 48.4833 57.9088 48.8599 55.4547C49.2365 53.0005 49.52 50.8339 49.7103 48.8536C49.8521 46.9219 49.9452 45.46 50.0424 44.4678C50.3745 40.8352 50.4676 37.158 50.3259 33.5254C51.2209 33.3837 52.2131 33.2906 53.2012 33.1934C54.2379 33.1002 55.2746 33.0516 56.4086 33.1447L56.5017 24.1382C55.3232 24.1382 54.1448 24.1868 52.9663 24.2313L52.9582 24.2435ZM41.1695 43.2488C41.0277 46.4076 40.6997 49.6636 40.1813 53.0572C39.7116 55.6977 39.096 58.1518 38.3913 60.5087C37.6827 62.8211 36.7877 64.7042 35.6578 66.0244C34.5725 67.3446 33.2037 67.9116 31.5554 67.6281C30.3284 67.4378 29.3848 66.7777 28.7247 65.6478C28.0646 64.4693 27.6393 63.1491 27.4531 61.6872C27.2627 60.1766 27.2182 58.8119 27.3599 57.5848C27.8297 53.2476 29.2471 49.2384 31.604 45.464C34.0096 41.6897 37.2615 38.6726 41.4124 36.4574C41.4124 37.8262 41.3638 40.09 41.1776 43.2488H41.1695Z" fill="#545454"/>
<path d="M102.474 33.1084C104.503 29.8565 105.54 26.0821 105.54 21.7894C105.54 15.2815 103.843 10.2842 100.542 6.79329C97.2418 3.30243 92.2445 1.55701 85.5948 1.55701H61.9688V73.1884H76.2116V42.6293H80.1277C82.7195 42.6293 84.7484 43.2894 86.1172 44.6096C87.5306 45.9298 88.2393 48.1936 88.2393 51.401V73.1884H102.482V50.506C102.482 47.5335 101.729 45.0834 100.218 43.2448C98.6633 41.4062 96.444 40.4141 93.5242 40.2723V39.754C97.4848 38.5269 100.502 36.3117 102.482 33.1043L102.474 33.1084ZM89.5068 28.4876C87.9963 29.9496 86.1132 30.7028 83.8494 30.7028H76.2116V13.3984H83.8494C86.1132 13.3984 88.0003 14.0585 89.5068 15.3301C91.0174 16.6503 91.7706 18.821 91.7706 21.7894C91.7706 24.7579 91.0174 27.0257 89.5068 28.4836V28.4876Z" fill="#545454"/>
<path d="M108.557 1.56116V13.3013H124.873V73.1885H139.116V13.3013H155.339V1.56116H108.561H108.557Z" fill="#545454"/>
<path d="M197.967 61.4484V1.56116H183.68V73.1926H221.123V61.4525H197.971L197.967 61.4484Z" fill="#545454"/>
<path d="M265.731 6.08879C261.628 2.03502 256.299 0.00610352 249.649 0.00610352C243 0.00610352 237.387 2.03502 233.24 6.08879C229.044 10.098 226.967 15.8972 226.967 23.4418V51.312C226.967 58.8081 229.04 64.5627 233.24 68.6165C237.391 72.6257 242.858 74.6546 249.649 74.6546C253.565 74.6546 257.194 73.8042 260.543 72.1073C263.892 70.4105 266.626 67.8632 268.699 64.4696C270.773 61.0273 271.813 56.6415 271.813 51.312V23.4418C271.813 15.8972 269.785 10.098 265.731 6.08879ZM257.575 49.6638C257.575 51.9276 257.34 54.0496 256.866 55.9368C256.396 57.8685 255.639 59.4277 254.46 60.6507C253.326 61.8291 251.727 62.4407 249.649 62.4407C246.397 62.4407 244.178 61.2622 243 58.9053C241.821 56.4997 241.254 53.4341 241.254 49.6638V25.0496C241.254 22.7372 241.445 20.6151 241.914 18.6834C242.384 16.7517 243.186 15.148 244.368 13.9695C245.547 12.8397 247.199 12.2241 249.366 12.2241C251.532 12.2241 253.14 12.8356 254.319 13.9695C255.497 15.148 256.348 16.7517 256.817 18.6834C257.287 20.6151 257.571 22.7372 257.571 25.0496V49.6638H257.575Z" fill="#545454"/>
<path d="M319.491 42.2568C320.103 40.9851 320.621 39.8998 321.046 38.9077C321.516 37.9155 321.799 37.304 321.941 37.0205C323.354 33.8617 324.488 30.5126 325.29 27.0703C326.043 23.628 326.42 20.2789 326.376 17.0715C326.376 13.8196 325.857 10.9403 324.865 8.34846C323.921 5.80118 322.411 3.77228 320.386 2.26578C318.357 0.755236 315.717 0.0505778 312.465 0.0951247C308.832 0.188268 305.722 1.65022 303.175 4.52957C300.627 7.36033 298.931 11.1306 298.129 15.8485C297.375 19.9023 297.278 24.0087 297.797 28.1557C298.315 32.3066 299.307 36.2672 300.814 40.0375C302.276 43.7633 304.021 47.0638 306.001 49.846C305.483 50.7409 304.73 52.1097 303.738 53.8552C302.701 55.6006 301.567 57.3906 300.247 59.1846C298.927 60.9746 297.558 62.4365 296.051 63.619C294.541 64.7975 293.034 65.2713 291.572 64.9878C289.734 64.6558 288.32 63.1493 287.377 60.4117C286.385 57.6781 285.822 54.0941 285.631 49.7083C285.49 45.3224 285.68 40.4668 286.243 35.1374C286.761 29.8079 287.612 24.434 288.741 18.9142C289.827 13.3985 291.147 8.21076 292.751 3.25796L284.311 0.382664C282.238 6.79742 280.537 13.2567 279.217 19.8132C277.848 26.3697 277.001 32.6387 276.621 38.6282C276.43 41.3618 276.337 44.2411 276.386 47.3513C276.386 50.4655 276.621 53.5271 277.094 56.5482C277.564 59.5653 278.322 62.3474 279.358 64.8947C280.395 67.442 281.764 69.564 283.554 71.3095C285.299 73.0063 287.563 74.0916 290.297 74.4682C292.702 74.8449 294.966 74.5168 297.132 73.4801C299.255 72.4434 301.283 70.9814 303.167 69.1429C305.054 67.3043 306.799 65.2754 308.306 63.1047C309.816 60.8895 311.136 58.8606 312.266 56.8803C314.814 59.2373 317.596 61.0313 320.661 62.2543L324.294 54.2358C322.783 53.5757 321.37 52.8225 320.098 51.8789C318.778 50.9839 317.6 49.9472 316.466 48.7647C316.798 48.056 317.219 47.1124 317.786 45.9339C318.353 44.7554 318.916 43.5284 319.483 42.2568H319.491ZM316.097 25.8918C315.437 28.7672 314.635 31.5048 313.692 34.052C312.748 36.6439 311.76 38.7214 310.719 40.3696C309.776 38.8145 308.974 36.737 308.221 34.0966C307.467 31.5048 306.949 28.7226 306.666 25.7015C306.382 22.729 306.431 19.9468 306.9 17.4036C307.042 16.6018 307.326 15.5651 307.751 14.1963C308.176 12.8274 308.788 11.6044 309.638 10.5191C310.488 9.43379 311.57 8.91542 312.939 9.00856C314.591 9.05716 315.721 9.90355 316.381 11.5558C317.041 13.1595 317.324 15.233 317.231 17.7802C317.138 20.3275 316.761 23.0611 316.097 25.8918Z" fill="#545454"/>
<path d="M368.157 13.3013V1.56116H330.762V73.1926H368.157V61.4525H345.005V41.8356H364.856V30.0955H345.005V13.3094H368.157V13.3013Z" fill="#545454"/>
<path d="M414.984 33.1084C416.964 29.8565 418.001 26.0821 418.001 21.7894C418.001 15.2815 416.348 10.2842 413.003 6.79329C409.703 3.30243 404.705 1.55701 398.056 1.55701H374.43V73.1884H388.673V42.6293H392.589C395.18 42.6293 397.209 43.2894 398.623 44.6096C398.999 44.9416 399.283 45.3628 399.566 45.8812C400.32 47.2014 400.696 49.04 400.696 51.3969V73.1844H414.984V50.5019C414.984 47.5294 414.182 45.0794 412.671 43.2408C411.302 41.5885 409.371 40.6489 406.917 40.41C406.633 40.3169 406.305 40.2683 405.973 40.2683V39.7499C409.934 38.5228 412.951 36.3076 414.98 33.1003L414.984 33.1084ZM396.31 30.7028H388.673V13.3984H396.31C398.574 13.3984 400.461 14.0585 401.968 15.3301C403.478 16.6503 404.232 18.821 404.232 21.7894C404.232 24.7579 403.478 27.0257 401.968 28.4836C400.457 29.9415 398.574 30.6988 396.31 30.6988V30.7028Z" fill="#545454"/>
<path d="M52.9582 124.243C51.7797 124.292 50.6013 124.434 49.4228 124.527C49.1879 122.595 48.7627 120.283 48.2443 117.691C47.6774 115.099 46.831 112.503 45.7456 109.912C44.6158 107.364 43.1498 105.149 41.3112 103.355C39.5212 101.516 37.2088 100.431 34.3781 100.103C31.4056 99.771 28.6234 100.245 26.0802 101.472C23.5329 102.744 21.2246 104.538 19.1471 106.846C17.0736 109.203 15.1865 111.892 13.5342 114.864C11.8819 117.881 10.4199 120.947 9.14832 124.154C7.87671 127.362 6.79138 130.379 5.94094 133.254C4.05377 139.572 2.59182 146.177 1.55509 153.061C0.518364 159.994 0 166.689 0 173.196H9.00658C9.00658 169.046 9.29006 164.567 9.85702 159.804C10.4685 155.042 11.2704 150.279 12.3111 145.468C13.3479 140.612 14.5749 136.036 16.0369 131.606C17.4502 127.22 19.0539 123.308 20.7994 119.91C22.5893 116.468 24.432 113.779 26.3637 111.847C28.344 109.867 30.3729 108.923 32.4464 109.017C33.9569 109.065 35.1799 109.77 36.2207 111.139C37.2129 112.507 38.0107 114.204 38.6262 116.185C39.2863 118.165 39.7561 120.145 40.0882 122.081C40.3717 124.061 40.6066 125.616 40.7483 126.795C39.8979 127.127 39.0515 127.504 38.2496 127.925C37.4478 128.35 36.6459 128.775 35.8441 129.245C31.8835 131.46 28.4412 134.574 25.5173 138.628C22.5934 142.637 20.4713 146.881 19.2443 151.312C18.491 154.236 18.1589 157.208 18.2521 160.177C18.3938 163.101 18.9608 165.834 19.9975 168.333C20.9897 170.787 22.4962 172.767 24.432 174.274C26.3677 175.78 28.7692 176.538 31.5514 176.631C34.4267 176.679 36.8808 176.064 38.9097 174.792C40.89 173.52 42.5869 171.82 43.9071 169.746C45.2759 167.624 46.3126 165.312 47.1144 162.813C47.8677 160.359 48.4833 157.909 48.8599 155.455C49.2365 153.001 49.52 150.834 49.7103 148.854C49.8521 146.922 49.9452 145.46 50.0424 144.468C50.3745 140.835 50.4676 137.158 50.3259 133.525C51.2209 133.384 52.2131 133.291 53.2012 133.193C54.2379 133.1 55.2746 133.052 56.4086 133.145L56.5017 124.138C55.3232 124.138 54.1448 124.187 52.9663 124.231L52.9582 124.243ZM41.1695 143.249C41.0277 146.408 40.6997 149.664 40.1813 153.057C39.7116 155.698 39.096 158.152 38.3913 160.509C37.6827 162.821 36.7877 164.704 35.6578 166.024C34.5725 167.345 33.2037 167.912 31.5554 167.628C30.3284 167.438 29.3848 166.778 28.7247 165.648C28.0646 164.469 27.6393 163.149 27.4531 161.687C27.2627 160.177 27.2182 158.812 27.3599 157.585C27.8297 153.248 29.2471 149.238 31.604 145.464C34.0096 141.69 37.2615 138.673 41.4124 136.457C41.4124 137.826 41.3638 140.09 41.1776 143.249H41.1695Z" fill="#545454"/>
<path d="M102.474 133.108C104.503 129.856 105.54 126.082 105.54 121.789C105.54 115.282 103.843 110.284 100.542 106.793C97.2418 103.302 92.2445 101.557 85.5948 101.557H61.9688V173.188H76.2116V142.629H80.1277C82.7195 142.629 84.7484 143.289 86.1172 144.61C87.5306 145.93 88.2393 148.194 88.2393 151.401V173.188H102.482V150.506C102.482 147.533 101.729 145.083 100.218 143.245C98.6633 141.406 96.444 140.414 93.5242 140.272V139.754C97.4848 138.527 100.502 136.312 102.482 133.104L102.474 133.108ZM89.5068 128.488C87.9963 129.95 86.1132 130.703 83.8494 130.703H76.2116V113.398H83.8494C86.1132 113.398 88.0003 114.058 89.5068 115.33C91.0174 116.65 91.7706 118.821 91.7706 121.789C91.7706 124.758 91.0174 127.026 89.5068 128.484V128.488Z" fill="#545454"/>
<path d="M111 102V113.74H127.316V173.627H141.559V113.74H157.782V102H111.004H111Z" fill="#545454"/>
<path d="M197.967 161.448V101.561H183.68V173.193H221.123V161.452H197.971L197.967 161.448Z" fill="#545454"/>
<path d="M265.731 106.089C261.628 102.035 256.299 100.006 249.649 100.006C243 100.006 237.387 102.035 233.24 106.089C229.044 110.098 226.967 115.897 226.967 123.442V151.312C226.967 158.808 229.04 164.563 233.24 168.616C237.391 172.626 242.858 174.655 249.649 174.655C253.565 174.655 257.194 173.804 260.543 172.107C263.892 170.41 266.626 167.863 268.699 164.47C270.773 161.027 271.813 156.641 271.813 151.312V123.442C271.813 115.897 269.785 110.098 265.731 106.089ZM257.575 149.664C257.575 151.928 257.34 154.05 256.866 155.937C256.396 157.869 255.639 159.428 254.46 160.651C253.326 161.829 251.727 162.441 249.649 162.441C246.397 162.441 244.178 161.262 243 158.905C241.821 156.5 241.254 153.434 241.254 149.664V125.05C241.254 122.737 241.445 120.615 241.914 118.683C242.384 116.752 243.186 115.148 244.368 113.97C245.547 112.84 247.199 112.224 249.366 112.224C251.532 112.224 253.14 112.836 254.319 113.97C255.497 115.148 256.348 116.752 256.817 118.683C257.287 120.615 257.571 122.737 257.571 125.05V149.664H257.575Z" fill="#545454"/>
<path d="M319.491 142.257C320.103 140.985 320.621 139.9 321.046 138.908C321.516 137.915 321.799 137.304 321.941 137.02C323.354 133.862 324.488 130.513 325.29 127.07C326.043 123.628 326.42 120.279 326.376 117.072C326.376 113.82 325.857 110.94 324.865 108.348C323.921 105.801 322.411 103.772 320.386 102.266C318.357 100.755 315.717 100.051 312.465 100.095C308.832 100.188 305.722 101.65 303.175 104.53C300.627 107.36 298.931 111.131 298.129 115.849C297.375 119.902 297.278 124.009 297.797 128.156C298.315 132.307 299.307 136.267 300.814 140.038C302.276 143.763 304.021 147.064 306.001 149.846C305.483 150.741 304.73 152.11 303.738 153.855C302.701 155.601 301.567 157.391 300.247 159.185C298.927 160.975 297.558 162.437 296.051 163.619C294.541 164.798 293.034 165.271 291.572 164.988C289.734 164.656 288.32 163.149 287.377 160.412C286.385 157.678 285.822 154.094 285.631 149.708C285.49 145.322 285.68 140.467 286.243 135.137C286.761 129.808 287.612 124.434 288.741 118.914C289.827 113.398 291.147 108.211 292.751 103.258L284.311 100.383C282.238 106.797 280.537 113.257 279.217 119.813C277.848 126.37 277.001 132.639 276.621 138.628C276.43 141.362 276.337 144.241 276.386 147.351C276.386 150.466 276.621 153.527 277.094 156.548C277.564 159.565 278.322 162.347 279.358 164.895C280.395 167.442 281.764 169.564 283.554 171.309C285.299 173.006 287.563 174.092 290.297 174.468C292.702 174.845 294.966 174.517 297.132 173.48C299.255 172.443 301.283 170.981 303.167 169.143C305.054 167.304 306.799 165.275 308.306 163.105C309.816 160.89 311.136 158.861 312.266 156.88C314.814 159.237 317.596 161.031 320.661 162.254L324.294 154.236C322.783 153.576 321.37 152.822 320.098 151.879C318.778 150.984 317.6 149.947 316.466 148.765C316.798 148.056 317.219 147.112 317.786 145.934C318.353 144.755 318.916 143.528 319.483 142.257H319.491ZM316.097 125.892C315.437 128.767 314.635 131.505 313.692 134.052C312.748 136.644 311.76 138.721 310.719 140.37C309.776 138.815 308.974 136.737 308.221 134.097C307.467 131.505 306.949 128.723 306.666 125.702C306.382 122.729 306.431 119.947 306.9 117.404C307.042 116.602 307.326 115.565 307.751 114.196C308.176 112.827 308.788 111.604 309.638 110.519C310.488 109.434 311.57 108.915 312.939 109.009C314.591 109.057 315.721 109.904 316.381 111.556C317.041 113.16 317.324 115.233 317.231 117.78C317.138 120.328 316.761 123.061 316.097 125.892Z" fill="#545454"/>
<path d="M368.157 113.301V101.561H330.762V173.193H368.157V161.452H345.005V141.836H364.856V130.095H345.005V113.309H368.157V113.301Z" fill="#545454"/>
<path d="M414.984 133.108C416.964 129.856 418.001 126.082 418.001 121.789C418.001 115.282 416.348 110.284 413.003 106.793C409.703 103.302 404.705 101.557 398.056 101.557H374.43V173.188H388.673V142.629H392.589C395.18 142.629 397.209 143.289 398.623 144.61C398.999 144.942 399.283 145.363 399.566 145.881C400.32 147.201 400.696 149.04 400.696 151.397V173.184H414.984V150.502C414.984 147.529 414.182 145.079 412.671 143.241C411.302 141.589 409.371 140.649 406.917 140.41C406.633 140.317 406.305 140.268 405.973 140.268V139.75C409.934 138.523 412.951 136.308 414.98 133.1L414.984 133.108ZM396.31 130.703H388.673V113.398H396.31C398.574 113.398 400.461 114.058 401.968 115.33C403.478 116.65 404.232 118.821 404.232 121.789C404.232 124.758 403.478 127.026 401.968 128.484C400.457 129.942 398.574 130.699 396.31 130.699V130.703Z" fill="#545454"/>
<path d="M52.9582 224.243C51.7797 224.292 50.6013 224.434 49.4228 224.527C49.1879 222.595 48.7627 220.283 48.2443 217.691C47.6774 215.099 46.831 212.503 45.7456 209.912C44.6158 207.364 43.1498 205.149 41.3112 203.355C39.5212 201.516 37.2088 200.431 34.3781 200.103C31.4056 199.771 28.6234 200.245 26.0802 201.472C23.5329 202.744 21.2246 204.538 19.1471 206.846C17.0736 209.203 15.1865 211.892 13.5342 214.864C11.8819 217.881 10.4199 220.947 9.14832 224.154C7.87671 227.362 6.79138 230.379 5.94094 233.254C4.05377 239.572 2.59182 246.177 1.55509 253.061C0.518364 259.994 0 266.689 0 273.196H9.00658C9.00658 269.046 9.29006 264.567 9.85702 259.804C10.4685 255.042 11.2704 250.279 12.3111 245.468C13.3479 240.612 14.5749 236.036 16.0369 231.606C17.4502 227.22 19.0539 223.308 20.7994 219.91C22.5893 216.468 24.432 213.779 26.3637 211.847C28.344 209.867 30.3729 208.923 32.4464 209.017C33.9569 209.065 35.1799 209.77 36.2207 211.139C37.2129 212.507 38.0107 214.204 38.6262 216.185C39.2863 218.165 39.7561 220.145 40.0882 222.081C40.3717 224.061 40.6066 225.616 40.7483 226.795C39.8979 227.127 39.0515 227.504 38.2496 227.925C37.4478 228.35 36.6459 228.775 35.8441 229.245C31.8835 231.46 28.4412 234.574 25.5173 238.628C22.5934 242.637 20.4713 246.881 19.2443 251.312C18.491 254.236 18.1589 257.208 18.2521 260.177C18.3938 263.101 18.9608 265.834 19.9975 268.333C20.9897 270.787 22.4962 272.767 24.432 274.274C26.3677 275.78 28.7692 276.538 31.5514 276.631C34.4267 276.679 36.8808 276.064 38.9097 274.792C40.89 273.52 42.5869 271.82 43.9071 269.746C45.2759 267.624 46.3126 265.312 47.1144 262.813C47.8677 260.359 48.4833 257.909 48.8599 255.455C49.2365 253.001 49.52 250.834 49.7103 248.854C49.8521 246.922 49.9452 245.46 50.0424 244.468C50.3745 240.835 50.4676 237.158 50.3259 233.525C51.2209 233.384 52.2131 233.291 53.2012 233.193C54.2379 233.1 55.2746 233.052 56.4086 233.145L56.5017 224.138C55.3232 224.138 54.1448 224.187 52.9663 224.231L52.9582 224.243ZM41.1695 243.249C41.0277 246.408 40.6997 249.664 40.1813 253.057C39.7116 255.698 39.096 258.152 38.3913 260.509C37.6827 262.821 36.7877 264.704 35.6578 266.024C34.5725 267.345 33.2037 267.912 31.5554 267.628C30.3284 267.438 29.3848 266.778 28.7247 265.648C28.0646 264.469 27.6393 263.149 27.4531 261.687C27.2627 260.177 27.2182 258.812 27.3599 257.585C27.8297 253.248 29.2471 249.238 31.604 245.464C34.0096 241.69 37.2615 238.673 41.4124 236.457C41.4124 237.826 41.3638 240.09 41.1776 243.249H41.1695Z" fill="#545454"/>
<path d="M102.474 233.108C104.503 229.856 105.54 226.082 105.54 221.789C105.54 215.282 103.843 210.284 100.542 206.793C97.2418 203.302 92.2445 201.557 85.5948 201.557H61.9688V273.188H76.2116V242.629H80.1277C82.7195 242.629 84.7484 243.289 86.1172 244.61C87.5306 245.93 88.2393 248.194 88.2393 251.401V273.188H102.482V250.506C102.482 247.533 101.729 245.083 100.218 243.245C98.6633 241.406 96.444 240.414 93.5242 240.272V239.754C97.4848 238.527 100.502 236.312 102.482 233.104L102.474 233.108ZM89.5068 228.488C87.9963 229.95 86.1132 230.703 83.8494 230.703H76.2116V213.398H83.8494C86.1132 213.398 88.0003 214.058 89.5068 215.33C91.0174 216.65 91.7706 218.821 91.7706 221.789C91.7706 224.758 91.0174 227.026 89.5068 228.484V228.488Z" fill="#545454"/>
<path d="M108.557 201.561V213.301H124.873V273.189H139.116V213.301H155.339V201.561H108.561H108.557Z" fill="#545454"/>
<path d="M197.967 261.448V201.561H183.68V273.193H221.123V261.452H197.971L197.967 261.448Z" fill="#545454"/>
<path d="M265.731 206.089C261.628 202.035 256.299 200.006 249.649 200.006C243 200.006 237.387 202.035 233.24 206.089C229.044 210.098 226.967 215.897 226.967 223.442V251.312C226.967 258.808 229.04 264.563 233.24 268.616C237.391 272.626 242.858 274.655 249.649 274.655C253.565 274.655 257.194 273.804 260.543 272.107C263.892 270.41 266.626 267.863 268.699 264.47C270.773 261.027 271.813 256.641 271.813 251.312V223.442C271.813 215.897 269.785 210.098 265.731 206.089ZM257.575 249.664C257.575 251.928 257.34 254.05 256.866 255.937C256.396 257.869 255.639 259.428 254.46 260.651C253.326 261.829 251.727 262.441 249.649 262.441C246.397 262.441 244.178 261.262 243 258.905C241.821 256.5 241.254 253.434 241.254 249.664V225.05C241.254 222.737 241.445 220.615 241.914 218.683C242.384 216.752 243.186 215.148 244.368 213.97C245.547 212.84 247.199 212.224 249.366 212.224C251.532 212.224 253.14 212.836 254.319 213.97C255.497 215.148 256.348 216.752 256.817 218.683C257.287 220.615 257.571 222.737 257.571 225.05V249.664H257.575Z" fill="#545454"/>
<path d="M319.491 242.257C320.103 240.985 320.621 239.9 321.046 238.908C321.516 237.915 321.799 237.304 321.941 237.02C323.354 233.862 324.488 230.513 325.29 227.07C326.043 223.628 326.42 220.279 326.376 217.072C326.376 213.82 325.857 210.94 324.865 208.348C323.921 205.801 322.411 203.772 320.386 202.266C318.357 200.755 315.717 200.051 312.465 200.095C308.832 200.188 305.722 201.65 303.175 204.53C300.627 207.36 298.931 211.131 298.129 215.849C297.375 219.902 297.278 224.009 297.797 228.156C298.315 232.307 299.307 236.267 300.814 240.038C302.276 243.763 304.021 247.064 306.001 249.846C305.483 250.741 304.73 252.11 303.738 253.855C302.701 255.601 301.567 257.391 300.247 259.185C298.927 260.975 297.558 262.437 296.051 263.619C294.541 264.798 293.034 265.271 291.572 264.988C289.734 264.656 288.32 263.149 287.377 260.412C286.385 257.678 285.822 254.094 285.631 249.708C285.49 245.322 285.68 240.467 286.243 235.137C286.761 229.808 287.612 224.434 288.741 218.914C289.827 213.398 291.147 208.211 292.751 203.258L284.311 200.383C282.238 206.797 280.537 213.257 279.217 219.813C277.848 226.37 277.001 232.639 276.621 238.628C276.43 241.362 276.337 244.241 276.386 247.351C276.386 250.466 276.621 253.527 277.094 256.548C277.564 259.565 278.322 262.347 279.358 264.895C280.395 267.442 281.764 269.564 283.554 271.309C285.299 273.006 287.563 274.092 290.297 274.468C292.702 274.845 294.966 274.517 297.132 273.48C299.255 272.443 301.283 270.981 303.167 269.143C305.054 267.304 306.799 265.275 308.306 263.105C309.816 260.89 311.136 258.861 312.266 256.88C314.814 259.237 317.596 261.031 320.661 262.254L324.294 254.236C322.783 253.576 321.37 252.822 320.098 251.879C318.778 250.984 317.6 249.947 316.466 248.765C316.798 248.056 317.219 247.112 317.786 245.934C318.353 244.755 318.916 243.528 319.483 242.257H319.491ZM316.097 225.892C315.437 228.767 314.635 231.505 313.692 234.052C312.748 236.644 311.76 238.721 310.719 240.37C309.776 238.815 308.974 236.737 308.221 234.097C307.467 231.505 306.949 228.723 306.666 225.702C306.382 222.729 306.431 219.947 306.9 217.404C307.042 216.602 307.326 215.565 307.751 214.196C308.176 212.827 308.788 211.604 309.638 210.519C310.488 209.434 311.57 208.915 312.939 209.009C314.591 209.057 315.721 209.904 316.381 211.556C317.041 213.16 317.324 215.233 317.231 217.78C317.138 220.328 316.761 223.061 316.097 225.892Z" fill="#545454"/>
<path d="M368.157 213.301V201.561H330.762V273.193H368.157V261.452H345.005V241.836H364.856V230.095H345.005V213.309H368.157V213.301Z" fill="#545454"/>
<path d="M414.984 233.108C416.964 229.856 418.001 226.082 418.001 221.789C418.001 215.282 416.348 210.284 413.003 206.793C409.703 203.302 404.705 201.557 398.056 201.557H374.43V273.188H388.673V242.629H392.589C395.18 242.629 397.209 243.289 398.623 244.61C398.999 244.942 399.283 245.363 399.566 245.881C400.32 247.201 400.696 249.04 400.696 251.397V273.184H414.984V250.502C414.984 247.529 414.182 245.079 412.671 243.241C411.302 241.589 409.371 240.649 406.917 240.41C406.633 240.317 406.305 240.268 405.973 240.268V239.75C409.934 238.523 412.951 236.308 414.98 233.1L414.984 233.108ZM396.31 230.703H388.673V213.398H396.31C398.574 213.398 400.461 214.058 401.968 215.33C403.478 216.65 404.232 218.821 404.232 221.789C404.232 224.758 403.478 227.026 401.968 228.484C400.457 229.942 398.574 230.699 396.31 230.699V230.703Z" fill="#545454"/>
</svg>
