<svg width="140" height="154" viewBox="0 0 140 154" fill="none" xmlns="http://www.w3.org/2000/svg">
<path d="M23.8513 8.42038C23.4764 8.43584 23.1014 8.48094 22.7264 8.51058C22.6517 7.89594 22.5164 7.16018 22.3515 6.33551C22.1711 5.51084 21.9018 4.68488 21.5564 3.86021C21.1969 3.04971 20.7305 2.34488 20.1455 1.77405C19.5759 1.18905 18.8402 0.843717 17.9395 0.739345C16.9937 0.633684 16.1084 0.784445 15.2992 1.17487C14.4887 1.57948 13.7543 2.1503 13.0932 2.88478C12.4335 3.63471 11.833 4.49031 11.3073 5.4361C10.7816 6.39607 10.3164 7.37151 9.91181 8.39204C9.5072 9.41257 9.16187 10.3725 8.89128 11.2874C8.29081 13.2975 7.82565 15.3992 7.49578 17.5897C7.16591 19.7957 7.00098 21.9257 7.00098 23.9964H9.86671C9.86671 22.6756 9.95691 21.2505 10.1373 19.7351C10.3319 18.2198 10.587 16.7045 10.9182 15.1737C11.248 13.6287 11.6385 12.1726 12.1036 10.763C12.5533 9.36746 13.0636 8.12272 13.619 7.04163C14.1885 5.94637 14.7748 5.09077 15.3894 4.47614C16.0195 3.84604 16.6651 3.5458 17.3248 3.57544C17.8055 3.5909 18.1946 3.81511 18.5258 4.25064C18.8414 4.68617 19.0953 5.22607 19.2912 5.85617C19.5012 6.48627 19.6507 7.11637 19.7563 7.7323C19.8465 8.3624 19.9213 8.8572 19.9664 9.23216C19.6958 9.33782 19.4264 9.45766 19.1713 9.59167C18.9162 9.72697 18.6611 9.86227 18.4059 10.0117C17.1457 10.7166 16.0505 11.7075 15.1201 12.9973C14.1898 14.273 13.5146 15.6234 13.1242 17.033C12.8845 17.9634 12.7788 18.9092 12.8085 19.8537C12.8536 20.784 13.034 21.6538 13.3638 22.4488C13.6795 23.2297 14.1589 23.8598 14.7748 24.3391C15.3907 24.8184 16.1548 25.0594 17.0401 25.089C17.9549 25.1045 18.7358 24.9086 19.3813 24.504C20.0114 24.0994 20.5514 23.5582 20.9714 22.8985C21.4069 22.2233 21.7368 21.4875 21.9919 20.6925C22.2316 19.9117 22.4275 19.1321 22.5473 18.3512C22.6671 17.5704 22.7573 16.881 22.8179 16.2509C22.863 15.6363 22.8926 15.1711 22.9236 14.8554C23.0292 13.6996 23.0589 12.5296 23.0138 11.3737C23.2985 11.3286 23.6142 11.299 23.9286 11.2681C24.2585 11.2384 24.5884 11.223 24.9492 11.2526L24.9788 8.38688C24.6038 8.38688 24.2289 8.40234 23.8539 8.41652L23.8513 8.42038ZM20.1004 14.4675C20.0553 15.4726 19.9509 16.5086 19.786 17.5884C19.6365 18.4285 19.4406 19.2094 19.2164 19.9593C18.9909 20.6951 18.7062 21.2943 18.3466 21.7143C18.0013 22.1344 17.5658 22.3148 17.0413 22.2246C16.6509 22.164 16.3507 21.954 16.1406 21.5945C15.9306 21.2195 15.7953 20.7995 15.736 20.3343C15.6755 19.8537 15.6613 19.4194 15.7064 19.029C15.8559 17.649 16.3069 16.3733 17.0568 15.1724C17.8222 13.9714 18.8569 13.0115 20.1777 12.3066C20.1777 12.7422 20.1622 13.4625 20.1029 14.4675H20.1004Z" fill="#545454"/>
<path d="M39.6068 11.2412C40.2524 10.2065 40.5822 9.0056 40.5822 7.63973C40.5822 5.56904 40.0423 3.97897 38.9922 2.86824C37.942 1.75751 36.3519 1.20215 34.2361 1.20215H26.7188V23.994H31.2506V14.2706H32.4966C33.3213 14.2706 33.9668 14.4806 34.4024 14.9007C34.8521 15.3208 35.0776 16.0411 35.0776 17.0616V23.994H39.6094V16.7768C39.6094 15.831 39.3697 15.0515 38.8891 14.4665C38.3943 13.8815 37.6882 13.5658 36.7591 13.5207V13.3557C38.0193 12.9653 38.9793 12.2605 39.6094 11.2399L39.6068 11.2412ZM35.4809 9.77099C35.0002 10.2362 34.4011 10.4758 33.6808 10.4758H31.2506V4.96986H33.6808C34.4011 4.96986 35.0015 5.1799 35.4809 5.5845C35.9615 6.00457 36.2012 6.69523 36.2012 7.63973C36.2012 8.58424 35.9615 9.30583 35.4809 9.76971V9.77099Z" fill="#545454"/>
<path d="M41.542 1.20361V4.93911H46.7336V23.9942H51.2654V4.93911H56.4273V1.20361H41.5433H41.542Z" fill="#545454"/>
<path d="M69.9903 20.2587V1.20361H65.4443V23.9955H77.3583V20.26H69.9916L69.9903 20.2587Z" fill="#545454"/>
<path d="M91.5508 2.64341C90.2455 1.35357 88.5498 0.708008 86.434 0.708008C84.3182 0.708008 82.5322 1.35357 81.2128 2.64341C79.8778 3.91907 79.2168 5.76428 79.2168 8.16484V17.0326C79.2168 19.4177 79.8765 21.2488 81.2128 22.5386C82.5335 23.8143 84.2731 24.4598 86.434 24.4598C87.68 24.4598 88.8345 24.1892 89.9002 23.6493C90.9658 23.1094 91.8356 22.2989 92.4953 21.2191C93.155 20.1239 93.4862 18.7284 93.4862 17.0326V8.16484C93.4862 5.76428 92.8406 3.91907 91.5508 2.64341ZM88.9556 16.5082C88.9556 17.2285 88.8809 17.9037 88.7302 18.5042C88.5807 19.1188 88.3397 19.6149 87.9648 20.004C87.604 20.379 87.095 20.5736 86.434 20.5736C85.3993 20.5736 84.6931 20.1986 84.3182 19.4487C83.9432 18.6833 83.7628 17.7078 83.7628 16.5082V8.67639C83.7628 7.94063 83.8234 7.26543 83.9728 6.6508C84.1223 6.03616 84.3774 5.52589 84.7537 5.15092C85.1287 4.79142 85.6544 4.59556 86.3438 4.59556C87.0331 4.59556 87.5447 4.79013 87.9197 5.15092C88.2946 5.52589 88.5652 6.03616 88.7147 6.6508C88.8642 7.26543 88.9544 7.94063 88.9544 8.67639V16.5082H88.9556Z" fill="#545454"/>
<path d="M108.444 13.7922C108.639 13.3876 108.803 13.0422 108.939 12.7265C109.088 12.4109 109.178 12.2163 109.224 12.1261C109.673 11.121 110.034 10.0554 110.289 8.96012C110.529 7.86485 110.649 6.79922 110.635 5.77869C110.635 4.74398 110.47 3.82783 110.154 3.00316C109.854 2.19266 109.373 1.5471 108.729 1.06776C108.083 0.587132 107.243 0.362922 106.208 0.377096C105.053 0.406733 104.063 0.871901 103.252 1.78806C102.442 2.68875 101.902 3.88839 101.647 5.38955C101.407 6.67939 101.376 7.98598 101.541 9.30545C101.706 10.6262 102.022 11.8864 102.501 13.0861C102.966 14.2715 103.522 15.3217 104.152 16.2069C103.987 16.4917 103.747 16.9272 103.432 17.4826C103.102 18.0379 102.741 18.6075 102.321 19.1783C101.901 19.7478 101.465 20.213 100.986 20.5893C100.505 20.9642 100.026 21.115 99.5607 21.0248C98.9757 20.9191 98.526 20.4398 98.2258 19.5687C97.9101 18.699 97.731 17.5586 97.6704 16.1631C97.6253 14.7676 97.6859 13.2226 97.865 11.5269C98.0299 9.83118 98.3005 8.12128 98.66 6.36498C99.0054 4.60998 99.4254 2.95935 99.9357 1.38345L97.2503 0.468586C96.5906 2.50965 96.0494 4.56488 95.6294 6.65104C95.1938 8.7372 94.9245 10.7319 94.8034 12.6376C94.7428 13.5074 94.7132 14.4236 94.7287 15.4132C94.7287 16.4041 94.8034 17.3782 94.9542 18.3395C95.1036 19.2994 95.3446 20.1847 95.6744 20.9952C96.0043 21.8057 96.4399 22.4809 97.0094 23.0362C97.5648 23.5761 98.2851 23.9215 99.1548 24.0413C99.9202 24.1611 100.641 24.0568 101.33 23.7269C102.005 23.397 102.651 22.9318 103.25 22.3468C103.85 21.7618 104.406 21.1163 104.885 20.4256C105.366 19.7208 105.786 19.0752 106.145 18.4451C106.956 19.1951 107.841 19.7659 108.816 20.155L109.972 17.6037C109.492 17.3937 109.042 17.154 108.637 16.8538C108.217 16.569 107.842 16.2391 107.481 15.8629C107.587 15.6374 107.721 15.3371 107.901 14.9622C108.082 14.5872 108.261 14.1968 108.441 13.7922H108.444ZM107.364 8.58515C107.154 9.50002 106.899 10.3711 106.599 11.1816C106.299 12.0063 105.984 12.6673 105.653 13.1917C105.353 12.6969 105.098 12.0359 104.858 11.1958C104.618 10.3711 104.453 9.48585 104.363 8.52459C104.273 7.5788 104.288 6.69356 104.438 5.88435C104.483 5.62922 104.573 5.29935 104.708 4.86382C104.844 4.42829 105.038 4.03915 105.309 3.69382C105.58 3.34849 105.924 3.18356 106.359 3.21319C106.885 3.22866 107.244 3.49796 107.454 4.02369C107.664 4.53396 107.755 5.19369 107.725 6.00419C107.695 6.81468 107.575 7.68446 107.364 8.58515Z" fill="#545454"/>
<path d="M124.142 4.93911V1.20361H112.243V23.9955H124.142V20.26H116.775V14.0182H123.091V10.2827H116.775V4.94169H124.142V4.93911Z" fill="#545454"/>
<path d="M139.041 11.2412C139.671 10.2065 140.001 9.0056 140.001 7.63973C140.001 5.56904 139.475 3.97897 138.411 2.86824C137.361 1.75751 135.771 1.20215 133.655 1.20215H126.138V23.994H130.67V14.2706H131.916C132.74 14.2706 133.386 14.4806 133.835 14.9007C133.955 15.0064 134.046 15.1404 134.136 15.3053C134.375 15.7254 134.495 16.3104 134.495 17.0603V23.9927H139.041V16.7755C139.041 15.8298 138.786 15.0502 138.305 14.4652C137.87 13.9395 137.255 13.6405 136.474 13.5645C136.384 13.5348 136.28 13.5194 136.174 13.5194V13.3544C137.434 12.964 138.394 12.2592 139.04 11.2386L139.041 11.2412ZM133.1 10.4758H130.67V4.96986H133.1C133.82 4.96986 134.42 5.1799 134.9 5.5845C135.38 6.00457 135.62 6.69523 135.62 7.63973C135.62 8.58424 135.38 9.30583 134.9 9.76971C134.419 10.2336 133.82 10.4745 133.1 10.4745V10.4758Z" fill="#545454"/>
<path d="M23.8513 40.0439C23.4764 40.0594 23.1014 40.1045 22.7264 40.1341C22.6517 39.5195 22.5164 38.7837 22.3515 37.959C22.1711 37.1344 21.9018 36.3084 21.5564 35.4837C21.1969 34.6732 20.7305 33.9684 20.1455 33.3976C19.5759 32.8126 18.8402 32.4673 17.9395 32.3629C16.9937 32.2572 16.1084 32.408 15.2992 32.7984C14.4887 33.203 13.7543 33.7738 13.0932 34.5083C12.4335 35.2582 11.833 36.1138 11.3073 37.0596C10.7816 38.0196 10.3164 38.995 9.91181 40.0156C9.5072 41.0361 9.16187 41.9961 8.89128 42.9109C8.29081 44.9211 7.82565 47.0227 7.49578 49.2132C7.16591 51.4192 7.00098 53.5492 7.00098 55.6199H9.86671C9.86671 54.2991 9.95691 52.874 10.1373 51.3587C10.3319 49.8433 10.587 48.328 10.9182 46.7972C11.248 45.2522 11.6385 43.7962 12.1036 42.3865C12.5533 40.991 13.0636 39.7463 13.619 38.6652C14.1885 37.5699 14.7748 36.7143 15.3894 36.0997C16.0195 35.4696 16.6651 35.1693 17.3248 35.199C17.8055 35.2144 18.1946 35.4386 18.5258 35.8742C18.8414 36.3097 19.0953 36.8496 19.2912 37.4797C19.5012 38.1098 19.6507 38.7399 19.7563 39.3558C19.8465 39.9859 19.9213 40.4807 19.9664 40.8557C19.6958 40.9614 19.4264 41.0812 19.1713 41.2152C18.9162 41.3505 18.6611 41.4858 18.4059 41.6353C17.1457 42.3401 16.0505 43.331 15.1201 44.6208C14.1898 45.8965 13.5146 47.2469 13.1242 48.6566C12.8845 49.5869 12.7788 50.5327 12.8085 51.4772C12.8536 52.4075 13.034 53.2773 13.3638 54.0723C13.6795 54.8532 14.1589 55.4833 14.7748 55.9626C15.3907 56.442 16.1548 56.6829 17.0401 56.7126C17.9549 56.728 18.7358 56.5322 19.3813 56.1276C20.0114 55.723 20.5514 55.1818 20.9714 54.522C21.4069 53.8468 21.7368 53.1111 21.9919 52.316C22.2316 51.5352 22.4275 50.7556 22.5473 49.9748C22.6671 49.1939 22.7573 48.5045 22.8179 47.8744C22.863 47.2598 22.8926 46.7946 22.9236 46.4789C23.0292 45.3231 23.0589 44.1531 23.0138 42.9973C23.2985 42.9522 23.6142 42.9225 23.9286 42.8916C24.2585 42.862 24.5884 42.8465 24.9492 42.8761L24.9788 40.0104C24.6038 40.0104 24.2289 40.0259 23.8539 40.0401L23.8513 40.0439ZM20.1004 46.0911C20.0553 47.0961 19.9509 48.1321 19.786 49.2119C19.6365 50.0521 19.4406 50.8329 19.2164 51.5829C18.9909 52.3186 18.7062 52.9178 18.3466 53.3379C18.0013 53.7579 17.5658 53.9383 17.0413 53.8481C16.6509 53.7876 16.3507 53.5775 16.1406 53.218C15.9306 52.8431 15.7953 52.423 15.736 51.9578C15.6755 51.4772 15.6613 51.043 15.7064 50.6525C15.8559 49.2725 16.3069 47.9968 17.0568 46.7959C17.8222 45.595 18.8569 44.635 20.1777 43.9302C20.1777 44.3657 20.1622 45.086 20.1029 46.0911H20.1004Z" fill="#545454"/>
<path d="M39.6068 42.8648C40.2524 41.8301 40.5822 40.6291 40.5822 39.2633C40.5822 37.1926 40.0423 35.6025 38.9922 34.4918C37.942 33.381 36.3519 32.8257 34.2361 32.8257H26.7188V55.6175H31.2506V45.8941H32.4966C33.3213 45.8941 33.9668 46.1042 34.4024 46.5242C34.8521 46.9443 35.0776 47.6646 35.0776 48.6851V55.6175H39.6094V48.4004C39.6094 47.4546 39.3697 46.675 38.8891 46.09C38.3943 45.505 37.6882 45.1893 36.7591 45.1442V44.9793C38.0193 44.5888 38.9793 43.884 39.6094 42.8635L39.6068 42.8648ZM35.4809 41.3945C35.0002 41.8597 34.4011 42.0994 33.6808 42.0994H31.2506V36.5934H33.6808C34.4011 36.5934 35.0015 36.8034 35.4809 37.208C35.9615 37.6281 36.2012 38.3188 36.2012 39.2633C36.2012 40.2078 35.9615 40.9294 35.4809 41.3932V41.3945Z" fill="#545454"/>
<path d="M41.542 32.8271V36.5626H46.7336V55.6177H51.2654V36.5626H56.4273V32.8271H41.5433H41.542Z" fill="#545454"/>
<path d="M69.9903 51.8822V32.8271H65.4443V55.619H77.3583V51.8835H69.9916L69.9903 51.8822Z" fill="#545454"/>
<path d="M91.5508 34.2669C90.2455 32.9771 88.5498 32.3315 86.434 32.3315C84.3182 32.3315 82.5322 32.9771 81.2128 34.2669C79.8778 35.5426 79.2168 37.3878 79.2168 39.7884V48.6562C79.2168 51.0413 79.8765 52.8723 81.2128 54.1621C82.5335 55.4378 84.2731 56.0834 86.434 56.0834C87.68 56.0834 88.8345 55.8128 89.9002 55.2729C90.9658 54.733 91.8356 53.9225 92.4953 52.8427C93.155 51.7474 93.4862 50.3519 93.4862 48.6562V39.7884C93.4862 37.3878 92.8406 35.5426 91.5508 34.2669ZM88.9556 48.1317C88.9556 48.852 88.8809 49.5272 88.7302 50.1277C88.5807 50.7423 88.3397 51.2384 87.9648 51.6276C87.604 52.0025 87.095 52.1971 86.434 52.1971C85.3993 52.1971 84.6931 51.8221 84.3182 51.0722C83.9432 50.3068 83.7628 49.3314 83.7628 48.1317V40.2999C83.7628 39.5642 83.8234 38.889 83.9728 38.2743C84.1223 37.6597 84.3774 37.1494 84.7537 36.7745C85.1287 36.415 85.6544 36.2191 86.3438 36.2191C87.0331 36.2191 87.5447 36.4137 87.9197 36.7745C88.2946 37.1494 88.5652 37.6597 88.7147 38.2743C88.8642 38.889 88.9544 39.5642 88.9544 40.2999V48.1317H88.9556Z" fill="#545454"/>
<path d="M108.444 45.4157C108.639 45.0111 108.803 44.6658 108.939 44.3501C109.088 44.0344 109.178 43.8398 109.224 43.7496C109.673 42.7445 110.034 41.6789 110.289 40.5837C110.529 39.4884 110.649 38.4228 110.635 37.4022C110.635 36.3675 110.47 35.4514 110.154 34.6267C109.854 33.8162 109.373 33.1706 108.729 32.6913C108.083 32.2107 107.243 31.9865 106.208 32.0006C105.053 32.0303 104.063 32.4954 103.252 33.4116C102.442 34.3123 101.902 35.5119 101.647 37.0131C101.407 38.3029 101.376 39.6095 101.541 40.929C101.706 42.2498 102.022 43.5099 102.501 44.7096C102.966 45.895 103.522 46.9452 104.152 47.8305C103.987 48.1152 103.747 48.5507 103.432 49.1061C103.102 49.6615 102.741 50.231 102.321 50.8018C101.901 51.3714 101.465 51.8365 100.986 52.2128C100.505 52.5878 100.026 52.7385 99.5607 52.6483C98.9757 52.5427 98.526 52.0633 98.2258 51.1923C97.9101 50.3225 97.731 49.1821 97.6704 47.7866C97.6253 46.3911 97.6859 44.8462 97.865 43.1504C98.0299 41.4547 98.3005 39.7448 98.66 37.9885C99.0054 36.2335 99.4254 34.5829 99.9357 33.007L97.2503 32.0921C96.5906 34.1332 96.0494 36.1884 95.6294 38.2746C95.1938 40.3607 94.9245 42.3554 94.8034 44.2612C94.7428 45.1309 94.7132 46.0471 94.7287 47.0367C94.7287 48.0276 94.8034 49.0017 94.9542 49.963C95.1036 50.923 95.3446 51.8082 95.6744 52.6187C96.0043 53.4292 96.4399 54.1044 97.0094 54.6598C97.5648 55.1997 98.2851 55.545 99.1548 55.6648C99.9202 55.7847 100.641 55.6803 101.33 55.3504C102.005 55.0206 102.651 54.5554 103.25 53.9704C103.85 53.3854 104.406 52.7398 104.885 52.0492C105.366 51.3443 105.786 50.6988 106.145 50.0687C106.956 50.8186 107.841 51.3894 108.816 51.7786L109.972 49.2272C109.492 49.0172 109.042 48.7775 108.637 48.4773C108.217 48.1925 107.842 47.8627 107.481 47.4864C107.587 47.2609 107.721 46.9607 107.901 46.5857C108.082 46.2107 108.261 45.8203 108.441 45.4157H108.444ZM107.364 40.2087C107.154 41.1236 106.899 41.9946 106.599 42.8051C106.299 43.6298 105.984 44.2908 105.653 44.8152C105.353 44.3204 105.098 43.6594 104.858 42.8193C104.618 41.9946 104.453 41.1094 104.363 40.1481C104.273 39.2023 104.288 38.3171 104.438 37.5079C104.483 37.2528 104.573 36.9229 104.708 36.4874C104.844 36.0518 105.038 35.6627 105.309 35.3174C105.58 34.972 105.924 34.8071 106.359 34.8367C106.885 34.8522 107.244 35.1215 107.454 35.6472C107.664 36.1575 107.755 36.8172 107.725 37.6277C107.695 38.4382 107.575 39.308 107.364 40.2087Z" fill="#545454"/>
<path d="M124.142 36.5626V32.8271H112.243V55.619H124.142V51.8835H116.775V45.6418H123.091V41.9063H116.775V36.5652H124.142V36.5626Z" fill="#545454"/>
<path d="M139.041 42.8648C139.671 41.8301 140.001 40.6291 140.001 39.2633C140.001 37.1926 139.475 35.6025 138.411 34.4918C137.361 33.381 135.771 32.8257 133.655 32.8257H126.138V55.6175H130.67V45.8941H131.916C132.74 45.8941 133.386 46.1042 133.835 46.5242C133.955 46.6299 134.046 46.7639 134.136 46.9288C134.375 47.3489 134.495 47.9339 134.495 48.6838V55.6162H139.041V48.3991C139.041 47.4533 138.786 46.6737 138.305 46.0887C137.87 45.563 137.255 45.264 136.474 45.188C136.384 45.1584 136.28 45.1429 136.174 45.1429V44.978C137.434 44.5875 138.394 43.8827 139.04 42.8622L139.041 42.8648ZM133.1 42.0994H130.67V36.5934H133.1C133.82 36.5934 134.42 36.8034 134.9 37.208C135.38 37.6281 135.62 38.3188 135.62 39.2633C135.62 40.2078 135.38 40.9294 134.9 41.3932C134.419 41.8571 133.82 42.0981 133.1 42.0981V42.0994Z" fill="#545454"/>
<path d="M23.8513 73.0439C23.4764 73.0594 23.1014 73.1045 22.7264 73.1341C22.6517 72.5195 22.5164 71.7837 22.3515 70.959C22.1711 70.1344 21.9018 69.3084 21.5564 68.4837C21.1969 67.6732 20.7305 66.9684 20.1455 66.3976C19.5759 65.8126 18.8402 65.4673 17.9395 65.3629C16.9937 65.2572 16.1084 65.408 15.2992 65.7984C14.4887 66.203 13.7543 66.7738 13.0932 67.5083C12.4335 68.2582 11.833 69.1138 11.3073 70.0596C10.7816 71.0196 10.3164 71.995 9.91181 73.0156C9.5072 74.0361 9.16187 74.9961 8.89128 75.9109C8.29081 77.9211 7.82565 80.0227 7.49578 82.2132C7.16591 84.4192 7.00098 86.5492 7.00098 88.6199H9.86671C9.86671 87.2991 9.95691 85.874 10.1373 84.3587C10.3319 82.8433 10.587 81.328 10.9182 79.7972C11.248 78.2522 11.6385 76.7962 12.1036 75.3865C12.5533 73.991 13.0636 72.7463 13.619 71.6652C14.1885 70.5699 14.7748 69.7143 15.3894 69.0997C16.0195 68.4696 16.6651 68.1693 17.3248 68.199C17.8055 68.2144 18.1946 68.4386 18.5258 68.8742C18.8414 69.3097 19.0953 69.8496 19.2912 70.4797C19.5012 71.1098 19.6507 71.7399 19.7563 72.3558C19.8465 72.9859 19.9213 73.4807 19.9664 73.8557C19.6958 73.9614 19.4264 74.0812 19.1713 74.2152C18.9162 74.3505 18.6611 74.4858 18.4059 74.6353C17.1457 75.3401 16.0505 76.331 15.1201 77.6208C14.1898 78.8965 13.5146 80.2469 13.1242 81.6566C12.8845 82.5869 12.7788 83.5327 12.8085 84.4772C12.8536 85.4075 13.034 86.2773 13.3638 87.0723C13.6795 87.8532 14.1589 88.4833 14.7748 88.9626C15.3907 89.442 16.1548 89.6829 17.0401 89.7126C17.9549 89.728 18.7358 89.5322 19.3813 89.1276C20.0114 88.723 20.5514 88.1818 20.9714 87.522C21.4069 86.8468 21.7368 86.1111 21.9919 85.316C22.2316 84.5352 22.4275 83.7556 22.5473 82.9748C22.6671 82.1939 22.7573 81.5045 22.8179 80.8744C22.863 80.2598 22.8926 79.7946 22.9236 79.4789C23.0292 78.3231 23.0589 77.1531 23.0138 75.9973C23.2985 75.9522 23.6142 75.9225 23.9286 75.8916C24.2585 75.862 24.5884 75.8465 24.9492 75.8761L24.9788 73.0104C24.6038 73.0104 24.2289 73.0259 23.8539 73.0401L23.8513 73.0439ZM20.1004 79.0911C20.0553 80.0961 19.9509 81.1321 19.786 82.2119C19.6365 83.0521 19.4406 83.8329 19.2164 84.5829C18.9909 85.3186 18.7062 85.9178 18.3466 86.3379C18.0013 86.7579 17.5658 86.9383 17.0413 86.8481C16.6509 86.7876 16.3507 86.5775 16.1406 86.218C15.9306 85.8431 15.7953 85.423 15.736 84.9578C15.6755 84.4772 15.6613 84.043 15.7064 83.6525C15.8559 82.2725 16.3069 80.9968 17.0568 79.7959C17.8222 78.595 18.8569 77.635 20.1777 76.9302C20.1777 77.3657 20.1622 78.086 20.1029 79.0911H20.1004Z" fill="#545454"/>
<path d="M39.6068 75.8648C40.2524 74.8301 40.5822 73.6291 40.5822 72.2633C40.5822 70.1926 40.0423 68.6025 38.9922 67.4918C37.942 66.381 36.3519 65.8257 34.2361 65.8257H26.7188V88.6175H31.2506V78.8941H32.4966C33.3213 78.8941 33.9668 79.1042 34.4024 79.5242C34.8521 79.9443 35.0776 80.6646 35.0776 81.6851V88.6175H39.6094V81.4004C39.6094 80.4546 39.3697 79.675 38.8891 79.09C38.3943 78.505 37.6882 78.1893 36.7591 78.1442V77.9793C38.0193 77.5888 38.9793 76.884 39.6094 75.8635L39.6068 75.8648ZM35.4809 74.3945C35.0002 74.8597 34.4011 75.0994 33.6808 75.0994H31.2506V69.5934H33.6808C34.4011 69.5934 35.0015 69.8034 35.4809 70.208C35.9615 70.6281 36.2012 71.3188 36.2012 72.2633C36.2012 73.2078 35.9615 73.9294 35.4809 74.3932V74.3945Z" fill="#545454"/>
<path d="M41.542 65.8271V69.5626H46.7336V88.6177H51.2654V69.5626H56.4273V65.8271H41.5433H41.542Z" fill="#545454"/>
<path d="M69.9903 84.8822V65.8271H65.4443V88.619H77.3583V84.8835H69.9916L69.9903 84.8822Z" fill="#545454"/>
<path d="M91.5508 67.2669C90.2455 65.9771 88.5498 65.3315 86.434 65.3315C84.3182 65.3315 82.5322 65.9771 81.2128 67.2669C79.8778 68.5426 79.2168 70.3878 79.2168 72.7884V81.6562C79.2168 84.0413 79.8765 85.8723 81.2128 87.1621C82.5335 88.4378 84.2731 89.0834 86.434 89.0834C87.68 89.0834 88.8345 88.8128 89.9002 88.2729C90.9658 87.733 91.8356 86.9225 92.4953 85.8427C93.155 84.7474 93.4862 83.3519 93.4862 81.6562V72.7884C93.4862 70.3878 92.8406 68.5426 91.5508 67.2669ZM88.9556 81.1317C88.9556 81.852 88.8809 82.5272 88.7302 83.1277C88.5807 83.7423 88.3397 84.2384 87.9648 84.6276C87.604 85.0025 87.095 85.1971 86.434 85.1971C85.3993 85.1971 84.6931 84.8221 84.3182 84.0722C83.9432 83.3068 83.7628 82.3314 83.7628 81.1317V73.2999C83.7628 72.5642 83.8234 71.889 83.9728 71.2743C84.1223 70.6597 84.3774 70.1494 84.7537 69.7745C85.1287 69.415 85.6544 69.2191 86.3438 69.2191C87.0331 69.2191 87.5447 69.4137 87.9197 69.7745C88.2946 70.1494 88.5652 70.6597 88.7147 71.2743C88.8642 71.889 88.9544 72.5642 88.9544 73.2999V81.1317H88.9556Z" fill="#545454"/>
<path d="M108.444 78.4157C108.639 78.0111 108.803 77.6658 108.939 77.3501C109.088 77.0344 109.178 76.8398 109.224 76.7496C109.673 75.7445 110.034 74.6789 110.289 73.5837C110.529 72.4884 110.649 71.4228 110.635 70.4022C110.635 69.3675 110.47 68.4514 110.154 67.6267C109.854 66.8162 109.373 66.1706 108.729 65.6913C108.083 65.2107 107.243 64.9865 106.208 65.0006C105.053 65.0303 104.063 65.4954 103.252 66.4116C102.442 67.3123 101.902 68.5119 101.647 70.0131C101.407 71.3029 101.376 72.6095 101.541 73.929C101.706 75.2498 102.022 76.5099 102.501 77.7096C102.966 78.895 103.522 79.9452 104.152 80.8305C103.987 81.1152 103.747 81.5507 103.432 82.1061C103.102 82.6615 102.741 83.231 102.321 83.8018C101.901 84.3714 101.465 84.8365 100.986 85.2128C100.505 85.5878 100.026 85.7385 99.5607 85.6483C98.9757 85.5427 98.526 85.0633 98.2258 84.1923C97.9101 83.3225 97.731 82.1821 97.6704 80.7866C97.6253 79.3911 97.6859 77.8462 97.865 76.1504C98.0299 74.4547 98.3005 72.7448 98.66 70.9885C99.0054 69.2335 99.4254 67.5829 99.9357 66.007L97.2503 65.0921C96.5906 67.1332 96.0494 69.1884 95.6294 71.2746C95.1938 73.3607 94.9245 75.3554 94.8034 77.2612C94.7428 78.1309 94.7132 79.0471 94.7287 80.0367C94.7287 81.0276 94.8034 82.0017 94.9542 82.963C95.1036 83.923 95.3446 84.8082 95.6744 85.6187C96.0043 86.4292 96.4399 87.1044 97.0094 87.6598C97.5648 88.1997 98.2851 88.545 99.1548 88.6648C99.9202 88.7847 100.641 88.6803 101.33 88.3504C102.005 88.0206 102.651 87.5554 103.25 86.9704C103.85 86.3854 104.406 85.7398 104.885 85.0492C105.366 84.3443 105.786 83.6988 106.145 83.0687C106.956 83.8186 107.841 84.3894 108.816 84.7786L109.972 82.2272C109.492 82.0172 109.042 81.7775 108.637 81.4773C108.217 81.1925 107.842 80.8627 107.481 80.4864C107.587 80.2609 107.721 79.9607 107.901 79.5857C108.082 79.2107 108.261 78.8203 108.441 78.4157H108.444ZM107.364 73.2087C107.154 74.1236 106.899 74.9946 106.599 75.8051C106.299 76.6298 105.984 77.2908 105.653 77.8152C105.353 77.3204 105.098 76.6594 104.858 75.8193C104.618 74.9946 104.453 74.1094 104.363 73.1481C104.273 72.2023 104.288 71.3171 104.438 70.5079C104.483 70.2528 104.573 69.9229 104.708 69.4874C104.844 69.0518 105.038 68.6627 105.309 68.3174C105.58 67.972 105.924 67.8071 106.359 67.8367C106.885 67.8522 107.244 68.1215 107.454 68.6472C107.664 69.1575 107.755 69.8172 107.725 70.6277C107.695 71.4382 107.575 72.308 107.364 73.2087Z" fill="#545454"/>
<path d="M124.142 69.5626V65.8271H112.243V88.619H124.142V84.8835H116.775V78.6418H123.091V74.9063H116.775V69.5652H124.142V69.5626Z" fill="#545454"/>
<path d="M139.041 75.8648C139.671 74.8301 140.001 73.6291 140.001 72.2633C140.001 70.1926 139.475 68.6025 138.411 67.4918C137.361 66.381 135.771 65.8257 133.655 65.8257H126.138V88.6175H130.67V78.8941H131.916C132.74 78.8941 133.386 79.1042 133.835 79.5242C133.955 79.6299 134.046 79.7639 134.136 79.9288C134.375 80.3489 134.495 80.9339 134.495 81.6838V88.6162H139.041V81.3991C139.041 80.4533 138.786 79.6737 138.305 79.0887C137.87 78.563 137.255 78.264 136.474 78.188C136.384 78.1584 136.28 78.1429 136.174 78.1429V77.978C137.434 77.5875 138.394 76.8827 139.04 75.8622L139.041 75.8648ZM133.1 75.0994H130.67V69.5934H133.1C133.82 69.5934 134.42 69.8034 134.9 70.208C135.38 70.6281 135.62 71.3188 135.62 72.2633C135.62 73.2078 135.38 73.9294 134.9 74.3932C134.419 74.8571 133.82 75.0981 133.1 75.0981V75.0994Z" fill="#545454"/>
<path d="M23.8513 137.044C23.4764 137.059 23.1014 137.104 22.7264 137.134C22.6517 136.519 22.5164 135.784 22.3515 134.959C22.1711 134.134 21.9018 133.308 21.5564 132.484C21.1969 131.673 20.7305 130.968 20.1455 130.398C19.5759 129.813 18.8402 129.467 17.9395 129.363C16.9937 129.257 16.1084 129.408 15.2992 129.798C14.4887 130.203 13.7543 130.774 13.0932 131.508C12.4335 132.258 11.833 133.114 11.3073 134.06C10.7816 135.02 10.3164 135.995 9.91181 137.016C9.5072 138.036 9.16187 138.996 8.89128 139.911C8.29081 141.921 7.82565 144.023 7.49578 146.213C7.16591 148.419 7.00098 150.549 7.00098 152.62H9.86671C9.86671 151.299 9.95691 149.874 10.1373 148.359C10.3319 146.843 10.587 145.328 10.9182 143.797C11.248 142.252 11.6385 140.796 12.1036 139.386C12.5533 137.991 13.0636 136.746 13.619 135.665C14.1885 134.57 14.7748 133.714 15.3894 133.1C16.0195 132.47 16.6651 132.169 17.3248 132.199C17.8055 132.214 18.1946 132.439 18.5258 132.874C18.8414 133.31 19.0953 133.85 19.2912 134.48C19.5012 135.11 19.6507 135.74 19.7563 136.356C19.8465 136.986 19.9213 137.481 19.9664 137.856C19.6958 137.961 19.4264 138.081 19.1713 138.215C18.9162 138.351 18.6611 138.486 18.4059 138.635C17.1457 139.34 16.0505 140.331 15.1201 141.621C14.1898 142.897 13.5146 144.247 13.1242 145.657C12.8845 146.587 12.7788 147.533 12.8085 148.477C12.8536 149.408 13.034 150.277 13.3638 151.072C13.6795 151.853 14.1589 152.483 14.7748 152.963C15.3907 153.442 16.1548 153.683 17.0401 153.713C17.9549 153.728 18.7358 153.532 19.3813 153.128C20.0114 152.723 20.5514 152.182 20.9714 151.522C21.4069 150.847 21.7368 150.111 21.9919 149.316C22.2316 148.535 22.4275 147.756 22.5473 146.975C22.6671 146.194 22.7573 145.505 22.8179 144.874C22.863 144.26 22.8926 143.795 22.9236 143.479C23.0292 142.323 23.0589 141.153 23.0138 139.997C23.2985 139.952 23.6142 139.923 23.9286 139.892C24.2585 139.862 24.5884 139.847 24.9492 139.876L24.9788 137.01C24.6038 137.01 24.2289 137.026 23.8539 137.04L23.8513 137.044ZM20.1004 143.091C20.0553 144.096 19.9509 145.132 19.786 146.212C19.6365 147.052 19.4406 147.833 19.2164 148.583C18.9909 149.319 18.7062 149.918 18.3466 150.338C18.0013 150.758 17.5658 150.938 17.0413 150.848C16.6509 150.788 16.3507 150.578 16.1406 150.218C15.9306 149.843 15.7953 149.423 15.736 148.958C15.6755 148.477 15.6613 148.043 15.7064 147.653C15.8559 146.273 16.3069 144.997 17.0568 143.796C17.8222 142.595 18.8569 141.635 20.1777 140.93C20.1777 141.366 20.1622 142.086 20.1029 143.091H20.1004Z" fill="#545454"/>
<path d="M39.6068 139.865C40.2524 138.83 40.5822 137.629 40.5822 136.263C40.5822 134.193 40.0423 132.603 38.9922 131.492C37.942 130.381 36.3519 129.826 34.2361 129.826H26.7188V152.618H31.2506V142.894H32.4966C33.3213 142.894 33.9668 143.104 34.4024 143.524C34.8521 143.944 35.0776 144.665 35.0776 145.685V152.618H39.6094V145.4C39.6094 144.455 39.3697 143.675 38.8891 143.09C38.3943 142.505 37.6882 142.189 36.7591 142.144V141.979C38.0193 141.589 38.9793 140.884 39.6094 139.863L39.6068 139.865ZM35.4809 138.395C35.0002 138.86 34.4011 139.099 33.6808 139.099H31.2506V133.593H33.6808C34.4011 133.593 35.0015 133.803 35.4809 134.208C35.9615 134.628 36.2012 135.319 36.2012 136.263C36.2012 137.208 35.9615 137.929 35.4809 138.393V138.395Z" fill="#545454"/>
<path d="M41.542 129.827V133.563H46.7336V152.618H51.2654V133.563H56.4273V129.827H41.5433H41.542Z" fill="#545454"/>
<path d="M69.9903 148.882V129.827H65.4443V152.619H77.3583V148.883H69.9916L69.9903 148.882Z" fill="#545454"/>
<path d="M91.5508 131.267C90.2455 129.977 88.5498 129.332 86.434 129.332C84.3182 129.332 82.5322 129.977 81.2128 131.267C79.8778 132.543 79.2168 134.388 79.2168 136.788V145.656C79.2168 148.041 79.8765 149.872 81.2128 151.162C82.5335 152.438 84.2731 153.083 86.434 153.083C87.68 153.083 88.8345 152.813 89.9002 152.273C90.9658 151.733 91.8356 150.922 92.4953 149.843C93.155 148.747 93.4862 147.352 93.4862 145.656V136.788C93.4862 134.388 92.8406 132.543 91.5508 131.267ZM88.9556 145.132C88.9556 145.852 88.8809 146.527 88.7302 147.128C88.5807 147.742 88.3397 148.238 87.9648 148.628C87.604 149.003 87.095 149.197 86.434 149.197C85.3993 149.197 84.6931 148.822 84.3182 148.072C83.9432 147.307 83.7628 146.331 83.7628 145.132V137.3C83.7628 136.564 83.8234 135.889 83.9728 135.274C84.1223 134.66 84.3774 134.149 84.7537 133.774C85.1287 133.415 85.6544 133.219 86.3438 133.219C87.0331 133.219 87.5447 133.414 87.9197 133.774C88.2946 134.149 88.5652 134.66 88.7147 135.274C88.8642 135.889 88.9544 136.564 88.9544 137.3V145.132H88.9556Z" fill="#545454"/>
<path d="M108.444 142.416C108.639 142.011 108.803 141.666 108.939 141.35C109.088 141.034 109.178 140.84 109.224 140.75C109.673 139.745 110.034 138.679 110.289 137.584C110.529 136.488 110.649 135.423 110.635 134.402C110.635 133.368 110.47 132.451 110.154 131.627C109.854 130.816 109.373 130.171 108.729 129.691C108.083 129.211 107.243 128.986 106.208 129.001C105.053 129.03 104.063 129.495 103.252 130.412C102.442 131.312 101.902 132.512 101.647 134.013C101.407 135.303 101.376 136.61 101.541 137.929C101.706 139.25 102.022 140.51 102.501 141.71C102.966 142.895 103.522 143.945 104.152 144.83C103.987 145.115 103.747 145.551 103.432 146.106C103.102 146.661 102.741 147.231 102.321 147.802C101.901 148.371 101.465 148.837 100.986 149.213C100.505 149.588 100.026 149.739 99.5607 149.648C98.9757 149.543 98.526 149.063 98.2258 148.192C97.9101 147.323 97.731 146.182 97.6704 144.787C97.6253 143.391 97.6859 141.846 97.865 140.15C98.0299 138.455 98.3005 136.745 98.66 134.989C99.0054 133.234 99.4254 131.583 99.9357 130.007L97.2503 129.092C96.5906 131.133 96.0494 133.188 95.6294 135.275C95.1938 137.361 94.9245 139.355 94.8034 141.261C94.7428 142.131 94.7132 143.047 94.7287 144.037C94.7287 145.028 94.8034 146.002 94.9542 146.963C95.1036 147.923 95.3446 148.808 95.6744 149.619C96.0043 150.429 96.4399 151.104 97.0094 151.66C97.5648 152.2 98.2851 152.545 99.1548 152.665C99.9202 152.785 100.641 152.68 101.33 152.35C102.005 152.021 102.651 151.555 103.25 150.97C103.85 150.385 104.406 149.74 104.885 149.049C105.366 148.344 105.786 147.699 106.145 147.069C106.956 147.819 107.841 148.389 108.816 148.779L109.972 146.227C109.492 146.017 109.042 145.778 108.637 145.477C108.217 145.193 107.842 144.863 107.481 144.486C107.587 144.261 107.721 143.961 107.901 143.586C108.082 143.211 108.261 142.82 108.441 142.416H108.444ZM107.364 137.209C107.154 138.124 106.899 138.995 106.599 139.805C106.299 140.63 105.984 141.291 105.653 141.815C105.353 141.32 105.098 140.659 104.858 139.819C104.618 138.995 104.453 138.109 104.363 137.148C104.273 136.202 104.288 135.317 104.438 134.508C104.483 134.253 104.573 133.923 104.708 133.487C104.844 133.052 105.038 132.663 105.309 132.317C105.58 131.972 105.924 131.807 106.359 131.837C106.885 131.852 107.244 132.121 107.454 132.647C107.664 133.157 107.755 133.817 107.725 134.628C107.695 135.438 107.575 136.308 107.364 137.209Z" fill="#545454"/>
<path d="M124.142 133.563V129.827H112.243V152.619H124.142V148.883H116.775V142.642H123.091V138.906H116.775V133.565H124.142V133.563Z" fill="#545454"/>
<path d="M139.041 139.865C139.671 138.83 140.001 137.629 140.001 136.263C140.001 134.193 139.475 132.603 138.411 131.492C137.361 130.381 135.771 129.826 133.655 129.826H126.138V152.618H130.67V142.894H131.916C132.74 142.894 133.386 143.104 133.835 143.524C133.955 143.63 134.046 143.764 134.136 143.929C134.375 144.349 134.495 144.934 134.495 145.684V152.616H139.041V145.399C139.041 144.453 138.786 143.674 138.305 143.089C137.87 142.563 137.255 142.264 136.474 142.188C136.384 142.158 136.28 142.143 136.174 142.143V141.978C137.434 141.588 138.394 140.883 139.04 139.862L139.041 139.865ZM133.1 139.099H130.67V133.593H133.1C133.82 133.593 134.42 133.803 134.9 134.208C135.38 134.628 135.62 135.319 135.62 136.263C135.62 137.208 135.38 137.929 134.9 138.393C134.419 138.857 133.82 139.098 133.1 139.098V139.099Z" fill="#545454"/>
<path d="M23.8513 106.044C23.4764 106.059 23.1014 106.104 22.7264 106.134C22.6517 105.519 22.5164 104.784 22.3515 103.959C22.1711 103.134 21.9018 102.308 21.5564 101.484C21.1969 100.673 20.7305 99.9684 20.1455 99.3976C19.5759 98.8126 18.8402 98.4673 17.9395 98.3629C16.9937 98.2572 16.1084 98.408 15.2992 98.7984C14.4887 99.203 13.7543 99.7738 13.0932 100.508C12.4335 101.258 11.833 102.114 11.3073 103.06C10.7816 104.02 10.3164 104.995 9.91181 106.016C9.5072 107.036 9.16187 107.996 8.89128 108.911C8.29081 110.921 7.82565 113.023 7.49578 115.213C7.16591 117.419 7.00098 119.549 7.00098 121.62H9.86671C9.86671 120.299 9.95691 118.874 10.1373 117.359C10.3319 115.843 10.587 114.328 10.9182 112.797C11.248 111.252 11.6385 109.796 12.1036 108.386C12.5533 106.991 13.0636 105.746 13.619 104.665C14.1885 103.57 14.7748 102.714 15.3894 102.1C16.0195 101.47 16.6651 101.169 17.3248 101.199C17.8055 101.214 18.1946 101.439 18.5258 101.874C18.8414 102.31 19.0953 102.85 19.2912 103.48C19.5012 104.11 19.6507 104.74 19.7563 105.356C19.8465 105.986 19.9213 106.481 19.9664 106.856C19.6958 106.961 19.4264 107.081 19.1713 107.215C18.9162 107.351 18.6611 107.486 18.4059 107.635C17.1457 108.34 16.0505 109.331 15.1201 110.621C14.1898 111.897 13.5146 113.247 13.1242 114.657C12.8845 115.587 12.7788 116.533 12.8085 117.477C12.8536 118.408 13.034 119.277 13.3638 120.072C13.6795 120.853 14.1589 121.483 14.7748 121.963C15.3907 122.442 16.1548 122.683 17.0401 122.713C17.9549 122.728 18.7358 122.532 19.3813 122.128C20.0114 121.723 20.5514 121.182 20.9714 120.522C21.4069 119.847 21.7368 119.111 21.9919 118.316C22.2316 117.535 22.4275 116.756 22.5473 115.975C22.6671 115.194 22.7573 114.505 22.8179 113.874C22.863 113.26 22.8926 112.795 22.9236 112.479C23.0292 111.323 23.0589 110.153 23.0138 108.997C23.2985 108.952 23.6142 108.923 23.9286 108.892C24.2585 108.862 24.5884 108.847 24.9492 108.876L24.9788 106.01C24.6038 106.01 24.2289 106.026 23.8539 106.04L23.8513 106.044ZM20.1004 112.091C20.0553 113.096 19.9509 114.132 19.786 115.212C19.6365 116.052 19.4406 116.833 19.2164 117.583C18.9909 118.319 18.7062 118.918 18.3466 119.338C18.0013 119.758 17.5658 119.938 17.0413 119.848C16.6509 119.788 16.3507 119.578 16.1406 119.218C15.9306 118.843 15.7953 118.423 15.736 117.958C15.6755 117.477 15.6613 117.043 15.7064 116.653C15.8559 115.273 16.3069 113.997 17.0568 112.796C17.8222 111.595 18.8569 110.635 20.1777 109.93C20.1777 110.366 20.1622 111.086 20.1029 112.091H20.1004Z" fill="#545454"/>
<path d="M39.6068 108.865C40.2524 107.83 40.5822 106.629 40.5822 105.263C40.5822 103.193 40.0423 101.603 38.9922 100.492C37.942 99.381 36.3519 98.8257 34.2361 98.8257H26.7188V121.618H31.2506V111.894H32.4966C33.3213 111.894 33.9668 112.104 34.4024 112.524C34.8521 112.944 35.0776 113.665 35.0776 114.685V121.618H39.6094V114.4C39.6094 113.455 39.3697 112.675 38.8891 112.09C38.3943 111.505 37.6882 111.189 36.7591 111.144V110.979C38.0193 110.589 38.9793 109.884 39.6094 108.863L39.6068 108.865ZM35.4809 107.395C35.0002 107.86 34.4011 108.099 33.6808 108.099H31.2506V102.593H33.6808C34.4011 102.593 35.0015 102.803 35.4809 103.208C35.9615 103.628 36.2012 104.319 36.2012 105.263C36.2012 106.208 35.9615 106.929 35.4809 107.393V107.395Z" fill="#545454"/>
<path d="M41.542 98.8271V102.563H46.7336V121.618H51.2654V102.563H56.4273V98.8271H41.5433H41.542Z" fill="#545454"/>
<path d="M69.9903 117.882V98.8271H65.4443V121.619H77.3583V117.883H69.9916L69.9903 117.882Z" fill="#545454"/>
<path d="M91.5508 100.267C90.2455 98.9771 88.5498 98.3315 86.434 98.3315C84.3182 98.3315 82.5322 98.9771 81.2128 100.267C79.8778 101.543 79.2168 103.388 79.2168 105.788V114.656C79.2168 117.041 79.8765 118.872 81.2128 120.162C82.5335 121.438 84.2731 122.083 86.434 122.083C87.68 122.083 88.8345 121.813 89.9002 121.273C90.9658 120.733 91.8356 119.922 92.4953 118.843C93.155 117.747 93.4862 116.352 93.4862 114.656V105.788C93.4862 103.388 92.8406 101.543 91.5508 100.267ZM88.9556 114.132C88.9556 114.852 88.8809 115.527 88.7302 116.128C88.5807 116.742 88.3397 117.238 87.9648 117.628C87.604 118.003 87.095 118.197 86.434 118.197C85.3993 118.197 84.6931 117.822 84.3182 117.072C83.9432 116.307 83.7628 115.331 83.7628 114.132V106.3C83.7628 105.564 83.8234 104.889 83.9728 104.274C84.1223 103.66 84.3774 103.149 84.7537 102.774C85.1287 102.415 85.6544 102.219 86.3438 102.219C87.0331 102.219 87.5447 102.414 87.9197 102.774C88.2946 103.149 88.5652 103.66 88.7147 104.274C88.8642 104.889 88.9544 105.564 88.9544 106.3V114.132H88.9556Z" fill="#545454"/>
<path d="M108.444 111.416C108.639 111.011 108.803 110.666 108.939 110.35C109.088 110.034 109.178 109.84 109.224 109.75C109.673 108.745 110.034 107.679 110.289 106.584C110.529 105.488 110.649 104.423 110.635 103.402C110.635 102.368 110.47 101.451 110.154 100.627C109.854 99.8162 109.373 99.1706 108.729 98.6913C108.083 98.2107 107.243 97.9865 106.208 98.0006C105.053 98.0303 104.063 98.4954 103.252 99.4116C102.442 100.312 101.902 101.512 101.647 103.013C101.407 104.303 101.376 105.61 101.541 106.929C101.706 108.25 102.022 109.51 102.501 110.71C102.966 111.895 103.522 112.945 104.152 113.83C103.987 114.115 103.747 114.551 103.432 115.106C103.102 115.661 102.741 116.231 102.321 116.802C101.901 117.371 101.465 117.837 100.986 118.213C100.505 118.588 100.026 118.739 99.5607 118.648C98.9757 118.543 98.526 118.063 98.2258 117.192C97.9101 116.323 97.731 115.182 97.6704 113.787C97.6253 112.391 97.6859 110.846 97.865 109.15C98.0299 107.455 98.3005 105.745 98.66 103.989C99.0054 102.234 99.4254 100.583 99.9357 99.007L97.2503 98.0921C96.5906 100.133 96.0494 102.188 95.6294 104.275C95.1938 106.361 94.9245 108.355 94.8034 110.261C94.7428 111.131 94.7132 112.047 94.7287 113.037C94.7287 114.028 94.8034 115.002 94.9542 115.963C95.1036 116.923 95.3446 117.808 95.6744 118.619C96.0043 119.429 96.4399 120.104 97.0094 120.66C97.5648 121.2 98.2851 121.545 99.1548 121.665C99.9202 121.785 100.641 121.68 101.33 121.35C102.005 121.021 102.651 120.555 103.25 119.97C103.85 119.385 104.406 118.74 104.885 118.049C105.366 117.344 105.786 116.699 106.145 116.069C106.956 116.819 107.841 117.389 108.816 117.779L109.972 115.227C109.492 115.017 109.042 114.778 108.637 114.477C108.217 114.193 107.842 113.863 107.481 113.486C107.587 113.261 107.721 112.961 107.901 112.586C108.082 112.211 108.261 111.82 108.441 111.416H108.444ZM107.364 106.209C107.154 107.124 106.899 107.995 106.599 108.805C106.299 109.63 105.984 110.291 105.653 110.815C105.353 110.32 105.098 109.659 104.858 108.819C104.618 107.995 104.453 107.109 104.363 106.148C104.273 105.202 104.288 104.317 104.438 103.508C104.483 103.253 104.573 102.923 104.708 102.487C104.844 102.052 105.038 101.663 105.309 101.317C105.58 100.972 105.924 100.807 106.359 100.837C106.885 100.852 107.244 101.121 107.454 101.647C107.664 102.157 107.755 102.817 107.725 103.628C107.695 104.438 107.575 105.308 107.364 106.209Z" fill="#545454"/>
<path d="M124.142 102.563V98.8271H112.243V121.619H124.142V117.883H116.775V111.642H123.091V107.906H116.775V102.565H124.142V102.563Z" fill="#545454"/>
<path d="M139.041 108.865C139.671 107.83 140.001 106.629 140.001 105.263C140.001 103.193 139.475 101.603 138.411 100.492C137.361 99.381 135.771 98.8257 133.655 98.8257H126.138V121.618H130.67V111.894H131.916C132.74 111.894 133.386 112.104 133.835 112.524C133.955 112.63 134.046 112.764 134.136 112.929C134.375 113.349 134.495 113.934 134.495 114.684V121.616H139.041V114.399C139.041 113.453 138.786 112.674 138.305 112.089C137.87 111.563 137.255 111.264 136.474 111.188C136.384 111.158 136.28 111.143 136.174 111.143V110.978C137.434 110.588 138.394 109.883 139.04 108.862L139.041 108.865ZM133.1 108.099H130.67V102.593H133.1C133.82 102.593 134.42 102.803 134.9 103.208C135.38 103.628 135.62 104.319 135.62 105.263C135.62 106.208 135.38 106.929 134.9 107.393C134.419 107.857 133.82 108.098 133.1 108.098V108.099Z" fill="#545454"/>
</svg>
