<svg width="100" height="100" viewBox="0 0 100 100" fill="none" xmlns="http://www.w3.org/2000/svg">
<path d="M92.1303 26.95L60.8803 9.76245C60.4188 9.5086 59.9007 9.37549 59.374 9.37549C58.8474 9.37549 58.3292 9.5086 57.8678 9.76245L26.6178 26.95C26.1278 27.2197 25.7192 27.616 25.4347 28.0976C25.1501 28.5791 25 29.1281 25 29.6875C25 30.2468 25.1501 30.7958 25.4347 31.2774C25.7192 31.7589 26.1278 32.1552 26.6178 32.425L56.249 48.7218V82.2187L46.7615 77L43.749 82.4718L57.8678 90.2375C58.3292 90.4913 58.8474 90.6244 59.374 90.6244C59.9007 90.6244 60.4188 90.4913 60.8803 90.2375L92.1303 73.05C92.6204 72.7803 93.0292 72.3841 93.3139 71.9025C93.5987 71.421 93.7489 70.8719 93.749 70.3125V29.6875C93.7489 29.128 93.5987 28.5789 93.3139 28.0974C93.0292 27.6159 92.6204 27.2196 92.1303 26.95ZM59.374 16.0687L84.1396 29.6875L59.374 43.3062L34.6084 29.6875L59.374 16.0687ZM87.499 68.4656L62.499 82.2156V48.7187L87.499 34.9687V68.4656Z" fill="#C65528"/>
<path d="M31.25 50H6.25V43.75H31.25V50ZM37.5 75H12.5V68.75H37.5V75ZM43.75 62.5H18.75V56.25H43.75V62.5Z" fill="#C65528"/>
</svg>
