<svg width="20" height="20" viewBox="0 0 20 20" fill="none" xmlns="http://www.w3.org/2000/svg">
<path d="M3 5.66667C3 5.22464 3.17559 4.80072 3.48816 4.48816C3.80072 4.17559 4.22464 4 4.66667 4H16.3333C16.7754 4 17.1993 4.17559 17.5118 4.48816C17.8244 4.80072 18 5.22464 18 5.66667V14C18 14.442 17.8244 14.866 17.5118 15.1785C17.1993 15.4911 16.7754 15.6667 16.3333 15.6667H4.66667C4.22464 15.6667 3.80072 15.4911 3.48816 15.1785C3.17559 14.866 3 14.442 3 14V5.66667Z" stroke="#C65528" stroke-width="1.5" stroke-linecap="round" stroke-linejoin="round"/>
<path d="M2.5 5.83325L10 10.8333L17.5 5.83325" stroke="#C65528" stroke-width="1.5" stroke-linecap="round" stroke-linejoin="round"/>
</svg>
