<svg width="20" height="20" viewBox="0 0 20 20" fill="none" xmlns="http://www.w3.org/2000/svg">
<path d="M2.54583 9.16667H4.16667C4.60869 9.16667 5.03262 9.34226 5.34518 9.65482C5.65774 9.96738 5.83333 10.3913 5.83333 10.8333V11.6667C5.83333 12.1087 6.00893 12.5326 6.32149 12.8452C6.63405 13.1577 7.05797 13.3333 7.5 13.3333C7.94203 13.3333 8.36595 13.5089 8.67851 13.8215C8.99107 14.134 9.16667 14.558 9.16667 15V17.4542M6.66667 3.27917V4.58333C6.66667 5.13587 6.88616 5.66577 7.27686 6.05647C7.66756 6.44717 8.19747 6.66667 8.75 6.66667H9.16667C9.60869 6.66667 10.0326 6.84226 10.3452 7.15482C10.6577 7.46738 10.8333 7.89131 10.8333 8.33333C10.8333 8.77536 11.0089 9.19928 11.3215 9.51184C11.634 9.8244 12.058 10 12.5 10C12.942 10 13.3659 9.8244 13.6785 9.51184C13.9911 9.19928 14.1667 8.77536 14.1667 8.33333C14.1667 7.89131 14.3423 7.46738 14.6548 7.15482C14.9674 6.84226 15.3913 6.66667 15.8333 6.66667H16.72M12.5 17.0733V15C12.5 14.558 12.6756 14.134 12.9882 13.8215C13.3007 13.5089 13.7246 13.3333 14.1667 13.3333H16.72M17.5 10C17.5 10.9849 17.306 11.9602 16.9291 12.8701C16.5522 13.7801 15.9997 14.6069 15.3033 15.3033C14.6069 15.9997 13.7801 16.5522 12.8701 16.9291C11.9602 17.306 10.9849 17.5 10 17.5C9.01509 17.5 8.03982 17.306 7.12987 16.9291C6.21993 16.5522 5.39314 15.9997 4.6967 15.3033C4.00026 14.6069 3.44781 13.7801 3.0709 12.8701C2.69399 11.9602 2.5 10.9849 2.5 10C2.5 8.01088 3.29018 6.10322 4.6967 4.6967C6.10322 3.29018 8.01088 2.5 10 2.5C11.9891 2.5 13.8968 3.29018 15.3033 4.6967C16.7098 6.10322 17.5 8.01088 17.5 10Z" stroke="#18181B" stroke-width="2" stroke-linecap="round" stroke-linejoin="round"/>
</svg>
