<svg width="20" height="20" viewBox="0 0 20 20" fill="none" xmlns="http://www.w3.org/2000/svg">
<g clip-path="url(#clip0_691_2286)">
<path d="M13.3335 13.3334C13.3335 12.4126 10.7218 11.6667 7.50016 11.6667M13.3335 13.3334C13.3335 14.2542 10.7218 15.0001 7.50016 15.0001C4.2785 15.0001 1.66683 14.2542 1.66683 13.3334M13.3335 13.3334V17.4476C13.3335 18.3967 10.7218 19.1667 7.50016 19.1667C4.2785 19.1667 1.66683 18.3976 1.66683 17.4476V13.3334M13.3335 13.3334C16.5202 13.3334 19.1668 12.5109 19.1668 11.6667V3.33341M7.50016 11.6667C4.2785 11.6667 1.66683 12.4126 1.66683 13.3334M7.50016 11.6667C3.8185 11.6667 0.833496 10.8442 0.833496 10.0001V5.83341M7.50016 4.16675C3.8185 4.16675 0.833496 4.91258 0.833496 5.83341M0.833496 5.83341C0.833496 6.75425 3.8185 7.50008 7.50016 7.50008C7.50016 8.34425 10.211 9.16675 13.3977 9.16675C16.5843 9.16675 19.1668 8.34425 19.1668 7.50008M19.1668 3.33341C19.1668 2.41258 16.5835 1.66675 13.3977 1.66675C10.2118 1.66675 7.6285 2.41258 7.6285 3.33341M19.1668 3.33341C19.1668 4.25425 16.5835 5.00008 13.3977 5.00008C10.2118 5.00008 7.6285 4.25425 7.6285 3.33341M7.6285 3.33341V11.8051" stroke="#3A3A3A" stroke-width="1.5"/>
</g>
<defs>
<clipPath id="clip0_691_2286">
<rect width="20" height="20" fill="white"/>
</clipPath>
</defs>
</svg>
