<svg width="64" height="19" viewBox="0 0 64 19" fill="none" xmlns="http://www.w3.org/2000/svg">
<path d="M2.70312 8.68018V12.8892H1.52637V7.60596H2.63477L2.70312 8.68018ZM2.5127 10.0522L2.1123 10.0474C2.1123 9.68278 2.15788 9.34587 2.24902 9.03662C2.34017 8.72738 2.47363 8.45882 2.64941 8.23096C2.8252 7.99984 3.04329 7.82243 3.30371 7.69873C3.56738 7.57178 3.87174 7.5083 4.2168 7.5083C4.45768 7.5083 4.67741 7.54411 4.87598 7.61572C5.0778 7.68408 5.25195 7.79313 5.39844 7.94287C5.54818 8.09261 5.66211 8.28467 5.74023 8.51904C5.82161 8.75342 5.8623 9.03662 5.8623 9.36865V12.8892H4.68555V9.47119C4.68555 9.21403 4.64648 9.01221 4.56836 8.86572C4.49349 8.71924 4.38444 8.61507 4.24121 8.55322C4.10124 8.48812 3.93359 8.45557 3.73828 8.45557C3.51693 8.45557 3.32812 8.49788 3.17188 8.58252C3.01888 8.66715 2.89355 8.78271 2.7959 8.9292C2.69824 9.07568 2.62663 9.24495 2.58105 9.43701C2.53548 9.62907 2.5127 9.83415 2.5127 10.0522ZM5.78906 9.73975L5.2373 9.86182C5.2373 9.54281 5.28125 9.2417 5.36914 8.9585C5.46029 8.67204 5.59212 8.42139 5.76465 8.20654C5.94043 7.98844 6.1569 7.81755 6.41406 7.69385C6.67122 7.57015 6.96582 7.5083 7.29785 7.5083C7.56803 7.5083 7.80892 7.54574 8.02051 7.62061C8.23535 7.69222 8.41764 7.80615 8.56738 7.9624C8.71712 8.11865 8.83105 8.3221 8.90918 8.57275C8.9873 8.82015 9.02637 9.11963 9.02637 9.47119V12.8892H7.84473V9.46631C7.84473 9.19938 7.80566 8.99268 7.72754 8.84619C7.65267 8.69971 7.54525 8.5988 7.40527 8.54346C7.2653 8.48486 7.09766 8.45557 6.90234 8.45557C6.72005 8.45557 6.55892 8.48975 6.41895 8.55811C6.28223 8.62321 6.16667 8.71598 6.07227 8.83643C5.97786 8.95361 5.90625 9.0887 5.85742 9.2417C5.81185 9.39469 5.78906 9.56071 5.78906 9.73975ZM10.0127 10.3062V10.1938C10.0127 9.81299 10.068 9.4598 10.1787 9.13428C10.2894 8.8055 10.4489 8.52067 10.6572 8.27979C10.8688 8.03564 11.126 7.84684 11.4287 7.71338C11.7347 7.57666 12.0798 7.5083 12.4639 7.5083C12.8512 7.5083 13.1963 7.57666 13.499 7.71338C13.805 7.84684 14.0638 8.03564 14.2754 8.27979C14.487 8.52067 14.6481 8.8055 14.7588 9.13428C14.8695 9.4598 14.9248 9.81299 14.9248 10.1938V10.3062C14.9248 10.687 14.8695 11.0402 14.7588 11.3657C14.6481 11.6912 14.487 11.9761 14.2754 12.2202C14.0638 12.4611 13.8066 12.6499 13.5039 12.7866C13.2012 12.9201 12.8577 12.9868 12.4736 12.9868C12.0863 12.9868 11.7396 12.9201 11.4336 12.7866C11.1309 12.6499 10.8737 12.4611 10.6621 12.2202C10.4505 11.9761 10.2894 11.6912 10.1787 11.3657C10.068 11.0402 10.0127 10.687 10.0127 10.3062ZM11.1895 10.1938V10.3062C11.1895 10.5438 11.2139 10.7684 11.2627 10.98C11.3115 11.1916 11.388 11.3771 11.4922 11.5366C11.5964 11.6961 11.7298 11.8215 11.8926 11.9126C12.0553 12.0037 12.249 12.0493 12.4736 12.0493C12.6917 12.0493 12.8805 12.0037 13.04 11.9126C13.2028 11.8215 13.3363 11.6961 13.4404 11.5366C13.5446 11.3771 13.6211 11.1916 13.6699 10.98C13.722 10.7684 13.748 10.5438 13.748 10.3062V10.1938C13.748 9.95947 13.722 9.73812 13.6699 9.52979C13.6211 9.3182 13.543 9.13102 13.4355 8.96826C13.3314 8.8055 13.1979 8.67855 13.0352 8.5874C12.8757 8.493 12.6852 8.4458 12.4639 8.4458C12.2425 8.4458 12.0505 8.493 11.8877 8.5874C11.7282 8.67855 11.5964 8.8055 11.4922 8.96826C11.388 9.13102 11.3115 9.3182 11.2627 9.52979C11.2139 9.73812 11.1895 9.95947 11.1895 10.1938ZM17.0781 8.73389V12.8892H15.9014V7.60596H17.0098L17.0781 8.73389ZM16.8682 10.0522L16.4873 10.0474C16.4906 9.67301 16.5426 9.32959 16.6436 9.01709C16.7477 8.70459 16.891 8.43604 17.0732 8.21143C17.2588 7.98682 17.4801 7.81429 17.7373 7.69385C17.9945 7.57015 18.2809 7.5083 18.5967 7.5083C18.8506 7.5083 19.0801 7.54411 19.2852 7.61572C19.4935 7.68408 19.6709 7.79639 19.8174 7.95264C19.9671 8.10889 20.0811 8.31234 20.1592 8.56299C20.2373 8.81038 20.2764 9.11475 20.2764 9.47607V12.8892H19.0947V9.47119C19.0947 9.21729 19.0573 9.01709 18.9824 8.87061C18.9108 8.72087 18.805 8.61507 18.665 8.55322C18.5283 8.48812 18.3574 8.45557 18.1523 8.45557C17.9505 8.45557 17.7699 8.49788 17.6104 8.58252C17.4508 8.66715 17.3158 8.78271 17.2051 8.9292C17.0977 9.07568 17.0146 9.24495 16.9561 9.43701C16.8975 9.62907 16.8682 9.83415 16.8682 10.0522ZM21.2529 10.3062V10.1938C21.2529 9.81299 21.3083 9.4598 21.4189 9.13428C21.5296 8.8055 21.6891 8.52067 21.8975 8.27979C22.109 8.03564 22.3662 7.84684 22.6689 7.71338C22.9749 7.57666 23.32 7.5083 23.7041 7.5083C24.0915 7.5083 24.4365 7.57666 24.7393 7.71338C25.0452 7.84684 25.304 8.03564 25.5156 8.27979C25.7272 8.52067 25.8883 8.8055 25.999 9.13428C26.1097 9.4598 26.165 9.81299 26.165 10.1938V10.3062C26.165 10.687 26.1097 11.0402 25.999 11.3657C25.8883 11.6912 25.7272 11.9761 25.5156 12.2202C25.304 12.4611 25.0469 12.6499 24.7441 12.7866C24.4414 12.9201 24.098 12.9868 23.7139 12.9868C23.3265 12.9868 22.9798 12.9201 22.6738 12.7866C22.3711 12.6499 22.1139 12.4611 21.9023 12.2202C21.6908 11.9761 21.5296 11.6912 21.4189 11.3657C21.3083 11.0402 21.2529 10.687 21.2529 10.3062ZM22.4297 10.1938V10.3062C22.4297 10.5438 22.4541 10.7684 22.5029 10.98C22.5518 11.1916 22.6283 11.3771 22.7324 11.5366C22.8366 11.6961 22.9701 11.8215 23.1328 11.9126C23.2956 12.0037 23.4893 12.0493 23.7139 12.0493C23.932 12.0493 24.1208 12.0037 24.2803 11.9126C24.443 11.8215 24.5765 11.6961 24.6807 11.5366C24.7848 11.3771 24.8613 11.1916 24.9102 10.98C24.9622 10.7684 24.9883 10.5438 24.9883 10.3062V10.1938C24.9883 9.95947 24.9622 9.73812 24.9102 9.52979C24.8613 9.3182 24.7832 9.13102 24.6758 8.96826C24.5716 8.8055 24.4382 8.67855 24.2754 8.5874C24.1159 8.493 23.9255 8.4458 23.7041 8.4458C23.4827 8.4458 23.2907 8.493 23.1279 8.5874C22.9684 8.67855 22.8366 8.8055 22.7324 8.96826C22.6283 9.13102 22.5518 9.3182 22.5029 9.52979C22.4541 9.73812 22.4297 9.95947 22.4297 10.1938Z" fill="#545454"/>
<rect x="30.9209" y="0.209473" width="33.0791" height="18.3597" rx="2.67985" fill="#3A3A3A"/>
<path d="M42.3833 10.2378H40.5327V9.26611H42.3833C42.7056 9.26611 42.966 9.21403 43.1646 9.10986C43.3631 9.0057 43.508 8.86247 43.5991 8.68018C43.6935 8.49463 43.7407 8.28304 43.7407 8.04541C43.7407 7.8208 43.6935 7.61084 43.5991 7.41553C43.508 7.21696 43.3631 7.05745 43.1646 6.93701C42.966 6.81657 42.7056 6.75635 42.3833 6.75635H40.9087V12.8892H39.6831V5.77979H42.3833C42.9334 5.77979 43.4006 5.87744 43.7847 6.07275C44.172 6.26481 44.4666 6.53174 44.6685 6.87354C44.8703 7.21208 44.9712 7.59945 44.9712 8.03564C44.9712 8.49463 44.8703 8.88851 44.6685 9.21729C44.4666 9.54606 44.172 9.79834 43.7847 9.97412C43.4006 10.1499 42.9334 10.2378 42.3833 10.2378ZM48.8726 11.8296V9.31006C48.8726 9.12126 48.8384 8.9585 48.77 8.82178C48.7017 8.68506 48.5975 8.57926 48.4575 8.50439C48.3208 8.42952 48.1483 8.39209 47.9399 8.39209C47.7479 8.39209 47.5819 8.42464 47.4419 8.48975C47.3019 8.55485 47.1929 8.64274 47.1147 8.75342C47.0366 8.8641 46.9976 8.98942 46.9976 9.12939H45.8257C45.8257 8.92106 45.8761 8.71924 45.9771 8.52393C46.078 8.32861 46.2244 8.15446 46.4165 8.00146C46.6086 7.84847 46.8381 7.72803 47.105 7.64014C47.3719 7.55225 47.6714 7.5083 48.0034 7.5083C48.4006 7.5083 48.7521 7.57503 49.0581 7.7085C49.3674 7.84196 49.6099 8.04378 49.7856 8.31396C49.9647 8.58089 50.0542 8.91618 50.0542 9.31982V11.6685C50.0542 11.9093 50.0705 12.1258 50.103 12.3179C50.1388 12.5067 50.1893 12.6711 50.2544 12.811V12.8892H49.0483C48.993 12.7622 48.9491 12.6011 48.9165 12.4058C48.8872 12.2072 48.8726 12.0151 48.8726 11.8296ZM49.0435 9.67627L49.0532 10.4038H48.2085C47.9904 10.4038 47.7983 10.425 47.6323 10.4673C47.4663 10.5063 47.328 10.5649 47.2173 10.6431C47.1066 10.7212 47.0236 10.8156 46.9683 10.9263C46.9129 11.0369 46.8853 11.1623 46.8853 11.3022C46.8853 11.4422 46.9178 11.5708 46.9829 11.688C47.048 11.8019 47.1424 11.8914 47.2661 11.9565C47.3931 12.0216 47.5461 12.0542 47.7251 12.0542C47.966 12.0542 48.1759 12.0054 48.355 11.9077C48.5373 11.8068 48.6805 11.6847 48.7847 11.5415C48.8888 11.395 48.9442 11.2567 48.9507 11.1265L49.3315 11.6489C49.2925 11.7824 49.2257 11.9256 49.1313 12.0786C49.0369 12.2316 48.9132 12.3781 48.7603 12.5181C48.6105 12.6548 48.4299 12.7671 48.2183 12.855C48.0099 12.9429 47.769 12.9868 47.4956 12.9868C47.1506 12.9868 46.8429 12.9185 46.5728 12.7817C46.3026 12.6418 46.091 12.4546 45.938 12.2202C45.785 11.9826 45.7085 11.714 45.7085 11.4146C45.7085 11.1346 45.7606 10.8872 45.8647 10.6724C45.9722 10.4543 46.1284 10.272 46.3335 10.1255C46.5418 9.979 46.7957 9.86833 47.0952 9.79346C47.3947 9.71533 47.7365 9.67627 48.1206 9.67627H49.0435ZM52.7397 12.313L54.1753 7.60596H55.4351L53.3159 13.6948C53.2671 13.825 53.2036 13.9666 53.1255 14.1196C53.0474 14.2726 52.9448 14.4175 52.8179 14.5542C52.6942 14.6942 52.5396 14.8065 52.354 14.8911C52.1685 14.979 51.9438 15.0229 51.6802 15.0229C51.576 15.0229 51.4751 15.0132 51.3774 14.9937C51.283 14.9774 51.1935 14.9595 51.1089 14.9399L51.104 14.0415C51.1366 14.0448 51.1756 14.048 51.2212 14.0513C51.27 14.0545 51.3091 14.0562 51.3384 14.0562C51.5337 14.0562 51.6965 14.0317 51.8267 13.9829C51.9569 13.9373 52.0627 13.8625 52.144 13.7583C52.2287 13.6541 52.3003 13.5142 52.3589 13.3384L52.7397 12.313ZM51.9292 7.60596L53.1841 11.561L53.394 12.8013L52.5786 13.0112L50.6597 7.60596H51.9292Z" fill="white"/>
</svg>
