<svg width="20" height="21" viewBox="0 0 20 21" fill="none" xmlns="http://www.w3.org/2000/svg">
<path d="M7.23689 11.6184C7.40523 11.2817 7.50023 10.9017 7.50023 10.5001C7.50023 10.0984 7.40523 9.71839 7.23689 9.38172M7.23689 11.6184C6.98498 12.122 6.5704 12.5259 6.06031 12.7645C5.55022 13.0031 4.9745 13.0626 4.42643 12.9331C3.87836 12.8037 3.39004 12.493 3.04057 12.0514C2.69111 11.6099 2.50098 11.0632 2.50098 10.5001C2.50098 9.93691 2.69111 9.39026 3.04057 8.94866C3.39004 8.50707 3.87836 8.19639 4.42643 8.06697C4.9745 7.93755 5.55022 7.99696 6.06031 8.23559C6.5704 8.47421 6.98498 8.87806 7.23689 9.38172M7.23689 11.6184L12.7636 14.3817M7.23689 9.38172L12.7636 6.61839M12.7636 14.3817C12.467 14.9749 12.4182 15.6617 12.6279 16.2908C12.8376 16.92 13.2887 17.4401 13.8819 17.7367C14.4751 18.0333 15.1618 18.0821 15.791 17.8724C16.4202 17.6627 16.9403 17.2116 17.2369 16.6184C17.5335 16.0252 17.5823 15.3385 17.3726 14.7093C17.1628 14.0801 16.7118 13.56 16.1186 13.2634C15.8248 13.1165 15.5051 13.029 15.1775 13.0057C14.8499 12.9824 14.521 13.0239 14.2094 13.1277C13.5803 13.3374 13.0602 13.7885 12.7636 14.3817ZM12.7636 6.61839C12.9104 6.91206 13.1137 7.17392 13.3618 7.38904C13.6098 7.60415 13.8978 7.7683 14.2093 7.8721C14.5208 7.97591 14.8497 8.01735 15.1772 7.99405C15.5048 7.97075 15.8245 7.88317 16.1181 7.73631C16.4118 7.58944 16.6737 7.38618 16.8888 7.13811C17.1039 6.89005 17.2681 6.60204 17.3719 6.29054C17.4757 5.97904 17.5171 5.65014 17.4938 5.32263C17.4705 4.99511 17.3829 4.67539 17.2361 4.38172C16.9395 3.78863 16.4194 3.33766 15.7903 3.12801C15.1612 2.91836 14.4746 2.9672 13.8815 3.2638C13.2884 3.56041 12.8374 4.08046 12.6278 4.70957C12.4181 5.33867 12.467 6.0253 12.7636 6.61839Z" stroke="#C65528" stroke-width="2" stroke-linecap="round" stroke-linejoin="round"/>
</svg>
