<svg width="1100" height="305" viewBox="0 0 1100 305" fill="none" xmlns="http://www.w3.org/2000/svg">
<path d="M52.9582 39.2435C51.7797 39.2921 50.6013 39.4338 49.4228 39.527C49.1879 37.5952 48.7627 35.2828 48.2443 32.691C47.6774 30.0992 46.831 27.5033 45.7456 24.9115C44.6158 22.3642 43.1498 20.149 41.3112 18.355C39.5212 16.5164 37.2088 15.4311 34.3781 15.1031C31.4056 14.771 28.6234 15.2448 26.0802 16.4719C23.5329 17.7435 21.2246 19.5375 19.1471 21.8459C17.0736 24.2028 15.1865 26.8918 13.5342 29.8643C11.8819 32.8814 10.4199 35.947 9.14832 39.1544C7.87671 42.3618 6.79138 45.3788 5.94094 48.2541C4.05377 54.5717 2.59182 61.1768 1.55509 68.0613C0.518364 74.9944 0 81.6886 0 88.1965H9.00658C9.00658 84.0455 9.29006 79.5665 9.85702 74.8041C10.4685 70.0416 11.2704 65.2791 12.3111 60.4681C13.3479 55.6125 14.5749 51.0363 16.0369 46.6059C17.4502 42.22 19.0539 38.308 20.7994 34.9103C22.5893 31.468 24.432 28.779 26.3637 26.8473C28.344 24.867 30.3729 23.9234 32.4464 24.0165C33.9569 24.0651 35.1799 24.7698 36.2207 26.1386C37.2129 27.5074 38.0107 29.2042 38.6262 31.1845C39.2863 33.1649 39.7561 35.1452 40.0882 37.0809C40.3717 39.0612 40.6066 40.6163 40.7483 41.7948C39.8979 42.1269 39.0515 42.5035 38.2496 42.9247C37.4478 43.3499 36.6459 43.7751 35.8441 44.2449C31.8835 46.4601 28.4412 49.5743 25.5173 53.6281C22.5934 57.6373 20.4713 61.8814 19.2443 66.3118C18.491 69.2357 18.1589 72.2082 18.2521 75.1766C18.3938 78.1005 18.9608 80.8341 19.9975 83.3328C20.9897 85.7869 22.4962 87.7672 24.432 89.2737C26.3677 90.7802 28.7692 91.5375 31.5514 91.6306C34.4267 91.6792 36.8808 91.0637 38.9097 89.7921C40.89 88.5205 42.5869 86.8196 43.9071 84.7461C45.2759 82.6241 46.3126 80.3117 47.1144 77.813C47.8677 75.3589 48.4833 72.9088 48.8599 70.4547C49.2365 68.0005 49.52 65.8339 49.7103 63.8536C49.8521 61.9219 49.9452 60.46 50.0424 59.4678C50.3745 55.8352 50.4676 52.158 50.3259 48.5254C51.2209 48.3837 52.2131 48.2906 53.2012 48.1934C54.2379 48.1002 55.2746 48.0516 56.4086 48.1447L56.5017 39.1382C55.3232 39.1382 54.1448 39.1868 52.9663 39.2313L52.9582 39.2435ZM41.1695 58.2488C41.0277 61.4076 40.6997 64.6636 40.1813 68.0572C39.7116 70.6977 39.096 73.1518 38.3913 75.5087C37.6827 77.8211 36.7877 79.7042 35.6578 81.0244C34.5725 82.3446 33.2037 82.9116 31.5554 82.6281C30.3284 82.4378 29.3848 81.7777 28.7247 80.6478C28.0646 79.4693 27.6393 78.1491 27.4531 76.6872C27.2627 75.1766 27.2182 73.8119 27.3599 72.5848C27.8297 68.2476 29.2471 64.2384 31.604 60.464C34.0096 56.6897 37.2615 53.6726 41.4124 51.4574C41.4124 52.8262 41.3638 55.09 41.1776 58.2488H41.1695Z" fill="#545454"/>
<path d="M102.474 48.1084C104.503 44.8565 105.54 41.0821 105.54 36.7894C105.54 30.2815 103.843 25.2842 100.542 21.7933C97.2418 18.3024 92.2445 16.557 85.5948 16.557H61.9688V88.1884H76.2116V57.6293H80.1277C82.7195 57.6293 84.7484 58.2894 86.1172 59.6096C87.5306 60.9298 88.2393 63.1936 88.2393 66.401V88.1884H102.482V65.506C102.482 62.5335 101.729 60.0834 100.218 58.2448C98.6633 56.4062 96.444 55.4141 93.5242 55.2723V54.754C97.4848 53.5269 100.502 51.3117 102.482 48.1043L102.474 48.1084ZM89.5068 43.4876C87.9963 44.9496 86.1132 45.7028 83.8494 45.7028H76.2116V28.3984H83.8494C86.1132 28.3984 88.0003 29.0585 89.5068 30.3301C91.0174 31.6503 91.7706 33.821 91.7706 36.7894C91.7706 39.7579 91.0174 42.0257 89.5068 43.4836V43.4876Z" fill="#545454"/>
<path d="M108.557 16.5612V28.3013H124.873V88.1885H139.116V28.3013H155.339V16.5612H108.561H108.557Z" fill="#545454"/>
<path d="M197.967 76.4484V16.5612H183.68V88.1926H221.123V76.4525H197.971L197.967 76.4484Z" fill="#545454"/>
<path d="M265.731 21.0888C261.628 17.035 256.299 15.0061 249.649 15.0061C243 15.0061 237.387 17.035 233.24 21.0888C229.044 25.098 226.967 30.8972 226.967 38.4418V66.312C226.967 73.8081 229.04 79.5627 233.24 83.6165C237.391 87.6257 242.858 89.6546 249.649 89.6546C253.565 89.6546 257.194 88.8042 260.543 87.1073C263.892 85.4105 266.626 82.8632 268.699 79.4696C270.773 76.0273 271.813 71.6415 271.813 66.312V38.4418C271.813 30.8972 269.785 25.098 265.731 21.0888ZM257.575 64.6638C257.575 66.9276 257.34 69.0496 256.866 70.9368C256.396 72.8685 255.639 74.4277 254.46 75.6507C253.326 76.8291 251.727 77.4407 249.649 77.4407C246.397 77.4407 244.178 76.2622 243 73.9053C241.821 71.4997 241.254 68.4341 241.254 64.6638V40.0496C241.254 37.7372 241.445 35.6151 241.914 33.6834C242.384 31.7517 243.186 30.148 244.368 28.9695C245.547 27.8397 247.199 27.2241 249.366 27.2241C251.532 27.2241 253.14 27.8356 254.319 28.9695C255.497 30.148 256.348 31.7517 256.817 33.6834C257.287 35.6151 257.571 37.7372 257.571 40.0496V64.6638H257.575Z" fill="#545454"/>
<path d="M319.491 57.2568C320.103 55.9851 320.621 54.8998 321.046 53.9077C321.516 52.9155 321.799 52.304 321.941 52.0205C323.354 48.8617 324.488 45.5126 325.29 42.0703C326.043 38.628 326.42 35.2789 326.376 32.0715C326.376 28.8196 325.857 25.9403 324.865 23.3485C323.921 20.8012 322.411 18.7723 320.386 17.2658C318.357 15.7552 315.717 15.0506 312.465 15.0951C308.832 15.1883 305.722 16.6502 303.175 19.5296C300.627 22.3603 298.931 26.1306 298.129 30.8485C297.375 34.9023 297.278 39.0087 297.797 43.1557C298.315 47.3066 299.307 51.2672 300.814 55.0375C302.276 58.7633 304.021 62.0638 306.001 64.846C305.483 65.7409 304.73 67.1097 303.738 68.8552C302.701 70.6006 301.567 72.3906 300.247 74.1846C298.927 75.9746 297.558 77.4365 296.051 78.619C294.541 79.7975 293.034 80.2713 291.572 79.9878C289.734 79.6558 288.32 78.1493 287.377 75.4117C286.385 72.6781 285.822 69.0941 285.631 64.7083C285.49 60.3224 285.68 55.4668 286.243 50.1374C286.761 44.8079 287.612 39.434 288.741 33.9142C289.827 28.3985 291.147 23.2108 292.751 18.258L284.311 15.3827C282.238 21.7974 280.537 28.2567 279.217 34.8132C277.848 41.3697 277.001 47.6387 276.621 53.6282C276.43 56.3618 276.337 59.2411 276.386 62.3513C276.386 65.4655 276.621 68.5271 277.094 71.5482C277.564 74.5653 278.322 77.3474 279.358 79.8947C280.395 82.442 281.764 84.564 283.554 86.3095C285.299 88.0063 287.563 89.0916 290.297 89.4682C292.702 89.8449 294.966 89.5168 297.132 88.4801C299.255 87.4434 301.283 85.9814 303.167 84.1429C305.054 82.3043 306.799 80.2754 308.306 78.1047C309.816 75.8895 311.136 73.8606 312.266 71.8803C314.814 74.2373 317.596 76.0313 320.661 77.2543L324.294 69.2358C322.783 68.5757 321.37 67.8225 320.098 66.8789C318.778 65.9839 317.6 64.9472 316.466 63.7647C316.798 63.056 317.219 62.1124 317.786 60.9339C318.353 59.7554 318.916 58.5284 319.483 57.2568H319.491ZM316.097 40.8918C315.437 43.7672 314.635 46.5048 313.692 49.052C312.748 51.6439 311.76 53.7214 310.719 55.3696C309.776 53.8145 308.974 51.737 308.221 49.0966C307.467 46.5048 306.949 43.7226 306.666 40.7015C306.382 37.729 306.431 34.9468 306.9 32.4036C307.042 31.6018 307.326 30.5651 307.751 29.1963C308.176 27.8274 308.788 26.6044 309.638 25.5191C310.488 24.4338 311.57 23.9154 312.939 24.0086C314.591 24.0572 315.721 24.9036 316.381 26.5558C317.041 28.1595 317.324 30.233 317.231 32.7802C317.138 35.3275 316.761 38.0611 316.097 40.8918Z" fill="#545454"/>
<path d="M368.157 28.3013V16.5612H330.762V88.1926H368.157V76.4525H345.005V56.8356H364.856V45.0955H345.005V28.3094H368.157V28.3013Z" fill="#545454"/>
<path d="M414.984 48.1084C416.964 44.8565 418.001 41.0821 418.001 36.7894C418.001 30.2815 416.348 25.2842 413.003 21.7933C409.703 18.3024 404.705 16.557 398.056 16.557H374.43V88.1884H388.673V57.6293H392.589C395.18 57.6293 397.209 58.2894 398.623 59.6096C398.999 59.9416 399.283 60.3628 399.566 60.8812C400.32 62.2014 400.696 64.04 400.696 66.3969V88.1844H414.984V65.5019C414.984 62.5294 414.182 60.0794 412.671 58.2408C411.302 56.5885 409.371 55.6489 406.917 55.41C406.633 55.3169 406.305 55.2683 405.973 55.2683V54.7499C409.934 53.5228 412.951 51.3076 414.98 48.1003L414.984 48.1084ZM396.31 45.7028H388.673V28.3984H396.31C398.574 28.3984 400.461 29.0585 401.968 30.3301C403.478 31.6503 404.232 33.821 404.232 36.7894C404.232 39.7579 403.478 42.0257 401.968 43.4836C400.457 44.9415 398.574 45.6988 396.31 45.6988V45.7028Z" fill="#545454"/>
<path d="M494.958 39.2435C493.78 39.2921 492.601 39.4338 491.423 39.527C491.188 37.5952 490.763 35.2828 490.244 32.691C489.677 30.0992 488.831 27.5033 487.746 24.9115C486.616 22.3642 485.15 20.149 483.311 18.355C481.521 16.5164 479.209 15.4311 476.378 15.1031C473.406 14.771 470.623 15.2448 468.08 16.4719C465.533 17.7435 463.225 19.5375 461.147 21.8459C459.074 24.2028 457.186 26.8918 455.534 29.8643C453.882 32.8814 452.42 35.947 451.148 39.1544C449.877 42.3618 448.791 45.3788 447.941 48.2541C446.054 54.5717 444.592 61.1768 443.555 68.0613C442.518 74.9944 442 81.6886 442 88.1965H451.007C451.007 84.0455 451.29 79.5665 451.857 74.8041C452.469 70.0416 453.27 65.2791 454.311 60.4681C455.348 55.6125 456.575 51.0363 458.037 46.6059C459.45 42.22 461.054 38.308 462.799 34.9103C464.589 31.468 466.432 28.779 468.364 26.8473C470.344 24.867 472.373 23.9234 474.446 24.0165C475.957 24.0651 477.18 24.7698 478.221 26.1386C479.213 27.5074 480.011 29.2042 480.626 31.1845C481.286 33.1649 481.756 35.1452 482.088 37.0809C482.372 39.0612 482.607 40.6163 482.748 41.7948C481.898 42.1269 481.051 42.5035 480.25 42.9247C479.448 43.3499 478.646 43.7751 477.844 44.2449C473.883 46.4601 470.441 49.5743 467.517 53.6281C464.593 57.6373 462.471 61.8814 461.244 66.3118C460.491 69.2357 460.159 72.2082 460.252 75.1766C460.394 78.1005 460.961 80.8341 461.998 83.3328C462.99 85.7869 464.496 87.7672 466.432 89.2737C468.368 90.7802 470.769 91.5375 473.551 91.6306C476.427 91.6792 478.881 91.0637 480.91 89.7921C482.89 88.5205 484.587 86.8196 485.907 84.7461C487.276 82.6241 488.313 80.3117 489.114 77.813C489.868 75.3589 490.483 72.9088 490.86 70.4547C491.237 68.0005 491.52 65.8339 491.71 63.8536C491.852 61.9219 491.945 60.46 492.042 59.4678C492.374 55.8352 492.468 52.158 492.326 48.5254C493.221 48.3837 494.213 48.2906 495.201 48.1934C496.238 48.1002 497.275 48.0516 498.409 48.1447L498.502 39.1382C497.323 39.1382 496.145 39.1868 494.966 39.2313L494.958 39.2435ZM483.169 58.2488C483.028 61.4076 482.7 64.6636 482.181 68.0572C481.712 70.6977 481.096 73.1518 480.391 75.5087C479.683 77.8211 478.788 79.7042 477.658 81.0244C476.572 82.3446 475.204 82.9116 473.555 82.6281C472.328 82.4378 471.385 81.7777 470.725 80.6478C470.065 79.4693 469.639 78.1491 469.453 76.6872C469.263 75.1766 469.218 73.8119 469.36 72.5848C469.83 68.2476 471.247 64.2384 473.604 60.464C476.01 56.6897 479.261 53.6726 483.412 51.4574C483.412 52.8262 483.364 55.09 483.178 58.2488H483.169Z" fill="#545454"/>
<path d="M544.474 48.1084C546.503 44.8565 547.54 41.0821 547.54 36.7894C547.54 30.2815 545.843 25.2842 542.542 21.7933C539.242 18.3024 534.244 16.557 527.595 16.557H503.969V88.1884H518.212V57.6293H522.128C524.72 57.6293 526.748 58.2894 528.117 59.6096C529.531 60.9298 530.239 63.1936 530.239 66.401V88.1884H544.482V65.506C544.482 62.5335 543.729 60.0834 542.218 58.2448C540.663 56.4062 538.444 55.4141 535.524 55.2723V54.754C539.485 53.5269 542.502 51.3117 544.482 48.1043L544.474 48.1084ZM531.507 43.4876C529.996 44.9496 528.113 45.7028 525.849 45.7028H518.212V28.3984H525.849C528.113 28.3984 530 29.0585 531.507 30.3301C533.017 31.6503 533.771 33.821 533.771 36.7894C533.771 39.7579 533.017 42.0257 531.507 43.4836V43.4876Z" fill="#545454"/>
<path d="M550.557 16.5612V28.3013H566.873V88.1885H581.116V28.3013H597.339V16.5612H550.561H550.557Z" fill="#545454"/>
<path d="M639.967 76.4484V16.5612H625.68V88.1926H663.123V76.4525H639.971L639.967 76.4484Z" fill="#545454"/>
<path d="M707.731 21.0888C703.628 17.035 698.299 15.0061 691.649 15.0061C685 15.0061 679.387 17.035 675.24 21.0888C671.044 25.098 668.967 30.8972 668.967 38.4418V66.312C668.967 73.8081 671.04 79.5627 675.24 83.6165C679.391 87.6257 684.858 89.6546 691.649 89.6546C695.565 89.6546 699.194 88.8042 702.543 87.1073C705.892 85.4105 708.626 82.8632 710.699 79.4696C712.773 76.0273 713.813 71.6415 713.813 66.312V38.4418C713.813 30.8972 711.785 25.098 707.731 21.0888ZM699.575 64.6638C699.575 66.9276 699.34 69.0496 698.866 70.9368C698.396 72.8685 697.639 74.4277 696.46 75.6507C695.326 76.8291 693.727 77.4407 691.649 77.4407C688.397 77.4407 686.178 76.2622 685 73.9053C683.821 71.4997 683.254 68.4341 683.254 64.6638V40.0496C683.254 37.7372 683.445 35.6151 683.914 33.6834C684.384 31.7517 685.186 30.148 686.368 28.9695C687.547 27.8397 689.199 27.2241 691.366 27.2241C693.532 27.2241 695.14 27.8356 696.319 28.9695C697.497 30.148 698.348 31.7517 698.817 33.6834C699.287 35.6151 699.571 37.7372 699.571 40.0496V64.6638H699.575Z" fill="#545454"/>
<path d="M761.491 57.2568C762.103 55.9851 762.621 54.8998 763.046 53.9077C763.516 52.9155 763.799 52.304 763.941 52.0205C765.354 48.8617 766.488 45.5126 767.29 42.0703C768.043 38.628 768.42 35.2789 768.376 32.0715C768.376 28.8196 767.857 25.9403 766.865 23.3485C765.921 20.8012 764.411 18.7723 762.386 17.2658C760.357 15.7552 757.717 15.0506 754.465 15.0951C750.832 15.1883 747.722 16.6502 745.175 19.5296C742.627 22.3603 740.931 26.1306 740.129 30.8485C739.375 34.9023 739.278 39.0087 739.797 43.1557C740.315 47.3066 741.307 51.2672 742.814 55.0375C744.276 58.7633 746.021 62.0638 748.001 64.846C747.483 65.7409 746.73 67.1097 745.738 68.8552C744.701 70.6006 743.567 72.3906 742.247 74.1846C740.927 75.9746 739.558 77.4365 738.051 78.619C736.541 79.7975 735.034 80.2713 733.572 79.9878C731.734 79.6558 730.32 78.1493 729.377 75.4117C728.385 72.6781 727.822 69.0941 727.631 64.7083C727.49 60.3224 727.68 55.4668 728.243 50.1374C728.761 44.8079 729.612 39.434 730.741 33.9142C731.827 28.3985 733.147 23.2108 734.751 18.258L726.311 15.3827C724.238 21.7974 722.537 28.2567 721.217 34.8132C719.848 41.3697 719.001 47.6387 718.621 53.6282C718.43 56.3618 718.337 59.2411 718.386 62.3513C718.386 65.4655 718.621 68.5271 719.094 71.5482C719.564 74.5653 720.322 77.3474 721.358 79.8947C722.395 82.442 723.764 84.564 725.554 86.3095C727.299 88.0063 729.563 89.0916 732.297 89.4682C734.702 89.8449 736.966 89.5168 739.132 88.4801C741.255 87.4434 743.283 85.9814 745.167 84.1429C747.054 82.3043 748.799 80.2754 750.306 78.1047C751.816 75.8895 753.136 73.8606 754.266 71.8803C756.814 74.2373 759.596 76.0313 762.661 77.2543L766.294 69.2358C764.783 68.5757 763.37 67.8225 762.098 66.8789C760.778 65.9839 759.6 64.9472 758.466 63.7647C758.798 63.056 759.219 62.1124 759.786 60.9339C760.353 59.7554 760.916 58.5284 761.483 57.2568H761.491ZM758.097 40.8918C757.437 43.7672 756.635 46.5048 755.692 49.052C754.748 51.6439 753.76 53.7214 752.719 55.3696C751.776 53.8145 750.974 51.737 750.221 49.0966C749.467 46.5048 748.949 43.7226 748.666 40.7015C748.382 37.729 748.431 34.9468 748.9 32.4036C749.042 31.6018 749.326 30.5651 749.751 29.1963C750.176 27.8274 750.788 26.6044 751.638 25.5191C752.488 24.4338 753.57 23.9154 754.939 24.0086C756.591 24.0572 757.721 24.9036 758.381 26.5558C759.041 28.1595 759.324 30.233 759.231 32.7802C759.138 35.3275 758.761 38.0611 758.097 40.8918Z" fill="#545454"/>
<path d="M810.157 28.3013V16.5612H772.762V88.1926H810.157V76.4525H787.005V56.8356H806.856V45.0955H787.005V28.3094H810.157V28.3013Z" fill="#545454"/>
<path d="M856.984 48.1084C858.964 44.8565 860.001 41.0821 860.001 36.7894C860.001 30.2815 858.348 25.2842 855.003 21.7933C851.703 18.3024 846.705 16.557 840.056 16.557H816.43V88.1884H830.673V57.6293H834.589C837.18 57.6293 839.209 58.2894 840.623 59.6096C840.999 59.9416 841.283 60.3628 841.566 60.8812C842.32 62.2014 842.696 64.04 842.696 66.3969V88.1844H856.984V65.5019C856.984 62.5294 856.182 60.0794 854.671 58.2408C853.302 56.5885 851.371 55.6489 848.917 55.41C848.633 55.3169 848.305 55.2683 847.973 55.2683V54.7499C851.934 53.5228 854.951 51.3076 856.98 48.1003L856.984 48.1084ZM838.31 45.7028H830.673V28.3984H838.31C840.574 28.3984 842.461 29.0585 843.968 30.3301C845.478 31.6503 846.232 33.821 846.232 36.7894C846.232 39.7579 845.478 42.0257 843.968 43.4836C842.457 44.9415 840.574 45.6988 838.31 45.6988V45.7028Z" fill="#545454"/>
<path d="M936.958 39.2435C935.78 39.2921 934.601 39.4338 933.423 39.527C933.188 37.5952 932.763 35.2828 932.244 32.691C931.677 30.0992 930.831 27.5033 929.746 24.9115C928.616 22.3642 927.15 20.149 925.311 18.355C923.521 16.5164 921.209 15.4311 918.378 15.1031C915.406 14.771 912.623 15.2448 910.08 16.4719C907.533 17.7435 905.225 19.5375 903.147 21.8459C901.074 24.2028 899.186 26.8918 897.534 29.8643C895.882 32.8814 894.42 35.947 893.148 39.1544C891.877 42.3618 890.791 45.3788 889.941 48.2541C888.054 54.5717 886.592 61.1768 885.555 68.0613C884.518 74.9944 884 81.6886 884 88.1965H893.007C893.007 84.0455 893.29 79.5665 893.857 74.8041C894.469 70.0416 895.27 65.2791 896.311 60.4681C897.348 55.6125 898.575 51.0363 900.037 46.6059C901.45 42.22 903.054 38.308 904.799 34.9103C906.589 31.468 908.432 28.779 910.364 26.8473C912.344 24.867 914.373 23.9234 916.446 24.0165C917.957 24.0651 919.18 24.7698 920.221 26.1386C921.213 27.5074 922.011 29.2042 922.626 31.1845C923.286 33.1649 923.756 35.1452 924.088 37.0809C924.372 39.0612 924.607 40.6163 924.748 41.7948C923.898 42.1269 923.051 42.5035 922.25 42.9247C921.448 43.3499 920.646 43.7751 919.844 44.2449C915.883 46.4601 912.441 49.5743 909.517 53.6281C906.593 57.6373 904.471 61.8814 903.244 66.3118C902.491 69.2357 902.159 72.2082 902.252 75.1766C902.394 78.1005 902.961 80.8341 903.998 83.3328C904.99 85.7869 906.496 87.7672 908.432 89.2737C910.368 90.7802 912.769 91.5375 915.551 91.6306C918.427 91.6792 920.881 91.0637 922.91 89.7921C924.89 88.5205 926.587 86.8196 927.907 84.7461C929.276 82.6241 930.313 80.3117 931.114 77.813C931.868 75.3589 932.483 72.9088 932.86 70.4547C933.237 68.0005 933.52 65.8339 933.71 63.8536C933.852 61.9219 933.945 60.46 934.042 59.4678C934.374 55.8352 934.468 52.158 934.326 48.5254C935.221 48.3837 936.213 48.2906 937.201 48.1934C938.238 48.1002 939.275 48.0516 940.409 48.1447L940.502 39.1382C939.323 39.1382 938.145 39.1868 936.966 39.2313L936.958 39.2435ZM925.169 58.2488C925.028 61.4076 924.7 64.6636 924.181 68.0572C923.712 70.6977 923.096 73.1518 922.391 75.5087C921.683 77.8211 920.788 79.7042 919.658 81.0244C918.572 82.3446 917.204 82.9116 915.555 82.6281C914.328 82.4378 913.385 81.7777 912.725 80.6478C912.065 79.4693 911.639 78.1491 911.453 76.6872C911.263 75.1766 911.218 73.8119 911.36 72.5848C911.83 68.2476 913.247 64.2384 915.604 60.464C918.01 56.6897 921.261 53.6726 925.412 51.4574C925.412 52.8262 925.364 55.09 925.178 58.2488H925.169Z" fill="#545454"/>
<path d="M986.474 48.1084C988.503 44.8565 989.54 41.0821 989.54 36.7894C989.54 30.2815 987.843 25.2842 984.542 21.7933C981.242 18.3024 976.244 16.557 969.595 16.557H945.969V88.1884H960.212V57.6293H964.128C966.72 57.6293 968.748 58.2894 970.117 59.6096C971.531 60.9298 972.239 63.1936 972.239 66.401V88.1884H986.482V65.506C986.482 62.5335 985.729 60.0834 984.218 58.2448C982.663 56.4062 980.444 55.4141 977.524 55.2723V54.754C981.485 53.5269 984.502 51.3117 986.482 48.1043L986.474 48.1084ZM973.507 43.4876C971.996 44.9496 970.113 45.7028 967.849 45.7028H960.212V28.3984H967.849C970.113 28.3984 972 29.0585 973.507 30.3301C975.017 31.6503 975.771 33.821 975.771 36.7894C975.771 39.7579 975.017 42.0257 973.507 43.4836V43.4876Z" fill="#545454"/>
<path d="M992.557 16.5612V28.3013H1008.87V88.1885H1023.12V28.3013H1039.34V16.5612H992.561H992.557Z" fill="#545454"/>
<path d="M1081.97 76.4484V16.5612H1067.68V88.1926H1105.12V76.4525H1081.97L1081.97 76.4484Z" fill="#545454"/>
<path d="M-4.0329 176.448V116.561H-18.3203V188.193H19.1234V176.452H-4.02885L-4.0329 176.448Z" fill="#545454"/>
<path d="M63.7307 121.089C59.6284 117.035 54.2989 115.006 47.6493 115.006C40.9996 115.006 35.3867 117.035 31.2398 121.089C27.0443 125.098 24.9668 130.897 24.9668 138.442V166.312C24.9668 173.808 27.0403 179.563 31.2398 183.616C35.3908 187.626 40.8579 189.655 47.6493 189.655C51.5654 189.655 55.1939 188.804 58.543 187.107C61.8922 185.41 64.6257 182.863 66.6992 179.47C68.7726 176.027 69.8134 171.641 69.8134 166.312V138.442C69.8134 130.897 67.7845 125.098 63.7307 121.089ZM55.5746 164.664C55.5746 166.928 55.3397 169.05 54.8659 170.937C54.3961 172.869 53.6388 174.428 52.4604 175.651C51.3264 176.829 49.7268 177.441 47.6493 177.441C44.3974 177.441 42.1781 176.262 40.9996 173.905C39.8212 171.5 39.2542 168.434 39.2542 164.664V140.05C39.2542 137.737 39.4446 135.615 39.9143 133.683C40.3841 131.752 41.1859 130.148 42.3685 128.97C43.5469 127.84 45.1992 127.224 47.3658 127.224C49.5324 127.224 51.1402 127.836 52.3186 128.97C53.4971 130.148 54.3475 131.752 54.8173 133.683C55.2871 135.615 55.5705 137.737 55.5705 140.05V164.664H55.5746Z" fill="#545454"/>
<path d="M117.491 157.257C118.103 155.985 118.621 154.9 119.046 153.908C119.516 152.915 119.799 152.304 119.941 152.02C121.354 148.862 122.488 145.513 123.29 142.07C124.043 138.628 124.42 135.279 124.376 132.072C124.376 128.82 123.857 125.94 122.865 123.348C121.921 120.801 120.411 118.772 118.386 117.266C116.357 115.755 113.717 115.051 110.465 115.095C106.832 115.188 103.722 116.65 101.175 119.53C98.6274 122.36 96.9306 126.131 96.1287 130.849C95.3755 134.902 95.2783 139.009 95.7966 143.156C96.315 147.307 97.3072 151.267 98.8137 155.038C100.276 158.763 102.021 162.064 104.001 164.846C103.483 165.741 102.73 167.11 101.738 168.855C100.701 170.601 99.5669 172.391 98.2467 174.185C96.9265 175.975 95.5577 177.437 94.0512 178.619C92.5407 179.798 91.0342 180.271 89.5722 179.988C87.7337 179.656 86.3203 178.149 85.3767 175.412C84.3845 172.678 83.8216 169.094 83.6313 164.708C83.4896 160.322 83.6799 155.467 84.2428 150.137C84.7611 144.808 85.6116 139.434 86.7415 133.914C87.8268 128.398 89.147 123.211 90.7507 118.258L82.3111 115.383C80.2376 121.797 78.5367 128.257 77.2165 134.813C75.8477 141.37 75.0013 147.639 74.6207 153.628C74.4303 156.362 74.3372 159.241 74.3858 162.351C74.3858 165.466 74.6207 168.527 75.0945 171.548C75.5642 174.565 76.3215 177.347 77.3583 179.895C78.395 182.442 79.7638 184.564 81.5538 186.309C83.2992 188.006 85.563 189.092 88.2966 189.468C90.7021 189.845 92.9659 189.517 95.1325 188.48C97.2545 187.443 99.2835 185.981 101.167 184.143C103.054 182.304 104.799 180.275 106.306 178.105C107.816 175.89 109.136 173.861 110.266 171.88C112.814 174.237 115.596 176.031 118.661 177.254L122.294 169.236C120.783 168.576 119.37 167.822 118.098 166.879C116.778 165.984 115.6 164.947 114.466 163.765C114.798 163.056 115.219 162.112 115.786 160.934C116.353 159.755 116.916 158.528 117.483 157.257H117.491ZM114.097 140.892C113.437 143.767 112.635 146.505 111.692 149.052C110.748 151.644 109.76 153.721 108.719 155.37C107.776 153.815 106.974 151.737 106.221 149.097C105.467 146.505 104.949 143.723 104.666 140.702C104.382 137.729 104.431 134.947 104.9 132.404C105.042 131.602 105.326 130.565 105.751 129.196C106.176 127.827 106.788 126.604 107.638 125.519C108.488 124.434 109.57 123.915 110.939 124.009C112.591 124.057 113.721 124.904 114.381 126.556C115.041 128.16 115.324 130.233 115.231 132.78C115.138 135.328 114.761 138.061 114.097 140.892Z" fill="#545454"/>
<path d="M166.157 128.301V116.561H128.762V188.193H166.157V176.452H143.005V156.836H162.856V145.095H143.005V128.309H166.157V128.301Z" fill="#545454"/>
<path d="M212.984 148.108C214.964 144.856 216.001 141.082 216.001 136.789C216.001 130.282 214.348 125.284 211.003 121.793C207.703 118.302 202.705 116.557 196.056 116.557H172.43V188.188H186.673V157.629H190.589C193.18 157.629 195.209 158.289 196.623 159.61C196.999 159.942 197.283 160.363 197.566 160.881C198.32 162.201 198.696 164.04 198.696 166.397V188.184H212.984V165.502C212.984 162.529 212.182 160.079 210.671 158.241C209.302 156.589 207.371 155.649 204.917 155.41C204.633 155.317 204.305 155.268 203.973 155.268V154.75C207.934 153.523 210.951 151.308 212.98 148.1L212.984 148.108ZM194.31 145.703H186.673V128.398H194.31C196.574 128.398 198.461 129.058 199.968 130.33C201.478 131.65 202.232 133.821 202.232 136.789C202.232 139.758 201.478 142.026 199.968 143.484C198.457 144.942 196.574 145.699 194.31 145.699V145.703Z" fill="#545454"/>
<path d="M292.958 139.243C291.78 139.292 290.601 139.434 289.423 139.527C289.188 137.595 288.763 135.283 288.244 132.691C287.677 130.099 286.831 127.503 285.746 124.912C284.616 122.364 283.15 120.149 281.311 118.355C279.521 116.516 277.209 115.431 274.378 115.103C271.406 114.771 268.623 115.245 266.08 116.472C263.533 117.744 261.225 119.538 259.147 121.846C257.074 124.203 255.186 126.892 253.534 129.864C251.882 132.881 250.42 135.947 249.148 139.154C247.877 142.362 246.791 145.379 245.941 148.254C244.054 154.572 242.592 161.177 241.555 168.061C240.518 174.994 240 181.689 240 188.196H249.007C249.007 184.046 249.29 179.567 249.857 174.804C250.469 170.042 251.27 165.279 252.311 160.468C253.348 155.612 254.575 151.036 256.037 146.606C257.45 142.22 259.054 138.308 260.799 134.91C262.589 131.468 264.432 128.779 266.364 126.847C268.344 124.867 270.373 123.923 272.446 124.017C273.957 124.065 275.18 124.77 276.221 126.139C277.213 127.507 278.011 129.204 278.626 131.185C279.286 133.165 279.756 135.145 280.088 137.081C280.372 139.061 280.607 140.616 280.748 141.795C279.898 142.127 279.051 142.504 278.25 142.925C277.448 143.35 276.646 143.775 275.844 144.245C271.883 146.46 268.441 149.574 265.517 153.628C262.593 157.637 260.471 161.881 259.244 166.312C258.491 169.236 258.159 172.208 258.252 175.177C258.394 178.101 258.961 180.834 259.998 183.333C260.99 185.787 262.496 187.767 264.432 189.274C266.368 190.78 268.769 191.538 271.551 191.631C274.427 191.679 276.881 191.064 278.91 189.792C280.89 188.52 282.587 186.82 283.907 184.746C285.276 182.624 286.313 180.312 287.114 177.813C287.868 175.359 288.483 172.909 288.86 170.455C289.237 168.001 289.52 165.834 289.71 163.854C289.852 161.922 289.945 160.46 290.042 159.468C290.374 155.835 290.468 152.158 290.326 148.525C291.221 148.384 292.213 148.291 293.201 148.193C294.238 148.1 295.275 148.052 296.409 148.145L296.502 139.138C295.323 139.138 294.145 139.187 292.966 139.231L292.958 139.243ZM281.169 158.249C281.028 161.408 280.7 164.664 280.181 168.057C279.712 170.698 279.096 173.152 278.391 175.509C277.683 177.821 276.788 179.704 275.658 181.024C274.572 182.345 273.204 182.912 271.555 182.628C270.328 182.438 269.385 181.778 268.725 180.648C268.065 179.469 267.639 178.149 267.453 176.687C267.263 175.177 267.218 173.812 267.36 172.585C267.83 168.248 269.247 164.238 271.604 160.464C274.01 156.69 277.261 153.673 281.412 151.457C281.412 152.826 281.364 155.09 281.178 158.249H281.169Z" fill="#545454"/>
<path d="M342.474 148.108C344.503 144.856 345.54 141.082 345.54 136.789C345.54 130.282 343.843 125.284 340.542 121.793C337.242 118.302 332.244 116.557 325.595 116.557H301.969V188.188H316.212V157.629H320.128C322.72 157.629 324.748 158.289 326.117 159.61C327.531 160.93 328.239 163.194 328.239 166.401V188.188H342.482V165.506C342.482 162.533 341.729 160.083 340.218 158.245C338.663 156.406 336.444 155.414 333.524 155.272V154.754C337.485 153.527 340.502 151.312 342.482 148.104L342.474 148.108ZM329.507 143.488C327.996 144.95 326.113 145.703 323.849 145.703H316.212V128.398H323.849C326.113 128.398 328 129.058 329.507 130.33C331.017 131.65 331.771 133.821 331.771 136.789C331.771 139.758 331.017 142.026 329.507 143.484V143.488Z" fill="#545454"/>
<path d="M348.557 116.561V128.301H364.873V188.189H379.116V128.301H395.339V116.561H348.561H348.557Z" fill="#545454"/>
<path d="M437.967 176.448V116.561H423.68V188.193H461.123V176.452H437.971L437.967 176.448Z" fill="#545454"/>
<path d="M505.731 121.089C501.628 117.035 496.299 115.006 489.649 115.006C483 115.006 477.387 117.035 473.24 121.089C469.044 125.098 466.967 130.897 466.967 138.442V166.312C466.967 173.808 469.04 179.563 473.24 183.616C477.391 187.626 482.858 189.655 489.649 189.655C493.565 189.655 497.194 188.804 500.543 187.107C503.892 185.41 506.626 182.863 508.699 179.47C510.773 176.027 511.813 171.641 511.813 166.312V138.442C511.813 130.897 509.785 125.098 505.731 121.089ZM497.575 164.664C497.575 166.928 497.34 169.05 496.866 170.937C496.396 172.869 495.639 174.428 494.46 175.651C493.326 176.829 491.727 177.441 489.649 177.441C486.397 177.441 484.178 176.262 483 173.905C481.821 171.5 481.254 168.434 481.254 164.664V140.05C481.254 137.737 481.445 135.615 481.914 133.683C482.384 131.752 483.186 130.148 484.368 128.97C485.547 127.84 487.199 127.224 489.366 127.224C491.532 127.224 493.14 127.836 494.319 128.97C495.497 130.148 496.348 131.752 496.817 133.683C497.287 135.615 497.571 137.737 497.571 140.05V164.664H497.575Z" fill="#545454"/>
<path d="M559.491 157.257C560.103 155.985 560.621 154.9 561.046 153.908C561.516 152.915 561.799 152.304 561.941 152.02C563.354 148.862 564.488 145.513 565.29 142.07C566.043 138.628 566.42 135.279 566.376 132.072C566.376 128.82 565.857 125.94 564.865 123.348C563.921 120.801 562.411 118.772 560.386 117.266C558.357 115.755 555.717 115.051 552.465 115.095C548.832 115.188 545.722 116.65 543.175 119.53C540.627 122.36 538.931 126.131 538.129 130.849C537.375 134.902 537.278 139.009 537.797 143.156C538.315 147.307 539.307 151.267 540.814 155.038C542.276 158.763 544.021 162.064 546.001 164.846C545.483 165.741 544.73 167.11 543.738 168.855C542.701 170.601 541.567 172.391 540.247 174.185C538.927 175.975 537.558 177.437 536.051 178.619C534.541 179.798 533.034 180.271 531.572 179.988C529.734 179.656 528.32 178.149 527.377 175.412C526.385 172.678 525.822 169.094 525.631 164.708C525.49 160.322 525.68 155.467 526.243 150.137C526.761 144.808 527.612 139.434 528.741 133.914C529.827 128.398 531.147 123.211 532.751 118.258L524.311 115.383C522.238 121.797 520.537 128.257 519.217 134.813C517.848 141.37 517.001 147.639 516.621 153.628C516.43 156.362 516.337 159.241 516.386 162.351C516.386 165.466 516.621 168.527 517.094 171.548C517.564 174.565 518.322 177.347 519.358 179.895C520.395 182.442 521.764 184.564 523.554 186.309C525.299 188.006 527.563 189.092 530.297 189.468C532.702 189.845 534.966 189.517 537.132 188.48C539.255 187.443 541.283 185.981 543.167 184.143C545.054 182.304 546.799 180.275 548.306 178.105C549.816 175.89 551.136 173.861 552.266 171.88C554.814 174.237 557.596 176.031 560.661 177.254L564.294 169.236C562.783 168.576 561.37 167.822 560.098 166.879C558.778 165.984 557.6 164.947 556.466 163.765C556.798 163.056 557.219 162.112 557.786 160.934C558.353 159.755 558.916 158.528 559.483 157.257H559.491ZM556.097 140.892C555.437 143.767 554.635 146.505 553.692 149.052C552.748 151.644 551.76 153.721 550.719 155.37C549.776 153.815 548.974 151.737 548.221 149.097C547.467 146.505 546.949 143.723 546.666 140.702C546.382 137.729 546.431 134.947 546.9 132.404C547.042 131.602 547.326 130.565 547.751 129.196C548.176 127.827 548.788 126.604 549.638 125.519C550.488 124.434 551.57 123.915 552.939 124.009C554.591 124.057 555.721 124.904 556.381 126.556C557.041 128.16 557.324 130.233 557.231 132.78C557.138 135.328 556.761 138.061 556.097 140.892Z" fill="#545454"/>
<path d="M608.157 128.301V116.561H570.762V188.193H608.157V176.452H585.005V156.836H604.856V145.095H585.005V128.309H608.157V128.301Z" fill="#545454"/>
<path d="M654.984 148.108C656.964 144.856 658.001 141.082 658.001 136.789C658.001 130.282 656.348 125.284 653.003 121.793C649.703 118.302 644.705 116.557 638.056 116.557H614.43V188.188H628.673V157.629H632.589C635.18 157.629 637.209 158.289 638.623 159.61C638.999 159.942 639.283 160.363 639.566 160.881C640.32 162.201 640.696 164.04 640.696 166.397V188.184H654.984V165.502C654.984 162.529 654.182 160.079 652.671 158.241C651.302 156.589 649.371 155.649 646.917 155.41C646.633 155.317 646.305 155.268 645.973 155.268V154.75C649.934 153.523 652.951 151.308 654.98 148.1L654.984 148.108ZM636.31 145.703H628.673V128.398H636.31C638.574 128.398 640.461 129.058 641.968 130.33C643.478 131.65 644.232 133.821 644.232 136.789C644.232 139.758 643.478 142.026 641.968 143.484C640.457 144.942 638.574 145.699 636.31 145.699V145.703Z" fill="#545454"/>
<path d="M734.958 139.243C733.78 139.292 732.601 139.434 731.423 139.527C731.188 137.595 730.763 135.283 730.244 132.691C729.677 130.099 728.831 127.503 727.746 124.912C726.616 122.364 725.15 120.149 723.311 118.355C721.521 116.516 719.209 115.431 716.378 115.103C713.406 114.771 710.623 115.245 708.08 116.472C705.533 117.744 703.225 119.538 701.147 121.846C699.074 124.203 697.186 126.892 695.534 129.864C693.882 132.881 692.42 135.947 691.148 139.154C689.877 142.362 688.791 145.379 687.941 148.254C686.054 154.572 684.592 161.177 683.555 168.061C682.518 174.994 682 181.689 682 188.196H691.007C691.007 184.046 691.29 179.567 691.857 174.804C692.469 170.042 693.27 165.279 694.311 160.468C695.348 155.612 696.575 151.036 698.037 146.606C699.45 142.22 701.054 138.308 702.799 134.91C704.589 131.468 706.432 128.779 708.364 126.847C710.344 124.867 712.373 123.923 714.446 124.017C715.957 124.065 717.18 124.77 718.221 126.139C719.213 127.507 720.011 129.204 720.626 131.185C721.286 133.165 721.756 135.145 722.088 137.081C722.372 139.061 722.607 140.616 722.748 141.795C721.898 142.127 721.051 142.504 720.25 142.925C719.448 143.35 718.646 143.775 717.844 144.245C713.883 146.46 710.441 149.574 707.517 153.628C704.593 157.637 702.471 161.881 701.244 166.312C700.491 169.236 700.159 172.208 700.252 175.177C700.394 178.101 700.961 180.834 701.998 183.333C702.99 185.787 704.496 187.767 706.432 189.274C708.368 190.78 710.769 191.538 713.551 191.631C716.427 191.679 718.881 191.064 720.91 189.792C722.89 188.52 724.587 186.82 725.907 184.746C727.276 182.624 728.313 180.312 729.114 177.813C729.868 175.359 730.483 172.909 730.86 170.455C731.237 168.001 731.52 165.834 731.71 163.854C731.852 161.922 731.945 160.46 732.042 159.468C732.374 155.835 732.468 152.158 732.326 148.525C733.221 148.384 734.213 148.291 735.201 148.193C736.238 148.1 737.275 148.052 738.409 148.145L738.502 139.138C737.323 139.138 736.145 139.187 734.966 139.231L734.958 139.243ZM723.169 158.249C723.028 161.408 722.7 164.664 722.181 168.057C721.712 170.698 721.096 173.152 720.391 175.509C719.683 177.821 718.788 179.704 717.658 181.024C716.572 182.345 715.204 182.912 713.555 182.628C712.328 182.438 711.385 181.778 710.725 180.648C710.065 179.469 709.639 178.149 709.453 176.687C709.263 175.177 709.218 173.812 709.36 172.585C709.83 168.248 711.247 164.238 713.604 160.464C716.01 156.69 719.261 153.673 723.412 151.457C723.412 152.826 723.364 155.09 723.178 158.249H723.169Z" fill="#545454"/>
<path d="M784.474 148.108C786.503 144.856 787.54 141.082 787.54 136.789C787.54 130.282 785.843 125.284 782.542 121.793C779.242 118.302 774.244 116.557 767.595 116.557H743.969V188.188H758.212V157.629H762.128C764.72 157.629 766.748 158.289 768.117 159.61C769.531 160.93 770.239 163.194 770.239 166.401V188.188H784.482V165.506C784.482 162.533 783.729 160.083 782.218 158.245C780.663 156.406 778.444 155.414 775.524 155.272V154.754C779.485 153.527 782.502 151.312 784.482 148.104L784.474 148.108ZM771.507 143.488C769.996 144.95 768.113 145.703 765.849 145.703H758.212V128.398H765.849C768.113 128.398 770 129.058 771.507 130.33C773.017 131.65 773.771 133.821 773.771 136.789C773.771 139.758 773.017 142.026 771.507 143.484V143.488Z" fill="#545454"/>
<path d="M790.557 116.561V128.301H806.873V188.189H821.116V128.301H837.339V116.561H790.561H790.557Z" fill="#545454"/>
<path d="M879.967 176.448V116.561H865.68V188.193H903.123V176.452H879.971L879.967 176.448Z" fill="#545454"/>
<path d="M947.731 121.089C943.628 117.035 938.299 115.006 931.649 115.006C925 115.006 919.387 117.035 915.24 121.089C911.044 125.098 908.967 130.897 908.967 138.442V166.312C908.967 173.808 911.04 179.563 915.24 183.616C919.391 187.626 924.858 189.655 931.649 189.655C935.565 189.655 939.194 188.804 942.543 187.107C945.892 185.41 948.626 182.863 950.699 179.47C952.773 176.027 953.813 171.641 953.813 166.312V138.442C953.813 130.897 951.785 125.098 947.731 121.089ZM939.575 164.664C939.575 166.928 939.34 169.05 938.866 170.937C938.396 172.869 937.639 174.428 936.46 175.651C935.326 176.829 933.727 177.441 931.649 177.441C928.397 177.441 926.178 176.262 925 173.905C923.821 171.5 923.254 168.434 923.254 164.664V140.05C923.254 137.737 923.445 135.615 923.914 133.683C924.384 131.752 925.186 130.148 926.368 128.97C927.547 127.84 929.199 127.224 931.366 127.224C933.532 127.224 935.14 127.836 936.319 128.97C937.497 130.148 938.348 131.752 938.817 133.683C939.287 135.615 939.571 137.737 939.571 140.05V164.664H939.575Z" fill="#545454"/>
<path d="M1001.49 157.257C1002.1 155.985 1002.62 154.9 1003.05 153.908C1003.52 152.915 1003.8 152.304 1003.94 152.02C1005.35 148.862 1006.49 145.513 1007.29 142.07C1008.04 138.628 1008.42 135.279 1008.38 132.072C1008.38 128.82 1007.86 125.94 1006.86 123.348C1005.92 120.801 1004.41 118.772 1002.39 117.266C1000.36 115.755 997.717 115.051 994.465 115.095C990.832 115.188 987.722 116.65 985.175 119.53C982.627 122.36 980.931 126.131 980.129 130.849C979.375 134.902 979.278 139.009 979.797 143.156C980.315 147.307 981.307 151.267 982.814 155.038C984.276 158.763 986.021 162.064 988.001 164.846C987.483 165.741 986.73 167.11 985.738 168.855C984.701 170.601 983.567 172.391 982.247 174.185C980.927 175.975 979.558 177.437 978.051 178.619C976.541 179.798 975.034 180.271 973.572 179.988C971.734 179.656 970.32 178.149 969.377 175.412C968.385 172.678 967.822 169.094 967.631 164.708C967.49 160.322 967.68 155.467 968.243 150.137C968.761 144.808 969.612 139.434 970.741 133.914C971.827 128.398 973.147 123.211 974.751 118.258L966.311 115.383C964.238 121.797 962.537 128.257 961.217 134.813C959.848 141.37 959.001 147.639 958.621 153.628C958.43 156.362 958.337 159.241 958.386 162.351C958.386 165.466 958.621 168.527 959.094 171.548C959.564 174.565 960.322 177.347 961.358 179.895C962.395 182.442 963.764 184.564 965.554 186.309C967.299 188.006 969.563 189.092 972.297 189.468C974.702 189.845 976.966 189.517 979.132 188.48C981.255 187.443 983.283 185.981 985.167 184.143C987.054 182.304 988.799 180.275 990.306 178.105C991.816 175.89 993.136 173.861 994.266 171.88C996.814 174.237 999.596 176.031 1002.66 177.254L1006.29 169.236C1004.78 168.576 1003.37 167.822 1002.1 166.879C1000.78 165.984 999.6 164.947 998.466 163.765C998.798 163.056 999.219 162.112 999.786 160.934C1000.35 159.755 1000.92 158.528 1001.48 157.257H1001.49ZM998.097 140.892C997.437 143.767 996.635 146.505 995.692 149.052C994.748 151.644 993.76 153.721 992.719 155.37C991.776 153.815 990.974 151.737 990.221 149.097C989.467 146.505 988.949 143.723 988.666 140.702C988.382 137.729 988.431 134.947 988.9 132.404C989.042 131.602 989.326 130.565 989.751 129.196C990.176 127.827 990.788 126.604 991.638 125.519C992.488 124.434 993.57 123.915 994.939 124.009C996.591 124.057 997.721 124.904 998.381 126.556C999.041 128.16 999.324 130.233 999.231 132.78C999.138 135.328 998.761 138.061 998.097 140.892Z" fill="#545454"/>
<path d="M1050.16 128.301V116.561H1012.76V188.193H1050.16V176.452H1027V156.836H1046.86V145.095H1027V128.309H1050.16V128.301Z" fill="#545454"/>
<path d="M1096.98 148.108C1098.96 144.856 1100 141.082 1100 136.789C1100 130.282 1098.35 125.284 1095 121.793C1091.7 118.302 1086.71 116.557 1080.06 116.557H1056.43V188.188H1070.67V157.629H1074.59C1077.18 157.629 1079.21 158.289 1080.62 159.61C1081 159.942 1081.28 160.363 1081.57 160.881C1082.32 162.201 1082.7 164.04 1082.7 166.397V188.184H1096.98V165.502C1096.98 162.529 1096.18 160.079 1094.67 158.241C1093.3 156.589 1091.37 155.649 1088.92 155.41C1088.63 155.317 1088.31 155.268 1087.97 155.268V154.75C1091.93 153.523 1094.95 151.308 1096.98 148.1L1096.98 148.108ZM1078.31 145.703H1070.67V128.398H1078.31C1080.57 128.398 1082.46 129.058 1083.97 130.33C1085.48 131.65 1086.23 133.821 1086.23 136.789C1086.23 139.758 1085.48 142.026 1083.97 143.484C1082.46 144.942 1080.57 145.699 1078.31 145.699V145.703Z" fill="#545454"/>
<path d="M52.9582 239.243C51.7797 239.292 50.6013 239.434 49.4228 239.527C49.1879 237.595 48.7627 235.283 48.2443 232.691C47.6774 230.099 46.831 227.503 45.7456 224.912C44.6158 222.364 43.1498 220.149 41.3112 218.355C39.5212 216.516 37.2088 215.431 34.3781 215.103C31.4056 214.771 28.6234 215.245 26.0802 216.472C23.5329 217.744 21.2246 219.538 19.1471 221.846C17.0736 224.203 15.1865 226.892 13.5342 229.864C11.8819 232.881 10.4199 235.947 9.14832 239.154C7.87671 242.362 6.79138 245.379 5.94094 248.254C4.05377 254.572 2.59182 261.177 1.55509 268.061C0.518364 274.994 0 281.689 0 288.196H9.00658C9.00658 284.046 9.29006 279.567 9.85702 274.804C10.4685 270.042 11.2704 265.279 12.3111 260.468C13.3479 255.612 14.5749 251.036 16.0369 246.606C17.4502 242.22 19.0539 238.308 20.7994 234.91C22.5893 231.468 24.432 228.779 26.3637 226.847C28.344 224.867 30.3729 223.923 32.4464 224.017C33.9569 224.065 35.1799 224.77 36.2207 226.139C37.2129 227.507 38.0107 229.204 38.6262 231.185C39.2863 233.165 39.7561 235.145 40.0882 237.081C40.3717 239.061 40.6066 240.616 40.7483 241.795C39.8979 242.127 39.0515 242.504 38.2496 242.925C37.4478 243.35 36.6459 243.775 35.8441 244.245C31.8835 246.46 28.4412 249.574 25.5173 253.628C22.5934 257.637 20.4713 261.881 19.2443 266.312C18.491 269.236 18.1589 272.208 18.2521 275.177C18.3938 278.101 18.9608 280.834 19.9975 283.333C20.9897 285.787 22.4962 287.767 24.432 289.274C26.3677 290.78 28.7692 291.538 31.5514 291.631C34.4267 291.679 36.8808 291.064 38.9097 289.792C40.89 288.52 42.5869 286.82 43.9071 284.746C45.2759 282.624 46.3126 280.312 47.1144 277.813C47.8677 275.359 48.4833 272.909 48.8599 270.455C49.2365 268.001 49.52 265.834 49.7103 263.854C49.8521 261.922 49.9452 260.46 50.0424 259.468C50.3745 255.835 50.4676 252.158 50.3259 248.525C51.2209 248.384 52.2131 248.291 53.2012 248.193C54.2379 248.1 55.2746 248.052 56.4086 248.145L56.5017 239.138C55.3232 239.138 54.1448 239.187 52.9663 239.231L52.9582 239.243ZM41.1695 258.249C41.0277 261.408 40.6997 264.664 40.1813 268.057C39.7116 270.698 39.096 273.152 38.3913 275.509C37.6827 277.821 36.7877 279.704 35.6578 281.024C34.5725 282.345 33.2037 282.912 31.5554 282.628C30.3284 282.438 29.3848 281.778 28.7247 280.648C28.0646 279.469 27.6393 278.149 27.4531 276.687C27.2627 275.177 27.2182 273.812 27.3599 272.585C27.8297 268.248 29.2471 264.238 31.604 260.464C34.0096 256.69 37.2615 253.673 41.4124 251.457C41.4124 252.826 41.3638 255.09 41.1776 258.249H41.1695Z" fill="#545454"/>
<path d="M102.474 248.108C104.503 244.856 105.54 241.082 105.54 236.789C105.54 230.282 103.843 225.284 100.542 221.793C97.2418 218.302 92.2445 216.557 85.5948 216.557H61.9688V288.188H76.2116V257.629H80.1277C82.7195 257.629 84.7484 258.289 86.1172 259.61C87.5306 260.93 88.2393 263.194 88.2393 266.401V288.188H102.482V265.506C102.482 262.533 101.729 260.083 100.218 258.245C98.6633 256.406 96.444 255.414 93.5242 255.272V254.754C97.4848 253.527 100.502 251.312 102.482 248.104L102.474 248.108ZM89.5068 243.488C87.9963 244.95 86.1132 245.703 83.8494 245.703H76.2116V228.398H83.8494C86.1132 228.398 88.0003 229.058 89.5068 230.33C91.0174 231.65 91.7706 233.821 91.7706 236.789C91.7706 239.758 91.0174 242.026 89.5068 243.484V243.488Z" fill="#545454"/>
<path d="M108.557 216.561V228.301H124.873V288.189H139.116V228.301H155.339V216.561H108.561H108.557Z" fill="#545454"/>
<path d="M197.967 276.448V216.561H183.68V288.193H221.123V276.452H197.971L197.967 276.448Z" fill="#545454"/>
<path d="M265.731 221.089C261.628 217.035 256.299 215.006 249.649 215.006C243 215.006 237.387 217.035 233.24 221.089C229.044 225.098 226.967 230.897 226.967 238.442V266.312C226.967 273.808 229.04 279.563 233.24 283.616C237.391 287.626 242.858 289.655 249.649 289.655C253.565 289.655 257.194 288.804 260.543 287.107C263.892 285.41 266.626 282.863 268.699 279.47C270.773 276.027 271.813 271.641 271.813 266.312V238.442C271.813 230.897 269.785 225.098 265.731 221.089ZM257.575 264.664C257.575 266.928 257.34 269.05 256.866 270.937C256.396 272.869 255.639 274.428 254.46 275.651C253.326 276.829 251.727 277.441 249.649 277.441C246.397 277.441 244.178 276.262 243 273.905C241.821 271.5 241.254 268.434 241.254 264.664V240.05C241.254 237.737 241.445 235.615 241.914 233.683C242.384 231.752 243.186 230.148 244.368 228.97C245.547 227.84 247.199 227.224 249.366 227.224C251.532 227.224 253.14 227.836 254.319 228.97C255.497 230.148 256.348 231.752 256.817 233.683C257.287 235.615 257.571 237.737 257.571 240.05V264.664H257.575Z" fill="#545454"/>
<path d="M319.491 257.257C320.103 255.985 320.621 254.9 321.046 253.908C321.516 252.915 321.799 252.304 321.941 252.02C323.354 248.862 324.488 245.513 325.29 242.07C326.043 238.628 326.42 235.279 326.376 232.072C326.376 228.82 325.857 225.94 324.865 223.348C323.921 220.801 322.411 218.772 320.386 217.266C318.357 215.755 315.717 215.051 312.465 215.095C308.832 215.188 305.722 216.65 303.175 219.53C300.627 222.36 298.931 226.131 298.129 230.849C297.375 234.902 297.278 239.009 297.797 243.156C298.315 247.307 299.307 251.267 300.814 255.038C302.276 258.763 304.021 262.064 306.001 264.846C305.483 265.741 304.73 267.11 303.738 268.855C302.701 270.601 301.567 272.391 300.247 274.185C298.927 275.975 297.558 277.437 296.051 278.619C294.541 279.798 293.034 280.271 291.572 279.988C289.734 279.656 288.32 278.149 287.377 275.412C286.385 272.678 285.822 269.094 285.631 264.708C285.49 260.322 285.68 255.467 286.243 250.137C286.761 244.808 287.612 239.434 288.741 233.914C289.827 228.398 291.147 223.211 292.751 218.258L284.311 215.383C282.238 221.797 280.537 228.257 279.217 234.813C277.848 241.37 277.001 247.639 276.621 253.628C276.43 256.362 276.337 259.241 276.386 262.351C276.386 265.466 276.621 268.527 277.094 271.548C277.564 274.565 278.322 277.347 279.358 279.895C280.395 282.442 281.764 284.564 283.554 286.309C285.299 288.006 287.563 289.092 290.297 289.468C292.702 289.845 294.966 289.517 297.132 288.48C299.255 287.443 301.283 285.981 303.167 284.143C305.054 282.304 306.799 280.275 308.306 278.105C309.816 275.89 311.136 273.861 312.266 271.88C314.814 274.237 317.596 276.031 320.661 277.254L324.294 269.236C322.783 268.576 321.37 267.822 320.098 266.879C318.778 265.984 317.6 264.947 316.466 263.765C316.798 263.056 317.219 262.112 317.786 260.934C318.353 259.755 318.916 258.528 319.483 257.257H319.491ZM316.097 240.892C315.437 243.767 314.635 246.505 313.692 249.052C312.748 251.644 311.76 253.721 310.719 255.37C309.776 253.815 308.974 251.737 308.221 249.097C307.467 246.505 306.949 243.723 306.666 240.702C306.382 237.729 306.431 234.947 306.9 232.404C307.042 231.602 307.326 230.565 307.751 229.196C308.176 227.827 308.788 226.604 309.638 225.519C310.488 224.434 311.57 223.915 312.939 224.009C314.591 224.057 315.721 224.904 316.381 226.556C317.041 228.16 317.324 230.233 317.231 232.78C317.138 235.328 316.761 238.061 316.097 240.892Z" fill="#545454"/>
<path d="M368.157 228.301V216.561H330.762V288.193H368.157V276.452H345.005V256.836H364.856V245.095H345.005V228.309H368.157V228.301Z" fill="#545454"/>
<path d="M414.984 248.108C416.964 244.856 418.001 241.082 418.001 236.789C418.001 230.282 416.348 225.284 413.003 221.793C409.703 218.302 404.705 216.557 398.056 216.557H374.43V288.188H388.673V257.629H392.589C395.18 257.629 397.209 258.289 398.623 259.61C398.999 259.942 399.283 260.363 399.566 260.881C400.32 262.201 400.696 264.04 400.696 266.397V288.184H414.984V265.502C414.984 262.529 414.182 260.079 412.671 258.241C411.302 256.589 409.371 255.649 406.917 255.41C406.633 255.317 406.305 255.268 405.973 255.268V254.75C409.934 253.523 412.951 251.308 414.98 248.1L414.984 248.108ZM396.31 245.703H388.673V228.398H396.31C398.574 228.398 400.461 229.058 401.968 230.33C403.478 231.65 404.232 233.821 404.232 236.789C404.232 239.758 403.478 242.026 401.968 243.484C400.457 244.942 398.574 245.699 396.31 245.699V245.703Z" fill="#545454"/>
<path d="M494.958 239.243C493.78 239.292 492.601 239.434 491.423 239.527C491.188 237.595 490.763 235.283 490.244 232.691C489.677 230.099 488.831 227.503 487.746 224.912C486.616 222.364 485.15 220.149 483.311 218.355C481.521 216.516 479.209 215.431 476.378 215.103C473.406 214.771 470.623 215.245 468.08 216.472C465.533 217.744 463.225 219.538 461.147 221.846C459.074 224.203 457.186 226.892 455.534 229.864C453.882 232.881 452.42 235.947 451.148 239.154C449.877 242.362 448.791 245.379 447.941 248.254C446.054 254.572 444.592 261.177 443.555 268.061C442.518 274.994 442 281.689 442 288.196H451.007C451.007 284.046 451.29 279.567 451.857 274.804C452.469 270.042 453.27 265.279 454.311 260.468C455.348 255.612 456.575 251.036 458.037 246.606C459.45 242.22 461.054 238.308 462.799 234.91C464.589 231.468 466.432 228.779 468.364 226.847C470.344 224.867 472.373 223.923 474.446 224.017C475.957 224.065 477.18 224.77 478.221 226.139C479.213 227.507 480.011 229.204 480.626 231.185C481.286 233.165 481.756 235.145 482.088 237.081C482.372 239.061 482.607 240.616 482.748 241.795C481.898 242.127 481.051 242.504 480.25 242.925C479.448 243.35 478.646 243.775 477.844 244.245C473.883 246.46 470.441 249.574 467.517 253.628C464.593 257.637 462.471 261.881 461.244 266.312C460.491 269.236 460.159 272.208 460.252 275.177C460.394 278.101 460.961 280.834 461.998 283.333C462.99 285.787 464.496 287.767 466.432 289.274C468.368 290.78 470.769 291.538 473.551 291.631C476.427 291.679 478.881 291.064 480.91 289.792C482.89 288.52 484.587 286.82 485.907 284.746C487.276 282.624 488.313 280.312 489.114 277.813C489.868 275.359 490.483 272.909 490.86 270.455C491.237 268.001 491.52 265.834 491.71 263.854C491.852 261.922 491.945 260.46 492.042 259.468C492.374 255.835 492.468 252.158 492.326 248.525C493.221 248.384 494.213 248.291 495.201 248.193C496.238 248.1 497.275 248.052 498.409 248.145L498.502 239.138C497.323 239.138 496.145 239.187 494.966 239.231L494.958 239.243ZM483.169 258.249C483.028 261.408 482.7 264.664 482.181 268.057C481.712 270.698 481.096 273.152 480.391 275.509C479.683 277.821 478.788 279.704 477.658 281.024C476.572 282.345 475.204 282.912 473.555 282.628C472.328 282.438 471.385 281.778 470.725 280.648C470.065 279.469 469.639 278.149 469.453 276.687C469.263 275.177 469.218 273.812 469.36 272.585C469.83 268.248 471.247 264.238 473.604 260.464C476.01 256.69 479.261 253.673 483.412 251.457C483.412 252.826 483.364 255.09 483.178 258.249H483.169Z" fill="#545454"/>
<path d="M544.474 248.108C546.503 244.856 547.54 241.082 547.54 236.789C547.54 230.282 545.843 225.284 542.542 221.793C539.242 218.302 534.244 216.557 527.595 216.557H503.969V288.188H518.212V257.629H522.128C524.72 257.629 526.748 258.289 528.117 259.61C529.531 260.93 530.239 263.194 530.239 266.401V288.188H544.482V265.506C544.482 262.533 543.729 260.083 542.218 258.245C540.663 256.406 538.444 255.414 535.524 255.272V254.754C539.485 253.527 542.502 251.312 544.482 248.104L544.474 248.108ZM531.507 243.488C529.996 244.95 528.113 245.703 525.849 245.703H518.212V228.398H525.849C528.113 228.398 530 229.058 531.507 230.33C533.017 231.65 533.771 233.821 533.771 236.789C533.771 239.758 533.017 242.026 531.507 243.484V243.488Z" fill="#545454"/>
<path d="M550.557 216.561V228.301H566.873V288.189H581.116V228.301H597.339V216.561H550.561H550.557Z" fill="#545454"/>
<path d="M639.967 276.448V216.561H625.68V288.193H663.123V276.452H639.971L639.967 276.448Z" fill="#545454"/>
<path d="M707.731 221.089C703.628 217.035 698.299 215.006 691.649 215.006C685 215.006 679.387 217.035 675.24 221.089C671.044 225.098 668.967 230.897 668.967 238.442V266.312C668.967 273.808 671.04 279.563 675.24 283.616C679.391 287.626 684.858 289.655 691.649 289.655C695.565 289.655 699.194 288.804 702.543 287.107C705.892 285.41 708.626 282.863 710.699 279.47C712.773 276.027 713.813 271.641 713.813 266.312V238.442C713.813 230.897 711.785 225.098 707.731 221.089ZM699.575 264.664C699.575 266.928 699.34 269.05 698.866 270.937C698.396 272.869 697.639 274.428 696.46 275.651C695.326 276.829 693.727 277.441 691.649 277.441C688.397 277.441 686.178 276.262 685 273.905C683.821 271.5 683.254 268.434 683.254 264.664V240.05C683.254 237.737 683.445 235.615 683.914 233.683C684.384 231.752 685.186 230.148 686.368 228.97C687.547 227.84 689.199 227.224 691.366 227.224C693.532 227.224 695.14 227.836 696.319 228.97C697.497 230.148 698.348 231.752 698.817 233.683C699.287 235.615 699.571 237.737 699.571 240.05V264.664H699.575Z" fill="#545454"/>
<path d="M761.491 257.257C762.103 255.985 762.621 254.9 763.046 253.908C763.516 252.915 763.799 252.304 763.941 252.02C765.354 248.862 766.488 245.513 767.29 242.07C768.043 238.628 768.42 235.279 768.376 232.072C768.376 228.82 767.857 225.94 766.865 223.348C765.921 220.801 764.411 218.772 762.386 217.266C760.357 215.755 757.717 215.051 754.465 215.095C750.832 215.188 747.722 216.65 745.175 219.53C742.627 222.36 740.931 226.131 740.129 230.849C739.375 234.902 739.278 239.009 739.797 243.156C740.315 247.307 741.307 251.267 742.814 255.038C744.276 258.763 746.021 262.064 748.001 264.846C747.483 265.741 746.73 267.11 745.738 268.855C744.701 270.601 743.567 272.391 742.247 274.185C740.927 275.975 739.558 277.437 738.051 278.619C736.541 279.798 735.034 280.271 733.572 279.988C731.734 279.656 730.32 278.149 729.377 275.412C728.385 272.678 727.822 269.094 727.631 264.708C727.49 260.322 727.68 255.467 728.243 250.137C728.761 244.808 729.612 239.434 730.741 233.914C731.827 228.398 733.147 223.211 734.751 218.258L726.311 215.383C724.238 221.797 722.537 228.257 721.217 234.813C719.848 241.37 719.001 247.639 718.621 253.628C718.43 256.362 718.337 259.241 718.386 262.351C718.386 265.466 718.621 268.527 719.094 271.548C719.564 274.565 720.322 277.347 721.358 279.895C722.395 282.442 723.764 284.564 725.554 286.309C727.299 288.006 729.563 289.092 732.297 289.468C734.702 289.845 736.966 289.517 739.132 288.48C741.255 287.443 743.283 285.981 745.167 284.143C747.054 282.304 748.799 280.275 750.306 278.105C751.816 275.89 753.136 273.861 754.266 271.88C756.814 274.237 759.596 276.031 762.661 277.254L766.294 269.236C764.783 268.576 763.37 267.822 762.098 266.879C760.778 265.984 759.6 264.947 758.466 263.765C758.798 263.056 759.219 262.112 759.786 260.934C760.353 259.755 760.916 258.528 761.483 257.257H761.491ZM758.097 240.892C757.437 243.767 756.635 246.505 755.692 249.052C754.748 251.644 753.76 253.721 752.719 255.37C751.776 253.815 750.974 251.737 750.221 249.097C749.467 246.505 748.949 243.723 748.666 240.702C748.382 237.729 748.431 234.947 748.9 232.404C749.042 231.602 749.326 230.565 749.751 229.196C750.176 227.827 750.788 226.604 751.638 225.519C752.488 224.434 753.57 223.915 754.939 224.009C756.591 224.057 757.721 224.904 758.381 226.556C759.041 228.16 759.324 230.233 759.231 232.78C759.138 235.328 758.761 238.061 758.097 240.892Z" fill="#545454"/>
<path d="M810.157 228.301V216.561H772.762V288.193H810.157V276.452H787.005V256.836H806.856V245.095H787.005V228.309H810.157V228.301Z" fill="#545454"/>
<path d="M856.984 248.108C858.964 244.856 860.001 241.082 860.001 236.789C860.001 230.282 858.348 225.284 855.003 221.793C851.703 218.302 846.705 216.557 840.056 216.557H816.43V288.188H830.673V257.629H834.589C837.18 257.629 839.209 258.289 840.623 259.61C840.999 259.942 841.283 260.363 841.566 260.881C842.32 262.201 842.696 264.04 842.696 266.397V288.184H856.984V265.502C856.984 262.529 856.182 260.079 854.671 258.241C853.302 256.589 851.371 255.649 848.917 255.41C848.633 255.317 848.305 255.268 847.973 255.268V254.75C851.934 253.523 854.951 251.308 856.98 248.1L856.984 248.108ZM838.31 245.703H830.673V228.398H838.31C840.574 228.398 842.461 229.058 843.968 230.33C845.478 231.65 846.232 233.821 846.232 236.789C846.232 239.758 845.478 242.026 843.968 243.484C842.457 244.942 840.574 245.699 838.31 245.699V245.703Z" fill="#545454"/>
<path d="M936.958 239.243C935.78 239.292 934.601 239.434 933.423 239.527C933.188 237.595 932.763 235.283 932.244 232.691C931.677 230.099 930.831 227.503 929.746 224.912C928.616 222.364 927.15 220.149 925.311 218.355C923.521 216.516 921.209 215.431 918.378 215.103C915.406 214.771 912.623 215.245 910.08 216.472C907.533 217.744 905.225 219.538 903.147 221.846C901.074 224.203 899.186 226.892 897.534 229.864C895.882 232.881 894.42 235.947 893.148 239.154C891.877 242.362 890.791 245.379 889.941 248.254C888.054 254.572 886.592 261.177 885.555 268.061C884.518 274.994 884 281.689 884 288.196H893.007C893.007 284.046 893.29 279.567 893.857 274.804C894.469 270.042 895.27 265.279 896.311 260.468C897.348 255.612 898.575 251.036 900.037 246.606C901.45 242.22 903.054 238.308 904.799 234.91C906.589 231.468 908.432 228.779 910.364 226.847C912.344 224.867 914.373 223.923 916.446 224.017C917.957 224.065 919.18 224.77 920.221 226.139C921.213 227.507 922.011 229.204 922.626 231.185C923.286 233.165 923.756 235.145 924.088 237.081C924.372 239.061 924.607 240.616 924.748 241.795C923.898 242.127 923.051 242.504 922.25 242.925C921.448 243.35 920.646 243.775 919.844 244.245C915.883 246.46 912.441 249.574 909.517 253.628C906.593 257.637 904.471 261.881 903.244 266.312C902.491 269.236 902.159 272.208 902.252 275.177C902.394 278.101 902.961 280.834 903.998 283.333C904.99 285.787 906.496 287.767 908.432 289.274C910.368 290.78 912.769 291.538 915.551 291.631C918.427 291.679 920.881 291.064 922.91 289.792C924.89 288.52 926.587 286.82 927.907 284.746C929.276 282.624 930.313 280.312 931.114 277.813C931.868 275.359 932.483 272.909 932.86 270.455C933.237 268.001 933.52 265.834 933.71 263.854C933.852 261.922 933.945 260.46 934.042 259.468C934.374 255.835 934.468 252.158 934.326 248.525C935.221 248.384 936.213 248.291 937.201 248.193C938.238 248.1 939.275 248.052 940.409 248.145L940.502 239.138C939.323 239.138 938.145 239.187 936.966 239.231L936.958 239.243ZM925.169 258.249C925.028 261.408 924.7 264.664 924.181 268.057C923.712 270.698 923.096 273.152 922.391 275.509C921.683 277.821 920.788 279.704 919.658 281.024C918.572 282.345 917.204 282.912 915.555 282.628C914.328 282.438 913.385 281.778 912.725 280.648C912.065 279.469 911.639 278.149 911.453 276.687C911.263 275.177 911.218 273.812 911.36 272.585C911.83 268.248 913.247 264.238 915.604 260.464C918.01 256.69 921.261 253.673 925.412 251.457C925.412 252.826 925.364 255.09 925.178 258.249H925.169Z" fill="#545454"/>
<path d="M986.474 248.108C988.503 244.856 989.54 241.082 989.54 236.789C989.54 230.282 987.843 225.284 984.542 221.793C981.242 218.302 976.244 216.557 969.595 216.557H945.969V288.188H960.212V257.629H964.128C966.72 257.629 968.748 258.289 970.117 259.61C971.531 260.93 972.239 263.194 972.239 266.401V288.188H986.482V265.506C986.482 262.533 985.729 260.083 984.218 258.245C982.663 256.406 980.444 255.414 977.524 255.272V254.754C981.485 253.527 984.502 251.312 986.482 248.104L986.474 248.108ZM973.507 243.488C971.996 244.95 970.113 245.703 967.849 245.703H960.212V228.398H967.849C970.113 228.398 972 229.058 973.507 230.33C975.017 231.65 975.771 233.821 975.771 236.789C975.771 239.758 975.017 242.026 973.507 243.484V243.488Z" fill="#545454"/>
<path d="M992.557 216.561V228.301H1008.87V288.189H1023.12V228.301H1039.34V216.561H992.561H992.557Z" fill="#545454"/>
<path d="M1081.97 276.448V216.561H1067.68V288.193H1105.12V276.452H1081.97L1081.97 276.448Z" fill="#545454"/>
<ellipse cx="550.5" cy="152.5" rx="373.5" ry="246.5" fill="#D88164"/>
</svg>
