<svg width="412" height="356" viewBox="0 0 412 356" fill="none" xmlns="http://www.w3.org/2000/svg">
<path d="M31.0146 113.079C44.809 102.431 59.8476 95.4115 76.1362 92.0222C92.425 88.6245 108.685 88.4106 124.927 91.379C141.158 94.3488 156.389 99.6928 170.638 107.421C184.882 115.147 196.86 124.592 206.548 135.752C220.943 152.829 230.342 172.647 234.789 195.195C239.218 217.741 236.963 239.766 228.006 261.276C226.325 265.564 224.514 269.859 222.535 274.199C220.569 278.512 218.278 282.766 215.704 286.944C221.721 289.696 229.999 293.154 240.538 297.328C251.084 301.487 262.407 305.13 274.518 308.262C286.624 311.382 298.249 312.899 309.401 312.79C320.54 312.683 329.884 309.825 337.384 304.222C347.726 296.337 353.114 285.913 353.547 272.932C353.975 259.956 350.57 245.315 343.326 229.024C336.094 212.732 325.823 195.701 312.526 177.957C299.222 160.209 284.014 142.623 266.895 125.211C249.757 107.798 231.691 91.3598 212.679 75.8858C193.654 60.4131 174.571 46.8957 155.416 35.3182L198.704 0.571026C228.622 18.6547 256.936 39.2958 283.644 62.5027C310.347 85.6976 333.663 109.72 353.591 134.571C362.678 145.797 371.49 158.307 380.035 172.08C388.574 185.85 395.732 200.106 401.508 214.849C407.26 229.587 410.523 244.244 411.259 258.816C411.989 273.384 409.079 287.297 402.534 300.55C395.978 313.804 384.745 325.776 368.83 336.455C353.843 346.373 337.766 352.327 320.61 354.317C303.448 356.303 286.29 355.862 269.136 353.003C251.976 350.133 236.088 346.151 221.454 341.065C206.82 335.962 194.388 331.212 184.16 326.797C179.105 331.69 173.917 336.493 168.566 341.206C163.209 345.924 157.712 350.541 152.064 355.075L111.24 329.738C116.874 325.634 121.897 321.503 126.304 317.327C130.73 313.144 134.817 309.118 138.615 305.234C121.23 295.601 104.942 285.104 89.7526 273.717C85.5779 270.748 79.3949 266.238 71.1977 260.185C63.0124 254.13 54.2412 246.958 44.8959 238.666C35.5568 230.369 27.0871 221.276 19.4692 211.384C11.8577 201.479 6.41367 191.014 3.12556 179.98C-0.168072 168.935 0.134361 157.745 4.01477 146.419C7.90128 135.087 16.8972 123.977 31.003 113.072L31.0146 113.079ZM138.774 149.743C133.712 145.799 127.263 142.133 119.446 138.721C111.618 135.311 103.524 133.286 95.1518 132.645C86.7862 131.992 79.1697 133.791 72.3145 138.033C63.2724 143.596 59.1459 150.38 59.9474 158.374C60.7492 166.36 64.8177 174.999 72.1355 184.28C79.4652 193.559 88.0105 202.698 97.7833 211.695C110.829 223.108 124.223 233.521 137.954 242.927C151.684 252.325 161.685 258.927 167.975 262.729C177.878 240.46 179.872 219.488 173.964 199.808C168.062 180.122 156.332 163.436 138.774 149.734L138.774 149.743Z" fill="#F6F5EA"/>
</svg>
