<svg width="121" height="79" viewBox="0 0 121 79" fill="none" xmlns="http://www.w3.org/2000/svg">
<path d="M30.81 70.8481C27.8269 67.8793 26.0737 64.7632 25.5517 61.4988C25.0269 58.2342 25.5413 55.0589 27.0948 51.9706C28.6484 48.8846 30.9417 46.0558 33.979 43.4811C37.0148 40.9074 40.5314 38.8206 44.5259 37.2251C50.6227 34.8677 57.4353 33.5559 64.9622 33.2814C72.4878 33.0103 79.6029 34.0286 86.3089 36.3398C87.6497 36.7801 88.9879 37.246 90.3347 37.7459C91.6732 38.2425 92.9808 38.8008 94.2534 39.4122C95.3688 38.3117 96.7963 36.7889 98.5385 34.844C100.277 32.8975 101.874 30.7859 103.332 28.5071C104.787 26.2292 105.7 24.0028 106.065 21.8261C106.43 19.6517 105.832 17.7552 104.271 16.1459C102.067 13.9226 98.8544 12.5985 94.6287 12.1729C90.4044 11.7487 85.4986 12.0279 79.9155 13.012C74.3323 13.9938 68.3989 15.5485 62.1235 17.6745C55.8467 19.8016 49.5543 22.3043 43.2504 25.1842C36.9452 28.0675 30.9251 31.1574 25.1861 34.4572C19.4471 37.7593 14.3448 41.1244 9.87377 44.5542L0.0763909 35.2029C7.05997 29.8456 14.8214 24.8684 23.3635 20.2715C31.9016 15.6754 40.5883 11.7614 49.4238 8.52945C53.4181 7.05294 57.8222 5.66367 62.6294 4.35977C67.4352 3.05691 72.3504 2.03616 77.3749 1.2975C82.3968 0.563284 87.3028 0.312432 92.0904 0.551749C96.8766 0.792109 101.318 1.72494 105.413 3.34893C109.507 4.97528 113.016 7.47955 115.933 10.8625C118.635 14.0446 120.002 17.3352 120.036 20.7319C120.068 24.1296 119.308 27.4628 117.757 30.7318C116.203 34.0015 114.331 36.9941 112.143 39.7133C109.95 42.432 107.951 44.7306 106.141 46.6086C107.558 47.7225 108.941 48.86 110.289 50.027C111.638 51.1954 112.948 52.3881 114.227 53.6083L104.482 60.9009C103.343 59.6949 102.174 58.6071 100.968 57.6382C99.7603 56.6657 98.5917 55.763 97.4592 54.9206C93.6872 58.0566 89.6722 60.956 85.4059 63.6179C84.2856 64.3537 82.59 65.4406 80.3177 66.8795C78.0454 68.3161 75.3867 69.8375 72.3416 71.4414C69.2952 73.044 66.0199 74.4562 62.5143 75.6814C59.0046 76.905 55.3896 77.6913 51.6664 78.0424C47.9392 78.3943 44.2942 78.0414 40.7329 76.9873C37.1701 75.932 33.8634 73.8865 30.8073 70.8502L30.81 70.8481ZM46.6614 50.8046C45.191 51.6879 43.7614 52.8487 42.366 54.2828C40.9705 55.7193 40.0178 57.244 39.5078 58.8592C38.9936 60.4728 39.3077 62.0048 40.4473 63.4526C41.9401 65.3615 44.0083 66.3441 46.6491 66.3979C49.2871 66.4514 52.2558 65.8852 55.5511 64.7025C58.8464 63.5175 62.1393 62.0917 65.43 60.423C69.6277 58.1796 73.5112 55.8421 77.0779 53.4127C80.6418 50.9829 83.1585 49.2067 84.6267 48.0805C77.7067 45.565 70.9261 44.6253 64.2836 45.2599C57.6397 45.8932 51.7666 47.7416 46.6587 50.8044L46.6614 50.8046Z" fill="#F6F5EA"/>
</svg>
