<svg width="350" height="366" viewBox="0 0 350 366" fill="none" xmlns="http://www.w3.org/2000/svg">
<path d="M286.653 318.97C268.525 324.034 251.176 325.39 234.603 323.033C218.025 320.683 203.149 315.452 189.964 307.337C176.789 299.225 165.772 289.29 156.901 277.518C148.034 265.752 142.129 253.179 139.205 239.813C135.122 219.505 137.016 198.375 144.844 176.418C152.687 154.469 166.325 135.223 185.778 118.682C189.56 115.349 193.465 112.054 197.546 108.774C201.601 105.514 205.92 102.415 210.455 99.4806C206.441 94.9742 200.745 89.0719 193.371 81.7662C185.985 74.4704 177.621 67.3851 168.272 60.4999C158.923 53.6275 149.165 48.3715 138.983 44.7495C128.812 41.1302 118.824 40.6074 109.066 43.1921C95.5263 46.9 85.1487 54.5673 77.9239 66.2092C70.7073 77.8486 66.0946 92.2778 64.0988 109.487C62.0914 126.693 62.4544 145.583 65.1903 166.131C67.9296 186.685 72.4837 207.727 78.8652 229.248C85.2618 250.777 93.0148 271.731 102.134 292.124C111.266 312.521 121.48 331.162 132.779 348.065L75.1896 365.171C57.5408 338.769 42.695 310.58 30.657 280.597C18.6177 250.627 10.0897 221.035 5.07297 191.822C2.72967 178.598 1.31154 164.298 0.801084 148.942C0.294061 133.59 1.29754 118.257 3.81152 102.944C6.34391 87.6431 11.0951 73.2466 18.0951 59.7699C25.0985 46.2983 35.0625 34.6367 47.9789 24.7875C60.9068 14.9411 77.4063 7.81857 97.476 3.43269C116.303 -0.571725 134.034 -0.613599 150.658 3.30433C167.286 7.22739 182.633 13.3524 196.704 21.6719C210.774 30.004 223.105 38.9204 233.716 48.4216C244.317 57.9378 253.105 66.3989 260.069 73.82C267.233 71.0643 274.471 68.4343 281.81 65.9405C289.158 63.4443 296.578 61.0864 304.092 58.8544L327.826 95.4806C320.551 97.3277 313.816 99.4019 307.617 101.723C301.397 104.045 295.567 106.336 290.074 108.596C300.791 123.143 310.055 138.108 317.855 153.516C320.083 157.605 323.324 163.763 327.581 171.994C331.827 180.222 336.016 189.662 340.138 200.309C344.251 210.958 347.156 222.041 348.868 233.564C350.567 245.096 350.002 256.415 347.181 267.531C344.359 278.659 338.196 288.717 328.713 297.707C319.22 306.699 305.206 313.785 286.659 318.98L286.653 318.97ZM208.105 249.724C210.626 254.994 214.551 260.475 219.853 266.18C225.167 271.888 231.45 276.428 238.715 279.803C245.967 283.188 253.829 284.096 262.285 282.532C273.423 280.497 280.74 275.715 284.219 268.189C287.693 260.67 288.545 251.469 286.785 240.6C285.013 229.729 282.064 218.58 277.925 207.151C272.085 192.435 265.404 178.511 257.887 165.389C250.365 152.275 244.759 142.943 241.049 137.392C220.339 154.307 207.492 172.684 202.499 192.525C197.498 212.368 199.368 231.432 208.1 249.732L208.105 249.724Z" fill="#F6F5EA"/>
</svg>
