<svg width="786" height="196" viewBox="0 0 786 196" fill="none" xmlns="http://www.w3.org/2000/svg">
<g clip-path="url(#clip0_456_970)">
<rect y="-711" width="1184" height="907.272" rx="453.636" fill="#D88164"/>
<path d="M211.958 143.243C210.78 143.292 209.601 143.434 208.423 143.527C208.188 141.595 207.763 139.283 207.244 136.691C206.677 134.099 205.831 131.503 204.746 128.912C203.616 126.364 202.15 124.149 200.311 122.355C198.521 120.516 196.209 119.431 193.378 119.103C190.406 118.771 187.623 119.245 185.08 120.472C182.533 121.744 180.225 123.538 178.147 125.846C176.074 128.203 174.186 130.892 172.534 133.864C170.882 136.881 169.42 139.947 168.148 143.154C166.877 146.362 165.791 149.379 164.941 152.254C163.054 158.572 161.592 165.177 160.555 172.061C159.518 178.994 159 185.689 159 192.196H168.007C168.007 188.046 168.29 183.567 168.857 178.804C169.469 174.042 170.27 169.279 171.311 164.468C172.348 159.612 173.575 155.036 175.037 150.606C176.45 146.22 178.054 142.308 179.799 138.91C181.589 135.468 183.432 132.779 185.364 130.847C187.344 128.867 189.373 127.923 191.446 128.017C192.957 128.065 194.18 128.77 195.221 130.139C196.213 131.507 197.011 133.204 197.626 135.185C198.286 137.165 198.756 139.145 199.088 141.081C199.372 143.061 199.607 144.616 199.748 145.795C198.898 146.127 198.051 146.504 197.25 146.925C196.448 147.35 195.646 147.775 194.844 148.245C190.883 150.46 187.441 153.574 184.517 157.628C181.593 161.637 179.471 165.881 178.244 170.312C177.491 173.236 177.159 176.208 177.252 179.177C177.394 182.101 177.961 184.834 178.998 187.333C179.99 189.787 181.496 191.767 183.432 193.274C185.368 194.78 187.769 195.538 190.551 195.631C193.427 195.679 195.881 195.064 197.91 193.792C199.89 192.52 201.587 190.82 202.907 188.746C204.276 186.624 205.313 184.312 206.114 181.813C206.868 179.359 207.483 176.909 207.86 174.455C208.237 172.001 208.52 169.834 208.71 167.854C208.852 165.922 208.945 164.46 209.042 163.468C209.374 159.835 209.468 156.158 209.326 152.525C210.221 152.384 211.213 152.291 212.201 152.193C213.238 152.1 214.275 152.052 215.409 152.145L215.502 143.138C214.323 143.138 213.145 143.187 211.966 143.231L211.958 143.243ZM200.169 162.249C200.028 165.408 199.7 168.664 199.181 172.057C198.712 174.698 198.096 177.152 197.391 179.509C196.683 181.821 195.788 183.704 194.658 185.024C193.572 186.345 192.204 186.912 190.555 186.628C189.328 186.438 188.385 185.778 187.725 184.648C187.065 183.469 186.639 182.149 186.453 180.687C186.263 179.177 186.218 177.812 186.36 176.585C186.83 172.248 188.247 168.238 190.604 164.464C193.01 160.69 196.261 157.673 200.412 155.457C200.412 156.826 200.364 159.09 200.178 162.249H200.169Z" fill="#E99C82"/>
<path d="M261.474 152.108C263.503 148.856 264.54 145.082 264.54 140.789C264.54 134.282 262.843 129.284 259.542 125.793C256.242 122.302 251.244 120.557 244.595 120.557H220.969V192.188H235.212V161.629H239.128C241.72 161.629 243.748 162.289 245.117 163.61C246.531 164.93 247.239 167.194 247.239 170.401V192.188H261.482V169.506C261.482 166.533 260.729 164.083 259.218 162.245C257.663 160.406 255.444 159.414 252.524 159.272V158.754C256.485 157.527 259.502 155.312 261.482 152.104L261.474 152.108ZM248.507 147.488C246.996 148.95 245.113 149.703 242.849 149.703H235.212V132.398H242.849C245.113 132.398 247 133.058 248.507 134.33C250.017 135.65 250.771 137.821 250.771 140.789C250.771 143.758 250.017 146.026 248.507 147.484V147.488Z" fill="#E99C82"/>
<path d="M267.557 120.561V132.301H283.873V192.189H298.116V132.301H314.339V120.561H267.561H267.557Z" fill="#E99C82"/>
<path d="M356.967 180.448V120.561H342.68V192.193H380.123V180.452H356.971L356.967 180.448Z" fill="#E99C82"/>
<path d="M424.731 125.089C420.628 121.035 415.299 119.006 408.649 119.006C402 119.006 396.387 121.035 392.24 125.089C388.044 129.098 385.967 134.897 385.967 142.442V170.312C385.967 177.808 388.04 183.563 392.24 187.616C396.391 191.626 401.858 193.655 408.649 193.655C412.565 193.655 416.194 192.804 419.543 191.107C422.892 189.41 425.626 186.863 427.699 183.47C429.773 180.027 430.813 175.641 430.813 170.312V142.442C430.813 134.897 428.785 129.098 424.731 125.089ZM416.575 168.664C416.575 170.928 416.34 173.05 415.866 174.937C415.396 176.869 414.639 178.428 413.46 179.651C412.326 180.829 410.727 181.441 408.649 181.441C405.397 181.441 403.178 180.262 402 177.905C400.821 175.5 400.254 172.434 400.254 168.664V144.05C400.254 141.737 400.445 139.615 400.914 137.683C401.384 135.752 402.186 134.148 403.368 132.97C404.547 131.84 406.199 131.224 408.366 131.224C410.532 131.224 412.14 131.836 413.319 132.97C414.497 134.148 415.348 135.752 415.817 137.683C416.287 139.615 416.571 141.737 416.571 144.05V168.664H416.575Z" fill="#E99C82"/>
<path d="M478.491 161.257C479.103 159.985 479.621 158.9 480.046 157.908C480.516 156.915 480.799 156.304 480.941 156.02C482.354 152.862 483.488 149.513 484.29 146.07C485.043 142.628 485.42 139.279 485.376 136.072C485.376 132.82 484.857 129.94 483.865 127.348C482.921 124.801 481.411 122.772 479.386 121.266C477.357 119.755 474.717 119.051 471.465 119.095C467.832 119.188 464.722 120.65 462.175 123.53C459.627 126.36 457.931 130.131 457.129 134.849C456.375 138.902 456.278 143.009 456.797 147.156C457.315 151.307 458.307 155.267 459.814 159.038C461.276 162.763 463.021 166.064 465.001 168.846C464.483 169.741 463.73 171.11 462.738 172.855C461.701 174.601 460.567 176.391 459.247 178.185C457.927 179.975 456.558 181.437 455.051 182.619C453.541 183.798 452.034 184.271 450.572 183.988C448.734 183.656 447.32 182.149 446.377 179.412C445.385 176.678 444.822 173.094 444.631 168.708C444.49 164.322 444.68 159.467 445.243 154.137C445.761 148.808 446.612 143.434 447.741 137.914C448.827 132.398 450.147 127.211 451.751 122.258L443.311 119.383C441.238 125.797 439.537 132.257 438.217 138.813C436.848 145.37 436.001 151.639 435.621 157.628C435.43 160.362 435.337 163.241 435.386 166.351C435.386 169.466 435.621 172.527 436.094 175.548C436.564 178.565 437.322 181.347 438.358 183.895C439.395 186.442 440.764 188.564 442.554 190.309C444.299 192.006 446.563 193.092 449.297 193.468C451.702 193.845 453.966 193.517 456.132 192.48C458.255 191.443 460.283 189.981 462.167 188.143C464.054 186.304 465.799 184.275 467.306 182.105C468.816 179.89 470.136 177.861 471.266 175.88C473.814 178.237 476.596 180.031 479.661 181.254L483.294 173.236C481.783 172.576 480.37 171.822 479.098 170.879C477.778 169.984 476.6 168.947 475.466 167.765C475.798 167.056 476.219 166.112 476.786 164.934C477.353 163.755 477.916 162.528 478.483 161.257H478.491ZM475.097 144.892C474.437 147.767 473.635 150.505 472.692 153.052C471.748 155.644 470.76 157.721 469.719 159.37C468.776 157.815 467.974 155.737 467.221 153.097C466.467 150.505 465.949 147.723 465.666 144.702C465.382 141.729 465.431 138.947 465.9 136.404C466.042 135.602 466.326 134.565 466.751 133.196C467.176 131.827 467.788 130.604 468.638 129.519C469.488 128.434 470.57 127.915 471.939 128.009C473.591 128.057 474.721 128.904 475.381 130.556C476.041 132.16 476.324 134.233 476.231 136.78C476.138 139.328 475.761 142.061 475.097 144.892Z" fill="#E99C82"/>
<path d="M527.157 132.301V120.561H489.762V192.193H527.157V180.452H504.005V160.836H523.856V149.095H504.005V132.309H527.157V132.301Z" fill="#E99C82"/>
<path d="M573.984 152.108C575.964 148.856 577.001 145.082 577.001 140.789C577.001 134.282 575.348 129.284 572.003 125.793C568.703 122.302 563.705 120.557 557.056 120.557H533.43V192.188H547.673V161.629H551.589C554.18 161.629 556.209 162.289 557.623 163.61C557.999 163.942 558.283 164.363 558.566 164.881C559.32 166.201 559.696 168.04 559.696 170.397V192.184H573.984V169.502C573.984 166.529 573.182 164.079 571.671 162.241C570.302 160.589 568.371 159.649 565.917 159.41C565.633 159.317 565.305 159.268 564.973 159.268V158.75C568.934 157.523 571.951 155.308 573.98 152.1L573.984 152.108ZM555.31 149.703H547.673V132.398H555.31C557.574 132.398 559.461 133.058 560.968 134.33C562.478 135.65 563.232 137.821 563.232 140.789C563.232 143.758 562.478 146.026 560.968 147.484C559.457 148.942 557.574 149.699 555.31 149.699V149.703Z" fill="#E99C82"/>
<path d="M660.958 143.243C659.78 143.292 658.601 143.434 657.423 143.527C657.188 141.595 656.763 139.283 656.244 136.691C655.677 134.099 654.831 131.503 653.746 128.912C652.616 126.364 651.15 124.149 649.311 122.355C647.521 120.516 645.209 119.431 642.378 119.103C639.406 118.771 636.623 119.245 634.08 120.472C631.533 121.744 629.225 123.538 627.147 125.846C625.074 128.203 623.186 130.892 621.534 133.864C619.882 136.881 618.42 139.947 617.148 143.154C615.877 146.362 614.791 149.379 613.941 152.254C612.054 158.572 610.592 165.177 609.555 172.061C608.518 178.994 608 185.689 608 192.196H617.007C617.007 188.046 617.29 183.567 617.857 178.804C618.469 174.042 619.27 169.279 620.311 164.468C621.348 159.612 622.575 155.036 624.037 150.606C625.45 146.22 627.054 142.308 628.799 138.91C630.589 135.468 632.432 132.779 634.364 130.847C636.344 128.867 638.373 127.923 640.446 128.017C641.957 128.065 643.18 128.77 644.221 130.139C645.213 131.507 646.011 133.204 646.626 135.185C647.286 137.165 647.756 139.145 648.088 141.081C648.372 143.061 648.607 144.616 648.748 145.795C647.898 146.127 647.051 146.504 646.25 146.925C645.448 147.35 644.646 147.775 643.844 148.245C639.883 150.46 636.441 153.574 633.517 157.628C630.593 161.637 628.471 165.881 627.244 170.312C626.491 173.236 626.159 176.208 626.252 179.177C626.394 182.101 626.961 184.834 627.998 187.333C628.99 189.787 630.496 191.767 632.432 193.274C634.368 194.78 636.769 195.538 639.551 195.631C642.427 195.679 644.881 195.064 646.91 193.792C648.89 192.52 650.587 190.82 651.907 188.746C653.276 186.624 654.313 184.312 655.114 181.813C655.868 179.359 656.483 176.909 656.86 174.455C657.237 172.001 657.52 169.834 657.71 167.854C657.852 165.922 657.945 164.46 658.042 163.468C658.374 159.835 658.468 156.158 658.326 152.525C659.221 152.384 660.213 152.291 661.201 152.193C662.238 152.1 663.275 152.052 664.409 152.145L664.502 143.138C663.323 143.138 662.145 143.187 660.966 143.231L660.958 143.243ZM649.169 162.249C649.028 165.408 648.7 168.664 648.181 172.057C647.712 174.698 647.096 177.152 646.391 179.509C645.683 181.821 644.788 183.704 643.658 185.024C642.572 186.345 641.204 186.912 639.555 186.628C638.328 186.438 637.385 185.778 636.725 184.648C636.065 183.469 635.639 182.149 635.453 180.687C635.263 179.177 635.218 177.812 635.36 176.585C635.83 172.248 637.247 168.238 639.604 164.464C642.01 160.69 645.261 157.673 649.412 155.457C649.412 156.826 649.364 159.09 649.178 162.249H649.169Z" fill="#E99C82"/>
<path d="M710.474 152.108C712.503 148.856 713.54 145.082 713.54 140.789C713.54 134.282 711.843 129.284 708.542 125.793C705.242 122.302 700.244 120.557 693.595 120.557H669.969V192.188H684.212V161.629H688.128C690.72 161.629 692.748 162.289 694.117 163.61C695.531 164.93 696.239 167.194 696.239 170.401V192.188H710.482V169.506C710.482 166.533 709.729 164.083 708.218 162.245C706.663 160.406 704.444 159.414 701.524 159.272V158.754C705.485 157.527 708.502 155.312 710.482 152.104L710.474 152.108ZM697.507 147.488C695.996 148.95 694.113 149.703 691.849 149.703H684.212V132.398H691.849C694.113 132.398 696 133.058 697.507 134.33C699.017 135.65 699.771 137.821 699.771 140.789C699.771 143.758 699.017 146.026 697.507 147.484V147.488Z" fill="#E99C82"/>
<path d="M716.557 120.561V132.301H732.873V192.189H747.116V132.301H763.339V120.561H716.561H716.557Z" fill="#E99C82"/>
<path d="M157.958 43.2435C156.78 43.2921 155.601 43.4338 154.423 43.527C154.188 41.5952 153.763 39.2828 153.244 36.691C152.677 34.0992 151.831 31.5033 150.746 28.9115C149.616 26.3642 148.15 24.149 146.311 22.355C144.521 20.5164 142.209 19.4311 139.378 19.1031C136.406 18.771 133.623 19.2448 131.08 20.4719C128.533 21.7435 126.225 23.5375 124.147 25.8459C122.074 28.2028 120.186 30.8918 118.534 33.8643C116.882 36.8814 115.42 39.947 114.148 43.1544C112.877 46.3618 111.791 49.3788 110.941 52.2541C109.054 58.5717 107.592 65.1768 106.555 72.0613C105.518 78.9944 105 85.6886 105 92.1965H114.007C114.007 88.0455 114.29 83.5665 114.857 78.8041C115.469 74.0416 116.27 69.2791 117.311 64.4681C118.348 59.6125 119.575 55.0363 121.037 50.6059C122.45 46.22 124.054 42.308 125.799 38.9103C127.589 35.468 129.432 32.779 131.364 30.8473C133.344 28.867 135.373 27.9234 137.446 28.0165C138.957 28.0651 140.18 28.7698 141.221 30.1386C142.213 31.5074 143.011 33.2042 143.626 35.1845C144.286 37.1649 144.756 39.1452 145.088 41.0809C145.372 43.0612 145.607 44.6163 145.748 45.7948C144.898 46.1269 144.051 46.5035 143.25 46.9247C142.448 47.3499 141.646 47.7751 140.844 48.2449C136.883 50.4601 133.441 53.5743 130.517 57.6281C127.593 61.6373 125.471 65.8814 124.244 70.3118C123.491 73.2357 123.159 76.2082 123.252 79.1766C123.394 82.1005 123.961 84.8341 124.998 87.3328C125.99 89.7869 127.496 91.7672 129.432 93.2737C131.368 94.7802 133.769 95.5375 136.551 95.6306C139.427 95.6792 141.881 95.0637 143.91 93.7921C145.89 92.5205 147.587 90.8196 148.907 88.7461C150.276 86.6241 151.313 84.3117 152.114 81.813C152.868 79.3589 153.483 76.9088 153.86 74.4547C154.237 72.0005 154.52 69.8339 154.71 67.8536C154.852 65.9219 154.945 64.46 155.042 63.4678C155.374 59.8352 155.468 56.158 155.326 52.5254C156.221 52.3837 157.213 52.2906 158.201 52.1934C159.238 52.1002 160.275 52.0516 161.409 52.1447L161.502 43.1382C160.323 43.1382 159.145 43.1868 157.966 43.2313L157.958 43.2435ZM146.169 62.2488C146.028 65.4076 145.7 68.6636 145.181 72.0572C144.712 74.6977 144.096 77.1518 143.391 79.5087C142.683 81.8211 141.788 83.7042 140.658 85.0244C139.572 86.3446 138.204 86.9116 136.555 86.6281C135.328 86.4378 134.385 85.7777 133.725 84.6478C133.065 83.4693 132.639 82.1491 132.453 80.6872C132.263 79.1766 132.218 77.8119 132.36 76.5848C132.83 72.2476 134.247 68.2384 136.604 64.464C139.01 60.6897 142.261 57.6726 146.412 55.4574C146.412 56.8262 146.364 59.09 146.178 62.2488H146.169Z" fill="#E99C82"/>
<path d="M207.474 52.1084C209.503 48.8565 210.54 45.0821 210.54 40.7894C210.54 34.2815 208.843 29.2842 205.542 25.7933C202.242 22.3024 197.244 20.557 190.595 20.557H166.969V92.1884H181.212V61.6293H185.128C187.72 61.6293 189.748 62.2894 191.117 63.6096C192.531 64.9298 193.239 67.1936 193.239 70.401V92.1884H207.482V69.506C207.482 66.5335 206.729 64.0834 205.218 62.2448C203.663 60.4062 201.444 59.4141 198.524 59.2723V58.754C202.485 57.5269 205.502 55.3117 207.482 52.1043L207.474 52.1084ZM194.507 47.4876C192.996 48.9496 191.113 49.7028 188.849 49.7028H181.212V32.3984H188.849C191.113 32.3984 193 33.0585 194.507 34.3301C196.017 35.6503 196.771 37.821 196.771 40.7894C196.771 43.7579 196.017 46.0257 194.507 47.4836V47.4876Z" fill="#E99C82"/>
<path d="M213.557 20.5612V32.3013H229.873V92.1885H244.116V32.3013H260.339V20.5612H213.561H213.557Z" fill="#E99C82"/>
<path d="M302.967 80.4484V20.5612H288.68V92.1926H326.123V80.4525H302.971L302.967 80.4484Z" fill="#E99C82"/>
<path d="M370.731 25.0888C366.628 21.035 361.299 19.0061 354.649 19.0061C348 19.0061 342.387 21.035 338.24 25.0888C334.044 29.098 331.967 34.8972 331.967 42.4418V70.312C331.967 77.8081 334.04 83.5627 338.24 87.6165C342.391 91.6257 347.858 93.6546 354.649 93.6546C358.565 93.6546 362.194 92.8042 365.543 91.1073C368.892 89.4105 371.626 86.8632 373.699 83.4696C375.773 80.0273 376.813 75.6415 376.813 70.312V42.4418C376.813 34.8972 374.785 29.098 370.731 25.0888ZM362.575 68.6638C362.575 70.9276 362.34 73.0496 361.866 74.9368C361.396 76.8685 360.639 78.4277 359.46 79.6507C358.326 80.8291 356.727 81.4407 354.649 81.4407C351.397 81.4407 349.178 80.2622 348 77.9053C346.821 75.4997 346.254 72.4341 346.254 68.6638V44.0496C346.254 41.7372 346.445 39.6151 346.914 37.6834C347.384 35.7517 348.186 34.148 349.368 32.9695C350.547 31.8397 352.199 31.2241 354.366 31.2241C356.532 31.2241 358.14 31.8356 359.319 32.9695C360.497 34.148 361.348 35.7517 361.817 37.6834C362.287 39.6151 362.571 41.7372 362.571 44.0496V68.6638H362.575Z" fill="#E99C82"/>
<path d="M424.491 61.2568C425.103 59.9851 425.621 58.8998 426.046 57.9077C426.516 56.9155 426.799 56.304 426.941 56.0205C428.354 52.8617 429.488 49.5126 430.29 46.0703C431.043 42.628 431.42 39.2789 431.376 36.0715C431.376 32.8196 430.857 29.9403 429.865 27.3485C428.921 24.8012 427.411 22.7723 425.386 21.2658C423.357 19.7552 420.717 19.0506 417.465 19.0951C413.832 19.1883 410.722 20.6502 408.175 23.5296C405.627 26.3603 403.931 30.1306 403.129 34.8485C402.375 38.9023 402.278 43.0087 402.797 47.1557C403.315 51.3066 404.307 55.2672 405.814 59.0375C407.276 62.7633 409.021 66.0638 411.001 68.846C410.483 69.7409 409.73 71.1097 408.738 72.8552C407.701 74.6006 406.567 76.3906 405.247 78.1846C403.927 79.9746 402.558 81.4365 401.051 82.619C399.541 83.7975 398.034 84.2713 396.572 83.9878C394.734 83.6558 393.32 82.1493 392.377 79.4117C391.385 76.6781 390.822 73.0941 390.631 68.7083C390.49 64.3224 390.68 59.4668 391.243 54.1374C391.761 48.8079 392.612 43.434 393.741 37.9142C394.827 32.3985 396.147 27.2108 397.751 22.258L389.311 19.3827C387.238 25.7974 385.537 32.2567 384.217 38.8132C382.848 45.3697 382.001 51.6387 381.621 57.6282C381.43 60.3618 381.337 63.2411 381.386 66.3513C381.386 69.4655 381.621 72.5271 382.094 75.5482C382.564 78.5653 383.322 81.3474 384.358 83.8947C385.395 86.442 386.764 88.564 388.554 90.3095C390.299 92.0063 392.563 93.0916 395.297 93.4682C397.702 93.8449 399.966 93.5168 402.132 92.4801C404.255 91.4434 406.283 89.9814 408.167 88.1429C410.054 86.3043 411.799 84.2754 413.306 82.1047C414.816 79.8895 416.136 77.8606 417.266 75.8803C419.814 78.2373 422.596 80.0313 425.661 81.2543L429.294 73.2358C427.783 72.5757 426.37 71.8225 425.098 70.8789C423.778 69.9839 422.6 68.9472 421.466 67.7647C421.798 67.056 422.219 66.1124 422.786 64.9339C423.353 63.7554 423.916 62.5284 424.483 61.2568H424.491ZM421.097 44.8918C420.437 47.7672 419.635 50.5048 418.692 53.052C417.748 55.6439 416.76 57.7214 415.719 59.3696C414.776 57.8145 413.974 55.737 413.221 53.0966C412.467 50.5048 411.949 47.7226 411.666 44.7015C411.382 41.729 411.431 38.9468 411.9 36.4036C412.042 35.6018 412.326 34.5651 412.751 33.1963C413.176 31.8274 413.788 30.6044 414.638 29.5191C415.488 28.4338 416.57 27.9154 417.939 28.0086C419.591 28.0572 420.721 28.9036 421.381 30.5558C422.041 32.1595 422.324 34.233 422.231 36.7802C422.138 39.3275 421.761 42.0611 421.097 44.8918Z" fill="#E99C82"/>
<path d="M473.157 32.3013V20.5612H435.762V92.1926H473.157V80.4525H450.005V60.8356H469.856V49.0955H450.005V32.3094H473.157V32.3013Z" fill="#E99C82"/>
<path d="M519.984 52.1084C521.964 48.8565 523.001 45.0821 523.001 40.7894C523.001 34.2815 521.348 29.2842 518.003 25.7933C514.703 22.3024 509.705 20.557 503.056 20.557H479.43V92.1884H493.673V61.6293H497.589C500.18 61.6293 502.209 62.2894 503.623 63.6096C503.999 63.9416 504.283 64.3628 504.566 64.8812C505.32 66.2014 505.696 68.04 505.696 70.3969V92.1844H519.984V69.5019C519.984 66.5294 519.182 64.0794 517.671 62.2408C516.302 60.5885 514.371 59.6489 511.917 59.41C511.633 59.3169 511.305 59.2683 510.973 59.2683V58.7499C514.934 57.5228 517.951 55.3076 519.98 52.1003L519.984 52.1084ZM501.31 49.7028H493.673V32.3984H501.31C503.574 32.3984 505.461 33.0585 506.968 34.3301C508.478 35.6503 509.232 37.821 509.232 40.7894C509.232 43.7579 508.478 46.0257 506.968 47.4836C505.457 48.9415 503.574 49.6988 501.31 49.6988V49.7028Z" fill="#E99C82"/>
<path d="M597.958 43.2435C596.78 43.2921 595.601 43.4338 594.423 43.527C594.188 41.5952 593.763 39.2828 593.244 36.691C592.677 34.0992 591.831 31.5033 590.746 28.9115C589.616 26.3642 588.15 24.149 586.311 22.355C584.521 20.5164 582.209 19.4311 579.378 19.1031C576.406 18.771 573.623 19.2448 571.08 20.4719C568.533 21.7435 566.225 23.5375 564.147 25.8459C562.074 28.2028 560.186 30.8918 558.534 33.8643C556.882 36.8814 555.42 39.947 554.148 43.1544C552.877 46.3618 551.791 49.3788 550.941 52.2541C549.054 58.5717 547.592 65.1768 546.555 72.0613C545.518 78.9944 545 85.6886 545 92.1965H554.007C554.007 88.0455 554.29 83.5665 554.857 78.8041C555.469 74.0416 556.27 69.2791 557.311 64.4681C558.348 59.6125 559.575 55.0363 561.037 50.6059C562.45 46.22 564.054 42.308 565.799 38.9103C567.589 35.468 569.432 32.779 571.364 30.8473C573.344 28.867 575.373 27.9234 577.446 28.0165C578.957 28.0651 580.18 28.7698 581.221 30.1386C582.213 31.5074 583.011 33.2042 583.626 35.1845C584.286 37.1649 584.756 39.1452 585.088 41.0809C585.372 43.0612 585.607 44.6163 585.748 45.7948C584.898 46.1269 584.051 46.5035 583.25 46.9247C582.448 47.3499 581.646 47.7751 580.844 48.2449C576.883 50.4601 573.441 53.5743 570.517 57.6281C567.593 61.6373 565.471 65.8814 564.244 70.3118C563.491 73.2357 563.159 76.2082 563.252 79.1766C563.394 82.1005 563.961 84.8341 564.998 87.3328C565.99 89.7869 567.496 91.7672 569.432 93.2737C571.368 94.7802 573.769 95.5375 576.551 95.6306C579.427 95.6792 581.881 95.0637 583.91 93.7921C585.89 92.5205 587.587 90.8196 588.907 88.7461C590.276 86.6241 591.313 84.3117 592.114 81.813C592.868 79.3589 593.483 76.9088 593.86 74.4547C594.237 72.0005 594.52 69.8339 594.71 67.8536C594.852 65.9219 594.945 64.46 595.042 63.4678C595.374 59.8352 595.468 56.158 595.326 52.5254C596.221 52.3837 597.213 52.2906 598.201 52.1934C599.238 52.1002 600.275 52.0516 601.409 52.1447L601.502 43.1382C600.323 43.1382 599.145 43.1868 597.966 43.2313L597.958 43.2435ZM586.169 62.2488C586.028 65.4076 585.7 68.6636 585.181 72.0572C584.712 74.6977 584.096 77.1518 583.391 79.5087C582.683 81.8211 581.788 83.7042 580.658 85.0244C579.572 86.3446 578.204 86.9116 576.555 86.6281C575.328 86.4378 574.385 85.7777 573.725 84.6478C573.065 83.4693 572.639 82.1491 572.453 80.6872C572.263 79.1766 572.218 77.8119 572.36 76.5848C572.83 72.2476 574.247 68.2384 576.604 64.464C579.01 60.6897 582.261 57.6726 586.412 55.4574C586.412 56.8262 586.364 59.09 586.178 62.2488H586.169Z" fill="#E99C82"/>
<path d="M647.474 52.1084C649.503 48.8565 650.54 45.0821 650.54 40.7894C650.54 34.2815 648.843 29.2842 645.542 25.7933C642.242 22.3024 637.244 20.557 630.595 20.557H606.969V92.1884H621.212V61.6293H625.128C627.72 61.6293 629.748 62.2894 631.117 63.6096C632.531 64.9298 633.239 67.1936 633.239 70.401V92.1884H647.482V69.506C647.482 66.5335 646.729 64.0834 645.218 62.2448C643.663 60.4062 641.444 59.4141 638.524 59.2723V58.754C642.485 57.5269 645.502 55.3117 647.482 52.1043L647.474 52.1084ZM634.507 47.4876C632.996 48.9496 631.113 49.7028 628.849 49.7028H621.212V32.3984H628.849C631.113 32.3984 633 33.0585 634.507 34.3301C636.017 35.6503 636.771 37.821 636.771 40.7894C636.771 43.7579 636.017 46.0257 634.507 47.4836V47.4876Z" fill="#E99C82"/>
<path d="M653.557 20.5612V32.3013H669.873V92.1885H684.116V32.3013H700.339V20.5612H653.561H653.557Z" fill="#E99C82"/>
<path d="M742.967 80.4484V20.5612H728.68V92.1926H766.123V80.4525H742.971L742.967 80.4484Z" fill="#E99C82"/>
<path d="M810.731 25.0888C806.628 21.035 801.299 19.0061 794.649 19.0061C788 19.0061 782.387 21.035 778.24 25.0888C774.044 29.098 771.967 34.8972 771.967 42.4418V70.312C771.967 77.8081 774.04 83.5627 778.24 87.6165C782.391 91.6257 787.858 93.6546 794.649 93.6546C798.565 93.6546 802.194 92.8042 805.543 91.1073C808.892 89.4105 811.626 86.8632 813.699 83.4696C815.773 80.0273 816.813 75.6415 816.813 70.312V42.4418C816.813 34.8972 814.785 29.098 810.731 25.0888ZM802.575 68.6638C802.575 70.9276 802.34 73.0496 801.866 74.9368C801.396 76.8685 800.639 78.4277 799.46 79.6507C798.326 80.8291 796.727 81.4407 794.649 81.4407C791.397 81.4407 789.178 80.2622 788 77.9053C786.821 75.4997 786.254 72.4341 786.254 68.6638V44.0496C786.254 41.7372 786.445 39.6151 786.914 37.6834C787.384 35.7517 788.186 34.148 789.368 32.9695C790.547 31.8397 792.199 31.2241 794.366 31.2241C796.532 31.2241 798.14 31.8356 799.319 32.9695C800.497 34.148 801.348 35.7517 801.817 37.6834C802.287 39.6151 802.571 41.7372 802.571 44.0496V68.6638H802.575Z" fill="#E99C82"/>
</g>
<defs>
<clipPath id="clip0_456_970">
<rect y="-711" width="1184" height="907.272" rx="453.636" fill="white"/>
</clipPath>
</defs>
</svg>
