<svg width="197" height="81" viewBox="0 0 197 81" fill="none" xmlns="http://www.w3.org/2000/svg">
<g clip-path="url(#clip0_653_17671)">
<rect x="-48" y="-50" width="245" height="131" rx="65.5" fill="#D88164"/>
<path d="M0.0443974 39.7955C0.50066 39.0642 0.7338 38.2154 0.7338 37.2501C0.7338 35.7866 0.352213 34.6628 -0.39001 33.8777C-1.13223 33.0927 -2.25604 32.7002 -3.75141 32.7002H-9.06445V48.8087H-5.86151V41.9365H-4.98086C-4.39801 41.9365 -3.94175 42.085 -3.63393 42.3819C-3.3161 42.6788 -3.15672 43.1878 -3.15672 43.9091V48.8087H0.0462179V43.7079C0.0462179 43.0394 -0.123173 42.4884 -0.462865 42.075C-0.812574 41.6615 -1.31164 41.4384 -1.96826 41.4065V41.2899C-1.07759 41.014 -0.399116 40.5158 0.0462179 39.7946L0.0443974 39.7955ZM-2.87168 38.7564C-3.21137 39.0851 -3.63484 39.2545 -4.14392 39.2545H-5.86151V35.3631H-4.14392C-3.63484 35.3631 -3.21046 35.5115 -2.87168 35.7975C-2.53198 36.0944 -2.36259 36.5825 -2.36259 37.2501C-2.36259 37.9176 -2.53198 38.4276 -2.87168 38.7555V38.7564Z" fill="#E99C82"/>
<path d="M1.41211 32.7012V35.3413H5.08133V48.8088H8.28427V35.3413H11.9326V32.7012H1.41302H1.41211Z" fill="#E99C82"/>
<path d="M21.5186 46.1686V32.7012H18.3057V48.8097H26.726V46.1696H21.5195L21.5186 46.1686Z" fill="#E99C82"/>
<path d="M36.7573 33.719C35.8347 32.8073 34.6363 32.3511 33.1409 32.3511C31.6455 32.3511 30.3833 32.8073 29.4507 33.719C28.5072 34.6205 28.04 35.9247 28.04 37.6213V43.8888C28.04 45.5745 28.5063 46.8686 29.4507 47.7802C30.3842 48.6818 31.6136 49.1381 33.1409 49.1381C34.0215 49.1381 34.8375 48.9468 35.5907 48.5652C36.3438 48.1836 36.9586 47.6108 37.4248 46.8476C37.8911 46.0735 38.1252 45.0873 38.1252 43.8888V37.6213C38.1252 35.9247 37.6689 34.6205 36.7573 33.719ZM34.9231 43.5181C34.9231 44.0272 34.8703 44.5044 34.7638 44.9288C34.6581 45.3632 34.4878 45.7138 34.2228 45.9889C33.9678 46.2539 33.6081 46.3914 33.1409 46.3914C32.4096 46.3914 31.9105 46.1264 31.6455 45.5963C31.3805 45.0554 31.253 44.366 31.253 43.5181V37.9829C31.253 37.4628 31.2958 36.9856 31.4014 36.5512C31.5071 36.1168 31.6874 35.7562 31.9533 35.4912C32.2183 35.2371 32.5899 35.0987 33.0771 35.0987C33.5644 35.0987 33.9259 35.2362 34.1909 35.4912C34.4559 35.7562 34.6472 36.1168 34.7528 36.5512C34.8585 36.9856 34.9222 37.4628 34.9222 37.9829V43.5181H34.9231Z" fill="#E99C82"/>
<path d="M48.8468 41.8529C48.9843 41.5669 49.1009 41.3228 49.1965 41.0997C49.3021 40.8766 49.3659 40.7391 49.3977 40.6753C49.7156 39.965 49.9706 39.2118 50.1509 38.4377C50.3203 37.6636 50.405 36.9105 50.395 36.1892C50.395 35.4579 50.2784 34.8104 50.0553 34.2276C49.8431 33.6547 49.5034 33.1985 49.048 32.8597C48.5918 32.52 47.998 32.3615 47.2667 32.3715C46.4498 32.3925 45.7504 32.7213 45.1775 33.3688C44.6047 34.0053 44.2231 34.8532 44.0428 35.9142C43.8734 36.8258 43.8516 37.7492 43.9681 38.6818C44.0847 39.6153 44.3078 40.5059 44.6466 41.3538C44.9754 42.1916 45.3679 42.9339 45.8132 43.5595C45.6967 43.7608 45.5273 44.0686 45.3041 44.4611C45.071 44.8536 44.816 45.2562 44.5191 45.6596C44.2222 46.0621 43.9144 46.3909 43.5756 46.6568C43.2359 46.9218 42.8972 47.0284 42.5684 46.9646C42.1549 46.89 41.8371 46.5512 41.6249 45.9355C41.4018 45.3208 41.2752 44.5149 41.2324 43.5286C41.2005 42.5423 41.2433 41.4503 41.3699 40.2519C41.4865 39.0534 41.6777 37.8449 41.9318 36.6036C42.1759 35.3632 42.4728 34.1966 42.8334 33.0828L40.9355 32.4362C40.4692 33.8788 40.0867 35.3313 39.7898 36.8058C39.482 38.2802 39.2917 39.6899 39.2061 41.0369C39.1633 41.6516 39.1423 42.2991 39.1533 42.9985C39.1533 43.6989 39.2061 44.3874 39.3126 45.0667C39.4183 45.7452 39.5886 46.3709 39.8217 46.9437C40.0548 47.5165 40.3627 47.9937 40.7652 48.3863C41.1577 48.7678 41.6668 49.0119 42.2815 49.0966C42.8225 49.1813 43.3316 49.1075 43.8188 48.8744C44.296 48.6412 44.7523 48.3125 45.1757 47.899C45.6001 47.4856 45.9926 47.0293 46.3314 46.5412C46.6711 46.043 46.968 45.5868 47.2221 45.1414C47.7949 45.6714 48.4206 46.0749 49.11 46.3499L49.9269 44.5467C49.5872 44.3983 49.2693 44.2289 48.9834 44.0167C48.6865 43.8154 48.4215 43.5823 48.1665 43.3164C48.2412 43.157 48.3359 42.9448 48.4634 42.6798C48.5909 42.4148 48.7175 42.1388 48.845 41.8529H48.8468ZM48.0836 38.1727C47.9352 38.8193 47.7548 39.435 47.5426 40.0078C47.3305 40.5906 47.1082 41.0578 46.8742 41.4285C46.662 41.0788 46.4817 40.6116 46.3123 40.0178C46.1429 39.435 46.0263 38.8093 45.9626 38.1299C45.8988 37.4615 45.9098 36.8358 46.0154 36.2639C46.0473 36.0836 46.111 35.8504 46.2066 35.5426C46.3023 35.2348 46.4398 34.9598 46.631 34.7157C46.8223 34.4716 47.0654 34.3551 47.3733 34.376C47.7448 34.3869 47.9989 34.5773 48.1474 34.9488C48.2958 35.3095 48.3595 35.7757 48.3386 36.3486C48.3177 36.9214 48.233 37.5361 48.0836 38.1727Z" fill="#E99C82"/>
<path d="M59.7913 35.3413V32.7012H51.3818V48.8097H59.7913V46.1696H54.5848V41.7581H59.049V39.118H54.5848V35.3431H59.7913V35.3413Z" fill="#E99C82"/>
<path d="M70.3219 39.7955C70.7673 39.0642 71.0004 38.2154 71.0004 37.2501C71.0004 35.7866 70.6288 34.6628 69.8766 33.8777C69.1344 33.0927 68.0106 32.7002 66.5152 32.7002H61.2021V48.8087H64.4051V41.9365H65.2857C65.8686 41.9365 66.3249 42.085 66.6427 42.3819C66.7274 42.4566 66.7911 42.5513 66.8549 42.6678C67.0243 42.9647 67.109 43.3782 67.109 43.9082V48.8078H70.3219V43.707C70.3219 43.0385 70.1416 42.4875 69.8019 42.0741C69.4941 41.7025 69.0597 41.4912 68.5078 41.4375C68.4441 41.4165 68.3703 41.4056 68.2956 41.4056V41.289C69.1863 41.0131 69.8648 40.5149 70.321 39.7937L70.3219 39.7955ZM66.1227 39.2545H64.4051V35.3631H66.1227C66.6318 35.3631 67.0562 35.5115 67.3949 35.7975C67.7346 36.0944 67.904 36.5825 67.904 37.2501C67.904 37.9176 67.7346 38.4276 67.3949 38.7555C67.0552 39.0833 66.6318 39.2536 66.1227 39.2536V39.2545Z" fill="#E99C82"/>
<path d="M90.9093 37.9187C90.6442 37.9296 90.3792 37.9615 90.1142 37.9824C90.0614 37.548 89.9658 37.028 89.8492 36.4452C89.7217 35.8623 89.5314 35.2786 89.2873 34.6957C89.0332 34.1229 88.7035 33.6247 88.2901 33.2213C87.8875 32.8078 87.3675 32.5637 86.731 32.49C86.0625 32.4153 85.4368 32.5219 84.8649 32.7978C84.2921 33.0838 83.773 33.4872 83.3058 34.0063C82.8395 34.5363 82.4151 35.141 82.0436 35.8095C81.672 36.488 81.3432 37.1774 81.0573 37.8986C80.7713 38.6199 80.5272 39.2984 80.336 39.945C79.9116 41.3657 79.5828 42.851 79.3497 44.3992C79.1166 45.9584 79 47.4638 79 48.9273H81.0254C81.0254 47.9938 81.0892 46.9865 81.2167 45.9156C81.3542 44.8446 81.5345 43.7736 81.7685 42.6917C82.0017 41.5997 82.2776 40.5706 82.6064 39.5743C82.9242 38.588 83.2849 37.7083 83.6774 36.9442C84.0799 36.1701 84.4943 35.5654 84.9287 35.131C85.374 34.6857 85.8303 34.4735 86.2966 34.4944C86.6362 34.5054 86.9113 34.6638 87.1453 34.9716C87.3684 35.2795 87.5479 35.661 87.6863 36.1064C87.8347 36.5517 87.9404 36.9971 88.015 37.4324C88.0788 37.8777 88.1316 38.2274 88.1635 38.4924C87.9722 38.5671 87.7819 38.6518 87.6016 38.7465C87.4213 38.8421 87.241 38.9378 87.0606 39.0434C86.17 39.5416 85.3959 40.2419 84.7383 41.1535C84.0808 42.0551 83.6036 43.0095 83.3277 44.0058C83.1583 44.6633 83.0836 45.3318 83.1045 45.9993C83.1364 46.6569 83.2639 47.2716 83.4971 47.8335C83.7202 48.3854 84.059 48.8307 84.4943 49.1695C84.9296 49.5083 85.4696 49.6786 86.0953 49.6995C86.7419 49.7105 87.2938 49.572 87.75 49.2861C88.1954 49.0001 88.577 48.6176 88.8738 48.1513C89.1817 47.6741 89.4148 47.1541 89.5951 46.5922C89.7645 46.0403 89.9029 45.4894 89.9876 44.9375C90.0723 44.3856 90.1361 43.8984 90.1789 43.453C90.2108 43.0186 90.2317 42.6898 90.2536 42.4667C90.3282 41.6498 90.3492 40.8229 90.3173 40.006C90.5186 39.9741 90.7417 39.9532 90.9639 39.9313C91.197 39.9104 91.4302 39.8995 91.6852 39.9204L91.7061 37.895C91.4411 37.895 91.1761 37.9059 90.9111 37.9159L90.9093 37.9187ZM88.2582 42.1926C88.2263 42.903 88.1526 43.6352 88.036 44.3983C87.9304 44.9921 87.7919 45.544 87.6335 46.074C87.4741 46.594 87.2728 47.0175 87.0187 47.3144C86.7747 47.6113 86.4669 47.7388 86.0962 47.675C85.8203 47.6322 85.6081 47.4838 85.4596 47.2297C85.3112 46.9647 85.2155 46.6678 85.1737 46.339C85.1309 45.9993 85.1208 45.6924 85.1527 45.4165C85.2583 44.4411 85.5771 43.5395 86.1071 42.6908C86.6481 41.842 87.3794 41.1635 88.3128 40.6654C88.3128 40.9732 88.3019 41.4823 88.26 42.1926H88.2582Z" fill="#E99C82"/>
<path d="M102.044 39.9122C102.501 39.1809 102.734 38.3321 102.734 37.3668C102.734 35.9033 102.352 34.7795 101.61 33.9944C100.868 33.2094 99.744 32.8169 98.2486 32.8169H92.9355V48.9254H96.1385V42.0532H97.0191C97.602 42.0532 98.0582 42.2017 98.3661 42.4986C98.6839 42.7955 98.8433 43.3045 98.8433 44.0258V48.9254H102.046V43.8246C102.046 43.1561 101.877 42.6051 101.537 42.1917C101.187 41.7782 100.688 41.5551 100.032 41.5232V41.4066C100.922 41.1307 101.601 40.6325 102.046 39.9113L102.044 39.9122ZM99.1283 38.8731C98.7886 39.2018 98.3652 39.3712 97.8561 39.3712H96.1385V35.4798H97.8561C98.3652 35.4798 98.7895 35.6282 99.1283 35.9142C99.468 36.2111 99.6374 36.6992 99.6374 37.3668C99.6374 38.0343 99.468 38.5443 99.1283 38.8722V38.8731Z" fill="#E99C82"/>
<path d="M103.412 32.8179V35.458H107.081V48.9255H110.284V35.458H113.933V32.8179H103.413H103.412Z" fill="#E99C82"/>
<path d="M123.519 46.2853V32.8179H120.306V48.9264H128.726V46.2863H123.52L123.519 46.2853Z" fill="#E99C82"/>
<path d="M138.757 33.8357C137.835 32.924 136.636 32.4678 135.141 32.4678C133.646 32.4678 132.383 32.924 131.451 33.8357C130.507 34.7372 130.04 36.0414 130.04 37.738V44.0055C130.04 45.6912 130.506 46.9853 131.451 47.8969C132.384 48.7985 133.614 49.2548 135.141 49.2548C136.022 49.2548 136.838 49.0635 137.591 48.6819C138.344 48.3003 138.959 47.7275 139.425 46.9643C139.891 46.1902 140.125 45.204 140.125 44.0055V37.738C140.125 36.0414 139.669 34.7372 138.757 33.8357ZM136.923 43.6348C136.923 44.1439 136.87 44.6211 136.764 45.0455C136.658 45.4799 136.488 45.8305 136.223 46.1056C135.968 46.3706 135.608 46.5081 135.141 46.5081C134.41 46.5081 133.911 46.2431 133.646 45.713C133.38 45.1721 133.253 44.4827 133.253 43.6348V38.0996C133.253 37.5795 133.296 37.1023 133.401 36.6679C133.507 36.2335 133.687 35.8729 133.953 35.6079C134.218 35.3538 134.59 35.2154 135.077 35.2154C135.564 35.2154 135.926 35.3529 136.191 35.6079C136.456 35.8729 136.647 36.2335 136.753 36.6679C136.858 37.1023 136.922 37.5795 136.922 38.0996V43.6348H136.923Z" fill="#E99C82"/>
<path d="M150.696 41.7152C150.834 41.4292 150.95 41.1851 151.046 40.962C151.152 40.7389 151.215 40.6014 151.247 40.5376C151.565 39.8273 151.82 39.0741 152.001 38.3C152.17 37.5259 152.255 36.7728 152.245 36.0515C152.245 35.3202 152.128 34.6727 151.905 34.0899C151.693 33.517 151.353 33.0608 150.898 32.722C150.441 32.3823 149.848 32.2238 149.116 32.2338C148.299 32.2548 147.6 32.5836 147.027 33.2311C146.454 33.8676 146.073 34.7155 145.892 35.7765C145.723 36.6881 145.701 37.6115 145.818 38.5441C145.934 39.4776 146.157 40.3682 146.496 41.2161C146.825 42.054 147.217 42.7962 147.663 43.4218C147.546 43.6231 147.377 43.9309 147.154 44.3234C146.921 44.7159 146.666 45.1185 146.369 45.5219C146.072 45.9244 145.764 46.2532 145.425 46.5191C145.086 46.7841 144.747 46.8907 144.418 46.8269C144.005 46.7523 143.687 46.4135 143.475 45.7979C143.251 45.1831 143.125 44.3772 143.082 43.3909C143.05 42.4046 143.093 41.3126 143.22 40.1142C143.336 38.9157 143.527 37.7072 143.781 36.4659C144.025 35.2255 144.322 34.0589 144.683 32.9451L142.785 32.2985C142.319 33.7411 141.936 35.1936 141.639 36.6681C141.332 38.1425 141.141 39.5523 141.056 40.8992C141.013 41.5139 140.992 42.1614 141.003 42.8608C141.003 43.5612 141.056 44.2497 141.162 44.929C141.268 45.6075 141.438 46.2332 141.671 46.806C141.904 47.3788 142.212 47.856 142.615 48.2486C143.007 48.6301 143.516 48.8742 144.131 48.9589C144.672 49.0436 145.181 48.9698 145.668 48.7367C146.146 48.5036 146.602 48.1748 147.025 47.7613C147.45 47.3479 147.842 46.8916 148.181 46.4035C148.521 45.9053 148.818 45.4491 149.072 45.0037C149.645 45.5338 150.27 45.9372 150.96 46.2122L151.776 44.409C151.437 44.2606 151.119 44.0912 150.833 43.879C150.536 43.6777 150.271 43.4446 150.016 43.1787C150.091 43.0193 150.185 42.8071 150.313 42.5421C150.44 42.2771 150.567 42.0011 150.695 41.7152H150.696ZM149.933 38.035C149.785 38.6816 149.604 39.2973 149.392 39.8701C149.18 40.4529 148.958 40.9201 148.724 41.2908C148.512 40.9411 148.331 40.4739 148.162 39.8801C147.993 39.2973 147.876 38.6716 147.812 37.9922C147.748 37.3238 147.759 36.6981 147.865 36.1262C147.897 35.9459 147.961 35.7127 148.056 35.4049C148.152 35.0971 148.289 34.8221 148.481 34.578C148.672 34.3339 148.915 34.2174 149.223 34.2383C149.594 34.2492 149.849 34.4396 149.997 34.8111C150.145 35.1718 150.209 35.6381 150.188 36.2109C150.167 36.7837 150.083 37.3984 149.933 38.035Z" fill="#E99C82"/>
<path d="M161.791 35.458V32.8179H153.382V48.9264H161.791V46.2863H156.585V41.8748H161.049V39.2347H156.585V35.4598H161.791V35.458Z" fill="#E99C82"/>
<path d="M172.322 39.9122C172.767 39.1809 173 38.3321 173 37.3668C173 35.9033 172.629 34.7795 171.877 33.9944C171.134 33.2094 170.011 32.8169 168.515 32.8169H163.202V48.9254H166.405V42.0532H167.286C167.869 42.0532 168.325 42.2017 168.643 42.4986C168.727 42.5732 168.791 42.668 168.855 42.7845C169.024 43.0814 169.109 43.4949 169.109 44.0249V48.9245H172.322V43.8236C172.322 43.1552 172.142 42.6042 171.802 42.1908C171.494 41.8192 171.06 41.6079 170.508 41.5542C170.444 41.5332 170.37 41.5223 170.296 41.5223V41.4057C171.186 41.1298 171.865 40.6316 172.321 39.9104L172.322 39.9122ZM168.123 39.3712H166.405V35.4798H168.123C168.632 35.4798 169.056 35.6282 169.395 35.9142C169.735 36.2111 169.904 36.6992 169.904 37.3668C169.904 38.0343 169.735 38.5443 169.395 38.8722C169.055 39.2 168.632 39.3703 168.123 39.3703V39.3712Z" fill="#E99C82"/>
<path d="M192.909 37.802C192.644 37.8129 192.379 37.8448 192.114 37.8657C192.061 37.4313 191.966 36.9113 191.849 36.3285C191.722 35.7456 191.531 35.1619 191.287 34.579C191.033 34.0062 190.704 33.508 190.29 33.1046C189.888 32.6911 189.368 32.447 188.731 32.3733C188.062 32.2986 187.437 32.4052 186.865 32.6811C186.292 32.9671 185.773 33.3705 185.306 33.8896C184.84 34.4196 184.415 35.0243 184.044 35.6928C183.672 36.3713 183.343 37.0607 183.057 37.7819C182.771 38.5032 182.527 39.1817 182.336 39.8283C181.912 41.249 181.583 42.7343 181.35 44.2825C181.117 45.8417 181 47.3471 181 48.8106H183.025C183.025 47.8771 183.089 46.8698 183.217 45.7989C183.354 44.7279 183.534 43.6569 183.769 42.575C184.002 41.483 184.278 40.4539 184.606 39.4576C184.924 38.4713 185.285 37.5916 185.677 36.8275C186.08 36.0534 186.494 35.4487 186.929 35.0143C187.374 34.569 187.83 34.3568 188.297 34.3777C188.636 34.3887 188.911 34.5471 189.145 34.8549C189.368 35.1628 189.548 35.5444 189.686 35.9897C189.835 36.435 189.94 36.8804 190.015 37.3157C190.079 37.761 190.132 38.1107 190.163 38.3757C189.972 38.4504 189.782 38.5351 189.602 38.6298C189.421 38.7254 189.241 38.8211 189.061 38.9267C188.17 39.4249 187.396 40.1252 186.738 41.0368C186.081 41.9384 185.604 42.8928 185.328 43.8891C185.158 44.5466 185.084 45.2151 185.105 45.8826C185.136 46.5402 185.264 47.1549 185.497 47.7168C185.72 48.2687 186.059 48.714 186.494 49.0528C186.93 49.3916 187.47 49.5619 188.095 49.5828C188.742 49.5938 189.294 49.4553 189.75 49.1694C190.195 48.8834 190.577 48.5009 190.874 48.0346C191.182 47.5574 191.415 47.0374 191.595 46.4755C191.765 45.9236 191.903 45.3727 191.988 44.8208C192.072 44.2689 192.136 43.7817 192.179 43.3363C192.211 42.9019 192.232 42.5732 192.254 42.35C192.328 41.5331 192.349 40.7062 192.317 39.8893C192.519 39.8574 192.742 39.8365 192.964 39.8146C193.197 39.7937 193.43 39.7828 193.685 39.8037L193.706 37.7783C193.441 37.7783 193.176 37.7892 192.911 37.7992L192.909 37.802ZM190.258 42.0759C190.226 42.7863 190.153 43.5185 190.036 44.2816C189.93 44.8754 189.792 45.4273 189.633 45.9573C189.474 46.4773 189.273 46.9008 189.019 47.1977C188.775 47.4946 188.467 47.6221 188.096 47.5583C187.82 47.5155 187.608 47.3671 187.46 47.113C187.311 46.848 187.216 46.5511 187.174 46.2223C187.131 45.8826 187.121 45.5757 187.153 45.2998C187.258 44.3244 187.577 43.4228 188.107 42.5741C188.648 41.7253 189.379 41.0468 190.313 40.5487C190.313 40.8565 190.302 41.3656 190.26 42.0759H190.258Z" fill="#E99C82"/>
<path d="M204.044 39.7955C204.501 39.0642 204.734 38.2154 204.734 37.2501C204.734 35.7866 204.352 34.6628 203.61 33.8777C202.868 33.0927 201.744 32.7002 200.249 32.7002H194.936V48.8087H198.138V41.9365H199.019C199.602 41.9365 200.058 42.085 200.366 42.3819C200.684 42.6788 200.843 43.1878 200.843 43.9091V48.8087H204.046V43.7079C204.046 43.0394 203.877 42.4884 203.537 42.075C203.187 41.6615 202.688 41.4384 202.032 41.4065V41.2899C202.922 41.014 203.601 40.5158 204.046 39.7946L204.044 39.7955ZM201.128 38.7564C200.789 39.0851 200.365 39.2545 199.856 39.2545H198.138V35.3631H199.856C200.365 35.3631 200.79 35.5115 201.128 35.7975C201.468 36.0944 201.637 36.5825 201.637 37.2501C201.637 37.9176 201.468 38.4276 201.128 38.7555V38.7564Z" fill="#E99C82"/>
<path d="M12.9093 12.4519C12.6442 12.4628 12.3792 12.4947 12.1142 12.5156C12.0614 12.0812 11.9658 11.5612 11.8492 10.9784C11.7217 10.3955 11.5314 9.81176 11.2873 9.22891C11.0332 8.65607 10.7035 8.15792 10.2901 7.75448C9.88755 7.34102 9.36754 7.09695 8.73096 7.02318C8.0625 6.94851 7.43685 7.05506 6.86493 7.331C6.29209 7.61696 5.77299 8.0204 5.3058 8.5395C4.83952 9.06953 4.41514 9.67424 4.04357 10.3427C3.672 11.0212 3.34324 11.7106 3.05728 12.4318C2.77132 13.1531 2.52725 13.8316 2.336 14.4782C1.91161 15.8989 1.58285 17.3843 1.34971 18.9324C1.11657 20.4916 1 21.997 1 23.4605H3.0254C3.0254 22.527 3.08915 21.5197 3.21665 20.4488C3.35417 19.3778 3.53449 18.3068 3.76854 17.2249C4.00168 16.1329 4.27762 15.1038 4.60638 14.1075C4.92422 13.1212 5.28486 12.2415 5.67737 11.4774C6.0799 10.7033 6.49427 10.0986 6.92868 9.66422C7.37401 9.21889 7.83027 9.00669 8.29655 9.02764C8.63624 9.03857 8.91128 9.19703 9.14533 9.50485C9.36845 9.81267 9.54786 10.1943 9.68628 10.6396C9.83473 11.0849 9.94037 11.5303 10.015 11.9656C10.0788 12.4109 10.1316 12.7606 10.1635 13.0256C9.97225 13.1003 9.78191 13.185 9.60159 13.2797C9.42127 13.3753 9.24095 13.471 9.06063 13.5766C8.16996 14.0748 7.39587 14.7751 6.73834 15.6867C6.08081 16.5883 5.6036 17.5427 5.32766 18.539C5.15827 19.1965 5.08359 19.865 5.10454 20.5325C5.13641 21.1901 5.26391 21.8048 5.49705 22.3667C5.72017 22.9186 6.05895 23.3639 6.49427 23.7027C6.92959 24.0415 7.46963 24.2118 8.09529 24.2327C8.74188 24.2437 9.29377 24.1052 9.75003 23.8193C10.1954 23.5333 10.577 23.1508 10.8738 22.6845C11.1817 22.2073 11.4148 21.6873 11.5951 21.1254C11.7645 20.5735 11.9029 20.0226 11.9876 19.4707C12.0723 18.9188 12.1361 18.4316 12.1789 17.9862C12.2108 17.5518 12.2317 17.2231 12.2536 16.9999C12.3282 16.183 12.3492 15.3561 12.3173 14.5392C12.5186 14.5073 12.7417 14.4864 12.9639 14.4645C13.197 14.4436 13.4302 14.4327 13.6852 14.4536L13.7061 12.4282C13.4411 12.4282 13.1761 12.4391 12.9111 12.4492L12.9093 12.4519ZM10.2582 16.7258C10.2263 17.4362 10.1526 18.1684 10.036 18.9315C9.93035 19.5253 9.79193 20.0772 9.63346 20.6072C9.47409 21.1272 9.27282 21.5507 9.01874 21.8476C8.77467 22.1445 8.46685 22.272 8.0962 22.2082C7.82025 22.1654 7.60806 22.017 7.45961 21.7629C7.31117 21.4979 7.21555 21.201 7.17365 20.8722C7.13085 20.5325 7.12083 20.2256 7.15271 19.9497C7.25835 18.9743 7.5771 18.0727 8.10713 17.224C8.64808 16.3752 9.37938 15.6967 10.3128 15.1986C10.3128 15.5064 10.3019 16.0155 10.26 16.7258H10.2582Z" fill="#E99C82"/>
<path d="M24.0444 14.4454C24.5007 13.7141 24.7338 12.8653 24.7338 11.9C24.7338 10.4365 24.3522 9.31266 23.61 8.52764C22.8678 7.74261 21.744 7.3501 20.2486 7.3501H14.9355V23.4586H18.1385V16.5864H19.0191C19.602 16.5864 20.0582 16.7349 20.3661 17.0318C20.6839 17.3287 20.8433 17.8377 20.8433 18.559V23.4586H24.0462V18.3578C24.0462 17.6893 23.8768 17.1383 23.5371 16.7249C23.1874 16.3114 22.6884 16.0883 22.0317 16.0564V15.9398C22.9224 15.6639 23.6009 15.1657 24.0462 14.4445L24.0444 14.4454ZM21.1283 13.4063C20.7886 13.735 20.3652 13.9044 19.8561 13.9044H18.1385V10.013H19.8561C20.3652 10.013 20.7895 10.1614 21.1283 10.4474C21.468 10.7443 21.6374 11.2324 21.6374 11.9C21.6374 12.5675 21.468 13.0775 21.1283 13.4054V13.4063Z" fill="#E99C82"/>
<path d="M25.4121 7.35107V9.9912H29.0813V23.4587H32.2843V9.9912H35.9326V7.35107H25.413H25.4121Z" fill="#E99C82"/>
<path d="M45.5186 20.8185V7.35107H42.3057V23.4596H50.726V20.8195H45.5195L45.5186 20.8185Z" fill="#E99C82"/>
<path d="M60.7573 8.36885C59.8347 7.45724 58.6363 7.00098 57.1409 7.00098C55.6455 7.00098 54.3833 7.45724 53.4507 8.36885C52.5072 9.27045 52.04 10.5746 52.04 12.2712V18.5387C52.04 20.2244 52.5063 21.5185 53.4507 22.4301C54.3842 23.3317 55.6136 23.788 57.1409 23.788C58.0215 23.788 58.8375 23.5967 59.5907 23.2151C60.3438 22.8335 60.9586 22.2607 61.4248 21.4975C61.8911 20.7234 62.1252 19.7372 62.1252 18.5387V12.2712C62.1252 10.5746 61.6689 9.27045 60.7573 8.36885ZM58.9231 18.168C58.9231 18.6771 58.8703 19.1543 58.7638 19.5787C58.6581 20.0131 58.4878 20.3637 58.2228 20.6388C57.9678 20.9038 57.6081 21.0413 57.1409 21.0413C56.4096 21.0413 55.9105 20.7763 55.6455 20.2462C55.3805 19.7053 55.253 19.0159 55.253 18.168V12.6328C55.253 12.1128 55.2958 11.6355 55.4014 11.2011C55.5071 10.7667 55.6874 10.4061 55.9533 10.1411C56.2183 9.88699 56.5899 9.74857 57.0771 9.74857C57.5644 9.74857 57.9259 9.88608 58.1909 10.1411C58.4559 10.4061 58.6472 10.7667 58.7528 11.2011C58.8585 11.6355 58.9222 12.1128 58.9222 12.6328V18.168H58.9231Z" fill="#E99C82"/>
<path d="M72.8468 16.5028C72.9843 16.2168 73.1009 15.9727 73.1965 15.7496C73.3021 15.5265 73.3659 15.389 73.3977 15.3252C73.7156 14.6149 73.9706 13.8617 74.1509 13.0876C74.3203 12.3135 74.405 11.5604 74.395 10.8391C74.395 10.1078 74.2784 9.4603 74.0553 8.87746C73.8431 8.30462 73.5034 7.84836 73.048 7.50958C72.5918 7.16989 71.998 7.01142 71.2667 7.02144C70.4498 7.04239 69.7504 7.37115 69.1775 8.01866C68.6047 8.65524 68.2231 9.50311 68.0428 10.5641C67.8734 11.4757 67.8516 12.3991 67.9681 13.3317C68.0847 14.2652 68.3078 15.1558 68.6466 16.0037C68.9754 16.8416 69.3679 17.5838 69.8132 18.2094C69.6967 18.4107 69.5273 18.7185 69.3041 19.111C69.071 19.5035 68.816 19.9061 68.5191 20.3095C68.2222 20.712 67.9144 21.0408 67.5756 21.3067C67.2359 21.5717 66.8972 21.6783 66.5684 21.6145C66.1549 21.5399 65.8371 21.2011 65.6249 20.5855C65.4018 19.9707 65.2752 19.1648 65.2324 18.1785C65.2005 17.1922 65.2433 16.1002 65.3699 14.9018C65.4865 13.7033 65.6777 12.4948 65.9318 11.2535C66.1759 10.0131 66.4728 8.84649 66.8334 7.7327L64.9355 7.0861C64.4692 8.52866 64.0867 9.98123 63.7898 11.4557C63.482 12.9301 63.2917 14.3399 63.2061 15.6868C63.1633 16.3015 63.1423 16.949 63.1533 17.6484C63.1533 18.3488 63.2061 19.0373 63.3126 19.7166C63.4183 20.3951 63.5886 21.0208 63.8217 21.5936C64.0548 22.1664 64.3627 22.6436 64.7652 23.0362C65.1577 23.4177 65.6668 23.6618 66.2815 23.7465C66.8225 23.8312 67.3316 23.7574 67.8188 23.5243C68.296 23.2911 68.7523 22.9624 69.1757 22.5489C69.6001 22.1355 69.9926 21.6792 70.3314 21.1911C70.6711 20.6929 70.968 20.2367 71.2221 19.7913C71.7949 20.3213 72.4206 20.7248 73.11 20.9998L73.9269 19.1966C73.5872 19.0482 73.2693 18.8788 72.9834 18.6666C72.6865 18.4653 72.4215 18.2322 72.1665 17.9663C72.2412 17.8069 72.3359 17.5947 72.4634 17.3297C72.5909 17.0647 72.7175 16.7887 72.845 16.5028H72.8468ZM72.0836 12.8226C71.9352 13.4692 71.7548 14.0849 71.5426 14.6577C71.3305 15.2405 71.1082 15.7077 70.8742 16.0784C70.662 15.7287 70.4817 15.2615 70.3123 14.6677C70.1429 14.0849 70.0263 13.4592 69.9626 12.7798C69.8988 12.1114 69.9098 11.4857 70.0154 10.9138C70.0473 10.7335 70.111 10.5003 70.2066 10.1925C70.3023 9.88469 70.4398 9.60966 70.631 9.36559C70.8223 9.12153 71.0654 9.00495 71.3733 9.0259C71.7448 9.03683 71.9989 9.22717 72.1474 9.59873C72.2958 9.95937 72.3595 10.4256 72.3386 10.9985C72.3177 11.5713 72.233 12.186 72.0836 12.8226Z" fill="#E99C82"/>
<path d="M83.7913 9.9912V7.35107H75.3818V23.4596H83.7913V20.8195H78.5848V16.408H83.049V13.7679H78.5848V9.99302H83.7913V9.9912Z" fill="#E99C82"/>
<path d="M94.3219 14.4454C94.7673 13.7141 95.0004 12.8653 95.0004 11.9C95.0004 10.4365 94.6288 9.31266 93.8766 8.52764C93.1344 7.74261 92.0106 7.3501 90.5152 7.3501H85.2021V23.4586H88.4051V16.5864H89.2857C89.8686 16.5864 90.3249 16.7349 90.6427 17.0318C90.7274 17.1065 90.7911 17.2012 90.8549 17.3177C91.0243 17.6146 91.109 18.0281 91.109 18.5581V23.4577H94.3219V18.3569C94.3219 17.6884 94.1416 17.1374 93.8019 16.724C93.4941 16.3524 93.0597 16.1411 92.5078 16.0874C92.4441 16.0664 92.3703 16.0555 92.2956 16.0555V15.9389C93.1863 15.663 93.8648 15.1648 94.321 14.4436L94.3219 14.4454ZM90.1227 13.9044H88.4051V10.013H90.1227C90.6318 10.013 91.0562 10.1614 91.3949 10.4474C91.7346 10.7443 91.904 11.2324 91.904 11.9C91.904 12.5675 91.7346 13.0775 91.3949 13.4054C91.0552 13.7332 90.6318 13.9035 90.1227 13.9035V13.9044Z" fill="#E99C82"/>
<path d="M114.909 12.4519C114.644 12.4628 114.379 12.4947 114.114 12.5156C114.061 12.0812 113.966 11.5612 113.849 10.9784C113.722 10.3955 113.531 9.81176 113.287 9.22891C113.033 8.65607 112.704 8.15792 112.29 7.75448C111.888 7.34102 111.368 7.09695 110.731 7.02318C110.062 6.94851 109.437 7.05506 108.865 7.331C108.292 7.61696 107.773 8.0204 107.306 8.5395C106.84 9.06953 106.415 9.67424 106.044 10.3427C105.672 11.0212 105.343 11.7106 105.057 12.4318C104.771 13.1531 104.527 13.8316 104.336 14.4782C103.912 15.8989 103.583 17.3843 103.35 18.9324C103.117 20.4916 103 21.997 103 23.4605H105.025C105.025 22.527 105.089 21.5197 105.217 20.4488C105.354 19.3778 105.534 18.3068 105.769 17.2249C106.002 16.1329 106.278 15.1038 106.606 14.1075C106.924 13.1212 107.285 12.2415 107.677 11.4774C108.08 10.7033 108.494 10.0986 108.929 9.66422C109.374 9.21889 109.83 9.00669 110.297 9.02764C110.636 9.03857 110.911 9.19703 111.145 9.50485C111.368 9.81267 111.548 10.1943 111.686 10.6396C111.835 11.0849 111.94 11.5303 112.015 11.9656C112.079 12.4109 112.132 12.7606 112.163 13.0256C111.972 13.1003 111.782 13.185 111.602 13.2797C111.421 13.3753 111.241 13.471 111.061 13.5766C110.17 14.0748 109.396 14.7751 108.738 15.6867C108.081 16.5883 107.604 17.5427 107.328 18.539C107.158 19.1965 107.084 19.865 107.105 20.5325C107.136 21.1901 107.264 21.8048 107.497 22.3667C107.72 22.9186 108.059 23.3639 108.494 23.7027C108.93 24.0415 109.47 24.2118 110.095 24.2327C110.742 24.2437 111.294 24.1052 111.75 23.8193C112.195 23.5333 112.577 23.1508 112.874 22.6845C113.182 22.2073 113.415 21.6873 113.595 21.1254C113.765 20.5735 113.903 20.0226 113.988 19.4707C114.072 18.9188 114.136 18.4316 114.179 17.9862C114.211 17.5518 114.232 17.2231 114.254 16.9999C114.328 16.183 114.349 15.3561 114.317 14.5392C114.519 14.5073 114.742 14.4864 114.964 14.4645C115.197 14.4436 115.43 14.4327 115.685 14.4536L115.706 12.4282C115.441 12.4282 115.176 12.4391 114.911 12.4492L114.909 12.4519ZM112.258 16.7258C112.226 17.4362 112.153 18.1684 112.036 18.9315C111.93 19.5253 111.792 20.0772 111.633 20.6072C111.474 21.1272 111.273 21.5507 111.019 21.8476C110.775 22.1445 110.467 22.272 110.096 22.2082C109.82 22.1654 109.608 22.017 109.46 21.7629C109.311 21.4979 109.216 21.201 109.174 20.8722C109.131 20.5325 109.121 20.2256 109.153 19.9497C109.258 18.9743 109.577 18.0727 110.107 17.224C110.648 16.3752 111.379 15.6967 112.313 15.1986C112.313 15.5064 112.302 16.0155 112.26 16.7258H112.258Z" fill="#E99C82"/>
<path d="M126.044 14.4454C126.501 13.7141 126.734 12.8653 126.734 11.9C126.734 10.4365 126.352 9.31266 125.61 8.52764C124.868 7.74261 123.744 7.3501 122.249 7.3501H116.936V23.4586H120.138V16.5864H121.019C121.602 16.5864 122.058 16.7349 122.366 17.0318C122.684 17.3287 122.843 17.8377 122.843 18.559V23.4586H126.046V18.3578C126.046 17.6893 125.877 17.1383 125.537 16.7249C125.187 16.3114 124.688 16.0883 124.032 16.0564V15.9398C124.922 15.6639 125.601 15.1657 126.046 14.4445L126.044 14.4454ZM123.128 13.4063C122.789 13.735 122.365 13.9044 121.856 13.9044H120.138V10.013H121.856C122.365 10.013 122.79 10.1614 123.128 10.4474C123.468 10.7443 123.637 11.2324 123.637 11.9C123.637 12.5675 123.468 13.0775 123.128 13.4054V13.4063Z" fill="#E99C82"/>
<path d="M127.412 7.35107V9.9912H131.081V23.4587H134.284V9.9912H137.933V7.35107H127.413H127.412Z" fill="#E99C82"/>
<path d="M147.519 20.8185V7.35107H144.306V23.4596H152.726V20.8195H147.52L147.519 20.8185Z" fill="#E99C82"/>
<path d="M162.757 8.36885C161.835 7.45724 160.636 7.00098 159.141 7.00098C157.646 7.00098 156.383 7.45724 155.451 8.36885C154.507 9.27045 154.04 10.5746 154.04 12.2712V18.5387C154.04 20.2244 154.506 21.5185 155.451 22.4301C156.384 23.3317 157.614 23.788 159.141 23.788C160.022 23.788 160.838 23.5967 161.591 23.2151C162.344 22.8335 162.959 22.2607 163.425 21.4975C163.891 20.7234 164.125 19.7372 164.125 18.5387V12.2712C164.125 10.5746 163.669 9.27045 162.757 8.36885ZM160.923 18.168C160.923 18.6771 160.87 19.1543 160.764 19.5787C160.658 20.0131 160.488 20.3637 160.223 20.6388C159.968 20.9038 159.608 21.0413 159.141 21.0413C158.41 21.0413 157.911 20.7763 157.646 20.2462C157.38 19.7053 157.253 19.0159 157.253 18.168V12.6328C157.253 12.1128 157.296 11.6355 157.401 11.2011C157.507 10.7667 157.687 10.4061 157.953 10.1411C158.218 9.88699 158.59 9.74857 159.077 9.74857C159.564 9.74857 159.926 9.88608 160.191 10.1411C160.456 10.4061 160.647 10.7667 160.753 11.2011C160.858 11.6355 160.922 12.1128 160.922 12.6328V18.168H160.923Z" fill="#E99C82"/>
<path d="M174.847 16.5028C174.984 16.2168 175.101 15.9727 175.196 15.7496C175.302 15.5265 175.366 15.389 175.398 15.3252C175.716 14.6149 175.971 13.8617 176.151 13.0876C176.32 12.3135 176.405 11.5604 176.395 10.8391C176.395 10.1078 176.278 9.4603 176.055 8.87746C175.843 8.30462 175.503 7.84836 175.048 7.50958C174.592 7.16989 173.998 7.01142 173.267 7.02144C172.45 7.04239 171.75 7.37115 171.178 8.01866C170.605 8.65524 170.223 9.50311 170.043 10.5641C169.873 11.4757 169.852 12.3991 169.968 13.3317C170.085 14.2652 170.308 15.1558 170.647 16.0037C170.975 16.8416 171.368 17.5838 171.813 18.2094C171.697 18.4107 171.527 18.7185 171.304 19.111C171.071 19.5035 170.816 19.9061 170.519 20.3095C170.222 20.712 169.914 21.0408 169.576 21.3067C169.236 21.5717 168.897 21.6783 168.568 21.6145C168.155 21.5399 167.837 21.2011 167.625 20.5855C167.402 19.9707 167.275 19.1648 167.232 18.1785C167.201 17.1922 167.243 16.1002 167.37 14.9018C167.486 13.7033 167.678 12.4948 167.932 11.2535C168.176 10.0131 168.473 8.84649 168.833 7.7327L166.935 7.0861C166.469 8.52866 166.087 9.98123 165.79 11.4557C165.482 12.9301 165.292 14.3399 165.206 15.6868C165.163 16.3015 165.142 16.949 165.153 17.6484C165.153 18.3488 165.206 19.0373 165.313 19.7166C165.418 20.3951 165.589 21.0208 165.822 21.5936C166.055 22.1664 166.363 22.6436 166.765 23.0362C167.158 23.4177 167.667 23.6618 168.282 23.7465C168.822 23.8312 169.332 23.7574 169.819 23.5243C170.296 23.2911 170.752 22.9624 171.176 22.5489C171.6 22.1355 171.993 21.6792 172.331 21.1911C172.671 20.6929 172.968 20.2367 173.222 19.7913C173.795 20.3213 174.421 20.7248 175.11 20.9998L175.927 19.1966C175.587 19.0482 175.269 18.8788 174.983 18.6666C174.686 18.4653 174.421 18.2322 174.166 17.9663C174.241 17.8069 174.336 17.5947 174.463 17.3297C174.591 17.0647 174.717 16.7887 174.845 16.5028H174.847ZM174.084 12.8226C173.935 13.4692 173.755 14.0849 173.543 14.6577C173.33 15.2405 173.108 15.7077 172.874 16.0784C172.662 15.7287 172.482 15.2615 172.312 14.6677C172.143 14.0849 172.026 13.4592 171.963 12.7798C171.899 12.1114 171.91 11.4857 172.015 10.9138C172.047 10.7335 172.111 10.5003 172.207 10.1925C172.302 9.88469 172.44 9.60966 172.631 9.36559C172.822 9.12153 173.065 9.00495 173.373 9.0259C173.745 9.03683 173.999 9.22717 174.147 9.59873C174.296 9.95937 174.36 10.4256 174.339 10.9985C174.318 11.5713 174.233 12.186 174.084 12.8226Z" fill="#E99C82"/>
<path d="M185.791 9.9912V7.35107H177.382V23.4596H185.791V20.8195H180.585V16.408H185.049V13.7679H180.585V9.99302H185.791V9.9912Z" fill="#E99C82"/>
<path d="M196.322 14.4454C196.767 13.7141 197 12.8653 197 11.9C197 10.4365 196.629 9.31266 195.877 8.52764C195.134 7.74261 194.011 7.3501 192.515 7.3501H187.202V23.4586H190.405V16.5864H191.286C191.869 16.5864 192.325 16.7349 192.643 17.0318C192.727 17.1065 192.791 17.2012 192.855 17.3177C193.024 17.6146 193.109 18.0281 193.109 18.5581V23.4577H196.322V18.3569C196.322 17.6884 196.142 17.1374 195.802 16.724C195.494 16.3524 195.06 16.1411 194.508 16.0874C194.444 16.0664 194.37 16.0555 194.296 16.0555V15.9389C195.186 15.663 195.865 15.1648 196.321 14.4436L196.322 14.4454ZM192.123 13.9044H190.405V10.013H192.123C192.632 10.013 193.056 10.1614 193.395 10.4474C193.735 10.7443 193.904 11.2324 193.904 11.9C193.904 12.5675 193.735 13.0775 193.395 13.4054C193.055 13.7332 192.632 13.9035 192.123 13.9035V13.9044Z" fill="#E99C82"/>
<path d="M-3.48138 71.2853V57.8179H-6.69434V73.9264H1.72602V71.2863H-3.48047L-3.48138 71.2853Z" fill="#E99C82"/>
<path d="M11.7573 58.8357C10.8347 57.924 9.63626 57.4678 8.14089 57.4678C6.64551 57.4678 5.38328 57.924 4.45072 58.8357C3.50723 59.7372 3.04004 61.0414 3.04004 62.738V69.0055C3.04004 70.6912 3.50632 71.9853 4.45072 72.8969C5.38419 73.7985 6.61364 74.2548 8.14089 74.2548C9.02154 74.2548 9.83753 74.0635 10.5907 73.6819C11.3438 73.3003 11.9586 72.7275 12.4248 71.9643C12.8911 71.1902 13.1252 70.204 13.1252 69.0055V62.738C13.1252 61.0414 12.6689 59.7372 11.7573 58.8357ZM9.92313 68.6348C9.92313 69.1439 9.87031 69.6211 9.76376 70.0455C9.65812 70.4799 9.48782 70.8305 9.2228 71.1056C8.9678 71.3706 8.60808 71.5081 8.14089 71.5081C7.40959 71.5081 6.91053 71.2431 6.64551 70.713C6.3805 70.1721 6.253 69.4827 6.253 68.6348V63.0996C6.253 62.5795 6.2958 62.1023 6.40145 61.6679C6.50709 61.2335 6.68741 60.8729 6.95333 60.6079C7.21835 60.3538 7.58991 60.2154 8.07714 60.2154C8.56436 60.2154 8.92591 60.3529 9.19093 60.6079C9.45594 60.8729 9.64719 61.2335 9.75283 61.6679C9.85847 62.1023 9.92222 62.5795 9.92222 63.0996V68.6348H9.92313Z" fill="#E99C82"/>
<path d="M23.8468 66.9696C23.9843 66.6836 24.1009 66.4395 24.1965 66.2164C24.3021 65.9933 24.3659 65.8558 24.3977 65.792C24.7156 65.0817 24.9706 64.3285 25.1509 63.5544C25.3203 62.7803 25.405 62.0272 25.395 61.3059C25.395 60.5746 25.2784 59.9271 25.0553 59.3443C24.8431 58.7714 24.5034 58.3152 24.048 57.9764C23.5918 57.6367 22.998 57.4782 22.2667 57.4882C21.4498 57.5092 20.7504 57.838 20.1775 58.4855C19.6047 59.122 19.2231 59.9699 19.0428 61.0309C18.8734 61.9425 18.8516 62.8659 18.9681 63.7985C19.0847 64.732 19.3078 65.6226 19.6466 66.4705C19.9754 67.3083 20.3679 68.0506 20.8132 68.6762C20.6967 68.8775 20.5273 69.1853 20.3041 69.5778C20.071 69.9703 19.816 70.3729 19.5191 70.7763C19.2222 71.1788 18.9144 71.5076 18.5756 71.7735C18.2359 72.0385 17.8972 72.1451 17.5684 72.0813C17.1549 72.0067 16.8371 71.6679 16.6249 71.0522C16.4018 70.4375 16.2752 69.6316 16.2324 68.6453C16.2005 67.659 16.2433 66.567 16.3699 65.3686C16.4865 64.1701 16.6777 62.9616 16.9318 61.7203C17.1759 60.4799 17.4728 59.3133 17.8334 58.1995L15.9355 57.5529C15.4692 58.9955 15.0867 60.448 14.7898 61.9225C14.482 63.3969 14.2917 64.8066 14.2061 66.1536C14.1633 66.7683 14.1423 67.4158 14.1533 68.1152C14.1533 68.8156 14.2061 69.5041 14.3126 70.1834C14.4183 70.8619 14.5886 71.4876 14.8217 72.0604C15.0548 72.6332 15.3627 73.1104 15.7652 73.503C16.1577 73.8845 16.6668 74.1286 17.2815 74.2133C17.8225 74.298 18.3316 74.2242 18.8188 73.9911C19.296 73.7579 19.7523 73.4292 20.1757 73.0157C20.6001 72.6023 20.9926 72.146 21.3314 71.6579C21.6711 71.1597 21.968 70.7035 22.2221 70.2581C22.7949 70.7881 23.4206 71.1916 24.11 71.4666L24.9269 69.6634C24.5872 69.515 24.2693 69.3456 23.9834 69.1334C23.6865 68.9321 23.4215 68.699 23.1665 68.4331C23.2412 68.2737 23.3359 68.0615 23.4634 67.7965C23.5909 67.5315 23.7175 67.2555 23.845 66.9696H23.8468ZM23.0836 63.2894C22.9352 63.936 22.7548 64.5517 22.5426 65.1245C22.3305 65.7073 22.1082 66.1745 21.8742 66.5452C21.662 66.1955 21.4817 65.7283 21.3123 65.1345C21.1429 64.5517 21.0263 63.926 20.9626 63.2466C20.8988 62.5782 20.9098 61.9525 21.0154 61.3806C21.0473 61.2003 21.111 60.9671 21.2066 60.6593C21.3023 60.3515 21.4398 60.0765 21.631 59.8324C21.8223 59.5883 22.0654 59.4718 22.3733 59.4927C22.7448 59.5036 22.9989 59.694 23.1474 60.0655C23.2958 60.4262 23.3595 60.8924 23.3386 61.4653C23.3177 62.0381 23.233 62.6528 23.0836 63.2894Z" fill="#E99C82"/>
<path d="M34.7913 60.458V57.8179H26.3818V73.9264H34.7913V71.2863H29.5848V66.8748H34.049V64.2347H29.5848V60.4598H34.7913V60.458Z" fill="#E99C82"/>
<path d="M45.3219 64.9122C45.7673 64.1809 46.0004 63.3321 46.0004 62.3668C46.0004 60.9033 45.6288 59.7795 44.8766 58.9944C44.1344 58.2094 43.0106 57.8169 41.5152 57.8169H36.2021V73.9254H39.4051V67.0532H40.2857C40.8686 67.0532 41.3249 67.2017 41.6427 67.4986C41.7274 67.5732 41.7911 67.668 41.8549 67.7845C42.0243 68.0814 42.109 68.4949 42.109 69.0249V73.9245H45.3219V68.8236C45.3219 68.1552 45.1416 67.6042 44.8019 67.1908C44.4941 66.8192 44.0597 66.6079 43.5078 66.5542C43.4441 66.5332 43.3703 66.5223 43.2956 66.5223V66.4057C44.1863 66.1298 44.8648 65.6316 45.321 64.9104L45.3219 64.9122ZM41.1227 64.3712H39.4051V60.4798H41.1227C41.6318 60.4798 42.0562 60.6282 42.3949 60.9142C42.7346 61.2111 42.904 61.6992 42.904 62.3668C42.904 63.0343 42.7346 63.5443 42.3949 63.8722C42.0552 64.2 41.6318 64.3703 41.1227 64.3703V64.3712Z" fill="#E99C82"/>
<path d="M65.9093 62.9187C65.6442 62.9296 65.3792 62.9615 65.1142 62.9824C65.0614 62.548 64.9658 62.028 64.8492 61.4452C64.7217 60.8623 64.5314 60.2786 64.2873 59.6957C64.0332 59.1229 63.7035 58.6247 63.2901 58.2213C62.8875 57.8078 62.3675 57.5637 61.731 57.49C61.0625 57.4153 60.4368 57.5219 59.8649 57.7978C59.2921 58.0838 58.773 58.4872 58.3058 59.0063C57.8395 59.5363 57.4151 60.141 57.0436 60.8095C56.672 61.488 56.3432 62.1774 56.0573 62.8986C55.7713 63.6199 55.5272 64.2984 55.336 64.945C54.9116 66.3657 54.5828 67.851 54.3497 69.3992C54.1166 70.9584 54 72.4638 54 73.9273H56.0254C56.0254 72.9938 56.0892 71.9865 56.2167 70.9156C56.3542 69.8446 56.5345 68.7736 56.7685 67.6917C57.0017 66.5997 57.2776 65.5706 57.6064 64.5743C57.9242 63.588 58.2849 62.7083 58.6774 61.9442C59.0799 61.1701 59.4943 60.5654 59.9287 60.131C60.374 59.6857 60.8303 59.4735 61.2966 59.4944C61.6362 59.5054 61.9113 59.6638 62.1453 59.9716C62.3684 60.2795 62.5479 60.661 62.6863 61.1064C62.8347 61.5517 62.9404 61.9971 63.015 62.4324C63.0788 62.8777 63.1316 63.2274 63.1635 63.4924C62.9722 63.5671 62.7819 63.6518 62.6016 63.7465C62.4213 63.8421 62.241 63.9378 62.0606 64.0434C61.17 64.5416 60.3959 65.2419 59.7383 66.1535C59.0808 67.0551 58.6036 68.0095 58.3277 69.0058C58.1583 69.6633 58.0836 70.3318 58.1045 70.9993C58.1364 71.6569 58.2639 72.2716 58.4971 72.8335C58.7202 73.3854 59.059 73.8307 59.4943 74.1695C59.9296 74.5083 60.4696 74.6786 61.0953 74.6995C61.7419 74.7105 62.2938 74.572 62.75 74.2861C63.1954 74.0001 63.577 73.6176 63.8738 73.1513C64.1817 72.6741 64.4148 72.1541 64.5951 71.5922C64.7645 71.0403 64.9029 70.4894 64.9876 69.9375C65.0723 69.3856 65.1361 68.8984 65.1789 68.453C65.2108 68.0186 65.2317 67.6898 65.2536 67.4667C65.3282 66.6498 65.3492 65.8229 65.3173 65.006C65.5186 64.9741 65.7417 64.9532 65.9639 64.9313C66.197 64.9104 66.4302 64.8995 66.6852 64.9204L66.7061 62.895C66.4411 62.895 66.1761 62.9059 65.9111 62.9159L65.9093 62.9187ZM63.2582 67.1926C63.2263 67.903 63.1526 68.6352 63.036 69.3983C62.9304 69.9921 62.7919 70.544 62.6335 71.074C62.4741 71.594 62.2728 72.0175 62.0187 72.3144C61.7747 72.6113 61.4669 72.7388 61.0962 72.675C60.8203 72.6322 60.6081 72.4838 60.4596 72.2297C60.3112 71.9647 60.2155 71.6678 60.1737 71.339C60.1309 70.9993 60.1208 70.6924 60.1527 70.4165C60.2583 69.4411 60.5771 68.5395 61.1071 67.6908C61.6481 66.842 62.3794 66.1635 63.3128 65.6654C63.3128 65.9732 63.3019 66.4823 63.26 67.1926H63.2582Z" fill="#E99C82"/>
<path d="M77.0444 64.9122C77.5007 64.1809 77.7338 63.3321 77.7338 62.3668C77.7338 60.9033 77.3522 59.7795 76.61 58.9944C75.8678 58.2094 74.744 57.8169 73.2486 57.8169H67.9355V73.9254H71.1385V67.0532H72.0191C72.602 67.0532 73.0582 67.2017 73.3661 67.4986C73.6839 67.7955 73.8433 68.3045 73.8433 69.0258V73.9254H77.0462V68.8246C77.0462 68.1561 76.8768 67.6051 76.5371 67.1917C76.1874 66.7782 75.6884 66.5551 75.0317 66.5232V66.4066C75.9224 66.1307 76.6009 65.6325 77.0462 64.9113L77.0444 64.9122ZM74.1283 63.8731C73.7886 64.2018 73.3652 64.3712 72.8561 64.3712H71.1385V60.4798H72.8561C73.3652 60.4798 73.7895 60.6282 74.1283 60.9142C74.468 61.2111 74.6374 61.6992 74.6374 62.3668C74.6374 63.0343 74.468 63.5443 74.1283 63.8722V63.8731Z" fill="#E99C82"/>
<path d="M78.4121 57.8179V60.458H82.0813V73.9255H85.2843V60.458H88.9326V57.8179H78.413H78.4121Z" fill="#E99C82"/>
<path d="M98.5186 71.2853V57.8179H95.3057V73.9264H103.726V71.2863H98.5195L98.5186 71.2853Z" fill="#E99C82"/>
<path d="M113.757 58.8357C112.835 57.924 111.636 57.4678 110.141 57.4678C108.646 57.4678 107.383 57.924 106.451 58.8357C105.507 59.7372 105.04 61.0414 105.04 62.738V69.0055C105.04 70.6912 105.506 71.9853 106.451 72.8969C107.384 73.7985 108.614 74.2548 110.141 74.2548C111.022 74.2548 111.838 74.0635 112.591 73.6819C113.344 73.3003 113.959 72.7275 114.425 71.9643C114.891 71.1902 115.125 70.204 115.125 69.0055V62.738C115.125 61.0414 114.669 59.7372 113.757 58.8357ZM111.923 68.6348C111.923 69.1439 111.87 69.6211 111.764 70.0455C111.658 70.4799 111.488 70.8305 111.223 71.1056C110.968 71.3706 110.608 71.5081 110.141 71.5081C109.41 71.5081 108.911 71.2431 108.646 70.713C108.38 70.1721 108.253 69.4827 108.253 68.6348V63.0996C108.253 62.5795 108.296 62.1023 108.401 61.6679C108.507 61.2335 108.687 60.8729 108.953 60.6079C109.218 60.3538 109.59 60.2154 110.077 60.2154C110.564 60.2154 110.926 60.3529 111.191 60.6079C111.456 60.8729 111.647 61.2335 111.753 61.6679C111.858 62.1023 111.922 62.5795 111.922 63.0996V68.6348H111.923Z" fill="#E99C82"/>
<path d="M125.847 66.9696C125.984 66.6836 126.101 66.4395 126.196 66.2164C126.302 65.9933 126.366 65.8558 126.398 65.792C126.716 65.0817 126.971 64.3285 127.151 63.5544C127.32 62.7803 127.405 62.0272 127.395 61.3059C127.395 60.5746 127.278 59.9271 127.055 59.3443C126.843 58.7714 126.503 58.3152 126.048 57.9764C125.592 57.6367 124.998 57.4782 124.267 57.4882C123.45 57.5092 122.75 57.838 122.178 58.4855C121.605 59.122 121.223 59.9699 121.043 61.0309C120.873 61.9425 120.852 62.8659 120.968 63.7985C121.085 64.732 121.308 65.6226 121.647 66.4705C121.975 67.3083 122.368 68.0506 122.813 68.6762C122.697 68.8775 122.527 69.1853 122.304 69.5778C122.071 69.9703 121.816 70.3729 121.519 70.7763C121.222 71.1788 120.914 71.5076 120.576 71.7735C120.236 72.0385 119.897 72.1451 119.568 72.0813C119.155 72.0067 118.837 71.6679 118.625 71.0522C118.402 70.4375 118.275 69.6316 118.232 68.6453C118.201 67.659 118.243 66.567 118.37 65.3686C118.486 64.1701 118.678 62.9616 118.932 61.7203C119.176 60.4799 119.473 59.3133 119.833 58.1995L117.935 57.5529C117.469 58.9955 117.087 60.448 116.79 61.9225C116.482 63.3969 116.292 64.8066 116.206 66.1536C116.163 66.7683 116.142 67.4158 116.153 68.1152C116.153 68.8156 116.206 69.5041 116.313 70.1834C116.418 70.8619 116.589 71.4876 116.822 72.0604C117.055 72.6332 117.363 73.1104 117.765 73.503C118.158 73.8845 118.667 74.1286 119.282 74.2133C119.822 74.298 120.332 74.2242 120.819 73.9911C121.296 73.7579 121.752 73.4292 122.176 73.0157C122.6 72.6023 122.993 72.146 123.331 71.6579C123.671 71.1597 123.968 70.7035 124.222 70.2581C124.795 70.7881 125.421 71.1916 126.11 71.4666L126.927 69.6634C126.587 69.515 126.269 69.3456 125.983 69.1334C125.686 68.9321 125.421 68.699 125.166 68.4331C125.241 68.2737 125.336 68.0615 125.463 67.7965C125.591 67.5315 125.717 67.2555 125.845 66.9696H125.847ZM125.084 63.2894C124.935 63.936 124.755 64.5517 124.543 65.1245C124.33 65.7073 124.108 66.1745 123.874 66.5452C123.662 66.1955 123.482 65.7283 123.312 65.1345C123.143 64.5517 123.026 63.926 122.963 63.2466C122.899 62.5782 122.91 61.9525 123.015 61.3806C123.047 61.2003 123.111 60.9671 123.207 60.6593C123.302 60.3515 123.44 60.0765 123.631 59.8324C123.822 59.5883 124.065 59.4718 124.373 59.4927C124.745 59.5036 124.999 59.694 125.147 60.0655C125.296 60.4262 125.36 60.8924 125.339 61.4653C125.318 62.0381 125.233 62.6528 125.084 63.2894Z" fill="#E99C82"/>
<path d="M136.791 60.458V57.8179H128.382V73.9264H136.791V71.2863H131.585V66.8748H136.049V64.2347H131.585V60.4598H136.791V60.458Z" fill="#E99C82"/>
<path d="M147.322 64.9122C147.767 64.1809 148 63.3321 148 62.3668C148 60.9033 147.629 59.7795 146.877 58.9944C146.134 58.2094 145.011 57.8169 143.515 57.8169H138.202V73.9254H141.405V67.0532H142.286C142.869 67.0532 143.325 67.2017 143.643 67.4986C143.727 67.5732 143.791 67.668 143.855 67.7845C144.024 68.0814 144.109 68.4949 144.109 69.0249V73.9245H147.322V68.8236C147.322 68.1552 147.142 67.6042 146.802 67.1908C146.494 66.8192 146.06 66.6079 145.508 66.5542C145.444 66.5332 145.37 66.5223 145.296 66.5223V66.4057C146.186 66.1298 146.865 65.6316 147.321 64.9104L147.322 64.9122ZM143.123 64.3712H141.405V60.4798H143.123C143.632 60.4798 144.056 60.6282 144.395 60.9142C144.735 61.2111 144.904 61.6992 144.904 62.3668C144.904 63.0343 144.735 63.5443 144.395 63.8722C144.055 64.2 143.632 64.3703 143.123 64.3703V64.3712Z" fill="#E99C82"/>
<path d="M167.909 62.9187C167.644 62.9296 167.379 62.9615 167.114 62.9824C167.061 62.548 166.966 62.028 166.849 61.4452C166.722 60.8623 166.531 60.2786 166.287 59.6957C166.033 59.1229 165.704 58.6247 165.29 58.2213C164.888 57.8078 164.368 57.5637 163.731 57.49C163.062 57.4153 162.437 57.5219 161.865 57.7978C161.292 58.0838 160.773 58.4872 160.306 59.0063C159.84 59.5363 159.415 60.141 159.044 60.8095C158.672 61.488 158.343 62.1774 158.057 62.8986C157.771 63.6199 157.527 64.2984 157.336 64.945C156.912 66.3657 156.583 67.851 156.35 69.3992C156.117 70.9584 156 72.4638 156 73.9273H158.025C158.025 72.9938 158.089 71.9865 158.217 70.9156C158.354 69.8446 158.534 68.7736 158.769 67.6917C159.002 66.5997 159.278 65.5706 159.606 64.5743C159.924 63.588 160.285 62.7083 160.677 61.9442C161.08 61.1701 161.494 60.5654 161.929 60.131C162.374 59.6857 162.83 59.4735 163.297 59.4944C163.636 59.5054 163.911 59.6638 164.145 59.9716C164.368 60.2795 164.548 60.661 164.686 61.1064C164.835 61.5517 164.94 61.9971 165.015 62.4324C165.079 62.8777 165.132 63.2274 165.163 63.4924C164.972 63.5671 164.782 63.6518 164.602 63.7465C164.421 63.8421 164.241 63.9378 164.061 64.0434C163.17 64.5416 162.396 65.2419 161.738 66.1535C161.081 67.0551 160.604 68.0095 160.328 69.0058C160.158 69.6633 160.084 70.3318 160.105 70.9993C160.136 71.6569 160.264 72.2716 160.497 72.8335C160.72 73.3854 161.059 73.8307 161.494 74.1695C161.93 74.5083 162.47 74.6786 163.095 74.6995C163.742 74.7105 164.294 74.572 164.75 74.2861C165.195 74.0001 165.577 73.6176 165.874 73.1513C166.182 72.6741 166.415 72.1541 166.595 71.5922C166.765 71.0403 166.903 70.4894 166.988 69.9375C167.072 69.3856 167.136 68.8984 167.179 68.453C167.211 68.0186 167.232 67.6898 167.254 67.4667C167.328 66.6498 167.349 65.8229 167.317 65.006C167.519 64.9741 167.742 64.9532 167.964 64.9313C168.197 64.9104 168.43 64.8995 168.685 64.9204L168.706 62.895C168.441 62.895 168.176 62.9059 167.911 62.9159L167.909 62.9187ZM165.258 67.1926C165.226 67.903 165.153 68.6352 165.036 69.3983C164.93 69.9921 164.792 70.544 164.633 71.074C164.474 71.594 164.273 72.0175 164.019 72.3144C163.775 72.6113 163.467 72.7388 163.096 72.675C162.82 72.6322 162.608 72.4838 162.46 72.2297C162.311 71.9647 162.216 71.6678 162.174 71.339C162.131 70.9993 162.121 70.6924 162.153 70.4165C162.258 69.4411 162.577 68.5395 163.107 67.6908C163.648 66.842 164.379 66.1635 165.313 65.6654C165.313 65.9732 165.302 66.4823 165.26 67.1926H165.258Z" fill="#E99C82"/>
<path d="M179.044 64.9122C179.501 64.1809 179.734 63.3321 179.734 62.3668C179.734 60.9033 179.352 59.7795 178.61 58.9944C177.868 58.2094 176.744 57.8169 175.249 57.8169H169.936V73.9254H173.138V67.0532H174.019C174.602 67.0532 175.058 67.2017 175.366 67.4986C175.684 67.7955 175.843 68.3045 175.843 69.0258V73.9254H179.046V68.8246C179.046 68.1561 178.877 67.6051 178.537 67.1917C178.187 66.7782 177.688 66.5551 177.032 66.5232V66.4066C177.922 66.1307 178.601 65.6325 179.046 64.9113L179.044 64.9122ZM176.128 63.8731C175.789 64.2018 175.365 64.3712 174.856 64.3712H173.138V60.4798H174.856C175.365 60.4798 175.79 60.6282 176.128 60.9142C176.468 61.2111 176.637 61.6992 176.637 62.3668C176.637 63.0343 176.468 63.5443 176.128 63.8722V63.8731Z" fill="#E99C82"/>
<path d="M180.412 57.8179V60.458H184.081V73.9255H187.284V60.458H190.933V57.8179H180.413H180.412Z" fill="#E99C82"/>
</g>
<defs>
<clipPath id="clip0_653_17671">
<rect x="-48" y="-50" width="245" height="131" rx="65.5" fill="white"/>
</clipPath>
</defs>
</svg>
