<svg width="134" height="100" viewBox="0 0 134 100" fill="none" xmlns="http://www.w3.org/2000/svg">
<path d="M63.8083 111.742C63.2053 115.007 62.0984 117.575 60.4866 119.444C58.8755 121.316 56.956 122.496 54.7266 122.988C52.4985 123.478 50.157 123.385 47.699 122.708C45.2421 122.032 42.8869 120.825 40.637 119.088C37.2456 116.399 34.1818 112.77 31.4415 108.204C28.7034 103.638 26.8142 98.7174 25.7754 93.4409C25.5557 92.3963 25.351 91.3411 25.162 90.2646C24.974 89.1947 24.8305 88.1149 24.7282 87.0319C23.7405 86.8565 22.4136 86.6862 20.7468 86.5192C19.0806 86.3555 17.3723 86.3579 15.6199 86.5257C13.8693 86.6957 12.3333 87.1789 11.013 87.9806C9.69413 88.7811 8.85906 90.0511 8.513 91.786C8.05129 94.2127 8.42983 96.8429 9.65018 99.6803C10.8708 102.516 12.7119 105.444 15.1729 108.462C17.6326 111.481 20.5272 114.447 23.8531 117.356C27.18 120.266 30.7184 123.007 34.4678 125.578C38.2195 128.148 41.9865 130.442 45.772 132.461C49.5587 134.48 53.1609 136.071 56.5815 137.238L54.8203 147.773C49.4775 145.95 44.0756 143.462 38.6139 140.307C33.154 137.155 28.0173 133.587 23.2037 129.604C21.0191 127.81 18.7414 125.72 16.3719 123.338C14.0034 120.956 11.7522 118.372 9.61805 115.587C7.48731 112.802 5.66168 109.86 4.14582 106.76C2.631 103.66 1.61491 100.449 1.09731 97.1262C0.580997 93.8025 0.748369 90.4297 1.60126 87.01C2.418 83.8195 3.7533 81.4101 5.60584 79.7827C7.45942 78.1557 9.55033 77.0538 11.8778 76.4749C14.2071 75.8983 16.4934 75.6507 18.7384 75.7294C20.985 75.8118 22.9341 75.9716 24.5875 76.2125C24.7113 74.8018 24.8598 73.4011 25.0366 72.0085C25.2136 70.6144 25.4172 69.2325 25.647 67.858L33.0021 70.4883C32.7319 71.769 32.5372 73.0127 32.4204 74.2234C32.3022 75.4367 32.2089 76.5926 32.1362 77.6975C35.155 78.5674 38.1276 79.7009 41.0563 81.1034C41.8455 81.4542 43.0254 81.998 44.5969 82.735C46.1671 83.4731 47.9168 84.4121 49.8447 85.5532C51.7723 86.6957 53.6742 88.071 55.5527 89.6785C57.4317 91.2892 59.1071 93.1725 60.5807 95.3291C62.0562 97.4878 63.1166 99.9286 63.7635 102.649C64.4101 105.37 64.4252 108.401 63.8104 111.743L63.8083 111.742ZM47.3547 111.333C48.3453 111.833 49.4742 112.176 50.7414 112.368C52.0098 112.559 53.1743 112.432 54.2363 111.987C55.2987 111.544 56.0314 110.624 56.4339 109.228C56.9678 107.394 56.7955 105.639 55.9165 103.966C55.0382 102.295 53.7061 100.711 51.9233 99.2147C50.1391 97.7195 48.2237 96.3395 46.1757 95.0759C43.5003 93.5182 40.8814 92.201 38.321 91.1251C35.7613 90.0509 33.9207 89.3209 32.7975 88.9377C33.7978 94.4443 35.615 99.1186 38.2487 102.962C40.8822 106.807 43.9172 109.597 47.3555 111.335L47.3547 111.333Z" fill="#F6F5EA"/>
<path d="M135.319 -6.56102C135.696 -4.17218 135.194 -1.87022 133.812 0.345354C132.432 2.56152 130.422 4.5643 127.781 6.35526C125.141 8.14466 122.156 9.65538 118.82 10.8889C115.485 12.1218 112.095 12.9644 108.652 13.4139C103.438 14.049 98.3099 13.8927 93.2636 12.9506C88.22 12.0065 84.1238 10.2792 80.976 7.76615C80.3352 7.278 79.7096 6.7734 79.0962 6.24535C78.4865 5.72062 77.9295 5.16007 77.4233 4.57001C76.1165 5.12445 74.3837 5.90899 72.2232 6.92302C70.0646 7.93871 67.9109 9.08353 65.759 10.3584C63.6102 11.6335 61.8411 12.9554 60.4552 14.3265C59.0704 15.696 58.4594 17.0271 58.6272 18.3137C58.8899 20.0982 60.2833 21.4442 62.8106 22.3527C65.3377 23.2601 68.6795 23.8084 72.8343 23.9961C76.9879 24.1852 81.6718 24.0514 86.8798 23.5944C92.0892 23.1369 97.5069 22.4358 103.131 21.4894C108.758 20.5409 114.308 19.4146 119.786 18.109C125.265 16.8018 130.362 15.3586 135.083 13.7788L136.53 21.3631C129.157 23.8306 121.477 25.9333 113.49 27.6706C105.506 29.408 97.7842 30.6765 90.3258 31.4762C86.9459 31.8478 83.3452 32.1012 79.527 32.2386C75.7102 32.3756 71.9711 32.3115 68.3095 32.0464C64.652 31.7787 61.3249 31.2118 58.3335 30.3415C55.3435 29.4707 52.9435 28.1979 51.1336 26.5241C49.325 24.8487 48.3615 22.6858 48.2463 20.0356C48.1654 17.549 49.0105 15.1902 50.7804 12.9608C52.5516 10.7309 54.8051 8.66137 57.5391 6.75166C60.2761 4.84205 63.0736 3.1612 65.9326 1.70649C68.7948 0.252967 71.3089 -0.954437 73.4781 -1.91456C73.143 -2.85519 72.8425 -3.80628 72.5805 -4.77138C72.3183 -5.73756 72.0939 -6.71408 71.905 -7.70366L82.0977 -11.0271C82.203 -10.0675 82.3905 -9.18094 82.6649 -8.36665C82.9382 -7.54974 83.2231 -6.78443 83.5162 -6.06395C87.6267 -7.55548 91.7706 -8.85583 95.9529 -9.96324C97.0706 -10.2781 98.748 -10.7372 100.987 -11.3408C103.224 -11.943 105.758 -12.5431 108.587 -13.1396C111.416 -13.7351 114.294 -14.1717 117.223 -14.4516C120.154 -14.7298 122.923 -14.706 125.533 -14.381C128.145 -14.0559 130.333 -13.2815 132.096 -12.0605C133.859 -10.8383 134.934 -9.0059 135.322 -6.56198L135.319 -6.56102ZM114.424 4.20256C115.848 3.84331 117.391 3.29619 119.056 2.56498C120.723 1.83223 122.147 0.975746 123.331 -0.00602593C124.517 -0.986141 125.121 -2.03626 125.142 -3.15424C125.177 -4.62681 124.349 -5.57856 122.658 -6.00737C120.968 -6.43558 118.736 -6.50728 115.966 -6.22388C113.195 -5.93894 110.299 -5.49605 107.276 -4.89366C103.359 -4.05016 99.597 -3.09821 95.9929 -2.03876C92.3905 -0.978733 89.8147 -0.190652 88.2646 0.328097C91.4439 3.00682 95.3637 4.63285 100.024 5.20725C104.685 5.78271 109.484 5.44762 114.426 4.20315L114.424 4.20256Z" fill="#F6F5EA"/>
</svg>
