<svg width="171" height="145" viewBox="0 0 171 145" fill="none" xmlns="http://www.w3.org/2000/svg">
<path d="M100.394 139.831V4.70654H127.308V117.708H171V139.831H100.394Z" fill="#C65528"/>
<path d="M59.5449 144.532C54.2591 144.407 49.7737 142.933 46.0889 140.106C42.4017 137.281 39.6058 133.534 37.6989 128.863C35.7944 124.193 34.719 119.065 34.4729 113.471C34.2268 107.879 34.8409 102.316 36.3177 96.789C38.65 88.4325 42.5857 80.4463 48.1153 72.8234C53.6473 65.2052 60.1591 59.3052 67.6554 55.1258C69.1322 54.2679 70.6329 53.4387 72.1742 52.6357C73.7059 51.8376 75.2759 51.1327 76.8722 50.5161C76.6261 48.3033 76.1959 45.3545 75.5842 41.6673C74.9677 37.9825 74.0763 34.2666 72.9102 30.5149C71.7417 26.7679 70.2075 23.6017 68.3006 21.0209C66.396 18.4424 64.0279 17.0875 61.2057 16.9657C57.27 16.8438 53.4609 18.6241 49.7737 22.3113C46.0889 25.9985 42.5857 31.0693 39.2689 37.5213C35.9497 43.9709 32.9364 51.3477 30.2337 59.6422C27.531 67.939 25.1939 76.6349 23.2273 85.7274C21.263 94.8248 19.7264 103.855 18.6177 112.826C17.5113 121.799 16.9592 130.215 16.9592 138.082H0C0 125.794 0.98214 113.137 2.94881 100.106C4.91309 87.08 7.6779 74.6061 11.2432 62.6842C12.8395 57.2788 14.8396 51.5628 17.2364 45.5409C19.6333 39.5214 22.3981 33.6835 25.5309 28.0273C28.6661 22.3782 32.198 17.336 36.1313 12.9104C40.0646 8.48723 44.4281 5.10828 49.2193 2.7736C54.0129 0.441319 59.2367 -0.421339 64.8882 0.190408C70.1717 0.806934 74.5351 2.83574 77.9762 6.27443C81.4173 9.7155 84.1821 13.8639 86.273 18.7173C88.3616 23.5754 89.9268 28.4598 90.9734 33.3729C92.0153 38.2908 92.7848 42.5897 93.277 46.2745C95.4898 46.0308 97.7003 45.8444 99.9131 45.7225C102.128 45.6007 104.339 45.5409 106.551 45.5409L106.367 62.5002C104.277 62.3783 102.281 62.407 100.377 62.5934C98.4673 62.7774 96.6584 62.9948 94.9378 63.2386C95.1816 70.1231 95 77.0029 94.3858 83.885C94.2616 85.7298 94.0465 88.4946 93.7406 92.1818C93.4324 95.8667 92.9114 100.015 92.1754 104.625C91.437 109.234 90.3306 113.873 88.8586 118.544C87.3818 123.218 85.3841 127.548 82.8654 131.539C80.3443 135.535 77.1781 138.73 73.3714 141.126C69.5623 143.523 64.9551 144.658 59.5449 144.536V144.532ZM51.6185 108.584C51.3724 110.921 51.4369 113.502 51.8025 116.329C52.1705 119.158 52.9687 121.646 54.1993 123.794C55.4252 125.945 57.2079 127.204 59.5426 127.572C62.6132 128.067 65.1964 127.054 67.2874 124.533C69.3759 122.014 71.0965 118.54 72.449 114.116C73.7991 109.691 74.9055 105.021 75.7658 100.106C76.7479 93.7184 77.3931 87.5412 77.7014 81.579C78.0073 75.6193 78.1626 71.349 78.1626 68.7658C70.2959 72.9453 64.1211 78.5991 59.6358 85.7274C55.148 92.8557 52.4764 100.474 51.6161 108.587L51.6185 108.584Z" fill="#C65528"/>
</svg>
