<svg width="348" height="322" viewBox="0 0 348 322" fill="none" xmlns="http://www.w3.org/2000/svg">
<path d="M145.142 313.441C131.714 307.364 122.139 299.295 116.421 289.228C110.693 279.164 108.483 268.118 109.789 256.082C111.097 244.053 115.148 231.96 121.951 219.788C128.75 207.62 137.723 196.46 148.867 186.324C165.972 171.11 186.707 158.447 211.059 148.309C235.41 138.184 259.997 132.792 284.83 132.143C289.768 131.942 294.729 131.828 299.76 131.815C304.759 131.801 309.734 132.028 314.658 132.471C316.966 127.493 319.779 120.746 323.107 112.229C326.419 103.711 329.066 94.8251 331.054 85.5608C333.029 76.304 333.292 67.8806 331.819 60.2928C330.348 52.7128 326.059 47.226 318.964 43.8634C309.005 39.2762 296.843 38.8753 282.46 42.6654C268.084 46.4582 252.335 53.3943 235.231 63.4741C218.123 73.5461 200.569 85.9271 182.595 100.602C164.617 115.282 147.049 131.213 129.907 148.395C112.764 165.59 96.8099 183.114 82.0353 200.98C67.2638 218.854 54.658 236.153 44.2022 252.89L0.590413 234.241C16.922 208.099 36.2716 182.248 58.6485 156.687C81.0128 131.134 104.702 107.635 129.716 86.1914C141.006 76.4465 153.746 66.4848 167.914 56.3085C182.078 46.1374 196.947 36.7572 212.521 28.1682C228.092 19.597 243.876 12.7533 259.873 7.66288C275.867 2.57749 291.579 0.186841 307.003 0.488297C322.43 0.797468 337.01 4.70634 350.73 12.2225C363.497 19.3441 372.021 28.4587 376.3 39.5586C380.575 50.6637 382.171 62.5299 381.098 75.1549C380.011 87.7875 377.544 99.9006 373.706 111.504C369.849 123.113 366.113 133.105 362.482 141.486C368.496 143.401 374.428 145.435 380.28 147.609C386.139 149.786 391.903 152.089 397.593 154.523L374.579 190.402C369.364 187.844 364.194 185.71 359.049 184.013C353.895 182.305 348.954 180.778 344.205 179.405C335.682 194.32 326.071 208.757 315.344 222.724C312.573 226.512 308.345 232.158 302.657 239.667C296.967 247.167 290.114 255.42 282.094 264.418C274.069 273.413 265.059 282.065 255.064 290.386C245.054 298.706 234.161 305.722 222.38 311.443C210.587 317.171 198.198 320.487 185.223 321.4C172.242 322.311 158.886 319.659 145.135 313.451L145.142 313.441ZM172.537 228.245C168.798 232.946 165.533 238.508 162.716 244.925C159.902 251.349 158.648 257.519 158.957 263.443C159.251 269.366 162.162 274.006 167.676 277.356C174.915 281.785 182.905 282.47 191.633 279.406C200.351 276.344 209.394 270.844 218.751 262.92C228.105 254.989 237.156 246.272 245.902 236.76C256.917 224.25 266.787 211.817 275.504 199.471C284.212 187.128 290.287 178.213 293.72 172.717C267.936 172.959 244.542 178.198 223.533 188.431C202.518 198.662 185.523 211.933 172.527 228.247L172.537 228.245Z" fill="#F6F5EA"/>
</svg>
