<svg width="164" height="104" viewBox="0 0 164 104" fill="none" xmlns="http://www.w3.org/2000/svg">
<path d="M143.244 17.8901C145.486 23.0381 146.069 28.0181 144.991 32.831C143.917 37.6451 141.556 42.0125 137.907 45.9366C134.259 49.8573 129.799 53.1841 124.519 55.9202C119.242 58.6552 113.608 60.5486 107.623 61.5949C98.5305 63.0808 89.0783 62.8565 79.264 60.9343C69.4533 59.0077 60.8602 55.3697 53.4849 50.0146C51.9987 48.975 50.5295 47.8996 49.0674 46.7733C47.6142 45.6541 46.2337 44.4565 44.9267 43.194C42.9047 44.4196 40.2559 46.1513 36.9768 48.3877C33.7022 50.6278 30.5204 53.1464 27.4268 55.9458C24.3388 58.7454 21.9737 61.6379 20.3391 64.6279C18.7057 67.6146 18.4582 70.5014 19.6015 73.2748C21.2422 77.121 24.6589 79.9955 29.8584 81.9008C35.0568 83.8037 41.5071 84.9136 49.2048 85.227C56.9012 85.5437 65.3544 85.1515 74.5527 84.0502C83.7534 82.9478 93.1753 81.3148 102.814 79.1479C112.456 76.9764 121.842 74.4228 130.98 71.4838C140.12 68.5414 148.475 65.3135 156.054 61.7994L163.629 78.1385C151.791 83.6274 139.158 88.3356 125.725 92.2617C112.298 96.1881 99.0452 99.0966 85.9667 100.987C80.0459 101.864 73.6455 102.49 66.7732 102.871C59.9031 103.251 53.0437 103.195 46.1949 102.704C39.3518 102.207 32.9164 101.056 26.8956 99.2437C20.8771 97.4301 15.6725 94.7356 11.2829 91.1625C6.89458 87.5861 3.72998 82.9387 1.79479 77.2206C0.0285905 71.855 0.0340008 66.7448 1.80977 61.8935C3.58784 57.0411 6.34947 52.5243 10.0913 48.3418C13.8388 44.1595 17.8454 40.4696 22.1112 37.2665C26.3838 34.0659 30.1818 31.4042 33.512 29.2839C32.2887 27.2609 31.1217 25.2146 30.0158 23.1371C28.9089 21.0574 27.8639 18.9545 26.8754 16.8226L43.2966 9.42404C44.1132 11.493 45.0322 13.4025 46.0626 15.1541C47.0927 16.9114 48.1103 18.5571 49.1137 20.1058C55.6376 16.7956 62.3469 13.8973 69.2517 11.4147C71.0845 10.7103 73.8443 9.68247 77.5333 8.33005C81.2211 6.981 85.4505 5.62977 90.2203 4.27971C94.9911 2.93195 99.954 1.92593 105.112 1.2572C110.275 0.592026 115.339 0.582427 120.309 1.22631C125.285 1.87037 129.777 3.49364 133.787 6.09045C137.798 8.68955 140.949 12.6212 143.249 17.8879L143.244 17.8901ZM112.152 41.5846C114.514 40.7777 116.971 39.5627 119.532 37.9476C122.093 36.3292 124.133 34.449 125.653 32.3037C127.177 30.1619 127.594 27.8819 126.906 25.4682C126.011 22.2889 123.881 20.2527 120.518 19.3645C117.158 18.4774 113.042 18.3719 108.177 19.0447C103.31 19.7209 98.317 20.7408 93.197 22.1078C86.6044 24.0149 80.3649 26.1527 74.4831 28.5191C68.6047 30.8867 64.4212 32.6446 61.9325 33.7985C69.4732 39.5105 77.6786 42.9338 86.5499 44.0709C95.4222 45.2102 103.955 44.381 112.156 41.5858L112.152 41.5846Z" fill="#545454"/>
</svg>
