<svg width="170" height="298" viewBox="0 0 170 298" fill="none" xmlns="http://www.w3.org/2000/svg">
<path d="M161.722 112.512C157.883 116.609 153.541 119.117 148.695 120.033C143.849 120.953 138.903 120.514 133.855 118.718C128.81 116.921 123.989 114.142 119.386 110.378C114.785 106.615 110.815 102.191 107.485 97.1098C102.52 89.3487 98.9828 80.5803 96.8615 70.8071C94.7457 61.0354 94.6836 51.7042 96.6805 42.8112C97.0466 41.0348 97.4523 39.2599 97.9075 37.4713C98.3598 35.6937 98.9129 33.9518 99.5547 32.2517C97.6286 30.8803 94.9896 29.1338 91.6374 27.0083C88.2838 24.8884 84.7111 22.964 80.9155 21.2318C77.122 19.5049 73.5294 18.4784 70.1365 18.1615C66.7472 17.8443 63.9984 18.7602 61.9044 20.9082C59.0223 23.9378 57.7357 28.2135 58.0451 33.7424C58.3562 39.2694 59.8912 45.6319 62.6516 52.8245C65.4085 60.0172 69.1159 67.6241 73.7696 75.6345C78.4252 83.6465 83.6556 91.6516 89.4621 99.6442C95.2742 107.638 101.336 115.246 107.653 122.473C113.974 129.7 120.247 136.094 126.475 141.662L114.471 155.089C104.743 146.392 95.4171 136.655 86.4927 125.875C77.5704 115.101 69.6518 104.083 62.7368 92.8222C59.5872 87.7326 56.4775 82.1034 53.4065 75.9436C50.3373 69.7856 47.6724 63.4647 45.4117 56.9811C43.1584 50.5006 41.6663 44.1357 40.9466 37.8893C40.2287 31.6446 40.642 25.7985 42.1848 20.3528C43.7312 14.907 46.7455 10.1608 51.2299 6.11954C55.4576 2.373 60.1522 0.354417 65.3101 0.0639845C70.4699 -0.224757 75.7111 0.52254 81.0334 2.30229C86.3578 4.08732 91.3326 6.30526 95.9631 8.95404C100.594 11.61 104.542 14.0436 107.808 16.2619C109.181 14.3375 110.598 12.4556 112.068 10.6175C113.539 8.77747 115.056 6.9852 116.622 5.23333L129.919 17.3825C128.342 18.9516 126.953 20.5517 125.752 22.1914C124.547 23.8332 123.438 25.4193 122.414 26.9539C128.037 31.6337 133.355 36.6469 138.369 42.0042C139.741 43.4083 141.778 45.5355 144.48 48.3874C147.179 51.2395 150.095 54.5881 153.224 58.4334C156.35 62.2806 159.239 66.4395 161.896 70.9114C164.551 75.3889 166.565 80.0352 167.942 84.8538C169.321 89.6777 169.609 94.4457 168.813 99.1559C168.014 103.868 165.652 108.319 161.726 112.516L161.722 112.512ZM127.653 93.3447C129.329 95.1937 131.418 96.9693 133.915 98.6807C136.415 100.392 138.949 101.521 141.521 102.067C144.091 102.619 146.35 102.099 148.294 100.511C150.859 98.4298 151.885 95.6676 151.369 92.2278C150.853 88.7917 149.32 84.9703 146.776 80.7688C144.228 76.5675 141.314 72.3867 138.032 68.2265C133.67 62.928 129.236 58.045 124.734 53.5811C120.232 49.1207 116.961 45.9753 114.916 44.1469C112.657 53.3331 112.763 62.2234 115.232 70.8197C117.699 79.4179 121.839 86.9251 127.653 93.3483L127.653 93.3447Z" fill="#545454"/>
<path d="M122.072 255.389C118.233 259.486 113.891 261.994 109.045 262.91C104.199 263.83 99.2535 263.391 94.2052 261.595C89.1605 259.797 84.3395 257.019 79.7364 253.255C75.1352 249.492 71.1656 245.068 67.835 239.987C62.8699 232.226 59.333 223.457 57.2117 213.684C55.0959 203.912 55.0338 194.581 57.0307 185.688C57.3968 183.912 57.8025 182.137 58.2578 180.348C58.71 178.571 59.2632 176.829 59.9049 175.129C57.9788 173.757 55.3398 172.011 51.9877 169.885C48.634 167.765 45.0613 165.841 41.2657 164.109C37.4722 162.382 33.8796 161.355 30.4867 161.038C27.0974 160.721 24.3486 161.637 22.2546 163.785C19.3725 166.815 18.0859 171.09 18.3953 176.619C18.7064 182.146 20.2414 188.509 23.0018 195.701C25.7587 202.894 29.4661 210.501 34.1198 218.511C38.7755 226.523 44.0058 234.529 49.8124 242.521C55.6244 250.515 61.6862 258.123 68.0035 265.35C74.3244 272.577 80.5968 278.971 86.8248 284.539L74.8213 297.966C65.0933 289.269 55.7673 279.532 46.8429 268.752C37.9207 257.978 30.002 246.96 23.087 235.699C19.9374 230.61 16.8278 224.98 13.7567 218.821C10.6875 212.663 8.02258 206.342 5.76189 199.858C3.50858 193.378 2.01656 187.013 1.29679 180.766C0.578908 174.522 0.99222 168.675 2.53502 163.23C4.08141 157.784 7.09574 153.038 11.5801 148.996C15.8078 145.25 20.5024 143.231 25.6603 142.941C30.8201 142.652 36.0613 143.399 41.3836 145.179C46.708 146.964 51.6828 149.182 56.3133 151.831C60.9442 154.487 64.8923 156.921 68.1579 159.139C69.5311 157.214 70.9481 155.333 72.4178 153.494C73.8892 151.654 75.4064 149.862 76.9726 148.11L90.2689 160.259C88.6925 161.829 87.3029 163.429 86.1025 165.068C84.8968 166.71 83.7886 168.296 82.7638 169.831C88.3867 174.511 93.7049 179.524 98.7188 184.881C100.091 186.285 102.128 188.412 104.831 191.264C107.53 194.116 110.445 197.465 113.574 201.31C116.701 205.158 119.59 209.316 122.246 213.788C124.901 218.266 126.916 222.912 128.292 227.731C129.671 232.555 129.96 237.323 129.163 242.033C128.364 246.745 126.002 251.196 122.076 255.393L122.072 255.389ZM88.003 236.222C89.679 238.071 91.7679 239.846 94.2647 241.558C96.7652 243.269 99.2995 244.398 101.871 244.944C104.442 245.496 106.7 244.976 108.644 243.388C111.209 241.307 112.235 238.545 111.719 235.105C111.204 231.669 109.671 227.847 107.126 223.646C104.578 219.444 101.664 215.264 98.3817 211.103C94.0199 205.805 89.5861 200.922 85.0841 196.458C80.5823 191.998 77.3115 188.852 75.2664 187.024C73.0073 196.21 73.113 205.1 75.5818 213.697C78.0489 222.295 82.1892 229.802 88.0032 236.225L88.003 236.222Z" fill="#545454"/>
</svg>
