<svg width="468" height="927" viewBox="0 0 468 927" fill="none" xmlns="http://www.w3.org/2000/svg">
<path d="M145.142 916.815C131.714 909.47 122.139 899.716 116.421 887.549C110.693 875.385 108.483 862.033 109.789 847.485C111.098 832.946 115.148 818.33 121.951 803.617C128.75 788.91 137.723 775.421 148.867 763.17C165.972 744.78 186.707 729.475 211.059 717.221C235.41 704.983 259.997 698.466 284.83 697.682C289.768 697.439 294.729 697.301 299.76 697.285C304.759 697.268 309.734 697.542 314.658 698.078C316.966 692.061 319.779 683.906 323.107 673.611C326.419 663.316 329.066 652.575 331.054 641.378C333.029 630.189 333.292 620.008 331.818 610.836C330.348 601.675 326.059 595.043 318.964 590.978C309.005 585.434 296.843 584.949 282.46 589.53C268.084 594.115 252.335 602.498 235.231 614.682C218.123 626.856 200.569 641.82 182.595 659.558C164.617 677.301 147.049 696.557 129.907 717.325C112.764 738.109 96.8099 759.289 82.0354 780.884C67.2638 802.488 54.658 823.398 44.2022 843.627L0.590441 821.086C16.9221 789.488 36.2717 758.243 58.6485 727.348C81.0128 696.462 104.702 668.059 129.716 642.14C141.006 630.361 153.746 618.321 167.914 606.021C182.078 593.727 196.947 582.389 212.521 572.008C228.092 561.648 243.876 553.376 259.873 547.223C275.867 541.076 291.579 538.187 307.003 538.551C322.43 538.925 337.009 543.649 350.73 552.734C363.497 561.342 372.021 572.359 376.3 585.775C380.575 599.198 382.171 613.54 381.098 628.8C380.011 644.069 377.544 658.71 373.706 672.736C369.849 686.767 366.113 698.845 362.482 708.975C368.496 711.289 374.428 713.748 380.28 716.375C386.139 719.006 391.902 721.79 397.593 724.732L374.579 768.099C369.364 765.006 364.194 762.428 359.049 760.376C353.895 758.311 348.954 756.466 344.205 754.806C335.682 772.834 326.071 790.285 315.344 807.166C312.573 811.745 308.345 818.569 302.657 827.644C296.967 836.71 290.114 846.686 282.094 857.562C274.069 868.434 265.059 878.891 255.064 888.948C245.054 899.005 234.161 907.485 222.38 914.4C210.587 921.323 198.198 925.331 185.223 926.435C172.242 927.536 158.886 924.331 145.135 916.827L145.142 916.815ZM172.537 813.839C168.798 819.522 165.533 826.244 162.716 834C159.902 841.765 158.648 849.222 158.957 856.383C159.251 863.542 162.162 869.15 167.676 873.2C174.915 878.553 182.905 879.381 191.633 875.677C200.351 871.976 209.394 865.328 218.751 855.751C228.105 846.165 237.156 835.628 245.902 824.131C256.917 809.01 266.787 793.983 275.504 779.06C284.212 764.141 290.287 753.366 293.72 746.723C267.936 747.015 244.542 753.348 223.533 765.717C202.518 778.083 185.523 794.123 172.527 813.842L172.537 813.839Z" fill="#545454"/>
<path d="M456.138 262.824C448.096 275.847 437.852 284.895 425.401 289.964C412.952 295.044 399.503 296.548 385.043 294.478C370.593 292.406 356.21 287.591 341.876 280.024C327.548 272.46 314.549 262.789 302.902 251.015C285.438 232.967 271.245 211.454 260.291 186.491C249.352 161.529 244.138 136.633 244.662 111.794C244.679 106.85 244.803 101.889 245.052 96.8639C245.298 91.8701 245.834 86.9171 246.628 82.0278C240.741 79.4061 232.745 76.1675 222.64 72.3025C212.533 68.453 201.947 65.2445 190.87 62.6701C179.8 60.1086 169.647 59.3098 160.411 60.2985C151.184 61.2848 144.336 65.2186 139.904 72.0902C133.843 81.7435 132.718 93.8626 136.536 108.467C140.357 123.064 147.9 139.232 159.166 156.955C170.423 174.68 184.443 192.997 201.209 211.88C217.982 230.767 236.286 249.324 256.123 267.536C275.975 285.75 296.286 302.796 317.073 318.687C337.87 334.575 358.087 348.265 377.738 359.771L352.933 402.135C322.238 384.163 292.055 363.195 262.38 339.223C232.714 315.264 205.598 290.112 181.032 263.768C169.864 251.875 158.511 238.518 146.973 223.723C135.442 208.931 124.903 193.485 115.356 177.386C105.83 161.292 98.4005 145.094 93.0983 128.796C87.8021 112.5 85.7437 96.6579 86.9195 81.2745C88.1048 65.8886 93.5904 51.5778 103.385 38.355C112.653 26.0585 124.103 18.1258 137.726 14.5595C151.355 10.9967 165.762 10.1579 180.944 12.0335C196.135 13.922 210.625 17.1563 224.429 21.7278C238.238 26.3183 250.103 30.6841 260.027 34.8441C262.655 28.9599 265.423 23.1656 268.355 17.4597C271.29 11.7478 274.374 6.13874 277.611 0.611099L319.706 25.8763C316.343 30.9213 313.497 35.9476 311.177 40.9779C308.843 46.0165 306.741 50.8534 304.833 55.5079C322.387 64.9687 339.308 75.4851 355.601 87.0855C360.028 90.0942 366.62 94.6754 375.383 100.833C384.137 106.992 393.738 114.361 404.176 122.942C414.611 131.529 424.58 141.077 434.097 151.587C443.613 162.113 451.507 173.437 457.792 185.565C464.085 197.707 467.435 210.29 467.855 223.305C468.271 236.325 464.367 249.495 456.15 262.831L456.138 262.824ZM354.747 230.046C360.225 234.079 366.766 237.693 374.363 240.914C381.969 244.133 389.35 245.778 396.517 245.846C403.682 245.929 409.435 243.318 413.77 238.024C419.497 231.077 420.744 223.142 417.505 214.232C414.268 205.331 408.105 195.951 399.034 186.102C389.953 176.256 379.907 166.663 368.887 157.324C354.367 145.528 339.88 134.881 325.437 125.391C310.997 115.91 300.557 109.276 294.104 105.497C293.038 131.262 298.13 154.956 309.376 176.587C320.619 198.224 335.741 216.04 354.749 230.055L354.747 230.046Z" fill="#545454"/>
</svg>
