<svg width="222" height="464" viewBox="0 0 222 464" fill="none" xmlns="http://www.w3.org/2000/svg">
<path d="M150.582 421.906C132.008 426.917 114.578 427.247 98.2919 422.889C82 418.541 67.6914 410.644 55.3546 399.196C43.0291 387.752 33.0349 374.151 25.3632 358.373C17.6944 342.602 13.059 326.04 11.4739 308.704C9.42444 282.393 13.4148 255.516 23.4029 228.06C33.4052 200.616 48.9151 177.1 69.9521 157.513C74.0545 153.556 78.275 149.656 82.6692 145.791C87.0359 141.949 91.6493 138.335 96.462 134.947C92.9089 128.857 87.818 120.846 81.1947 110.903C74.5576 100.971 66.9249 91.23 58.2907 81.665C49.654 72.1162 40.4503 64.6024 30.6603 59.1444C20.8816 53.6909 10.9774 52.2136 0.992506 54.7302C-12.8736 58.3774 -23.9814 67.346 -32.3418 81.6543C-40.6939 95.9601 -46.7277 114.046 -50.4295 135.899C-54.1425 157.749 -55.6601 181.944 -54.9772 208.453C-54.2915 234.968 -51.8454 262.256 -47.6251 290.304C-43.3906 318.363 -37.7468 345.797 -30.6849 372.624C-23.6117 399.457 -15.2844 424.131 -5.70262 446.669L-64.8128 463.89C-79.7793 428.685 -91.7737 391.422 -100.791 352.091C-109.81 312.776 -115.367 274.229 -117.462 236.452C-118.482 219.344 -118.473 200.936 -117.454 181.249C-116.432 161.569 -113.906 142.035 -109.876 122.648C-105.829 103.279 -99.6608 85.2467 -91.3419 68.5729C-83.0202 51.9059 -71.9272 37.7941 -58.0715 26.2399C-44.2045 14.6901 -27.0483 6.91415 -6.60533 2.92818C12.5608 -0.670417 30.2405 0.711518 46.4225 7.06952C62.6074 13.4344 77.2968 22.5125 90.4961 34.2946C103.693 46.0929 115.098 58.4979 124.73 71.5115C134.351 84.5438 142.27 96.0794 148.473 106.137C155.889 103.192 163.366 100.413 170.93 97.8169C178.503 95.2183 186.134 92.8027 193.847 90.5557L213.862 139.332C206.426 141.106 199.506 143.215 193.095 145.683C186.665 148.149 180.625 150.609 174.925 153.054C184.16 172.531 191.906 192.427 198.149 212.769C199.963 218.18 202.58 226.32 206.006 237.195C209.419 248.065 212.656 260.48 215.706 274.434C218.747 288.391 220.54 302.804 221.1 317.683C221.646 332.575 219.957 347.009 216.039 361.001C212.119 375.008 204.974 387.377 194.626 398.109C184.269 408.844 169.593 416.775 150.588 421.919L150.582 421.906ZM79.1708 326.962C81.1595 333.908 84.5278 341.236 89.2454 348.964C93.9743 356.697 99.7861 363.014 106.692 367.919C113.584 372.836 121.332 374.634 129.917 373.318C141.222 371.617 148.992 366.091 153.209 356.745C157.421 347.408 159.185 335.706 158.512 321.66C157.827 307.609 155.996 293.107 153.007 278.15C148.65 258.852 143.375 240.499 137.187 223.104C130.994 205.718 126.335 193.325 123.188 185.924C100.86 205.887 86.2249 228.356 79.274 253.334C72.3147 278.314 72.2821 302.853 79.1653 326.971L79.1708 326.962Z" fill="#F6F5EA"/>
</svg>
