<svg width="171" height="145" viewBox="0 0 171 145" fill="none" xmlns="http://www.w3.org/2000/svg">
<path d="M100.393 140.038V4.91406H127.308V117.915H171V140.038H100.393Z" fill="white"/>
<path d="M59.5449 144.739C54.2591 144.615 49.7737 143.14 46.0889 140.314C42.4017 137.489 39.6058 133.742 37.6989 129.07C35.7944 124.401 34.719 119.273 34.4729 113.679C34.2268 108.087 34.8409 102.524 36.3177 96.9966C38.65 88.64 42.5857 80.6539 48.1153 73.0309C53.6473 65.4128 60.1591 59.5127 67.6554 55.3333C69.1322 54.4754 70.6329 53.6462 72.1742 52.8433C73.7059 52.0451 75.2759 51.3402 76.8722 50.7237C76.6261 48.5109 76.1959 45.562 75.5842 41.8748C74.9677 38.19 74.0763 34.4741 72.9102 30.7224C71.7417 26.9755 70.2075 23.8092 68.3006 21.2284C66.396 18.65 64.0279 17.295 61.2057 17.1732C57.27 17.0513 53.4609 18.8316 49.7737 22.5188C46.0889 26.206 42.5857 31.2768 39.2689 37.7288C35.9497 44.1784 32.9364 51.5553 30.2337 59.8497C27.531 68.1465 25.1939 76.8424 23.2273 85.935C21.263 95.0323 19.7264 104.063 18.6177 113.033C17.5113 122.007 16.9592 130.423 16.9592 138.289H0C0 126.002 0.98214 113.344 2.94881 100.313C4.91309 87.2875 7.6779 74.8136 11.2432 62.8917C12.8395 57.4863 14.8396 51.7703 17.2364 45.7484C19.6333 39.7289 22.3981 33.8911 25.5309 28.2348C28.6661 22.5857 32.198 17.5436 36.1313 13.118C40.0646 8.69475 44.4281 5.3158 49.2193 2.98112C54.0129 0.648839 59.2367 -0.213819 64.8882 0.397928C70.1717 1.01445 74.5351 3.04326 77.9762 6.48195C81.4173 9.92302 84.1821 14.0714 86.273 18.9248C88.3616 23.7829 89.9268 28.6673 90.9734 33.5804C92.0153 38.4983 92.7848 42.7972 93.277 46.4821C95.4898 46.2383 97.7003 46.0519 99.9131 45.9301C102.128 45.8082 104.339 45.7484 106.551 45.7484L106.367 62.7077C104.277 62.5858 102.281 62.6145 100.377 62.8009C98.4673 62.9849 96.6584 63.2023 94.9378 63.4461C95.1816 70.3306 95 77.2104 94.3858 84.0925C94.2616 85.9373 94.0465 88.7021 93.7406 92.3894C93.4324 96.0742 92.9114 100.223 92.1754 104.832C91.437 109.442 90.3306 114.08 88.8586 118.752C87.3818 123.426 85.3841 127.756 82.8654 131.747C80.3443 135.742 77.1781 138.937 73.3714 141.334C69.5623 143.731 64.9551 144.866 59.5449 144.744V144.739ZM51.6185 108.792C51.3724 111.129 51.4369 113.71 51.8025 116.537C52.1705 119.366 52.9687 121.854 54.1993 124.002C55.4252 126.153 57.2079 127.412 59.5426 127.78C62.6132 128.275 65.1964 127.261 67.2874 124.74C69.3759 122.222 71.0965 118.747 72.449 114.324C73.7991 109.898 74.9055 105.229 75.7658 100.313C76.7479 93.9259 77.3931 87.7487 77.7014 81.7865C78.0073 75.8268 78.1626 71.5565 78.1626 68.9733C70.2959 73.1528 64.1211 78.8067 59.6358 85.935C55.148 93.0632 52.4764 100.681 51.6161 108.794L51.6185 108.792Z" fill="white"/>
</svg>
