<svg width="456" height="389" viewBox="0 0 456 389" fill="none" xmlns="http://www.w3.org/2000/svg">
<path d="M150.892 371.701C136.77 361.772 127.238 349.962 122.302 336.262C117.355 322.563 116.48 308.206 119.673 293.178C122.869 278.161 129.137 263.518 138.49 249.231C147.838 234.951 159.471 222.307 173.379 211.322C194.678 194.894 219.665 182.302 248.327 173.509C276.987 164.732 305.228 161.988 333.059 165.293C338.604 165.859 344.162 166.539 349.783 167.358C355.37 168.172 360.893 169.285 366.33 170.665C369.626 164.743 373.741 156.666 378.686 146.431C383.613 136.194 387.851 125.379 391.407 113.976C394.947 102.58 396.456 91.9552 395.904 82.1001C395.354 72.2553 391.354 64.5934 383.914 59.1554C373.451 51.6906 359.924 49.1618 343.313 51.5721C326.707 53.9867 308.117 60.1546 287.557 70.0786C266.996 79.9922 245.604 92.7562 223.411 108.356C201.214 123.961 179.294 141.219 157.669 160.132C136.042 179.062 115.695 198.604 96.6163 218.778C77.5399 238.961 60.9653 258.776 46.8734 278.237L0.848101 247.37C22.8592 216.973 48.1993 187.448 76.8789 158.793C105.544 130.145 135.392 104.32 166.424 81.3169C180.439 70.8507 196.106 60.351 213.398 49.8166C230.686 39.2882 248.647 29.8788 267.281 21.5884C285.909 13.3202 304.526 7.27542 323.129 3.48647C341.727 -0.296564 359.622 -0.713435 376.807 2.23149C393.994 5.18667 409.716 12.5603 423.957 24.3597C437.192 35.5011 445.399 48.4617 448.578 63.2312C451.753 78.0066 451.825 93.3009 448.805 109.113C445.771 124.932 441.269 139.863 435.308 153.922C429.326 167.984 423.714 180.019 418.449 190.031C424.891 193.455 431.223 197.017 437.447 200.743C443.677 204.473 449.783 208.349 455.788 212.376L424.909 253.995C419.453 249.887 413.986 246.327 408.484 243.321C402.972 240.301 397.674 237.547 392.568 235.018C380.897 252.493 368.08 269.181 354.085 285.088C350.443 289.426 344.907 295.874 337.471 304.438C330.034 312.993 321.189 322.307 310.934 332.37C300.673 342.429 289.362 351.889 276.998 360.767C264.617 369.642 251.439 376.717 237.455 382.005C223.456 387.301 209.14 389.441 194.515 388.442C179.885 387.438 165.348 381.861 150.884 371.712L150.892 371.701ZM193.775 268.349C188.92 273.682 184.472 280.184 180.401 287.843C176.331 295.511 174.041 303.118 173.532 310.672C173.007 318.224 175.589 324.583 181.266 329.743C188.713 336.556 197.538 338.751 207.729 336.32C217.909 333.891 228.802 328.427 240.396 319.947C251.988 311.456 263.355 301.919 274.495 291.325C288.603 277.311 301.419 263.205 312.936 249.017C324.442 234.831 332.513 224.55 337.141 218.159C308.305 214.18 281.419 216.928 256.477 226.398C231.529 235.864 210.632 249.847 193.764 268.35L193.775 268.349Z" fill="#F6F5EA"/>
</svg>
