<svg width="93" height="114" viewBox="0 0 93 114" fill="none" xmlns="http://www.w3.org/2000/svg">
<path d="M90.7876 71.1364C89.1683 75.021 86.9473 77.823 84.1232 79.5414C81.2999 81.2625 78.1661 81.9878 74.7196 81.7184C71.2752 81.4481 67.7889 80.3956 64.2564 78.5585C60.7253 76.7222 57.463 74.2567 54.4747 71.163C49.9856 66.4115 46.1936 60.6018 43.0913 53.7384C39.9928 46.8749 38.243 39.9036 37.8449 32.8216C37.7451 31.414 37.6701 29.9989 37.6231 28.5632C37.5764 27.1363 37.5984 25.7146 37.6828 24.3053C36.2421 23.6892 34.2923 22.9441 31.8328 22.0674C29.3733 21.1951 26.8144 20.5158 24.1532 20.0279C21.4942 19.5435 19.0878 19.5406 16.9348 20.0263C14.7839 20.511 13.2547 21.7821 12.3558 23.8361C11.1319 26.7179 11.1217 30.1924 12.3268 34.265C13.5326 38.3357 15.6473 42.7711 18.6708 47.5667C21.6922 52.3632 25.3765 57.2672 29.719 62.2715C34.063 67.2768 38.7606 72.1543 43.8117 76.8998C48.8664 81.6452 54.0046 86.0484 59.2306 90.1121C64.4588 94.1749 69.5043 97.6245 74.3709 100.465L69.4221 113.073C61.8206 108.635 54.2766 103.334 46.7893 97.1669C39.3042 91.0028 32.3942 84.443 26.0594 77.4874C23.1812 74.3488 20.2288 70.7978 17.2028 66.8414C14.1784 62.886 11.3737 58.7225 8.78868 54.351C6.20884 49.9804 4.12023 45.534 2.53018 41.0119C0.941613 36.4906 0.124577 32.0266 0.0783811 27.6218C0.0343616 23.216 1.02502 19.0212 3.05261 15.0409C4.97577 11.3358 7.50415 8.82465 10.6356 7.50833C13.7685 6.19288 17.1416 5.63559 20.7542 5.83381C24.369 6.03554 27.8474 6.63579 31.1923 7.63189C34.5386 8.63327 37.4226 9.61368 39.8458 10.5784C40.3408 8.84537 40.8705 7.13486 41.4408 5.44587C42.0118 3.75509 42.6199 2.09032 43.2656 0.445335L53.7034 6.70633C53.0179 8.2167 52.4534 9.71038 52.0129 11.1935C51.5696 12.6793 51.1763 14.1026 50.825 15.4697C55.1551 17.7746 59.3582 20.3939 63.4365 23.3357C64.5415 24.0943 66.1891 25.2526 68.3809 26.8115C70.5705 28.3713 72.9848 30.2566 75.6217 32.4683C78.2579 34.6818 80.8044 37.1792 83.265 39.9605C85.7256 42.7463 87.8213 45.795 89.5552 49.1084C91.2912 52.4254 92.3438 55.9329 92.7157 59.6283C93.0869 63.3255 92.4447 67.1603 90.7906 71.1382L90.7876 71.1364ZM66.2365 64.0478C67.6104 65.0748 69.2258 65.9588 71.0814 66.7078C72.9391 67.4559 74.7109 67.7609 76.399 67.6218C78.0872 67.4872 79.3865 66.6167 80.2954 65.014C81.4974 62.9099 81.6244 60.6237 80.675 58.1589C79.7263 55.6968 78.0789 53.1631 75.7372 50.5603C73.3934 47.9585 70.8276 45.4498 68.0378 43.0353C64.3729 39.9986 60.7397 37.2883 57.1413 34.9061C53.5436 32.5266 50.9472 30.869 49.3492 29.9362C49.6392 37.2935 51.335 43.9255 54.4359 49.834C57.5362 55.7443 61.4694 60.4813 66.2372 64.0505L66.2365 64.0478Z" fill="#F6F5EA"/>
</svg>
