<svg width="121" height="79" viewBox="0 0 121 79" fill="none" xmlns="http://www.w3.org/2000/svg">
<path d="M31.4069 70.8481C28.4239 67.8793 26.6707 64.7632 26.1487 61.4988C25.6239 58.2342 26.1383 55.0589 27.6918 51.9706C29.2454 48.8846 31.5387 46.0558 34.5759 43.4811C37.6118 40.9074 41.1283 38.8206 45.1229 37.2251C51.2197 34.8677 58.0323 33.5559 65.5592 33.2814C73.0848 33.0103 80.1999 34.0286 86.9059 36.3398C88.2467 36.7801 89.5849 37.246 90.9316 37.7459C92.2702 38.2425 93.5778 38.8008 94.8504 39.4122C95.9658 38.3117 97.3933 36.7889 99.1355 34.844C100.874 32.8975 102.471 30.7859 103.929 28.5071C105.384 26.2292 106.297 24.0028 106.662 21.8261C107.027 19.6517 106.429 17.7552 104.868 16.1459C102.664 13.9226 99.4514 12.5985 95.2257 12.1729C91.0014 11.7487 86.0956 12.0279 80.5125 13.012C74.9293 13.9938 68.9959 15.5485 62.7205 17.6745C56.4437 19.8016 50.1512 22.3043 43.8474 25.1842C37.5421 28.0675 31.5221 31.1574 25.783 34.4572C20.044 37.7593 14.9418 41.1244 10.4708 44.5542L0.673376 35.2029C7.65695 29.8456 15.4184 24.8684 23.9605 20.2715C32.4985 15.6754 41.1853 11.7614 50.0208 8.52945C54.015 7.05294 58.4192 5.66367 63.2264 4.35977C68.0322 3.05691 72.9473 2.03616 77.9719 1.2975C82.9938 0.563284 87.8998 0.312432 92.6874 0.551749C97.4736 0.792109 101.915 1.72494 106.01 3.34893C110.104 4.97528 113.612 7.47955 116.53 10.8625C119.232 14.0446 120.599 17.3352 120.633 20.7319C120.665 24.1296 119.905 27.4628 118.354 30.7318C116.799 34.0015 114.928 36.9941 112.74 39.7133C110.547 42.432 108.548 44.7306 106.738 46.6086C108.155 47.7225 109.538 48.86 110.886 50.027C112.235 51.1954 113.545 52.3881 114.824 53.6083L105.079 60.9009C103.94 59.6949 102.771 58.6071 101.565 57.6382C100.357 56.6657 99.1886 55.763 98.0562 54.9206C94.2842 58.0566 90.2691 60.956 86.0029 63.6179C84.8826 64.3537 83.187 65.4406 80.9147 66.8795C78.6423 68.3161 75.9837 69.8375 72.9386 71.4414C69.8922 73.044 66.6169 74.4562 63.1113 75.6814C59.6016 76.905 55.9866 77.6913 52.2634 78.0424C48.5362 78.3943 44.8912 78.0414 41.3298 76.9873C37.7671 75.932 34.4604 73.8865 31.4042 70.8502L31.4069 70.8481ZM47.2584 50.8046C45.7879 51.6879 44.3584 52.8487 42.963 54.2828C41.5675 55.7193 40.6148 57.244 40.1047 58.8592C39.5906 60.4728 39.9047 62.0048 41.0443 63.4526C42.5371 65.3615 44.6053 66.3441 47.2461 66.3979C49.8841 66.4514 52.8528 65.8852 56.1481 64.7025C59.4433 63.5175 62.7363 62.0917 66.027 60.423C70.2247 58.1796 74.1082 55.8421 77.6749 53.4127C81.2388 50.9829 83.7555 49.2067 85.2237 48.0805C78.3037 45.565 71.5231 44.6253 64.8806 45.2599C58.2367 45.8932 52.3635 47.7416 47.2557 50.8044L47.2584 50.8046Z" fill="#F6F5EA"/>
</svg>
