<svg width="422" height="268" viewBox="0 0 422 268" fill="none" xmlns="http://www.w3.org/2000/svg">
<path d="M318.964 28.3451C329.008 39.1321 334.728 50.2705 336.12 61.7639C337.521 73.2585 335.298 84.302 329.45 94.9028C323.602 105.495 315.199 115.089 304.227 123.695C293.26 132.297 280.675 139.131 266.484 144.183C244.834 151.62 220.818 155.302 194.44 155.26C168.068 155.206 143.304 150.694 120.144 141.712C115.511 139.993 110.89 138.184 106.243 136.255C101.625 134.339 97.1236 132.211 92.7517 129.902C88.7015 133.604 83.5031 138.743 77.147 145.317C70.805 151.898 64.9349 159.075 59.5268 166.855C54.1331 174.633 50.6404 182.302 49.0725 189.871C47.5047 197.432 49.3448 204.148 54.5934 209.988C62.0116 218.063 73.0768 223.125 87.8082 225.177C102.535 227.224 119.74 226.901 139.41 224.201C159.079 221.509 180.05 216.859 202.295 210.255C224.544 203.648 246.898 195.728 269.343 186.49C291.793 177.24 313.272 167.229 333.796 156.446C354.319 145.655 372.624 134.559 388.727 123.152L421.767 157.183C396.614 175 368.789 191.384 338.283 206.332C307.791 221.279 276.87 233.819 245.519 243.951C231.344 248.586 215.747 252.861 198.75 256.784C181.758 260.703 164.422 263.62 146.739 265.535C129.067 267.435 111.865 267.659 95.1425 266.184C78.425 264.705 63.0071 260.849 48.8936 254.62C34.7803 248.383 22.8374 239.151 13.0794 226.924C4.0481 215.428 -0.299772 203.73 0.0354711 191.839C0.375606 179.944 3.48121 168.381 9.34273 157.147C15.2187 145.912 22.168 135.688 30.1863 126.464C38.2236 117.242 45.5248 109.465 52.1088 103.134C47.2988 99.0467 42.6109 94.8815 38.0504 90.6179C33.4853 86.3495 29.0566 82.0006 24.7456 77.5603L59.8206 53.3379C63.6447 57.7104 67.5908 61.6728 71.6828 65.2242C75.7792 68.7887 79.7486 72.1033 83.5995 75.2024C97.2177 64.7304 111.655 55.1189 126.939 46.3719C130.958 43.9462 137.037 40.3687 145.181 35.6359C153.324 30.9113 162.831 25.9413 173.701 20.7341C184.576 15.5317 196.226 11.0261 208.657 7.2057C221.103 3.39141 233.858 1.12142 246.934 0.388844C260.025 -0.345884 272.734 1.3749 285.056 5.53811C297.384 9.70611 308.683 17.3053 318.974 28.3382L318.964 28.3451ZM260.82 96.3756C266.084 93.4807 271.241 89.6089 276.316 84.7761C281.391 79.935 284.928 74.7263 286.928 69.1417C288.942 63.5632 288.047 58.16 284.252 52.9415C279.282 46.0625 272.176 42.3481 262.941 41.808C253.716 41.2692 243.252 42.8549 231.562 46.5547C219.872 50.2628 208.159 54.8134 196.42 60.2148C181.431 67.5061 167.529 75.1686 154.724 83.1954C141.928 91.2235 132.884 97.1039 127.596 100.85C151.477 110.575 175.081 114.767 198.411 113.431C221.747 112.1 242.546 106.415 260.83 96.377L260.82 96.3756Z" fill="#F6F5EA"/>
</svg>
