<svg width="136" height="100" viewBox="0 0 136 100" fill="none" xmlns="http://www.w3.org/2000/svg">
<path d="M-22.654 -3.67746C-20.7694 -6.42933 -18.6517 -8.45144 -16.3 -9.74326C-13.9484 -11.0369 -11.5572 -11.6508 -9.12483 -11.5857C-6.69418 -11.5198 -4.37799 -10.913 -2.17358 -9.76343C0.0299353 -8.61442 1.92354 -7.01949 3.50367 -4.979C5.85806 -1.84166 7.51475 2.05438 8.47978 6.70574C9.44217 11.3573 9.41321 16.1313 8.39031 21.0298C8.20186 22.0027 7.99425 22.9816 7.76256 23.9759C7.53238 24.964 7.25361 25.951 6.93222 26.9316C7.85591 27.308 9.12234 27.756 10.7316 28.2773C12.3416 28.7954 14.0589 29.1762 15.8853 29.4206C17.7107 29.6627 19.4433 29.5796 21.0837 29.1667C22.7224 28.7545 24.0588 27.8186 25.086 26.3621C26.5004 24.3198 27.1502 21.9093 27.0354 19.1269C26.9198 16.3457 26.217 13.3437 24.9262 10.1239C23.6372 6.90349 21.8906 3.63193 19.6885 0.313976C17.4855 -3.00453 15.0043 -6.22196 12.244 -9.33527C9.48113 -12.4484 6.59487 -15.3213 3.58254 -17.9555C0.568483 -20.589 -2.42741 -22.8036 -5.40702 -24.6022L0.488512 -33.5225C5.14257 -30.7131 9.59551 -27.3025 13.8474 -23.2888C18.0983 -19.2774 21.8618 -14.9712 25.138 -10.3702C26.6304 -8.29471 28.1001 -5.9358 29.5478 -3.29831C30.9946 -0.661363 32.2446 2.12762 33.2979 5.06864C34.3477 8.00929 35.0297 11.0198 35.3386 14.1005C35.6466 17.1807 35.4096 20.2484 34.6283 23.3022C33.8453 26.3568 32.3561 29.3017 30.1598 32.1344C28.0896 34.7725 25.8043 36.6037 23.3056 37.6275C20.806 38.6507 18.2736 39.1564 15.7085 39.1466C13.1424 39.1344 10.7482 38.8409 8.52345 38.2681C6.29855 37.6917 4.40278 37.1136 2.83598 36.53C2.15906 37.7496 1.46126 38.9549 0.738181 40.1467C0.0142755 41.3397 -0.731508 42.516 -1.50074 43.6799L-7.86032 39.7056C-7.08729 38.6337 -6.40451 37.5776 -5.81304 36.5332C-5.21899 35.4869 -4.67251 34.4857 -4.16673 33.525C-6.85907 32.0792 -9.40173 30.4107 -11.795 28.5142C-12.4505 28.027 -13.4229 27.2818 -14.7132 26.2779C-16.0017 25.2732 -17.3919 24.0508 -18.882 22.6097C-20.3712 21.1674 -21.7434 19.525 -23.0012 17.6826C-24.2582 15.8372 -25.2038 13.7964 -25.8398 11.5592C-26.4767 9.31969 -26.5861 6.92381 -26.1706 4.37356C-25.7543 1.82206 -24.5826 -0.860777 -22.6558 -3.67855L-22.654 -3.67746ZM-6.28297 0.37218C-7.0826 -0.291615 -8.08254 -0.847742 -9.28038 -1.30177C-10.48 -1.75509 -11.6996 -1.90404 -12.9411 -1.7479C-14.1819 -1.59483 -15.2786 -0.945103 -16.2296 0.198757C-17.4844 1.70079 -17.9986 3.29116 -17.7706 4.96735C-17.5427 6.64175 -16.8247 8.34113 -15.6196 10.0638C-14.4127 11.7858 -13.0287 13.4354 -11.4659 15.0117C-9.38802 16.9887 -7.2726 18.7404 -5.12153 20.2657C-2.97052 21.7892 -1.40709 22.8472 -0.428668 23.4378C0.72299 18.3445 0.728059 13.804 -0.412638 9.81498C-1.5525 5.82473 -3.50926 2.67773 -6.28304 0.370378L-6.28297 0.37218Z" fill="#545454"/>
<ellipse cx="62" cy="82.5" rx="74" ry="43.5" fill="#545454"/>
</svg>
