<svg width="77" height="77" viewBox="0 0 77 77" fill="none" xmlns="http://www.w3.org/2000/svg">
<path d="M12.7299 -55.1059C18.3797 -55.3507 23.2217 -54.3172 27.2559 -52.0032C31.2925 -49.6915 34.4095 -46.4833 36.6093 -42.3764C38.8064 -38.2715 40.134 -33.6945 40.5923 -28.6389C41.0504 -23.5855 40.5888 -18.4999 39.2046 -13.3885C37.0055 -5.65392 33.0809 1.8533 27.4414 9.13896C21.7991 16.4205 15.0505 22.2104 7.19024 26.5069C5.64295 27.3846 4.06913 28.2379 2.45101 29.0701C0.842927 29.8974 -0.80924 30.6427 -2.49257 31.3097C-2.15242 33.2994 -1.59003 35.944 -0.807897 39.2458C-0.0207434 42.5452 1.061 45.8541 2.43749 49.1769C3.81637 52.4952 5.56546 55.2623 7.69224 57.4734C9.81638 59.6825 12.3929 60.7508 15.4113 60.6705C19.619 60.5148 23.625 58.643 27.4343 55.0505C31.241 51.4581 34.8054 46.6235 38.1225 40.5491C41.4423 34.4768 44.4029 27.5844 46.9998 19.8811C49.5966 12.1756 51.7889 4.133 53.5718 -4.24423C55.352 -12.6256 56.6776 -20.9174 57.5486 -29.1262C58.4169 -37.3369 58.7125 -45.0053 58.4377 -52.138L76.5506 -53.2849C76.9798 -42.1438 76.3729 -30.6005 74.7275 -18.6525C73.0845 -6.7091 70.5673 4.78796 67.1758 15.8387C65.6597 20.8476 63.7232 26.1656 61.3736 31.7877C59.024 37.4077 56.275 42.8879 53.1266 48.2283C49.9754 53.5624 46.3794 58.3729 42.3331 62.6516C38.2866 66.9281 33.7443 70.2869 28.7087 72.7278C23.6705 75.1667 18.1215 76.3021 12.0643 76.1296C6.39983 75.9279 1.66868 74.3835 -2.12657 71.4983C-5.92189 68.611 -9.01965 65.0366 -11.4223 60.7775C-13.8226 56.5139 -15.6649 52.191 -16.9543 47.8071C-18.2388 43.4185 -19.2108 39.5727 -19.8652 36.265C-22.22 36.6356 -24.5743 36.9541 -26.9334 37.2143C-29.295 37.4746 -31.6537 37.6782 -34.017 37.8279L-34.4128 22.4385C-32.1754 22.4076 -30.0453 22.2466 -28.0177 21.9488C-25.9849 21.6529 -24.0605 21.3334 -22.2314 20.996C-22.7322 14.7703 -22.7785 8.52011 -22.3629 2.23853C-22.2947 0.557444 -22.1615 -1.96396 -21.9636 -5.32783C-21.7631 -8.68971 -21.3516 -12.4863 -20.7265 -16.7156C-20.0988 -20.9451 -19.0792 -25.2254 -17.6702 -29.5608C-16.2562 -33.8988 -14.2738 -37.9599 -11.7231 -41.7486C-9.17013 -45.5418 -5.90005 -48.6527 -1.91811 -51.0834C2.06637 -53.5141 6.94734 -54.8549 12.7298 -55.1102L12.7299 -55.1059ZM22.451 -23.0485C22.6322 -25.1842 22.4732 -27.5199 21.984 -30.0583C21.4921 -32.5988 20.5528 -34.8003 19.1634 -36.6649C17.779 -38.5321 15.8311 -39.5533 13.3248 -39.7291C10.0279 -39.97 7.3044 -38.8766 5.15928 -36.4494C3.01663 -34.0244 1.3004 -30.7577 0.0103404 -26.6557C-1.27709 -22.5517 -2.29568 -18.2432 -3.0428 -13.7281C-3.86867 -7.87018 -4.34202 -2.22567 -4.46302 3.20105C-4.58157 8.62544 -4.59832 12.5078 -4.5081 14.85C3.74774 10.5285 10.1451 4.98452 14.6866 -1.78203C19.2307 -8.54874 21.818 -15.6368 22.4534 -23.0509L22.451 -23.0485Z" fill="#F59B7E"/>
</svg>
