<svg width="94" height="95" viewBox="0 0 94 95" fill="none" xmlns="http://www.w3.org/2000/svg">
<path d="M60.8669 127.782C55.405 126.317 51.0979 123.875 47.9462 120.455C44.7915 117.037 42.7836 113.04 41.9205 108.461C41.0594 103.886 41.1695 99.1214 42.2527 94.162C43.3353 89.2048 45.3048 84.4934 48.162 80.0348C52.5851 73.3194 58.5854 67.3397 66.1548 62.0871C73.7254 56.8392 81.9028 53.3466 90.6912 51.6125C92.4308 51.2407 94.1884 50.9001 95.9819 50.593C97.7643 50.2876 99.5641 50.0735 101.37 49.9436C101.644 47.9437 101.903 45.2524 102.15 41.8682C102.391 38.4849 102.355 35.0038 102.041 31.4209C101.724 27.8415 100.888 24.6765 99.5241 21.9282C98.1626 19.1827 96.0265 17.389 93.1237 16.558C89.0639 15.4412 84.6804 16.0217 79.9672 18.3026C75.2564 20.584 70.4032 24.123 65.4131 28.9188C60.421 33.7119 55.5248 39.3949 50.7318 45.9609C45.9381 52.5289 41.4288 59.54 37.2094 66.9934C32.9913 74.4516 29.2336 81.9611 25.9347 89.528C22.6376 97.0976 20.0498 104.322 18.167 111.207L0.547492 106.855C3.48835 96.1002 7.53824 85.2735 12.7002 74.3734C17.8585 63.4767 23.7165 53.2687 30.274 43.7493C33.2261 39.428 36.6721 34.9385 40.6035 30.2831C44.5343 25.6297 48.804 21.2298 53.4125 17.0833C58.0218 12.9436 62.898 9.43707 68.0436 6.57313C73.1887 3.71129 78.5308 1.87383 84.0673 1.06014C89.6057 0.249159 95.2393 0.834849 100.964 2.82078C106.306 4.71644 110.354 7.61205 113.106 11.5049C115.857 15.3998 117.737 19.7403 118.748 24.5248C119.755 29.3129 120.212 33.9896 120.123 38.5584C120.029 43.1301 119.799 47.0902 119.429 50.4416C121.786 50.7962 124.127 51.2004 126.455 51.6617C128.786 52.1236 131.097 52.6386 133.396 53.2065L129.145 68.0027C127.002 67.3594 124.922 66.8724 122.899 66.5467C120.871 66.2177 118.94 65.9437 117.094 65.7155C115.7 71.8036 113.864 77.7785 111.579 83.6444C111.009 85.2271 110.123 87.5918 108.923 90.7405C107.721 93.8864 106.187 97.3836 104.319 101.229C102.448 105.074 100.189 108.85 97.5415 112.561C94.8885 116.273 91.7766 119.55 88.2048 122.396C84.6293 125.246 80.5751 127.23 76.0466 128.351C71.5156 129.471 66.4573 129.282 60.8657 127.787L60.8669 127.782ZM61.2354 94.2855C60.4204 96.2678 59.8697 98.5432 59.573 101.111C59.2781 103.682 59.512 106.064 60.2764 108.26C61.0352 110.457 62.5859 112.017 64.9234 112.938C67.9952 114.159 70.9215 113.936 73.6972 112.266C76.4699 110.597 79.089 107.998 81.5528 104.474C84.0147 100.947 86.2817 97.1439 88.352 93.0625C90.9011 87.724 93.0499 82.483 94.7971 77.3439C96.5413 72.2062 97.7247 68.5085 98.3429 66.2476C89.1697 67.8866 81.4013 71.2503 75.0353 76.338C68.6668 81.4251 64.0678 87.4071 61.2324 94.287L61.2354 94.2855Z" fill="#F59B7E"/>
</svg>
