<svg width="78" height="38" viewBox="0 0 78 38" fill="none" xmlns="http://www.w3.org/2000/svg">
<path d="M9.013 24.8488C8.03344 21.9562 7.83863 19.2896 8.42969 16.8485C9.01915 14.4066 10.2123 12.3062 12.0099 10.5458C13.8068 8.78701 15.9797 7.4079 18.532 6.40735C21.0832 5.40716 23.7898 4.87905 26.6491 4.82542C30.9915 4.79845 35.4765 5.70049 40.1053 7.52523C44.7324 9.35201 48.7531 11.9776 52.1671 15.4049C52.8557 16.0748 53.5357 16.762 54.2114 17.4755C54.8831 18.1845 55.5189 18.9287 56.1187 19.7009C57.0991 19.2242 58.3855 18.5335 59.9796 17.6297C61.5716 16.7236 63.1241 15.6633 64.6393 14.4481C66.1518 13.2324 67.3227 11.9078 68.1482 10.4714C68.9731 9.0366 69.1382 7.53937 68.6411 5.98639C67.9254 3.82809 66.3502 2.03335 63.9126 0.600323C61.4754 -0.831406 58.4306 -1.95004 54.7803 -2.75334C51.1307 -3.55831 47.11 -4.05336 42.7238 -4.23736C38.3364 -4.42099 33.8353 -4.34404 29.2224 -4.0043C24.6078 -3.66251 20.1083 -3.09856 15.7204 -2.31136C11.332 -1.52249 7.3111 -0.518525 3.65408 0.700346L0.325937 -8.51852C6.03809 -10.4224 12.1152 -11.8497 18.5587 -12.7996C24.9996 -13.7501 31.341 -14.1799 37.5829 -14.089C40.4089 -14.0588 43.4587 -13.8572 46.7285 -13.4874C49.9971 -13.1172 53.2536 -12.5188 56.4978 -11.6922C59.7392 -10.8632 62.7763 -9.72455 65.6055 -8.27214C68.4337 -6.81935 70.8608 -4.97095 72.8863 -2.72823C74.9113 -0.483837 76.3374 2.22207 77.1621 5.38895C77.9124 8.35652 77.8255 11.0428 76.9022 13.4461C75.9779 15.8498 74.592 17.9955 72.7461 19.8841C70.8975 21.7721 68.9341 23.3798 66.8555 24.71C64.7738 26.0383 62.9263 27.1226 61.3099 27.9612C61.8575 29.1263 62.3779 30.2989 62.8688 31.4829C63.3602 32.6682 63.8217 33.8605 64.256 35.0633L56.3359 37.591C55.9823 36.4355 55.5774 35.3553 55.117 34.3489C54.6567 33.3395 54.2006 32.3899 53.7497 31.4924C50.5971 32.6916 47.3632 33.6588 44.0434 34.3913C43.1614 34.6096 41.8339 34.9211 40.0598 35.3261C38.2863 35.7294 36.2556 36.089 33.9682 36.4032C31.6804 36.716 29.3071 36.8332 26.8465 36.7569C24.3838 36.6783 21.9788 36.2633 19.6294 35.5125C17.2772 34.7611 15.1706 33.535 13.3094 31.8371C11.4476 30.1379 10.0158 27.8093 9.01078 24.8495L9.013 24.8488ZM24.1685 14.9704C23.0337 15.1987 21.8466 15.6336 20.6042 16.2704C19.3611 16.9088 18.3614 17.7281 17.6042 18.7299C16.845 19.7295 16.6094 20.8937 16.8965 22.2198C17.2691 23.9656 18.247 25.2129 19.8294 25.9589C21.4101 26.7039 23.363 27.1008 25.6846 27.1507C28.0069 27.1989 30.3947 27.0769 32.8486 26.7829C36.0108 26.3271 39.009 25.7207 41.8411 24.9645C44.6717 24.2074 46.6873 23.6302 47.8882 23.2299C44.4015 19.6013 40.5614 17.1207 36.3674 15.787C32.1729 14.452 28.1072 14.1801 24.1669 14.9694L24.1685 14.9704Z" fill="#F59B7E"/>
</svg>
