<svg width="38" height="24" viewBox="0 0 38 24" fill="none" xmlns="http://www.w3.org/2000/svg">
<path d="M15.0043 -31.1114C17.157 -28.9452 18.5057 -26.6365 19.0493 -24.1845C19.5948 -21.7323 19.4479 -19.3212 18.6086 -16.9493C17.7692 -14.5791 16.4251 -12.3844 14.5737 -10.3626C12.7232 -8.34165 10.5253 -6.67614 7.98142 -5.36951C4.09408 -3.43402 -0.330097 -2.27 -5.28963 -1.87115C-10.2485 -1.4749 -15.0144 -2.06283 -19.5884 -3.63769C-20.5016 -3.93608 -21.4147 -4.25392 -22.3354 -4.59713C-23.2506 -4.93813 -24.149 -5.32654 -25.0275 -5.75589C-25.698 -4.89639 -26.5491 -3.70998 -27.5827 -2.1968C-28.6134 -0.682518 -29.5407 0.952836 -30.3665 2.71092C-31.1895 4.46831 -31.6579 6.17298 -31.7669 7.82616C-31.8761 9.47757 -31.3654 10.8947 -30.2354 12.0703C-28.6428 13.6933 -26.4386 14.6116 -23.619 14.8254C-20.8004 15.0383 -17.574 14.7026 -13.9427 13.8173C-10.3113 12.9338 -6.48318 11.6087 -2.46365 9.84332C1.55672 8.07716 5.56455 6.02695 9.55703 3.69159C13.5502 1.35362 17.3423 -1.13319 20.9358 -3.7713C24.5291 -6.41119 27.6976 -9.08241 30.4449 -11.7865L37.4909 -4.97341C33.1998 -0.74976 28.3712 3.20666 23.0034 6.89569C17.6383 10.584 12.1334 13.761 6.48862 16.4267C3.93771 17.6435 1.11053 18.8047 -1.98829 19.9118C-5.08627 21.018 -8.27371 21.914 -11.5506 22.5997C-14.826 23.282 -18.0543 23.5963 -21.234 23.5374C-24.4129 23.4777 -27.4058 22.8862 -30.2117 21.7639C-33.0178 20.6399 -35.4894 18.8379 -37.6238 16.3572C-39.6036 14.0227 -40.7079 11.5724 -40.9367 9.00804C-41.1646 6.44283 -40.8646 3.90617 -40.0384 1.39791C-39.2095 -1.11103 -38.154 -3.41878 -36.8731 -5.52805C-35.5885 -7.63706 -34.4068 -9.42387 -33.3245 -10.8882C-34.329 -11.6934 -35.3124 -12.5173 -36.2743 -13.3644C-37.2372 -14.2124 -38.1765 -15.0799 -39.0958 -15.9688L-33.0967 -21.7244C-32.2705 -20.8425 -31.4315 -20.0508 -30.5752 -19.3497C-29.7176 -18.6459 -28.8901 -17.994 -28.0902 -17.3866C-25.7872 -19.8509 -23.3091 -22.1428 -20.6505 -24.2617C-19.9546 -24.8459 -18.8997 -25.7099 -17.4849 -26.8544C-16.07 -27.9972 -14.4048 -29.2139 -12.4892 -30.5027C-10.5727 -31.7905 -8.49315 -32.9404 -6.25007 -33.9549C-4.00417 -34.9683 -1.662 -35.6541 0.778088 -36.014C3.22084 -36.3746 5.6521 -36.2008 8.07069 -35.4954C10.4903 -34.7891 12.8008 -33.3284 15.006 -31.1131L15.0043 -31.1114ZM5.74366 -15.5708C6.66209 -16.2752 7.53658 -17.1883 8.37193 -18.3069C9.20712 -19.4272 9.74426 -20.603 9.9832 -21.8358C10.225 -23.0675 9.92412 -24.2166 9.08266 -25.281C7.97964 -26.6846 6.55256 -27.3741 4.80342 -27.3475C3.0561 -27.3208 1.12786 -26.8176 -0.978787 -25.8406C-3.08528 -24.8617 -5.17563 -23.7012 -7.24967 -22.3571C-9.88842 -20.5561 -12.3137 -18.692 -14.524 -16.7664C-16.7324 -14.8407 -18.2882 -13.4353 -19.1903 -12.5473C-14.4624 -10.8237 -9.92245 -10.2865 -5.56953 -10.9348C-1.21561 -11.5822 2.55484 -13.1276 5.74548 -15.5706L5.74366 -15.5708Z" fill="#F59B7E"/>
</svg>
