<svg width="111" height="45" viewBox="0 0 111 45" fill="none" xmlns="http://www.w3.org/2000/svg">
<path d="M68.8707 -46.8568C72.6954 -44.7415 75.4722 -42.1087 77.2003 -38.9569C78.931 -35.8057 79.6937 -32.4338 79.4895 -28.8388C79.2844 -25.2462 78.3155 -21.6926 76.5805 -18.1738C74.8462 -14.6564 72.4924 -11.4885 69.5198 -8.67528C64.9526 -4.46043 59.3391 -1.09088 52.6838 1.44147C46.0285 3.96996 39.2445 5.0689 32.3292 4.73496C30.9551 4.69029 29.5733 4.61885 28.1707 4.51566C26.7768 4.41322 25.3868 4.239 24.0079 4.00052C23.4304 5.44981 22.7356 7.42057 21.9209 9.91332C21.1105 12.4065 20.4905 15.0246 20.0593 17.7707C19.6314 20.5149 19.6699 23.0446 20.1815 25.3599C20.6922 27.6727 21.9609 29.4156 23.9839 30.579C26.8217 32.1719 30.218 32.5518 34.1779 31.7175C38.1361 30.8823 42.4351 29.1302 47.0705 26.4609C51.7069 23.7939 56.437 20.4415 61.2539 16.4075C66.0716 12.3721 70.7584 7.95147 75.3101 3.1451C79.8616 -1.66511 84.0773 -6.5994 87.9596 -11.6621C91.841 -16.7273 95.1261 -21.6655 97.8193 -26.4803L110.227 -19.9376C106.02 -12.4171 100.968 -5.0487 95.0686 2.16799C89.1721 9.38267 82.879 15.9507 76.1891 21.872C73.1707 24.5645 69.7505 27.2913 65.9354 30.0524C62.1211 32.8119 58.0997 35.3183 53.8713 37.5717C49.6436 39.8196 45.3334 41.5431 40.9406 42.7344C36.5487 43.9241 32.1995 44.3088 27.8949 43.8894C23.5893 43.4675 19.4722 41.9803 15.5469 39.4256C11.8924 37.0099 9.39457 34.0848 8.05423 30.6527C6.7147 27.219 6.11211 23.6134 6.24386 19.8362C6.379 16.0571 6.90602 12.4637 7.82224 9.05291C8.74359 5.641 9.65237 2.71299 10.5537 0.267787C8.85132 -0.4367 7.17033 -1.17538 5.50967 -1.95445C3.84727 -2.73446 2.20963 -3.55065 0.590697 -4.40432L6.53125 -14.7132C8.01929 -13.832 9.48895 -13.0797 10.9462 -12.4591C12.406 -11.8351 13.804 -11.2703 15.1462 -10.7557C17.3248 -15.0634 19.8129 -19.2041 22.6183 -23.1794C23.3407 -24.2606 24.4446 -25.8698 25.9307 -28.0085C27.4177 -30.1449 29.219 -32.4829 31.3356 -35.0203C33.4539 -37.5567 35.8513 -39.9688 38.5276 -42.2602C41.2082 -44.5513 44.1521 -46.4307 47.361 -47.9016C50.5733 -49.3744 53.9836 -50.1083 57.5892 -50.1067C61.1966 -50.1042 64.9559 -49.0215 68.8723 -46.8597L68.8707 -46.8568ZM62.3634 -21.7974C63.3436 -23.1329 64.1799 -24.7373 64.8802 -26.6086C65.5796 -28.4822 65.8473 -30.3127 65.6823 -32.1023C65.5217 -33.8916 64.6486 -35.3501 63.0665 -36.476C60.9893 -37.9634 58.7525 -38.3398 56.3596 -37.6035C53.9694 -36.8677 51.5211 -35.4048 49.0173 -33.2194C46.5144 -31.0316 44.1064 -28.6006 41.7942 -25.9239C38.8889 -22.3934 36.3021 -18.8615 34.0355 -15.3314C31.7714 -11.8017 30.1959 -9.24801 29.3115 -7.66697C36.4978 -7.19013 42.951 -8.26841 48.6729 -10.9009C54.3965 -13.5324 58.9592 -17.1644 62.366 -21.7979L62.3634 -21.7974Z" fill="#F59B7E"/>
</svg>
