<svg width="46" height="55" viewBox="0 0 46 55" fill="none" xmlns="http://www.w3.org/2000/svg">
<path d="M70.7262 17.9063C71.4078 20.8833 71.3316 23.5559 70.4964 25.9246C69.6627 28.2943 68.263 30.263 66.2964 31.8324C64.3307 33.4002 62.0293 34.5522 59.3888 35.2891C56.7495 36.0259 54.0033 36.2772 51.1532 36.041C46.8304 35.6281 42.4599 34.2766 38.0396 31.9925C33.6212 29.7066 29.8871 26.6874 26.8376 22.932C26.2204 22.1959 25.6135 21.4433 25.0135 20.6651C24.4171 19.8917 23.8599 19.087 23.3413 18.258C22.3177 18.6329 20.968 19.1898 19.2906 19.9276C17.615 20.6678 15.9632 21.5654 14.3327 22.621C12.7048 23.6773 11.4058 24.8765 10.4391 26.222C9.47317 27.5659 9.15727 29.0387 9.49464 30.634C9.98813 32.8537 11.3734 34.7987 13.6535 36.4712C15.9332 38.1424 18.849 39.5635 22.3992 40.7323C25.9486 41.9027 29.8984 42.8023 34.2435 43.4295C38.5897 44.0565 43.0755 44.4357 47.699 44.5648C52.3245 44.692 56.8581 44.5866 61.3031 44.2477C65.7489 43.9073 69.8507 43.3156 73.6124 42.4733L75.9899 51.9818C70.1144 53.2974 63.924 54.1021 57.4173 54.3947C50.9133 54.6881 44.561 54.4736 38.3604 53.7511C35.5519 53.4349 32.5383 52.9255 29.3228 52.2265C26.1084 51.5272 22.9293 50.6022 19.7854 49.4513C16.6446 48.2984 13.7384 46.8581 11.0708 45.1266C8.40431 43.3949 6.17686 41.3103 4.38878 38.874C2.60151 36.4361 1.45668 33.5997 0.956906 30.3656C0.511006 27.3373 0.869401 24.6736 2.03128 22.3761C3.1943 20.0784 4.79035 18.0841 6.81796 16.3921C8.8482 14.7009 10.9644 13.3004 13.1669 12.1875C15.3725 11.0768 17.3203 10.1851 19.0132 9.51453C18.5865 8.29998 18.1874 7.08063 17.819 5.85303C17.4501 4.6241 17.1117 3.39119 16.8015 2.15054L24.9367 0.437833C25.1716 1.6232 25.465 2.73885 25.8212 3.78671C26.1768 4.8375 26.5344 5.82843 26.8922 6.76699C30.15 5.89318 33.4652 5.25837 36.8421 4.86581C37.7417 4.73794 39.0939 4.56249 40.8999 4.33919C42.7051 4.11748 44.7618 3.96537 47.0692 3.88446C49.3769 3.80489 51.7499 3.92858 54.1902 4.25367C56.6323 4.58119 58.9828 5.23762 61.2442 6.22247C63.5082 7.20814 65.4798 8.64128 67.1595 10.5189C68.8396 12.3979 70.0283 14.8595 70.7285 17.9058L70.7262 17.9063ZM54.6484 26.1994C55.8004 26.0872 57.0254 25.7746 58.3259 25.267C59.6273 24.7577 60.7049 24.0439 61.5596 23.1238C62.4161 22.2063 62.7684 21.0719 62.6171 19.7236C62.4231 17.949 61.5765 16.6091 60.0778 15.7068C58.5807 14.8055 56.678 14.2128 54.3733 13.9281C52.0679 13.645 49.68 13.5246 47.2089 13.5686C44.0169 13.7019 40.9727 14.0016 38.0785 14.4671C35.1858 14.9338 33.1221 15.3039 31.8869 15.5805C34.9883 19.5436 38.5575 22.4002 42.5948 24.1517C46.6326 25.9046 50.6499 26.5868 54.6498 26.2005L54.6484 26.1994Z" fill="#F59B7E"/>
</svg>
