<svg width="66" height="37" viewBox="0 0 66 37" fill="none" xmlns="http://www.w3.org/2000/svg">
<path d="M40.3212 86.2948C36.6836 84.7926 33.9308 82.7205 32.0632 80.0771C30.1934 77.4344 29.167 74.4956 28.983 71.2585C28.8 68.0235 29.3042 64.7455 30.4975 61.4204C31.6902 58.0967 33.4728 55.0224 35.8452 52.2024C39.5012 47.9657 44.1795 44.3785 49.8752 41.434C55.5714 38.4929 61.5285 36.8177 67.7492 36.4109C68.9832 36.3107 70.2267 36.2336 71.492 36.1829C72.7494 36.1323 74.0107 36.1464 75.2687 36.2191C75.6375 34.8636 76.058 33.0296 76.5326 30.7163C77.0033 28.4032 77.2909 25.9976 77.3965 23.4969C77.4993 20.9982 77.2068 18.7389 76.5129 16.7198C75.8201 14.7027 74.5072 13.2729 72.5787 12.4385C69.8774 11.3029 66.8002 11.3096 63.3426 12.4599C59.8867 13.6109 56.2194 15.617 52.3446 18.478C48.4688 21.337 44.5792 24.8187 40.6813 28.9191C36.7829 33.0208 33.0408 37.4538 29.4591 42.2181C25.8778 46.9859 22.6097 51.8304 19.653 56.7557C16.6973 61.6832 14.2621 66.4362 12.3439 71.0185L0.575973 66.431C3.5721 59.2737 7.34005 52.1663 11.882 45.108C16.4212 38.052 21.3813 31.534 26.7622 25.554C29.1879 22.8373 31.9695 20.0488 35.101 17.1895C38.2319 14.3316 41.5739 11.6789 45.1269 9.23168C48.6798 6.78923 52.36 4.80763 56.1685 3.29374C59.9763 1.78125 63.828 0.993389 67.7219 0.929505C71.6168 0.867659 75.4519 1.7782 79.2243 3.66328C82.7401 5.45159 85.2732 7.81367 86.8225 10.7475C88.3712 13.6827 89.2781 16.8469 89.5456 20.2396C89.8102 23.6343 89.7053 26.9028 89.2336 30.0478C88.7574 33.1942 88.2431 35.9064 87.6862 38.1859C89.2811 38.6425 90.8603 39.1319 92.4255 39.6595C93.9923 40.1877 95.5407 40.7508 97.0761 41.3494L92.8132 51.1781C91.392 50.5415 90.0004 50.0185 88.6334 49.6119C87.2637 49.2026 85.9555 48.8399 84.7022 48.5165C83.1926 52.5926 81.3891 56.5508 79.2848 60.3935C78.7487 61.4344 77.9254 62.9867 76.814 65.0517C75.7016 67.1147 74.3286 69.3902 72.694 71.8761C71.0576 74.3614 69.1589 76.7639 66.9983 79.0869C64.8339 81.4101 62.3919 83.3919 59.6711 85.0351C56.9475 86.6805 53.9714 87.685 50.7455 88.0514C47.518 88.4171 44.0443 87.832 40.32 86.2976L40.3212 86.2948ZM43.5863 63.2119C42.8456 64.5066 42.2611 66.0273 41.8255 67.7729C41.391 69.5205 41.3382 71.1854 41.6684 72.7696C41.9946 74.354 42.9245 75.5697 44.4548 76.4156C46.4649 77.5344 48.5044 77.6429 50.57 76.7401C52.6334 75.8379 54.6745 74.2795 56.6915 72.0689C58.7075 69.8562 60.6138 67.4357 62.4093 64.8052C64.6483 61.3502 66.6022 57.9266 68.2699 54.5371C69.9353 51.1484 71.0843 48.703 71.7142 47.1983C65.2365 47.5049 59.5732 49.1279 54.7227 52.0667C49.8706 55.0049 46.1592 58.7197 43.5841 63.2126L43.5863 63.2119Z" fill="#F59B7E"/>
</svg>
