<svg width="563" height="2054" viewBox="0 0 563 2054" fill="none" xmlns="http://www.w3.org/2000/svg">
<path d="M198.744 165.244C197.217 150.585 199.355 138.247 205.162 128.231C210.962 118.209 219.385 110.729 230.436 105.784C241.482 100.846 253.967 98.243 267.908 97.9758C281.844 97.7084 296.007 99.8262 310.38 104.335C332.145 111.429 353.54 122.945 374.577 138.856C395.604 154.775 412.663 173.284 425.75 194.398C428.415 198.56 431.016 202.786 433.565 207.123C436.099 211.433 438.413 215.842 440.514 220.318C445.977 219.799 453.222 218.825 462.254 217.401C471.28 215.964 480.287 213.767 489.289 210.81C498.278 207.845 505.684 203.823 511.492 198.723C517.295 193.63 519.869 187.159 519.193 179.336C518.13 168.423 512.341 157.72 501.813 147.214C491.286 136.714 477.352 126.615 460.02 116.931C442.693 107.24 423.148 98.3298 401.41 90.213C379.666 82.096 357.048 74.964 333.564 68.8304C310.07 62.7031 286.891 57.7677 264.012 54.0239C241.127 50.2865 219.831 48.129 200.106 47.5442L194.207 0.480598C225.018 1.39401 257.099 5.06049 290.458 11.4868C323.803 17.9062 356.043 26.5061 387.177 37.2865C401.286 42.1181 416.315 48.0936 432.248 55.1926C448.176 62.2915 463.776 70.398 479.048 79.5124C494.304 88.6328 508.176 98.8089 520.641 110.053C533.1 121.298 543.09 133.658 550.611 147.127C558.126 160.604 562.106 175.164 562.538 190.802C562.829 205.418 559.26 217.377 551.834 226.67C544.402 235.964 534.962 243.328 523.519 248.77C512.064 254.205 500.361 258.185 488.405 260.725C476.436 263.25 465.924 265.066 456.855 266.158C458.236 272.317 459.472 278.465 460.548 284.615C461.624 290.771 462.542 296.91 463.312 303.051L420.723 301.279C420.301 295.486 419.535 289.946 418.405 284.647C417.28 279.335 416.105 274.299 414.896 269.506C397.718 269.671 380.403 268.655 362.933 266.439C358.264 265.958 351.256 265.155 341.904 264.032C332.557 262.903 321.974 261.149 310.16 258.764C298.344 256.372 286.329 252.957 274.103 248.524C261.869 244.079 250.316 238.213 239.434 230.927C228.538 223.633 219.426 214.609 212.092 203.867C204.757 193.118 200.308 180.249 198.732 165.244L198.744 165.244ZM286.125 145.92C280.179 145.063 273.731 145.05 266.769 145.855C259.803 146.666 253.843 148.696 248.884 151.951C243.917 155.193 241.379 160.047 241.269 166.498C241.096 174.983 244.535 182.227 251.584 188.217C258.626 194.2 267.937 199.233 279.499 203.315C291.065 207.391 303.158 210.808 315.783 213.561C332.141 216.762 347.855 219.011 362.912 220.31C377.963 221.602 388.725 222.35 395.202 222.542C381.986 200.401 365.661 182.845 346.227 169.868C326.792 156.884 306.76 148.903 286.118 145.913L286.125 145.92Z" fill="#F6F5EA"/>
<path d="M275.791 522.434C288.044 530.626 296.169 540.153 300.164 551.019C304.168 561.885 304.54 573.144 301.283 584.804C298.024 596.457 292.049 607.724 283.347 618.619C274.649 629.51 263.97 639.052 251.318 647.228C231.955 659.439 209.427 668.539 183.745 674.556C158.065 680.56 132.927 681.857 108.323 678.434C103.419 677.824 98.5059 677.125 93.5407 676.315C88.606 675.511 83.7359 674.473 78.9504 673.23C75.8589 677.764 71.9797 683.959 67.3034 691.818C62.6423 699.679 58.5774 708.012 55.1007 716.826C51.6376 725.635 49.9998 733.902 50.2121 741.628C50.4227 749.347 53.7561 755.461 60.2057 759.94C69.28 766.094 81.212 768.48 96.021 767.094C110.824 765.704 127.495 761.438 146.019 754.293C164.544 747.155 183.887 737.813 204.02 726.277C224.157 714.736 244.095 701.894 263.818 687.748C283.543 673.589 302.149 658.912 319.647 643.704C337.144 628.488 352.41 613.484 365.464 598.683L405.437 624.217C385.048 647.335 361.73 669.671 335.472 691.226C309.229 712.776 282.014 732.082 253.828 749.145C241.097 756.911 226.898 764.654 211.256 772.375C195.619 780.092 179.416 786.913 162.646 792.838C145.883 798.747 129.192 802.916 112.577 805.32C95.967 807.72 80.0756 807.508 64.9087 804.687C49.7402 801.858 35.9965 795.616 23.691 785.957C12.2608 776.842 5.34253 766.456 2.93775 754.805C0.536929 743.151 0.903762 731.183 4.02863 718.904C7.16706 706.619 11.5826 695.073 17.2679 684.254C22.9725 673.432 28.2921 664.186 33.2461 656.512C27.6261 653.639 22.1069 650.662 16.6891 647.56C11.2656 644.454 5.95655 641.238 0.740981 637.907L29.3152 606.276C34.0413 609.653 38.792 612.604 43.5903 615.12C48.3958 617.649 53.0204 619.963 57.4801 622.095C68.3292 608.775 80.1728 596.105 93.04 584.081C96.3939 580.797 101.489 575.919 108.328 569.443C115.168 562.974 123.28 555.953 132.663 548.389C142.052 540.828 152.357 533.767 163.578 527.194C174.815 520.623 186.708 515.484 199.266 511.768C211.838 508.046 224.603 506.802 237.552 508.024C250.507 509.249 263.25 514.05 275.799 522.425L275.791 522.434ZM234.826 602C239.284 597.973 243.414 593.021 247.243 587.151C251.071 581.274 253.317 575.392 253.981 569.498C254.66 563.606 252.548 558.552 247.656 554.345C241.239 548.791 233.47 546.808 224.358 548.404C215.256 549.998 205.435 553.945 194.908 560.23C184.382 566.524 174.027 573.643 163.843 581.596C150.929 592.135 139.158 602.786 128.539 613.539C117.929 624.291 110.477 632.092 106.191 636.952C131.668 640.932 155.603 639.591 178.003 632.933C200.409 626.278 219.346 615.967 234.836 601.999L234.826 602Z" fill="#F6F5EA"/>
<path d="M550.939 1909.23C544.848 1922.65 536.77 1932.22 526.698 1937.93C516.628 1943.65 505.58 1945.84 493.545 1944.53C481.518 1943.21 469.429 1939.14 457.263 1932.33C445.102 1925.52 433.95 1916.54 423.826 1905.38C408.628 1888.26 395.985 1867.51 385.871 1843.15C375.77 1818.79 370.402 1794.2 369.778 1769.37C369.582 1764.43 369.472 1759.47 369.464 1754.44C369.455 1749.44 369.687 1744.46 370.135 1739.54C365.159 1737.22 358.415 1734.4 349.901 1731.07C341.386 1727.75 332.503 1725.09 323.241 1723.1C313.986 1721.11 305.563 1720.84 297.973 1722.31C290.392 1723.77 284.901 1728.05 281.531 1735.15C276.935 1745.1 276.522 1757.26 280.298 1771.65C284.076 1786.03 290.997 1801.78 301.06 1818.9C311.115 1836.02 323.479 1853.58 338.137 1871.57C352.799 1889.56 368.713 1907.15 385.878 1924.3C403.057 1941.46 420.564 1957.44 438.416 1972.23C456.276 1987.02 473.562 1999.64 490.289 2010.11L471.597 2053.7C445.471 2037.35 419.639 2017.97 394.101 1995.57C368.569 1973.18 345.094 1949.47 323.674 1924.43C313.94 1913.14 303.991 1900.38 293.829 1886.21C283.671 1872.03 274.306 1857.16 265.732 1841.57C257.176 1825.99 250.348 1810.2 245.273 1794.2C240.203 1778.2 237.828 1762.49 238.145 1747.06C238.469 1731.64 242.392 1717.06 249.922 1703.35C257.056 1690.59 266.179 1682.07 277.283 1677.8C288.392 1673.54 300.26 1671.96 312.884 1673.04C325.515 1674.14 337.626 1676.62 349.226 1680.47C360.831 1684.34 370.82 1688.08 379.197 1691.72C381.118 1685.71 383.158 1679.78 385.337 1673.93C387.52 1668.07 389.829 1662.31 392.268 1656.62L428.124 1679.67C425.561 1684.89 423.423 1690.05 421.72 1695.2C420.007 1700.35 418.475 1705.29 417.097 1710.04C432.004 1718.57 446.432 1728.2 460.389 1738.94C464.174 1741.72 469.816 1745.95 477.319 1751.64C484.814 1757.34 493.06 1764.2 502.05 1772.23C511.037 1780.26 519.68 1789.28 527.991 1799.29C536.302 1809.3 543.307 1820.2 549.016 1831.99C554.733 1843.79 558.036 1856.18 558.937 1869.16C559.835 1882.14 557.171 1895.49 550.949 1909.24L550.939 1909.23ZM465.769 1881.75C470.467 1885.5 476.026 1888.77 482.44 1891.59C488.861 1894.41 495.03 1895.67 500.954 1895.37C506.878 1895.08 511.521 1892.17 514.876 1886.66C519.312 1879.43 520.005 1871.44 516.949 1862.71C513.896 1853.99 508.404 1844.94 500.49 1835.57C492.568 1826.21 483.859 1817.15 474.356 1808.4C461.857 1797.37 449.434 1787.49 437.097 1778.76C424.762 1770.04 415.853 1763.95 410.361 1760.51C410.577 1786.3 415.793 1809.7 426.006 1830.72C436.216 1851.74 449.47 1868.75 465.772 1881.76L465.769 1881.75Z" fill="#F6F5EA"/>
</svg>

