<svg width="806" height="1344" viewBox="0 0 806 1344" fill="none" xmlns="http://www.w3.org/2000/svg">
<path d="M145.142 312.977C131.714 306.9 122.14 298.831 116.421 288.764C110.694 278.7 108.484 267.654 109.789 255.618C111.098 243.589 115.149 231.496 121.951 219.324C128.75 207.156 137.724 195.996 148.868 185.86C165.972 170.646 186.708 157.983 211.059 147.845C235.411 137.72 259.998 132.328 284.83 131.679C289.768 131.478 294.729 131.364 299.76 131.351C304.76 131.337 309.734 131.564 314.659 132.007C316.967 127.029 319.78 120.282 323.108 111.765C326.42 103.247 329.066 94.3613 331.054 85.0969C333.029 75.8401 333.293 67.4167 331.819 59.8289C330.348 52.2489 326.059 46.7622 318.964 43.3995C309.005 38.8124 296.844 38.4114 282.461 42.2015C268.084 45.9943 252.336 52.9305 235.231 63.0102C218.123 73.0822 200.569 85.4632 182.595 100.138C164.617 114.818 147.05 130.749 129.907 147.931C112.764 165.127 96.8103 182.65 82.0358 200.516C67.2643 218.39 54.6585 235.689 44.2027 252.426L0.590901 233.777C16.9225 207.635 36.2721 181.784 58.649 156.223C81.0133 130.67 104.703 107.171 129.717 85.7275C141.006 75.9827 153.747 66.0209 167.914 55.8447C182.078 45.6735 196.947 36.2934 212.522 27.7043C228.092 19.1331 243.876 12.2895 259.873 7.19901C275.867 2.11362 291.579 -0.277026 307.003 0.0244298C322.43 0.333601 337.01 4.24248 350.73 11.7586C363.497 18.8802 372.022 27.9948 376.3 39.0948C380.576 50.1998 382.172 62.066 381.098 74.6911C380.012 87.3236 377.545 99.4367 373.706 111.041C369.849 122.649 366.114 132.642 362.482 141.023C368.497 142.937 374.429 144.971 380.281 147.145C386.139 149.322 391.903 151.626 397.593 154.059L374.579 189.938C369.364 187.38 364.195 185.247 359.05 183.549C353.895 181.841 348.954 180.314 344.206 178.941C335.682 193.856 326.071 208.293 315.345 222.26C312.573 226.049 308.345 231.694 302.658 239.203C296.968 246.703 290.114 254.956 282.095 263.954C274.069 272.95 265.059 281.601 255.064 289.922C245.054 298.242 234.162 305.258 222.381 310.979C210.587 316.707 198.198 320.023 185.224 320.936C172.243 321.847 158.886 319.195 145.136 312.987L145.142 312.977ZM172.537 227.781C168.798 232.482 165.534 238.044 162.717 244.461C159.902 250.885 158.649 257.055 158.958 262.979C159.252 268.903 162.162 273.542 167.677 276.892C174.916 281.322 182.905 282.006 191.633 278.942C200.352 275.88 209.394 270.38 218.751 262.456C228.106 254.525 237.157 245.808 245.902 236.296C256.918 223.786 266.787 211.353 275.504 199.007C284.212 186.664 290.287 177.749 293.721 172.254C267.936 172.495 244.542 177.734 223.534 187.968C202.519 198.199 185.523 211.469 172.528 227.783L172.537 227.781Z" fill="#F6F5EA"/>
<path d="M787.75 1220.36C778.818 1232.08 768.808 1239.6 757.716 1242.92C746.624 1246.24 735.363 1245.92 723.926 1241.95C712.497 1237.98 701.62 1231.32 691.281 1221.96C680.948 1212.61 672.083 1201.36 664.703 1188.23C653.71 1168.15 646.017 1145.11 641.595 1119.1C637.186 1093.1 637.443 1067.93 642.376 1043.58C643.287 1038.73 644.288 1033.87 645.403 1028.96C646.51 1024.09 647.846 1019.29 649.382 1014.59C645.048 1011.22 639.103 1006.97 631.548 1001.82C623.99 996.68 615.923 992.109 607.34 988.096C598.762 984.096 590.612 981.951 582.887 981.686C575.17 981.42 568.861 984.37 563.994 990.532C557.291 999.209 554.174 1010.97 554.644 1025.84C555.118 1040.7 558.348 1057.6 564.337 1076.53C570.318 1095.46 578.449 1115.34 588.722 1136.15C598.999 1156.96 610.586 1177.65 623.489 1198.21C636.404 1218.77 649.905 1238.25 664.005 1256.65C678.114 1275.05 692.147 1291.21 706.114 1305.15L678.164 1343.48C656.348 1321.7 635.492 1297.05 615.598 1269.51C595.707 1241.99 578.117 1213.64 562.825 1184.45C555.859 1171.26 549.006 1156.62 542.265 1140.53C535.527 1124.44 529.719 1107.85 524.839 1090.75C519.976 1073.65 516.845 1056.74 515.469 1040C514.098 1023.28 515.29 1007.43 519.041 992.466C522.801 977.5 529.878 964.168 540.278 952.482C550.08 941.635 560.874 935.371 572.65 933.689C584.431 932.012 596.353 933.116 608.416 936.993C620.484 940.883 631.736 946.002 642.184 952.344C652.633 958.705 661.534 964.585 668.887 970.003C672.101 964.571 675.413 959.246 678.844 954.029C682.278 948.808 685.815 943.707 689.462 938.707L719.27 969.178C715.607 973.687 712.37 978.246 709.562 982.88C706.742 987.521 704.147 991.994 701.744 996.313C714.369 1007.96 726.285 1020.57 737.492 1034.15C740.563 1037.7 745.117 1043.09 751.16 1050.31C757.194 1057.54 763.701 1066.07 770.672 1075.9C777.64 1085.74 784.052 1096.46 789.92 1108.06C795.785 1119.68 800.181 1131.87 803.115 1144.63C806.055 1157.41 806.509 1170.23 804.491 1183.08C802.469 1195.93 796.891 1208.36 787.758 1220.36L787.75 1220.36ZM710.862 1174.56C714.606 1179.26 719.295 1183.69 724.916 1187.87C730.546 1192.05 736.278 1194.66 742.121 1195.68C747.96 1196.73 753.134 1194.93 757.635 1190.31C763.574 1184.24 766.032 1176.61 765.002 1167.42C763.972 1158.24 760.639 1148.19 755.014 1137.3C749.382 1126.4 742.915 1115.63 735.605 1104.97C725.883 1091.43 715.978 1079.03 705.901 1067.76C695.823 1056.51 688.497 1048.59 683.911 1044.01C678.367 1069.2 678.229 1093.17 683.493 1115.94C688.753 1138.71 697.876 1158.25 710.862 1174.57L710.862 1174.56Z" fill="#F6F5EA"/>
</svg>

